<svg width="20" height="20" viewBox="0 0 20 20" fill="none" xmlns="http://www.w3.org/2000/svg">
<path d="M13.8878 1.67524C15.0866 1.60032 16.2687 2.01655 17.1595 2.83237C17.9753 3.72312 18.3915 4.90523 18.3249 6.11231V13.8876C18.3999 15.0947 17.9753 16.2768 17.1678 17.1675C16.277 17.9834 15.0866 18.3996 13.8878 18.3247H6.11247C4.90538 18.3996 3.72326 17.9834 2.83251 17.1675C2.01668 16.2768 1.60044 15.0947 1.67536 13.8876L1.67536 6.11231C1.60044 4.90523 2.01668 3.72312 2.83251 2.83237C3.72326 2.01655 4.90538 1.60032 6.11247 1.67524L13.8878 1.67524ZM13.6714 5.47964C13.1552 4.9635 12.3228 4.9635 11.8066 5.47964L11.2489 6.04572C11.1656 6.12896 11.1656 6.27048 11.2489 6.35373C11.2489 6.35373 11.2652 6.36997 11.2943 6.39888L11.4991 6.60253C11.6175 6.72038 11.7654 6.86755 11.9138 7.01555L12.4172 7.51871C12.5223 7.62423 12.5919 7.69494 12.5975 7.70234C12.6891 7.80223 12.7473 7.93543 12.7473 8.08527C12.7473 8.38496 12.5059 8.63471 12.1979 8.63471C12.0564 8.63471 11.9232 8.57643 11.8316 8.48486L10.4414 7.10296C10.3748 7.03636 10.2582 7.03636 10.1916 7.10296L6.22069 11.0738C5.94598 11.3486 5.78781 11.7149 5.77948 12.1061L5.72953 14.0791C5.72953 14.1873 5.76283 14.2872 5.83775 14.3621C5.91268 14.437 6.01258 14.4787 6.1208 14.4787H8.07712C8.47671 14.4787 8.85965 14.3205 9.15102 14.0374L14.7536 8.41826C15.2614 7.90213 15.2614 7.06966 14.7536 6.56185L13.6714 5.47964Z" fill="#546C97"/>
</svg>
