<svg width="20" height="20" viewBox="0 0 20 20" fill="none" xmlns="http://www.w3.org/2000/svg">
<path d="M6.59183 18.3333C3.65016 18.3333 1.66683 16.4408 1.66683 13.6167L1.66683 6.39166C1.66683 3.56666 3.65016 1.66666 6.59183 1.66666L13.4002 1.66666C16.3502 1.66666 18.3335 3.56666 18.3335 6.39166L18.3335 13.6167C18.3335 16.4408 16.3502 18.3333 13.4002 18.3333L6.59183 18.3333ZM9.82516 13.5667C10.0668 13.8083 10.4668 13.8083 10.7085 13.5667L13.8502 10.4417C14.0835 10.2083 14.0835 9.79166 13.8502 9.55833L10.7085 6.43333C10.4668 6.19166 10.0668 6.19166 9.82516 6.43333C9.5835 6.68333 9.5835 7.07499 9.82516 7.32499L11.8918 9.37499L6.60016 9.37499C6.25016 9.37499 5.97516 9.65833 5.97516 9.99999C5.97516 10.35 6.25016 10.625 6.60016 10.625L11.8918 10.625L9.82516 12.6833C9.7085 12.8 9.64183 12.9667 9.64183 13.125C9.64183 13.2825 9.7085 13.4417 9.82516 13.5667Z" fill="#546C97"/>
</svg>
