<svg width="690" height="332" viewBox="0 0 690 332" fill="none" xmlns="http://www.w3.org/2000/svg">
<path d="M124.28 165.006C122.116 166.907 119.481 168.191 116.651 168.724C113.82 169.256 110.898 169.018 108.191 168.034C105.484 167.049 103.092 165.355 101.264 163.129C99.437 160.902 98.2418 158.225 97.804 155.378C96.7772 148.718 99.6124 140.715 94.9068 135.896C92.5406 133.47 88.781 132.64 86.7785 129.912C85.0941 127.621 85.0591 124.556 85.0887 121.713C85.1444 116.667 85.2001 111.62 85.2558 106.573C83.0108 103.772 78.4804 103.939 75.7988 101.554C73.1172 99.1687 72.5647 95.3359 72.0958 91.8157C70.6913 81.417 68.7246 71.102 66.2043 60.916C74.0766 63.2286 81.8654 65.738 89.3254 69.1477C93.4892 71.0533 97.8418 73.3767 99.9305 77.4494C102.019 81.5221 101.359 86.4358 101.297 91.0421C101.275 92.53 101.335 94.0663 101.963 95.4167C103.58 98.891 108.045 99.6916 111.368 101.616C113.2 102.69 114.756 104.175 115.915 105.954C117.073 107.733 117.802 109.757 118.044 111.867C118.443 115.691 117.2 119.594 117.923 123.373C119.524 131.745 129.557 135.61 133.554 143.136C137.758 151.001 130.98 159.124 124.28 165.006Z" fill="#D0E0FF"/>
<path d="M144.93 239.843C144.865 239.84 144.803 239.814 144.754 239.771C144.705 239.728 144.672 239.67 144.661 239.606C143.084 230.463 137.564 205.746 127.981 177.642C120.947 157.014 112.799 137.519 103.771 119.691C92.484 97.4168 79.7848 77.7056 65.9995 61.1076C65.9755 61.0787 65.9573 61.0454 65.9461 61.0095C65.9349 60.9737 65.9309 60.936 65.9343 60.8985C65.9376 60.8611 65.9484 60.8247 65.9658 60.7915C65.9832 60.7582 66.0071 60.7287 66.0359 60.7046C66.0647 60.6805 66.098 60.6624 66.1339 60.6512C66.1698 60.64 66.2075 60.636 66.2449 60.6393C66.2823 60.6427 66.3187 60.6534 66.352 60.6709C66.3852 60.6883 66.4148 60.7121 66.4388 60.741C80.2457 77.3741 92.9772 97.1284 104.283 119.438C113.328 137.287 121.483 156.809 128.525 177.464C138.122 205.604 143.644 230.35 145.235 239.506C145.247 239.581 145.229 239.657 145.185 239.719C145.141 239.78 145.075 239.822 145 239.835L144.93 239.843Z" fill="#133475"/>
<path d="M0 141.4C2.69507 143.575 3.85126 147.085 5.22574 150.273C6.60023 153.462 8.69699 156.791 12.0712 157.607C15.7284 158.494 19.5689 156.079 23.2423 156.898C26.2069 157.564 28.3279 160.179 29.8991 162.79C31.4703 165.402 32.8367 168.276 35.265 170.119C39.0381 172.979 44.2665 172.61 48.9533 171.963C53.64 171.316 58.7445 170.599 62.8329 172.982C67.808 175.882 69.6622 182.483 74.5995 185.442C76.7017 186.701 79.1812 187.178 81.6256 187.359C88.968 187.882 96.277 185.96 102.413 181.893C102.062 175.254 99.7526 168.079 95.5834 162.904C91.4141 157.729 85.1454 154.13 78.5074 153.783C76.3918 153.669 74.2492 153.874 72.1578 153.513C63.3692 152.049 58.801 141.845 50.6565 138.233C47.1548 136.695 43.215 136.475 39.5636 137.613C36.0304 138.729 32.8772 141.095 29.193 141.486C25.5924 141.866 22.1157 140.306 18.631 139.33C11.9472 137.462 6.53016 139.036 0 141.4Z" fill="#D0E0FF"/>
<path d="M142.467 237.484C142.404 237.483 142.344 237.461 142.296 237.422C142.247 237.383 142.212 237.329 142.197 237.269C138.012 220.91 128.649 205.237 115.117 191.943C103.491 180.518 88.5518 170.628 70.7293 162.545C51.5539 153.847 29.4328 147.251 1.11297 141.791C1.03828 141.776 0.972323 141.733 0.929615 141.67C0.886906 141.607 0.870944 141.53 0.88524 141.455C0.899535 141.38 0.942918 141.314 1.00584 141.272C1.06877 141.229 1.14608 141.213 1.22078 141.227C29.5864 146.699 51.748 153.305 70.9665 162.022C88.8483 170.132 103.846 180.062 115.511 191.534C129.115 204.903 138.532 220.668 142.731 237.126C142.749 237.2 142.737 237.278 142.699 237.343C142.66 237.409 142.597 237.456 142.523 237.476L142.467 237.484Z" fill="#133475"/>
<path d="M153.735 141.109C151.637 141.514 149.476 141.454 147.404 140.933C145.332 140.413 143.4 139.445 141.742 138.098C140.084 136.75 138.742 135.055 137.809 133.133C136.876 131.211 136.376 129.108 136.344 126.972C136.295 123.737 137.314 120.592 138.424 117.557C138.804 116.516 139.203 115.433 139.066 114.336C138.958 113.462 138.527 112.67 138.039 111.934C136.238 109.169 133.727 106.764 132.783 103.603C131.099 97.9938 134.845 91.9508 133.67 86.2123C133.26 84.2124 132.277 82.3849 131.573 80.4685C129.096 73.7301 130.393 65.7194 134.875 60.0996C141.181 62.6306 145.299 69.3582 145.361 76.1559C145.391 79.544 144.461 83.1342 145.9 86.2015C146.76 88.0344 148.355 89.3955 149.851 90.7648C152.465 93.161 154.993 95.9076 155.918 99.3334C157.37 104.724 154.589 110.654 156.392 115.931C158.195 121.209 164.014 124.287 165.596 129.583C166 131.013 166.133 132.506 165.989 133.985C165.806 136.257 165.057 138.602 163.345 140.109C160.685 142.454 157.22 140.435 153.735 141.109Z" fill="#D0E0FF"/>
<path d="M156.107 238.894C156.034 238.893 155.964 238.865 155.911 238.815C155.858 238.765 155.826 238.697 155.821 238.624C154.584 224.069 154.923 209.196 155.249 194.8C155.705 174.887 156.174 154.297 152.452 134.451C150.525 124.187 147.447 113.966 144.469 104.099C140.33 90.3522 136.047 76.153 134.821 61.6303C134.818 61.5928 134.822 61.555 134.833 61.5192C134.845 61.4833 134.863 61.45 134.887 61.4212C134.912 61.3924 134.941 61.3687 134.975 61.3514C135.008 61.3341 135.045 61.3235 135.082 61.3204C135.12 61.3172 135.158 61.3214 135.193 61.3328C135.229 61.3442 135.263 61.3626 135.291 61.3869C135.32 61.4112 135.344 61.4409 135.361 61.4743C135.378 61.5078 135.389 61.5443 135.392 61.5818C136.61 76.0452 140.885 90.2228 145.019 103.934C148 113.823 151.083 124.052 153.013 134.346C156.748 154.259 156.279 174.884 155.824 194.83C155.495 209.21 155.155 224.077 156.392 238.592C156.395 238.63 156.39 238.668 156.378 238.705C156.366 238.741 156.347 238.774 156.322 238.803C156.297 238.832 156.267 238.856 156.232 238.873C156.198 238.89 156.161 238.9 156.123 238.902L156.107 238.894Z" fill="#133475"/>
<path d="M124.585 330.472C124.585 330.472 98.1167 241.015 102.378 238.649C106.639 236.282 211.134 236.188 211.134 236.188C211.134 236.188 199.166 330.272 195.824 330.472C192.482 330.671 133.406 330.882 124.585 330.472Z" fill="#3679FD"/>
<mask id="mask0_1744_9516" style="mask-type:luminance" maskUnits="userSpaceOnUse" x="101" y="236" width="111" height="95">
<path d="M124.585 330.472C124.585 330.472 98.1167 241.015 102.378 238.649C106.639 236.282 211.134 236.188 211.134 236.188C211.134 236.188 199.166 330.272 195.824 330.472C192.482 330.671 133.406 330.882 124.585 330.472Z" fill="white"/>
</mask>
<g mask="url(#mask0_1744_9516)">
<path d="M150.385 229.266C150.385 229.266 119.815 268.325 121.548 269.368C123.28 270.411 209.159 288.128 209.137 287.087C209.116 286.047 217.869 236.188 217.869 236.188L150.385 229.266Z" fill="#1B4DAE"/>
</g>
<path d="M401.579 253.64H326.81V317.189H401.579V253.64Z" fill="#3679FD"/>
<path d="M426.231 317.189H303.963C300.86 317.189 298.344 319.705 298.344 322.809V325.086C298.344 328.19 300.86 330.706 303.963 330.706H426.231C429.334 330.706 431.85 328.19 431.85 325.086V322.809C431.85 319.705 429.334 317.189 426.231 317.189Z" fill="#1B4DAE"/>
<path d="M176.33 32.0301C176.408 31.8759 176.527 31.7462 176.674 31.6554C176.821 31.5645 176.99 31.516 177.163 31.5153C192.242 31.4128 538.634 29.1083 553.98 31.5153C560.03 32.4667 558.524 262.802 553.98 271.6C550.635 278.069 180.952 272.381 176.657 271.6C171.361 270.627 168.738 47.1484 176.33 32.0301Z" fill="#699CFF"/>
<path d="M185.448 42.6145C185.448 42.6145 184.262 239.282 189.003 239.818C193.743 240.355 539.23 242.514 542.192 239.818C545.153 237.123 546.339 41 542.192 41C538.044 41 185.448 42.6145 185.448 42.6145Z" fill="#D0E0FF"/>
<mask id="mask1_1744_9516" style="mask-type:luminance" maskUnits="userSpaceOnUse" x="185" y="41" width="360" height="201">
<path d="M185.448 42.6145C185.448 42.6145 184.262 239.282 189.003 239.818C193.743 240.355 539.23 242.514 542.192 239.818C545.153 237.123 546.339 41 542.192 41C538.044 41 185.448 42.6145 185.448 42.6145Z" fill="white"/>
</mask>
<g mask="url(#mask1_1744_9516)">
<path opacity="0.46" d="M412.354 36.5391L278.088 245.02H178.842L185.448 42.6117L412.354 36.5391Z" fill="#8CB3FF"/>
<path opacity="0.46" d="M308.739 246.721L437.787 35.4204H494.416L370.087 245.616L308.739 246.721Z" fill="#8CB3FF"/>
<path opacity="0.46" d="M518.367 36.2046L393.424 246.901L470.821 245.923L553.937 92.9286L552.26 37.5361L518.367 36.2046Z" fill="#8CB3FF"/>
</g>
<path d="M367.67 268.007C372.307 266.086 374.509 260.77 372.588 256.132C370.667 251.495 365.351 249.292 360.714 251.213C356.077 253.134 353.875 258.451 355.796 263.088C357.717 267.726 363.033 269.928 367.67 268.007Z" fill="#3679FD"/>
<path d="M278.487 127.586C278.934 125.505 279.808 123.926 281.107 122.847C282.301 121.812 283.817 121.222 285.397 121.176C286.994 121.151 288.557 121.639 289.855 122.57C291.267 123.538 292.27 125.024 292.865 127.028C292.937 131.858 292.974 136.632 292.976 141.351C292.977 146.07 293.052 150.807 293.199 155.564C296.468 155.564 299.644 155.526 302.729 155.451C305.814 155.375 308.767 155.338 311.588 155.34C313.595 155.937 315.081 156.884 316.045 158.181C316.963 159.338 317.454 160.775 317.439 162.251C317.401 163.663 316.844 164.963 315.768 166.151C314.692 167.339 313.112 168.157 311.03 168.604C308.134 168.604 305.236 168.623 302.338 168.661C299.44 168.698 296.542 168.68 293.644 168.604C293.791 172.32 293.881 176.351 293.914 180.698C293.946 185.045 294.002 189.076 294.081 192.792C293.93 195.241 293.131 197.062 291.685 198.253C290.332 199.407 288.612 200.04 286.834 200.037C285.049 200.037 283.359 199.424 281.761 198.196C280.164 196.969 279.217 195.172 278.921 192.806C278.845 189.016 278.901 185.022 279.088 180.822C279.275 176.623 279.293 172.629 279.142 168.841C275.949 168.766 272.513 168.599 268.833 168.34C265.229 168.091 261.651 167.55 258.134 166.723C254.83 165.961 251.631 164.801 248.607 163.267C245.829 161.884 243.422 159.859 241.583 157.359C239.99 155.171 239.027 152.589 238.797 149.893C238.584 147.118 238.848 144.328 239.578 141.642C240.378 138.669 241.499 135.792 242.92 133.06C244.391 130.193 246.01 127.404 247.771 124.705C249.518 122.029 251.264 119.52 253.01 117.179C254.757 114.838 256.298 112.771 257.635 110.98C260.605 106.967 263.651 103.066 266.774 99.2765C269.897 95.4868 273.018 91.6603 276.137 87.7969C277.77 86.4564 279.46 85.7691 281.206 85.735C282.814 85.6536 284.404 86.1035 285.731 87.0153C287.016 87.9384 287.941 89.2773 288.351 90.805C288.832 92.4419 288.702 94.2622 287.96 96.2658C285.434 99.387 282.462 102.936 279.045 106.912C275.627 110.889 272.269 115.049 268.968 119.392C265.724 123.649 262.711 128.076 259.942 132.656C257.227 137.148 255.314 141.514 254.202 145.753C253.756 147.241 253.923 148.523 254.703 149.599C255.483 150.675 256.634 151.568 258.158 152.275C259.857 153.039 261.632 153.618 263.454 154.003C265.422 154.442 267.412 154.777 269.415 155.006C271.383 155.231 273.203 155.398 274.876 155.507C276.548 155.617 277.83 155.707 278.721 155.777C278.57 151.096 278.496 146.396 278.498 141.677L278.487 127.586Z" fill="white"/>
<path d="M332.542 178.97C331.574 175.777 330.608 171.783 329.645 166.987C328.629 161.848 327.902 156.657 327.47 151.437C326.982 145.73 326.815 139.999 326.969 134.273C327.092 128.614 327.745 122.98 328.92 117.443C329.977 112.347 331.76 107.43 334.213 102.84C336.59 98.457 339.748 95.0016 343.686 92.4733C348.354 89.4575 353.469 87.2004 358.843 85.7861C363.821 84.4717 368.973 83.9452 374.113 84.2255C378.991 84.5027 383.791 85.5761 388.322 87.4033C392.677 89.1368 396.681 91.6485 400.137 94.8156C403.561 97.9978 406.325 101.823 408.271 106.074C410.314 110.459 411.41 115.362 411.559 120.785C411.634 125.916 411.82 131.396 412.117 137.227C412.413 143.058 412.432 148.91 412.173 154.782C411.932 160.507 411.167 166.197 409.888 171.782C408.71 177.039 406.596 182.041 403.646 186.55C401.142 190.317 397.756 193.415 393.782 195.576C389.613 197.899 385.098 199.537 380.409 200.428C375.546 201.362 370.575 201.606 365.643 201.153C360.76 200.75 355.968 199.604 351.432 197.754C347.119 196.003 343.156 193.493 339.73 190.342C336.369 187.255 333.889 183.331 332.542 178.97ZM351.168 105.292C349.234 106.78 347.507 108.954 345.985 111.813C344.477 114.621 343.584 117.718 343.365 120.899C343.067 125.357 342.77 129.871 342.473 134.44C342.177 139.01 342.066 143.524 342.139 147.984C342.209 152.388 342.581 156.782 343.255 161.135C343.912 165.408 345.149 169.571 346.931 173.51C348.019 176.075 349.724 178.333 351.893 180.084C354.088 181.872 356.577 183.267 359.247 184.207C362.022 185.187 364.931 185.732 367.872 185.825C370.87 185.942 373.871 185.641 376.787 184.932C379.678 184.231 382.441 183.084 384.98 181.534C387.533 179.982 389.75 177.936 391.499 175.515C392.757 173.953 393.779 171.78 394.564 168.995C395.392 165.945 395.97 162.832 396.291 159.688C396.663 156.274 396.886 152.744 396.96 149.098C397.033 145.452 397.033 141.996 396.96 138.731C396.884 135.461 396.81 132.544 396.736 129.982C396.662 127.42 396.625 125.544 396.625 124.354C396.805 117.754 394.411 111.342 389.95 106.475C385.489 101.607 379.31 98.6653 372.72 98.271C369.138 98.0763 365.55 98.5329 362.131 99.6187C358.453 100.727 354.799 102.619 351.168 105.292Z" fill="white"/>
<path d="M464.164 127.586C464.611 125.505 465.485 123.926 466.784 122.847C467.978 121.812 469.494 121.222 471.074 121.176C472.671 121.151 474.234 121.639 475.532 122.57C476.944 123.538 477.947 125.024 478.542 127.028C478.616 131.858 478.653 136.632 478.653 141.351C478.653 146.07 478.727 150.807 478.876 155.564C482.146 155.564 485.323 155.526 488.406 155.451C491.489 155.375 494.442 155.338 497.265 155.34C499.272 155.937 500.758 156.884 501.722 158.181C502.64 159.338 503.131 160.775 503.116 162.251C503.078 163.663 502.521 164.963 501.445 166.151C500.369 167.339 498.788 168.157 496.702 168.604C493.805 168.604 490.908 168.623 488.01 168.661C485.112 168.698 482.214 168.679 479.316 168.604C479.465 172.32 479.555 176.351 479.585 180.698C479.616 185.045 479.671 189.076 479.752 192.792C479.601 195.241 478.803 197.062 477.356 198.253C476.003 199.407 474.283 200.04 472.505 200.037C470.721 200.037 469.03 199.424 467.433 198.196C465.836 196.969 464.889 195.172 464.592 192.806C464.517 189.016 464.573 185.022 464.76 180.822C464.946 176.623 464.964 172.629 464.813 168.841C461.621 168.766 458.185 168.599 454.505 168.34C450.901 168.091 447.322 167.55 443.805 166.723C440.501 165.961 437.302 164.801 434.278 163.267C431.501 161.884 429.093 159.859 427.255 157.359C425.664 155.17 424.7 152.589 424.468 149.893C424.255 147.118 424.52 144.328 425.25 141.642C426.05 138.669 427.171 135.791 428.594 133.06C430.064 130.192 431.683 127.403 433.446 124.705C435.192 122.029 436.938 119.52 438.685 117.179C440.431 114.838 441.973 112.771 443.31 110.98C446.279 106.967 449.326 103.066 452.449 99.2765C455.571 95.4868 458.692 91.6603 461.811 87.7969C463.444 86.4564 465.134 85.7691 466.881 85.735C468.485 85.6559 470.071 86.1057 471.395 87.0153C472.679 87.9384 473.605 89.2773 474.014 90.8049C474.498 92.4419 474.368 94.2622 473.624 96.2658C471.097 99.387 468.126 102.936 464.708 106.912C461.291 110.889 457.929 115.05 454.623 119.395C451.378 123.651 448.364 128.078 445.595 132.659C442.88 137.151 440.967 141.516 439.854 145.755C439.411 147.243 439.578 148.525 440.356 149.602C441.134 150.678 442.285 151.57 443.811 152.278C445.509 153.041 447.285 153.621 449.107 154.006C451.075 154.445 453.065 154.779 455.068 155.009C457.044 155.233 458.865 155.4 460.528 155.51C462.192 155.62 463.474 155.709 464.374 155.779C464.223 151.099 464.149 146.399 464.15 141.68L464.164 127.586Z" fill="white"/>
<path opacity="0.54" d="M256.749 273.119L221.015 172.647L230.089 174.105C230.34 174.146 230.576 174.254 230.772 174.416C230.968 174.579 231.118 174.79 231.205 175.03L266.966 273.214C266.968 273.219 266.969 273.224 266.968 273.23C266.968 273.235 266.966 273.24 266.963 273.245C266.96 273.249 266.956 273.253 266.952 273.256C266.947 273.258 266.941 273.26 266.936 273.26L256.749 273.119Z" fill="#1B4DAE"/>
<path d="M141.868 277.387C143.378 277.117 217.516 171.879 221.015 172.647C224.513 173.415 265.251 297.1 263.737 296.861C262.222 296.621 138.12 278.052 141.868 277.387Z" fill="#F45757"/>
<path d="M209.488 260.365C208.993 260.837 208.391 261.182 207.733 261.368C207.176 261.526 206.585 261.526 206.027 261.368C205.465 261.193 204.956 260.877 204.55 260.449C204.083 259.953 203.74 259.352 203.551 258.697C203.91 254.273 204.187 249.781 204.381 245.22C204.575 240.66 204.821 236.124 205.119 231.614C205.416 227.104 205.845 222.664 206.407 218.293C206.946 214.037 207.777 209.822 208.895 205.679C208.984 205.35 209.288 205.059 209.803 204.798C210.399 204.514 211.036 204.327 211.69 204.243C212.488 204.129 213.296 204.085 214.102 204.113C214.947 204.134 215.789 204.24 216.614 204.428C217.37 204.591 218.098 204.869 218.77 205.253C219.356 205.578 219.833 206.069 220.139 206.666C220.606 207.311 220.885 208.418 220.977 209.986C221.064 211.88 221.028 213.777 220.872 215.665C220.71 217.881 220.415 220.339 219.988 223.04C219.56 225.741 219.053 228.517 218.465 231.369C217.878 234.217 217.233 237.076 216.533 239.945C215.832 242.815 215.088 245.525 214.301 248.075C213.518 250.628 212.732 252.951 211.943 255.045C211.312 256.792 210.548 258.489 209.658 260.12C209.613 260.21 209.556 260.292 209.488 260.365ZM201.812 277.141C201.03 276.551 200.364 275.82 199.85 274.985C199.376 274.229 199.083 273.373 198.996 272.484C198.923 271.623 199.111 270.76 199.535 270.007C200.047 269.121 200.793 268.393 201.691 267.902C203.076 267.059 204.465 266.739 205.858 266.942C207.25 267.145 208.321 267.989 209.07 269.473C209.774 270.75 210.125 272.191 210.086 273.648C210.057 275.143 209.406 276.435 208.132 277.524C207.719 277.923 207.22 278.223 206.674 278.403C206.128 278.582 205.549 278.635 204.979 278.559C203.807 278.41 202.705 277.917 201.812 277.141Z" fill="white"/>
<path d="M620.071 218.991H530.36C528.562 218.991 527.104 220.449 527.104 222.247V327.048C527.104 328.847 528.562 330.304 530.36 330.304H620.071C621.869 330.304 623.327 328.847 623.327 327.048V222.247C623.327 220.449 621.869 218.991 620.071 218.991Z" fill="#3679FD"/>
<mask id="mask2_1744_9516" style="mask-type:luminance" maskUnits="userSpaceOnUse" x="527" y="218" width="97" height="113">
<path d="M620.071 218.991H530.36C528.562 218.991 527.104 220.449 527.104 222.247V327.048C527.104 328.847 528.562 330.304 530.36 330.304H620.071C621.869 330.304 623.327 328.847 623.327 327.048V222.247C623.327 220.449 621.869 218.991 620.071 218.991Z" fill="white"/>
</mask>
<g mask="url(#mask2_1744_9516)">
<path d="M626.035 234.754C626.035 234.754 588.347 287.82 520.148 302.513V334.989H628.42C628.42 334.989 631.239 236.654 626.035 234.754Z" fill="#1B4DAE"/>
</g>
<path d="M552.538 218.991C552.538 218.991 551.261 127.349 552.964 126.292C554.667 125.236 567.649 124.163 568.714 126.718C569.778 129.273 568.714 218.991 568.714 218.991H552.538Z" fill="#F45757"/>
<mask id="mask3_1744_9516" style="mask-type:luminance" maskUnits="userSpaceOnUse" x="552" y="125" width="18" height="94">
<path d="M552.538 218.991C552.538 218.991 551.261 127.349 552.964 126.292C554.667 125.236 567.649 124.163 568.714 126.718C569.778 129.273 568.714 218.991 568.714 218.991H552.538Z" fill="white"/>
</mask>
<g mask="url(#mask3_1744_9516)">
<path d="M563.671 139.362V220.8H557.594V139.527L563.671 139.362Z" fill="#E23535"/>
<path d="M549.554 142.882C549.554 142.882 568.444 141.448 571.077 142.766C571.077 142.766 570.945 123.937 569.891 123.543C568.838 123.15 550.802 123.047 550.409 125.139C550.015 127.23 549.554 142.882 549.554 142.882Z" fill="#D4DFFF"/>
</g>
<path d="M579.241 85.7295H614.816C614.949 85.7291 615.081 85.7552 615.204 85.8063C615.327 85.8573 615.438 85.9323 615.532 86.0268C615.626 86.1213 615.7 86.2336 615.75 86.357C615.8 86.4804 615.825 86.6125 615.824 86.7457V218.999H578.233V86.7457C578.231 86.6125 578.256 86.4804 578.306 86.357C578.356 86.2336 578.43 86.1213 578.524 86.0268C578.618 85.9323 578.73 85.8573 578.853 85.8063C578.976 85.7552 579.108 85.7291 579.241 85.7295Z" fill="#D4DFFF"/>
<mask id="mask4_1744_9516" style="mask-type:luminance" maskUnits="userSpaceOnUse" x="578" y="85" width="38" height="134">
<path d="M579.241 85.7295H614.816C614.949 85.7291 615.081 85.7552 615.204 85.8063C615.327 85.8573 615.438 85.9323 615.532 86.0268C615.626 86.1213 615.7 86.2336 615.75 86.357C615.8 86.4804 615.825 86.6125 615.824 86.7457V218.999H578.233V86.7457C578.231 86.6125 578.256 86.4804 578.306 86.357C578.356 86.2336 578.43 86.1213 578.524 86.0268C578.618 85.9323 578.73 85.8573 578.853 85.8063C578.976 85.7552 579.108 85.7291 579.241 85.7295Z" fill="white"/>
</mask>
<g mask="url(#mask4_1744_9516)">
<path opacity="0.46" d="M588.113 80.8589H575.217V223.843H588.113V80.8589Z" fill="#8CB3FF"/>
<path d="M582.968 95.9531H578.233V97.6027H582.968V95.9531Z" fill="#3679FD"/>
<path d="M582.968 103.549H578.233V105.198H582.968V103.549Z" fill="#3679FD"/>
<path d="M582.968 111.144H578.233V112.794H582.968V111.144Z" fill="#3679FD"/>
<path d="M582.968 118.743H578.233V120.392H582.968V118.743Z" fill="#3679FD"/>
<path d="M582.968 126.338H578.233V127.987H582.968V126.338Z" fill="#3679FD"/>
<path d="M582.968 133.936H578.233V135.586H582.968V133.936Z" fill="#3679FD"/>
<path d="M582.968 141.532H578.233V143.181H582.968V141.532Z" fill="#3679FD"/>
<path d="M582.968 149.127H578.233V150.777H582.968V149.127Z" fill="#3679FD"/>
<path d="M582.968 156.726H578.233V158.375H582.968V156.726Z" fill="#3679FD"/>
<path d="M582.968 164.321H578.233V165.971H582.968V164.321Z" fill="#3679FD"/>
<path d="M582.968 171.917H578.233V173.566H582.968V171.917Z" fill="#3679FD"/>
<path d="M582.968 179.515H578.233V181.164H582.968V179.515Z" fill="#3679FD"/>
<path d="M582.968 187.11H578.233V188.76H582.968V187.11Z" fill="#3679FD"/>
<path d="M582.968 194.708H578.233V196.358H582.968V194.708Z" fill="#3679FD"/>
<path d="M582.968 202.304H578.233V203.954H582.968V202.304Z" fill="#3679FD"/>
<path d="M582.968 209.9H578.233V211.549H582.968V209.9Z" fill="#3679FD"/>
<path opacity="0.17" d="M607.693 80.7C597.263 89.6379 593.603 105.621 599.109 118.206C601.728 124.195 606.208 129.527 607.048 136.022C607.857 142.311 605.097 148.421 602.909 154.381C600.753 160.248 599.095 166.445 599.532 172.679C600.249 182.876 606.501 192.415 605.48 202.585C604.499 212.353 596.901 220.856 597.341 230.665C597.465 230.665 597.209 231.096 597.341 231.096H621.753V80.0747L624.758 80.1044L607.693 80.7Z" fill="#85ACFA"/>
</g>
<path d="M688.86 331.852H71.8156C71.5118 331.852 71.2204 331.731 71.0056 331.516C70.7908 331.301 70.6702 331.01 70.6702 330.706C70.6702 330.402 70.7908 330.111 71.0056 329.896C71.2204 329.681 71.5118 329.561 71.8156 329.561H688.86C689.164 329.561 689.455 329.681 689.67 329.896C689.885 330.111 690.005 330.402 690.005 330.706C690.005 331.01 689.885 331.301 689.67 331.516C689.455 331.731 689.164 331.852 688.86 331.852Z" fill="#1B4DAE"/>
<path d="M259.958 16.1108L245.674 17.9598C237.816 14.2753 230.202 11.8899 223.106 12.6311C216.01 13.3723 211.881 20.8412 213.641 25.8681C215.188 30.2885 228.014 34.8221 233.547 34.9299C239.08 35.0377 247.486 33.7574 250.571 31.0189H259.939L259.958 16.1108Z" fill="#FE8E9C"/>
<mask id="mask5_1744_9516" style="mask-type:luminance" maskUnits="userSpaceOnUse" x="213" y="12" width="47" height="23">
<path d="M259.958 16.1108L245.674 17.9598C237.816 14.2753 230.202 11.8899 223.106 12.6311C216.01 13.3723 211.881 20.8412 213.641 25.8681C215.188 30.2885 228.014 34.8221 233.547 34.9299C239.08 35.0377 247.486 33.7574 250.571 31.0189H259.939L259.958 16.1108Z" fill="white"/>
</mask>
<g mask="url(#mask5_1744_9516)">
<path d="M228.585 35.6091C228.585 35.6091 231.331 30.2373 231.207 26.1161C231.083 21.9948 225.418 15.5718 225.418 15.5718L220.715 15.8117C220.715 15.8117 222.249 30.8626 220.891 33.5175L228.585 35.6091Z" fill="#E57492"/>
</g>
<path d="M250.577 31.0191C250.577 31.0191 253.407 26.6795 246.833 22.2969C246.833 22.2969 252.695 23.2429 254.708 27.1485C256.722 31.0541 256.301 31.1215 256.301 31.1215L250.577 31.0191Z" fill="#E57492"/>
<path d="M245.68 17.9602C245.68 17.9602 241.098 18.3645 240.22 18.3861C237.015 18.4642 233.803 18.6421 233.803 18.6421C233.803 18.6421 231.806 12.1598 228.871 13.4886C224.559 15.4373 229.485 18.4642 229.485 18.4642C229.485 18.4642 221.823 17.1866 221.074 17.1435C220.325 17.1004 226.812 30.7793 219.891 34.9329C212.97 39.0865 205.267 36.8978 204.302 26.1244C203.338 15.3511 214.374 5.01703 224.534 5.37012C234.695 5.72322 245.68 17.9602 245.68 17.9602Z" fill="#1B4DAE"/>
<mask id="mask6_1744_9516" style="mask-type:luminance" maskUnits="userSpaceOnUse" x="204" y="5" width="42" height="32">
<path d="M245.68 17.9602C245.68 17.9602 241.098 18.3645 240.22 18.3861C237.015 18.4642 233.803 18.6421 233.803 18.6421C233.803 18.6421 231.806 12.1598 228.871 13.4886C224.559 15.4373 229.485 18.4642 229.485 18.4642C229.485 18.4642 221.823 17.1866 221.074 17.1435C220.325 17.1004 226.812 30.7793 219.891 34.9329C212.97 39.0865 205.267 36.8978 204.302 26.1244C203.338 15.3511 214.374 5.01703 224.534 5.37012C234.695 5.72322 245.68 17.9602 245.68 17.9602Z" fill="white"/>
</mask>
<g mask="url(#mask6_1744_9516)">
<path d="M214.01 36.9032C214.01 36.9032 219.276 32.4909 219.017 27.615C218.759 22.7391 217.185 15.1004 217.958 14.5937C218.732 14.0869 226.852 17.3268 226.852 17.3268C226.852 17.3268 225.359 15.1354 227.962 14.0142C227.962 14.0142 232.072 18.5289 231.776 19.0033C231.479 19.4777 222.012 18.5289 222.012 18.5289C222.012 18.5289 225.728 27.6554 223.068 33.0488C220.408 38.4423 214.005 36.9032 214.005 36.9032" fill="#133475"/>
</g>
<path d="M245.381 31.1215C245.381 31.1215 243.2 30.4934 243.2 26.7091V26.3291C243.2 26.3291 245.416 30.3587 245.381 31.1215Z" fill="#F6F9FF"/>
<path d="M227.653 26.5019C227.653 26.5019 236.358 31.2215 237.166 30.7309C237.975 30.2404 236.506 24.9224 236.506 24.9224C236.506 24.9224 237.449 24.8604 237.667 25.7068C237.886 26.5531 239.112 31.5476 237.667 31.6366C236.223 31.7255 229.065 28.208 227.653 26.5019Z" fill="#E57492"/>
<path d="M277.943 116.354C277.943 116.354 275.808 119.222 275.105 120.643C274.401 122.063 274.172 129.16 274.32 129.136C274.469 129.112 276.045 129.028 276.371 128.087L278.115 122.096C278.115 122.096 278.236 128.521 278.023 128.977C277.81 129.432 274.11 136.807 274.436 137.041C274.762 137.276 276.164 138.12 277.255 136.289C278.347 134.459 280.926 129.694 281.244 128.934C281.562 128.174 276.188 138.963 276.393 139.049C276.598 139.136 277.986 139.858 278.533 139.144C279.08 138.43 283.885 130.788 284.044 130.168C284.203 129.548 281.047 137.505 281.212 137.5C281.376 137.494 282.02 138.308 282.866 137.23C283.713 136.152 286.618 130.311 286.755 130.007C286.893 129.702 286.85 125.985 286.85 125.985C286.85 125.985 287.572 130.349 287.389 130.918C287.205 131.486 285.896 134.791 286.51 134.904C286.979 134.993 287.788 134.095 288.426 132.926C289.065 131.756 289.876 130.001 289.814 128.343C289.752 126.686 286.685 117.354 286.685 117.354L277.943 116.354Z" fill="#FE8E9C"/>
<mask id="mask7_1744_9516" style="mask-type:luminance" maskUnits="userSpaceOnUse" x="274" y="116" width="16" height="24">
<path d="M277.943 116.354C277.943 116.354 275.808 119.222 275.105 120.643C274.401 122.063 274.172 129.16 274.32 129.136C274.469 129.112 276.045 129.028 276.371 128.087L278.115 122.096C278.115 122.096 278.236 128.521 278.023 128.977C277.81 129.432 274.11 136.807 274.436 137.041C274.762 137.276 276.164 138.12 277.255 136.289C278.347 134.459 280.926 129.694 281.244 128.934C281.562 128.174 276.188 138.963 276.393 139.049C276.598 139.136 277.986 139.858 278.533 139.144C279.08 138.43 283.885 130.788 284.044 130.168C284.203 129.548 281.047 137.505 281.212 137.5C281.376 137.494 282.02 138.308 282.866 137.23C283.713 136.152 286.618 130.311 286.755 130.007C286.893 129.702 286.85 125.985 286.85 125.985C286.85 125.985 287.572 130.349 287.389 130.918C287.205 131.486 285.896 134.791 286.51 134.904C286.979 134.993 287.788 134.095 288.426 132.926C289.065 131.756 289.876 130.001 289.814 128.343C289.752 126.686 286.685 117.354 286.685 117.354L277.943 116.354Z" fill="white"/>
</mask>
<g mask="url(#mask7_1744_9516)">
<path d="M273.498 123.133C273.63 123.621 280.169 119.993 289.073 121.387C289.073 121.387 287.874 115.977 286.917 115.492C285.96 115.007 278.293 115.007 277.137 115.557C275.981 116.106 272.881 120.896 273.498 123.133Z" fill="#E57492"/>
</g>
<path d="M357.846 9.92788C357.846 9.65053 357.749 9.382 357.571 9.16918C357.393 8.95635 357.146 8.81276 356.873 8.76348L310.548 0.432102C271.685 -2.89129 259.958 14.3106 259.958 14.3106V31.0218L264.505 31.003C267.871 40.8357 277.441 69.0076 278.422 74.1288C279.608 80.3524 271.954 117.813 272.763 118.309C273.571 118.805 290.717 120.918 292.302 120.654C293.887 120.389 301.805 79.1449 301.279 74.1477C300.872 70.3203 299.689 44.0701 296.773 30.8817L357.854 30.6391L357.846 9.92788Z" fill="#F45757"/>
<path d="M296.765 30.8681C296.765 30.8681 295.606 24.7416 290.469 20.4883C290.469 20.4883 317.929 25.9814 325.901 26.5124C333.873 27.0434 357.846 24.9356 357.846 24.9356V30.6256L296.765 30.8681Z" fill="#E23535"/>
<path d="M495.596 47.3585C495.596 47.3585 505.25 45.0647 505.493 45.5068C505.735 45.9488 507.11 50.3746 506.571 51.9756C506.032 53.5767 496.553 57.0456 496.553 57.0456L495.596 47.3585Z" fill="#E57492"/>
<path d="M503.119 17.9925C503.119 17.9925 411.659 10.4886 392.672 6.49946C373.685 2.51031 357.854 11.1813 357.854 11.1813V30.6257C357.854 30.6257 407.004 72.5036 429.042 73.0535C451.079 73.6033 497.181 61.299 497.548 59.2775C497.914 57.2559 497.548 45.3181 495.712 44.585C493.877 43.8519 432.898 50.8302 431.796 49.5445C431.082 48.7089 420.746 38.3425 411.696 30.6257H503.127L503.119 17.9925Z" fill="#1B4DAE"/>
<mask id="mask8_1744_9516" style="mask-type:luminance" maskUnits="userSpaceOnUse" x="357" y="5" width="147" height="69">
<path d="M503.119 17.9925C503.119 17.9925 411.659 10.4886 392.672 6.49946C373.685 2.51031 357.854 11.1813 357.854 11.1813V30.6257C357.854 30.6257 407.004 72.5036 429.042 73.0535C451.079 73.6033 497.181 61.299 497.548 59.2775C497.914 57.2559 497.548 45.3181 495.712 44.585C493.877 43.8519 432.898 50.8302 431.796 49.5445C431.082 48.7089 420.746 38.3425 411.696 30.6257H503.127L503.119 17.9925Z" fill="white"/>
</mask>
<g mask="url(#mask8_1744_9516)">
<path d="M433.526 62.0188C433.264 62.0221 433.001 62.0104 432.74 61.9838C432.688 61.9838 432.637 61.9838 432.583 61.9622C432.528 61.9525 432.475 61.9319 432.427 61.9016C432.379 61.8714 432.338 61.832 432.306 61.7858C432.273 61.7397 432.25 61.6875 432.238 61.6325C432.226 61.5774 432.224 61.5205 432.234 61.4649C432.244 61.4093 432.264 61.3562 432.295 61.3086C432.325 61.261 432.364 61.2198 432.411 61.1874C432.457 61.155 432.509 61.132 432.564 61.1197C432.619 61.1074 432.676 61.1061 432.731 61.1158L432.834 61.132C433.246 61.1639 433.66 61.1702 434.074 61.1509C434.13 61.1491 434.186 61.1585 434.239 61.1784C434.291 61.1983 434.339 61.2283 434.381 61.2669C434.422 61.3054 434.455 61.3517 434.478 61.403C434.501 61.4543 434.514 61.5097 434.516 61.566C434.517 61.6223 434.508 61.6783 434.488 61.731C434.468 61.7837 434.438 61.8319 434.4 61.873C434.361 61.914 434.315 61.9471 434.263 61.9702C434.212 61.9934 434.157 62.0062 434.1 62.008C433.906 62.0161 433.702 62.0188 433.526 62.0188ZM435.524 61.9325C435.415 61.9285 435.311 61.8834 435.234 61.8062C435.157 61.729 435.112 61.6255 435.108 61.5164C435.105 61.4074 435.142 61.3011 435.214 61.2187C435.285 61.1364 435.385 61.0842 435.494 61.0727C435.928 61.0431 436.405 61.0053 436.92 60.9595C436.976 60.9546 437.032 60.9607 437.086 60.9776C437.14 60.9945 437.189 61.0218 437.233 61.058C437.276 61.0941 437.311 61.1384 437.337 61.1884C437.364 61.2383 437.38 61.2929 437.384 61.349C437.389 61.4051 437.383 61.4616 437.366 61.5154C437.349 61.5691 437.322 61.619 437.286 61.6621C437.25 61.7053 437.206 61.7409 437.156 61.767C437.106 61.793 437.051 61.809 436.995 61.814C436.475 61.8598 435.995 61.9002 435.553 61.9299L435.524 61.9325ZM438.388 61.6792C438.275 61.6849 438.163 61.6452 438.079 61.5689C437.995 61.4926 437.944 61.3858 437.938 61.2722C437.933 61.1585 437.972 61.0472 438.049 60.9628C438.125 60.8784 438.232 60.8278 438.345 60.8221L439.771 60.6738C439.884 60.6617 439.998 60.695 440.086 60.7665C440.175 60.8381 440.232 60.9419 440.244 61.0552C440.256 61.1685 440.223 61.282 440.151 61.3707C440.08 61.4594 439.976 61.5161 439.863 61.5282L438.431 61.6792H438.388ZM431.295 61.5175C431.237 61.5176 431.18 61.5056 431.128 61.4824C430.74 61.318 430.292 61.1105 429.799 60.8625C429.697 60.8114 429.62 60.7219 429.584 60.6137C429.548 60.5056 429.557 60.3876 429.608 60.2857C429.659 60.1838 429.748 60.1064 429.857 60.0705C429.965 60.0346 430.083 60.0432 430.185 60.0943C430.662 60.3342 431.093 60.5364 431.465 60.6927C431.557 60.7307 431.633 60.7997 431.68 60.8878C431.727 60.9759 431.741 61.0776 431.721 61.1754C431.701 61.2731 431.648 61.3608 431.57 61.4232C431.492 61.4857 431.395 61.519 431.295 61.5175ZM441.242 61.3692C441.135 61.3649 441.034 61.3209 440.957 61.2458C440.881 61.1706 440.835 61.0697 440.829 60.9627C440.823 60.8557 440.857 60.7502 440.925 60.6669C440.992 60.5836 441.088 60.5284 441.194 60.5121C441.655 60.4609 442.129 60.4043 442.617 60.345C442.675 60.334 442.735 60.3351 442.792 60.3481C442.85 60.3612 442.904 60.3859 442.952 60.4208C443 60.4558 443.04 60.5001 443.069 60.5511C443.099 60.6021 443.118 60.6587 443.125 60.7174C443.132 60.7761 443.127 60.8355 443.11 60.8922C443.093 60.9488 443.065 61.0013 443.027 61.0465C442.989 61.0917 442.942 61.1286 442.889 61.1549C442.836 61.1812 442.778 61.1963 442.719 61.1994L441.294 61.3665L441.242 61.3692ZM444.094 61.0269C443.984 61.0285 443.877 60.9877 443.797 60.913C443.716 60.8382 443.667 60.7352 443.66 60.6254C443.653 60.5155 443.688 60.4072 443.759 60.3229C443.83 60.2385 443.931 60.1847 444.04 60.1725L445.463 59.9919C445.573 59.9841 445.682 60.0188 445.767 60.0888C445.852 60.1587 445.907 60.2587 445.921 60.3681C445.935 60.4775 445.906 60.588 445.841 60.677C445.776 60.7659 445.679 60.8265 445.571 60.8463L444.148 61.0242L444.094 61.0269ZM446.94 60.6657C446.83 60.6674 446.723 60.6266 446.642 60.5518C446.562 60.477 446.513 60.3741 446.506 60.2642C446.499 60.1543 446.535 60.046 446.605 59.9617C446.676 59.8774 446.777 59.8235 446.886 59.8113L448.306 59.6226C448.417 59.6122 448.528 59.6452 448.615 59.7147C448.703 59.7842 448.759 59.8848 448.774 59.9953C448.789 60.1059 448.76 60.2179 448.694 60.3077C448.628 60.3975 448.529 60.4582 448.419 60.477L446.996 60.663L446.94 60.6657ZM449.786 60.2884C449.675 60.2908 449.568 60.2506 449.487 60.1761C449.406 60.1015 449.356 59.9984 449.349 59.8882C449.341 59.7781 449.377 59.6693 449.448 59.5847C449.519 59.5001 449.619 59.4461 449.729 59.4339L451.155 59.2534C451.211 59.2454 451.268 59.2486 451.322 59.2627C451.377 59.2769 451.428 59.3018 451.473 59.3359C451.518 59.37 451.555 59.4126 451.583 59.4614C451.612 59.5101 451.63 59.564 451.637 59.6199C451.653 59.7328 451.623 59.8472 451.554 59.9381C451.485 60.029 451.384 60.089 451.271 60.1051L449.848 60.2965L449.786 60.2884ZM428.718 60.2425C428.647 60.2419 428.576 60.2234 428.514 60.1886C428.115 59.973 427.705 59.7385 427.25 59.4852C427.151 59.4287 427.078 59.3352 427.048 59.2253C427.018 59.1153 427.033 58.9979 427.089 58.8989C427.146 58.7999 427.239 58.7274 427.349 58.6973C427.459 58.6672 427.576 58.6821 427.675 58.7385C428.112 58.9892 428.53 59.221 428.923 59.4339C429.007 59.4801 429.072 59.5525 429.11 59.6399C429.148 59.7274 429.156 59.8249 429.133 59.9172C429.109 60.0096 429.056 60.0916 428.981 60.1504C428.906 60.2093 428.814 60.2417 428.718 60.2425ZM452.629 59.9029C452.521 59.9009 452.418 59.8585 452.34 59.7842C452.262 59.7099 452.215 59.6091 452.207 59.5015C452.2 59.394 452.233 59.2875 452.3 59.2032C452.367 59.1188 452.463 59.0627 452.57 59.0458L453.99 58.849C454.099 58.8424 454.205 58.8769 454.29 58.9457C454.374 59.0145 454.429 59.1124 454.444 59.22C454.459 59.3276 454.432 59.4369 454.37 59.526C454.308 59.6151 454.215 59.6776 454.109 59.7008L452.686 59.8976L452.629 59.9029ZM455.47 59.5067C455.362 59.5047 455.259 59.4623 455.181 59.388C455.103 59.3137 455.055 59.2129 455.048 59.1053C455.04 58.9978 455.073 58.8913 455.141 58.8069C455.208 58.7226 455.304 58.6665 455.41 58.6496L456.828 58.4501C456.941 58.4341 457.055 58.4633 457.146 58.5316C457.237 58.5998 457.297 58.7014 457.313 58.814C457.329 58.9266 457.3 59.041 457.232 59.132C457.163 59.2229 457.062 59.2831 456.949 59.2992L455.529 59.5013L455.47 59.5067ZM458.308 59.1024C458.2 59.1004 458.097 59.058 458.019 58.9837C457.941 58.9094 457.893 58.8086 457.886 58.701C457.878 58.5934 457.911 58.487 457.978 58.4026C458.046 58.3183 458.142 58.2622 458.248 58.2453L459.669 58.0431C459.781 58.0271 459.896 58.0563 459.987 58.1246C460.078 58.1928 460.138 58.2944 460.154 58.407C460.17 58.5196 460.141 58.634 460.072 58.725C460.004 58.8159 459.903 58.8761 459.79 58.8922L458.37 59.097L458.308 59.1024ZM426.22 58.8329C426.143 58.833 426.068 58.8125 426.002 58.7736C425.603 58.5391 425.193 58.2911 424.765 58.035C424.667 57.9761 424.597 57.8807 424.57 57.77C424.542 57.6593 424.56 57.5423 424.619 57.4448C424.678 57.3472 424.774 57.277 424.884 57.2497C424.995 57.2224 425.112 57.2402 425.209 57.2992C425.63 57.5553 426.042 57.8005 426.438 58.0323C426.523 58.079 426.589 58.1526 426.627 58.2414C426.665 58.3302 426.671 58.4291 426.646 58.5222C426.621 58.6154 426.565 58.6974 426.488 58.7551C426.411 58.8129 426.317 58.8431 426.22 58.841V58.8329ZM461.148 58.7008C461.037 58.7053 460.929 58.6663 460.846 58.5922C460.763 58.5181 460.712 58.4146 460.704 58.3036C460.696 58.1926 460.731 58.0829 460.802 57.9976C460.874 57.9122 460.976 57.858 461.086 57.8464L462.504 57.6388C462.613 57.6289 462.723 57.6613 462.809 57.7293C462.896 57.7974 462.953 57.896 462.969 58.0049C462.986 58.1138 462.959 58.2248 462.896 58.3151C462.833 58.4054 462.738 58.4682 462.631 58.4906L461.21 58.6981L461.148 58.7008ZM463.986 58.2857C463.875 58.2902 463.766 58.2512 463.684 58.1771C463.601 58.103 463.55 57.9995 463.542 57.8885C463.534 57.7775 463.569 57.6678 463.64 57.5825C463.712 57.4971 463.814 57.4429 463.924 57.4313L465.342 57.2211C465.451 57.2111 465.561 57.2435 465.647 57.3115C465.734 57.3796 465.791 57.4782 465.807 57.5871C465.823 57.696 465.797 57.807 465.734 57.8973C465.671 57.9876 465.576 58.0504 465.468 58.0728L464.048 58.2803C464.027 58.2811 464.007 58.2793 463.986 58.2749V58.2857ZM466.827 57.8652C466.716 57.8697 466.607 57.8307 466.524 57.7566C466.441 57.6825 466.39 57.579 466.382 57.468C466.374 57.3571 466.41 57.2473 466.481 57.162C466.552 57.0767 466.654 57.0224 466.765 57.0108L468.185 56.7979C468.241 56.7895 468.298 56.7921 468.352 56.8058C468.407 56.8194 468.459 56.8437 468.504 56.8772C468.549 56.9108 468.587 56.9529 468.616 57.0013C468.645 57.0497 468.665 57.1033 468.673 57.159C468.689 57.2719 468.66 57.3866 468.593 57.4784C468.525 57.5702 468.424 57.6317 468.312 57.6496L466.891 57.8599L466.827 57.8652ZM469.665 57.4394C469.553 57.4451 469.443 57.407 469.359 57.333C469.276 57.2591 469.224 57.1553 469.215 57.0437C469.207 56.9322 469.242 56.8217 469.314 56.736C469.386 56.6503 469.489 56.5961 469.6 56.5849L471.02 56.372C471.133 56.3552 471.248 56.3838 471.339 56.4516C471.43 56.5193 471.491 56.6206 471.508 56.7332C471.525 56.8458 471.496 56.9604 471.429 57.0519C471.361 57.1434 471.26 57.2043 471.147 57.2211L469.729 57.4367L469.665 57.4394ZM423.76 57.3504C423.68 57.3499 423.603 57.3275 423.536 57.2857C423.137 57.0405 422.727 56.7898 422.312 56.5283C422.216 56.4679 422.147 56.3717 422.122 56.2607C422.096 56.1498 422.116 56.0332 422.176 55.9367C422.237 55.8402 422.333 55.7716 422.444 55.7461C422.555 55.7206 422.671 55.7402 422.768 55.8006L423.986 56.5553C424.066 56.604 424.128 56.6777 424.163 56.7651C424.197 56.8526 424.202 56.9489 424.176 57.0392C424.15 57.1296 424.096 57.209 424.02 57.2652C423.945 57.3215 423.853 57.3514 423.76 57.3504ZM472.5 57.0108C472.397 57.0107 472.299 56.9739 472.221 56.9072C472.143 56.8405 472.092 56.7481 472.077 56.6469C472.06 56.5341 472.089 56.4194 472.157 56.3276C472.224 56.2358 472.325 56.1743 472.438 56.1564L473.855 55.9408C473.966 55.9294 474.076 55.961 474.164 56.0288C474.251 56.0966 474.309 56.1955 474.326 56.305C474.342 56.4145 474.316 56.5262 474.253 56.617C474.189 56.7077 474.093 56.7706 473.985 56.7925L472.567 57.0081L472.5 57.0108ZM475.338 56.5796C475.226 56.5853 475.117 56.5471 475.033 56.4732C474.949 56.3993 474.897 56.2955 474.888 56.1839C474.88 56.0724 474.916 55.9619 474.987 55.8762C475.059 55.7905 475.162 55.7362 475.273 55.7251L476.691 55.5095C476.803 55.4923 476.918 55.5206 477.01 55.5881C477.102 55.6556 477.163 55.7567 477.18 55.8693C477.197 55.9819 477.169 56.0967 477.101 56.1884C477.034 56.2802 476.933 56.3414 476.82 56.3585L475.402 56.5742C475.38 56.5715 475.359 56.566 475.338 56.558V56.5796ZM478.173 56.1456C478.061 56.1513 477.952 56.1132 477.868 56.0392C477.784 55.9653 477.732 55.8615 477.724 55.75C477.715 55.6384 477.751 55.528 477.823 55.4422C477.894 55.3565 477.997 55.3023 478.108 55.2912L479.523 55.0728C479.636 55.0553 479.751 55.0833 479.843 55.1505C479.935 55.2177 479.996 55.3187 480.014 55.4313C480.031 55.5439 480.003 55.6588 479.936 55.7508C479.869 55.8428 479.768 55.9044 479.655 55.9219L478.238 56.1402L478.173 56.1456ZM421.326 55.8302C421.245 55.8304 421.165 55.807 421.097 55.7629C420.698 55.5122 420.288 55.2534 419.884 54.992C419.796 54.927 419.736 54.8311 419.716 54.7235C419.696 54.6159 419.718 54.5048 419.777 54.4126C419.836 54.3204 419.927 54.2541 420.033 54.2271C420.139 54.2 420.252 54.2143 420.348 54.2669L421.555 55.0378C421.634 55.0871 421.695 55.161 421.729 55.2481C421.762 55.3353 421.766 55.431 421.74 55.5207C421.714 55.6104 421.66 55.6892 421.585 55.745C421.51 55.8009 421.419 55.8308 421.326 55.8302ZM481.008 55.7063C480.896 55.714 480.784 55.677 480.699 55.6032C480.613 55.5295 480.56 55.425 480.552 55.3124C480.543 55.1998 480.579 55.0883 480.651 55.002C480.724 54.9158 480.828 54.8618 480.941 54.8518L482.358 54.6308C482.469 54.6178 482.581 54.6483 482.67 54.7159C482.758 54.7834 482.818 54.8828 482.835 54.993C482.852 55.1033 482.825 55.2159 482.761 55.3072C482.697 55.3985 482.6 55.4613 482.491 55.4825L481.073 55.7009C481.051 55.7017 481.029 55.6999 481.008 55.6955V55.7063ZM483.843 55.2642C483.787 55.2693 483.73 55.2633 483.675 55.2463C483.621 55.2294 483.571 55.202 483.527 55.1655C483.483 55.1291 483.447 55.0845 483.421 55.0341C483.395 54.9837 483.378 54.9287 483.373 54.872C483.368 54.8154 483.374 54.7583 483.391 54.704C483.408 54.6497 483.435 54.5993 483.472 54.5556C483.508 54.512 483.553 54.4759 483.603 54.4495C483.654 54.4231 483.709 54.4068 483.765 54.4017L485.183 54.178C485.295 54.1605 485.41 54.1884 485.502 54.2556C485.594 54.3229 485.656 54.4239 485.673 54.5365C485.691 54.6491 485.663 54.764 485.596 54.856C485.529 54.948 485.428 55.0095 485.315 55.027L483.897 55.2507L483.843 55.2642ZM486.679 54.8222C486.566 54.8299 486.455 54.7929 486.369 54.7192C486.284 54.6454 486.231 54.5409 486.222 54.4283C486.213 54.3157 486.249 54.2042 486.322 54.118C486.395 54.0317 486.499 53.9777 486.611 53.9677L488.029 53.744C488.141 53.7262 488.257 53.7537 488.349 53.8207C488.441 53.8877 488.503 53.9886 488.521 54.1012C488.539 54.2138 488.511 54.3288 488.444 54.4211C488.377 54.5133 488.276 54.5752 488.164 54.5931L486.746 54.8168L486.679 54.8222ZM489.514 54.3747C489.408 54.3712 489.307 54.3287 489.23 54.2555C489.154 54.1822 489.107 54.0833 489.098 53.9776C489.09 53.872 489.121 53.7669 489.185 53.6825C489.249 53.5982 489.342 53.5404 489.446 53.5203L490.864 53.2966C490.977 53.2787 491.092 53.3063 491.184 53.3733C491.276 53.4403 491.338 53.5411 491.356 53.6537C491.374 53.7663 491.346 53.8814 491.279 53.9736C491.212 54.0659 491.111 54.1278 490.999 54.1456L489.581 54.3694L489.514 54.3747ZM418.903 54.2831C418.82 54.2836 418.74 54.2592 418.671 54.213C418.272 53.9435 417.863 53.6982 417.467 53.4314C417.371 53.3692 417.304 53.2716 417.281 53.1602C417.257 53.0487 417.279 52.9325 417.341 52.837C417.403 52.7416 417.501 52.6748 417.612 52.6513C417.724 52.6278 417.84 52.6495 417.935 52.7117L419.137 53.4934C419.216 53.5434 419.276 53.6177 419.308 53.7048C419.341 53.792 419.344 53.8874 419.318 53.9765C419.291 54.0657 419.236 54.1439 419.162 54.1992C419.087 54.2545 418.996 54.2839 418.903 54.2831ZM492.344 53.9246C492.238 53.921 492.137 53.8786 492.06 53.8053C491.984 53.7321 491.937 53.6332 491.928 53.5275C491.92 53.4218 491.951 53.3168 492.015 53.2324C492.079 53.1481 492.172 53.0903 492.276 53.0702L493.697 52.8465C493.809 52.8286 493.924 52.8562 494.016 52.9232C494.109 52.9901 494.171 53.091 494.188 53.2036C494.206 53.3162 494.179 53.4313 494.112 53.5235C494.045 53.6158 493.944 53.6776 493.831 53.6955L492.411 53.9192C492.39 53.9197 492.369 53.9179 492.349 53.9138L492.344 53.9246ZM495.182 53.4745C495.076 53.4709 494.975 53.4285 494.898 53.3552C494.822 53.282 494.775 53.1831 494.766 53.0774C494.758 52.9717 494.789 52.8666 494.853 52.7823C494.917 52.6979 495.01 52.6402 495.114 52.6201L496.537 52.3909C496.65 52.3731 496.765 52.4007 496.857 52.4676C496.949 52.5346 497.011 52.6355 497.029 52.7481C497.047 52.8607 497.019 52.9758 496.952 53.068C496.885 53.1603 496.785 53.2221 496.672 53.24L495.252 53.4664C495.23 53.4678 495.208 53.4669 495.187 53.4637L495.182 53.4745ZM498.028 53.0163C497.921 53.0133 497.82 52.9712 497.743 52.8982C497.666 52.8252 497.619 52.7263 497.61 52.6204C497.601 52.5146 497.632 52.4093 497.696 52.3247C497.76 52.2401 497.853 52.1821 497.958 52.1618L499.391 51.93C499.5 51.9207 499.608 51.9528 499.693 52.0197C499.779 52.0866 499.836 52.1834 499.854 52.2908C499.871 52.3982 499.847 52.5082 499.787 52.5987C499.727 52.6893 499.635 52.7537 499.529 52.7791L498.095 53.0109L498.028 53.0163ZM416.499 52.7171C416.416 52.7164 416.334 52.6921 416.265 52.647L415.065 51.8573C415.018 51.8261 414.978 51.786 414.946 51.7392C414.915 51.6924 414.893 51.6399 414.881 51.5846C414.87 51.5292 414.87 51.4722 414.88 51.4168C414.891 51.3614 414.913 51.3087 414.944 51.2616C414.975 51.2145 415.015 51.174 415.062 51.1425C415.109 51.1109 415.161 51.0888 415.217 51.0776C415.272 51.0663 415.329 51.0661 415.384 51.0768C415.44 51.0876 415.492 51.1092 415.54 51.1403L416.736 51.9273C416.813 51.9787 416.871 52.0532 416.902 52.1401C416.933 52.2269 416.936 52.3215 416.909 52.4099C416.883 52.4983 416.829 52.5758 416.755 52.6311C416.681 52.6864 416.591 52.7165 416.499 52.7171ZM414.106 51.1349C414.022 51.1355 413.939 51.1111 413.869 51.0648C413.472 50.7953 413.06 50.5258 412.675 50.2562C412.592 50.1884 412.537 50.0921 412.522 49.9861C412.507 49.8801 412.531 49.7722 412.592 49.6836C412.652 49.5951 412.743 49.5323 412.847 49.5075C412.951 49.4828 413.061 49.498 413.154 49.55L414.346 50.3452C414.423 50.3958 414.482 50.4702 414.514 50.5571C414.545 50.644 414.548 50.7388 414.521 50.8273C414.494 50.9159 414.44 50.9934 414.365 51.0483C414.291 51.1033 414.201 51.1327 414.108 51.1322L414.106 51.1349ZM411.721 49.5419C411.635 49.542 411.552 49.5167 411.481 49.4692L410.29 48.6606C410.243 48.6291 410.203 48.5887 410.172 48.5417C410.141 48.4947 410.119 48.442 410.108 48.3867C410.097 48.3314 410.098 48.2745 410.109 48.2193C410.12 48.1641 410.142 48.1116 410.174 48.0649C410.205 48.0182 410.246 47.9781 410.293 47.947C410.34 47.9159 410.392 47.8943 410.447 47.8836C410.503 47.8728 410.56 47.873 410.615 47.8843C410.67 47.8955 410.723 47.9175 410.769 47.949L411.96 48.7576C412.036 48.8095 412.093 48.8841 412.124 48.9707C412.154 49.0573 412.156 49.1514 412.129 49.2391C412.103 49.3269 412.048 49.4039 411.975 49.4588C411.901 49.5138 411.812 49.5438 411.721 49.5446V49.5419ZM409.341 47.9382C409.256 47.9378 409.172 47.9125 409.101 47.8654L407.913 47.0568C407.825 46.9898 407.766 46.8918 407.749 46.7829C407.731 46.674 407.756 46.5625 407.818 46.4713C407.88 46.3802 407.975 46.3163 408.083 46.2929C408.191 46.2694 408.303 46.2882 408.398 46.3452L409.583 47.1538C409.66 47.2052 409.718 47.2799 409.749 47.3668C409.779 47.4537 409.781 47.5482 409.754 47.6363C409.727 47.7243 409.672 47.8013 409.597 47.8557C409.523 47.91 409.433 47.939 409.341 47.9382ZM406.969 46.321C406.883 46.3206 406.799 46.2953 406.727 46.2482L405.546 45.4396C405.5 45.4079 405.46 45.3674 405.429 45.3203C405.398 45.2732 405.377 45.2205 405.366 45.1652C405.356 45.1099 405.356 45.053 405.368 44.9979C405.379 44.9428 405.401 44.8905 405.433 44.8439C405.465 44.7974 405.505 44.7575 405.552 44.7267C405.599 44.6958 405.652 44.6745 405.707 44.664C405.763 44.6534 405.82 44.6539 405.875 44.6654C405.93 44.6768 405.982 44.699 406.029 44.7307L407.212 45.5393C407.288 45.5907 407.346 45.6654 407.377 45.7523C407.408 45.8392 407.41 45.9337 407.382 46.0218C407.355 46.1098 407.3 46.1867 407.226 46.2411C407.151 46.2955 407.061 46.3245 406.969 46.3237V46.321ZM404.603 44.7038C404.516 44.7037 404.432 44.6774 404.36 44.6283L403.175 43.8197C403.124 43.7896 403.08 43.7493 403.045 43.7014C403.01 43.6535 402.986 43.599 402.973 43.5413C402.961 43.4836 402.96 43.4239 402.971 43.3659C402.983 43.3079 403.006 43.2529 403.039 43.2042C403.073 43.1555 403.116 43.1142 403.166 43.0829C403.216 43.0516 403.272 43.0309 403.331 43.0222C403.389 43.0134 403.449 43.0168 403.506 43.032C403.563 43.0473 403.616 43.0741 403.662 43.1108L404.848 43.9194C404.923 43.9719 404.979 44.0469 405.009 44.1336C405.038 44.2202 405.039 44.3139 405.012 44.4012C404.985 44.4886 404.931 44.5649 404.857 44.6193C404.783 44.6737 404.694 44.7033 404.603 44.7038ZM402.237 43.0865C402.15 43.0865 402.065 43.0602 401.994 43.0111L400.814 42.2025C400.716 42.1385 400.647 42.0382 400.623 41.9237C400.599 41.8092 400.622 41.6899 400.686 41.592C400.75 41.494 400.85 41.4255 400.964 41.4015C401.079 41.3775 401.198 41.4 401.296 41.4639L402.477 42.2725C402.551 42.3251 402.608 42.4001 402.637 42.4867C402.667 42.5733 402.668 42.667 402.641 42.7543C402.613 42.8417 402.559 42.9181 402.485 42.9724C402.412 43.0268 402.323 43.0564 402.231 43.0569L402.237 43.0865ZM399.878 41.4558C399.791 41.4561 399.705 41.4287 399.633 41.3777L398.455 40.5691C398.372 40.5004 398.317 40.4025 398.302 40.295C398.286 40.1876 398.313 40.0784 398.374 39.9893C398.436 39.9002 398.53 39.8376 398.635 39.8142C398.741 39.7908 398.852 39.8082 398.946 39.8629L400.124 40.6715C400.199 40.724 400.255 40.799 400.284 40.8856C400.314 40.9722 400.315 41.066 400.288 41.1533C400.26 41.2406 400.206 41.317 400.133 41.3714C400.059 41.4258 399.97 41.4554 399.878 41.4558ZM397.523 39.8198C397.435 39.8191 397.35 39.7919 397.278 39.7416L396.1 38.933C396.016 38.8643 395.961 38.7664 395.946 38.6589C395.931 38.5515 395.957 38.4423 396.019 38.3532C396.081 38.2641 396.174 38.2016 396.28 38.1781C396.386 38.1547 396.497 38.1721 396.591 38.2268L397.768 39.0354C397.843 39.0879 397.899 39.1629 397.929 39.2495C397.958 39.3362 397.96 39.4299 397.932 39.5172C397.905 39.6045 397.851 39.6809 397.777 39.7353C397.703 39.7897 397.614 39.8193 397.523 39.8198ZM395.17 38.1783C395.082 38.178 394.997 38.1507 394.925 38.1001L393.755 37.2915C393.709 37.2592 393.669 37.2179 393.638 37.1702C393.608 37.1225 393.587 37.0692 393.577 37.0133C393.567 36.9575 393.568 36.9002 393.58 36.8448C393.592 36.7894 393.615 36.737 393.647 36.6904C393.679 36.6441 393.72 36.6045 393.767 36.574C393.814 36.5434 393.866 36.5225 393.921 36.5125C393.977 36.5024 394.033 36.5035 394.088 36.5155C394.143 36.5276 394.195 36.5504 394.24 36.5826L395.415 37.4047C395.491 37.4567 395.548 37.5314 395.578 37.6181C395.608 37.7047 395.609 37.7987 395.581 37.8861C395.554 37.9736 395.499 38.0499 395.425 38.104C395.351 38.158 395.262 38.1869 395.17 38.1864V38.1783ZM392.82 36.5314C392.731 36.532 392.645 36.5047 392.572 36.4532L391.4 35.6312C391.354 35.5988 391.314 35.5576 391.284 35.51C391.254 35.4624 391.233 35.4093 391.223 35.3537C391.214 35.2982 391.215 35.2412 391.227 35.1862C391.239 35.1311 391.262 35.079 391.295 35.0328C391.327 34.9866 391.368 34.9472 391.416 34.9169C391.463 34.8867 391.517 34.8661 391.572 34.8563C391.628 34.8465 391.685 34.8478 391.74 34.8601C391.795 34.8723 391.847 34.8953 391.893 34.9277L393.065 35.7498C393.112 35.782 393.151 35.8232 393.181 35.8708C393.212 35.9184 393.232 35.9715 393.242 36.0271C393.252 36.0827 393.251 36.1397 393.238 36.1948C393.226 36.2499 393.203 36.302 393.17 36.3481C393.13 36.4013 393.078 36.4442 393.018 36.4733C392.958 36.5023 392.892 36.5167 392.825 36.5152L392.82 36.5314ZM390.473 34.8845C390.384 34.8839 390.298 34.8567 390.225 34.8064L389.052 33.9789C389.005 33.947 388.965 33.906 388.934 33.8583C388.903 33.8106 388.881 33.7572 388.871 33.7012C388.861 33.6452 388.862 33.5877 388.874 33.5321C388.886 33.4764 388.909 33.4238 388.942 33.3772C388.975 33.3307 389.017 33.2911 389.065 33.2608C389.113 33.2306 389.167 33.2102 389.223 33.201C389.279 33.1918 389.337 33.1938 389.392 33.2071C389.447 33.2203 389.5 33.2445 389.546 33.2781L390.718 34.1029C390.793 34.1548 390.85 34.2296 390.88 34.3163C390.91 34.4029 390.911 34.4968 390.884 34.5843C390.857 34.6717 390.802 34.7481 390.728 34.8021C390.654 34.8562 390.564 34.8851 390.473 34.8845ZM388.125 33.2323C388.037 33.2317 387.95 33.2044 387.877 33.1541L386.705 32.3266C386.62 32.2579 386.564 32.1592 386.549 32.0507C386.533 31.9422 386.56 31.8319 386.623 31.7424C386.686 31.6528 386.781 31.5906 386.888 31.5685C386.996 31.5464 387.107 31.5659 387.201 31.6231L388.373 32.4506C388.466 32.5163 388.529 32.6161 388.549 32.7282C388.569 32.8402 388.543 32.9556 388.478 33.049C388.437 33.1016 388.384 33.1441 388.324 33.173C388.264 33.202 388.198 33.2167 388.131 33.2161L388.125 33.2323ZM385.781 31.5773C385.692 31.5767 385.606 31.5495 385.533 31.4992L384.36 30.669C384.309 30.6383 384.266 30.5974 384.231 30.549C384.197 30.5005 384.173 30.4455 384.161 30.3874C384.149 30.3293 384.149 30.2693 384.161 30.2112C384.173 30.1531 384.197 30.0982 384.232 30.0498C384.266 30.0015 384.31 29.9607 384.361 29.9302C384.412 29.8996 384.469 29.8799 384.528 29.8722C384.586 29.8645 384.646 29.8691 384.703 29.8856C384.76 29.9021 384.813 29.9303 384.859 29.9682L386.029 30.7957C386.121 30.8614 386.185 30.9611 386.204 31.0732C386.224 31.1853 386.199 31.3006 386.134 31.394C386.092 31.4467 386.04 31.4891 385.979 31.5181C385.919 31.5471 385.853 31.5618 385.786 31.5612L385.781 31.5773ZM383.439 29.9197C383.35 29.9191 383.264 29.8918 383.191 29.8415L382.018 29.0113C381.972 28.9788 381.933 28.9375 381.903 28.8898C381.873 28.8421 381.853 28.7889 381.843 28.7334C381.834 28.6778 381.835 28.6209 381.848 28.5659C381.86 28.511 381.883 28.459 381.916 28.413C381.948 28.3669 381.99 28.3278 382.037 28.2978C382.085 28.2677 382.138 28.2473 382.194 28.2378C382.249 28.2283 382.306 28.2298 382.361 28.2423C382.416 28.2548 382.468 28.278 382.514 28.3105L383.687 29.138C383.76 29.1911 383.816 29.2661 383.844 29.3525C383.873 29.4389 383.874 29.5321 383.846 29.6188C383.819 29.7056 383.764 29.7814 383.691 29.8354C383.618 29.8895 383.53 29.919 383.439 29.9197ZM381.094 28.2593C381.005 28.2599 380.918 28.2326 380.846 28.1812L379.674 27.351C379.628 27.3184 379.588 27.2771 379.558 27.2294C379.528 27.1817 379.508 27.1286 379.498 27.073C379.489 27.0175 379.49 26.9606 379.503 26.9056C379.515 26.8506 379.539 26.7986 379.571 26.7526C379.604 26.7066 379.645 26.6675 379.693 26.6374C379.74 26.6074 379.794 26.587 379.849 26.5775C379.905 26.568 379.962 26.5695 380.016 26.582C380.071 26.5944 380.123 26.6176 380.169 26.6502L381.342 27.4804C381.416 27.5328 381.472 27.6077 381.501 27.6941C381.53 27.7805 381.531 27.8739 381.503 27.9608C381.476 28.0476 381.421 28.1234 381.347 28.1771C381.274 28.2308 381.185 28.2596 381.094 28.2593ZM378.746 26.6017C378.657 26.6013 378.571 26.573 378.499 26.5208L377.323 25.6933C377.238 25.6246 377.182 25.5259 377.167 25.4174C377.152 25.3089 377.178 25.1986 377.242 25.1091C377.305 25.0195 377.4 24.9574 377.507 24.9352C377.614 24.9131 377.726 24.9326 377.819 24.9898L378.994 25.82C379.068 25.8731 379.124 25.9481 379.152 26.0345C379.181 26.1209 379.182 26.2141 379.154 26.3008C379.127 26.3876 379.072 26.4634 378.999 26.5174C378.926 26.5715 378.837 26.601 378.746 26.6017ZM376.391 24.944C376.303 24.943 376.218 24.9158 376.146 24.8659C375.607 24.4912 375.208 24.2136 374.963 24.0573C374.874 23.9912 374.815 23.8938 374.796 23.7852C374.777 23.6766 374.801 23.5649 374.862 23.4731C374.923 23.3813 375.017 23.3164 375.124 23.2917C375.232 23.267 375.345 23.2844 375.44 23.3403C375.688 23.5047 376.092 23.785 376.639 24.1678C376.715 24.2198 376.772 24.2949 376.801 24.3818C376.831 24.4687 376.832 24.5629 376.805 24.6505C376.777 24.7381 376.722 24.8144 376.647 24.8682C376.573 24.9221 376.483 24.9505 376.391 24.9494V24.944Z" fill="#133475"/>
<path d="M361.078 8.62891C361.078 8.62891 361.886 34.2942 361.479 34.6985C361.072 35.1028 356.547 31.7794 356.547 31.7794C356.547 31.7794 356.008 11.3108 356.448 10.0386C356.887 8.76637 361.078 8.62891 361.078 8.62891Z" fill="#133475"/>
<path d="M411.688 30.6258C411.688 30.6258 392.014 14.4348 388.999 13.645C388.999 13.645 408.853 18.1328 424.223 22.5074C439.593 26.882 504.655 25.9844 504.655 25.9844V32.491L411.675 30.6204" fill="#133475"/>
</g>
<path d="M505.137 45.4529C505.137 45.4529 506.7 42.957 509.622 42.55C512.543 42.143 513.497 42.55 513.497 42.55C513.497 42.55 521.342 63.8165 519.919 64.2666C518.496 64.7167 515.276 64.7895 514.303 63.8919C513.33 62.9944 505.948 52.7116 505.948 52.7116C505.948 52.7116 506.404 47.151 505.137 45.4529Z" fill="#1B4DAE"/>
<mask id="mask9_1744_9516" style="mask-type:luminance" maskUnits="userSpaceOnUse" x="505" y="42" width="16" height="23">
<path d="M505.137 45.4529C505.137 45.4529 506.7 42.957 509.622 42.55C512.543 42.143 513.497 42.55 513.497 42.55C513.497 42.55 521.342 63.8165 519.919 64.2666C518.496 64.7167 515.276 64.7895 514.303 63.8919C513.33 62.9944 505.948 52.7116 505.948 52.7116C505.948 52.7116 506.404 47.151 505.137 45.4529Z" fill="white"/>
</mask>
<g mask="url(#mask9_1744_9516)">
<path d="M507.342 55.5421C507.342 55.5421 509.428 53.1648 510.43 53.2187C510.658 53.2259 510.879 53.3055 511.059 53.446C511.239 53.5865 511.37 53.7806 511.433 54.0003C511.466 54.0992 511.473 54.2052 511.452 54.3075C511.431 54.4097 511.384 54.5046 511.314 54.5825C510.729 55.251 509.031 57.1485 508.662 57.0542C508.212 56.941 507.342 55.5421 507.342 55.5421Z" fill="#133475"/>
<path d="M509.441 58.6226C509.441 58.6226 511.527 56.2453 512.529 56.2992C512.758 56.3065 512.978 56.3861 513.158 56.5266C513.338 56.6671 513.469 56.8612 513.532 57.0809C513.565 57.1798 513.572 57.2857 513.551 57.388C513.53 57.4903 513.483 57.5852 513.413 57.6631C512.829 58.3315 511.131 60.2291 510.762 60.1348C510.311 60.0216 509.441 58.6226 509.441 58.6226Z" fill="#133475"/>
<path d="M511.368 42.0246C511.368 42.0246 518.731 64.0646 518.68 64.9838C518.68 64.9838 521.135 64.8301 521.135 64.2183C521.135 63.6064 515.101 42.1163 514.332 42.0246C513.564 41.933 511.368 42.0246 511.368 42.0246Z" fill="#133475"/>
</g>
<path d="M503.118 22.3726C503.118 22.3726 512.158 23.6313 512.327 24.0814C512.497 24.5315 512.53 30.6365 512.53 30.6365L503.118 30.6527V22.3726Z" fill="#E57492"/>
<path d="M511.953 23.9005C512.321 23.0888 512.905 22.394 513.641 21.8924C514.377 21.3908 515.238 21.1017 516.128 21.0569C519.235 20.8844 526.509 24.7576 527.158 25.0298C527.808 25.3021 536.567 27.6605 536.721 27.7387C538.607 28.6874 536.925 30.9219 536.925 30.9219L512.53 30.6362L511.953 23.9005Z" fill="#1B4DAE"/>
<mask id="mask10_1744_9516" style="mask-type:luminance" maskUnits="userSpaceOnUse" x="511" y="21" width="27" height="10">
<path d="M511.953 23.9005C512.321 23.0888 512.905 22.394 513.641 21.8924C514.377 21.3908 515.238 21.1017 516.128 21.0569C519.235 20.8844 526.509 24.7576 527.158 25.0298C527.808 25.3021 536.567 27.6605 536.721 27.7387C538.607 28.6874 536.925 30.9219 536.925 30.9219L512.53 30.6362L511.953 23.9005Z" fill="white"/>
</mask>
<g mask="url(#mask10_1744_9516)">
<path d="M514.446 21.0516C514.742 21.3211 525.226 26.313 526.789 26.5124C528.352 26.7119 537.947 29.2967 537.947 29.2967C537.947 29.2967 538.464 27.9841 537.61 27.4935C536.756 27.003 527.487 24.7982 526.749 24.375C526.01 23.9518 517.071 20.3562 516.332 20.4802C515.689 20.6194 515.058 20.8105 514.446 21.0516Z" fill="#133475"/>
<path d="M517.095 31.1296C517.286 30.4396 517.971 27.0865 518.494 26.9814C519.017 26.8763 520.283 27.2105 520.245 27.4046C520.208 27.5987 519.938 31.2455 519.092 31.2455C518.246 31.2455 517.095 31.1296 517.095 31.1296Z" fill="#133475"/>
<path d="M522.062 32.092C522.256 31.3992 522.941 28.0489 523.461 27.9411C523.981 27.8333 525.25 28.1729 525.213 28.3643C525.175 28.5556 524.905 32.2079 524.062 32.2079C523.218 32.2079 522.062 32.092 522.062 32.092Z" fill="#133475"/>
</g>
</svg>
