<svg width="16" height="16" viewBox="0 0 16 16" fill="none" xmlns="http://www.w3.org/2000/svg">
<path d="M10.9066 9.33334C10.9599 8.89334 10.9999 8.45334 10.9999 8C10.9999 7.54667 10.9599 7.10667 10.9066 6.66667H13.1599C13.2666 7.09334 13.3333 7.54 13.3333 8C13.3333 8.46 13.2666 8.90667 13.1599 9.33334M9.72658 13.04C10.1266 12.3 10.4333 11.5 10.6466 10.6667H12.6133C11.9733 11.7667 10.9533 12.62 9.72658 13.04ZM9.55992 9.33334H6.43992C6.37325 8.89334 6.33325 8.45334 6.33325 8C6.33325 7.54667 6.37325 7.1 6.43992 6.66667H9.55992C9.61992 7.1 9.66658 7.54667 9.66658 8C9.66658 8.45334 9.61992 8.89334 9.55992 9.33334ZM7.99992 13.3067C7.44658 12.5067 6.99992 11.62 6.72658 10.6667H9.27325C8.99992 11.62 8.55325 12.5067 7.99992 13.3067ZM5.33325 5.33334H3.38658C4.01992 4.22667 5.04658 3.37334 6.26658 2.96C5.86658 3.7 5.56659 4.5 5.33325 5.33334ZM3.38658 10.6667H5.33325C5.56659 11.5 5.86658 12.3 6.26658 13.04C5.04658 12.62 4.01992 11.7667 3.38658 10.6667ZM2.83992 9.33334C2.73325 8.90667 2.66659 8.46 2.66659 8C2.66659 7.54 2.73325 7.09334 2.83992 6.66667H5.09325C5.03992 7.10667 4.99992 7.54667 4.99992 8C4.99992 8.45334 5.03992 8.89334 5.09325 9.33334M7.99992 2.68667C8.55325 3.48667 8.99992 4.38 9.27325 5.33334H6.72658C6.99992 4.38 7.44658 3.48667 7.99992 2.68667ZM12.6133 5.33334H10.6466C10.4333 4.5 10.1266 3.7 9.72658 2.96C10.9533 3.38 11.9733 4.22667 12.6133 5.33334ZM7.99992 1.33334C4.31325 1.33334 1.33325 4.33334 1.33325 8C1.33325 9.76811 2.03563 11.4638 3.28587 12.714C3.90493 13.3331 4.63986 13.8242 5.4487 14.1592C6.25753 14.4942 7.12444 14.6667 7.99992 14.6667C9.76803 14.6667 11.4637 13.9643 12.714 12.714C13.9642 11.4638 14.6666 9.76811 14.6666 8C14.6666 7.12452 14.4941 6.25762 14.1591 5.44878C13.8241 4.63994 13.333 3.90501 12.714 3.28596C12.0949 2.6669 11.36 2.17584 10.5511 1.84081C9.7423 1.50577 8.8754 1.33334 7.99992 1.33334Z" fill="#3679FD"/>
</svg>
