<svg id="Logo" xmlns="http://www.w3.org/2000/svg" viewBox="0 0 872.5 218"><defs><style>.cls-1{fill:#02153a;}.cls-2{fill:#3679fd;}</style></defs><title>Resulon logo SVG</title><path class="cls-1" d="M157.62,605.41,126,555.6H85.06v49.81H63.75V425.82h56.51c37.84,0,67.77,25.62,67.77,64.41,0,24.43-12.45,48.85-39,61.54l34.24,53.64Zm-37.36-70.64c25.14,0,45.74-17.48,45.74-43.58s-20.36-44.54-45.74-44.54H85.06v88.12Z" transform="translate(-63.75 -391)"/><path class="cls-1" d="M325.7,538.12v6H227.28c0,23.7,18.2,43.58,40.71,43.58,18.44,0,29.93-6,36.88-16.28l16.52,12.69c-10.3,14.84-29,24.9-53.4,24.9-37.59,0-62-31.85-62-68.48,0-38.31,24.19-69,62-69C301.75,471.55,325.7,500.05,325.7,538.12ZM228,524.71h76.39c-4.79-19.63-18.92-32.32-36.4-32.32C247.88,492.39,232.55,505.08,228,524.71Z" transform="translate(-63.75 -391)"/><path class="cls-1" d="M362.56,506.27c0,9.34,6.47,13.65,21.55,18.2,28.5,8.39,54.12,18,54.12,45.26,0,21.31-18.68,39-45.5,39-21.31,0-42.86-11.49-54.35-29.45l15.8-12C360.41,576,375,588.17,393,588.17c12.21,0,24.19-6.71,24.19-18.44,0-12.45-16.05-18.68-34.48-24-33.29-9.57-40.95-23-41.19-39.75-.24-20.11,19.15-34.48,45.26-34.48,14.12,0,32.08,3.12,46.69,21.07l-16,12a42.29,42.29,0,0,0-30.65-13.41C375.25,491.19,362.56,495.74,362.56,506.27Z" transform="translate(-63.75 -391)"/><path class="cls-1" d="M507.18,608.76c-24.42,0-51.48-12.45-51.48-61.54V474.91H477v63.21c0,28.5,5,49.81,32.57,49.81,22.74,0,36.87-19.64,41.9-33.76V474.91h21.31v130.5H553.16l-1.68-22.75C541.66,596.55,526.58,608.76,507.18,608.76Z" transform="translate(-63.75 -391)"/><path class="cls-1" d="M609.89,605.41V425.82h20.84V605.41Z" transform="translate(-63.75 -391)"/><path class="cls-1" d="M885,471.55c24.42,0,51.24,10.06,51.24,61.54v72.32H914.94V542.19c0-26.1-4.79-49.57-32.33-49.57-22.75,0-37.35,19.4-42.38,33.53v79.26H818.92V474.91h19.39l1.92,22.75C850.05,483.77,863.22,471.55,885,471.55Z" transform="translate(-63.75 -391)"/><path class="cls-1" d="M766.38,517.21a48.28,48.28,0,0,1,5.86,23.07,46.9,46.9,0,0,1-46.93,47.17c-26.1,0-46.7-21.07-46.7-47.17A48.55,48.55,0,0,1,685.12,516L672.75,496.6a69,69,0,0,0-15.45,43.68,68.13,68.13,0,1,0,122.09-41.81Z" transform="translate(-63.75 -391)"/><polygon class="cls-2" points="612.27 73.58 661.35 150.65 766 0 662.56 102.16 612.27 73.58"/></svg>