<svg width="98" height="24" viewBox="0 0 98 24" fill="none" xmlns="http://www.w3.org/2000/svg">
<g clip-path="url(#clip0_1250_6442)">
<path d="M10.5436 23.6048L6.99198 18.1211H2.39356V23.6048H0V3.83339H6.34726C10.5975 3.83339 13.9592 6.65394 13.9592 10.9244C13.9592 13.6139 12.5608 16.3024 9.57873 17.6994L13.4246 23.6048H10.5436ZM6.34726 15.8279C9.171 15.8279 11.4848 13.9035 11.4848 11.0301C11.4848 8.15669 9.19796 6.1266 6.34726 6.1266H2.39356V15.8279H6.34726Z" fill="white"/>
<path d="M29.4225 16.1967V16.8573H18.3679C18.3679 19.4664 20.4121 21.6551 22.9405 21.6551C25.0117 21.6551 26.3022 20.9945 27.0829 19.8628L28.9384 21.2598C27.7815 22.8936 25.6811 24.0011 22.9405 24.0011C18.7183 24.0011 15.9766 20.4947 15.9766 16.462C15.9766 12.2444 18.6936 8.86569 22.9405 8.86569C26.7324 8.86789 29.4225 12.0055 29.4225 16.1967ZM18.4487 14.7204H27.0289C26.4909 12.5593 24.9038 11.1622 22.9405 11.1622C20.6817 11.1622 18.9598 12.5593 18.4487 14.7204Z" fill="white"/>
<path d="M33.5636 12.6902C33.5636 13.7185 34.2903 14.1929 35.9841 14.6939C39.1852 15.6175 42.0629 16.6755 42.0629 19.6766C42.0629 22.0227 39.9647 23.9702 36.9523 23.9702C34.5587 23.9702 32.1382 22.7052 30.8477 20.728L32.6223 19.4069C33.3221 20.3669 34.9608 21.7067 36.9826 21.7067C38.3541 21.7067 39.6997 20.968 39.6997 19.6766C39.6997 18.306 37.8969 17.6201 35.8268 17.0344C32.0877 15.9808 31.2273 14.5023 31.2003 12.6583C31.1734 10.4443 33.3513 8.8623 36.284 8.8623C37.87 8.8623 39.8872 9.20579 41.5283 11.1819L39.7311 12.503C39.2899 12.0404 38.757 11.6709 38.1651 11.417C37.5731 11.1632 36.9346 11.0304 36.2885 11.0267C34.9889 11.03 33.5636 11.5309 33.5636 12.6902Z" fill="white"/>
<path d="M49.8057 23.9736C47.0628 23.9736 44.0234 22.6029 44.0234 17.1985V9.23779H46.4159V16.1967C46.4159 19.3343 46.9775 21.6804 50.0742 21.6804C52.6283 21.6804 54.2154 19.5182 54.7804 17.9637V9.23779H57.174V23.6048H54.9702L54.7815 21.1002C53.6785 22.6294 51.9847 23.9736 49.8057 23.9736Z" fill="white"/>
<path d="M61.3418 23.6049V3.8335H63.6826V23.6049H61.3418Z" fill="white"/>
<path d="M92.2444 8.86789C94.9873 8.86789 97.9998 9.97542 97.9998 15.6429V23.6048H95.6073V16.6448C95.6073 13.7714 95.0693 11.1875 91.976 11.1875C89.4207 11.1875 87.7808 13.3233 87.2158 14.8789V23.6048H84.8223V9.2378H87.0002L87.2158 11.7424C88.3188 10.2132 89.7981 8.86789 92.2444 8.86789Z" fill="white"/>
<path d="M78.92 13.8947C79.3522 14.6742 79.5785 15.5474 79.5782 16.4345C79.5822 17.1154 79.4487 17.7903 79.1856 18.4203C78.9224 19.0504 78.5347 19.6233 78.0448 20.1059C77.5549 20.5886 76.9724 20.9715 76.3309 21.2327C75.6894 21.4938 75.0016 21.628 74.3069 21.6276C71.3754 21.6276 69.0615 19.3079 69.0615 16.4345C69.0616 15.4961 69.3138 14.5742 69.7928 13.7615L68.4034 11.6257C67.2767 12.9847 66.6637 14.6835 66.668 16.4345C66.6719 17.6262 66.9654 18.7998 67.5242 19.8581C68.083 20.9164 68.891 21.829 69.8813 22.5202C70.8716 23.2115 72.0157 23.6615 73.2188 23.8331C74.4219 24.0046 75.6494 23.8927 76.7996 23.5066C77.9498 23.1206 78.9896 22.4714 79.8329 21.613C80.6761 20.7546 81.2986 19.7116 81.6487 18.5705C81.9988 17.4293 82.0664 16.2228 81.846 15.0509C81.6256 13.879 81.1235 12.7754 80.3813 11.8316L78.92 13.8947Z" fill="white"/>
<path d="M68.7695 8.10055L74.2822 16.5853L86.0366 0L74.4181 11.247L68.7695 8.10055Z" fill="#3679FD"/>
</g>
<defs>
<clipPath id="clip0_1250_6442">
<rect width="98" height="24" fill="white"/>
</clipPath>
</defs>
</svg>
