<svg width="128" height="32" viewBox="0 0 128 32" fill="none" xmlns="http://www.w3.org/2000/svg">
<g clip-path="url(#clip0_972_4490)">
<path d="M13.7712 31.473L9.13238 24.1615H3.12628V31.473H0V5.11119H8.29029C13.8416 5.11119 18.2325 8.87193 18.2325 14.5659C18.2325 18.1519 16.406 21.7365 12.511 23.5993L17.5342 31.473H13.7712ZM8.29029 21.1039C11.9785 21.1039 15.0006 18.538 15.0006 14.7068C15.0006 10.8756 12.0137 8.1688 8.29029 8.1688H3.12628V21.1039H8.29029Z" fill="white"/>
<path d="M38.4292 21.5956V22.4763H23.9905C23.9905 25.9552 26.6606 28.8734 29.9629 28.8734C32.6681 28.8734 34.3538 27.9927 35.3734 26.4837L37.7969 28.3464C36.2859 30.5248 33.5425 32.0015 29.9629 32.0015C24.4483 32.0015 20.8672 27.3262 20.8672 21.9494C20.8672 16.3259 24.416 11.8209 29.9629 11.8209C34.9156 11.8239 38.4292 16.0073 38.4292 21.5956ZM24.0962 19.6272H35.3029C34.6002 16.7457 32.5273 14.8829 29.9629 14.8829C27.0127 14.8829 24.7637 16.7457 24.0962 19.6272Z" fill="white"/>
<path d="M43.8374 16.9203C43.8374 18.2913 44.7865 18.9239 46.9988 19.5918C51.1799 20.8234 54.9385 22.234 54.9385 26.2355C54.9385 29.3636 52.1981 31.9603 48.2634 31.9603C45.1372 31.9603 41.9757 30.2737 40.29 27.6373L42.608 25.8759C43.5219 27.1559 45.6624 28.9423 48.3031 28.9423C50.0943 28.9423 51.8518 27.9573 51.8518 26.2355C51.8518 24.408 49.4972 23.4935 46.7935 22.7126C41.9097 21.3078 40.7859 19.3364 40.7507 16.8777C40.7155 13.9258 43.5601 11.8164 47.3906 11.8164C49.462 11.8164 52.0968 12.2744 54.2402 14.9093L51.8929 16.6707C51.3166 16.0539 50.6206 15.5611 49.8475 15.2227C49.0743 14.8842 48.2403 14.7071 47.3964 14.7023C45.699 14.7067 43.8374 15.3746 43.8374 16.9203Z" fill="white"/>
<path d="M65.0533 31.9648C61.4708 31.9648 57.501 30.1372 57.501 22.9314V12.3171H60.6258V21.5956C60.6258 25.7791 61.3593 28.9072 65.404 28.9072C68.74 28.9072 70.813 26.0242 71.5509 23.9516V12.3171H74.6772V31.473H71.7988L71.5524 28.1336C70.1117 30.1725 67.8994 31.9648 65.0533 31.9648Z" fill="white"/>
<path d="M80.1211 31.4732V5.11133H83.1784V31.4732H80.1211Z" fill="white"/>
<path d="M120.481 11.8239C124.064 11.8239 127.999 13.3006 127.999 20.8573V31.473H124.874V22.193C124.874 18.3618 124.171 14.9167 120.131 14.9167C116.793 14.9167 114.651 17.7644 113.913 19.8385V31.473H110.787V12.3171H113.632L113.913 15.6565C115.354 13.6176 117.286 11.8239 120.481 11.8239Z" fill="white"/>
<path d="M103.079 18.5263C103.643 19.5656 103.939 20.7298 103.938 21.9127C103.944 22.8205 103.769 23.7203 103.426 24.5605C103.082 25.4006 102.576 26.1644 101.936 26.8079C101.296 27.4515 100.535 27.962 99.6972 28.3102C98.8593 28.6584 97.9609 28.8374 97.0536 28.8368C93.2246 28.8368 90.2025 25.7439 90.2025 21.9127C90.2026 20.6614 90.532 19.4322 91.1575 18.3487L89.3428 15.501C87.8713 17.313 87.0706 19.578 87.0762 21.9127C87.0813 23.5016 87.4646 25.0664 88.1945 26.4774C88.9243 27.8885 89.9797 29.1053 91.2732 30.027C92.5666 30.9487 94.061 31.5487 95.6324 31.7774C97.2038 32.0062 98.807 31.857 100.309 31.3422C101.812 30.8274 103.17 29.9619 104.271 28.8174C105.373 27.6728 106.186 26.2822 106.643 24.7606C107.1 23.239 107.188 21.6304 106.901 20.0678C106.613 18.5053 105.957 17.0339 104.987 15.7755L103.079 18.5263Z" fill="white"/>
<path d="M89.8232 10.8007L97.0235 22.1138L112.376 0L97.201 14.996L89.8232 10.8007Z" fill="white"/>
</g>
<defs>
<clipPath id="clip0_972_4490">
<rect width="128" height="32" fill="white"/>
</clipPath>
</defs>
</svg>
