<svg width="288" height="230" viewBox="0 0 288 230" fill="none" xmlns="http://www.w3.org/2000/svg">
<path d="M41.163 187.625C36.71 193.458 29.6885 197.254 22.3704 197.786C22.0369 197.81 21.6705 197.819 21.4068 197.613C20.8124 197.153 21.2728 196.208 21.7803 195.653C26.869 190.094 33.6497 186.993 41.1659 187.625" fill="#D2E9E3"/>
<path d="M35.8205 186.635C27.9422 182.576 18.0869 182.618 10.2429 186.742C13.8991 189.307 18.5274 190.225 22.9818 189.94C27.4362 189.655 31.7338 188.428 35.8205 186.635Z" fill="#D2E9E3"/>
<path d="M35.6779 173.635C35.2631 167.687 34.11 163.13 33.5184 157.181C33.4714 156.707 33.4771 156.125 33.8876 155.882C34.4578 155.542 35.0964 156.208 35.4028 156.798C38.0626 161.93 38.1638 168.3 35.6651 173.505" fill="#D2E9E3"/>
<path d="M36.2097 174.211C31.828 172.429 28.3101 169.729 24.9205 166.431C22.5629 164.135 20.4176 161.27 20.3079 157.981C22.9876 157.472 25.7928 158.523 27.8882 160.262C29.9835 162.001 31.4517 164.387 32.6662 166.83C33.8806 169.273 34.8698 171.828 36.2097 174.204" fill="#D2E9E3"/>
<path d="M26.2375 173.178C16.9646 171.423 8.07937 168.027 0 163.15C2.65554 161.519 6.03518 161.653 9.07843 162.322C16.0316 163.847 22.101 167.382 26.3515 173.092" fill="#D2E9E3"/>
<path d="M34.073 177.866C29.7512 179.093 25.331 180.163 20.8381 180.172C16.4193 180.182 12.0747 179.174 7.77566 178.158C7.42073 178.074 7.03017 177.967 6.82776 177.662C6.60967 177.33 6.70375 176.865 6.95035 176.553C7.19694 176.241 7.56185 176.05 7.92105 175.88C12.0775 173.92 16.8826 173.695 21.4197 174.416C25.9568 175.137 29.7683 176.261 34.073 177.866Z" fill="#D2E9E3"/>
<path d="M28.2275 185.641C28.2275 185.67 28.6267 185.745 29.3565 185.859L32.4439 186.351C35.0481 186.779 38.6359 187.414 42.5643 188.298C46.4628 189.242 50.1062 189.927 52.3455 191.292C53.2342 191.808 53.9924 192.522 54.562 193.378C54.954 193.994 55.0737 194.39 55.1093 194.376C55.1236 194.376 55.1008 194.271 55.0466 194.082C54.9568 193.809 54.8408 193.545 54.7002 193.294C54.1646 192.372 53.4084 191.597 52.4994 191.039C51.3676 190.311 49.8653 189.738 48.1761 189.272C46.487 188.806 44.624 188.338 42.6555 187.893C38.7171 187.007 35.1094 186.408 32.4881 186.06C31.1781 185.882 30.1134 185.775 29.3778 185.698C28.6423 185.621 28.2318 185.613 28.2275 185.641Z" fill="#D2E9E3"/>
<path d="M16.7886 167.151C16.8935 167.255 17.0114 167.345 17.1392 167.419L18.1897 168.116L22.0825 170.622L35.0338 178.729C40.0897 181.896 44.5185 184.99 47.6259 187.357C49.181 188.539 50.4154 189.528 51.2607 190.219L52.2357 191.015C52.3444 191.115 52.4645 191.202 52.5934 191.274C52.5073 191.154 52.4057 191.047 52.2913 190.954C52.0817 190.755 51.7767 190.459 51.3647 190.098C50.5494 189.366 49.3407 188.341 47.8012 187.126C44.7323 184.693 40.3164 181.552 35.2576 178.38C30.1988 175.208 25.5848 172.393 22.2422 170.366L18.271 167.979L17.1806 167.347C17.0579 167.267 16.9263 167.201 16.7886 167.151Z" fill="#D2E9E3"/>
<path d="M40.4505 181.902C40.556 181.832 39.2802 179.868 37.9118 177.341C36.5434 174.814 35.7181 172.63 35.6041 172.668C35.4901 172.707 36.1543 174.982 37.5484 177.536C38.1355 178.625 38.7832 179.681 39.4883 180.698C40.03 181.479 40.402 181.934 40.4505 181.902Z" fill="#D2E9E3"/>
<path d="M52.8643 196.632C50.8573 197.804 49.0057 199.221 47.0515 200.481C45.0972 201.741 43.0019 202.849 40.7241 203.31C38.4463 203.772 35.9518 203.526 34.0161 202.239C39.0963 197.82 46.105 195.682 52.7888 196.537" fill="#D2E9E3"/>
<path d="M56.4905 195.803C56.4691 198.389 56.1926 201.715 56.9181 204.197C57.6436 206.679 59.2429 209.032 61.622 210.041C62.2833 204.844 60.3134 199.378 56.4905 195.799" fill="#D2E9E3"/>
<path d="M54.5261 197.646C53.822 200.273 53.1093 202.92 51.8335 205.329C50.5578 207.738 48.652 209.89 46.1519 210.965C47.0071 205.313 49.5386 200.44 54.4506 197.518" fill="#D2E9E3"/>
<path d="M43.6203 209.095C39.4253 212.222 33.5455 212.46 28.558 210.878C27.928 210.679 27.2908 210.428 26.8262 209.959C26.3615 209.49 26.1134 208.751 26.3871 208.151C26.7478 207.359 27.7683 207.164 28.6364 207.102C33.7146 206.746 38.8123 207.425 43.6203 209.098" fill="#D2E9E3"/>
<path d="M41.1415 212.355C39.0661 214.838 36.9565 217.352 34.2995 219.188C31.6425 221.024 28.3014 222.129 25.137 221.455C26.6721 218.534 29.7596 216.781 32.8228 215.556C35.886 214.332 39.1445 213.444 41.8442 211.547" fill="#D2E9E3"/>
<path d="M42.5268 210.615C41.3623 214.295 38.7096 218.099 38.577 221.956C38.4844 224.652 39.552 227.325 39.2099 230C41.2211 228.751 42.5126 226.555 43.0742 224.257C43.6358 221.959 43.5374 219.553 43.2638 217.197C42.9901 214.841 42.6494 212.979 42.5268 210.615Z" fill="#D2E9E3"/>
<path d="M64.8589 180.367C64.9373 180.426 59.8315 187.473 53.4556 196.107C47.0798 204.74 41.8471 211.696 41.7673 211.644C41.6875 211.591 46.7947 204.539 53.1706 195.903C59.5464 187.266 64.7805 180.315 64.8589 180.367Z" fill="#D2E9E3"/>
<path d="M57.226 190.733C57.3158 190.77 56.4549 193.083 55.3031 195.898C54.1514 198.713 53.1451 200.968 53.0553 200.931C52.9655 200.894 53.825 198.582 54.9781 195.766C56.1313 192.949 57.1362 190.697 57.226 190.733Z" fill="#D2E9E3"/>
<path d="M57.1477 190.676C57.2531 190.71 56.663 192.244 56.6217 194.231C56.5347 196.226 57.1919 197.738 57.0963 197.773C57.0593 197.791 56.8284 197.442 56.6188 196.805C56.3572 195.97 56.2391 195.096 56.2696 194.222C56.3166 192.158 57.0764 190.63 57.1477 190.676Z" fill="#D2E9E3"/>
<path d="M287.878 47.9752C287.863 45.0574 287.764 26.6867 287.717 18.0245C287.711 16.7989 287.27 15.6153 286.474 14.6837C285.677 13.7522 284.577 13.1329 283.367 12.9358C276.563 11.8182 262.992 8.74648 251.865 0.985123C250.938 0.338743 249.833 -0.00529645 248.703 6.16469e-05C247.572 0.00541974 246.471 0.359914 245.549 1.01506C234.508 8.87049 220.95 12.0606 214.145 13.2379C212.936 13.4456 211.84 14.0751 211.051 15.0146C210.262 15.9541 209.832 17.1428 209.837 18.3694C209.883 27.0359 209.98 45.3938 209.997 48.3101C210.018 52.1587 210.433 61.6976 222.272 73.3973C231.364 82.3774 242.347 87.68 246.956 89.6599C247.652 89.9596 248.403 90.1125 249.161 90.1091C249.918 90.1056 250.667 89.9459 251.361 89.6399C255.951 87.6187 266.875 82.2164 275.868 73.1622C287.586 61.3655 287.901 51.8167 287.878 47.9752Z" fill="url(#paint0_linear_2112_12303)"/>
<path d="M248.829 46.1577C242.928 46.189 238.103 40.9336 238.075 34.4422L238.057 30.8374C238.029 24.3461 242.806 19.0378 248.708 19.0065C254.611 18.9751 259.434 24.2306 259.463 30.7219L259.48 34.3268C259.509 40.8181 254.732 46.1263 248.829 46.1577ZM248.722 23.6262C245.511 23.6262 242.538 26.0737 242.559 30.8217L242.575 34.4266C242.596 39.1746 244.5 43.0175 248.815 42.9947C253.13 42.9719 255.229 39.0905 255.201 34.3425L255.184 30.7376C255.201 26.5868 252.223 23.6262 248.722 23.6262Z" fill="#181D37"/>
<path d="M258.749 33.9448L238.824 34.0526C235.898 34.0685 233.54 36.4527 233.556 39.378L233.645 55.9838C233.661 58.9091 236.045 61.2677 238.971 61.2519L258.896 61.1441C261.822 61.1283 264.18 58.744 264.164 55.8187L264.074 39.2129C264.059 36.2876 261.674 33.929 258.749 33.9448Z" fill="#181D37"/>
<path d="M247.786 54.9809C247.661 54.9662 247.541 54.9246 247.434 54.8588C247.327 54.7931 247.236 54.7049 247.166 54.6003C246.467 53.6296 244.937 51.7866 244.242 50.8116C244.11 50.6102 244.059 50.3666 244.098 50.1291C244.137 49.8915 244.264 49.6772 244.453 49.5287C244.841 49.2322 245.351 49.342 245.644 49.7397C246.161 50.4453 247.86 52.448 247.86 52.448C247.86 52.448 251.733 46.209 253.031 44.135C253.089 44.0361 253.167 43.9503 253.259 43.8832C253.352 43.816 253.458 43.7689 253.57 43.7449C253.681 43.7209 253.797 43.7205 253.909 43.7437C254.021 43.7669 254.127 43.8133 254.22 43.8798C254.411 44.0271 254.54 44.2407 254.581 44.4782C254.622 44.7158 254.572 44.9601 254.441 45.1627C252.969 47.5146 250.047 52.2327 248.571 54.5832C248.498 54.7045 248.395 54.8054 248.273 54.8771C248.15 54.9488 248.012 54.9889 247.87 54.9938C247.842 54.9909 247.814 54.9867 247.786 54.9809Z" fill="white"/>
<path fill-rule="evenodd" clip-rule="evenodd" d="M248.548 52.8749C248.449 52.8135 248.252 52.6914 247.86 52.4482C247.154 53.0476 247.154 53.0476 247.154 53.0476L247.134 53.0244C247.127 53.0161 247.118 53.0056 247.108 52.993C247.39 53.3543 247.652 53.6946 247.858 53.9769C247.87 53.9581 247.882 53.9392 247.894 53.9201L247.154 53.0476L247.86 52.4482L248.548 52.8749C248.548 52.8749 248.548 52.8749 248.548 52.8749ZM247.748 50.8734C248.126 50.2639 248.631 49.4519 249.172 48.5804C250.299 46.7677 251.588 44.6957 252.24 43.6537C252.362 43.4498 252.523 43.2727 252.716 43.1333C252.913 42.9905 253.137 42.8903 253.375 42.8392C253.613 42.7882 253.859 42.7873 254.098 42.8367C254.336 42.8862 254.561 42.9848 254.759 43.1262L254.773 43.1362L254.787 43.1466C255.161 43.4357 255.414 43.8549 255.494 44.3212C255.574 44.7852 255.478 45.2623 255.224 45.6589C254.551 46.7333 253.568 48.3144 252.559 49.9369C251.374 51.8429 250.154 53.8059 249.359 55.0714C249.206 55.321 248.994 55.529 248.741 55.677C248.486 55.8262 248.198 55.9098 247.902 55.92L247.84 55.9221L247.779 55.916C247.732 55.9113 247.685 55.9047 247.638 55.8962C247.394 55.862 247.16 55.7778 246.95 55.6487C246.734 55.5163 246.549 55.3398 246.406 55.1307C246.078 54.6758 245.555 54.0147 245.008 53.3226L244.976 53.2826C244.425 52.5862 243.852 51.8603 243.488 51.3492L243.478 51.3347L243.468 51.3197C243.208 50.9242 243.107 50.4457 243.184 49.979C243.261 49.5123 243.51 49.0914 243.882 48.7997L243.886 48.7963L243.891 48.793C244.751 48.1351 245.838 48.44 246.39 49.1913L246.391 49.192C246.63 49.5176 247.164 50.1715 247.659 50.7664C247.689 50.8024 247.718 50.8381 247.748 50.8734Z" fill="white"/>
<path d="M169.198 214.717H117.614C115.803 214.717 114.952 212.251 116.305 210.925C123.261 204.11 120.41 199.147 120.276 198.923H165.462C164.636 205.48 166.812 207.607 170.382 210.814C171.696 211.994 170.824 214.717 169.198 214.717Z" fill="#C8D2E1"/>
<path opacity="0.6" d="M165.443 203.648H120.786C121.378 200.825 120.359 199.054 120.28 198.923H165.466C165.228 200.816 165.231 202.35 165.443 203.648Z" fill="#8C949E"/>
<path d="M235.887 65.2471H50.773C47.583 65.2471 44.9958 67.6774 44.9958 70.675V193.487C44.9958 196.48 47.583 198.915 50.773 198.915H121.82V198.923H167.005V198.915H235.888C239.078 198.915 241.665 196.492 241.665 193.488V70.675C241.665 67.6774 239.078 65.2471 235.887 65.2471Z" fill="#C8D2E1"/>
<path d="M52.4235 69.0183H234.733C235.792 69.0183 236.807 69.4388 237.556 70.1873C238.304 70.9358 238.725 71.9509 238.725 73.0095V183.165C238.725 185.008 237.993 186.775 236.69 188.078C235.387 189.381 233.62 190.113 231.777 190.113H52.4235C51.365 190.113 50.3498 189.692 49.6013 188.944C48.8529 188.195 48.4324 187.18 48.4324 186.121V73.0095C48.4324 71.9509 48.8529 70.9358 49.6013 70.1873C50.3498 69.4388 51.365 69.0183 52.4235 69.0183Z" fill="url(#paint1_linear_2112_12303)"/>
<path d="M143.205 196.299C144.411 196.299 145.389 195.357 145.389 194.195C145.389 193.033 144.411 192.091 143.205 192.091C141.999 192.091 141.022 193.033 141.022 194.195C141.022 195.357 141.999 196.299 143.205 196.299Z" fill="white"/>
<mask id="mask0_2112_12303" style="mask-type:luminance" maskUnits="userSpaceOnUse" x="51" y="101" width="84" height="67">
<path d="M134.665 101.138H51.0667V167.523H134.665V101.138Z" fill="white"/>
</mask>
<g mask="url(#mask0_2112_12303)">
</g>
<g clip-path="url(#clip0_2112_12303)">
<path d="M84.9686 138.624H75.3655C75.1281 138.624 74.9355 138.817 74.9355 139.056V139.965C74.9355 140.204 75.1281 140.397 75.3655 140.397H84.9686C85.2061 140.397 85.3986 140.204 85.3986 139.965V139.056C85.3986 138.817 85.2061 138.624 84.9686 138.624Z" stroke="#DEE5F8" stroke-width="5" stroke-miterlimit="10"/>
<path d="M90.6894 138.606H86.7813C86.484 138.606 86.2429 138.848 86.2429 139.146V139.838C86.2429 140.137 86.484 140.379 86.7813 140.379H90.6894C90.9868 140.379 91.2278 140.137 91.2278 139.838V139.146C91.2278 138.848 90.9868 138.606 90.6894 138.606Z" stroke="#DEE5F8" stroke-width="3.75" stroke-miterlimit="10"/>
<path d="M88.302 114.665H84.3938C84.0965 114.665 83.8555 114.907 83.8555 115.206V115.898C83.8555 116.196 84.0965 116.438 84.3938 116.438H88.302C88.5993 116.438 88.8404 116.196 88.8404 115.898V115.206C88.8404 114.907 88.5993 114.665 88.302 114.665Z" stroke="#DEE5F8" stroke-width="5" stroke-miterlimit="10"/>
<path d="M94.199 114.665H90.2908C89.9935 114.665 89.7524 114.907 89.7524 115.206V115.898C89.7524 116.196 89.9935 116.438 90.2908 116.438H94.199C94.4963 116.438 94.7373 116.196 94.7373 115.898V115.206C94.7373 114.907 94.4963 114.665 94.199 114.665Z" stroke="#DEE5F8" stroke-width="5" stroke-miterlimit="10"/>
<path d="M109.174 130.611H105.266C104.968 130.611 104.727 130.853 104.727 131.152V131.844C104.727 132.142 104.968 132.384 105.266 132.384H109.174C109.471 132.384 109.712 132.142 109.712 131.844V131.152C109.712 130.853 109.471 130.611 109.174 130.611Z" stroke="#DEE5F8" stroke-width="5" stroke-miterlimit="10"/>
<path d="M127.888 108.529V109.039C128.059 109.039 128.251 109.086 128.38 109.431C128.521 109.81 128.527 110.408 128.398 111.116C128.253 111.912 127.94 112.831 127.495 113.773C126.576 115.715 125.148 117.654 123.42 119.319L123.164 113.646L124.672 111.55H125.944C126.177 111.55 126.4 111.457 126.564 111.292C126.729 111.127 126.821 110.903 126.821 110.67V109.475C126.858 109.429 126.905 109.391 126.958 109.365C127.42 109.095 127.719 109.039 127.887 109.039V108.529M127.887 108.529C127.562 108.529 127.166 108.653 126.702 108.924C126.489 109.048 126.312 109.223 126.312 109.469V110.67C126.312 110.768 126.273 110.862 126.204 110.931C126.135 111.001 126.041 111.04 125.943 111.04H124.412L122.647 113.491L122.96 120.432C128.888 115.271 130.282 108.529 127.888 108.529H127.887Z" fill="#FBC343"/>
<path d="M109.648 108.529V109.039C109.816 109.039 110.115 109.096 110.577 109.365C110.63 109.392 110.677 109.429 110.714 109.475V110.67C110.714 110.903 110.806 111.127 110.971 111.292C111.135 111.457 111.358 111.55 111.591 111.55H112.863L114.371 113.646L114.115 119.32C112.387 117.654 110.959 115.715 110.04 113.774C109.594 112.831 109.282 111.913 109.137 111.116C109.007 110.409 109.014 109.811 109.155 109.431C109.285 109.086 109.476 109.04 109.647 109.04V108.529M109.647 108.529C107.253 108.529 108.647 115.271 114.574 120.432L114.887 113.491L113.122 111.04H111.591C111.493 111.04 111.399 111.001 111.33 110.931C111.261 110.862 111.222 110.768 111.222 110.67V109.469C111.222 109.223 111.045 109.048 110.832 108.924C110.368 108.653 109.972 108.529 109.647 108.529H109.647Z" fill="#FBC343"/>
<path d="M123.756 132.749H113.78V137.944H123.756V132.749Z" fill="#6F3428"/>
<path d="M116.672 129.683H120.863C121.225 129.683 121.572 129.827 121.829 130.084C122.085 130.341 122.229 130.69 122.229 131.053V132.75H115.304V131.053C115.304 130.873 115.34 130.695 115.409 130.528C115.477 130.362 115.578 130.211 115.705 130.083C115.832 129.956 115.983 129.855 116.149 129.786C116.315 129.718 116.493 129.682 116.672 129.683Z" fill="#FBC343"/>
<path d="M117.463 127.774H120.073C120.298 127.774 120.514 127.864 120.674 128.024C120.833 128.184 120.923 128.401 120.923 128.627V129.683H116.614V128.627C116.614 128.401 116.703 128.184 116.862 128.024C117.022 127.864 117.238 127.774 117.463 127.774Z" fill="#FBC343"/>
<path d="M119.97 127.24L120.104 127.774H117.432L117.565 127.24C117.742 126.541 117.742 125.808 117.565 125.109L117.432 124.575H120.104L119.97 125.109C119.912 125.34 119.873 125.574 119.853 125.811C119.812 126.291 119.852 126.774 119.97 127.24Z" fill="#FBC343"/>
<path opacity="0.3" d="M120.104 124.574L119.97 125.107C119.912 125.338 119.873 125.573 119.853 125.81C119.707 124.833 117.432 124.574 117.432 124.574H120.104Z" fill="#6F3428"/>
<path d="M120.922 122.666V123.72C120.922 123.805 120.91 123.889 120.885 123.97C120.832 124.145 120.724 124.298 120.578 124.406C120.432 124.515 120.255 124.574 120.073 124.574H117.463C117.238 124.574 117.021 124.484 116.862 124.324C116.702 124.163 116.613 123.946 116.613 123.72V122.666H120.922Z" fill="#FBC343"/>
<path opacity="0.3" d="M120.922 122.666V123.72C120.922 123.805 120.91 123.889 120.885 123.97C119.735 122.909 116.811 122.878 116.613 122.876V122.666H120.922Z" fill="#6F3428"/>
<path d="M125.461 109.918L124.225 115.331L122.855 121.34C122.755 121.776 122.511 122.166 122.162 122.445C121.813 122.724 121.379 122.876 120.933 122.876H116.602C116.157 122.876 115.726 122.725 115.377 122.448C115.029 122.17 114.784 121.783 114.683 121.348C114.682 121.345 114.681 121.342 114.68 121.34L112.074 109.918C112.061 109.863 112.06 109.805 112.069 109.749C112.079 109.693 112.1 109.64 112.13 109.592C112.161 109.545 112.201 109.504 112.248 109.472C112.294 109.44 112.347 109.418 112.402 109.407C116.604 108.565 120.931 108.565 125.133 109.407C125.188 109.418 125.241 109.44 125.287 109.472C125.334 109.504 125.374 109.545 125.405 109.592C125.435 109.64 125.456 109.693 125.466 109.749C125.475 109.805 125.474 109.863 125.461 109.918Z" fill="#FBC343"/>
<path opacity="0.6" d="M115.928 113.179C116.023 113.959 115.868 114.62 115.582 114.655C115.295 114.69 114.986 114.086 114.891 113.306C114.796 112.527 114.952 111.866 115.238 111.831C115.525 111.796 115.833 112.4 115.928 113.179Z" fill="white"/>
<path opacity="0.1" d="M124.225 115.331L122.855 121.34C122.755 121.776 122.511 122.166 122.162 122.445C121.812 122.724 121.379 122.876 120.933 122.876H116.602C116.157 122.876 115.725 122.725 115.377 122.448C115.029 122.17 114.784 121.783 114.682 121.348C119.443 121.047 122.61 118.019 124.225 115.331Z" fill="#6F3428"/>
<g opacity="0.3">
<path d="M117.432 127.774C117.651 127.722 117.873 127.685 118.096 127.663C118.319 127.639 118.543 127.628 118.768 127.625C119.216 127.625 119.669 127.654 120.104 127.774C119.878 127.781 119.657 127.78 119.435 127.781L118.769 127.788C118.325 127.79 117.882 127.799 117.432 127.774Z" fill="#6F3428"/>
</g>
<g opacity="0.3">
<path d="M116.613 129.683C117.328 129.591 118.047 129.542 118.768 129.536C119.127 129.532 119.488 129.536 119.848 129.556C120.209 129.57 120.568 129.612 120.923 129.683C120.562 129.671 120.204 129.68 119.846 129.683L118.769 129.699C118.052 129.706 117.334 129.712 116.613 129.683Z" fill="#6F3428"/>
</g>
<path d="M116.831 101.289L117.277 104.511C117.28 104.549 117.27 104.588 117.249 104.62C117.228 104.653 117.197 104.677 117.16 104.69C117.124 104.702 117.084 104.702 117.048 104.69C117.011 104.677 116.98 104.653 116.959 104.621L115.338 101.803C115.315 101.762 115.301 101.717 115.297 101.67C115.294 101.623 115.3 101.576 115.317 101.533C115.334 101.489 115.36 101.449 115.393 101.417C115.427 101.384 115.467 101.36 115.512 101.345L116.417 101.033C116.461 101.018 116.507 101.013 116.554 101.018C116.6 101.024 116.644 101.039 116.684 101.063C116.723 101.088 116.757 101.12 116.782 101.159C116.808 101.198 116.824 101.242 116.831 101.289Z" fill="#FBC343"/>
<path d="M121.313 99.3594L119.558 104.891C119.457 105.212 118.989 105.157 118.963 104.822L118.516 99.034C118.51 98.9508 118.522 98.8673 118.551 98.7893C118.581 98.7114 118.628 98.641 118.688 98.5832C118.747 98.5254 118.819 98.4817 118.898 98.4551C118.977 98.4285 119.061 98.4197 119.143 98.4294L120.839 98.6268C120.922 98.6363 121.002 98.664 121.072 98.7079C121.143 98.7519 121.203 98.811 121.248 98.881C121.294 98.951 121.323 99.0302 121.334 99.1129C121.345 99.1956 121.338 99.2798 121.313 99.3594Z" fill="#FBC343"/>
<path d="M123.361 102.748L121.268 104.751C121.243 104.776 121.209 104.791 121.174 104.794C121.138 104.796 121.103 104.786 121.074 104.766C121.045 104.745 121.024 104.715 121.015 104.681C121.006 104.646 121.009 104.61 121.024 104.577L122.213 101.931C122.23 101.893 122.255 101.86 122.287 101.833C122.319 101.806 122.356 101.786 122.396 101.775C122.436 101.764 122.478 101.762 122.519 101.77C122.56 101.777 122.599 101.793 122.633 101.817L123.329 102.313C123.363 102.337 123.392 102.368 123.412 102.404C123.433 102.441 123.445 102.481 123.448 102.523C123.451 102.564 123.445 102.606 123.43 102.645C123.415 102.684 123.392 102.719 123.361 102.748Z" fill="#FBC343"/>
<path d="M76.2797 119.11C77.219 119.697 78.216 118.936 78.3252 118.292C78.4878 117.332 77.616 116.226 76.2797 117.047C76.2797 117.047 75.121 115.687 73.9957 117.033C73.9957 117.033 72.0759 118.003 73.1414 119.686C74.2068 121.369 75.5441 119.077 75.5441 119.077L76.2797 119.11Z" fill="#102048"/>
<path d="M76.9619 119.531C77.4764 120.224 77.7031 120.498 77.6303 120.714C77.5575 120.931 77.043 120.949 77.043 120.949L76.9619 119.531Z" fill="#E28B6D"/>
<path d="M76.1627 121.673L75.868 122.412L74.7279 125.273L72.8892 123.089L74.6252 120.512L75.6612 121.295L76.1627 121.673Z" fill="#F9B384"/>
<path d="M76.1622 121.673L75.8674 122.413C75.519 122.056 75.2 121.671 74.9138 121.262L75.6594 121.295L76.1622 121.673Z" fill="#102048"/>
<path d="M77.2304 121.302C77.2139 121.693 77.1372 121.995 76.9473 122.128C76.4025 122.515 74.4007 120.867 74.4007 120.867L74.2642 118.543L77.0787 118.744C77.0839 119.117 77.1242 119.537 77.1619 119.951C77.2052 120.434 77.246 120.912 77.2304 121.302Z" fill="#F9B384"/>
<path d="M74.5256 119.683C75.2144 119.814 75.3925 119.049 75.3925 119.049C76.1294 118.596 76.7393 119.643 77.4025 119.253L77.5048 117.916L74.5876 117.767L73.5347 118.446L73.8325 119.262L74.5256 119.683Z" fill="#102048"/>
<path d="M74.9568 119.698C74.5862 119.276 73.9875 119.457 73.9303 119.91C73.8731 120.363 74.2463 121.128 74.8519 120.684L74.9568 119.698Z" fill="#F9B384"/>
<path d="M77.2302 121.302C77.1697 121.319 77.1069 121.328 77.0438 121.328C76.9489 121.335 76.8535 121.322 76.7638 121.29C76.674 121.258 76.5917 121.208 76.5221 121.143C76.4524 121.078 76.3968 120.999 76.3589 120.911C76.3209 120.824 76.3013 120.729 76.3013 120.634C76.3013 120.538 76.3209 120.444 76.3589 120.356C76.3968 120.268 76.4524 120.19 76.5221 120.124C76.5917 120.059 76.674 120.009 76.7638 119.978C76.8535 119.946 76.9489 119.933 77.0438 119.939C77.0834 119.939 77.1229 119.943 77.1617 119.95C77.2051 120.434 77.2458 120.912 77.2302 121.302Z" fill="#FC8879"/>
<path d="M74.704 119.999C74.6803 119.95 74.6449 119.907 74.6008 119.875C74.5588 119.842 74.5106 119.817 74.459 119.803C74.4117 119.786 74.3602 119.788 74.3138 119.807C74.2661 119.831 74.2263 119.868 74.1994 119.914L74.1699 119.902C74.177 119.869 74.1906 119.838 74.2097 119.811C74.2288 119.784 74.2532 119.761 74.2813 119.743C74.3117 119.727 74.3449 119.717 74.3792 119.714C74.4134 119.711 74.4479 119.714 74.4807 119.725C74.5431 119.744 74.5999 119.778 74.6463 119.824C74.6948 119.868 74.7263 119.928 74.7352 119.993L74.704 119.999Z" fill="#102048"/>
<path d="M77.4011 127.015C78.008 126.306 78.0695 125.294 78.3001 125.086C78.7288 124.699 78.5329 125.881 78.5329 125.881C78.5329 125.881 78.8121 125.085 79.4826 124.905C79.9217 124.787 80.0002 125.196 79.9621 125.539C79.8988 126.109 79.7124 126.76 79.2533 127.138C79.0583 127.3 78.8086 127.423 78.6682 127.64C78.5853 127.765 78.5219 127.902 78.48 128.046L77.4011 127.015Z" fill="#F9B384"/>
<path d="M77.3049 127.037L77.5876 126.655L78.7367 127.681L78.4155 128.146L77.3049 127.037Z" fill="#708CD5"/>
<path d="M73.6711 130.8L77.3283 126.711L78.6859 128.048C77.715 130.263 76.4289 131.685 74.3669 132.772L73.6711 130.8Z" fill="#102048"/>
<path d="M78.875 125.847C78.9447 125.837 79.0158 125.845 79.0818 125.87C79.1456 125.891 79.2071 125.919 79.2651 125.954C79.323 125.987 79.3775 126.026 79.4281 126.07C79.484 126.114 79.5286 126.17 79.5581 126.234L79.5187 126.249C79.4714 126.212 79.4217 126.177 79.37 126.145C79.3167 126.112 79.263 126.078 79.2088 126.046C79.1546 126.014 79.1004 125.983 79.0458 125.954C78.9922 125.925 78.9351 125.903 78.8759 125.889L78.875 125.847Z" fill="#E28B6D"/>
<path d="M78.5246 126.095C78.6037 126.122 78.6731 126.172 78.7244 126.238C78.7759 126.311 78.798 126.401 78.7864 126.49C78.7754 126.574 78.7435 126.654 78.6937 126.722C78.6478 126.794 78.5792 126.848 78.499 126.875L78.4856 126.835C78.5388 126.79 78.5822 126.734 78.613 126.671C78.6467 126.611 78.6692 126.545 78.6794 126.477C78.6884 126.412 78.6773 126.346 78.6477 126.288C78.6099 126.228 78.5614 126.175 78.5047 126.133L78.5246 126.095Z" fill="#E28B6D"/>
<path d="M65.8539 130.8L61.9592 129.733C61.9971 129.594 62.0884 129.476 62.2131 129.404C62.3379 129.332 62.4859 129.313 62.6246 129.351L65.4738 130.131C65.5426 130.15 65.6069 130.182 65.6633 130.226C65.7196 130.27 65.7668 130.324 65.8021 130.386C65.8374 130.448 65.8601 130.517 65.869 130.588C65.8779 130.659 65.8728 130.731 65.8539 130.8Z" fill="#708CD5"/>
<path d="M64.3503 152.158C64.3503 152.158 65.1466 153.858 67.4375 153.311L66.3326 151.841L64.3503 152.158Z" fill="#1F3C88"/>
<path d="M65.1274 151.948L64.312 153.789L65.2019 155.197L66.3029 154.298L66.7897 152.273L65.1274 151.948Z" fill="#F9B384"/>
<path d="M64.3121 153.789L66.303 154.299L67.43 157.103C67.4534 157.161 67.4588 157.225 67.4454 157.286C67.432 157.347 67.4005 157.402 67.355 157.445C67.3095 157.488 67.2522 157.516 67.1906 157.525C67.129 157.534 67.0661 157.525 67.01 157.498L63.4777 155.784C63.3547 155.724 63.2599 155.618 63.2135 155.49C63.1671 155.361 63.1728 155.219 63.2293 155.094L63.2605 155.025C63.4884 154.523 63.852 154.095 64.3099 153.789H64.3121Z" fill="#1F3C88"/>
<path d="M64.3121 153.789L66.303 154.299L67.43 157.103C67.4534 157.161 67.4588 157.225 67.4454 157.286C67.432 157.347 67.4005 157.402 67.355 157.445C67.3095 157.488 67.2522 157.516 67.1906 157.525C67.129 157.534 67.0661 157.525 67.01 157.498L63.4777 155.784C63.3547 155.724 63.2599 155.618 63.2135 155.49C63.1671 155.361 63.1728 155.219 63.2293 155.094L63.2605 155.025C63.4884 154.523 63.852 154.095 64.3099 153.789H64.3121Z" fill="#1F3C88"/>
<path d="M66.66 155.216L66.1665 155.493L66.2195 155.588L66.713 155.311L66.66 155.216Z" fill="#ACBFEE"/>
<path d="M66.91 155.834L66.4167 156.112L66.4698 156.207L66.963 155.929L66.91 155.834Z" fill="#ACBFEE"/>
<path d="M67.0014 133.18C66.6161 134.09 66.0938 135.488 66.9698 137.169C67.3315 137.848 67.4391 138.635 67.2732 139.387L64.3503 152.158L67.4375 153.311L73.7549 134.819L67.0014 133.18Z" fill="#102048"/>
<path d="M75.2606 123.984C75.8848 125.781 75.9021 128.849 74.717 132.087L72.8887 132.609L73.6234 126.612L75.2606 123.984Z" fill="#708CD5"/>
<path d="M73.2537 122.44L73.7548 121.328C73.7548 121.328 75.1735 122.321 75.9186 123.503L75.0495 125.145L73.2537 122.44Z" fill="#708CD5"/>
<path d="M73.6225 131.849C68.7676 131.693 66.2232 134.424 66.2418 134.318C67.022 131.658 67.7589 129.669 68.4178 128.185C69.612 125.491 70.5505 124.451 71.0381 124.06C71.2765 123.867 71.4074 123.83 71.4074 123.83L73.6181 121.972C73.8148 122.078 73.9959 122.212 74.1565 122.368C74.7798 122.955 75.1361 123.766 75.2207 124.619C75.5553 127.956 73.6225 131.849 73.6225 131.849Z" fill="#1F3C88"/>
<path d="M72.2204 124.164C71.5116 124.542 70.2806 126.513 68.418 128.185C69.6122 125.491 70.5506 124.451 71.0383 124.06L72.2204 124.164Z" fill="#102048"/>
<path d="M64.235 128.304L63.4548 129.419C63.4548 129.419 63.3581 129.874 63.1514 130.055C63.1514 130.055 63.245 130.522 63.6104 130.686C64.0283 130.872 64.5432 130.862 64.877 130.384C65.2108 129.905 65.2546 128.487 65.2546 128.487L64.235 128.304Z" fill="#F9B384"/>
<path d="M63.6958 128.533C63.6958 128.605 63.551 129.004 63.551 129.004L65.2507 129.239V128.487L63.6958 128.533Z" fill="#708CD5"/>
<path d="M73.6201 121.972C73.6201 121.972 70.3847 121.485 67.7561 122.851C67.3861 123.046 67.0463 123.293 66.7474 123.586C65.4787 124.82 64.3451 126.035 63.4873 128.615L65.5081 128.946L67.5454 125.925C67.7209 125.667 67.987 125.485 68.2906 125.415C69.369 125.168 71.9551 124.56 72.3604 124.323L73.6201 121.972Z" fill="#1F3C88"/>
<path d="M76.4553 141.39C76.4553 141.39 77.6721 143.017 79.6873 142.2L78.3435 140.767L76.4553 141.39Z" fill="#1F3C88"/>
<path d="M77.1999 140.963L76.3845 142.804L77.2749 144.212L78.3754 143.313L78.8622 141.288L77.1999 140.963Z" fill="#F9B384"/>
<path d="M76.3846 142.805L78.3755 143.315L79.5052 146.12C79.5284 146.178 79.5336 146.241 79.5202 146.302C79.5067 146.363 79.4751 146.419 79.4296 146.461C79.3842 146.504 79.3269 146.532 79.2653 146.541C79.2037 146.551 79.1408 146.541 79.0847 146.514L75.5524 144.8C75.4294 144.741 75.3346 144.635 75.2882 144.506C75.2418 144.377 75.2475 144.235 75.304 144.11L75.3352 144.042C75.5631 143.539 75.9266 143.111 76.3846 142.805Z" fill="#1F3C88"/>
<path d="M78.7259 144.181L78.2324 144.458L78.2854 144.553L78.7789 144.276L78.7259 144.181Z" fill="#ACBFEE"/>
<path d="M78.9747 144.798L78.4814 145.076L78.5345 145.171L79.0277 144.893L78.9747 144.798Z" fill="#ACBFEE"/>
<path d="M67.0012 133.18C67.6653 132.719 71.8994 131.605 74.5869 131.686C77.574 131.777 79.971 132.117 80.9455 134.312C81.9199 136.507 79.6884 142.2 79.6884 142.2L76.4565 141.39L77.2367 136.113C77.2367 136.113 73.1413 136.629 71.1907 136.653L67.0012 133.18Z" fill="#102048"/>
<path d="M73.7543 136.512C73.4214 136.512 73.1015 136.599 72.7725 136.666C72.4417 136.731 72.1049 136.762 71.7678 136.756C71.4323 136.747 71.0976 136.719 70.7651 136.673C70.5996 136.649 70.4344 136.62 70.2697 136.593C70.1058 136.56 69.9415 136.528 69.7786 136.492L69.7859 136.448C69.9515 136.469 70.1162 136.492 70.2814 136.517C70.4465 136.542 70.6117 136.56 70.7768 136.577C71.1071 136.613 71.4383 136.641 71.7691 136.646C72.0996 136.654 72.4302 136.63 72.7561 136.573C72.9199 136.547 73.0833 136.512 73.2502 136.489C73.4177 136.468 73.5866 136.461 73.7552 136.468L73.7543 136.512Z" fill="#708CD5"/>
<path d="M67.5821 133.355L66.5561 137.134L66.4356 137.575C66.4054 137.685 66.3538 137.789 66.2837 137.88C66.2135 137.971 66.1263 138.047 66.0269 138.104C65.9274 138.161 65.8178 138.197 65.7042 138.212C65.5907 138.226 65.4754 138.218 65.3649 138.188L58.6431 136.349C58.5326 136.319 58.4291 136.267 58.3385 136.197C58.2479 136.127 58.172 136.039 58.1151 135.939C58.0582 135.84 58.0215 135.73 58.007 135.616C57.9925 135.501 58.0005 135.386 58.0306 135.275L58.7068 132.788L59.1772 131.056C59.2072 130.945 59.2587 130.842 59.3287 130.751C59.3987 130.66 59.4859 130.584 59.5853 130.527C59.6846 130.47 59.7942 130.433 59.9077 130.418C60.0213 130.404 60.1365 130.412 60.247 130.442L66.9701 132.281C67.1931 132.342 67.3827 132.49 67.4975 132.691C67.6122 132.892 67.6427 133.131 67.5821 133.355Z" fill="#ACBFEE"/>
<path d="M61.3611 131.937L61.9575 129.741C61.9763 129.673 62.0083 129.608 62.0519 129.552C62.0955 129.495 62.1497 129.448 62.2115 129.412C62.2733 129.377 62.3414 129.354 62.412 129.345C62.4826 129.336 62.5543 129.341 62.6229 129.36L61.8838 132.08L61.3611 131.937Z" fill="#708CD5"/>
<path d="M64.7703 132.722L65.4742 130.131C65.543 130.15 65.6075 130.182 65.6639 130.226C65.7203 130.269 65.7675 130.324 65.8028 130.386C65.8381 130.448 65.8609 130.517 65.8697 130.588C65.8786 130.659 65.8734 130.731 65.8544 130.8L65.293 132.866L64.7703 132.722Z" fill="#708CD5"/>
<path d="M61.5838 132.618C61.8414 132.618 62.0503 132.409 62.0503 132.15C62.0503 131.892 61.8414 131.682 61.5838 131.682C61.3263 131.682 61.1174 131.892 61.1174 132.15C61.1174 132.409 61.3263 132.618 61.5838 132.618Z" fill="#102048"/>
<path d="M65.0001 133.378C65.2577 133.378 65.4665 133.168 65.4665 132.91C65.4665 132.651 65.2577 132.442 65.0001 132.442C64.7425 132.442 64.5337 132.651 64.5337 132.91C64.5337 133.168 64.7425 133.378 65.0001 133.378Z" fill="#102048"/>
<path opacity="0.15" d="M66.5561 137.135L66.4356 137.575C66.4054 137.686 66.3538 137.789 66.2837 137.88C66.2135 137.971 66.1263 138.047 66.0269 138.104C65.9274 138.161 65.8178 138.198 65.7042 138.212C65.5907 138.227 65.4754 138.218 65.3649 138.188L58.6431 136.349C58.5326 136.319 58.4291 136.268 58.3385 136.197C58.2479 136.127 58.172 136.039 58.1151 135.94C58.0582 135.84 58.0215 135.73 58.007 135.616C57.9925 135.502 58.0005 135.386 58.0306 135.275L58.9284 131.974C58.7016 135.096 63.5509 137.124 66.5561 137.135Z" fill="#102048"/>
<path opacity="0.2" d="M125.117 138.088V142.705L74.6322 162H62.7747V157.559H74.526L74.539 155.112L74.5533 152.659H86.3575V147.76H98.1089V142.983H109.861V138.083L125.117 138.088Z" fill="#ACBFEE"/>
<path d="M97.9817 147.886H86.3921C86.3296 147.886 86.2696 147.861 86.2254 147.817C86.1812 147.773 86.1564 147.712 86.1562 147.65C86.1565 147.587 86.1814 147.527 86.2256 147.483C86.2697 147.438 86.3296 147.413 86.3921 147.413H97.9817C98.0442 147.413 98.104 147.438 98.1482 147.483C98.1924 147.527 98.2173 147.587 98.2175 147.65C98.2174 147.712 98.1925 147.773 98.1483 147.817C98.1041 147.861 98.0442 147.886 97.9817 147.886Z" fill="#ACBFEE"/>
<path d="M109.756 143.174H98.1676C98.1051 143.174 98.0451 143.149 98.0009 143.105C97.9566 143.06 97.9316 143 97.9314 142.938C97.9316 142.875 97.9566 142.815 98.0009 142.77C98.0451 142.726 98.1051 142.701 98.1676 142.701H109.756C109.818 142.701 109.878 142.726 109.922 142.77C109.967 142.815 109.992 142.875 109.992 142.938C109.992 143 109.967 143.06 109.922 143.105C109.878 143.149 109.818 143.174 109.756 143.174Z" fill="#ACBFEE"/>
<path d="M125.124 138.211H109.84C109.777 138.211 109.717 138.186 109.673 138.142C109.629 138.097 109.604 138.037 109.604 137.974C109.604 137.912 109.629 137.852 109.673 137.807C109.717 137.763 109.777 137.738 109.84 137.738H125.124C125.186 137.738 125.246 137.763 125.29 137.807C125.335 137.852 125.359 137.912 125.36 137.974C125.36 138.037 125.335 138.097 125.291 138.142C125.246 138.186 125.186 138.211 125.124 138.211Z" fill="#ACBFEE"/>
<path d="M86.2187 152.758H74.6303C74.5679 152.758 74.508 152.733 74.4638 152.688C74.4197 152.644 74.3948 152.584 74.3945 152.521C74.3948 152.459 74.4197 152.399 74.4638 152.354C74.508 152.31 74.5679 152.285 74.6303 152.285H86.2187C86.2812 152.285 86.341 152.31 86.3852 152.354C86.4294 152.399 86.4543 152.459 86.4545 152.521C86.4543 152.584 86.4294 152.644 86.3852 152.688C86.341 152.733 86.2812 152.758 86.2187 152.758Z" fill="#ACBFEE"/>
<path d="M74.414 157.658H62.8239C62.7614 157.657 62.7015 157.632 62.6573 157.588C62.6131 157.544 62.5882 157.484 62.5881 157.421C62.5881 157.358 62.613 157.298 62.6572 157.253C62.7014 157.209 62.7614 157.184 62.8239 157.184H74.414C74.4766 157.184 74.5365 157.209 74.5807 157.254C74.6249 157.298 74.6497 157.358 74.6498 157.421C74.6496 157.484 74.6247 157.544 74.5805 157.588C74.5363 157.632 74.4765 157.657 74.414 157.658Z" fill="#ACBFEE"/>
<path d="M87.3556 131.621L87.291 130.89L88.4527 130.787C91.3944 130.531 94.194 129.404 96.4958 127.548C98.7977 125.692 100.498 123.192 101.38 120.364L102.867 115.634L103.564 115.854L102.078 120.585C101.152 123.551 99.3684 126.174 96.9536 128.121C94.5388 130.068 91.6019 131.25 88.516 131.518L87.3556 131.621Z" fill="#DEE5F8"/>
<path d="M103.235 120.121L102.917 116.639L100.558 119.382L100.004 118.903L103.488 114.852L103.963 120.054L103.235 120.121Z" fill="#DEE5F8"/>
<path d="M76.1891 106.235C76.186 106.367 76.1384 106.493 76.0543 106.594H62.8027C62.7517 106.481 62.7252 106.359 62.7251 106.235C62.7251 105.568 63.4975 105.027 64.4503 105.027C64.7345 105.026 65.0165 105.078 65.2821 105.179C65.4122 104.232 66.7061 103.487 68.283 103.487C69.9272 103.487 71.2631 104.295 71.2952 105.299C71.8106 105.13 72.4699 105.029 73.1869 105.029C74.8457 105.027 76.1891 105.568 76.1891 106.235Z" fill="#DEE5F8"/>
<path d="M99.2853 97.2902C99.2814 97.4477 99.2244 97.5992 99.1236 97.72H83.2639C83.2027 97.585 83.171 97.4385 83.1707 97.2902C83.1707 96.4916 84.0952 95.8448 85.2361 95.8448C85.5767 95.8428 85.9146 95.9038 86.2331 96.0249C86.3883 94.8909 87.9371 94 89.8244 94C91.7919 94 93.391 94.967 93.4291 96.1684C94.0464 95.9666 94.8353 95.8448 95.6936 95.8448C97.6776 95.8448 99.2853 96.4916 99.2853 97.2902Z" fill="#DEE5F8"/>
</g>
<path d="M136.62 69.0183H234.734C235.792 69.0183 236.807 69.4388 237.556 70.1873C238.304 70.9358 238.725 71.9509 238.725 73.0095V186.123C238.725 187.181 238.304 188.197 237.556 188.945C236.807 189.693 235.792 190.114 234.734 190.114H136.623C136.596 190.114 136.57 190.103 136.551 190.084C136.532 190.065 136.521 190.04 136.521 190.013V69.1209C136.521 69.0941 136.532 69.0684 136.551 69.0494C136.57 69.0304 136.596 69.0197 136.623 69.0197L136.62 69.0183Z" fill="white"/>
<path d="M223.303 162.208H152.027C150.532 162.208 149.32 163.419 149.32 164.914V172.133C149.32 173.628 150.532 174.839 152.027 174.839H223.303C224.798 174.839 226.01 173.628 226.01 172.133V164.914C226.01 163.419 224.798 162.208 223.303 162.208Z" fill="#456DB4"/>
<path d="M182.501 169.65L181.673 168.469H181.423V169.65H180.996V166.809H181.967C182.197 166.8 182.421 166.881 182.592 167.035C182.674 167.113 182.739 167.208 182.781 167.313C182.823 167.418 182.842 167.531 182.836 167.644C182.843 167.839 182.778 168.03 182.654 168.18C182.532 168.326 182.361 168.422 182.173 168.452L183.028 169.65H182.501ZM181.423 167.201V168.065H181.902C182.033 168.075 182.162 168.035 182.263 167.952C182.304 167.911 182.336 167.862 182.358 167.808C182.379 167.754 182.388 167.696 182.386 167.638C182.388 167.58 182.379 167.522 182.358 167.467C182.337 167.413 182.304 167.363 182.263 167.322C182.214 167.278 182.157 167.245 182.095 167.224C182.033 167.203 181.968 167.195 181.902 167.201H181.423ZM184.036 167.708C184.159 167.701 184.283 167.722 184.397 167.769C184.511 167.816 184.613 167.889 184.695 167.98C184.863 168.184 184.949 168.444 184.934 168.707V168.772H183.48C183.483 168.922 183.542 169.066 183.647 169.174C183.757 169.272 183.902 169.323 184.049 169.316C184.163 169.311 184.275 169.279 184.374 169.222C184.473 169.165 184.558 169.085 184.619 168.988L184.904 169.252C184.811 169.393 184.684 169.507 184.534 169.585C184.385 169.663 184.218 169.702 184.049 169.698C183.918 169.704 183.787 169.683 183.664 169.636C183.542 169.589 183.43 169.518 183.336 169.426C183.247 169.329 183.177 169.215 183.132 169.091C183.087 168.967 183.067 168.835 183.073 168.703C183.064 168.442 183.155 168.187 183.328 167.99C183.418 167.896 183.528 167.823 183.649 167.775C183.77 167.728 183.9 167.707 184.031 167.714L184.036 167.708ZM184.012 168.073C183.89 168.068 183.77 168.106 183.671 168.179C183.578 168.255 183.517 168.364 183.5 168.484H184.498C184.498 168.426 184.485 168.369 184.46 168.318C184.435 168.266 184.4 168.22 184.356 168.183C184.256 168.107 184.131 168.07 184.006 168.079L184.012 168.073ZM186.244 170.518C186.001 170.511 185.759 170.483 185.522 170.432L185.599 170.046C185.81 170.098 186.027 170.126 186.244 170.131C186.312 170.139 186.38 170.132 186.445 170.112C186.51 170.092 186.57 170.059 186.622 170.015C186.709 169.89 186.748 169.738 186.73 169.587V169.365C186.667 169.474 186.573 169.564 186.461 169.624C186.349 169.683 186.223 169.71 186.096 169.701C185.975 169.704 185.854 169.681 185.743 169.634C185.631 169.587 185.53 169.517 185.447 169.429C185.277 169.225 185.184 168.968 185.184 168.702C185.184 168.437 185.277 168.18 185.447 167.976C185.53 167.888 185.631 167.818 185.743 167.771C185.854 167.724 185.975 167.701 186.096 167.704C186.223 167.695 186.349 167.722 186.461 167.781C186.573 167.841 186.667 167.931 186.73 168.04V167.771H187.129V169.645C187.129 169.798 187.102 169.949 187.051 170.093C187.014 170.199 186.947 170.293 186.857 170.361C186.776 170.419 186.683 170.461 186.585 170.482C186.472 170.51 186.355 170.524 186.239 170.523L186.244 170.518ZM185.757 169.149C185.87 169.256 186.019 169.316 186.175 169.316C186.331 169.316 186.48 169.256 186.593 169.149C186.702 169.028 186.758 168.87 186.752 168.707C186.759 168.546 186.702 168.388 186.593 168.268C186.482 168.159 186.332 168.097 186.175 168.097C186.019 168.097 185.868 168.159 185.757 168.268C185.648 168.388 185.591 168.546 185.599 168.707C185.589 168.871 185.643 169.032 185.751 169.155L185.757 169.149ZM188.08 166.843V167.343H187.593V166.856L188.08 166.843ZM187.637 169.644V167.771H188.036V169.645L187.637 169.644ZM189.062 169.705C188.794 169.709 188.53 169.641 188.298 169.507L188.478 169.154C188.657 169.264 188.863 169.326 189.074 169.332C189.269 169.332 189.359 169.273 189.359 169.158C189.359 169.082 189.293 169.015 189.161 168.947L188.82 168.78C188.556 168.655 188.424 168.475 188.425 168.24C188.421 168.165 188.434 168.09 188.465 168.022C188.495 167.953 188.542 167.893 188.6 167.846C188.743 167.745 188.916 167.695 189.091 167.704C189.315 167.705 189.537 167.753 189.741 167.846L189.578 168.191C189.421 168.119 189.252 168.078 189.079 168.07C188.925 168.07 188.848 168.117 188.848 168.213C188.847 168.256 188.863 168.298 188.893 168.33C188.943 168.374 189.001 168.41 189.064 168.435L189.413 168.602C189.521 168.642 189.615 168.713 189.682 168.808C189.748 168.902 189.785 169.014 189.786 169.129C189.791 169.212 189.775 169.294 189.74 169.368C189.705 169.443 189.653 169.508 189.587 169.557C189.431 169.663 189.245 169.717 189.057 169.711L189.062 169.705ZM191.049 168.106H190.667V169.088C190.663 169.115 190.666 169.142 190.674 169.167C190.683 169.192 190.697 169.216 190.716 169.235C190.735 169.253 190.758 169.268 190.784 169.276C190.809 169.285 190.836 169.287 190.863 169.283H190.959V169.648H190.777C190.639 169.658 190.504 169.613 190.399 169.523C190.354 169.475 190.319 169.419 190.297 169.357C190.275 169.296 190.265 169.23 190.27 169.165V168.106H189.936V167.771H190.261V167.02H190.659V167.771H191.041L191.049 168.106ZM192.128 167.708C192.251 167.701 192.375 167.722 192.489 167.769C192.603 167.816 192.705 167.889 192.787 167.98C192.955 168.184 193.041 168.444 193.026 168.707V168.772H191.572C191.575 168.922 191.634 169.066 191.739 169.174C191.849 169.272 191.994 169.323 192.141 169.316C192.256 169.312 192.368 169.28 192.467 169.223C192.566 169.166 192.65 169.085 192.711 168.988L192.996 169.252C192.903 169.393 192.776 169.507 192.626 169.585C192.477 169.663 192.31 169.702 192.141 169.698C192.01 169.704 191.879 169.683 191.756 169.636C191.634 169.589 191.522 169.518 191.428 169.426C191.339 169.329 191.269 169.215 191.224 169.091C191.179 168.967 191.159 168.835 191.165 168.703C191.156 168.441 191.248 168.186 191.421 167.99C191.511 167.896 191.621 167.823 191.742 167.775C191.863 167.728 191.993 167.707 192.123 167.714L192.128 167.708ZM192.104 168.073C191.982 168.069 191.862 168.106 191.763 168.179C191.671 168.256 191.61 168.364 191.592 168.484H192.59C192.59 168.426 192.577 168.369 192.552 168.318C192.527 168.266 192.492 168.22 192.448 168.183C192.348 168.107 192.224 168.07 192.098 168.079L192.104 168.073ZM194.446 167.712V168.179H194.385C194.304 168.172 194.222 168.183 194.146 168.209C194.069 168.236 193.998 168.278 193.939 168.333C193.883 168.399 193.841 168.475 193.815 168.558C193.789 168.64 193.78 168.727 193.787 168.813V169.644H193.39V167.771H193.787V168.18H193.796C193.836 168.046 193.915 167.927 194.024 167.839C194.137 167.754 194.276 167.709 194.418 167.714L194.446 167.712Z" fill="white"/>
<path d="M223.356 105.479H152.08C150.647 105.479 149.486 106.64 149.486 108.073V114.84C149.486 116.272 150.647 117.434 152.08 117.434H223.356C224.789 117.434 225.95 116.272 225.95 114.84V108.073C225.95 106.64 224.789 105.479 223.356 105.479Z" fill="white" stroke="#DADCE3"/>
<path d="M153.699 112.323H154.854V112.585H153.428V110.058H154.844V110.327H153.703V111.053H154.75V111.312H153.703L153.699 112.323ZM156.01 111.484V111.744H155.082V111.484H156.01ZM156.402 112.585V110.917H156.661V111.216H156.67C156.704 111.107 156.775 111.013 156.87 110.949C156.965 110.885 157.078 110.854 157.193 110.863C157.31 110.857 157.426 110.89 157.522 110.957C157.618 111.024 157.689 111.122 157.723 111.234C157.761 111.119 157.838 111.021 157.94 110.957C158.04 110.894 158.156 110.861 158.275 110.863C158.351 110.86 158.427 110.872 158.499 110.901C158.57 110.93 158.634 110.973 158.687 111.028C158.804 111.172 158.861 111.356 158.845 111.541V112.583H158.585V111.549C158.585 111.264 158.458 111.121 158.203 111.121C158.141 111.118 158.078 111.129 158.021 111.154C157.963 111.179 157.912 111.216 157.871 111.264C157.781 111.394 157.738 111.553 157.752 111.711V112.581H157.492V111.596C157.492 111.278 157.362 111.12 157.102 111.12C157.038 111.117 156.975 111.13 156.918 111.157C156.861 111.184 156.812 111.224 156.774 111.275C156.683 111.415 156.641 111.582 156.654 111.748V112.581L156.402 112.585ZM160.006 112.639C159.897 112.642 159.787 112.622 159.686 112.58C159.584 112.539 159.492 112.477 159.415 112.398C159.263 112.217 159.18 111.988 159.18 111.752C159.18 111.515 159.263 111.286 159.415 111.105C159.492 111.027 159.584 110.964 159.686 110.923C159.787 110.882 159.897 110.862 160.006 110.864C160.134 110.856 160.261 110.885 160.373 110.947C160.485 111.009 160.577 111.101 160.638 111.214V110.919H160.897V112.585H160.638V112.29C160.577 112.402 160.485 112.495 160.373 112.556C160.261 112.618 160.134 112.646 160.006 112.638V112.639ZM159.62 112.211C159.737 112.325 159.894 112.388 160.057 112.388C160.22 112.388 160.377 112.325 160.494 112.211C160.6 112.084 160.658 111.923 160.658 111.757C160.658 111.591 160.6 111.43 160.494 111.302C160.377 111.188 160.22 111.124 160.057 111.124C159.894 111.124 159.737 111.188 159.62 111.302C159.514 111.43 159.456 111.591 159.456 111.757C159.456 111.923 159.514 112.084 159.62 112.211ZM161.657 110.099V110.527H161.325V110.099H161.657ZM161.363 112.589V110.917H161.624V112.583L161.363 112.589ZM162.361 110.063V112.589H162.1V110.058L162.361 110.063Z" fill="#838799"/>
<path d="M223.808 124.426H151.628C150.445 124.426 149.486 125.385 149.486 126.568V134.238C149.486 135.422 150.445 136.381 151.628 136.381H223.808C224.991 136.381 225.95 135.422 225.95 134.238V126.568C225.95 125.385 224.991 124.426 223.808 124.426Z" fill="white" stroke="#DADCE3"/>
<path d="M154.273 129C154.422 128.999 154.568 129.042 154.693 129.124C154.817 129.205 154.915 129.321 154.974 129.458C155.033 129.595 155.051 129.746 155.025 129.892C154.999 130.039 154.93 130.175 154.828 130.283C154.755 130.354 154.668 130.409 154.573 130.445C154.477 130.481 154.375 130.497 154.273 130.492H153.703V131.528H153.418V129H154.273ZM154.244 130.227C154.374 130.234 154.502 130.19 154.601 130.104C154.647 130.058 154.683 130.001 154.706 129.94C154.729 129.878 154.739 129.812 154.735 129.747C154.74 129.681 154.73 129.615 154.707 129.554C154.684 129.493 154.648 129.437 154.601 129.39C154.503 129.303 154.375 129.257 154.244 129.263H153.699V130.227H154.244ZM155.894 131.581C155.784 131.584 155.674 131.564 155.572 131.522C155.47 131.48 155.378 131.418 155.301 131.339C155.15 131.158 155.068 130.929 155.068 130.693C155.068 130.457 155.15 130.229 155.301 130.047C155.378 129.968 155.47 129.906 155.572 129.864C155.674 129.822 155.784 129.802 155.894 129.805C156.022 129.797 156.149 129.826 156.261 129.888C156.373 129.95 156.465 130.043 156.526 130.156H156.533V129.859H156.792V131.527H156.533V131.231H156.526C156.465 131.344 156.374 131.438 156.262 131.501C156.15 131.564 156.022 131.593 155.894 131.585V131.581ZM155.508 131.154C155.625 131.267 155.781 131.33 155.944 131.33C156.107 131.33 156.263 131.267 156.38 131.154C156.488 131.027 156.547 130.865 156.547 130.699C156.547 130.532 156.488 130.371 156.38 130.244C156.263 130.131 156.107 130.068 155.944 130.068C155.781 130.068 155.625 130.131 155.508 130.244C155.4 130.371 155.341 130.532 155.341 130.699C155.341 130.865 155.4 131.027 155.508 131.154ZM157.774 131.581C157.531 131.584 157.291 131.516 157.086 131.386L157.211 131.155C157.38 131.269 157.578 131.332 157.781 131.335C157.868 131.341 157.955 131.321 158.031 131.278C158.057 131.259 158.078 131.235 158.092 131.206C158.107 131.178 158.114 131.147 158.114 131.115C158.114 131.018 158.038 130.935 157.885 130.866L157.576 130.723C157.335 130.612 157.214 130.457 157.214 130.257C157.211 130.193 157.223 130.13 157.251 130.072C157.278 130.014 157.318 129.963 157.369 129.925C157.493 129.842 157.64 129.802 157.789 129.809C157.986 129.81 158.18 129.855 158.359 129.939L158.246 130.17C158.104 130.098 157.948 130.059 157.789 130.055C157.596 130.055 157.503 130.119 157.503 130.246C157.503 130.272 157.507 130.298 157.516 130.322C157.526 130.347 157.54 130.369 157.558 130.388C157.612 130.437 157.674 130.476 157.741 130.504L158.045 130.646C158.146 130.691 158.236 130.756 158.309 130.839C158.374 130.916 158.407 131.014 158.403 131.115C158.407 131.184 158.394 131.253 158.365 131.315C158.335 131.377 158.291 131.432 158.236 131.473C158.098 131.559 157.936 131.598 157.774 131.585V131.581ZM159.241 131.581C158.997 131.584 158.757 131.516 158.551 131.386L158.678 131.155C158.846 131.269 159.045 131.332 159.248 131.335C159.335 131.341 159.422 131.321 159.498 131.278C159.524 131.259 159.545 131.235 159.559 131.207C159.574 131.178 159.581 131.147 159.58 131.115C159.58 131.018 159.505 130.935 159.354 130.866L159.043 130.723C158.802 130.612 158.682 130.457 158.682 130.257C158.679 130.193 158.691 130.129 158.718 130.071C158.745 130.013 158.786 129.963 158.838 129.925C158.961 129.842 159.107 129.801 159.255 129.809C159.453 129.81 159.647 129.855 159.825 129.939L159.714 130.17C159.572 130.098 159.415 130.059 159.255 130.055C159.063 130.055 158.97 130.119 158.97 130.246C158.969 130.272 158.974 130.298 158.983 130.322C158.992 130.347 159.006 130.369 159.024 130.388C159.079 130.437 159.141 130.476 159.208 130.504L159.512 130.646C159.612 130.691 159.702 130.756 159.774 130.839C159.839 130.916 159.872 131.014 159.868 131.115C159.872 131.184 159.86 131.252 159.831 131.315C159.802 131.377 159.758 131.432 159.703 131.473C159.565 131.558 159.403 131.598 159.241 131.585V131.581ZM162.194 129.859H162.48L161.909 131.527H161.66L161.198 130.199L160.736 131.527H160.491L159.921 129.859H160.206L160.609 131.195L161.061 129.859H161.325L161.775 131.195L162.194 129.859ZM163.435 129.805C163.554 129.801 163.672 129.821 163.783 129.865C163.894 129.908 163.995 129.974 164.08 130.057C164.165 130.14 164.231 130.239 164.275 130.348C164.319 130.458 164.34 130.575 164.335 130.693C164.339 130.811 164.319 130.929 164.275 131.039C164.231 131.149 164.165 131.249 164.08 131.332C163.903 131.492 163.673 131.581 163.434 131.581C163.195 131.581 162.964 131.492 162.787 131.332C162.703 131.249 162.637 131.149 162.593 131.039C162.549 130.929 162.528 130.811 162.532 130.693C162.528 130.575 162.549 130.458 162.593 130.348C162.637 130.239 162.703 130.14 162.787 130.057C162.873 129.975 162.974 129.91 163.086 129.867C163.197 129.825 163.316 129.805 163.435 129.809V129.805ZM163.885 130.233C163.797 130.142 163.683 130.08 163.558 130.055C163.434 130.03 163.305 130.043 163.188 130.092C163.071 130.142 162.972 130.226 162.904 130.333C162.836 130.44 162.802 130.565 162.806 130.692C162.802 130.776 162.816 130.86 162.846 130.939C162.877 131.018 162.923 131.089 162.983 131.149C163.106 131.261 163.267 131.323 163.434 131.323C163.601 131.323 163.761 131.261 163.885 131.149C163.999 131.024 164.062 130.86 164.062 130.691C164.062 130.522 163.999 130.358 163.885 130.233ZM165.547 129.805V130.104H165.496C165.419 130.099 165.343 130.112 165.272 130.14C165.201 130.169 165.137 130.213 165.085 130.27C164.982 130.404 164.932 130.57 164.943 130.739V131.523H164.683V129.855H164.943V130.23C164.975 130.109 165.044 130.002 165.141 129.923C165.241 129.844 165.366 129.802 165.494 129.805H165.547ZM166.421 131.577C166.311 131.58 166.201 131.56 166.1 131.518C165.998 131.476 165.906 131.414 165.829 131.335C165.676 131.154 165.592 130.925 165.592 130.689C165.592 130.452 165.676 130.223 165.829 130.043C165.906 129.964 165.998 129.901 166.099 129.859C166.201 129.818 166.311 129.798 166.421 129.801C166.549 129.793 166.676 129.821 166.788 129.884C166.9 129.946 166.992 130.039 167.052 130.151V129H167.312V131.527H167.052V131.231C166.992 131.344 166.901 131.438 166.789 131.501C166.677 131.564 166.549 131.593 166.421 131.585V131.577ZM166.035 131.149C166.152 131.263 166.308 131.326 166.471 131.326C166.634 131.326 166.791 131.263 166.908 131.149C167.014 131.021 167.072 130.861 167.072 130.695C167.072 130.529 167.014 130.368 166.908 130.24C166.791 130.127 166.634 130.063 166.471 130.063C166.308 130.063 166.152 130.127 166.035 130.24C165.929 130.368 165.871 130.529 165.871 130.695C165.871 130.861 165.929 131.021 166.035 131.149Z" fill="#838799"/>
<path d="M221.423 130.402C221.423 130.063 220.71 129.654 219.918 129.651C219.125 129.648 218.415 130.06 218.415 130.402C218.415 130.744 219.128 131.156 219.919 131.155C220.71 131.153 221.423 130.746 221.423 130.402ZM219.919 131.531C218.971 131.531 218.041 131.027 218.041 130.402C218.041 129.778 218.977 129.272 219.919 129.275C220.861 129.278 221.799 129.779 221.799 130.402C221.799 131.025 220.867 131.53 219.919 131.531ZM219.919 131.155C219.745 131.155 219.575 131.095 219.44 130.985C219.305 130.874 219.213 130.72 219.178 130.549C219.144 130.378 219.17 130.2 219.252 130.046C219.334 129.892 219.467 129.771 219.628 129.704C219.789 129.637 219.969 129.628 220.136 129.679C220.303 129.729 220.447 129.836 220.544 129.981C220.641 130.126 220.685 130.301 220.668 130.474C220.651 130.648 220.574 130.81 220.451 130.934C220.31 131.075 220.119 131.155 219.919 131.155ZM219.919 130.778C219.97 130.782 220.022 130.774 220.07 130.757C220.118 130.739 220.163 130.712 220.2 130.677C220.238 130.642 220.267 130.599 220.288 130.552C220.308 130.505 220.319 130.454 220.319 130.403C220.319 130.352 220.308 130.301 220.288 130.254C220.267 130.206 220.238 130.164 220.2 130.129C220.163 130.094 220.118 130.066 220.07 130.049C220.022 130.031 219.97 130.024 219.919 130.027C219.824 130.033 219.734 130.075 219.668 130.145C219.603 130.215 219.566 130.307 219.566 130.403C219.566 130.499 219.603 130.591 219.668 130.661C219.734 130.73 219.824 130.773 219.919 130.778Z" fill="#DADCE3"/>
<path d="M223.356 143.372H152.08C150.647 143.372 149.486 144.534 149.486 145.966V152.733C149.486 154.165 150.647 155.327 152.08 155.327H223.356C224.789 155.327 225.95 154.165 225.95 152.733V145.966C225.95 144.534 224.789 143.372 223.356 143.372Z" fill="white" stroke="#DADCE3"/>
<path d="M154.806 150.478L154.056 149.392H153.699V150.478H153.414V147.958H154.255C154.456 147.948 154.654 148.017 154.806 148.149C154.88 148.215 154.937 148.298 154.974 148.389C155.012 148.481 155.028 148.58 155.023 148.679C155.03 148.859 154.967 149.035 154.846 149.169C154.723 149.297 154.558 149.376 154.381 149.39L155.15 150.483L154.806 150.478ZM153.699 148.214V149.128H154.226C154.362 149.137 154.496 149.093 154.601 149.005C154.684 148.914 154.731 148.795 154.731 148.672C154.731 148.548 154.684 148.429 154.601 148.338C154.497 148.25 154.362 148.205 154.226 148.214H153.699ZM156.069 148.756C156.181 148.748 156.292 148.767 156.396 148.809C156.499 148.852 156.591 148.917 156.665 149.001C156.808 149.18 156.881 149.405 156.87 149.634V149.68H155.48C155.478 149.76 155.492 149.84 155.521 149.916C155.55 149.991 155.594 150.059 155.65 150.117C155.707 150.171 155.774 150.214 155.847 150.242C155.921 150.269 155.999 150.282 156.078 150.28C156.168 150.281 156.257 150.262 156.34 150.225C156.406 150.197 156.468 150.158 156.521 150.11C156.566 150.065 156.608 150.017 156.648 149.967L156.835 150.137C156.753 150.262 156.641 150.365 156.509 150.435C156.377 150.505 156.23 150.54 156.081 150.538C155.964 150.543 155.848 150.524 155.74 150.482C155.631 150.441 155.532 150.377 155.449 150.295C155.369 150.209 155.308 150.108 155.267 149.998C155.227 149.888 155.209 149.771 155.214 149.654C155.204 149.416 155.286 149.184 155.445 149.007C155.525 148.923 155.622 148.858 155.73 148.814C155.838 148.771 155.953 148.751 156.069 148.756ZM156.055 148.998C155.917 148.994 155.783 149.039 155.676 149.125C155.572 149.216 155.507 149.344 155.496 149.481H156.589C156.586 149.346 156.529 149.218 156.431 149.125C156.326 149.034 156.189 148.989 156.051 148.998H156.055ZM157.219 151.199V148.813H157.476V149.109C157.537 148.997 157.628 148.904 157.74 148.841C157.852 148.779 157.98 148.751 158.107 148.759C158.217 148.756 158.326 148.776 158.427 148.818C158.529 148.859 158.62 148.922 158.696 149.001C158.849 149.181 158.933 149.41 158.933 149.647C158.933 149.883 158.849 150.112 158.696 150.292C158.62 150.372 158.529 150.434 158.427 150.476C158.326 150.518 158.217 150.538 158.107 150.535C157.98 150.543 157.852 150.514 157.74 150.452C157.628 150.39 157.537 150.297 157.476 150.184V151.202L157.219 151.199ZM157.63 150.099C157.747 150.212 157.904 150.275 158.067 150.275C158.23 150.275 158.386 150.212 158.504 150.099C158.611 149.972 158.671 149.81 158.671 149.644C158.671 149.477 158.611 149.316 158.504 149.189C158.386 149.076 158.23 149.013 158.067 149.013C157.904 149.013 157.747 149.076 157.63 149.189C157.524 149.317 157.466 149.478 157.466 149.644C157.466 149.81 157.524 149.971 157.63 150.099ZM160.025 148.756C160.136 148.748 160.247 148.767 160.35 148.809C160.453 148.852 160.545 148.917 160.619 149.001C160.763 149.18 160.836 149.405 160.826 149.634V149.68H159.44C159.436 149.759 159.448 149.839 159.477 149.914C159.506 149.989 159.549 150.056 159.606 150.113C159.662 150.17 159.73 150.214 159.805 150.242C159.879 150.271 159.959 150.284 160.039 150.28C160.13 150.28 160.219 150.262 160.303 150.225C160.368 150.197 160.429 150.158 160.482 150.11C160.527 150.065 160.57 150.017 160.609 149.967L160.797 150.137C160.715 150.262 160.603 150.364 160.471 150.434C160.339 150.504 160.191 150.54 160.042 150.538C159.926 150.542 159.81 150.523 159.701 150.482C159.592 150.44 159.494 150.377 159.41 150.295C159.331 150.209 159.269 150.108 159.229 149.998C159.189 149.888 159.171 149.771 159.177 149.654C159.166 149.416 159.249 149.184 159.407 149.007C159.487 148.924 159.583 148.859 159.689 148.816C159.796 148.772 159.91 148.752 160.025 148.756ZM160.01 148.998C159.873 148.993 159.738 149.038 159.631 149.125C159.527 149.216 159.462 149.344 159.45 149.481H160.543C160.542 149.414 160.527 149.349 160.5 149.287C160.473 149.226 160.434 149.171 160.385 149.125C160.282 149.036 160.147 148.99 160.01 148.998ZM161.885 150.532C161.775 150.535 161.665 150.514 161.563 150.473C161.461 150.431 161.369 150.369 161.292 150.29C161.141 150.108 161.058 149.88 161.058 149.644C161.058 149.408 161.141 149.18 161.292 148.998C161.369 148.919 161.461 148.857 161.563 148.815C161.665 148.773 161.775 148.753 161.885 148.756C162.013 148.748 162.14 148.776 162.252 148.839C162.364 148.901 162.456 148.994 162.516 149.107H162.523V148.813H162.783V150.481H162.523V150.184H162.516C162.455 150.296 162.363 150.389 162.251 150.45C162.139 150.512 162.012 150.54 161.885 150.532ZM161.498 150.104C161.616 150.218 161.772 150.281 161.935 150.281C162.098 150.281 162.255 150.218 162.372 150.104C162.478 149.976 162.536 149.816 162.536 149.65C162.536 149.484 162.478 149.323 162.372 149.195C162.255 149.082 162.098 149.018 161.935 149.018C161.772 149.018 161.616 149.082 161.498 149.195C161.391 149.322 161.332 149.483 161.332 149.65C161.332 149.816 161.391 149.977 161.498 150.104ZM164.026 149.04H163.658V150.024C163.658 150.167 163.728 150.245 163.866 150.245H163.957V150.486H163.815C163.702 150.493 163.59 150.456 163.504 150.382C163.465 150.342 163.434 150.294 163.415 150.241C163.395 150.188 163.387 150.132 163.391 150.076V149.04H163.071V148.813H163.391V148.146H163.652V148.813H164.033L164.026 149.04ZM165.417 151.205V148.813H165.676V149.109C165.737 148.997 165.829 148.904 165.941 148.841C166.053 148.779 166.18 148.751 166.308 148.759C166.417 148.756 166.526 148.776 166.628 148.818C166.729 148.859 166.821 148.922 166.897 149.001C167.05 149.181 167.134 149.41 167.134 149.647C167.134 149.883 167.05 150.112 166.897 150.292C166.821 150.372 166.729 150.434 166.628 150.476C166.526 150.518 166.417 150.538 166.308 150.535C166.18 150.543 166.053 150.514 165.941 150.452C165.829 150.39 165.737 150.297 165.676 150.184V151.202L165.417 151.205ZM165.829 150.104C165.946 150.218 166.102 150.281 166.265 150.281C166.428 150.281 166.584 150.218 166.701 150.104C166.809 149.977 166.868 149.816 166.868 149.65C166.868 149.483 166.809 149.322 166.701 149.195C166.584 149.082 166.428 149.018 166.265 149.018C166.102 149.018 165.946 149.082 165.829 149.195C165.721 149.322 165.662 149.483 165.662 149.65C165.662 149.816 165.721 149.977 165.829 150.104ZM168.199 150.532C168.089 150.534 167.98 150.514 167.878 150.472C167.777 150.431 167.684 150.369 167.608 150.29C167.457 150.108 167.374 149.88 167.374 149.644C167.374 149.408 167.457 149.18 167.608 148.998C167.684 148.919 167.777 148.857 167.878 148.815C167.98 148.774 168.089 148.753 168.199 148.756C168.327 148.748 168.455 148.776 168.567 148.838C168.679 148.901 168.771 148.994 168.832 149.107V148.813H169.092V150.481H168.832V150.184C168.771 150.297 168.679 150.389 168.567 150.451C168.455 150.512 168.327 150.54 168.199 150.532ZM167.814 150.104C167.931 150.218 168.088 150.281 168.251 150.281C168.413 150.281 168.57 150.218 168.687 150.104C168.795 149.977 168.854 149.816 168.854 149.65C168.854 149.483 168.795 149.322 168.687 149.195C168.57 149.082 168.413 149.018 168.251 149.018C168.088 149.018 167.931 149.082 167.814 149.195C167.707 149.322 167.648 149.483 167.648 149.65C167.648 149.816 167.707 149.977 167.814 150.104ZM170.081 150.532C169.837 150.535 169.598 150.467 169.392 150.337L169.518 150.106C169.686 150.221 169.884 150.284 170.088 150.287C170.175 150.293 170.262 150.272 170.337 150.228C170.364 150.21 170.385 150.186 170.399 150.157C170.414 150.129 170.421 150.098 170.42 150.066C170.42 149.97 170.345 149.888 170.192 149.818L169.883 149.675C169.642 149.564 169.521 149.409 169.521 149.209C169.518 149.145 169.53 149.082 169.557 149.024C169.584 148.966 169.625 148.916 169.676 148.877C169.8 148.794 169.947 148.754 170.095 148.762C170.292 148.763 170.487 148.807 170.665 148.891L170.554 149.122C170.411 149.051 170.255 149.011 170.095 149.007C169.903 149.007 169.81 149.071 169.81 149.199C169.809 149.225 169.813 149.251 169.823 149.276C169.832 149.3 169.846 149.323 169.864 149.342C169.919 149.391 169.982 149.43 170.05 149.457L170.352 149.6C170.453 149.643 170.543 149.708 170.615 149.791C170.682 149.87 170.716 149.972 170.709 150.076C170.713 150.144 170.7 150.213 170.671 150.275C170.642 150.337 170.598 150.391 170.543 150.432C170.403 150.513 170.242 150.548 170.081 150.532ZM171.548 150.532C171.304 150.535 171.064 150.467 170.858 150.337L170.985 150.106C171.153 150.221 171.351 150.284 171.555 150.287C171.641 150.292 171.728 150.272 171.803 150.228C171.829 150.21 171.85 150.186 171.865 150.158C171.879 150.129 171.886 150.098 171.885 150.066C171.885 149.971 171.81 149.888 171.659 149.818L171.348 149.675C171.107 149.564 170.987 149.409 170.987 149.209C170.984 149.145 170.996 149.082 171.023 149.024C171.05 148.966 171.092 148.915 171.143 148.877C171.266 148.794 171.413 148.753 171.562 148.762C171.759 148.763 171.954 148.808 172.132 148.891L172.019 149.122C171.877 149.051 171.721 149.011 171.562 149.007C171.368 149.007 171.277 149.071 171.277 149.199C171.276 149.225 171.28 149.251 171.289 149.276C171.299 149.3 171.313 149.323 171.331 149.342C171.385 149.39 171.447 149.429 171.515 149.457L171.818 149.6C171.919 149.644 172.009 149.709 172.082 149.791C172.148 149.871 172.181 149.973 172.175 150.076C172.179 150.144 172.165 150.212 172.137 150.275C172.108 150.337 172.064 150.391 172.009 150.432C171.87 150.513 171.708 150.548 171.548 150.532ZM174.501 148.81H174.786L174.216 150.478H173.967L173.505 149.149L173.043 150.478H172.798L172.228 148.81H172.513L172.916 150.146L173.368 148.81H173.632L174.082 150.146L174.501 148.81ZM175.74 148.756C175.859 148.752 175.978 148.772 176.089 148.815C176.201 148.859 176.302 148.924 176.387 149.008C176.551 149.18 176.642 149.408 176.642 149.645C176.642 149.883 176.551 150.111 176.387 150.282C176.21 150.443 175.979 150.532 175.74 150.532C175.501 150.532 175.271 150.443 175.094 150.282C174.93 150.111 174.839 149.883 174.839 149.645C174.839 149.408 174.93 149.18 175.094 149.008C175.179 148.925 175.28 148.859 175.391 148.816C175.502 148.773 175.621 148.752 175.74 148.756ZM176.192 149.183C176.068 149.072 175.907 149.01 175.74 149.01C175.574 149.01 175.413 149.072 175.289 149.183C175.176 149.309 175.113 149.472 175.113 149.642C175.113 149.811 175.176 149.974 175.289 150.1C175.378 150.191 175.492 150.253 175.616 150.278C175.74 150.303 175.869 150.29 175.986 150.24C176.103 150.191 176.202 150.107 176.27 150C176.338 149.893 176.373 149.768 176.368 149.641C176.372 149.557 176.358 149.474 176.327 149.395C176.297 149.317 176.251 149.246 176.192 149.186V149.183ZM177.854 148.756V149.055H177.802C177.726 149.05 177.649 149.063 177.578 149.092C177.507 149.12 177.444 149.164 177.392 149.221C177.289 149.355 177.238 149.522 177.249 149.691V150.473H176.99V148.813H177.249V149.189C177.281 149.068 177.35 148.96 177.447 148.881C177.548 148.802 177.673 148.76 177.801 148.763L177.854 148.756ZM178.727 150.528C178.617 150.53 178.508 150.51 178.406 150.468C178.305 150.427 178.212 150.364 178.136 150.285C177.983 150.105 177.899 149.876 177.899 149.64C177.899 149.403 177.983 149.174 178.136 148.994C178.212 148.915 178.305 148.853 178.406 148.811C178.508 148.769 178.617 148.749 178.727 148.752C178.855 148.743 178.983 148.772 179.095 148.834C179.207 148.896 179.298 148.989 179.359 149.102V147.958H179.618V150.483H179.359V150.187C179.297 150.299 179.205 150.391 179.094 150.452C178.982 150.513 178.855 150.541 178.727 150.532V150.528ZM178.341 150.1C178.458 150.213 178.615 150.277 178.778 150.277C178.941 150.277 179.098 150.213 179.215 150.1C179.321 149.972 179.379 149.811 179.379 149.645C179.379 149.479 179.321 149.318 179.215 149.191C179.098 149.077 178.941 149.014 178.778 149.014C178.615 149.014 178.458 149.077 178.341 149.191C178.235 149.318 178.177 149.479 178.177 149.645C178.177 149.811 178.235 149.972 178.341 150.1Z" fill="#838799"/>
<path d="M221.423 149.35C221.423 149.01 220.71 148.6 219.918 148.598C219.125 148.595 218.415 149.008 218.415 149.35C218.415 149.692 219.128 150.103 219.919 150.101C220.71 150.1 221.423 149.692 221.423 149.35ZM219.919 150.478C218.971 150.478 218.041 149.973 218.041 149.35C218.041 148.727 218.977 148.218 219.919 148.223C220.861 148.227 221.799 148.727 221.799 149.35C221.799 149.973 220.867 150.476 219.919 150.478ZM219.919 150.101C219.745 150.101 219.577 150.041 219.443 149.93C219.309 149.82 219.217 149.666 219.183 149.496C219.15 149.325 219.176 149.148 219.258 148.995C219.34 148.842 219.473 148.722 219.634 148.656C219.794 148.59 219.973 148.581 220.139 148.632C220.305 148.682 220.449 148.789 220.545 148.934C220.642 149.078 220.685 149.252 220.668 149.425C220.651 149.597 220.574 149.759 220.451 149.882C220.309 150.021 220.118 150.097 219.919 150.096V150.101ZM219.919 149.726C220.019 149.726 220.114 149.686 220.185 149.616C220.255 149.545 220.295 149.45 220.296 149.35C220.296 149.301 220.286 149.252 220.267 149.206C220.248 149.16 220.221 149.119 220.186 149.084C220.151 149.049 220.109 149.021 220.063 149.002C220.018 148.983 219.969 148.974 219.919 148.974C219.82 148.974 219.724 149.014 219.654 149.085C219.583 149.155 219.543 149.25 219.543 149.35C219.544 149.45 219.584 149.545 219.654 149.615C219.724 149.686 219.82 149.726 219.919 149.726Z" fill="#DADCE3"/>
<path d="M169.675 95.8647C169.777 95.8584 169.879 95.873 169.975 95.9076C170.071 95.9423 170.159 95.9961 170.233 96.066C170.307 96.1358 170.367 96.2201 170.407 96.3137C170.447 96.4073 170.468 96.5082 170.468 96.6102C170.468 96.7122 170.447 96.8131 170.407 96.9067C170.367 97.0002 170.307 97.0846 170.233 97.1544C170.159 97.2243 170.071 97.2781 169.975 97.3128C169.879 97.3474 169.777 97.362 169.675 97.3557H169.105V98.392H168.82V95.8647H169.675ZM169.647 97.092C169.777 97.0984 169.905 97.0545 170.003 96.9694C170.05 96.9226 170.085 96.8665 170.109 96.8049C170.132 96.7432 170.141 96.6773 170.137 96.6116C170.142 96.5461 170.132 96.4803 170.109 96.4189C170.086 96.3574 170.05 96.3016 170.003 96.2553C169.906 96.1677 169.778 96.1221 169.647 96.1284H169.101V97.092H169.647ZM171 95.8647V98.392H170.74V95.8647H171ZM172.205 96.6701C172.317 96.6624 172.429 96.6805 172.532 96.723C172.635 96.7656 172.727 96.8313 172.801 96.9152C172.944 97.0938 173.017 97.3183 173.006 97.5467V97.5937H171.621C171.617 97.6734 171.63 97.7531 171.658 97.8276C171.687 97.9021 171.731 97.9697 171.787 98.0262C171.844 98.0826 171.911 98.1265 171.986 98.1552C172.06 98.1838 172.14 98.1965 172.22 98.1924C172.311 98.1941 172.401 98.1756 172.483 98.1382C172.55 98.1098 172.611 98.0708 172.664 98.0228C172.71 97.9784 172.752 97.9308 172.79 97.8802L172.978 98.0499C172.897 98.1751 172.785 98.2775 172.653 98.3476C172.521 98.4177 172.373 98.453 172.224 98.4504C172.107 98.4566 171.99 98.4386 171.881 98.3973C171.772 98.3561 171.672 98.2927 171.588 98.2109C171.509 98.1246 171.447 98.0233 171.406 97.913C171.366 97.8027 171.348 97.6854 171.353 97.5681C171.342 97.3309 171.425 97.099 171.584 96.9224C171.664 96.8386 171.76 96.7727 171.867 96.7292C171.975 96.6857 172.09 96.6655 172.205 96.6701ZM172.191 96.911C172.054 96.9072 171.919 96.9522 171.812 97.0378C171.707 97.129 171.642 97.2573 171.631 97.3956H172.729C172.724 97.26 172.667 97.1315 172.569 97.0378C172.464 96.9483 172.329 96.9028 172.191 96.911ZM174.066 98.4447C173.956 98.4475 173.846 98.4276 173.745 98.3861C173.643 98.3447 173.551 98.2826 173.474 98.2038C173.322 98.0226 173.239 97.7938 173.239 97.5574C173.239 97.321 173.322 97.0921 173.474 96.911C173.551 96.8322 173.643 96.7701 173.745 96.7286C173.846 96.6872 173.956 96.6672 174.066 96.6701C174.193 96.6618 174.321 96.6903 174.432 96.7522C174.544 96.8141 174.636 96.9068 174.697 97.0193V96.7242H174.958V98.392H174.697V98.0955C174.637 98.2082 174.545 98.3011 174.433 98.3631C174.321 98.425 174.193 98.4534 174.066 98.4447ZM173.679 98.0171C173.797 98.1304 173.953 98.1937 174.116 98.1937C174.279 98.1937 174.436 98.1304 174.553 98.0171C174.659 97.8892 174.717 97.7284 174.717 97.5624C174.717 97.3963 174.659 97.2355 174.553 97.1077C174.436 96.9944 174.279 96.931 174.116 96.931C173.953 96.931 173.797 96.9944 173.679 97.1077C173.573 97.2355 173.515 97.3963 173.515 97.5624C173.515 97.7284 173.573 97.8892 173.679 98.0171ZM175.947 98.4447C175.703 98.4481 175.464 98.3807 175.257 98.2508L175.384 98.0199C175.553 98.1341 175.751 98.1965 175.954 98.1995C176.041 98.2055 176.127 98.1857 176.202 98.1425C176.228 98.1244 176.25 98.1 176.264 98.0717C176.279 98.0433 176.286 98.0118 176.285 97.98C176.285 97.8831 176.209 97.8004 176.058 97.7306L175.748 97.588C175.508 97.4783 175.387 97.3229 175.387 97.1233C175.383 97.0594 175.396 96.9956 175.423 96.9377C175.45 96.8797 175.491 96.8294 175.542 96.7912C175.666 96.7084 175.813 96.6679 175.961 96.6758C176.159 96.6768 176.353 96.7211 176.532 96.8055L176.419 97.0364C176.277 96.9648 176.121 96.9253 175.961 96.9209C175.769 96.9209 175.676 96.9851 175.676 97.1119C175.675 97.1381 175.68 97.1642 175.689 97.1887C175.698 97.2132 175.712 97.2356 175.73 97.2545C175.785 97.3031 175.847 97.3422 175.914 97.3699L176.218 97.5125C176.318 97.557 176.408 97.6221 176.482 97.7035C176.546 97.7815 176.579 97.8805 176.574 97.9814C176.578 98.0501 176.566 98.1187 176.537 98.1811C176.508 98.2436 176.464 98.2979 176.409 98.3392C176.27 98.4223 176.108 98.4593 175.947 98.4447ZM177.619 96.6701C177.731 96.6624 177.842 96.6805 177.946 96.723C178.049 96.7656 178.141 96.8313 178.215 96.9152C178.358 97.0938 178.431 97.3183 178.42 97.5467V97.5937H177.035C177.031 97.6734 177.043 97.7531 177.072 97.8276C177.101 97.9021 177.145 97.9697 177.201 98.0262C177.257 98.0826 177.325 98.1265 177.4 98.1552C177.474 98.1838 177.554 98.1965 177.633 98.1924C177.724 98.1941 177.814 98.1756 177.897 98.1382C177.963 98.1099 178.024 98.0709 178.077 98.0228C178.123 97.9788 178.165 97.9312 178.204 97.8802L178.392 98.0499C178.31 98.1751 178.198 98.2775 178.066 98.3476C177.934 98.4176 177.786 98.453 177.636 98.4504C177.52 98.4554 177.404 98.4368 177.296 98.3956C177.187 98.3545 177.088 98.2916 177.005 98.2109C176.845 98.036 176.761 97.8049 176.771 97.5681C176.76 97.3309 176.843 97.099 177.002 96.9224C177.081 96.8391 177.177 96.7736 177.284 96.7301C177.39 96.6866 177.504 96.6662 177.619 96.6701ZM177.605 96.911C177.467 96.907 177.333 96.9519 177.226 97.0378C177.121 97.129 177.056 97.2573 177.045 97.3956H178.145C178.144 97.3285 178.129 97.2623 178.102 97.2009C178.075 97.1395 178.036 97.0841 177.987 97.0378C177.881 96.9472 177.744 96.9017 177.605 96.911ZM180.575 96.6701C180.687 96.6623 180.799 96.6804 180.902 96.7229C181.005 96.7654 181.098 96.8312 181.171 96.9152C181.314 97.0938 181.387 97.3183 181.377 97.5467V97.5937H179.998C179.996 97.6741 180.01 97.7541 180.039 97.829C180.068 97.904 180.112 97.9723 180.168 98.0299C180.225 98.0841 180.292 98.1264 180.365 98.1543C180.439 98.1822 180.517 98.1951 180.595 98.1924C180.686 98.194 180.775 98.1755 180.858 98.1382C180.924 98.1102 180.985 98.0712 181.039 98.0228C181.084 97.9785 181.127 97.9308 181.166 97.8802L181.352 98.0499C181.271 98.1751 181.159 98.2775 181.027 98.3476C180.895 98.4177 180.748 98.453 180.598 98.4504C180.482 98.4558 180.366 98.4373 180.257 98.3958C180.149 98.3544 180.05 98.2909 179.967 98.2095C179.887 98.1232 179.825 98.0219 179.785 97.9116C179.745 97.8012 179.726 97.684 179.732 97.5666C179.721 97.3295 179.804 97.0976 179.963 96.9209C180.041 96.8385 180.137 96.7736 180.242 96.7303C180.348 96.6871 180.461 96.6666 180.575 96.6701ZM180.561 96.911C180.424 96.9072 180.29 96.9522 180.182 97.0378C180.078 97.1291 180.013 97.2575 180.002 97.3956H181.096C181.091 97.2603 181.035 97.132 180.937 97.0378C180.835 96.9506 180.703 96.9053 180.568 96.911H180.561ZM182.588 96.6701C182.673 96.6653 182.758 96.6782 182.838 96.7079C182.918 96.7375 182.991 96.7834 183.053 96.8425C183.116 96.9157 183.164 97.0006 183.193 97.0924C183.223 97.1841 183.235 97.2809 183.227 97.3771V98.392H182.967V97.4127C182.973 97.3472 182.965 97.2813 182.944 97.2188C182.924 97.1564 182.891 97.0987 182.848 97.0492C182.804 97.008 182.752 96.9762 182.696 96.9556C182.64 96.935 182.58 96.9261 182.52 96.9295C182.447 96.9269 182.375 96.9405 182.308 96.9693C182.241 96.9982 182.181 97.0415 182.133 97.0963C182.023 97.2483 181.973 97.4354 181.991 97.6222V98.392H181.731V96.7242H181.991V97.0449C182.038 96.9277 182.122 96.8284 182.229 96.7611C182.336 96.6938 182.462 96.662 182.588 96.6701ZM184.358 96.948H183.989V97.933C183.989 98.0755 184.059 98.1525 184.199 98.1525H184.289V98.3948H184.146C184.033 98.4017 183.922 98.3644 183.835 98.2908C183.796 98.2501 183.766 98.2016 183.747 98.1486C183.728 98.0956 183.72 98.0391 183.724 97.9829V96.948H183.402V96.7242H183.724V96.0557H183.989V96.7242H184.357L184.358 96.948ZM185.312 96.6701C185.424 96.6623 185.535 96.6804 185.639 96.7229C185.742 96.7654 185.834 96.8312 185.908 96.9152C186.051 97.0937 186.125 97.3181 186.115 97.5467V97.5937H184.728C184.725 97.6741 184.739 97.7541 184.768 97.829C184.797 97.904 184.841 97.9723 184.897 98.0299C184.954 98.0841 185.021 98.1264 185.095 98.1543C185.168 98.1822 185.246 98.1951 185.325 98.1924C185.415 98.194 185.505 98.1755 185.587 98.1382C185.654 98.1102 185.715 98.0712 185.768 98.0228C185.814 97.9785 185.856 97.9308 185.895 97.8802L186.082 98.0499C186 98.1751 185.888 98.2775 185.757 98.3476C185.625 98.4177 185.477 98.453 185.328 98.4504C185.213 98.4552 185.098 98.4365 184.99 98.3953C184.883 98.3541 184.784 98.2914 184.702 98.2109C184.622 98.1246 184.561 98.0233 184.52 97.913C184.48 97.8027 184.462 97.6854 184.467 97.5681C184.456 97.3309 184.539 97.099 184.698 96.9224C184.777 96.8395 184.872 96.7742 184.978 96.7307C185.084 96.6872 185.198 96.6666 185.312 96.6701ZM185.298 96.911C185.16 96.9075 185.026 96.9524 184.919 97.0378C184.814 97.1291 184.75 97.2575 184.739 97.3956H185.832C185.828 97.2603 185.771 97.132 185.674 97.0378C185.57 96.9489 185.435 96.9035 185.298 96.911ZM187.325 96.6729V96.9723H187.268C187.191 96.9676 187.115 96.9802 187.044 97.009C186.973 97.0379 186.909 97.0823 186.857 97.139C186.754 97.2729 186.704 97.4396 186.715 97.608V98.392H186.455V96.7242H186.715V97.0991C186.747 96.9786 186.816 96.8712 186.913 96.7926C187.013 96.7126 187.138 96.6702 187.266 96.6729H187.325ZM189.781 96.7242H190.066L188.978 99.1132H188.693L189.121 98.2138L188.428 96.7242H188.734L189.263 97.9259L189.781 96.7242ZM191.019 96.6701C191.139 96.6658 191.257 96.686 191.368 96.7294C191.479 96.7728 191.58 96.8385 191.665 96.9224C191.749 97.0049 191.816 97.104 191.86 97.2134C191.904 97.3228 191.925 97.4402 191.922 97.5581C191.925 97.6765 191.905 97.7944 191.86 97.9043C191.816 98.0143 191.75 98.1138 191.665 98.1967C191.58 98.2794 191.479 98.344 191.368 98.3866C191.257 98.4292 191.138 98.449 191.019 98.4447C190.901 98.4484 190.782 98.4284 190.672 98.3858C190.561 98.3432 190.459 98.2789 190.374 98.1967C190.289 98.1138 190.223 98.0143 190.178 97.9043C190.134 97.7944 190.113 97.6765 190.117 97.5581C190.114 97.4402 190.135 97.3228 190.179 97.2134C190.223 97.104 190.289 97.0049 190.374 96.9224C190.459 96.839 190.56 96.7736 190.671 96.7303C190.782 96.6869 190.9 96.6664 191.019 96.6701ZM191.471 97.0977C191.347 96.9865 191.187 96.925 191.02 96.925C190.854 96.925 190.693 96.9865 190.569 97.0977C190.455 97.2232 190.392 97.3866 190.392 97.556C190.392 97.7253 190.455 97.8887 190.569 98.0142C190.693 98.126 190.853 98.1879 191.02 98.1879C191.187 98.1879 191.348 98.126 191.471 98.0142C191.585 97.8887 191.648 97.7253 191.648 97.556C191.648 97.3866 191.585 97.2232 191.471 97.0977ZM192.872 98.4433C192.79 98.4467 192.707 98.4332 192.629 98.4036C192.552 98.3739 192.481 98.3287 192.422 98.2708C192.297 98.1193 192.236 97.9249 192.252 97.7291V96.7228H192.516V97.7206C192.506 97.8506 192.545 97.9796 192.627 98.0812C192.669 98.1202 192.718 98.1505 192.771 98.1703C192.824 98.1901 192.881 98.1991 192.938 98.1967C193.008 98.1995 193.078 98.1856 193.142 98.1562C193.206 98.1267 193.262 98.0824 193.306 98.0271C193.413 97.8668 193.464 97.6749 193.448 97.4826V96.7285H193.708V98.3962H193.448V98.0855C193.403 98.1992 193.323 98.2954 193.22 98.3601C193.116 98.4248 192.994 98.4544 192.872 98.4447V98.4433ZM195.032 96.6715V96.9708H194.982C194.905 96.9662 194.828 96.9787 194.757 97.0076C194.686 97.0364 194.622 97.0809 194.57 97.1376C194.467 97.2714 194.417 97.4381 194.428 97.6066V98.3905H194.168V96.7228H194.428V97.0977C194.46 96.977 194.53 96.8697 194.627 96.7912C194.727 96.7109 194.852 96.6685 194.981 96.6715H195.032ZM197.103 98.4447C196.993 98.4475 196.883 98.4276 196.781 98.3862C196.679 98.3447 196.587 98.2826 196.51 98.2038C196.359 98.0223 196.276 97.7936 196.276 97.5574C196.276 97.3212 196.359 97.0925 196.51 96.911C196.587 96.8321 196.679 96.7701 196.781 96.7286C196.883 96.6871 196.993 96.6672 197.103 96.6701C197.231 96.6619 197.358 96.6905 197.47 96.7524C197.582 96.8143 197.674 96.9069 197.735 97.0193V95.8647H197.994V98.392H197.735V98.0955C197.674 98.2081 197.582 98.3009 197.47 98.3628C197.358 98.4248 197.231 98.4532 197.103 98.4447ZM196.717 98.0171C196.834 98.1303 196.99 98.1936 197.153 98.1936C197.316 98.1936 197.472 98.1303 197.589 98.0171C197.697 97.8901 197.756 97.7289 197.756 97.5624C197.756 97.3958 197.697 97.2347 197.589 97.1077C197.472 96.9945 197.316 96.9312 197.153 96.9312C196.99 96.9312 196.834 96.9945 196.717 97.1077C196.609 97.2347 196.55 97.3958 196.55 97.5624C196.55 97.7289 196.609 97.8901 196.717 98.0171ZM199.207 96.6743C199.318 96.6667 199.43 96.6848 199.534 96.7273C199.637 96.7698 199.729 96.8356 199.803 96.9195C199.946 97.0981 200.019 97.3225 200.008 97.551V97.598H198.623C198.618 97.6777 198.631 97.7574 198.66 97.8319C198.688 97.9064 198.732 97.974 198.789 98.0304C198.845 98.0869 198.913 98.1308 198.987 98.1595C199.062 98.1881 199.142 98.2008 199.221 98.1967C199.312 98.1983 199.402 98.1798 199.485 98.1425C199.551 98.1141 199.612 98.0751 199.666 98.0271C199.711 97.9827 199.753 97.9351 199.791 97.8845L199.98 98.0541C199.898 98.1794 199.786 98.2818 199.654 98.3519C199.522 98.4219 199.375 98.4573 199.225 98.4547C199.109 98.4601 198.993 98.4415 198.885 98.4001C198.776 98.3586 198.677 98.2952 198.594 98.2138C198.514 98.1274 198.453 98.0262 198.412 97.9158C198.372 97.8055 198.354 97.6883 198.359 97.5709C198.348 97.3337 198.431 97.1018 198.59 96.9252C198.669 96.8416 198.764 96.7757 198.87 96.7317C198.976 96.6877 199.091 96.6667 199.206 96.6701L199.207 96.6743ZM199.193 96.9152C199.055 96.9115 198.921 96.9564 198.814 97.0421C198.709 97.1333 198.644 97.2616 198.633 97.3999H199.727C199.723 97.2643 199.666 97.1357 199.568 97.0421C199.464 96.9514 199.329 96.9044 199.191 96.911L199.193 96.9152ZM201.046 96.9523H200.677V97.9373C200.677 98.0798 200.746 98.1568 200.886 98.1568H200.976V98.3991H200.833C200.721 98.4067 200.609 98.3692 200.524 98.295C200.485 98.2546 200.454 98.2063 200.435 98.1532C200.415 98.1001 200.407 98.0435 200.411 97.9871V96.9523H200.096V96.7285H200.417V96.06H200.677V96.7285H201.046V96.9523ZM201.978 98.449C201.868 98.4518 201.758 98.4319 201.656 98.3904C201.554 98.349 201.462 98.2869 201.385 98.2081C201.234 98.0265 201.151 97.7978 201.151 97.5617C201.151 97.3255 201.234 97.0968 201.385 96.9152C201.462 96.8364 201.554 96.7743 201.656 96.7329C201.758 96.6914 201.868 96.6715 201.978 96.6743C202.106 96.6662 202.233 96.6948 202.345 96.7567C202.457 96.8186 202.548 96.9112 202.609 97.0236V96.7285H202.869V98.3962H202.609V98.0997C202.548 98.2114 202.456 98.3031 202.345 98.3643C202.233 98.4254 202.106 98.4533 201.979 98.4447L201.978 98.449ZM201.592 98.0214C201.709 98.1346 201.865 98.1979 202.028 98.1979C202.191 98.1979 202.347 98.1346 202.464 98.0214C202.572 97.8944 202.631 97.7332 202.631 97.5666C202.631 97.4001 202.572 97.2389 202.464 97.1119C202.347 96.9987 202.191 96.9354 202.028 96.9354C201.865 96.9354 201.709 96.9987 201.592 97.1119C201.484 97.2389 201.425 97.4001 201.425 97.5666C201.425 97.7332 201.484 97.8944 201.592 98.0214ZM203.627 95.9103V96.3379H203.299V95.9103H203.627ZM203.342 98.4005V96.7328H203.603V98.4005H203.342ZM204.34 95.8733V98.4005H204.08V95.8647L204.34 95.8733ZM205.338 98.4533C205.094 98.4566 204.854 98.3893 204.648 98.2594L204.775 98.0285C204.943 98.1427 205.141 98.2051 205.345 98.2081C205.431 98.2141 205.518 98.1942 205.593 98.1511C205.619 98.1329 205.64 98.1086 205.655 98.0802C205.669 98.0519 205.676 98.0204 205.675 97.9886C205.675 97.8916 205.6 97.809 205.449 97.7391L205.138 97.5966C204.897 97.4868 204.777 97.3315 204.777 97.1319C204.774 97.068 204.786 97.0042 204.813 96.9462C204.84 96.8883 204.881 96.8379 204.933 96.7998C205.056 96.7167 205.203 96.6761 205.352 96.6843C205.549 96.6853 205.744 96.7296 205.922 96.814L205.809 97.0449C205.667 96.9733 205.511 96.9339 205.352 96.9295C205.158 96.9295 205.067 96.9936 205.067 97.1205C205.066 97.1467 205.07 97.1728 205.079 97.1973C205.089 97.2218 205.103 97.2441 205.121 97.263C205.175 97.3117 205.237 97.3507 205.305 97.3785L205.608 97.521C205.709 97.5659 205.798 97.6309 205.872 97.712C205.943 97.8074 205.975 97.9262 205.962 98.0443C205.948 98.1624 205.89 98.2709 205.799 98.3478C205.658 98.4288 205.495 98.4628 205.333 98.4447L205.338 98.4533ZM206.621 98.0256V98.3977H206.248V98.0256H206.621Z" fill="#838799"/>
<path d="M179.024 90.4967L177.643 88.5282H177.215V90.4967H176.511V85.7601H178.129C178.513 85.7456 178.887 85.8816 179.171 86.1392C179.308 86.2691 179.415 86.427 179.485 86.6022C179.555 86.7774 179.587 86.9657 179.577 87.1541C179.59 87.4747 179.484 87.7887 179.281 88.0369C179.078 88.285 178.791 88.4502 178.474 88.5011L179.908 90.4967H179.024ZM177.217 86.4229V87.864H178.015C178.233 87.8819 178.449 87.8139 178.618 87.6744C178.686 87.6067 178.74 87.5254 178.774 87.4358C178.809 87.3461 178.825 87.2502 178.82 87.1541C178.825 87.057 178.81 86.9598 178.775 86.869C178.74 86.7782 178.687 86.6956 178.618 86.6267C178.537 86.5536 178.441 86.4978 178.338 86.4627C178.234 86.4277 178.124 86.4141 178.015 86.4229H177.217ZM181.573 87.2696C181.778 87.2583 181.983 87.2931 182.172 87.3716C182.362 87.45 182.532 87.5701 182.669 87.7229C182.935 88.0213 183.068 88.4246 183.068 88.933V89.0414H180.645C180.648 89.2919 180.747 89.5318 180.921 89.7113C181.103 89.88 181.344 89.9702 181.591 89.9622C181.962 89.9622 182.283 89.7793 182.554 89.4134L183.02 89.8539C182.865 90.086 182.654 90.2758 182.407 90.4057C182.16 90.5357 181.885 90.6018 181.606 90.5979C181.387 90.6081 181.168 90.5731 180.963 90.4952C180.758 90.4172 180.571 90.2979 180.414 90.1446C180.265 89.9825 180.15 89.7927 180.075 89.5861C179.999 89.3794 179.965 89.1599 179.975 88.9402C179.958 88.5009 180.112 88.0722 180.403 87.7428C180.552 87.5838 180.734 87.4592 180.936 87.3775C181.138 87.2958 181.355 87.2589 181.573 87.2696ZM181.533 87.8782C181.328 87.8694 181.127 87.9313 180.963 88.0536C180.808 88.1812 180.706 88.3622 180.678 88.561H182.348C182.347 88.4648 182.325 88.37 182.283 88.2834C182.241 88.1969 182.18 88.1208 182.105 88.0607C181.942 87.9336 181.739 87.8689 181.533 87.8782ZM185.252 91.9521C184.847 91.9411 184.444 91.8934 184.047 91.8095L184.176 91.1667C184.528 91.2522 184.889 91.3 185.252 91.3092C185.554 91.3092 185.764 91.2436 185.88 91.1125C186.003 90.9856 186.063 90.7519 186.063 90.4083V90.0363H186.05C185.833 90.4117 185.481 90.5989 184.994 90.5979C184.792 90.6019 184.591 90.5637 184.405 90.4856C184.219 90.4075 184.051 90.2914 183.912 90.1446C183.627 89.8052 183.471 89.3762 183.471 88.933C183.471 88.4899 183.627 88.0609 183.912 87.7214C184.051 87.5747 184.219 87.4585 184.405 87.3805C184.591 87.3024 184.792 87.2642 184.994 87.2682C185.481 87.2682 185.833 87.4554 186.05 87.8298H186.063V87.3779H186.727V90.5038C186.725 90.7572 186.682 91.0085 186.599 91.2479C186.537 91.4261 186.424 91.5819 186.274 91.6955C186.138 91.7927 185.984 91.8615 185.821 91.8979C185.634 91.9391 185.443 91.9572 185.252 91.9521ZM184.439 89.6714C184.628 89.8498 184.877 89.9492 185.136 89.9492C185.396 89.9492 185.645 89.8498 185.833 89.6714C186.014 89.4688 186.108 89.204 186.097 88.933C186.109 88.6644 186.014 88.402 185.833 88.2032C185.647 88.0213 185.397 87.9194 185.136 87.9194C184.876 87.9194 184.626 88.0213 184.439 88.2032C184.258 88.402 184.163 88.6644 184.176 88.933C184.165 89.204 184.259 89.4688 184.439 89.6714ZM188.312 85.8228V86.6353H187.5V85.8228H188.312ZM187.574 90.4924V87.3779H188.238V90.5038L187.574 90.4924ZM189.949 90.5936C189.503 90.5998 189.063 90.4856 188.677 90.2629L188.975 89.6743C189.275 89.8606 189.62 89.9634 189.973 89.9722C190.298 89.9722 190.46 89.8738 190.46 89.68C190.46 89.5545 190.351 89.4362 190.13 89.3293L189.559 89.0442C189.121 88.8361 188.902 88.5363 188.902 88.1448C188.895 88.0205 188.917 87.8963 188.966 87.7821C189.016 87.6679 189.091 87.567 189.187 87.4877C189.427 87.322 189.716 87.2412 190.007 87.2582C190.381 87.2611 190.75 87.3442 191.089 87.5019L190.819 88.0721C190.558 87.9499 190.275 87.8811 189.987 87.8697C189.729 87.8697 189.601 87.9481 189.601 88.1063C189.599 88.1786 189.626 88.2487 189.675 88.3016C189.76 88.3756 189.856 88.4353 189.96 88.4783L190.542 88.7563C190.956 88.9501 191.164 89.2424 191.164 89.6358C191.173 89.7728 191.147 89.9097 191.089 90.0341C191.031 90.1586 190.942 90.2666 190.832 90.3485C190.572 90.5236 190.262 90.611 189.949 90.5979V90.5936ZM193.26 87.9281H192.624V89.5659C192.617 89.6102 192.621 89.6554 192.635 89.6979C192.649 89.7404 192.673 89.7791 192.704 89.8107C192.736 89.8424 192.775 89.8661 192.817 89.88C192.86 89.894 192.905 89.8977 192.949 89.8909H193.112V90.4996H192.807C192.577 90.5157 192.351 90.4404 192.178 90.29C192.103 90.2111 192.044 90.1174 192.007 90.0149C191.97 89.9123 191.954 89.8031 191.961 89.6942V87.9324H191.401V87.3779H191.957V86.1264H192.62V87.3779H193.254L193.26 87.9281ZM195.06 87.2653C195.265 87.254 195.47 87.2888 195.66 87.3673C195.849 87.4458 196.019 87.5658 196.156 87.7186C196.423 88.017 196.556 88.4204 196.555 88.9288V89.0371H194.132C194.135 89.2877 194.234 89.5276 194.409 89.707C194.59 89.876 194.831 89.9662 195.079 89.9579C195.449 89.9579 195.769 89.775 196.039 89.4091L196.507 89.8496C196.352 90.0818 196.141 90.2715 195.895 90.4015C195.648 90.5314 195.372 90.5975 195.093 90.5936C194.874 90.6038 194.655 90.5689 194.45 90.4909C194.245 90.4129 194.058 90.2936 193.901 90.1404C193.753 89.9783 193.637 89.7885 193.562 89.5818C193.487 89.3751 193.453 89.1557 193.462 88.9359C193.445 88.4965 193.598 88.0674 193.89 87.7386C194.039 87.5804 194.221 87.4565 194.423 87.3755C194.625 87.2945 194.843 87.2584 195.06 87.2696V87.2653ZM195.02 87.874C194.816 87.8651 194.614 87.9271 194.45 88.0493C194.295 88.177 194.193 88.358 194.165 88.5567H195.837C195.836 88.4605 195.813 88.3657 195.771 88.2792C195.729 88.1927 195.668 88.1166 195.593 88.0564C195.43 87.9306 195.226 87.8674 195.02 87.8782V87.874ZM198.922 87.271V88.0493H198.82C198.685 88.0394 198.549 88.0571 198.421 88.1015C198.293 88.1458 198.175 88.2159 198.075 88.3073C197.909 88.4745 197.825 88.7406 197.825 89.1055V90.4924H197.163V87.3779H197.825V88.0607H197.838C197.904 87.8369 198.037 87.6382 198.217 87.4905C198.406 87.3471 198.638 87.2726 198.874 87.2796L198.922 87.271Z" fill="#181D36"/>
<path d="M110.811 19.4229H80.6882C79.8621 19.4232 79.0699 19.7517 78.4859 20.336C77.9018 20.9203 77.5737 21.7126 77.5737 22.5388V45.7929C77.5737 46.6191 77.9018 47.4114 78.4859 47.9957C79.0699 48.58 79.8621 48.9085 80.6882 48.9089H89.0255C90.0316 48.9089 91.0198 49.1751 91.8898 49.6806C92.7598 50.186 93.4805 50.9127 93.9788 51.7868L95.4412 54.3525C95.4969 54.4507 95.5771 54.5327 95.6739 54.5905C95.7708 54.6484 95.881 54.6801 95.9938 54.6825C96.1066 54.685 96.2181 54.6581 96.3174 54.6045C96.4167 54.5509 96.5004 54.4724 96.5602 54.3768L98.322 51.5801C98.835 50.7625 99.5472 50.0885 100.392 49.6213C101.237 49.1541 102.186 48.9089 103.151 48.9089H110.817C111.644 48.9089 112.436 48.5806 113.02 47.9962C113.605 47.4119 113.933 46.6193 113.933 45.7929V22.5388C113.933 22.1291 113.852 21.7235 113.695 21.3451C113.538 20.9666 113.308 20.6229 113.018 20.3335C112.728 20.0441 112.384 19.8147 112.006 19.6584C111.627 19.5022 111.221 19.4221 110.811 19.4229Z" fill="#C8D2E1"/>
<path d="M95.3401 33.6957L87.5288 27.8074H103.972L96.1996 33.6957C96.0758 33.7893 95.9249 33.8399 95.7698 33.8399C95.6147 33.8399 95.4638 33.7893 95.3401 33.6957Z" fill="white"/>
<path d="M104.662 29.408V40.1969H86.8445V29.408L95.3471 35.7867C95.4704 35.8792 95.6205 35.9292 95.7747 35.9292C95.9289 35.9292 96.0789 35.8792 96.2023 35.7867L104.662 29.408Z" fill="white"/>
<path d="M54.4238 44.1951H25.8957C25.3438 44.1951 24.8965 44.6424 24.8965 45.1943V73.7224C24.8965 74.2743 25.3438 74.7216 25.8957 74.7216H54.4238C54.9757 74.7216 55.4231 74.2743 55.4231 73.7224V45.1943C55.4231 44.6424 54.9757 44.1951 54.4238 44.1951Z" fill="white" stroke="url(#paint2_linear_2112_12303)" stroke-miterlimit="10"/>
<path d="M46.8232 52.1589H33.497C33.1451 52.1589 32.8599 52.4442 32.8599 52.7961V66.1222C32.8599 66.4741 33.1451 66.7594 33.497 66.7594H46.8232C47.1751 66.7594 47.4603 66.4741 47.4603 66.1222V52.7961C47.4603 52.4442 47.1751 52.1589 46.8232 52.1589Z" fill="#4570B6"/>
<path d="M43.9527 58.4149H41.2031V55.6667C41.2031 55.39 41.0932 55.1246 40.8975 54.9289C40.7018 54.7332 40.4364 54.6233 40.1597 54.6233C39.883 54.6233 39.6176 54.7332 39.4219 54.9289C39.2262 55.1246 39.1163 55.39 39.1163 55.6667V58.4149H36.3681C36.0914 58.4149 35.826 58.5248 35.6303 58.7205C35.4346 58.9162 35.3247 59.1816 35.3247 59.4583C35.3247 59.735 35.4346 60.0004 35.6303 60.1961C35.826 60.3918 36.0914 60.5017 36.3681 60.5017H39.1163V63.2513C39.1163 63.528 39.2262 63.7934 39.4219 63.9891C39.6176 64.1848 39.883 64.2947 40.1597 64.2947C40.4364 64.2947 40.7018 64.1848 40.8975 63.9891C41.0932 63.7934 41.2031 63.528 41.2031 63.2513V60.5017H43.9527C44.2294 60.5017 44.4948 60.3918 44.6905 60.1961C44.8862 60.0004 44.9961 59.735 44.9961 59.4583C44.9961 59.1816 44.8862 58.9162 44.6905 58.7205C44.4948 58.5248 44.2294 58.4149 43.9527 58.4149Z" fill="#FBFBFB"/>
<defs>
<linearGradient id="paint0_linear_2112_12303" x1="259.825" y1="34.458" x2="188.84" y2="79.9329" gradientUnits="userSpaceOnUse">
<stop offset="0.11" stop-color="#45AEE3"/>
<stop offset="0.27" stop-color="#44A2DA"/>
<stop offset="0.57" stop-color="#4181C2"/>
<stop offset="0.96" stop-color="#3C4B9B"/>
<stop offset="1" stop-color="#3B4697"/>
</linearGradient>
<linearGradient id="paint1_linear_2112_12303" x1="48.4267" y1="129.567" x2="238.722" y2="129.567" gradientUnits="userSpaceOnUse">
<stop stop-color="white"/>
<stop offset="0.43" stop-color="#EAEBF5"/>
<stop offset="0.7" stop-color="#BCC1D7"/>
<stop offset="0.95" stop-color="#BCC1D7"/>
<stop offset="1" stop-color="#B0B6CF"/>
</linearGradient>
<linearGradient id="paint2_linear_2112_12303" x1="24.8252" y1="59.4584" x2="55.4943" y2="59.4584" gradientUnits="userSpaceOnUse">
<stop offset="0.11" stop-color="#8AB0C8"/>
<stop offset="0.87" stop-color="#8AB0C8"/>
<stop offset="1" stop-color="#8AB0C8"/>
</linearGradient>
<clipPath id="clip0_2112_12303">
<rect width="71" height="68" fill="white" transform="translate(58 94)"/>
</clipPath>
</defs>
</svg>
