<svg width="599" height="339" viewBox="0 0 599 339" fill="none" xmlns="http://www.w3.org/2000/svg">
<path d="M597.992 269.85C593.77 224.939 576.337 190.85 531.161 165.846C517.837 158.474 501.156 154.859 493.17 141.919C485.24 129.061 488.184 112.641 486.615 97.6201C482.572 59.0865 445.702 29.291 407.115 25.2122C368.529 21.1335 330.149 38.5852 300.827 63.9724C278.834 83.0318 259.57 107.34 231.86 116.26C186.166 130.972 136.443 98.1561 89.5517 108.446C64.3163 113.984 43.1435 131.622 27.6905 152.292C1.8218 186.879 -4.62797 230.608 3.28378 273.045C7.61357 296.262 18.2 319.788 33.3767 337.847L577.096 336.726C592.989 320.853 599.802 289.107 597.992 269.85Z" fill="url(#paint0_linear_2125_9648)"/>
<path d="M208.43 96.7479C231.632 96.7479 250.441 77.9678 250.441 54.8014C250.441 31.6351 231.632 12.855 208.43 12.855C185.228 12.855 166.419 31.6351 166.419 54.8014C166.419 77.9678 185.228 96.7479 208.43 96.7479Z" fill="url(#paint1_linear_2125_9648)"/>
<path d="M290.767 29.6775C297.566 22.8884 297.566 11.8812 290.767 5.09216C283.967 -1.69689 272.943 -1.6969 266.144 5.09214C259.344 11.8812 259.344 22.8884 266.143 29.6775C272.943 36.4665 283.967 36.4665 290.767 29.6775Z" fill="url(#paint2_linear_2125_9648)"/>
<path d="M557.233 150.989C564.032 144.2 564.032 133.193 557.233 126.404C550.433 119.615 539.409 119.615 532.61 126.404C525.81 133.193 525.81 144.2 532.61 150.989C539.409 157.778 550.433 157.778 557.233 150.989Z" fill="url(#paint3_linear_2125_9648)"/>
<path d="M197.455 255.665H51.354V337.78H197.455V255.665Z" fill="#F7AC65"/>
<path opacity="0.5" d="M103.702 255.665H51.354V337.78H103.702V255.665Z" fill="#B25834"/>
<path opacity="0.3" d="M131.408 255.666V275.669H145.035V255.666H131.408Z" fill="white"/>
<path d="M409.936 166.205H168.597V337.78H409.936V166.205Z" fill="#01153A"/>
<path d="M433.436 105.544H388.788V64.8537C388.77 60.9114 390.321 57.1236 393.101 54.3234C395.88 51.5233 399.659 49.9401 403.608 49.9223C407.556 49.9044 411.35 51.4534 414.154 54.2283C416.959 57.0033 418.544 60.7769 418.562 64.7191V64.8537V90.6825C418.562 90.8059 418.562 90.9426 418.562 91.0682V91.8485L418.607 91.8261C418.892 95.5577 420.578 99.0442 423.328 101.588C426.077 104.131 429.687 105.545 433.436 105.544Z" fill="#699CFF"/>
<path d="M448.311 81.7021V90.6937C448.311 94.5347 446.819 98.226 444.151 100.993C441.482 103.759 437.844 105.386 434 105.531C430.155 105.676 426.405 104.328 423.534 101.771C420.664 99.2132 418.898 95.6448 418.607 91.8149L448.311 81.7021Z" fill="#D0E0FF"/>
<path d="M403.675 50.0031C403.356 50.0031 403.051 50.0143 402.743 50.0367C402.539 50.0479 402.346 50.0591 402.152 50.0815C401.959 50.104 401.732 50.1264 401.517 50.16C401.393 50.1735 401.268 50.1959 401.142 50.2183C401.016 50.2407 400.825 50.2744 400.677 50.308C400.452 50.3528 400.228 50.3999 400.003 50.456C399.684 50.5345 399.368 50.6264 399.049 50.7385C398.889 50.7856 398.73 50.8417 398.584 50.8977C398.438 50.9538 398.276 51.0121 398.135 51.0681C397.922 51.147 397.713 51.2376 397.51 51.3395C397.325 51.4178 397.144 51.5053 396.967 51.6018C396.912 51.6252 396.859 51.6514 396.807 51.6803C396.648 51.7588 396.489 51.8507 396.331 51.9404C395.706 52.2891 395.11 52.6872 394.548 53.131C394.389 53.2566 394.218 53.3934 394.07 53.5167C393.922 53.64 393.731 53.8127 393.56 53.9652C393.389 54.1176 393.23 54.2836 393.071 54.4428C392.624 54.8958 392.207 55.3766 391.822 55.8823C391.651 56.1066 391.494 56.3308 391.335 56.555C390.835 57.3158 390.398 58.116 390.028 58.9475C389.938 59.1516 389.857 59.3668 389.767 59.5821C389.526 60.2345 389.325 60.9009 389.165 61.5777C389.12 61.8154 389.075 62.0419 389.028 62.2706C388.95 62.7347 388.882 63.2101 388.846 63.6877V272.184H189.826V73.1659C189.828 67.0217 192.274 61.1298 196.626 56.7861C200.978 52.4423 206.88 50.0025 213.034 50.0031H403.675Z" fill="#D0E0FF"/>
<path d="M364.374 71.2374H213.353V79.1729H364.374V71.2374Z" fill="#B1CBFF"/>
<path d="M352.672 94.4788H213.353V102.414H352.672V94.4788Z" fill="#B1CBFF"/>
<path d="M345.328 117.722H213.353V125.658H345.328V117.722Z" fill="#B1CBFF"/>
<path d="M364.374 140.964H213.353V148.899H364.374V140.964Z" fill="#B1CBFF"/>
<path d="M353.588 164.49H271.713V172.425H353.588V164.49Z" fill="#B1CBFF"/>
<path d="M288.192 209.053C287.294 209.053 286.456 208.746 285.886 207.959C285.185 206.992 285.234 205.665 285.266 204.788L286.038 184.28L287.173 184.323L286.4 204.831C286.366 205.786 286.369 206.694 286.804 207.297C287.77 208.627 290.092 207.476 290.548 207.23C292.834 206.006 294.476 203.703 296.063 201.474C297.829 199.007 299.657 196.435 302.414 195.231C304.052 194.516 305.258 195.565 306.232 196.402C306.782 196.879 307.301 197.328 307.851 197.489C309.293 197.915 310.73 197.543 312.253 197.146C313.6 196.794 314.991 196.429 316.419 196.648C317.728 196.848 318.784 197.368 319.805 197.873C321.315 198.617 322.622 199.261 324.506 198.803C327.106 198.178 329.523 196.7 331.858 195.269C332.532 194.857 333.206 194.442 333.893 194.047C336.521 192.523 340.466 190.601 344.392 191.5L344.14 192.606C340.599 191.798 336.922 193.599 334.463 195.027C333.79 195.417 333.116 195.828 332.442 196.236C330.033 197.714 327.538 199.238 324.764 199.907C322.476 200.456 320.856 199.662 319.293 198.889C318.35 198.424 317.376 197.942 316.239 197.767C315.04 197.586 313.823 197.904 312.532 198.24C310.926 198.658 309.273 199.09 307.519 198.575C306.735 198.35 306.095 197.792 305.48 197.258C304.467 196.379 303.8 195.864 302.866 196.267C300.396 197.346 298.738 199.669 296.986 202.129C295.322 204.463 293.602 206.878 291.082 208.228C290.198 208.728 289.208 209.011 288.192 209.053Z" fill="#01153A"/>
<path opacity="0.3" d="M388.844 173.389V272.173H189.826V164.783L251.998 216.428C255.425 219.284 259.923 220.372 264.349 219.749C265.646 219.566 266.956 219.491 268.266 219.524L310.643 220.715C312.102 220.761 313.554 220.939 314.982 221.246C319.374 222.199 323.965 221.327 327.596 218.652L388.844 173.389Z" fill="#86A7FF"/>
<path d="M259.341 237.333L257.684 239.169L182.786 322.093L168.602 337.785V166.201L259.341 237.333Z" fill="#699CFF"/>
<path d="M409.936 166.205L319.195 237.332L409.936 337.78V166.205Z" fill="#699CFF"/>
<path d="M257.684 239.169L182.786 322.093L168.602 325.21V294.715C206.041 267.924 248.043 236.864 257.636 236.191L257.684 239.169Z" fill="#1B4DAE"/>
<path d="M320.856 239.169L395.754 322.093L409.936 325.21V294.715C372.5 267.924 330.497 236.864 320.901 236.191L320.856 239.169Z" fill="#1B4DAE"/>
<path d="M409.936 337.78H168.597L168.642 315.207L251.802 239.882C256.168 235.928 261.852 233.738 267.747 233.74H310.142C315.945 233.74 321.547 235.864 325.887 239.712L410.181 314.429L409.936 337.78Z" fill="url(#paint4_linear_2125_9648)"/>
<path opacity="0.4" d="M423.203 325.658C439.388 309.497 439.388 283.296 423.203 267.136C407.017 250.975 380.776 250.975 364.59 267.136C348.405 283.296 348.405 309.497 364.59 325.658C380.776 341.818 407.017 341.818 423.203 325.658Z" fill="#5B4DAD"/>
<path d="M435.693 325.658C451.879 309.497 451.879 283.296 435.693 267.136C419.508 250.975 393.266 250.975 377.081 267.136C360.896 283.296 360.896 309.497 377.081 325.658C393.266 341.818 419.508 341.818 435.693 325.658Z" fill="#F45757"/>
<path d="M405.501 318.822C404.52 318.822 403.55 318.617 402.654 318.219C401.758 317.821 400.956 317.239 400.3 316.512L385.637 300.345C385.046 299.674 384.743 298.798 384.794 297.905C384.844 297.013 385.245 296.177 385.909 295.577C386.572 294.977 387.445 294.662 388.34 294.7C389.234 294.738 390.078 295.126 390.688 295.78L405.35 311.945C405.373 311.973 405.404 311.995 405.439 312.007C405.474 312.02 405.512 312.022 405.548 312.014C405.584 312.01 405.619 311.996 405.648 311.974C405.677 311.951 405.699 311.921 405.712 311.886L421.495 276.01C421.866 275.197 422.543 274.562 423.379 274.243C424.216 273.925 425.144 273.947 425.963 274.306C426.783 274.666 427.428 275.332 427.759 276.162C428.091 276.993 428.081 277.92 427.734 278.743L411.95 314.62C411.397 315.867 410.493 316.928 409.349 317.674C408.204 318.419 406.867 318.817 405.501 318.819V318.822Z" fill="white"/>
<path d="M118.877 235.371L119.795 251.237C119.867 252.433 120.393 253.556 121.265 254.378C122.138 255.201 123.291 255.66 124.491 255.663H150.894C151.213 255.657 151.523 255.555 151.783 255.369C152.042 255.183 152.238 254.923 152.346 254.622C152.453 254.322 152.467 253.997 152.384 253.689C152.302 253.381 152.128 253.105 151.885 252.898L139.356 242.615L138.657 235.353C138.589 234.651 138.262 234 137.739 233.526C137.216 233.052 136.536 232.79 135.83 232.79H121.309C120.976 232.79 120.647 232.858 120.342 232.989C120.037 233.121 119.762 233.314 119.534 233.555C119.306 233.797 119.13 234.083 119.017 234.395C118.904 234.707 118.856 235.039 118.877 235.371Z" fill="#01153A"/>
<path d="M75.9314 224.76L71.8891 239.317C71.6037 240.338 71.6963 241.428 72.15 242.387C72.6036 243.345 73.388 244.109 74.3594 244.537L96.48 254.208C96.7406 254.322 97.0297 254.355 97.3093 254.302C97.589 254.249 97.8461 254.113 98.0471 253.912C98.2481 253.711 98.3836 253.454 98.4357 253.175C98.4879 252.895 98.4543 252.607 98.3394 252.347L91.2878 236.388L92.9946 229.267C93.0959 228.842 93.031 228.394 92.8132 228.015C92.5954 227.636 92.241 227.354 91.8223 227.226L78.6825 223.246C78.4023 223.163 78.1083 223.135 77.8175 223.166C77.5267 223.197 77.245 223.286 76.9889 223.427C76.7328 223.568 76.5073 223.758 76.3258 223.987C76.1442 224.216 76.0101 224.479 75.9314 224.76Z" fill="#01153A"/>
<path d="M87.69 121.308C87.69 121.308 84.2832 135.479 85.4196 166.658C85.4196 166.658 77.5438 202.268 78.6824 223.242L91.5056 227.126C100.329 207.548 109.451 189.278 113.309 172.055C115.232 165.97 115.198 159.437 113.211 153.372L105.101 128.68L87.69 121.308Z" fill="#1B4DAE"/>
<path d="M141.078 167.313L136.093 232.924L120.795 233.081C115.663 211.755 111.69 193.265 111.021 181.06C110.464 170.777 110.783 164.768 110.783 164.768C98.1328 149.859 90.6163 139.089 86.2438 131.118C79.7491 119.29 80.1466 113.605 80.872 109.592C81.8489 104.253 85.3231 97.3377 87.6721 93.0863C88.9904 90.7274 89.956 89.1847 89.956 89.1847L122.888 99.7817L118.958 113.964L118.89 114.202C118.599 115.259 118.521 116.364 118.659 117.452C118.797 118.54 119.15 119.59 119.696 120.541L136.968 150.574C139.889 155.656 141.313 161.458 141.078 167.313Z" fill="url(#paint5_linear_2125_9648)"/>
<path d="M130.415 232.772C130.456 232.115 134.516 167.001 129.697 156.637C128.85 154.816 127.415 152.493 125.751 149.803C118.789 138.546 107.154 119.704 109.597 92.5527C109.6 92.4953 109.615 92.4391 109.641 92.3877C109.666 92.3362 109.702 92.2906 109.746 92.2536C109.79 92.2166 109.841 92.189 109.897 92.1726C109.952 92.1561 110.01 92.1512 110.067 92.158C110.179 92.1683 110.283 92.2226 110.356 92.3092C110.428 92.3958 110.463 92.5076 110.453 92.6199C108.034 119.491 119.584 138.181 126.483 149.35C128.161 152.063 129.607 154.406 130.476 156.272C135.385 166.831 131.442 230.128 131.271 232.819C131.251 233.05 130.4 233.005 130.415 232.772Z" fill="#01153A"/>
<path opacity="0.6" d="M122.888 99.7817L118.958 113.964C103.81 107.74 92.9069 98.2682 87.6743 93.093C88.9926 90.7341 89.9582 89.1914 89.9582 89.1914L122.888 99.7817Z" fill="#1F3C88"/>
<path d="M128.289 240.777C128.267 240.399 128.321 240.021 128.449 239.666C128.577 239.31 128.776 238.984 129.033 238.706C129.291 238.429 129.601 238.207 129.947 238.052C130.292 237.898 130.666 237.815 131.044 237.808L138.969 237.664C139.026 237.66 139.083 237.667 139.137 237.687C139.19 237.706 139.239 237.736 139.28 237.775C139.321 237.815 139.353 237.863 139.374 237.915C139.395 237.968 139.405 238.025 139.403 238.081C139.404 238.137 139.394 238.193 139.374 238.245C139.353 238.297 139.323 238.344 139.284 238.384C139.245 238.425 139.199 238.457 139.148 238.479C139.096 238.501 139.041 238.513 138.985 238.514L131.058 238.658C130.794 238.663 130.534 238.721 130.293 238.828C130.053 238.936 129.836 239.091 129.657 239.285C129.478 239.478 129.34 239.705 129.251 239.953C129.162 240.201 129.124 240.464 129.14 240.727C129.17 241.24 129.401 241.72 129.783 242.064C130.165 242.409 130.667 242.589 131.181 242.566L139.338 242.198C139.451 242.194 139.562 242.234 139.646 242.311C139.73 242.387 139.78 242.493 139.787 242.606C139.792 242.72 139.753 242.83 139.676 242.914C139.6 242.999 139.494 243.049 139.38 243.055L131.226 243.42C130.486 243.455 129.763 243.196 129.213 242.701C128.663 242.206 128.331 241.515 128.289 240.777Z" fill="white"/>
<path d="M91.2856 236.815C91.2421 236.814 91.1989 236.808 91.1576 236.794L84.8493 234.776C84.465 234.654 84.1107 234.453 83.809 234.185C83.5073 233.918 83.2649 233.591 83.0974 233.224C82.9299 232.858 82.841 232.461 82.8364 232.058C82.8318 231.655 82.9116 231.256 83.0706 230.886C83.363 230.21 83.9029 229.671 84.58 229.379C85.257 229.088 86.0201 229.065 86.7132 229.316L92.377 231.361C92.4295 231.38 92.4777 231.409 92.5189 231.447C92.5602 231.485 92.5936 231.53 92.6172 231.58C92.6409 231.631 92.6544 231.686 92.6569 231.741C92.6594 231.797 92.6509 231.853 92.6319 231.905C92.6129 231.957 92.5837 232.006 92.546 232.047C92.5084 232.088 92.463 232.121 92.4124 232.145C92.3618 232.169 92.3071 232.182 92.2513 232.185C92.1955 232.187 92.1398 232.179 92.0873 232.16L86.4235 230.117C85.9326 229.94 85.3926 229.958 84.9144 230.166C84.4361 230.375 84.056 230.758 83.8522 231.238C83.7401 231.499 83.684 231.781 83.6875 232.065C83.691 232.349 83.754 232.63 83.8724 232.888C83.9909 233.147 84.1621 233.378 84.3752 233.566C84.5883 233.754 84.8385 233.896 85.1098 233.983L91.4158 236.001C91.5128 236.032 91.5956 236.096 91.6491 236.183C91.7026 236.269 91.7233 236.372 91.7076 236.472C91.6919 236.573 91.6407 236.664 91.5633 236.73C91.4859 236.796 91.3874 236.833 91.2856 236.832V236.815Z" fill="white"/>
<path d="M134.527 37.0314L133.912 39.323L131.46 48.5859L129.802 54.7993L115.041 49.503L122.16 34.9573L125.636 29.9458L134.527 37.0314Z" fill="#1F3C88"/>
<path d="M134.527 37.0314L133.912 39.323L131.46 48.5859L129.802 54.7993L115.041 49.503L122.16 34.9573L125.636 29.9458L134.527 37.0314Z" fill="#1F3C88"/>
<path d="M133.914 39.323L131.46 48.5859C127.112 43.8771 127.997 37.9844 127.997 37.9844L133.914 39.323Z" fill="#1F3C88"/>
<path d="M145.601 23.9925C145.601 23.9925 144.656 44.9668 134.058 43.173C123.46 41.3792 123.649 23.331 123.649 23.331L137.465 18.8958L145.601 23.9925Z" fill="#1F3C88"/>
<path d="M145.601 23.9925C145.601 23.9925 144.656 44.9668 134.058 43.173C123.46 41.3792 123.649 23.331 123.649 23.331L137.465 18.8958L145.601 23.9925Z" fill="#1F3C88"/>
<path d="M124.475 34.4549C125.591 34.2116 126.61 33.6463 127.406 32.8293C130.312 29.8538 138.118 22.6874 144.436 24.3602C145.412 24.6134 146.446 24.5133 147.355 24.0776C147.898 23.822 148.545 23.5148 149.221 23.1807C151.73 21.9318 152.466 18.8979 149.731 16.5974C145.282 12.855 135.915 8.59913 129.12 14.1308C129.12 14.1308 111.944 17.8867 122.158 34.9639L124.475 34.4549Z" fill="#1F3C88"/>
<path d="M131.663 31.3208C133.441 31.0376 134.619 29.1584 134.294 27.1235C133.969 25.0885 132.264 23.6684 130.486 23.9515C128.707 24.2347 127.529 26.1139 127.854 28.1488C128.179 30.1838 129.884 31.6039 131.663 31.3208Z" fill="#1F3C88"/>
<path d="M131.663 31.3208C133.441 31.0376 134.619 29.1584 134.294 27.1235C133.969 25.0885 132.264 23.6684 130.486 23.9515C128.707 24.2347 127.529 26.1139 127.854 28.1488C128.179 30.1838 129.884 31.6039 131.663 31.3208Z" fill="#1F3C88"/>
<path d="M145.949 34.8777C146.116 33.8471 145.414 32.8765 144.382 32.7098C143.35 32.5431 142.378 33.2434 142.211 34.2739C142.044 35.3045 142.745 36.2751 143.777 36.4418C144.809 36.6085 145.782 35.9082 145.949 34.8777Z" fill="#1F3C88"/>
<path d="M145.949 34.8777C146.116 33.8471 145.414 32.8765 144.382 32.7098C143.35 32.5431 142.378 33.2434 142.211 34.2739C142.044 35.3045 142.745 36.2751 143.777 36.4418C144.809 36.6085 145.782 35.9082 145.949 34.8777Z" fill="#1F3C88"/>
<path d="M136.753 35.9035C138.556 35.9035 140.018 34.4438 140.018 32.6432C140.018 30.8426 138.556 29.3829 136.753 29.3829C134.949 29.3829 133.488 30.8426 133.488 32.6432C133.488 34.4438 134.949 35.9035 136.753 35.9035Z" fill="#1F3C88"/>
<path d="M134.527 37.0314L133.912 39.323L131.46 48.5859L129.802 54.7993L115.041 49.503L122.16 34.9573L125.636 29.9458L134.527 37.0314Z" fill="#F4D8C7"/>
<path opacity="0.4" d="M133.914 39.323L131.46 48.5859C127.112 43.8771 127.997 37.9844 127.997 37.9844L133.914 39.323Z" fill="#102048"/>
<path d="M145.601 23.9925C145.601 23.9925 144.656 44.9668 134.058 43.173C123.46 41.3792 123.649 23.331 123.649 23.331L137.465 18.8958L145.601 23.9925Z" fill="#F4D8C7"/>
<path d="M124.475 34.4549C125.591 34.2116 126.61 33.6463 127.406 32.8293C130.312 29.8538 138.118 22.6874 144.436 24.3602C145.412 24.6134 146.446 24.5133 147.355 24.0776C147.898 23.822 148.545 23.5148 149.221 23.1807C151.73 21.9318 152.466 18.8979 149.731 16.5974C145.282 12.855 135.915 8.59913 129.12 14.1308C129.12 14.1308 111.944 17.8867 122.158 34.9639L124.475 34.4549Z" fill="#01153A"/>
<path d="M131.663 31.3208C133.441 31.0376 134.619 29.1584 134.294 27.1235C133.969 25.0885 132.264 23.6684 130.486 23.9515C128.707 24.2347 127.529 26.1139 127.854 28.1488C128.179 30.1838 129.884 31.6039 131.663 31.3208Z" fill="#F4D8C7"/>
<path d="M145.949 34.8777C146.116 33.8471 145.414 32.8765 144.382 32.7098C143.35 32.5431 142.378 33.2434 142.211 34.2739C142.044 35.3045 142.745 36.2751 143.777 36.4418C144.809 36.6085 145.782 35.9082 145.949 34.8777Z" fill="#F4D8C7"/>
<path opacity="0.19" d="M136.753 35.9035C138.556 35.9035 140.018 34.4438 140.018 32.6432C140.018 30.8426 138.556 29.3829 136.753 29.3829C134.949 29.3829 133.488 30.8426 133.488 32.6432C133.488 34.4438 134.949 35.9035 136.753 35.9035Z" fill="url(#paint6_radial_2125_9648)"/>
<path d="M197.48 67.1923C197.48 67.1923 202.209 66.6901 195.618 71.585C195.618 71.585 200.981 71.0311 187.655 75.4933C186.442 75.8991 185.054 76.2983 183.464 76.7288L180.32 65.4075C180.32 65.4075 200.193 56.9922 200.682 59.0999C201.172 61.2077 197.201 64.0554 197.201 64.0554C197.201 64.0554 203.822 62.8647 197.48 67.1923Z" fill="#F4D8C7"/>
<path d="M180.327 65.4075L156.578 65.9479C156.578 65.9479 123.364 42.3277 116.552 44.5946C109.741 46.8616 86.7445 83.7091 86.7445 83.7091C86.7445 83.7091 80.4991 85.6935 80.782 88.2452C81.065 90.7969 121.376 111.666 126.77 106.385C130.161 103.058 134.058 76.5292 134.058 76.5292L148.049 83.2292C152.403 85.0365 157.337 86.9671 161.934 85.9199L184.888 81.0497L180.327 65.4075Z" fill="#FFAD61"/>
<g opacity="0.8">
<path d="M179.146 79.1774C178.353 76.0831 177.574 73.0627 176.875 70.159C176.68 69.3495 176.5 68.5243 176.32 67.6925C176.168 66.9906 176.02 66.2081 175.856 65.5062L174.957 65.5264C175.128 66.2507 175.335 67.1453 175.492 67.8718C175.674 68.7082 175.853 69.5401 176.053 70.3563C176.756 73.2713 177.531 76.2871 178.326 79.386C178.568 80.33 178.775 81.348 179 82.3009L179.929 82.1036C179.685 81.1439 179.39 80.1304 179.146 79.1774Z" fill="white"/>
<path d="M138.682 54.1535C138.331 54.2297 137.981 54.3082 137.629 54.3777C131.233 55.7096 124.379 56.7859 117.695 55.6558C114.448 55.1242 111.333 53.9781 108.517 52.2789L107.978 52.9516C110.91 54.7421 114.162 55.949 117.554 56.5056C124.385 57.6582 131.325 56.5684 137.804 55.2208C138.446 55.0885 139.088 54.945 139.731 54.8082L138.682 54.1535Z" fill="white"/>
<path d="M129.829 94.9945C127.907 95.1537 125.919 95.3174 123.99 95.138C118.32 94.6111 113.289 91.0884 109.999 88.4829C108.831 87.5613 107.688 86.6016 106.547 85.6442C103.648 83.2046 100.634 80.682 97.2658 78.803C95.4184 77.7695 93.4412 76.9867 91.3864 76.4755C91.218 76.7311 91.0608 76.9733 90.9014 77.2199C92.9838 77.7124 94.9865 78.4952 96.8503 79.5452C100.163 81.3861 103.138 83.8817 106.011 86.2944C107.158 87.2586 108.308 88.2228 109.48 89.1511C112.849 91.8217 118.014 95.4295 123.923 95.9856C125.928 96.1695 127.965 96.0035 129.912 95.8421C130.108 95.8264 130.301 95.8174 130.494 95.8017C130.561 95.5147 130.626 95.2255 130.691 94.9362C130.404 94.9586 130.121 94.9698 129.829 94.9945Z" fill="white"/>
</g>
<path d="M134.058 76.5293L128.077 73.9103C128.077 73.9103 129.605 83.3951 132.488 84.7517L134.058 76.5293Z" fill="#E49B31"/>
<path opacity="0.2" d="M187.655 75.4933C186.44 75.8902 185.054 76.2983 183.464 76.7288L180.32 65.4075L187.655 75.4933Z" fill="#102048"/>
<path d="M450.604 173.652L461.301 178.843L470.059 144.657L461.301 142.255C457.708 150.265 454.056 160.514 450.604 173.652Z" fill="#F4D8C7"/>
<path d="M461.582 142.993L474.879 145.818L486.467 114.036C486.467 114.036 470.578 112.289 459.435 138.889C459.263 139.297 459.184 139.737 459.203 140.179C459.222 140.621 459.337 141.053 459.542 141.445C459.747 141.837 460.037 142.179 460.389 142.446C460.741 142.714 461.149 142.9 461.582 142.993Z" fill="#1243A3"/>
<path d="M444.831 161.842L434.801 189.431L472.274 203.79L479.844 175.069L444.831 161.842Z" fill="#01153A"/>
<path d="M455.608 197.72C455.305 198.22 454.795 198.714 453.602 198.996C452.463 199.259 451.273 199.213 450.157 198.864C448.873 198.471 448.489 197.947 446.441 196.637C445.158 195.431 444.48 193.946 445.199 192.514C446.575 189.758 448.707 185.874 449.722 186.027C450.993 186.22 450.072 190.144 450.072 190.144C450.072 190.144 452.194 185.166 454.206 185.823C455.105 186.119 452.947 190.857 452.729 191.357C453.068 190.908 455.758 187.287 456.789 188.045C457.82 188.803 455.311 193.092 455.044 193.545C455.334 193.182 457.699 190.336 458.862 191.276C459.351 191.693 458.065 193.657 455.608 197.72Z" fill="#F4D8C7"/>
<path d="M527.534 293.547C527.534 293.547 545.702 291.562 553.36 274.839L533.205 275.974L527.534 293.547Z" fill="#102048"/>
<path d="M547.315 275.039L530.184 285.8L539.421 296.332L551.469 288.134L547.315 275.039Z" fill="#F4D8C7"/>
<path d="M564.079 299.794L556.567 288.504C556.337 288.157 556.04 287.86 555.694 287.629C555.348 287.398 554.959 287.238 554.55 287.159C554.142 287.079 553.721 287.081 553.313 287.165C552.905 287.249 552.518 287.413 552.174 287.647L539.421 296.323C539.236 296.448 539.078 296.608 538.956 296.795C538.833 296.981 538.749 297.19 538.707 297.409C538.665 297.628 538.667 297.853 538.713 298.072C538.758 298.29 538.846 298.497 538.972 298.681L539.589 299.578C540.426 300.798 540.822 302.266 540.712 303.74L537.016 321.261C536.985 321.661 537.073 322.062 537.269 322.413C537.464 322.763 537.759 323.049 538.116 323.233C538.473 323.418 538.877 323.493 539.276 323.451C539.676 323.408 540.055 323.248 540.364 322.992L563.495 303.751C564.063 303.279 564.437 302.614 564.544 301.884C564.652 301.154 564.486 300.409 564.079 299.794Z" fill="#01153A"/>
<path d="M540.609 302.063C540.509 301.624 540.38 301.191 540.223 300.769L548.81 300.504C548.96 300.5 549.106 300.554 549.217 300.655C549.327 300.757 549.393 300.897 549.401 301.047C549.408 301.198 549.354 301.346 549.253 301.459C549.151 301.571 549.009 301.639 548.858 301.648L540.609 302.063Z" fill="white"/>
<path d="M497.003 305.581L478.896 304.507L480.924 319.831L495.577 318.902L497.003 305.581Z" fill="#F4D8C7"/>
<path d="M478.896 321.358V323.6L466.381 335.323C466.164 335.539 466.016 335.814 465.956 336.114C465.896 336.414 465.926 336.725 466.043 337.008C466.16 337.29 466.359 337.532 466.614 337.702C466.868 337.872 467.168 337.962 467.474 337.962H498.03C498.48 337.962 498.926 337.867 499.337 337.683C499.748 337.5 500.116 337.231 500.416 336.896C500.716 336.561 500.942 336.166 501.08 335.738C501.217 335.31 501.262 334.857 501.212 334.41L499.714 320.956C499.645 320.339 499.341 319.771 498.864 319.372C498.388 318.972 497.775 318.771 497.154 318.811L480.295 319.88C479.918 319.903 479.563 320.069 479.304 320.343C479.044 320.618 478.898 320.98 478.896 321.358Z" fill="#01153A"/>
<path d="M485.833 328.804L478.144 324.344L478.898 323.591L486.397 327.827C486.462 327.863 486.519 327.912 486.565 327.971C486.611 328.03 486.645 328.097 486.665 328.169C486.684 328.241 486.689 328.317 486.68 328.391C486.67 328.465 486.646 328.536 486.608 328.6C486.571 328.665 486.521 328.721 486.462 328.766C486.403 328.811 486.335 328.844 486.263 328.863C486.191 328.882 486.116 328.886 486.042 328.876C485.969 328.866 485.897 328.842 485.833 328.804Z" fill="white"/>
<path d="M497.046 206.983C496.75 214.013 496.694 221.428 496.822 228.899C496.934 235.384 497.172 241.916 497.513 248.297C498.829 273.799 501.531 296.955 502.539 305.045C502.641 305.855 502.417 306.672 501.916 307.317C501.415 307.962 500.678 308.382 499.867 308.485L477.05 311.4C476.078 311.525 475.097 311.262 474.318 310.668C473.54 310.074 473.028 309.198 472.893 308.229C459.742 213.262 472.943 170.028 472.943 170.028L481.355 170.546L492.779 168.221L505.58 165.613C505.42 165.851 505.263 166.102 505.115 166.362C503.161 169.548 501.618 173.788 500.426 178.822C498.555 186.668 497.511 196.395 497.046 206.983Z" fill="url(#paint7_linear_2125_9648)"/>
<path d="M497.511 248.297C485.135 222.029 489.779 201.146 489.779 201.146L497.046 206.976C496.75 214.006 496.694 221.421 496.822 228.893C496.932 235.384 497.17 241.916 497.511 248.297Z" fill="#1F3C88"/>
<path d="M553.376 274.839C539.183 280.221 527.55 293.547 527.55 293.547C515.297 271.927 504.839 250.214 496.835 228.899C490.17 211.167 485.207 193.709 482.334 176.815C481.982 174.717 481.661 172.631 481.369 170.557C481.335 170.364 481.301 170.16 481.279 169.968L492.793 168.232L505.144 166.373L511.378 165.431C512.052 169.4 512.951 173.551 514.024 177.825C524.741 220.5 553.376 274.839 553.376 274.839Z" fill="url(#paint8_linear_2125_9648)"/>
<path opacity="0.6" d="M512.973 186.691C504.987 182.049 503.622 173.179 507.105 176.152C520.081 187.206 515.255 187.204 512.973 186.691Z" fill="#1F3C88"/>
<path opacity="0.4" d="M513.999 177.825C509.519 178.597 504.975 178.935 500.431 178.834C494.346 178.694 488.285 178.019 482.319 176.816C474.075 175.194 472.026 173.676 472.026 173.676L481.353 170.562C481.319 170.369 481.286 170.165 481.263 169.972L492.777 168.237L505.578 165.629C505.418 165.866 505.261 166.118 505.113 166.378L511.347 165.436C512.023 169.4 512.919 173.553 513.999 177.825Z" fill="#1F3C88"/>
<path d="M496.366 229.745C496.248 229.745 496.134 229.709 496.038 229.642C495.942 229.574 495.87 229.478 495.831 229.368L487.991 206.21L477.771 200.398C477.704 200.361 477.645 200.311 477.598 200.251C477.55 200.191 477.516 200.122 477.496 200.048C477.476 199.974 477.471 199.897 477.482 199.821C477.492 199.746 477.518 199.673 477.558 199.607C477.597 199.542 477.65 199.485 477.712 199.44C477.774 199.396 477.844 199.364 477.919 199.347C477.994 199.33 478.071 199.328 478.146 199.342C478.221 199.356 478.293 199.385 478.357 199.427L488.923 205.447L496.898 228.991C496.923 229.061 496.934 229.136 496.931 229.21C496.927 229.284 496.909 229.357 496.877 229.425C496.845 229.492 496.8 229.552 496.745 229.602C496.689 229.652 496.625 229.691 496.554 229.715C496.494 229.737 496.43 229.747 496.366 229.745Z" fill="#1B4DAE"/>
<path d="M516.18 169.831C500.886 175.638 476.785 174.152 467.926 173.347C467.02 173.266 466.182 172.833 465.594 172.14C465.006 171.448 464.714 170.552 464.782 169.647C465.956 153.549 467.447 118.016 487.217 113.28L496.732 114.278C501.717 116.227 505.612 123.664 508.542 132.497C510.303 137.757 511.711 143.517 512.823 148.912C515.169 160.193 516.18 169.831 516.18 169.831Z" fill="#1B4DAE"/>
<path d="M512.829 148.912C502.402 145.648 498.32 128.315 498.32 128.315L508.026 129.053C509.786 134.313 511.718 143.518 512.829 148.912Z" fill="#01153A"/>
<path d="M533.342 161.797C533.82 161.101 534.29 160.42 534.736 159.707C535.563 158.386 536.414 156.832 536.517 155.274C536.677 152.971 536.34 150.648 535.257 148.677C534.359 147.024 533.268 145.648 531.752 143.93C526.67 138.181 511.727 120.978 511.727 120.978L508.517 137.376C508.517 137.376 518.924 147.809 522.407 151.094C523.265 151.904 525.028 153.863 523.104 156.581C519.225 162.052 505.326 177.38 506.016 178.125C506.746 178.932 509.683 176.058 510.173 175.481C509.499 176.47 504.334 183.87 505.315 184.919C506.083 185.758 509.059 183.284 509.357 182.977C509.061 183.426 505.497 187.401 506.99 188.547C507.68 189.074 511.033 184.565 511.318 184.141C511.134 184.589 509.005 188.957 510.166 189.343C511.327 189.729 512.564 185.038 512.822 184.556C512.679 184.957 508.78 189.404 510.173 189.778C511.989 190.285 527.775 169.815 533.342 161.797Z" fill="#F4D8C7"/>
<path d="M497.749 114.182C496.414 119.474 496.642 125.04 498.405 130.206C500.167 135.372 503.389 139.919 507.682 143.298L507.949 143.506C508.3 143.783 508.703 143.985 509.134 144.101C509.565 144.217 510.015 144.244 510.457 144.182C510.899 144.119 511.324 143.967 511.705 143.735C512.087 143.503 512.417 143.197 512.677 142.834L521.037 131.093C521.635 130.255 521.909 129.23 521.809 128.206C521.709 127.182 521.241 126.229 520.492 125.523C507.898 113.684 497.749 114.182 497.749 114.182Z" fill="#1B4DAE"/>
<path opacity="0.19" d="M533.562 146.076C534.543 147.272 535.304 148.632 535.808 150.094C536.571 152.271 536.589 154.579 536.194 156.803C535.821 156.85 535.443 156.846 535.071 156.79C533.842 156.645 532.695 156.099 531.81 155.235C530.925 154.371 530.351 153.24 530.178 152.016C530.005 150.793 530.242 149.546 530.853 148.472C531.464 147.397 532.414 146.555 533.555 146.076H533.562Z" fill="url(#paint9_radial_2125_9648)"/>
<path d="M484.975 169.154C476.583 169.154 469.062 168.618 465.375 168.304L464.925 168.266C464.814 168.262 464.708 168.214 464.631 168.133C464.555 168.052 464.513 167.944 464.514 167.833C464.516 167.722 464.56 167.616 464.639 167.538C464.717 167.46 464.824 167.416 464.934 167.416C464.964 167.416 465.139 167.429 465.442 167.456C473.848 168.176 502.272 170.053 515.142 164.055C515.245 164.007 515.362 164.002 515.468 164.041C515.574 164.08 515.661 164.159 515.708 164.261C515.733 164.311 515.746 164.366 515.749 164.422C515.752 164.478 515.743 164.534 515.724 164.587C515.705 164.639 515.675 164.688 515.637 164.729C515.599 164.77 515.553 164.803 515.502 164.826C508.143 168.257 495.829 169.154 484.975 169.154Z" fill="#86A7FF"/>
<path d="M489.433 126.169C484.917 126.169 482.92 123.191 482.891 123.146C482.83 123.052 482.809 122.937 482.832 122.827C482.856 122.716 482.922 122.62 483.017 122.559C483.112 122.498 483.227 122.476 483.337 122.5C483.447 122.524 483.544 122.59 483.605 122.684C483.754 122.909 487.317 128.138 496.296 123.297C496.345 123.27 496.399 123.254 496.455 123.248C496.51 123.243 496.567 123.248 496.62 123.264C496.673 123.28 496.723 123.307 496.767 123.342C496.81 123.378 496.846 123.421 496.872 123.47C496.898 123.52 496.915 123.573 496.92 123.629C496.926 123.684 496.92 123.741 496.904 123.794C496.888 123.847 496.862 123.897 496.826 123.94C496.791 123.983 496.747 124.019 496.698 124.046C493.783 125.617 491.376 126.169 489.433 126.169Z" fill="#86A7FF"/>
<path d="M504.381 78.7335C506.766 77.3881 509.995 77.2737 512.099 79.007C513.202 79.9039 513.91 81.2067 514.931 82.1978C517.125 84.3257 520.546 84.8616 522.641 87.0792C524.262 88.7924 524.844 91.2925 524.68 93.6447C524.516 95.9968 523.69 98.2503 522.812 100.439C521.556 103.565 520.117 106.74 517.599 108.993C516.64 109.852 515.517 110.563 514.262 110.859C513.007 111.155 511.603 110.962 510.581 110.186C509.503 109.356 508.973 107.971 508.879 106.616C508.785 105.262 509.074 103.912 509.362 102.58C509.707 102.792 510.104 102.902 510.509 102.898C510.914 102.894 511.309 102.776 511.65 102.559C511.991 102.341 512.263 102.031 512.436 101.666C512.609 101.3 512.675 100.894 512.627 100.493C512.466 99.1472 511.129 98.2907 509.932 97.6359L503.981 94.3824C502.82 93.7456 501.634 93.0908 500.761 92.0975C499.301 90.4382 498.131 86.79 499.097 84.6979C500.17 82.3682 502.14 79.9914 504.381 78.7335Z" fill="#E8A26D"/>
<path d="M481.751 92.241C481.062 91.1593 480.671 89.9153 480.618 88.6346C480.565 87.3539 480.851 86.0818 481.447 84.9468C483.264 81.5318 487.511 77.7715 497.424 79.8613C500.23 80.4502 502.746 81.9932 504.54 84.2271C507.26 87.5905 509 101.717 501.228 105.627C493.727 109.408 485.254 97.7906 481.751 92.241Z" fill="#E2926C"/>
<path d="M498.147 101.091L497.76 114.581C497.711 116.233 497.042 117.807 495.885 118.989C494.728 120.172 493.168 120.877 491.515 120.965C491.403 120.965 491.29 120.965 491.176 120.965C490.262 120.963 489.359 120.771 488.524 120.403C487.688 120.035 486.938 119.498 486.321 118.825C485.704 118.153 485.234 117.36 484.939 116.496C484.645 115.633 484.534 114.718 484.612 113.809L484.634 113.585L485.521 103.336L486.644 103.132L498.147 101.091Z" fill="#F4D8C7"/>
<path opacity="0.4" d="M492.424 105.91C490.838 109.327 488.073 112.06 484.634 113.608L485.521 103.358L486.644 103.154L492.424 105.91Z" fill="#102048"/>
<path d="M480.839 89.7542C480.839 89.7542 476.572 107.468 485.523 108.318C494.475 109.168 498.156 101.091 498.156 101.091L499.29 91.0301L493.756 83.0924L484.955 85.7832L480.839 89.7542Z" fill="#F4D8C7"/>
<path d="M480.839 89.7543C480.839 89.7543 489.065 85.1464 492.052 91.3239C494.133 95.6223 497.304 97.9857 500.426 96.5686C503.548 95.1515 500.994 84.9468 500.994 84.9468L489.354 81.9713L482.393 85.9379L480.839 89.7543Z" fill="#E2926C"/>
<path d="M500.825 98.5519C501.898 96.6955 501.522 94.4723 499.985 93.5862C498.448 92.7001 496.332 93.4867 495.259 95.3432C494.185 97.1996 494.561 99.4229 496.098 100.309C497.635 101.195 499.751 100.408 500.825 98.5519Z" fill="#F4D8C7"/>
<path d="M497.158 98.4925H497.138C497.064 98.4867 496.994 98.4516 496.945 98.3949C496.897 98.3381 496.872 98.2644 496.878 98.1898C496.95 97.183 497.585 95.2748 499.478 95.2748C499.549 95.2811 499.615 95.3137 499.663 95.3662C499.712 95.4187 499.738 95.4873 499.738 95.5584C499.738 95.6296 499.712 95.6982 499.663 95.7507C499.615 95.8032 499.549 95.8358 499.478 95.8421C497.641 95.8421 497.457 98.127 497.441 98.2234C497.438 98.296 497.407 98.3644 497.354 98.4145C497.301 98.4646 497.231 98.4925 497.158 98.4925Z" fill="#102048"/>
<path d="M482.107 96.156C482.107 96.5574 481.867 97.1202 481.467 97.1202C481.068 97.1202 480.836 96.5574 480.836 96.156C480.836 95.7547 481.061 95.1941 481.467 95.1941C481.874 95.1941 482.107 95.7569 482.107 96.156Z" fill="#102048"/>
<path d="M487.708 96.0977C487.708 96.5461 487.455 97.1202 487.01 97.1202C486.565 97.1202 486.336 96.5416 486.336 96.0977C486.336 95.6537 486.561 95.0752 487.01 95.0752C487.459 95.0752 487.708 95.6537 487.708 96.0977Z" fill="#102048"/>
<path d="M483.707 100.528C483.073 100.477 482.75 100.161 482.431 99.8446C481.726 98.9611 483.619 96.5977 483.884 96.6C484.041 96.6 483.999 96.8242 483.906 96.9565C483.215 97.9252 482.334 99.1338 482.687 99.5777C483.563 100.661 484.432 100.176 484.259 100.405C484.09 100.497 483.899 100.539 483.707 100.528Z" fill="#102048"/>
<path opacity="0.19" d="M492.01 101.642C493.304 101.107 493.919 99.6244 493.383 98.3316C492.847 97.0387 491.362 96.4248 490.067 96.9603C488.773 97.4958 488.158 98.978 488.694 100.271C489.23 101.564 490.715 102.178 492.01 101.642Z" fill="url(#paint10_radial_2125_9648)"/>
<path d="M484.059 102.979C483.565 102.969 483.082 102.832 482.658 102.58C482.628 102.566 482.603 102.545 482.582 102.52C482.562 102.494 482.547 102.465 482.539 102.433C482.531 102.402 482.53 102.369 482.536 102.337C482.543 102.305 482.556 102.275 482.575 102.248C482.626 102.194 482.695 102.159 482.769 102.149C482.843 102.138 482.919 102.153 482.983 102.19C483.044 102.221 483.949 102.932 485.665 102.259C486.031 102.082 486.384 101.878 486.72 101.65H486.749C485.912 102.567 484.757 102.979 484.059 102.979Z" fill="#102048"/>
<path d="M483.057 94.5168C482.566 94.3397 482.143 94.1401 481.665 94.1446C481.41 94.1567 481.156 94.1904 480.906 94.2455C480.7 94.3081 480.499 94.3884 480.306 94.4854H480.277C480.19 94.5213 480.035 94.5796 479.999 94.4854C479.982 94.4422 479.982 94.3942 479.999 94.3509C480.128 94.049 480.352 93.7972 480.636 93.6334C480.936 93.4723 481.273 93.3949 481.613 93.4091C481.929 93.4262 482.238 93.5092 482.519 93.6529C482.801 93.7966 483.049 93.9977 483.248 94.2433C483.27 94.2713 483.282 94.3051 483.283 94.3403C483.285 94.3754 483.276 94.4102 483.257 94.44C483.238 94.4697 483.211 94.493 483.178 94.5068C483.146 94.5205 483.11 94.524 483.075 94.5168H483.057Z" fill="#102048"/>
<path d="M485.162 94.2725C485.367 93.9248 485.653 93.6308 485.994 93.4145C486.336 93.1982 486.724 93.0657 487.127 93.028C487.551 92.9977 487.975 93.092 488.346 93.2993C488.693 93.4954 488.983 93.7792 489.186 94.1223C489.209 94.1613 489.216 94.2079 489.205 94.252C489.194 94.296 489.166 94.334 489.128 94.3577C489.104 94.3715 489.078 94.3798 489.05 94.3817C489.023 94.3836 488.996 94.3793 488.97 94.3689C488.678 94.1858 488.371 94.0276 488.052 93.8958C487.77 93.7998 487.472 93.7587 487.174 93.7747C486.594 93.7859 485.377 94.5057 485.377 94.5057C485.346 94.5207 485.311 94.5256 485.276 94.5197C485.242 94.5138 485.21 94.4975 485.186 94.4729C485.161 94.4483 485.145 94.4167 485.139 94.3824C485.133 94.3481 485.138 94.3129 485.153 94.2815L485.162 94.2725Z" fill="#102048"/>
<path d="M598 337H0V338H598V337Z" fill="#838799"/>
<path d="M506.945 181.264C507.071 181.301 507.18 181.379 507.255 181.485C507.331 181.592 507.367 181.721 507.359 181.852C507.166 185.271 507.55 187.931 507.662 190.166C508.32 203.499 543.843 273.344 544.2 274.048C544.265 274.155 544.287 274.283 544.26 274.405C544.233 274.527 544.16 274.635 544.056 274.705L544.034 274.716C543.921 274.754 543.798 274.748 543.69 274.699C543.581 274.65 543.496 274.561 543.45 274.451C541.981 271.568 507.451 203.669 506.779 190.088C506.667 187.794 506.283 185.107 506.478 181.657C506.494 181.385 506.579 181.273 506.871 181.262L506.945 181.264Z" fill="#01153A"/>
<path d="M505.27 177.058C506.811 180.52 510.467 187.076 516.066 187.148L516.807 191.482C517.001 192.612 516.885 193.774 516.471 194.843C516.057 195.913 515.36 196.851 514.455 197.557C512.707 198.921 510.536 199.634 508.317 199.571C506.099 199.508 503.972 198.673 502.304 197.211C499.725 194.949 497.511 192.319 498.201 190.368C499.29 187.291 502.099 180.52 503.546 177.069C503.617 176.9 503.736 176.756 503.889 176.654C504.042 176.552 504.221 176.497 504.404 176.496C504.588 176.495 504.768 176.548 504.921 176.647C505.075 176.747 505.197 176.89 505.27 177.058Z" fill="#4E8AFE"/>
<path opacity="0.4" d="M516.065 187.152L517.862 193.175C518.055 194.305 517.939 195.467 517.525 196.536C517.111 197.606 516.415 198.543 515.511 199.25C511.904 202.066 498.78 198.83 503.359 198.904C525.345 199.254 514.368 190.209 516.065 187.152Z" fill="#1F3C88"/>
<path opacity="0.2" d="M520.813 131.42L522.61 133.477C522.61 133.477 519.178 143.484 516.463 145.284L515.226 144.056L513.225 142.069L520.813 131.42Z" fill="#2C2C2A"/>
<path opacity="0.2" d="M461.027 142.874L460.095 145.031C460.095 145.031 464.948 147.412 467.057 146.859L467.506 144.249L461.027 142.874Z" fill="#2C2C2A"/>
<path opacity="0.2" d="M532.554 288.502C538.413 282.389 548.022 277.274 548.022 277.274L549.327 281.385C538.514 282.124 535.038 291.547 535.038 291.547L532.554 288.502Z" fill="#2C2C2A"/>
<path opacity="0.2" d="M479.765 311.063L480.25 314.73C480.25 314.73 482.743 312.974 488.207 312.458C492.004 312.102 496.188 313.198 496.188 313.198L496.649 308.897L479.765 311.063Z" fill="#2C2C2A"/>
<defs>
<linearGradient id="paint0_linear_2125_9648" x1="0.112862" y1="168.924" x2="598.276" y2="168.924" gradientUnits="userSpaceOnUse">
<stop stop-color="#FEF3F3"/>
<stop offset="0.16" stop-color="#FFFDF3"/>
<stop offset="0.33" stop-color="#F1F8F1"/>
<stop offset="0.5" stop-color="#F1F9FC"/>
<stop offset="0.67" stop-color="#F3F1F9"/>
<stop offset="0.83" stop-color="#FBF2F8"/>
<stop offset="1" stop-color="#FDEFF0"/>
</linearGradient>
<linearGradient id="paint1_linear_2125_9648" x1="0.112862" y1="168.924" x2="598.276" y2="168.924" gradientUnits="userSpaceOnUse">
<stop stop-color="#FEF3F3"/>
<stop offset="0.16" stop-color="#FFFDF3"/>
<stop offset="0.33" stop-color="#F1F8F1"/>
<stop offset="0.5" stop-color="#F1F9FC"/>
<stop offset="0.67" stop-color="#F3F1F9"/>
<stop offset="0.83" stop-color="#FBF2F8"/>
<stop offset="1" stop-color="#FDEFF0"/>
</linearGradient>
<linearGradient id="paint2_linear_2125_9648" x1="0.112862" y1="168.924" x2="598.276" y2="168.924" gradientUnits="userSpaceOnUse">
<stop stop-color="#FEF3F3"/>
<stop offset="0.16" stop-color="#FFFDF3"/>
<stop offset="0.33" stop-color="#F1F8F1"/>
<stop offset="0.5" stop-color="#F1F9FC"/>
<stop offset="0.67" stop-color="#F3F1F9"/>
<stop offset="0.83" stop-color="#FBF2F8"/>
<stop offset="1" stop-color="#FDEFF0"/>
</linearGradient>
<linearGradient id="paint3_linear_2125_9648" x1="0.112862" y1="168.924" x2="598.276" y2="168.924" gradientUnits="userSpaceOnUse">
<stop stop-color="#FEF3F3"/>
<stop offset="0.16" stop-color="#FFFDF3"/>
<stop offset="0.33" stop-color="#F1F8F1"/>
<stop offset="0.5" stop-color="#F1F9FC"/>
<stop offset="0.67" stop-color="#F3F1F9"/>
<stop offset="0.83" stop-color="#FBF2F8"/>
<stop offset="1" stop-color="#FDEFF0"/>
</linearGradient>
<linearGradient id="paint4_linear_2125_9648" x1="289.389" y1="233.74" x2="289.389" y2="337.78" gradientUnits="userSpaceOnUse">
<stop stop-color="#699CFF"/>
<stop offset="1" stop-color="#397AF9"/>
</linearGradient>
<linearGradient id="paint5_linear_2125_9648" x1="110.793" y1="89.1847" x2="110.793" y2="233.081" gradientUnits="userSpaceOnUse">
<stop stop-color="#5B93FF"/>
<stop offset="1" stop-color="#0D5BF3"/>
</linearGradient>
<radialGradient id="paint6_radial_2125_9648" cx="0" cy="0" r="1" gradientUnits="userSpaceOnUse" gradientTransform="translate(136.753 32.6432) scale(3.26531 3.26028)">
<stop stop-color="#F0886D"/>
<stop offset="0.25" stop-color="#F0886D" stop-opacity="0.99"/>
<stop offset="0.39" stop-color="#F08A6E" stop-opacity="0.96"/>
<stop offset="0.5" stop-color="#F18C6F" stop-opacity="0.9"/>
<stop offset="0.6" stop-color="#F19071" stop-opacity="0.82"/>
<stop offset="0.69" stop-color="#F29474" stop-opacity="0.71"/>
<stop offset="0.77" stop-color="#F39A77" stop-opacity="0.58"/>
<stop offset="0.85" stop-color="#F3A07A" stop-opacity="0.43"/>
<stop offset="0.92" stop-color="#F5A87E" stop-opacity="0.25"/>
<stop offset="0.98" stop-color="#F6B083" stop-opacity="0.05"/>
<stop offset="1" stop-color="#F6B284" stop-opacity="0"/>
</radialGradient>
<linearGradient id="paint7_linear_2125_9648" x1="486.32" y1="165.613" x2="486.32" y2="311.43" gradientUnits="userSpaceOnUse">
<stop stop-color="#5B93FF"/>
<stop offset="1" stop-color="#0D5BF3"/>
</linearGradient>
<linearGradient id="paint8_linear_2125_9648" x1="517.327" y1="165.431" x2="517.327" y2="293.547" gradientUnits="userSpaceOnUse">
<stop stop-color="#5B93FF"/>
<stop offset="1" stop-color="#0D5BF3"/>
</linearGradient>
<radialGradient id="paint9_radial_2125_9648" cx="0" cy="0" r="1" gradientUnits="userSpaceOnUse" gradientTransform="translate(533.292 151.458) scale(4.41737 4.41057)">
<stop stop-color="#F0886D"/>
<stop offset="0.25" stop-color="#F0886D" stop-opacity="0.99"/>
<stop offset="0.39" stop-color="#F08A6E" stop-opacity="0.96"/>
<stop offset="0.5" stop-color="#F18C6F" stop-opacity="0.9"/>
<stop offset="0.6" stop-color="#F19071" stop-opacity="0.82"/>
<stop offset="0.69" stop-color="#F29474" stop-opacity="0.71"/>
<stop offset="0.77" stop-color="#F39A77" stop-opacity="0.58"/>
<stop offset="0.85" stop-color="#F3A07A" stop-opacity="0.43"/>
<stop offset="0.92" stop-color="#F5A87E" stop-opacity="0.25"/>
<stop offset="0.98" stop-color="#F6B083" stop-opacity="0.05"/>
<stop offset="1" stop-color="#F6B284" stop-opacity="0"/>
</radialGradient>
<radialGradient id="paint10_radial_2125_9648" cx="0" cy="0" r="1" gradientUnits="userSpaceOnUse" gradientTransform="translate(491.038 99.3017) scale(2.53767 2.53378)">
<stop stop-color="#F0886D"/>
<stop offset="0.25" stop-color="#F0886D" stop-opacity="0.99"/>
<stop offset="0.39" stop-color="#F08A6E" stop-opacity="0.96"/>
<stop offset="0.5" stop-color="#F18C6F" stop-opacity="0.9"/>
<stop offset="0.6" stop-color="#F19071" stop-opacity="0.82"/>
<stop offset="0.69" stop-color="#F29474" stop-opacity="0.71"/>
<stop offset="0.77" stop-color="#F39A77" stop-opacity="0.58"/>
<stop offset="0.85" stop-color="#F3A07A" stop-opacity="0.43"/>
<stop offset="0.92" stop-color="#F5A87E" stop-opacity="0.25"/>
<stop offset="0.98" stop-color="#F6B083" stop-opacity="0.05"/>
<stop offset="1" stop-color="#F6B284" stop-opacity="0"/>
</radialGradient>
</defs>
</svg>
