<svg width="20" height="20" viewBox="0 0 20 20" fill="none" xmlns="http://www.w3.org/2000/svg">
<path d="M17.8627 2.15149C17.4458 1.72367 16.8289 1.56428 16.2537 1.73206L2.83984 5.63277C2.23292 5.80139 1.80274 6.28541 1.68686 6.9003C1.56848 7.52609 1.98198 8.32049 2.52221 8.65268L6.71642 11.2305C7.1466 11.4948 7.70183 11.4285 8.05781 11.0694L12.8606 6.23675C13.1024 5.98509 13.5025 5.98509 13.7443 6.23675C13.9861 6.48002 13.9861 6.87429 13.7443 7.12595L8.93316 11.9595C8.57635 12.3177 8.50966 12.8755 8.77226 13.3084L11.335 17.5446C11.6351 18.048 12.152 18.3332 12.7189 18.3332C12.7856 18.3332 12.8606 18.3332 12.9273 18.3248C13.5776 18.2409 14.0944 17.7963 14.2862 17.1671L18.2628 3.77049C18.4379 3.20007 18.2795 2.57931 17.8627 2.15149Z" fill="white"/>
</svg>
