<svg width="112" height="16" viewBox="0 0 112 16" fill="none" xmlns="http://www.w3.org/2000/svg">
<path d="M12.7334 9.95302C12.5263 10.1644 12.4311 10.47 12.4783 10.7698L13.1894 14.9127C13.2494 15.2638 13.1086 15.6192 12.8294 15.8221C12.5559 16.0326 12.1919 16.0579 11.8935 15.8895L8.35081 13.9443C8.22763 13.8753 8.09084 13.8382 7.95086 13.834H7.73409C7.6589 13.8458 7.58531 13.8711 7.51812 13.9098L3.97458 15.8642C3.7994 15.9568 3.60103 15.9897 3.40666 15.9568C2.93312 15.8625 2.61716 15.3876 2.69475 14.8866L3.40666 10.7437C3.45385 10.4414 3.35866 10.1341 3.15149 9.91934L0.263066 6.97217C0.0214978 6.72544 -0.0624912 6.35494 0.0478944 6.02065C0.15508 5.6872 0.428645 5.44385 0.759001 5.38911L4.73448 4.782C5.03684 4.74916 5.30241 4.55548 5.43839 4.26919L7.19016 0.488388C7.23176 0.404183 7.28535 0.326715 7.35014 0.261035L7.42213 0.202092C7.45973 0.158305 7.50292 0.122097 7.55091 0.0926254L7.6381 0.0589434L7.77408 0H8.11084C8.4116 0.0328399 8.67637 0.222301 8.81475 0.505229L10.5897 4.26919C10.7177 4.54454 10.9665 4.73568 11.2536 4.782L15.2291 5.38911C15.5651 5.43964 15.8458 5.68383 15.957 6.02065C16.0618 6.35831 15.9714 6.72881 15.725 6.97217L12.7334 9.95302Z" fill="#FFAD61"/>
<path d="M36.7334 9.95302C36.5263 10.1644 36.4311 10.47 36.4783 10.7698L37.1894 14.9127C37.2494 15.2638 37.1086 15.6192 36.8294 15.8221C36.5559 16.0326 36.1919 16.0579 35.8935 15.8895L32.3508 13.9443C32.2276 13.8753 32.0908 13.8382 31.9509 13.834H31.7341C31.6589 13.8458 31.5853 13.8711 31.5181 13.9098L27.9746 15.8642C27.7994 15.9568 27.601 15.9897 27.4067 15.9568C26.9331 15.8625 26.6172 15.3876 26.6947 14.8866L27.4067 10.7437C27.4538 10.4414 27.3587 10.1341 27.1515 9.91934L24.2631 6.97217C24.0215 6.72544 23.9375 6.35494 24.0479 6.02065C24.1551 5.6872 24.4286 5.44385 24.759 5.38911L28.7345 4.782C29.0368 4.74916 29.3024 4.55548 29.4384 4.26919L31.1902 0.488388C31.2318 0.404183 31.2853 0.326715 31.3501 0.261035L31.4221 0.202092C31.4597 0.158305 31.5029 0.122097 31.5509 0.0926254L31.6381 0.0589434L31.7741 0H32.1108C32.4116 0.0328399 32.6764 0.222301 32.8147 0.505229L34.5897 4.26919C34.7177 4.54454 34.9665 4.73568 35.2536 4.782L39.2291 5.38911C39.5651 5.43964 39.8458 5.68383 39.957 6.02065C40.0618 6.35831 39.9714 6.72881 39.725 6.97217L36.7334 9.95302Z" fill="#FFAD61"/>
<path d="M60.7334 9.95302C60.5263 10.1644 60.4311 10.47 60.4783 10.7698L61.1894 14.9127C61.2494 15.2638 61.1086 15.6192 60.8294 15.8221C60.5559 16.0326 60.1919 16.0579 59.8935 15.8895L56.3508 13.9443C56.2276 13.8753 56.0908 13.8382 55.9509 13.834H55.7341C55.6589 13.8458 55.5853 13.8711 55.5181 13.9098L51.9746 15.8642C51.7994 15.9568 51.601 15.9897 51.4067 15.9568C50.9331 15.8625 50.6172 15.3876 50.6947 14.8866L51.4067 10.7437C51.4538 10.4414 51.3587 10.1341 51.1515 9.91934L48.2631 6.97217C48.0215 6.72544 47.9375 6.35494 48.0479 6.02065C48.1551 5.6872 48.4286 5.44385 48.759 5.38911L52.7345 4.782C53.0368 4.74916 53.3024 4.55548 53.4384 4.26919L55.1902 0.488388C55.2318 0.404183 55.2853 0.326715 55.3501 0.261035L55.4221 0.202092C55.4597 0.158305 55.5029 0.122097 55.5509 0.0926254L55.6381 0.0589434L55.7741 0H56.1108C56.4116 0.0328399 56.6764 0.222301 56.8147 0.505229L58.5897 4.26919C58.7177 4.54454 58.9665 4.73568 59.2536 4.782L63.2291 5.38911C63.5651 5.43964 63.8458 5.68383 63.957 6.02065C64.0618 6.35831 63.9714 6.72881 63.725 6.97217L60.7334 9.95302Z" fill="#FFAD61"/>
<path d="M84.7334 9.95302C84.5263 10.1644 84.4311 10.47 84.4783 10.7698L85.1894 14.9127C85.2494 15.2638 85.1086 15.6192 84.8294 15.8221C84.5559 16.0326 84.1919 16.0579 83.8935 15.8895L80.3508 13.9443C80.2276 13.8753 80.0908 13.8382 79.9509 13.834H79.7341C79.6589 13.8458 79.5853 13.8711 79.5181 13.9098L75.9746 15.8642C75.7994 15.9568 75.601 15.9897 75.4067 15.9568C74.9331 15.8625 74.6172 15.3876 74.6947 14.8866L75.4067 10.7437C75.4538 10.4414 75.3587 10.1341 75.1515 9.91934L72.2631 6.97217C72.0215 6.72544 71.9375 6.35494 72.0479 6.02065C72.1551 5.6872 72.4286 5.44385 72.759 5.38911L76.7345 4.782C77.0368 4.74916 77.3024 4.55548 77.4384 4.26919L79.1902 0.488388C79.2318 0.404183 79.2853 0.326715 79.3501 0.261035L79.4221 0.202092C79.4597 0.158305 79.5029 0.122097 79.5509 0.0926254L79.6381 0.0589434L79.7741 0H80.1108C80.4116 0.0328399 80.6764 0.222301 80.8147 0.505229L82.5897 4.26919C82.7177 4.54454 82.9665 4.73568 83.2536 4.782L87.2291 5.38911C87.5651 5.43964 87.8458 5.68383 87.957 6.02065C88.0618 6.35831 87.9714 6.72881 87.725 6.97217L84.7334 9.95302Z" fill="#FFAD61"/>
<path d="M108.733 9.95302C108.526 10.1644 108.431 10.47 108.478 10.7698L109.189 14.9127C109.249 15.2638 109.109 15.6192 108.829 15.8221C108.556 16.0326 108.192 16.0579 107.894 15.8895L104.351 13.9443C104.228 13.8753 104.091 13.8382 103.951 13.834H103.734C103.659 13.8458 103.585 13.8711 103.518 13.9098L99.9746 15.8642C99.7994 15.9568 99.601 15.9897 99.4067 15.9568C98.9331 15.8625 98.6172 15.3876 98.6947 14.8866L99.4067 10.7437C99.4538 10.4414 99.3587 10.1341 99.1515 9.91934L96.2631 6.97217C96.0215 6.72545 95.9375 6.35494 96.0479 6.02065C96.1551 5.6872 96.4286 5.44385 96.759 5.38911L100.734 4.782C101.037 4.74916 101.302 4.55549 101.438 4.26919L103.19 0.488388C103.232 0.404184 103.285 0.326715 103.35 0.261035L103.422 0.202092C103.46 0.158305 103.503 0.122097 103.551 0.0926254L103.638 0.0589434L103.774 0H104.111C104.412 0.0328399 104.676 0.222301 104.815 0.505229L106.59 4.26919C106.718 4.54454 106.966 4.73568 107.254 4.782L111.229 5.38911C111.565 5.43964 111.846 5.68383 111.957 6.02065C112.062 6.35831 111.971 6.72881 111.725 6.97217L108.733 9.95302Z" fill="url(#paint0_linear_1_3)"/>
<defs>
<linearGradient id="paint0_linear_1_3" x1="95.6004" y1="8.84083" x2="112.398" y2="8.84083" gradientUnits="userSpaceOnUse">
<stop stop-color="#FFAD61"/>
<stop offset="0.947671" stop-color="#FFAD61"/>
<stop offset="1" stop-color="#FFAD61"/>
<stop offset="1" stop-color="#EEF0F2"/>
<stop offset="1" stop-color="#EEF0F2"/>
</linearGradient>
</defs>
</svg>
