<svg width="96" height="16" viewBox="0 0 96 16" fill="none" xmlns="http://www.w3.org/2000/svg">
<path d="M11.9456 9.54675C11.7729 9.71408 11.6936 9.95608 11.7329 10.1934L12.3256 13.4734C12.3756 13.7514 12.2583 14.0327 12.0256 14.1934C11.7976 14.3601 11.4943 14.3801 11.2456 14.2467L8.29293 12.7067C8.19026 12.6521 8.07626 12.6227 7.95959 12.6194H7.77893C7.71626 12.6287 7.65493 12.6487 7.59893 12.6794L4.64559 14.2267C4.49959 14.3001 4.33426 14.3261 4.17226 14.3001C3.77759 14.2254 3.51426 13.8494 3.57893 13.4527L4.17226 10.1727C4.21159 9.93341 4.13226 9.69008 3.95959 9.52008L1.55226 7.18675C1.35093 6.99141 1.28093 6.69808 1.37293 6.43341C1.46226 6.16941 1.69026 5.97675 1.96559 5.93341L5.27893 5.45275C5.53093 5.42675 5.75226 5.27341 5.86559 5.04675L7.32559 2.05341C7.36026 1.98675 7.40493 1.92541 7.45893 1.87341L7.51892 1.82675C7.55026 1.79208 7.58626 1.76341 7.62626 1.74008L7.69893 1.71341L7.81226 1.66675H8.09292C8.34359 1.69275 8.56426 1.84275 8.67959 2.06675L10.1589 5.04675C10.2656 5.26475 10.4729 5.41608 10.7123 5.45275L14.0256 5.93341C14.3056 5.97341 14.5396 6.16675 14.6323 6.43341C14.7196 6.70075 14.6443 6.99408 14.4389 7.18675L11.9456 9.54675Z" fill="#FFAD61"/>
<path d="M31.9456 9.54675C31.7729 9.71408 31.6936 9.95608 31.7329 10.1934L32.3256 13.4734C32.3756 13.7514 32.2583 14.0327 32.0256 14.1934C31.7976 14.3601 31.4943 14.3801 31.2456 14.2467L28.2929 12.7067C28.1903 12.6521 28.0763 12.6227 27.9596 12.6194H27.7789C27.7163 12.6287 27.6549 12.6487 27.5989 12.6794L24.6456 14.2267C24.4996 14.3001 24.3343 14.3261 24.1723 14.3001C23.7776 14.2254 23.5143 13.8494 23.5789 13.4527L24.1723 10.1727C24.2116 9.93341 24.1323 9.69008 23.9596 9.52008L21.5523 7.18675C21.3509 6.99141 21.2809 6.69808 21.3729 6.43341C21.4623 6.16941 21.6903 5.97675 21.9656 5.93341L25.2789 5.45275C25.5309 5.42675 25.7523 5.27341 25.8656 5.04675L27.3256 2.05341C27.3603 1.98675 27.4049 1.92541 27.4589 1.87341L27.5189 1.82675C27.5503 1.79208 27.5863 1.76341 27.6263 1.74008L27.6989 1.71341L27.8123 1.66675H28.0929C28.3436 1.69275 28.5643 1.84275 28.6796 2.06675L30.1589 5.04675C30.2656 5.26475 30.4729 5.41608 30.7123 5.45275L34.0256 5.93341C34.3056 5.97341 34.5396 6.16675 34.6323 6.43341C34.7196 6.70075 34.6443 6.99408 34.4389 7.18675L31.9456 9.54675Z" fill="#FFAD61"/>
<path d="M51.9456 9.54675C51.7729 9.71408 51.6936 9.95608 51.7329 10.1934L52.3256 13.4734C52.3756 13.7514 52.2583 14.0327 52.0256 14.1934C51.7976 14.3601 51.4943 14.3801 51.2456 14.2467L48.2929 12.7067C48.1903 12.6521 48.0763 12.6227 47.9596 12.6194H47.7789C47.7163 12.6287 47.6549 12.6487 47.5989 12.6794L44.6456 14.2267C44.4996 14.3001 44.3343 14.3261 44.1723 14.3001C43.7776 14.2254 43.5143 13.8494 43.5789 13.4527L44.1723 10.1727C44.2116 9.93341 44.1323 9.69008 43.9596 9.52008L41.5523 7.18675C41.3509 6.99141 41.2809 6.69808 41.3729 6.43341C41.4623 6.16941 41.6903 5.97675 41.9656 5.93341L45.2789 5.45275C45.5309 5.42675 45.7523 5.27341 45.8656 5.04675L47.3256 2.05341C47.3603 1.98675 47.4049 1.92541 47.4589 1.87341L47.5189 1.82675C47.5503 1.79208 47.5863 1.76341 47.6263 1.74008L47.6989 1.71341L47.8123 1.66675H48.0929C48.3436 1.69275 48.5643 1.84275 48.6796 2.06675L50.1589 5.04675C50.2656 5.26475 50.4729 5.41608 50.7123 5.45275L54.0256 5.93341C54.3056 5.97341 54.5396 6.16675 54.6323 6.43341C54.7196 6.70075 54.6443 6.99408 54.4389 7.18675L51.9456 9.54675Z" fill="#FFAD61"/>
<path d="M71.9456 9.54675C71.7729 9.71408 71.6936 9.95608 71.7329 10.1934L72.3256 13.4734C72.3756 13.7514 72.2583 14.0327 72.0256 14.1934C71.7976 14.3601 71.4943 14.3801 71.2456 14.2467L68.2929 12.7067C68.1903 12.6521 68.0763 12.6227 67.9596 12.6194H67.7789C67.7163 12.6287 67.6549 12.6487 67.5989 12.6794L64.6456 14.2267C64.4996 14.3001 64.3343 14.3261 64.1723 14.3001C63.7776 14.2254 63.5143 13.8494 63.5789 13.4527L64.1723 10.1727C64.2116 9.93341 64.1323 9.69008 63.9596 9.52008L61.5523 7.18675C61.3509 6.99141 61.2809 6.69808 61.3729 6.43341C61.4623 6.16941 61.6903 5.97675 61.9656 5.93341L65.2789 5.45275C65.5309 5.42675 65.7523 5.27341 65.8656 5.04675L67.3256 2.05341C67.3603 1.98675 67.4049 1.92541 67.4589 1.87341L67.5189 1.82675C67.5503 1.79208 67.5863 1.76341 67.6263 1.74008L67.6989 1.71341L67.8123 1.66675H68.0929C68.3436 1.69275 68.5643 1.84275 68.6796 2.06675L70.1589 5.04675C70.2656 5.26475 70.4729 5.41608 70.7123 5.45275L74.0256 5.93341C74.3056 5.97341 74.5396 6.16675 74.6323 6.43341C74.7196 6.70075 74.6443 6.99408 74.4389 7.18675L71.9456 9.54675Z" fill="#FFAD61"/>
<path d="M91.9456 9.54675C91.7729 9.71408 91.6936 9.95608 91.7329 10.1934L92.3256 13.4734C92.3756 13.7514 92.2583 14.0327 92.0256 14.1934C91.7976 14.3601 91.4943 14.3801 91.2456 14.2467L88.2929 12.7067C88.1903 12.6521 88.0763 12.6227 87.9596 12.6194H87.7789C87.7163 12.6287 87.6549 12.6487 87.5989 12.6794L84.6456 14.2267C84.4996 14.3001 84.3343 14.3261 84.1723 14.3001C83.7776 14.2254 83.5143 13.8494 83.5789 13.4527L84.1723 10.1727C84.2116 9.93341 84.1323 9.69008 83.9596 9.52008L81.5523 7.18675C81.3509 6.99141 81.2809 6.69808 81.3729 6.43341C81.4623 6.16941 81.6903 5.97675 81.9656 5.93341L85.2789 5.45275C85.5309 5.42675 85.7523 5.27341 85.8656 5.04675L87.3256 2.05341C87.3603 1.98675 87.4049 1.92541 87.4589 1.87341L87.5189 1.82675C87.5503 1.79208 87.5863 1.76341 87.6263 1.74008L87.6989 1.71341L87.8123 1.66675H88.0929C88.3436 1.69275 88.5643 1.84275 88.6796 2.06675L90.1589 5.04675C90.2656 5.26475 90.4729 5.41608 90.7123 5.45275L94.0256 5.93341C94.3056 5.97341 94.5396 6.16675 94.6323 6.43341C94.7196 6.70075 94.6443 6.99408 94.4389 7.18675L91.9456 9.54675Z" fill="url(#paint0_linear_653_8590)"/>
<defs>
<linearGradient id="paint0_linear_653_8590" x1="81" y1="8.6662" x2="95" y2="8.6662" gradientUnits="userSpaceOnUse">
<stop stop-color="#FFAD61"/>
<stop offset="0.494792" stop-color="#FFAD61"/>
<stop offset="0.494892" stop-color="#EEF0F2"/>
<stop offset="1" stop-color="#EEF0F2"/>
</linearGradient>
</defs>
</svg>
