<svg width="176" height="32" viewBox="0 0 176 32" fill="none" xmlns="http://www.w3.org/2000/svg">
<path d="M23.8912 19.0935C23.5459 19.4282 23.3872 19.9122 23.4659 20.3868L24.6512 26.9468C24.7512 27.5028 24.5165 28.0655 24.0512 28.3868C23.5952 28.7202 22.9885 28.7602 22.4912 28.4935L16.5858 25.4135C16.3805 25.3042 16.1525 25.2455 15.9192 25.2388H15.5578C15.4325 25.2575 15.3099 25.2975 15.1979 25.3588L9.29118 28.4535C8.99918 28.6002 8.66852 28.6522 8.34452 28.6002C7.55518 28.4508 7.02852 27.6988 7.15785 26.9055L8.34452 20.3455C8.42318 19.8668 8.26452 19.3802 7.91918 19.0402L3.10452 14.3735C2.70185 13.9828 2.56185 13.3962 2.74585 12.8668C2.92452 12.3388 3.38052 11.9535 3.93118 11.8668L10.5578 10.9055C11.0619 10.8535 11.5045 10.5468 11.7312 10.0935L14.6512 4.10683C14.7205 3.9735 14.8099 3.85083 14.9179 3.74683L15.0378 3.6535C15.1005 3.58416 15.1725 3.52683 15.2525 3.48016L15.3979 3.42683L15.6245 3.3335H16.1859C16.6872 3.3855 17.1285 3.6855 17.3592 4.1335L20.3179 10.0935C20.5312 10.5295 20.9459 10.8322 21.4245 10.9055L28.0512 11.8668C28.6112 11.9468 29.0792 12.3335 29.2645 12.8668C29.4392 13.4015 29.2885 13.9882 28.8779 14.3735L23.8912 19.0935Z" fill="#FFAD61"/>
<path d="M59.8912 19.0935C59.5459 19.4282 59.3872 19.9122 59.4659 20.3868L60.6512 26.9468C60.7512 27.5028 60.5165 28.0655 60.0512 28.3868C59.5952 28.7202 58.9885 28.7602 58.4912 28.4935L52.5858 25.4135C52.3805 25.3042 52.1525 25.2455 51.9192 25.2388H51.5578C51.4325 25.2575 51.3099 25.2975 51.1979 25.3588L45.2912 28.4535C44.9992 28.6002 44.6685 28.6522 44.3445 28.6002C43.5552 28.4508 43.0285 27.6988 43.1579 26.9055L44.3445 20.3455C44.4232 19.8668 44.2645 19.3802 43.9192 19.0402L39.1045 14.3735C38.7019 13.9828 38.5619 13.3962 38.7459 12.8668C38.9245 12.3388 39.3805 11.9535 39.9312 11.8668L46.5578 10.9055C47.0619 10.8535 47.5045 10.5468 47.7312 10.0935L50.6512 4.10683C50.7205 3.9735 50.8099 3.85083 50.9179 3.74683L51.0378 3.6535C51.1005 3.58416 51.1725 3.52683 51.2525 3.48016L51.3979 3.42683L51.6245 3.3335H52.1859C52.6872 3.3855 53.1285 3.6855 53.3592 4.1335L56.3179 10.0935C56.5312 10.5295 56.9459 10.8322 57.4245 10.9055L64.0512 11.8668C64.6112 11.9468 65.0792 12.3335 65.2645 12.8668C65.4392 13.4015 65.2885 13.9882 64.8779 14.3735L59.8912 19.0935Z" fill="#FFAD61"/>
<path d="M95.8912 19.0935C95.5459 19.4282 95.3872 19.9122 95.4659 20.3868L96.6512 26.9468C96.7512 27.5028 96.5165 28.0655 96.0512 28.3868C95.5952 28.7202 94.9885 28.7602 94.4912 28.4935L88.5858 25.4135C88.3805 25.3042 88.1525 25.2455 87.9192 25.2388H87.5578C87.4325 25.2575 87.3099 25.2975 87.1979 25.3588L81.2912 28.4535C80.9992 28.6002 80.6685 28.6522 80.3445 28.6002C79.5552 28.4508 79.0285 27.6988 79.1579 26.9055L80.3445 20.3455C80.4232 19.8668 80.2645 19.3802 79.9192 19.0402L75.1045 14.3735C74.7019 13.9828 74.5619 13.3962 74.7459 12.8668C74.9245 12.3388 75.3805 11.9535 75.9312 11.8668L82.5578 10.9055C83.0619 10.8535 83.5045 10.5468 83.7312 10.0935L86.6512 4.10683C86.7205 3.9735 86.8099 3.85083 86.9179 3.74683L87.0378 3.6535C87.1005 3.58416 87.1725 3.52683 87.2525 3.48016L87.3979 3.42683L87.6245 3.3335H88.1859C88.6872 3.3855 89.1285 3.6855 89.3592 4.1335L92.3179 10.0935C92.5312 10.5295 92.9459 10.8322 93.4245 10.9055L100.051 11.8668C100.611 11.9468 101.079 12.3335 101.265 12.8668C101.439 13.4015 101.289 13.9882 100.878 14.3735L95.8912 19.0935Z" fill="#FFAD61"/>
<path d="M131.891 19.0935C131.546 19.4282 131.387 19.9122 131.466 20.3868L132.651 26.9468C132.751 27.5028 132.517 28.0655 132.051 28.3868C131.595 28.7202 130.989 28.7602 130.491 28.4935L124.586 25.4135C124.381 25.3042 124.153 25.2455 123.919 25.2388H123.558C123.433 25.2575 123.31 25.2975 123.198 25.3588L117.291 28.4535C116.999 28.6002 116.669 28.6522 116.345 28.6002C115.555 28.4508 115.029 27.6988 115.158 26.9055L116.345 20.3455C116.423 19.8668 116.265 19.3802 115.919 19.0402L111.105 14.3735C110.702 13.9828 110.562 13.3962 110.746 12.8668C110.925 12.3388 111.381 11.9535 111.931 11.8668L118.558 10.9055C119.062 10.8535 119.505 10.5468 119.731 10.0935L122.651 4.10683C122.721 3.9735 122.81 3.85083 122.918 3.74683L123.038 3.6535C123.101 3.58416 123.173 3.52683 123.253 3.48016L123.398 3.42683L123.625 3.3335H124.186C124.687 3.3855 125.129 3.6855 125.359 4.1335L128.318 10.0935C128.531 10.5295 128.946 10.8322 129.425 10.9055L136.051 11.8668C136.611 11.9468 137.079 12.3335 137.265 12.8668C137.439 13.4015 137.289 13.9882 136.878 14.3735L131.891 19.0935Z" fill="#FFAD61"/>
<path d="M167.891 19.0935C167.546 19.4282 167.387 19.9122 167.466 20.3868L168.651 26.9468C168.751 27.5028 168.517 28.0655 168.051 28.3868C167.595 28.7202 166.989 28.7602 166.491 28.4935L160.586 25.4135C160.381 25.3042 160.153 25.2455 159.919 25.2388H159.558C159.433 25.2575 159.31 25.2975 159.198 25.3588L153.291 28.4535C152.999 28.6002 152.669 28.6522 152.345 28.6002C151.555 28.4508 151.029 27.6988 151.158 26.9055L152.345 20.3455C152.423 19.8668 152.265 19.3802 151.919 19.0402L147.105 14.3735C146.702 13.9828 146.562 13.3962 146.746 12.8668C146.925 12.3388 147.381 11.9535 147.931 11.8668L154.558 10.9055C155.062 10.8535 155.505 10.5468 155.731 10.0935L158.651 4.10683C158.721 3.9735 158.81 3.85083 158.918 3.74683L159.038 3.6535C159.101 3.58416 159.173 3.52683 159.253 3.48016L159.398 3.42683L159.625 3.3335H160.186C160.687 3.3855 161.129 3.6855 161.359 4.1335L164.318 10.0935C164.531 10.5295 164.946 10.8322 165.425 10.9055L172.051 11.8668C172.611 11.9468 173.079 12.3335 173.265 12.8668C173.439 13.4015 173.289 13.9882 172.878 14.3735L167.891 19.0935Z" fill="url(#paint0_linear_972_4732)"/>
<defs>
<linearGradient id="paint0_linear_972_4732" x1="146" y1="17.3324" x2="174" y2="17.3324" gradientUnits="userSpaceOnUse">
<stop stop-color="#FFAD61"/>
<stop offset="0.494792" stop-color="#FFAD61"/>
<stop offset="0.494892" stop-color="#EEF0F2"/>
<stop offset="1" stop-color="#EEF0F2"/>
</linearGradient>
</defs>
</svg>
