<svg xmlns="http://www.w3.org/2000/svg" viewBox="0 0 245.89 16.82"><defs><style>.cls-1{fill:#75be87;}</style></defs><g id="Слой_2" data-name="Слой 2"><g id="Слой_1-2" data-name="Слой 1"><path class="cls-1" d="M.78,15.91c-1,0-.64.34-.78.42C1.66,16.24.74,15.81.78,15.91Z"/><path class="cls-1" d="M17.13,15l-.28.15,2.41-.38Z"/><path class="cls-1" d="M32.42,15c-1.45-.62-5.54.11-8.26-.11l-.45-.14-1.23.51C25.79,15.15,30.09,14.82,32.42,15Z"/><path class="cls-1" d="M40.58,16.29c-.5-.24,1.76-.21-1.9-.06l.34.05C39.35,16.27,39.8,16.27,40.58,16.29Z"/><path class="cls-1" d="M39,16.28c-1.61,0,1,.2,0,0Z"/><path class="cls-1" d="M46.46,16.12l-2.12.22c.44.13,2.33.16,1.63.26C48.14,16.47,47.69,16.34,46.46,16.12Z"/><path class="cls-1" d="M48.47,15.66l-1.1.1A1.89,1.89,0,0,0,48.47,15.66Z"/><path class="cls-1" d="M45,16l2.33-.2c-.31-.1-.34-.29-1.07.08C46.49,15.65,46,15.83,45,16Z"/><path class="cls-1" d="M43.72,15.86c-1.19-.12-2.73-.21-.6-.42C39.06,15.54,39.66,16,43.72,15.86Z"/><path class="cls-1" d="M33.2,14.35l-1.59-.19-1.38.21C30.93,14.27,33.3,14.54,33.2,14.35Z"/><path class="cls-1" d="M59.67,16.37c.13-.13-.71-.33-.87-.49L57.23,16A9.14,9.14,0,0,1,59.67,16.37Z"/><path class="cls-1" d="M58.8,15.87l2.34-.22C59.05,15.64,58.66,15.74,58.8,15.87Z"/><path class="cls-1" d="M48.84,15,45,15.47l4.6-.48Z"/><path class="cls-1" d="M68.62,16.35l-1.33.29,2.37-.45Z"/><path class="cls-1" d="M74.56,16.27c-1,.24,1.35.39.31.55a35.71,35.71,0,0,0,4.23-.45A25.43,25.43,0,0,1,74.56,16.27Z"/><path class="cls-1" d="M81.18,16.09c-.66.05-1.34.16-2.08.27A16.21,16.21,0,0,0,81.18,16.09Z"/><path class="cls-1" d="M65.13,15.7A4.61,4.61,0,0,0,67,16l-.92-.34Z"/><path class="cls-1" d="M66,15.69h2Z"/><path class="cls-1" d="M64.9,15.7h.23A.21.21,0,0,0,64.9,15.7Z"/><path class="cls-1" d="M55,15.31c1.38-.2,4.25-.42,1.47-.72C55.47,14.84,57.06,15,55,15.31Z"/><path class="cls-1" d="M63.76,15.26l-2.49-.07c0,.09.5.23-.18.33Z"/><path class="cls-1" d="M65,15.15l-1.22.11.92,0Z"/><path class="cls-1" d="M76.92,15.79a32,32,0,0,1,3.58-.2c-1.42-.06-2.9-.09-4.3-.09C76,15.61,75.39,15.81,76.92,15.79Z"/><path class="cls-1" d="M71.62,15.71l.24,0C71.72,15.66,71.6,15.65,71.62,15.71Z"/><path class="cls-1" d="M93.58,15.56l-.21-.07-.05.06Z"/><path class="cls-1" d="M76,15.44a8.22,8.22,0,0,0-2.32.13c.8,0,1.65-.07,2.56-.07C76.29,15.45,76.31,15.42,76,15.44Z"/><path class="cls-1" d="M84.83,15.92c-.56-.07-1.19-.13-1.85-.18A6.82,6.82,0,0,0,84.83,15.92Z"/><path class="cls-1" d="M72.22,15.79l-.16,0C72.41,15.88,72.37,15.84,72.22,15.79Z"/><path class="cls-1" d="M72.22,15.79c.55,0,1-.14,1.42-.22-.65,0-1.26.08-1.78.12A2.28,2.28,0,0,1,72.22,15.79Z"/><path class="cls-1" d="M97.54,13.41c-.19.31-3,.59-5.43.26-2.39.24-.83,1.27,1.26,1.82.07-.14.07-.26,2.53-.45-.86-.16-5.46-.38-3.38-.67a13.08,13.08,0,0,1,4.25.27c-1.35-.39,4.15-.57,3.44-1.12l-2.86.2C97.3,13.63,98.34,13.49,97.54,13.41Z"/><path class="cls-1" d="M88.68,15.47l-1,0a28.25,28.25,0,0,1,3.5.41c1.68-.16,2-.28,2.15-.38l-5,0Z"/><path class="cls-1" d="M83.12,15.54c.79-.35,3.22-.5,1.73-.87-3,0-2.08.29-3.86.45,4.79-.1-1.38.2,2.09.38-.94.06-1.79.08-2.59.1.86,0,1.7.09,2.48.15l-.11,0h0c-.21-.05-.27-.07,0-.05h.1a.64.64,0,0,1,.22-.12c1.39.07.22.09-.22.13,0,0-.05,0-.06.06h0l4.8-.2C86.65,15.47,85.38,15.49,83.12,15.54Z"/><path class="cls-1" d="M59,13.82c.15,0,.14,0,.15.08C59.49,13.85,59.6,13.83,59,13.82Z"/><path class="cls-1" d="M61,14a6.53,6.53,0,0,1-1.78.15c-1-.11,0-.17,0-.29-.68.09-2.39.26-.25.43l.34-.05a18.46,18.46,0,0,1,4.08.61A8.42,8.42,0,0,0,61,14Z"/><path class="cls-1" d="M72.2,14.71l4-.17-2-.3.1.18C72,14.35,72.48,14.56,72.2,14.71Z"/><path class="cls-1" d="M94,15.72l-.53.35,2.31-.51Z"/><path class="cls-1" d="M99.23,15.65,99,16l1.37-.19Z"/><path class="cls-1" d="M226.88,15.19c1.71.22,3.62.56,3.42.28l-.53-.25A24.12,24.12,0,0,1,226.88,15.19Z"/><path class="cls-1" d="M152.47,15.36c1.48.12,2.65.17,3.69.18C154.37,15.36,152.94,15.11,152.47,15.36Z"/><path class="cls-1" d="M160.42,15.52l-.78-.07c-1.08.06-2.17.1-3.49.09A18,18,0,0,0,160.42,15.52Z"/><path class="cls-1" d="M120.15,15.73c-1.11,0-.18,0,0,0Z"/><path class="cls-1" d="M114.79,14.46c.23,0,.41-.09.44-.17A.9.9,0,0,1,114.79,14.46Z"/><path class="cls-1" d="M171.4,13.66h.1C171.16,13.59,171.22,13.61,171.4,13.66Z"/><path class="cls-1" d="M118.49,15.59c.41,0,.89.07,1.41.09C119.67,15.65,119.24,15.63,118.49,15.59Z"/><path class="cls-1" d="M118.71,15.74l-1,0C117.61,15.76,117.73,15.8,118.71,15.74Z"/><path class="cls-1" d="M121.68,15.71c-.63,0-1.22,0-1.78,0,.22,0,.31,0,.25.06Z"/><path class="cls-1" d="M245.88,1.94C245.56,1.2,244,3.59,244.43,0c-.25,1-.53,2.25-1,4.38.27-.65,1.11-1.56.9-.61l-1.07,2.15a17,17,0,0,1-1.4,2.43c.53-.91.78.45-.2,1.89.05-.28-.69-.23-.43-.76A7.75,7.75,0,0,1,239,12.76c.81-.64-.23-.43-.94-.42.09,0,0,.07-.26.11a1.78,1.78,0,0,1-.43.06h-.84c-1.23,0-2.68,0-3.3,0l2,.16c-5.29-.12-5.23.93-10.48.9.64-.14,1.57-.86-1.1-1a46.32,46.32,0,0,1-10.06,2l-.89-.2-3.56.24c2.22-.56,8.45-1.68,11.85-2.1a16.31,16.31,0,0,0-3.52-.23c-1.05-.19,1.62-.28,2.49-.29L213,11.84c.31.42-5.28.4-5,.76l7.5-.41c.3.41-4.34,1.17-9.23,1.1-1.24-.17.93-.75.83-.89a37,37,0,0,1-5.09.16l2.08-.22c-2.72-.17-4.45.56-7.72.14-1.13,0-3.37-.57-3.57-.31,1.84.5,2.2,2,1,2.41-.4,0-5.93-.46-7.22-.72-1.86-.4,2.79-.93,1.21-1.27a6,6,0,0,1-1.52.32c-1.19-.11.49-.37-2.09-.33-.43.45-5.24,0-1.22.38-2.52.13-2.68-.1-5.64-.08.94.29-2.66,1-5.19,1.14.15-.12-.42-.28-.69-.34-5.17,0-8-.25-12.77-.26-.44-.12-2.77-.26-1.78-.47a16.73,16.73,0,0,1-2.82.26c-2.88-.42,3.32-.07,1.12-.56-.19.28-3.85.38-6,.55.65.44,4.89.08,7-.08,0,.59-3.68,1.21-8.72,1.49-4,.15-1.74-.38-2.43-.3-7.52-.1-6.41,1.07-12.65.64-2.48-.39-.11-.78-.66-1.06,3.26-.15,5,.25,7.22.23l-2.72-.18a26.53,26.53,0,0,1,4.4-.12c-2.08-.35-12.71-.07-18.51-.4-1,.13-2.81.27-2,.43l1.84,0c1.69.32-3.46.44-1.13.6a54.74,54.74,0,0,1-8.69.42l-.65-.47a10.37,10.37,0,0,0,3.24.13c-1.45.21-5.32-.63-6.9,0l2.43.32a58.72,58.72,0,0,1-8.6.61c1.4.46.71-.06,2.89.48-1.89-.67,7.86,0,4.82-.69,2.24.62,3.88.26,6.81.77-.09-.15-1-.29,1.54-.21a4.76,4.76,0,0,1,.57-.14h.17l-.14,0c.11,0,.12,0,0,0a5.59,5.59,0,0,1-1.31-.23c1.28-.35,5.38-.35,6.77-.52,1.53.06-.64.17.2.32l2.07-.27c.21.34,4.07.54.46.75h3.25a41.45,41.45,0,0,0,6.16.1c1.53.06,3.87-.38,2.53-.12l5.09-.22.05.08c5,0,10.34-.55,16.08,0,1.69-.08,3.44-.18,6.27-.11l.55.27c2.17-.1,6.52.23,7.45,0,2.34.69,10.54.11,14.35.22l.14-.34c2.63,0,5.15-.09,8.41-.23l-.2-.3c2.81-.24,7.23.19,11.68.14a9.27,9.27,0,0,1-2.23,0c5.32.61,11.21-.49,16,0a16.49,16.49,0,0,1,2.91,0h.19l1.67.14c-.5-.06-1-.12-1.4-.14.93,0,2.33,0,3.71-.12l.59.29h.32c1.35.1,1.09-.14.37-.36.69,0,1.33-.11,1.82-.18,1.11.46,3.58-.15,5.15.32a7.1,7.1,0,0,0,1.92-.55,7.3,7.3,0,0,0,2.25-1.66,6.33,6.33,0,0,0,1.81-3.28c.08,0,.3-.35,0,.29A12.7,12.7,0,0,0,245,5.92l.56-.48c.15-1.06.24-2.1.3-3.14ZM132.23,15.4l.09,0C134.11,15.51,133.47,15.45,132.23,15.4Zm-3.73-.15c-.37.06-.35.1-.19.15a9.19,9.19,0,0,1,2.05-.07A5,5,0,0,0,128.5,15.25Z"/><path class="cls-1" d="M186.27,12.4a10.58,10.58,0,0,1,1.48.17C187.79,12.49,187.44,12.43,186.27,12.4Z"/><path class="cls-1" d="M108.74,15.94l2.39-.11a16.57,16.57,0,0,1-2.15-.11C109,15.81,109.48,15.93,108.74,15.94Z"/><path class="cls-1" d="M88,13.66c-.35.05-.74,0-1.08.06l.1.18C88.5,13.88,89.54,13.74,88,13.66Z"/><path class="cls-1" d="M106.53,14.72c-.19-.31-1.69-.2-3.36-.15h.3C103,15,104.75,14.86,106.53,14.72Z"/><path class="cls-1" d="M102.78,14.59c-.52,0-1,0-1.55,0C101,14.77,101.86,14.64,102.78,14.59Z"/><path class="cls-1" d="M123.77,15.46c-.79-.07-.5.39-1,.27C121.94,16.12,128.11,15.25,123.77,15.46Z"/><path class="cls-1" d="M105.17,13.7l.6.38.94-.31Z"/><path class="cls-1" d="M118.38,14l-2.67-.1c0,.07-.3.1-.72.13A24.27,24.27,0,0,0,118.38,14Z"/><path class="cls-1" d="M115,14a18.82,18.82,0,0,0-2.15.06C113.3,14.05,114.3,14.05,115,14Z"/><path class="cls-1" d="M108.83,13.58l.79.08,1.88,0Z"/><path class="cls-1" d="M147.13,14l2.92-.1c.3-.12-.5-.19-1.58-.15C147.76,13.86,146.68,13.91,147.13,14Z"/><path class="cls-1" d="M138.3,13a5.07,5.07,0,0,1,1.29.28l.09-.45Z"/><path class="cls-1" d="M146.81,12.94c.29-.11,4.24-.34.54-.31C147.05,12.74,144.13,12.84,146.81,12.94Z"/><path class="cls-1" d="M190.78,13.53H190l.1.66Z"/><path class="cls-1" d="M229.53,12.08c-3.46-.16-.82.37-3.95.18-.81.15,2.55.16,1.72.29C229.4,12.39,230.49,12.48,229.53,12.08Z"/><path class="cls-1" d="M227.31,12.54l-1.07.09C226.85,12.59,227.13,12.56,227.31,12.54Z"/></g></g></svg>