<svg xmlns="http://www.w3.org/2000/svg" viewBox="0 0 3.24 155.14"><defs><style>.cls-1{fill:#75be87;}</style></defs><g id="Слой_2" data-name="Слой 2"><g id="Слой_1-2" data-name="Слой 1"><path class="cls-1" d="M.88,37.53l0-1.07C.85,37,.87,37.29.88,37.53Z"/><path class="cls-1" d="M.83,45.27l.08.19C.87,45.1.84,45,.83,45.27Z"/><path class="cls-1" d="M1.81,108.64c0,.15-.05.3-.07.46.08.38.15.74.22,1.05C1.91,109.7,1.86,109.19,1.81,108.64Z"/><path class="cls-1" d="M.86,107.55l.15-2C1,106,.91,106.62.86,107.55Z"/><path class="cls-1" d="M2.8,40.58c0-.66-.07-.94-.11-.92C2.72,40.33,2.75,40.71,2.8,40.58Z"/><path class="cls-1" d="M1.26,155.14c.61-1.8.86-2.57.81-.67.2-2.28.23-3.19.29-4A25.55,25.55,0,0,0,2.3,147l.24.19c0-1.38-.3-3.54-.1-4.34.44-3,0-14.94.41-22.7-.65,1.5.28-3.6-.23-3.91.15-.45.24-1.52.37-.27-.16-4,.22-5.94-.21-8.67.15-.46.22.84.31.44A7.49,7.49,0,0,1,3,106c.09-.4.13.58.2,1.21-.05-4-.5-4.45-.93-4.75A13.9,13.9,0,0,0,2.2,98c.14-.71.28-1.9.33.61,0-1.41.17-8.63-.16-8.78a15.15,15.15,0,0,0,0-2.34c0-3.17,0-3.45,0-6.56l-.05.87c-.39-1.23-.09-2.59-.14-5.09l0,.07c.26-5.76-.13-2.48.16-8.16l-.23.31c-.49-.52.28-5,.09-8.31l-.13,1.19c-.16-1.8.64-5,.69-6.84,0-.39.07.62.1,1.17.26-4.72-.29-.61-.37-4.13.15-.66.39.83.41-1.54C3,49.24,2.4,43.54,2.68,40.3c-.11.71-.22,1.42-.31-.22,0-2.51.4-6.78,0-9a1.36,1.36,0,0,1,.08-.46c-.1-1.92-.17-6.23-.35-7.39.66-1.77-.34-11.93.26-11.88l-.05-5.9.06.15c0-1.88,0-3.16-.07-4.12,0-.55-.06-1-.09-1.44L.79.64c0,.32,0,.79,0,1.42C.9,5.67.6,3.41.52,4.68a58.61,58.61,0,0,1,.16,8.24c0-1.13.06-2,0-3L.56,12.44C.33,9.38.43,7.18.2,9.55c.52.36,0,9.83.54,10.18L.62,21.39c0-.47,0-.55,0-1C.32,23.6,1,22.77.9,27,.85,28.4.77,29.42.7,28.43l.13,3.24c0,.95-.11.71-.1-.22l0,4.94,0,0c.09.7.23,2.3.28,3.08-.09,1.25-.06-.63-.13-.31L1,41.86c-.16,1.12-.3-1.15-.27-3-.6,2.55.14,2.27-.23,7.79L.47,44C.12,45.69.23,47.71,0,50.64c.12-.69.57-5.86.71-2.88a25.24,25.24,0,0,0,0,3.54c-.22,0-.17,1.58-.17,3.54L.29,54.7a22.81,22.81,0,0,0,.35,3.2,8.39,8.39,0,0,1-.47,3.41C.1,65.09.55,58.7.59,63.17c-.13,3.15,0,5.36.16,9.11-.11,2.2-.19-.38-.28.4l.24,2c0,.48-.08.33-.12.24C.68,76.53.9,75,1,77.6c.35.7-.53,5.3-.14,8.5-.09.79-.2-.38-.33-.13.25,4.39.18,3.76.54,7.36L.82,96.4c.26-2.25.55.63.8,3.15.12-.8.23-1.48.28-2l.19,4c-.06.49-.17.08-.32-.58,0,.27.06.53.08.73-.13,1.44-.33.7-.51-.33L1.55,100c-.21-1-.43-1.92-.63-1.71,0,.26.07.76.09,1.31C1,99.33.9,99.17.87,99.28A6.56,6.56,0,0,0,1,100.5l-.38.92.15.22L.5,106.91c.38,3.78,1,7,1.12,13-.29-1.48-.48-.32-.83-.4.37-1.64-.15-4.64-.06-7.74,0,1.62-.21,1.27-.26.86l.32,5.53c-.28-.13-.22,1.17-.34,2.61.57-1.09.37,4.12.54,6.38-.19.13-.39-.4-.34-3.15-.44,3,.67,3.92.29,6.89a4.44,4.44,0,0,0-.07-1.3c.17,1.57,0,5.39-.15,4.49v-.67c-.1,4.46,0,13.55.41,14.19-.07,0-.59-.6-.69-.86a47.09,47.09,0,0,1,.81,8ZM.7,47.68A14.82,14.82,0,0,1,.65,45,7.28,7.28,0,0,1,.7,47.68Zm.43,57.42a10,10,0,0,1,.06-2.33C1.21,103.46,1.19,104.24,1.13,105.1Z"/><path class="cls-1" d="M1,107.7c0-.21.09-.27.14-.31C1.07,107.1,1,107.09,1,107.7Z"/><path class="cls-1" d="M.27,62.4l.07.15a8.69,8.69,0,0,0,.1-1.73Z"/><path class="cls-1" d="M.63,35v.47l.24-.88Z"/><path class="cls-1" d="M.46,12c0,.93,0,2,0,3C.45,12.91.73,11.72.46,12Z"/></g></g></svg>