<svg xmlns="http://www.w3.org/2000/svg" viewBox="0 0 243.93 2.23"><defs><style>.cls-1{fill:#75be87;}</style></defs><g id="Слой_2" data-name="Слой 2"><g id="Слой_1-2" data-name="Слой 1"><path class="cls-1" d="M228.93,1.52l-1.37.14C229.71,1.67,228.76,1.6,228.93,1.52Z"/><path class="cls-1" d="M60.41.85H60A1.85,1.85,0,0,0,60.41.85Z"/><path class="cls-1" d="M11.31.6h0Z"/><path class="cls-1" d="M150.7.9h-.24C149.36.93,149.84.93,150.7.9Z"/><path class="cls-1" d="M243.93,1.34c0-.25,0-.48-.05-.72l0-.33V.21s-.06,0-.09,0h-.19c-1.26,0-.3-.08-.15-.11l-4.12,0c-1,0-1.79,0-2.56,0-1.54,0-3,.1-5.51.22l-.53-.15c-1.38.09-8.76-.22-14.71,0a3,3,0,0,1,.65-.06c-6.69.18-16-.34-18.46.17l-4.41.13c5.71,0-.85.21,1.5.29-2.25,0-5.81-.15-3-.16l.43,0c1-.25-7.09-.08-6.94-.24L153,.23l1.21.16h-3.67c-1,0-1.29-.12,1.33-.12-.69-.05-1.79,0-2.72,0s-1.71.08-1.75.1c-5.13,0,2-.19.43-.19l-2.14,0,.48,0c-1.73.06-1.88.13-5,.13-2,0-1-.08-1.81-.09,0,0-.06,0-.25,0h-5.59l1.85.1c-2.05,0-4.35,0-2.21.11C130,.31,115.87.47,113.94.41c-2.87.08-5.71.08-9.22.08.87,0,1.4.1-1.63.1,1.11-.2-5.54-.08-8-.2,2.19.08-8.61,0-5.18.14-2.53,0-.15-.06-2.07-.1-6,.07-13.25,0-20.69,0-.12,0,1.13,0-.47.06L62.77.46c-1.47,0-1.35.09-4,0,.38,0,.94,0,0,0C44.12.56,29,.59,14.16.6c2,0,.67,0-.86,0,1,0,0,0,.17,0H7.28L0,.65H2c-2.61,0,3.65,0,3.27,0H17.72c1.06,0-.9,0-.34,0h5.09L42,.79l-.64,0,3.09,0c2.11,0-5.18,0-3.25-.05,2.44.06,13,0,14.65.11,2.84,0-.83,0,2,0l.75,0,.72,0c1.86,0,2.8,0,2.87.07H60.37c2.41,0,6.8,0,7.62,0l-2.72,0C73,.87,82.45,1,89.93.89l-.57,0c5.71-.05,4.57,0,10.84,0H100c1.25,0,2.93,0,4.64,0-1.58,0,3,.08.9.12,6.19-.05,3.06-.05,7.15-.17l.94.07c1.39-.06,1.51-.09,4.64-.1-2.57,0,2,.1-.88.17,6.57.15,9.75-.12,12.77.1,3-.18-5.68-.12-4-.15-1.41-.06,2.49-.12,4.55-.11s3.57.25,8.85.26h-1.08c2,.05,3.87-.07,6.29,0,1.36-.11,3.15,0,3.54-.14l-4.84,0c2.74,0,5.32-.22,9.84-.13-.35,0-1.7.07-2.62.1,1.32.05,2.55,0,3.92,0-.39.16-5.88,0-8.82.13,1.42.08,5.56-.1,4.08.08,2.12-.22,5.2,0,8.77-.13l-.24.1c.57,0,1.74-.07,2.78-.06l-1.88.13c2.89-.11,5.58.12,8.35.07-5.81,0-1.3-.13-3.76-.21C171,1,168,1.39,176,1.36c-1.09,0-4.08-.08-2.38-.13,1.53,0,3.55.08,4.48.15,5.32,0-.82-.13,1.45-.19a47.76,47.76,0,0,0,4.94-.1l0,.12c6.06.1,1.61-.25,7.06-.14l-2.31.17,2.84,0-.59.15c3.09-.1,4.06-.06,7.09,0-.7-.09.4-.24,3.08-.24a10,10,0,0,0,2.78.12,18.15,18.15,0,0,1-3.46.06c-.17,0-.85.08-1,.12,2,.1,4.95,0,6.33.05-.53,0-1.16,0-1.49,0l5.51-.17c.87.06.18.09-.5.14,1.12,0,1.89-.08,3.53-.08a6.82,6.82,0,0,1-2.65.27L216,1.45c.35.05,2.7.14,2,.19,2.91.08,7.15-.2,11-.1a13,13,0,0,1,1.42-.06c3.63,0,6.84.21,11.15,0l.3,0,.09,0,.13,0s.08,0,0,.08a.91.91,0,0,1-.07.14s0,.49.08.36a.77.77,0,0,0,.06-.23.48.48,0,0,1,.06-.14c0-.08.09-.17.13-.12a.59.59,0,0,1,.06.26ZM138.93.26l.73,0C138,.31,138.48.29,138.93.26Z"/><path class="cls-1" d="M229.18,1.5h-.13l-.13,0Z"/><path class="cls-1" d="M3.17.61h0Z"/></g></g></svg>