<svg xmlns="http://www.w3.org/2000/svg" viewBox="0 0 206.47 27.52"><defs><style>.cls-1{fill:#75be87;}</style></defs><g id="Слой_2" data-name="Слой 2"><g id="Слой_1-2" data-name="Слой 1"><path class="cls-1" d="M1.43,0l.19,4.58c-.06.42-.17.07-.32-.51,0,.24.06.47.08.65-.13,1.26-.33.6-.51-.3C.94,4,1,3.56,1.08,3.14.87,2.27.65,1.45.45,1.63A11.2,11.2,0,0,1,.54,2.79C.48,2.56.43,2.42.4,2.52A5.09,5.09,0,0,0,.52,3.59l-.38.8.15.2L0,9.22l.64,5c.12.89.17,1.85.35,2.92a10.47,10.47,0,0,0,1.34,3.43c-.95-1.15-.6-.14-1-.11a29.29,29.29,0,0,1-.9-3,20.42,20.42,0,0,1-.24-3.95c0,1.43-.21,1.11-.26.75.07.82.07,1.59.19,2.46a9.37,9.37,0,0,0,.67,2.53c-.3-.07.14,1.12.9,2.39-.05-.56.54.31,1.67,1.38a12.2,12.2,0,0,0,4.34,2.6c0,.09-.12.12-.68-.06a9.33,9.33,0,0,1-2.74-1.52A7.78,7.78,0,0,0,8,25.91a43.17,43.17,0,0,0,4.31.64c-.87,0-1.31-.12-1.67-.09l.87.08,1,0,2,0c1.25,0,2.12.09,1.58.14h-.8c5.33.06,16.24,0,17-.35a2.91,2.91,0,0,1-1,.54l9.52-1.28c-.84.33,2.38,1.12-2,1.31,1.27.05,2.84.11,5.52,0-.87-.05-2.16-.48-1-.52,3.25.37,2.26.2,6.26.53-1.3-.08.14-.6,2.2-.59-.32.08.17.53-.58.58l5.11-.52c-1.28.09-.23.45.92.6-.53-.1,4.42,0,5.78,0L61,26.86c5.77.09,5.7-.75,11.42-.73-.69.12-1.71.7,1.2.77a66.19,66.19,0,0,1,11-1.58l1,.16,3.88-.19C87,25.74,80.19,26.65,76.49,27a24.36,24.36,0,0,0,3.83.19c1.14.15-1.76.22-2.71.23l7.53.12c-.33-.34,5.76-.32,5.47-.61l-8.17.33c-.33-.33,4.73-.95,10.06-.89,1.36.14-1,.61-.9.72a52.61,52.61,0,0,1,5.55-.13l-2.26.18c3,.13,4.84-.45,8.41-.11,1.23,0,3.68.46,3.89.24-2-.4-2.4-1.63-1.06-1.94.43,0,6.47.38,7.87.58,2,.32-3,.76-1.32,1a8.22,8.22,0,0,1,1.66-.26c1.29.09-.54.3,2.27.26.47-.35,5.72,0,1.33-.3,2.75-.11,2.92.08,6.15.06-1-.23,2.9-.8,5.65-.91-.16.09.46.22.76.27,5.63,0,8.66.2,13.91.21.48.1,3,.21,1.94.37a28.55,28.55,0,0,1,3.07-.2c3.14.34-3.61,0-1.22.45.2-.22,4.19-.3,6.5-.44-.71-.35-5.33-.07-7.64.06,0-.47,4-1,9.5-1.2,4.36-.12,1.89.31,2.65.24,8.2.08,7-.86,13.79-.52,2.7.32.12.63.72.86-3.56.12-5.46-.2-7.87-.18l3,.14a37.77,37.77,0,0,1-4.8.1c2.26.28,13.85.05,20.17.32,1.12-.11,3.06-.22,2.15-.35l-2,0c-1.84-.25,3.77-.36,1.23-.48a82.77,82.77,0,0,1,9.47-.34l.71.38a16,16,0,0,0-3.53-.11c1.58-.16,5.79.51,7.52,0l-2.65-.26a88,88,0,0,1,9.38-.49c-1.52-.37-.77.05-3.15-.38,2.06.54-8.57,0-5.25.55-2.44-.5-4.23-.2-7.42-.62.1.12,1.13.23-1.68.18l-.62.11h0c-.12,0-.13,0,.06,0a9.92,9.92,0,0,1,1.43.18c-1.4.29-5.87.29-7.38.43-1.67-.05.7-.14-.21-.27l-2.26.22c-.22-.27-4.43-.43-.5-.6h-3.54a60.94,60.94,0,0,0-6.71-.08c-1.67-.05-4.21.3-2.76.1l-5.55.17-.05-.06c-5.47,0-11.27.44-17.53,0-1.84.07-3.75.15-6.83.09l-.6-.21c-2.37.08-7.1-.19-8.12,0-2.55-.56-11.48-.09-15.64-.18l-.16.27c-2.86,0-5.61.08-9.17.2L103,25c-3.07.2-7.88-.15-12.73-.11a12.6,12.6,0,0,1,2.43,0c-5.79-.5-12.22.39-17.47,0a26,26,0,0,1-3.18,0l.32,0h-.54L70,24.81c.55.06,1.07.1,1.53.11-1,0-2.54,0-4,.1l-.64-.23h-.35c-1.47-.08-1.18.11-.4.29-.76,0-1.45.08-2,.14-1.2-.36-3.94.13-5.57-.25-1,.19-7.55.16-8.35.55,0-.05-.49-.07.32-.08-1.67,0-3.35-.09-4.85,0L45,25.2l-3.65.38c-2.22-.16-3.14-.26-.94-.48-5.32.34-4.32.13-8.84.46l.22-.17c-1.62,0-4.2.25-5.18.1-1.81-.16-6.29-.17-11.47-.17h-2c-.35,0-.64,0-.94,0a7,7,0,0,1-.91-.07,11.48,11.48,0,0,1-3.43-1,9.22,9.22,0,0,1-4.34-3.93c0,.66-.34,0-.65-.93-.17-.45-.25-1-.37-1.35s-.16-.7-.3-.76c.09-.39.15-1.26.34-.25a14.41,14.41,0,0,1-.09-2.24c0-.69,0-1.32,0-1.89a17.07,17.07,0,0,0-.2-3.41c.15-.4.22.74.31.39a5.89,5.89,0,0,1,0-1.47c.09-.35.13.51.2,1.06,0-3.55-.5-3.91-.93-4.17a10.77,10.77,0,0,0-.11-4ZM.68,7.63A7.79,7.79,0,0,1,.74,5.57C.75,6.18.74,6.86.68,7.63Zm172.53,17-.09,0C171.16,24.57,171.85,24.6,173.21,24.65Zm4.06.12c.41,0,.38-.08.21-.12a13,13,0,0,1-2.24.06A6.92,6.92,0,0,0,177.27,24.77Z"/></g></g></svg>