<svg xmlns="http://www.w3.org/2000/svg" viewBox="0 0 2.94 49.6"><defs><style>.cls-1{fill:#75be87;}</style></defs><g id="Слой_2" data-name="Слой 2"><g id="Слой_1-2" data-name="Слой 1"><path class="cls-1" d="M2.19,48.19c.14-.62.28-1.67.33.53,0-1.23.17-7.57-.16-7.7a11.64,11.64,0,0,0,0-2.05c0-2.79,0-3,0-5.76l0,.75c-.39-1.08-.09-2.27-.14-4.48l0,.07c.26-5.05-.13-2.18.16-7.17l-.23.28c-.49-.47.28-4.42.09-7.31l-.13,1c-.16-1.58.64-4.42.69-6,0-.35.07.55.1,1,.26-4.15-.29-.53-.37-3.63.15-.57.39.73.41-1.35.06-.52-.07-2-.18-3.77,0-.86-.1-1.79-.12-2.67L.64.18c0,.71,0,1.68-.11,2.94L.47.85A53.35,53.35,0,0,0,0,6.65C.12,6,.57,1.51.71,4.13a19.49,19.49,0,0,0,0,3.11c-.22,0-.17,1.38-.17,3.11l-.29-.12A17.58,17.58,0,0,0,.64,13a6.5,6.5,0,0,1-.47,3c-.07,3.32.38-2.29.42,1.64a73.72,73.72,0,0,0,.16,8C.64,27.59.56,25.32.47,26l.24,1.72c0,.41-.08.28-.12.21.09,1.44.31.12.39,2.39.35.6-.53,4.66-.14,7.46-.09.69-.2-.33-.33-.12.25,3.85.18,3.3.54,6.47L.82,46.83c.26-2,.55.55.8,2.77.12-.7.23-1.3.28-1.7ZM.72,4.05a11.45,11.45,0,0,1,0-2.39A5.63,5.63,0,0,1,.72,4.05Z"/></g></g></svg>