<svg xmlns="http://www.w3.org/2000/svg" viewBox="0 0 314 4.78"><defs><style>.cls-1{fill:#75be87;}</style></defs><g id="Слой_2" data-name="Слой 2"><g id="Слой_1-2" data-name="Слой 1"><path class="cls-1" d="M2.1,4.62q0-.66,0-1.29c0-.2,0-.4,0-.6s0-.19,0-.28V2.26a1.39,1.39,0,0,0-.08.36A.71.71,0,0,1,2,2.86s-.05,0-.08-.15,0-.42-.07-.59,0-.33,0-.52l.8,0,2.81.08a52.24,52.24,0,0,0,5.31-.07,2.37,2.37,0,0,1,.54.06c2.3-.07,7.47-.12,8.86-.26,2.12.49,14.29-.25,14.24.19l7.07,0-.18,0c4.52,0,6.12-.09,7.71-.18,1,0,.28.06.2.09,6.6.07,7.26.05,12.8-.16l.58.13c1.5-.08,9.55.17,16,0a4.16,4.16,0,0,1-.71.05c7.29-.15,17.45.27,20.12-.14l4.81-.1c-6.22,0,.93-.17-1.63-.24,2.45,0,6.33.12,3.32.14l-.47,0c-1.1.21,7.73.07,7.56.2l35.65,0L146,1.33h4c1,0,1.41.09-1.44.09.75,0,1.95,0,3,0s1.86-.07,1.9-.08c5.59,0-2.18.14-.47.14h2.33l-.52,0c1.89-.05,2.05-.1,5.48-.1,2.17,0,1.11.07,2,.07a1,1,0,0,0,.27,0h6.08l-2-.08c2.23,0,4.74,0,2.41-.09,3.41.14,18.8,0,20.9.06,3.13-.05,6.22-.05,10-.05-1,0-1.52-.09,1.78-.08-1.21.15,6,.05,8.71.16-2.38-.07,9.38,0,5.64-.12,2.75,0,.17.05,2.26.08,6.55-.06,14.44,0,22.54,0,.13,0-1.23,0,.51-.05l4.28.06c1.6,0,1.47-.08,4.4,0-.41,0-1,0,0,0l48.54-.05c-2.18,0-.73,0,.94,0-1.08,0,0,0-.19,0h6.75l7.94,0h-2.14c2.84,0-4,0-3.56,0H294.69c-1.15,0,1,0,.37,0h-5.55L268.28,1,269,1,265.6,1c-2.3,0,5.64,0,3.54,0C266.48,1,255,1,253.18,1c-3.09,0,.91,0-2.18,0l-.82,0-.78,0c-2,0-3.05,0-3.12,0h1.92c-2.63,0-7.41,0-8.31,0l3,0c-8.43,0-18.73-.06-26.87,0l.62,0c-6.22,0-5,0-11.81,0h.25c-1.37,0-3.19,0-5.06,0,1.72,0-3.25-.07-1-.1-6.75,0-3.34,0-7.79.13l-1,0c-1.52,0-1.65.07-5.06.08,2.8,0-2.18-.08,1-.14-7.16-.12-10.63.1-13.91-.08-3.29.15,6.19.1,4.35.12,1.54,0-2.71.1-5,.09s-3.89-.2-9.64-.21h1.18c-2.15-.05-4.22,0-6.86,0-1.48.1-3.43,0-3.85.12l5.28,0c-3,0-5.8.18-10.72.1.38,0,1.85-.06,2.86-.08-1.44,0-2.77,0-4.27,0,.43-.13,6.41,0,9.62-.11-1.55-.06-6.06.08-4.45-.06-2.31.18-5.67,0-9.56.1l.26-.08c-.62,0-1.89.05-3,.05l2.05-.11c-3.15.09-6.08-.09-9.1-.05,6.33,0,1.42.11,4.1.17C127.63.86,131,.52,122.2.54c1.18,0,4.45.07,2.59.1-1.66,0-3.86-.06-4.89-.11-5.79,0,.89.1-1.58.15-2-.12-2.85,0-5.39.07l0-.09c-6.6-.08-1.75.2-7.7.12l2.51-.14-3.1,0,.64-.12c-3.37.08-4.42,0-7.72,0,.77.08-.43.19-3.36.19a16.38,16.38,0,0,0-3-.09,24.33,24.33,0,0,1,3.77,0c.18,0,.92-.07,1.11-.11-2.15-.08-5.4,0-6.9,0,.58,0,1.27,0,1.62,0l-6,.13c-.95,0-.2-.07.55-.11-1.22,0-2.06.06-3.85.07A9.25,9.25,0,0,1,84.33.38L78.6.47c-.38,0-2.94-.12-2.2-.15C73.23.25,68.61.48,64.4.4c-.22,0-.66,0-1.55,0-4,0-7.46-.17-12.15,0L48,.21c-3.67,0,3.6.25-2.51.31C41.2.57,43.91.35,42.4.29c-2.15.09-5.89.29-9.87.12,1.33,0,2.36,0,3.59,0l-3-.12C36.75.1,39.39.17,36.55,0c-.43.38-11.78,0-12.2.4l-2-.09,1.23,0c-3.88-.2-2.89.29-7.89.22-1.74,0-3-.09-1.77-.14L10,.46C8.9.45,9.18.38,10.3.39L4.37.41h0c-.21,0-.49,0-.8,0l-.49,0H2.86l-.39,0L1,.56.69.58C.59.59.45.56.5.67s0,.3,0,.42C.43,2.62.46.28.39.62L.45,2.37l.07,1.2c-.08.49-.15.23-.21-.35,0-.14,0-.31,0-.49s0-.43,0-.66,0-.64,0-1V.42H.66C.5.42.32.39.2.4S.17.59.15.67.1,1,.08,1.2c0,.35-.06.67-.07,1,0,.11,0,.22,0,.33v.27c0,.17,0,.36,0,.57,0,.38.06.82.08,1.43ZM162.64,1.38h-.79C163.63,1.34,163.13,1.36,162.64,1.38Z"/></g></g></svg>