<svg width="17" height="11" viewBox="0 0 17 11" fill="none" xmlns="http://www.w3.org/2000/svg">
<path d="M7.826 10L6.888 7.564H2.604L1.666 10H0.07L4.074 0.199999H5.418L9.422 10H7.826ZM3.122 6.22H6.37L4.746 2.02L3.122 6.22ZM13.3416 10.21C12.4549 10.21 11.7082 9.89733 11.1016 9.272C10.4949 8.64667 10.1916 7.81133 10.1916 6.766C10.1916 5.72067 10.4949 4.88533 11.1016 4.26C11.7082 3.63467 12.4549 3.322 13.3416 3.322C14.3496 3.322 15.0776 3.70933 15.5256 4.484H15.5536V3.532H16.9256V10H15.5536V9.048H15.5256C15.0776 9.82267 14.3496 10.21 13.3416 10.21ZM12.1936 8.292C12.5576 8.67467 13.0382 8.866 13.6356 8.866C14.2329 8.866 14.7136 8.67467 15.0776 8.292C15.4416 7.9 15.6236 7.39133 15.6236 6.766C15.6236 6.14067 15.4416 5.63667 15.0776 5.254C14.7136 4.862 14.2329 4.666 13.6356 4.666C13.0382 4.666 12.5576 4.862 12.1936 5.254C11.8296 5.63667 11.6476 6.14067 11.6476 6.766C11.6476 7.39133 11.8296 7.9 12.1936 8.292Z" fill="#838799"/>
</svg>
