<svg width="17" height="14" viewBox="0 0 17 14" fill="none" xmlns="http://www.w3.org/2000/svg">
<path d="M-5.92254e-07 6.77447C-6.25448e-07 6.39478 0.282153 6.08098 0.648229 6.03132L0.749999 6.02447L13.934 6.02507L9.17101 1.28154C8.87749 0.98928 8.87647 0.514408 9.16873 0.220884C9.43442 -0.0459548 9.85103 -0.0710586 10.1451 0.146163L10.2294 0.2186L16.2794 6.2426C16.3181 6.28112 16.3517 6.32282 16.3802 6.36685C16.3883 6.3801 16.3965 6.39366 16.4042 6.40749C16.4114 6.41935 16.4178 6.43166 16.4239 6.4441C16.4324 6.46221 16.4407 6.48092 16.4482 6.50001C16.4543 6.51473 16.4594 6.52905 16.464 6.54348C16.4696 6.56137 16.4749 6.58044 16.4796 6.5998C16.483 6.61332 16.4857 6.62633 16.4881 6.63939C16.4914 6.65882 16.4943 6.67892 16.4963 6.69927C16.498 6.71479 16.4991 6.73016 16.4997 6.74555C16.4998 6.75489 16.5 6.76466 16.5 6.77447L16.4996 6.80352C16.499 6.81824 16.498 6.83295 16.4966 6.84762L16.5 6.77447C16.5 6.8218 16.4956 6.8681 16.4872 6.913C16.4853 6.92372 16.483 6.93473 16.4804 6.94569C16.4751 6.96827 16.4689 6.99001 16.4618 7.01133C16.4584 7.02192 16.4543 7.03323 16.45 7.04446C16.4412 7.06703 16.4317 7.08854 16.4212 7.1095C16.4163 7.11935 16.4109 7.12967 16.4052 7.13988C16.3958 7.15654 16.3861 7.17237 16.3759 7.1878C16.3687 7.19872 16.3607 7.21009 16.3524 7.22127L16.3459 7.22992C16.3257 7.25632 16.3038 7.28133 16.2803 7.3048L16.2794 7.3055L10.2294 13.3305C9.93593 13.6228 9.46106 13.6218 9.16877 13.3283C8.90306 13.0615 8.87971 12.6448 9.09818 12.3516L9.17097 12.2676L13.932 7.52507L0.749999 7.52447C0.335786 7.52447 -5.56043e-07 7.18869 -5.92254e-07 6.77447Z" fill="#C4C7D0"/>
</svg>
