<svg fill="none">
  <defs>
    <svg width="100%" height="100%" viewBox="0 0 54 51" fill="none" xmlns="http://www.w3.org/2000/svg" id="text-icon">
      <g opacity="0.35">
        <path d="M6.06218 20.1602L1.75 13.6292L9.56218 14.0981L13.8744 20.6292L6.06218 20.1602Z" fill="currentColor"/>
        <path d="M17 8L21 0L25 8L21 16L17 8Z" fill="currentColor"/>
        <path d="M37.6603 22.1244L26.5 22.7942L32.6603 13.4641L43.8205 12.7942L37.6603 22.1244Z" fill="currentColor"/>
        <path d="M40.7977 31.4229L50.1592 43.9673L34.5068 43.9298L25.1453 31.3854L40.7977 31.4229Z" fill="currentColor"/>
      </g>
    </svg>,
    <svg width="100%" height="100%" viewBox="0 0 36 144" fill="none" xmlns="http://www.w3.org/2000/svg" id="line-icon">
      <path opacity="0.35" fill-rule="evenodd" clip-rule="evenodd" d="M20.0531 0.415578C20.0531 0.649995 19.669 0.84179 19.1997 0.84179C18.7303 0.84179 18.3463 0.992243 18.3463 1.17594C18.3463 1.36006 17.8027 1.83103 17.1384 2.22314C15.3843 3.25798 9.38596 9.35793 9.38596 10.1064C9.38596 10.299 9.00194 10.7329 8.53259 11.0709C8.06324 11.4089 7.67922 12.0264 7.67922 12.4437C7.67922 12.8605 7.48721 13.2019 7.25254 13.2019C7.01786 13.2019 6.82585 13.4662 6.82585 13.7892C6.82585 14.1119 6.53784 14.6148 6.18583 14.9068C5.83381 15.1987 5.5458 15.7976 5.5458 16.2374C5.5458 16.6777 5.40073 17.0378 5.22323 17.0378C5.04573 17.0378 4.67366 17.5651 4.39674 18.2099C4.1194 18.8548 3.40043 20.5085 2.79881 21.8856C2.19761 23.2627 1.70565 24.8337 1.70565 25.3767C1.70565 25.9201 1.51364 26.4827 1.27896 26.6276C1.04429 26.7725 0.852279 27.6356 0.852279 28.5455C0.852279 29.4555 0.660272 30.3186 0.425595 30.4635C-0.114586 30.7972 -0.153841 46.9677 0.384207 47.5333C0.596269 47.7558 0.854839 48.8013 0.95895 49.8561C1.06349 50.911 1.67194 53.5961 2.31196 55.8231C2.95156 58.0501 3.57879 60.3998 3.70551 61.0442C3.83224 61.6886 4.10617 62.2163 4.31396 62.2163C4.52219 62.2163 4.69243 62.6958 4.69243 63.2818C4.69243 63.8678 4.88444 64.3473 5.11912 64.3473C5.35379 64.3473 5.5458 64.6286 5.5458 64.9722C5.5458 65.7428 6.92058 68.7701 7.35921 68.9645C7.535 69.0429 7.67922 69.4585 7.67922 69.8881C7.67922 70.3177 7.90323 70.7439 8.17716 70.8351C8.82529 71.0512 8.82529 73.8395 8.17716 74.0556C7.90323 74.1468 7.67922 74.5568 7.67922 74.9673C7.67922 75.3773 7.54226 75.8495 7.375 76.0166C6.85231 76.5391 5.54665 80.2851 5.54623 81.2641C5.5458 81.7777 5.35379 82.3164 5.11912 82.4613C4.88444 82.6062 4.69243 83.4646 4.69243 84.369C4.69243 85.288 4.4616 86.0901 4.16932 86.1873C3.44353 86.4289 3.46615 103.357 4.19321 104.083C4.468 104.358 4.69243 105.217 4.69243 105.994C4.69243 106.771 4.86396 107.74 5.07346 108.147C5.28296 108.554 5.9951 110.613 6.65561 112.722C7.31611 114.832 8.00862 116.622 8.19466 116.7C8.38026 116.779 8.53259 117.29 8.53259 117.837C8.53259 118.384 8.67681 118.895 8.8526 118.974C9.0284 119.052 9.74864 120.311 10.4527 121.773C11.1567 123.234 11.8769 124.432 12.0527 124.436C12.2285 124.44 12.3727 124.731 12.3727 125.082C12.3727 125.434 12.5648 125.722 12.7994 125.722C13.0341 125.722 13.2261 125.913 13.2261 126.147C13.2261 127.576 21.0344 136.377 22.3021 136.377C22.6801 136.377 23.1081 136.569 23.2532 136.803C23.4029 137.045 23.0441 137.23 22.425 137.23C21.8246 137.23 21.3331 137.038 21.3331 136.803C21.3331 136.569 20.9555 136.377 20.4942 136.377C19.559 136.377 16.5056 135.064 16.2842 134.566C16.2056 134.39 15.7896 134.246 15.3595 134.246C14.9294 134.246 14.5134 134.093 14.4349 133.906C14.19 133.32 10.0998 131.591 8.42592 131.366C6.82969 131.151 6.59929 131.362 6.79385 132.861C6.83823 133.2 6.31341 133.394 5.35123 133.394C4.12366 133.394 3.83907 133.554 3.83907 134.246C3.83907 134.715 4.03107 135.098 4.26575 135.098C4.50043 135.098 4.69243 135.5 4.69243 135.991C4.69243 136.525 5.03506 136.973 5.5458 137.106C6.01515 137.229 6.39917 137.465 6.39917 137.632C6.39917 137.89 9.75802 139.107 14.7498 140.658C15.4705 140.882 16.5747 141.065 17.2032 141.065C17.8317 141.065 18.3463 141.237 18.3463 141.447C18.3463 141.657 19.0666 141.933 19.9464 142.061C23.1888 142.532 28.6047 143.583 28.978 143.814C29.9658 144.424 30.7201 143.491 30.7201 141.659C30.7201 140.629 30.5687 139.787 30.3839 139.787C30.1992 139.787 29.6709 138.54 29.2105 137.016C28.7502 135.493 28.2292 134.246 28.0534 134.246C27.8776 134.246 27.7334 133.767 27.7334 133.181C27.7334 132.594 27.5883 132.115 27.4104 132.115C27.2329 132.115 26.851 131.357 26.5617 130.431C26.2724 129.505 25.5338 127.635 24.9202 126.276C23.2139 122.494 22.355 120.378 21.971 119.009C21.6868 117.994 21.133 117.765 20.6909 118.48C20.4004 118.949 19.1997 117.978 19.1997 117.273C19.1997 116.753 17.9683 116.265 17.4545 116.582C16.8726 116.941 16.963 117.373 18.1842 120.063C18.799 121.417 19.5931 123.197 19.9485 124.017C20.3039 124.837 20.8433 126 21.1462 126.599C21.4496 127.199 21.5622 127.909 21.3967 128.176C21.0596 128.721 18.9501 126.901 16.8504 124.254C16.1476 123.367 15.1398 122.137 14.6103 121.518C14.0808 120.9 13.5397 120.058 13.4083 119.648C13.2765 119.238 12.9897 118.902 12.7708 118.902C12.552 118.902 12.3727 118.519 12.3727 118.05C12.3727 117.581 12.1807 117.198 11.9461 117.198C11.7114 117.198 11.5194 116.91 11.5194 116.558C11.5194 116.207 11.3743 115.919 11.1972 115.919C10.8456 115.919 9.88603 113.42 9.51908 111.55C9.39278 110.906 9.11885 110.378 8.91106 110.378C8.70284 110.378 8.53259 109.814 8.53259 109.125C8.53259 108.435 8.36106 107.765 8.15113 107.636C7.71848 107.369 7.43132 105.668 6.75673 99.3696C6.40856 96.1193 6.4124 93.7777 6.77166 90.4191C7.48636 83.7365 7.72701 82.2691 8.15113 82.0074C8.36106 81.8778 8.53259 81.3148 8.53259 80.7565C8.53259 80.1981 8.7246 79.6228 8.95927 79.4778C9.19395 79.3329 9.38596 78.8633 9.38596 78.4345C9.38596 78.0053 9.74522 77.2113 10.1843 76.6695C10.922 75.7591 11.0355 75.737 11.6777 76.3784C12.06 76.7603 12.3727 77.2398 12.3727 77.444C12.3727 78.0901 18.7679 84.3793 19.4245 84.3793C19.7702 84.3793 20.0531 84.5545 20.0531 84.7684C20.0531 84.9819 21.3532 85.6532 22.9421 86.2601C26.1435 87.4817 30.3169 87.7421 32.0779 86.83C33.6762 86.0014 35.2468 84.2489 35.63 82.8662C36.3972 80.0963 35.8758 71.5929 34.9388 71.5929C34.7305 71.5929 34.5603 71.2093 34.5603 70.7405C34.5603 70.2717 34.3683 69.8881 34.1336 69.8881C33.8989 69.8881 33.7069 69.6243 33.7069 69.3016C33.7069 68.4432 30.7411 65.4397 28.7843 64.3166C26.3202 62.9016 20.7323 62.9238 17.7063 64.3601C16.5329 64.9172 15.5089 65.5254 15.4308 65.7125C15.3523 65.8992 15.0643 66.0607 14.7908 66.0714C14.5168 66.082 13.4288 66.943 12.3727 67.9846L10.4527 69.8779L9.81264 68.4978C9.46063 67.7387 9.02882 67.0538 8.8526 66.9758C8.67681 66.8974 8.53259 66.466 8.53259 66.0168C8.53259 65.5676 8.34058 65.1998 8.1059 65.1998C7.87123 65.1998 7.67922 64.9095 7.67922 64.5545C7.67922 64.1999 7.49319 63.5763 7.26619 63.1693C6.59971 61.9759 5.5458 58.4324 5.5458 57.3852C5.5458 56.8541 5.37001 56.2378 5.15496 56.0149C3.84973 54.6621 3.86851 33.3664 5.17587 32.5596C5.3794 32.4339 5.5458 31.789 5.5458 31.1267C5.5458 29.883 6.6091 25.9133 7.29179 24.6091C7.50514 24.202 7.67922 23.4941 7.67922 23.0359C7.67922 22.5777 7.87123 22.0842 8.1059 21.9393C8.34058 21.7944 8.53259 21.3038 8.53259 20.8486C8.53259 20.3934 8.7246 20.0213 8.95927 20.0213C9.19395 20.0213 9.38596 19.6744 9.38596 19.2503C9.38596 18.8262 9.668 18.1072 10.0123 17.652C10.3571 17.1972 10.6451 16.4893 10.6524 16.0789C10.66 15.6684 10.858 15.333 11.0927 15.333C11.3274 15.333 11.5194 15.0453 11.5194 14.6937C11.5194 14.342 11.7114 14.0544 11.9461 14.0544C12.1807 14.0544 12.3727 13.8583 12.3727 13.6192C12.3727 13.1018 14.5791 9.64136 15.0395 9.4372C15.2153 9.35878 15.36 9.07108 15.3604 8.79788C15.3612 8.52426 15.9381 7.62921 16.6426 6.80875C17.3475 5.9883 18.0318 4.98116 18.1637 4.57114C18.296 4.16113 18.5827 3.82527 18.8016 3.82527C19.0205 3.82527 19.1997 3.53758 19.1997 3.18595C19.1997 2.83433 19.3554 2.54664 19.5457 2.54664C20.1751 2.54664 21.7837 0.798742 21.5307 0.390005C21.2004 -0.144038 20.0531 -0.124006 20.0531 0.415578ZM9.61167 13.9435C9.45039 14.5858 9.18925 15.209 9.03138 15.3287C8.87351 15.4481 8.52491 16.0256 8.2561 16.6116C6.10518 21.3025 5.5458 22.7077 5.5458 23.4174C5.5458 23.8662 5.35379 24.3516 5.11912 24.4965C4.88444 24.6415 4.69243 25.2168 4.69243 25.7752C4.69243 26.3335 4.50043 26.9089 4.26575 27.0538C4.03107 27.1987 3.83907 28.0729 3.83907 28.9969C3.83907 29.9209 3.65773 30.6766 3.43585 30.6766C3.21397 30.6766 2.96052 31.5878 2.87263 32.7011L2.71262 34.7256L2.64606 32.5946C2.60936 31.4225 2.78644 29.6963 3.03946 28.7587C3.29248 27.821 3.59628 26.3348 3.71405 25.4555C3.83224 24.5767 4.10062 23.8572 4.31055 23.8572C4.52048 23.8572 4.69243 23.3777 4.69243 22.7917C4.69243 22.2057 4.88444 21.7262 5.11912 21.7262C5.35379 21.7262 5.5458 21.4436 5.5458 21.0984C5.5458 20.3111 7.73981 15.596 8.19551 15.4042C8.38069 15.3257 8.53259 14.9903 8.53259 14.6583C8.53259 14.3263 8.7246 14.0544 8.95927 14.0544C9.19395 14.0544 9.38596 13.7667 9.38596 13.415C9.38596 13.0634 9.50287 12.7757 9.64538 12.7757C9.78832 12.7757 9.77296 13.3012 9.61167 13.9435ZM28.0956 67.6343C29.982 68.5178 30.7201 69.1929 30.7201 70.0351C30.7201 70.3842 30.942 70.7435 31.2134 70.8338C31.9029 71.0631 31.9097 75.9279 31.2224 77.1848C30.1296 79.1833 28.6989 79.8307 25.428 79.8073C22.4271 79.786 21.456 79.454 17.5343 77.1077C15.7056 76.014 13.2261 73.5642 13.2261 72.8511C13.2261 71.9667 15.9996 69.3886 17.813 68.5877C18.5754 68.251 19.1997 67.8435 19.1997 67.6824C19.1997 66.7431 26.1128 66.7056 28.0956 67.6343ZM33.7069 80.1832C33.7069 81.698 33.4573 82.1911 31.9823 83.5929C30.3814 85.1141 30.0767 85.2317 27.7406 85.2317C26.3565 85.2317 25.105 85.0399 24.9599 84.8055C24.8148 84.5711 24.3237 84.3793 23.868 84.3793C23.4123 84.3793 23.0398 84.1875 23.0398 83.9531C23.0398 83.7187 22.8 83.526 22.5065 83.5247C22.2134 83.5234 21.3971 83.032 20.6931 82.4319L19.413 81.3412L20.6931 81.6349C21.3971 81.796 23.4413 82.0142 25.236 82.1195C27.9505 82.2785 28.792 82.1609 30.2431 81.4214C31.2027 80.9325 32.3006 80.0554 32.6829 79.4723C33.0656 78.8892 33.4522 78.4123 33.5427 78.4123C33.6331 78.4123 33.7069 79.2093 33.7069 80.1832Z" fill="currentColor"/>
    </svg>
  </defs>
</svg>
