<svg fill="none">
  <defs>
    <svg width="100%" height="100%" viewBox="0 0 54 51" fill="none" xmlns="http://www.w3.org/2000/svg" id="text-icon">
      <g opacity="0.35">
        <path d="M6.06218 20.1602L1.75 13.6292L9.56218 14.0981L13.8744 20.6292L6.06218 20.1602Z" fill="currentColor" />
        <path d="M17 8L21 0L25 8L21 16L17 8Z" fill="currentColor" />
        <path d="M37.6603 22.1244L26.5 22.7942L32.6603 13.4641L43.8205 12.7942L37.6603 22.1244Z" fill="currentColor" />
        <path d="M40.7977 31.4229L50.1592 43.9673L34.5068 43.9298L25.1453 31.3854L40.7977 31.4229Z"
          fill="currentColor" />
      </g>
    </svg>,
    <svg width="100%" height="100%" viewBox="0 0 36 144" fill="none" xmlns="http://www.w3.org/2000/svg" id="line-icon">
      <path opacity="0.35" fill-rule="evenodd" clip-rule="evenodd"
        d="M20.0531 0.415578C20.0531 0.649995 19.669 0.84179 19.1997 0.84179C18.7303 0.84179 18.3463 0.992243 18.3463 1.17594C18.3463 1.36006 17.8027 1.83103 17.1384 2.22314C15.3843 3.25798 9.38596 9.35793 9.38596 10.1064C9.38596 10.299 9.00194 10.7329 8.53259 11.0709C8.06324 11.4089 7.67922 12.0264 7.67922 12.4437C7.67922 12.8605 7.48721 13.2019 7.25254 13.2019C7.01786 13.2019 6.82585 13.4662 6.82585 13.7892C6.82585 14.1119 6.53784 14.6148 6.18583 14.9068C5.83381 15.1987 5.5458 15.7976 5.5458 16.2374C5.5458 16.6777 5.40073 17.0378 5.22323 17.0378C5.04573 17.0378 4.67366 17.5651 4.39674 18.2099C4.1194 18.8548 3.40043 20.5085 2.79881 21.8856C2.19761 23.2627 1.70565 24.8337 1.70565 25.3767C1.70565 25.9201 1.51364 26.4827 1.27896 26.6276C1.04429 26.7725 0.852279 27.6356 0.852279 28.5455C0.852279 29.4555 0.660272 30.3186 0.425595 30.4635C-0.114586 30.7972 -0.153841 46.9677 0.384207 47.5333C0.596269 47.7558 0.854839 48.8013 0.95895 49.8561C1.06349 50.911 1.67194 53.5961 2.31196 55.8231C2.95156 58.0501 3.57879 60.3998 3.70551 61.0442C3.83224 61.6886 4.10617 62.2163 4.31396 62.2163C4.52219 62.2163 4.69243 62.6958 4.69243 63.2818C4.69243 63.8678 4.88444 64.3473 5.11912 64.3473C5.35379 64.3473 5.5458 64.6286 5.5458 64.9722C5.5458 65.7428 6.92058 68.7701 7.35921 68.9645C7.535 69.0429 7.67922 69.4585 7.67922 69.8881C7.67922 70.3177 7.90323 70.7439 8.17716 70.8351C8.82529 71.0512 8.82529 73.8395 8.17716 74.0556C7.90323 74.1468 7.67922 74.5568 7.67922 74.9673C7.67922 75.3773 7.54226 75.8495 7.375 76.0166C6.85231 76.5391 5.54665 80.2851 5.54623 81.2641C5.5458 81.7777 5.35379 82.3164 5.11912 82.4613C4.88444 82.6062 4.69243 83.4646 4.69243 84.369C4.69243 85.288 4.4616 86.0901 4.16932 86.1873C3.44353 86.4289 3.46615 103.357 4.19321 104.083C4.468 104.358 4.69243 105.217 4.69243 105.994C4.69243 106.771 4.86396 107.74 5.07346 108.147C5.28296 108.554 5.9951 110.613 6.65561 112.722C7.31611 114.832 8.00862 116.622 8.19466 116.7C8.38026 116.779 8.53259 117.29 8.53259 117.837C8.53259 118.384 8.67681 118.895 8.8526 118.974C9.0284 119.052 9.74864 120.311 10.4527 121.773C11.1567 123.234 11.8769 124.432 12.0527 124.436C12.2285 124.44 12.3727 124.731 12.3727 125.082C12.3727 125.434 12.5648 125.722 12.7994 125.722C13.0341 125.722 13.2261 125.913 13.2261 126.147C13.2261 127.576 21.0344 136.377 22.3021 136.377C22.6801 136.377 23.1081 136.569 23.2532 136.803C23.4029 137.045 23.0441 137.23 22.425 137.23C21.8246 137.23 21.3331 137.038 21.3331 136.803C21.3331 136.569 20.9555 136.377 20.4942 136.377C19.559 136.377 16.5056 135.064 16.2842 134.566C16.2056 134.39 15.7896 134.246 15.3595 134.246C14.9294 134.246 14.5134 134.093 14.4349 133.906C14.19 133.32 10.0998 131.591 8.42592 131.366C6.82969 131.151 6.59929 131.362 6.79385 132.861C6.83823 133.2 6.31341 133.394 5.35123 133.394C4.12366 133.394 3.83907 133.554 3.83907 134.246C3.83907 134.715 4.03107 135.098 4.26575 135.098C4.50043 135.098 4.69243 135.5 4.69243 135.991C4.69243 136.525 5.03506 136.973 5.5458 137.106C6.01515 137.229 6.39917 137.465 6.39917 137.632C6.39917 137.89 9.75802 139.107 14.7498 140.658C15.4705 140.882 16.5747 141.065 17.2032 141.065C17.8317 141.065 18.3463 141.237 18.3463 141.447C18.3463 141.657 19.0666 141.933 19.9464 142.061C23.1888 142.532 28.6047 143.583 28.978 143.814C29.9658 144.424 30.7201 143.491 30.7201 141.659C30.7201 140.629 30.5687 139.787 30.3839 139.787C30.1992 139.787 29.6709 138.54 29.2105 137.016C28.7502 135.493 28.2292 134.246 28.0534 134.246C27.8776 134.246 27.7334 133.767 27.7334 133.181C27.7334 132.594 27.5883 132.115 27.4104 132.115C27.2329 132.115 26.851 131.357 26.5617 130.431C26.2724 129.505 25.5338 127.635 24.9202 126.276C23.2139 122.494 22.355 120.378 21.971 119.009C21.6868 117.994 21.133 117.765 20.6909 118.48C20.4004 118.949 19.1997 117.978 19.1997 117.273C19.1997 116.753 17.9683 116.265 17.4545 116.582C16.8726 116.941 16.963 117.373 18.1842 120.063C18.799 121.417 19.5931 123.197 19.9485 124.017C20.3039 124.837 20.8433 126 21.1462 126.599C21.4496 127.199 21.5622 127.909 21.3967 128.176C21.0596 128.721 18.9501 126.901 16.8504 124.254C16.1476 123.367 15.1398 122.137 14.6103 121.518C14.0808 120.9 13.5397 120.058 13.4083 119.648C13.2765 119.238 12.9897 118.902 12.7708 118.902C12.552 118.902 12.3727 118.519 12.3727 118.05C12.3727 117.581 12.1807 117.198 11.9461 117.198C11.7114 117.198 11.5194 116.91 11.5194 116.558C11.5194 116.207 11.3743 115.919 11.1972 115.919C10.8456 115.919 9.88603 113.42 9.51908 111.55C9.39278 110.906 9.11885 110.378 8.91106 110.378C8.70284 110.378 8.53259 109.814 8.53259 109.125C8.53259 108.435 8.36106 107.765 8.15113 107.636C7.71848 107.369 7.43132 105.668 6.75673 99.3696C6.40856 96.1193 6.4124 93.7777 6.77166 90.4191C7.48636 83.7365 7.72701 82.2691 8.15113 82.0074C8.36106 81.8778 8.53259 81.3148 8.53259 80.7565C8.53259 80.1981 8.7246 79.6228 8.95927 79.4778C9.19395 79.3329 9.38596 78.8633 9.38596 78.4345C9.38596 78.0053 9.74522 77.2113 10.1843 76.6695C10.922 75.7591 11.0355 75.737 11.6777 76.3784C12.06 76.7603 12.3727 77.2398 12.3727 77.444C12.3727 78.0901 18.7679 84.3793 19.4245 84.3793C19.7702 84.3793 20.0531 84.5545 20.0531 84.7684C20.0531 84.9819 21.3532 85.6532 22.9421 86.2601C26.1435 87.4817 30.3169 87.7421 32.0779 86.83C33.6762 86.0014 35.2468 84.2489 35.63 82.8662C36.3972 80.0963 35.8758 71.5929 34.9388 71.5929C34.7305 71.5929 34.5603 71.2093 34.5603 70.7405C34.5603 70.2717 34.3683 69.8881 34.1336 69.8881C33.8989 69.8881 33.7069 69.6243 33.7069 69.3016C33.7069 68.4432 30.7411 65.4397 28.7843 64.3166C26.3202 62.9016 20.7323 62.9238 17.7063 64.3601C16.5329 64.9172 15.5089 65.5254 15.4308 65.7125C15.3523 65.8992 15.0643 66.0607 14.7908 66.0714C14.5168 66.082 13.4288 66.943 12.3727 67.9846L10.4527 69.8779L9.81264 68.4978C9.46063 67.7387 9.02882 67.0538 8.8526 66.9758C8.67681 66.8974 8.53259 66.466 8.53259 66.0168C8.53259 65.5676 8.34058 65.1998 8.1059 65.1998C7.87123 65.1998 7.67922 64.9095 7.67922 64.5545C7.67922 64.1999 7.49319 63.5763 7.26619 63.1693C6.59971 61.9759 5.5458 58.4324 5.5458 57.3852C5.5458 56.8541 5.37001 56.2378 5.15496 56.0149C3.84973 54.6621 3.86851 33.3664 5.17587 32.5596C5.3794 32.4339 5.5458 31.789 5.5458 31.1267C5.5458 29.883 6.6091 25.9133 7.29179 24.6091C7.50514 24.202 7.67922 23.4941 7.67922 23.0359C7.67922 22.5777 7.87123 22.0842 8.1059 21.9393C8.34058 21.7944 8.53259 21.3038 8.53259 20.8486C8.53259 20.3934 8.7246 20.0213 8.95927 20.0213C9.19395 20.0213 9.38596 19.6744 9.38596 19.2503C9.38596 18.8262 9.668 18.1072 10.0123 17.652C10.3571 17.1972 10.6451 16.4893 10.6524 16.0789C10.66 15.6684 10.858 15.333 11.0927 15.333C11.3274 15.333 11.5194 15.0453 11.5194 14.6937C11.5194 14.342 11.7114 14.0544 11.9461 14.0544C12.1807 14.0544 12.3727 13.8583 12.3727 13.6192C12.3727 13.1018 14.5791 9.64136 15.0395 9.4372C15.2153 9.35878 15.36 9.07108 15.3604 8.79788C15.3612 8.52426 15.9381 7.62921 16.6426 6.80875C17.3475 5.9883 18.0318 4.98116 18.1637 4.57114C18.296 4.16113 18.5827 3.82527 18.8016 3.82527C19.0205 3.82527 19.1997 3.53758 19.1997 3.18595C19.1997 2.83433 19.3554 2.54664 19.5457 2.54664C20.1751 2.54664 21.7837 0.798742 21.5307 0.390005C21.2004 -0.144038 20.0531 -0.124006 20.0531 0.415578ZM9.61167 13.9435C9.45039 14.5858 9.18925 15.209 9.03138 15.3287C8.87351 15.4481 8.52491 16.0256 8.2561 16.6116C6.10518 21.3025 5.5458 22.7077 5.5458 23.4174C5.5458 23.8662 5.35379 24.3516 5.11912 24.4965C4.88444 24.6415 4.69243 25.2168 4.69243 25.7752C4.69243 26.3335 4.50043 26.9089 4.26575 27.0538C4.03107 27.1987 3.83907 28.0729 3.83907 28.9969C3.83907 29.9209 3.65773 30.6766 3.43585 30.6766C3.21397 30.6766 2.96052 31.5878 2.87263 32.7011L2.71262 34.7256L2.64606 32.5946C2.60936 31.4225 2.78644 29.6963 3.03946 28.7587C3.29248 27.821 3.59628 26.3348 3.71405 25.4555C3.83224 24.5767 4.10062 23.8572 4.31055 23.8572C4.52048 23.8572 4.69243 23.3777 4.69243 22.7917C4.69243 22.2057 4.88444 21.7262 5.11912 21.7262C5.35379 21.7262 5.5458 21.4436 5.5458 21.0984C5.5458 20.3111 7.73981 15.596 8.19551 15.4042C8.38069 15.3257 8.53259 14.9903 8.53259 14.6583C8.53259 14.3263 8.7246 14.0544 8.95927 14.0544C9.19395 14.0544 9.38596 13.7667 9.38596 13.415C9.38596 13.0634 9.50287 12.7757 9.64538 12.7757C9.78832 12.7757 9.77296 13.3012 9.61167 13.9435ZM28.0956 67.6343C29.982 68.5178 30.7201 69.1929 30.7201 70.0351C30.7201 70.3842 30.942 70.7435 31.2134 70.8338C31.9029 71.0631 31.9097 75.9279 31.2224 77.1848C30.1296 79.1833 28.6989 79.8307 25.428 79.8073C22.4271 79.786 21.456 79.454 17.5343 77.1077C15.7056 76.014 13.2261 73.5642 13.2261 72.8511C13.2261 71.9667 15.9996 69.3886 17.813 68.5877C18.5754 68.251 19.1997 67.8435 19.1997 67.6824C19.1997 66.7431 26.1128 66.7056 28.0956 67.6343ZM33.7069 80.1832C33.7069 81.698 33.4573 82.1911 31.9823 83.5929C30.3814 85.1141 30.0767 85.2317 27.7406 85.2317C26.3565 85.2317 25.105 85.0399 24.9599 84.8055C24.8148 84.5711 24.3237 84.3793 23.868 84.3793C23.4123 84.3793 23.0398 84.1875 23.0398 83.9531C23.0398 83.7187 22.8 83.526 22.5065 83.5247C22.2134 83.5234 21.3971 83.032 20.6931 82.4319L19.413 81.3412L20.6931 81.6349C21.3971 81.796 23.4413 82.0142 25.236 82.1195C27.9505 82.2785 28.792 82.1609 30.2431 81.4214C31.2027 80.9325 32.3006 80.0554 32.6829 79.4723C33.0656 78.8892 33.4522 78.4123 33.5427 78.4123C33.6331 78.4123 33.7069 79.2093 33.7069 80.1832Z"
        fill="currentColor" />
    </svg>,
    <svg width="100%" height="100%" viewBox="0 0 17 14" fill="none" xmlns="http://www.w3.org/2000/svg" id="arrow-right">
      <path
        d="M-5.92254e-07 6.77447C-6.25448e-07 6.39478 0.282153 6.08098 0.648229 6.03132L0.749999 6.02447L13.934 6.02507L9.17101 1.28154C8.87749 0.98928 8.87647 0.514408 9.16873 0.220884C9.43442 -0.0459548 9.85103 -0.0710586 10.1451 0.146163L10.2294 0.2186L16.2794 6.2426C16.3181 6.28112 16.3517 6.32282 16.3802 6.36685C16.3883 6.3801 16.3965 6.39366 16.4042 6.40749C16.4114 6.41935 16.4178 6.43166 16.4239 6.4441C16.4324 6.46221 16.4407 6.48092 16.4482 6.50001C16.4543 6.51473 16.4594 6.52905 16.464 6.54348C16.4696 6.56137 16.4749 6.58044 16.4796 6.5998C16.483 6.61332 16.4857 6.62633 16.4881 6.63939C16.4914 6.65882 16.4943 6.67892 16.4963 6.69927C16.498 6.71479 16.4991 6.73016 16.4997 6.74555C16.4998 6.75489 16.5 6.76466 16.5 6.77447L16.4996 6.80352C16.499 6.81824 16.498 6.83295 16.4966 6.84762L16.5 6.77447C16.5 6.8218 16.4956 6.8681 16.4872 6.913C16.4853 6.92372 16.483 6.93473 16.4804 6.94569C16.4751 6.96827 16.4689 6.99001 16.4618 7.01133C16.4584 7.02192 16.4543 7.03323 16.45 7.04446C16.4412 7.06703 16.4317 7.08854 16.4212 7.1095C16.4163 7.11935 16.4109 7.12967 16.4052 7.13988C16.3958 7.15654 16.3861 7.17237 16.3759 7.1878C16.3687 7.19872 16.3607 7.21009 16.3524 7.22127L16.3459 7.22992C16.3257 7.25632 16.3038 7.28133 16.2803 7.3048L16.2794 7.3055L10.2294 13.3305C9.93593 13.6228 9.46106 13.6218 9.16877 13.3283C8.90306 13.0615 8.87971 12.6448 9.09818 12.3516L9.17097 12.2676L13.932 7.52507L0.749999 7.52447C0.335786 7.52447 -5.56043e-07 7.18869 -5.92254e-07 6.77447Z"
        fill="currentColor" />
    </svg>,
    <svg width="100%" height="100%" viewBox="0 0 11 11" fill="none" xmlns="http://www.w3.org/2000/svg" id="close">
      <path d="M1.01733 1.01758L9.26691 9.26716" stroke="currentColor" stroke-width="2" stroke-linecap="round"
        stroke-linejoin="round" />
      <path d="M1.01733 9.26758L9.26691 1.018" stroke="currentColor" stroke-width="2" stroke-linecap="round"
        stroke-linejoin="round" />
    </svg>,
    <svg width="100%" height="100%" viewBox="0 0 14 18" fill="none" xmlns="http://www.w3.org/2000/svg" id="user">
      <path
        d="M7.00004 11.6453C10.6156 11.6453 13.6667 12.2328 13.6667 14.4995C13.6667 16.767 10.5956 17.3337 7.00004 17.3337C3.38535 17.3337 0.333374 16.7462 0.333374 14.4795C0.333374 12.2119 3.40453 11.6453 7.00004 11.6453ZM7.00004 0.666992C9.44929 0.666992 11.4117 2.62868 11.4117 5.0762C11.4117 7.52373 9.44929 9.48625 7.00004 9.48625C4.55162 9.48625 2.58839 7.52373 2.58839 5.0762C2.58839 2.62868 4.55162 0.666992 7.00004 0.666992Z"
        fill="currentColor" />
    </svg>,
    <svg width="100%" height="100%" viewBox="0 0 18 18" fill="none" xmlns="http://www.w3.org/2000/svg" id="experience">
      <path
        d="M17.1749 9.67969C17.2349 9.71344 17.2469 9.785 17.2493 9.81228L17.2499 9.82315L17.1832 14.1269C17.1832 15.8437 15.853 17.2437 14.1781 17.3295L14.015 17.3337H3.97661C2.28045 17.3337 0.897275 15.9873 0.812483 14.292L0.808364 14.1269L0.750001 9.82315C0.750001 9.82315 0.750001 9.72188 0.825039 9.67969C0.891739 9.63749 0.975114 9.68813 0.983451 9.69657C2.66763 10.8274 4.69364 11.5784 6.8197 11.8906C7.11985 11.9328 7.42 11.7387 7.50338 11.435C7.67534 10.7862 8.20637 10.3452 8.85601 10.2926L8.98745 10.2873H9.01247C9.72115 10.2873 10.3131 10.743 10.4965 11.435C10.5799 11.7387 10.8801 11.9328 11.1802 11.8906C13.3063 11.5784 15.3323 10.8274 17.0165 9.69657C17.0165 9.69657 17.0331 9.68813 17.0498 9.67969C17.0832 9.66281 17.1332 9.65437 17.1749 9.67969ZM8.99579 11.494C8.68244 11.494 8.41813 11.7351 8.37625 12.0418L8.37048 12.1269V13.2155C8.37048 13.57 8.65395 13.8484 8.99579 13.8484C9.31678 13.8484 9.57473 13.6144 9.61549 13.3024L9.6211 13.2155V12.1269C9.6211 11.7809 9.34597 11.494 8.99579 11.494ZM10.0713 0.666992C11.322 0.666992 12.3475 1.62057 12.5059 2.8442H14.1567C15.9076 2.8442 17.3333 4.28723 17.3333 6.05937C17.3333 6.05937 17.2833 6.80958 17.2666 7.8543C17.2649 7.937 17.2249 8.01801 17.159 8.06695C16.758 8.36316 16.3912 8.60788 16.3578 8.62476C14.9738 9.55302 13.3655 10.2062 11.6521 10.5311C11.5404 10.553 11.4303 10.4948 11.3736 10.3952C10.8934 9.56315 9.99629 9.02138 8.99579 9.02138C8.00196 9.02138 7.09651 9.55724 6.60209 10.3901C6.54456 10.488 6.43618 10.5446 6.32529 10.5235C4.62611 10.1977 3.0178 9.54543 1.64211 8.6332L0.841714 8.07624C0.775013 8.03404 0.733326 7.95809 0.733326 7.87371C0.708313 7.44333 0.666626 6.05937 0.666626 6.05937C0.666626 4.28723 2.09234 2.8442 3.84321 2.8442H5.4857C5.64411 1.62057 6.66963 0.666992 7.92025 0.666992H10.0713ZM10.0713 1.93281H7.92025C7.36164 1.93281 6.8864 2.32099 6.753 2.8442H11.2386C11.1052 2.32099 10.6299 1.93281 10.0713 1.93281Z"
        fill="currentColor" />
    </svg>,
    <svg width="100%" height="100%" viewBox="0 0 14 18" fill="none" xmlns="http://www.w3.org/2000/svg" id="download">
      <path
        d="M8.66671 0.666992H2.00004C1.07504 0.666992 0.333374 1.40866 0.333374 2.33366V15.667C0.333374 16.592 1.07504 17.3337 2.00004 17.3337H12C12.925 17.3337 13.6667 16.592 13.6667 15.667V5.66699L8.66671 0.666992ZM7.00004 14.8337L3.66671 11.5003H5.75004V9.00033H8.25004V11.5003H10.3334L7.00004 14.8337ZM7.83337 6.50033V1.91699L12.4167 6.50033H7.83337Z"
        fill="currentColor" />
    </svg>,
    <svg width="100%" height="100%" viewBox="0 0 16 16" fill="none" xmlns="http://www.w3.org/2000/svg" id="dashboard">
      <path
        d="M8.83333 0.5V7.16667H15.5V0.5H8.83333ZM0.5 15.5H7.16667V8.83333H0.5V15.5ZM0.5 0.5V7.16667H7.16667V0.5H0.5ZM8.83333 11.3333H11.3333V8.83333H13V11.3333H15.5V13H13V15.5H11.3333V13H8.83333V11.3333Z"
        fill="currentColor" />
    </svg>,
    <svg width="100%" height="100%" viewBox="0 0 16 18" fill="none" xmlns="http://www.w3.org/2000/svg" id="settings">
      <path
        d="M8.59761 0.666992C9.22781 0.666992 9.79841 1.01699 10.1135 1.53366C10.2668 1.78366 10.369 2.09199 10.3435 2.41699C10.3264 2.66699 10.4031 2.91699 10.5393 3.15033C10.9737 3.85866 11.936 4.12533 12.6854 3.72533C13.5286 3.24199 14.5931 3.53366 15.0785 4.35866L15.6491 5.34199C16.1431 6.16699 15.8705 7.22533 15.0189 7.70033C14.295 8.12532 14.0395 9.06699 14.4739 9.78366C14.6101 10.0087 14.7634 10.2003 15.0019 10.317C15.2999 10.4753 15.5299 10.7253 15.6917 10.9753C16.0068 11.492 15.9812 12.1253 15.6747 12.6837L15.0785 13.6837C14.7634 14.217 14.1758 14.5503 13.5711 14.5503C13.2731 14.5503 12.9409 14.467 12.6684 14.3003C12.447 14.1587 12.1915 14.1087 11.919 14.1087C11.0759 14.1087 10.369 14.8003 10.3435 15.6253C10.3435 16.5837 9.55995 17.3337 8.58057 17.3337H7.42236C6.43446 17.3337 5.65096 16.5837 5.65096 15.6253C5.63393 14.8003 4.92708 14.1087 4.08396 14.1087C3.80292 14.1087 3.54743 14.1587 3.33453 14.3003C3.062 14.467 2.72135 14.5503 2.4318 14.5503C1.81862 14.5503 1.231 14.217 0.915894 13.6837L0.328268 12.6837C0.0131649 12.142 -0.00386768 11.492 0.311236 10.9753C0.447497 10.7253 0.702986 10.4753 0.992541 10.317C1.231 10.2003 1.38429 10.0087 1.52907 9.78366C1.95488 9.06699 1.69939 8.12532 0.975508 7.70033C0.132393 7.22533 -0.140129 6.16699 0.345301 5.34199L0.915894 4.35866C1.40984 3.53366 2.46586 3.24199 3.31749 3.72533C4.05841 4.12533 5.02076 3.85866 5.45509 3.15033C5.59135 2.91699 5.668 2.66699 5.65096 2.41699C5.63393 2.09199 5.72761 1.78366 5.88942 1.53366C6.20452 1.01699 6.77512 0.683659 7.39681 0.666992H8.59761ZM8.00998 6.65033C6.67292 6.65033 5.59135 7.70033 5.59135 9.00866C5.59135 10.317 6.67292 11.3587 8.00998 11.3587C9.34704 11.3587 10.4031 10.317 10.4031 9.00866C10.4031 7.70033 9.34704 6.65033 8.00998 6.65033Z"
        fill="currentColor" />
    </svg>,
    <svg width="100%" height="100%" viewBox="0 0 20 20" fill="none" xmlns="http://www.w3.org/2000/svg" id="logout">
      <path
        d="M9.57724 1.66699C11.646 1.66699 13.3333 3.32533 13.3333 5.36699V9.35866H8.24608C7.8815 9.35866 7.59323 9.64199 7.59323 10.0003C7.59323 10.3503 7.8815 10.642 8.24608 10.642H13.3333V14.6253C13.3333 16.667 11.646 18.3337 9.56028 18.3337H5.43116C3.35388 18.3337 1.66663 16.6753 1.66663 14.6337V5.37533C1.66663 3.32533 3.36236 1.66699 5.43964 1.66699H9.57724ZM15.4501 7.12549C15.7001 6.86716 16.1085 6.86716 16.3585 7.11716L18.7918 9.54216C18.9168 9.66716 18.9835 9.82549 18.9835 10.0005C18.9835 10.1672 18.9168 10.3338 18.7918 10.4505L16.3585 12.8755C16.2335 13.0005 16.0668 13.0672 15.9085 13.0672C15.7418 13.0672 15.5751 13.0005 15.4501 12.8755C15.2001 12.6255 15.2001 12.2172 15.4501 11.9672L16.7835 10.6422H13.3335V9.35883H16.7835L15.4501 8.03383C15.2001 7.78383 15.2001 7.37549 15.4501 7.12549Z"
        fill="currentColor" />
    </svg>,
    <svg width="100%" height="100%" viewBox="0 0 18 18" fill="none" xmlns="http://www.w3.org/2000/svg" id="info">
      <path
        d="M9.00008 0.666016C13.6084 0.666016 17.3334 4.40018 17.3334 8.99935C17.3334 13.6002 13.6084 17.3327 9.00008 17.3327C4.40008 17.3327 0.666748 13.6002 0.666748 8.99935C0.666748 4.40018 4.40008 0.666016 9.00008 0.666016ZM9.00008 11.4418C8.60008 11.4418 8.27508 11.7668 8.27508 12.1668C8.27508 12.5668 8.60008 12.9002 9.00841 12.9002C9.40841 12.9002 9.73341 12.5668 9.73341 12.1668C9.73341 11.7668 9.40841 11.4418 9.00008 11.4418ZM9.00008 5.10768C8.60008 5.10768 8.26675 5.44185 8.26675 5.84102V9.52435C8.26675 9.92518 8.60008 10.2493 9.00008 10.2493C9.40008 10.2493 9.72508 9.92518 9.72508 9.52435V5.84102C9.72508 5.44185 9.40008 5.10768 9.00008 5.10768Z"
        fill="currentColor" />
    </svg>,
    <svg width="100%" height="100%" viewBox="0 0 18 18" fill="none" xmlns="http://www.w3.org/2000/svg" id="sign-up">
      <path
        d="M12.6122 0.665987C15.4355 0.665988 17.333 2.64765 17.333 5.59682L17.333 12.4027C17.333 15.3518 15.4355 17.3327 12.6114 17.3327L5.38805 17.3327C2.56388 17.3327 0.666379 15.3518 0.66638 12.4027L0.666381 5.59682C0.666381 2.64765 2.56388 0.665985 5.38805 0.665986L12.6122 0.665987ZM6.36721 6.83182C5.17221 6.83182 4.19971 7.80432 4.19971 8.99932C4.19971 10.1952 5.17221 11.1677 6.36721 11.1677C7.34388 11.1677 8.16221 10.5143 8.43221 9.62432L10.1922 9.62432L10.1922 10.5427C10.1922 10.8877 10.4722 11.1677 10.8172 11.1677C11.1622 11.1677 11.4422 10.8877 11.4422 10.5427L11.4422 9.62432L12.5505 9.62432L12.5505 10.5427C12.5505 10.8877 12.8305 11.1677 13.1755 11.1677C13.5205 11.1677 13.8005 10.8877 13.8005 10.5427L13.8005 8.99932C13.8005 8.65432 13.5205 8.37432 13.1755 8.37432L8.43221 8.37432C8.16221 7.48515 7.34388 6.83182 6.36721 6.83182ZM6.3673 8.08174C6.87313 8.08174 7.28563 8.4934 7.28563 9.00007C7.28563 9.5059 6.87313 9.91757 6.3673 9.91757C5.86146 9.91757 5.44896 9.5059 5.44896 9.00007C5.44896 8.4934 5.86146 8.08174 6.3673 8.08174Z"
        fill="currentColor" />
    </svg>,
    <svg width="100%" height="100%" viewBox="0 0 17 11" fill="none" xmlns="http://www.w3.org/2000/svg" id="text">
      <path
        d="M7.826 10L6.888 7.564H2.604L1.666 10H0.07L4.074 0.199999H5.418L9.422 10H7.826ZM3.122 6.22H6.37L4.746 2.02L3.122 6.22ZM13.3416 10.21C12.4549 10.21 11.7082 9.89733 11.1016 9.272C10.4949 8.64667 10.1916 7.81133 10.1916 6.766C10.1916 5.72067 10.4949 4.88533 11.1016 4.26C11.7082 3.63467 12.4549 3.322 13.3416 3.322C14.3496 3.322 15.0776 3.70933 15.5256 4.484H15.5536V3.532H16.9256V10H15.5536V9.048H15.5256C15.0776 9.82267 14.3496 10.21 13.3416 10.21ZM12.1936 8.292C12.5576 8.67467 13.0382 8.866 13.6356 8.866C14.2329 8.866 14.7136 8.67467 15.0776 8.292C15.4416 7.9 15.6236 7.39133 15.6236 6.766C15.6236 6.14067 15.4416 5.63667 15.0776 5.254C14.7136 4.862 14.2329 4.666 13.6356 4.666C13.0382 4.666 12.5576 4.862 12.1936 5.254C11.8296 5.63667 11.6476 6.14067 11.6476 6.766C11.6476 7.39133 11.8296 7.9 12.1936 8.292Z"
        fill="currentColor" />
    </svg>
    <svg width="18" height="18" viewBox="0 0 18 18" fill="none" xmlns="http://www.w3.org/2000/svg" id="faq">
      <path
        d="M9.01667 0.666667C13.75 0.666667 17.3333 4.54749 17.3333 8.98748C17.3333 14.1369 13.1333 17.3333 9 17.3333C7.63333 17.3333 6.11667 16.9661 4.9 16.2484C4.475 15.9897 4.11667 15.7977 3.65833 15.9479L1.975 16.4487C1.55 16.5822 1.16667 16.2484 1.29167 15.7977L1.85 13.9282C1.94167 13.6695 1.925 13.3941 1.79167 13.1771C1.075 11.8585 0.666667 10.4146 0.666667 9.01252C0.666667 4.6226 4.175 0.666667 9.01667 0.666667ZM12.825 7.9526C12.2333 7.9526 11.7583 8.42831 11.7583 9.02086C11.7583 9.60507 12.2333 10.0891 12.825 10.0891C13.4167 10.0891 13.8917 9.60507 13.8917 9.02086C13.8917 8.42831 13.4167 7.9526 12.825 7.9526ZM8.98333 7.9526C8.4 7.94425 7.91667 8.42831 7.91667 9.01252C7.91667 9.60507 8.39167 10.0808 8.98333 10.0891C9.575 10.0891 10.05 9.60507 10.05 9.02086C10.05 8.42831 9.575 7.9526 8.98333 7.9526ZM5.14167 7.9526C4.55 7.9526 4.075 8.42831 4.075 9.02086C4.075 9.60507 4.55833 10.0891 5.14167 10.0891C5.73333 10.0808 6.20833 9.60507 6.20833 9.02086C6.20833 8.42831 5.73333 7.9526 5.14167 7.9526Z"
        fill="currentColor" />
    </svg>
    <svg width="20" height="20" viewBox="0 0 20 20" fill="none" xmlns="http://www.w3.org/2000/svg" id="contacte">
      <path fill-rule="evenodd" clip-rule="evenodd"
        d="M2.64332 4.31C1.66666 5.28584 1.66666 6.8575 1.66666 10C1.66666 13.1425 1.66666 14.7142 2.64332 15.69C3.61916 16.6667 5.19082 16.6667 8.33332 16.6667H11.6667C14.8092 16.6667 16.3808 16.6667 17.3567 15.69C18.3333 14.7142 18.3333 13.1425 18.3333 10C18.3333 6.8575 18.3333 5.28584 17.3567 4.31C16.3808 3.33334 14.8092 3.33334 11.6667 3.33334H8.33332C5.19082 3.33334 3.61916 3.33334 2.64332 4.31ZM15.48 6.26667C15.586 6.39399 15.6372 6.55821 15.6222 6.72323C15.6072 6.88825 15.5273 7.04056 15.4 7.14667L13.57 8.67167C12.8308 9.28834 12.2325 9.78667 11.7033 10.1267C11.1533 10.4808 10.6175 10.7042 9.99999 10.7042C9.38249 10.7042 8.84666 10.48 8.29582 10.1267C7.76749 9.78667 7.16916 9.2875 6.42999 8.6725L4.59999 7.1475C4.47258 7.04142 4.39252 6.88906 4.37744 6.72395C4.36236 6.55884 4.41349 6.3945 4.51957 6.26709C4.62566 6.13967 4.77802 6.05962 4.94313 6.04454C5.10824 6.02946 5.27258 6.08058 5.39999 6.18667L7.19999 7.68584C7.97749 8.33334 8.51666 8.78167 8.97332 9.075C9.41416 9.35834 9.71332 9.45417 10.0008 9.45417C10.2883 9.45417 10.5875 9.35917 11.0283 9.075C11.4842 8.78167 12.0242 8.33334 12.8017 7.68584L14.6008 6.18584C14.7283 6.07989 14.8925 6.02889 15.0576 6.04405C15.2226 6.05921 15.374 6.13928 15.48 6.26667Z"
        fill="currentColor" />
    </svg>
    <svg width="20" height="20" viewBox="0 0 20 20" fill="none" xmlns="http://www.w3.org/2000/svg" id="now">
      <path
        d="M14.8813 2.5C16.7846 2.5 18.3338 4.03501 18.3338 5.92095L18.3346 8.15204C18.3346 8.31553 18.2688 8.47407 18.1521 8.58967C18.0346 8.7061 17.8763 8.77133 17.7096 8.77133C17.0255 8.77133 16.4688 9.32291 16.4688 10.0008C16.4688 10.6787 17.0255 11.2303 17.7096 11.2303C18.0546 11.2303 18.3346 11.5078 18.3346 11.8496V14.0799C18.3346 15.9658 16.7863 17.5 14.883 17.5H5.12047C3.21714 17.5 1.66797 15.9658 1.66797 14.0799V11.8496C1.66797 11.5078 1.94797 11.2303 2.29297 11.2303C2.97797 11.2303 3.53464 10.6787 3.53464 10.0008C3.53464 9.34025 3.00047 8.84317 2.29297 8.84317C2.12714 8.84317 1.9688 8.77794 1.8513 8.66151C1.7338 8.54508 1.66797 8.38737 1.66797 8.22388L1.66964 5.92095C1.66964 4.03501 3.21797 2.5 5.1213 2.5H14.8813ZM10.003 6.79456C9.7663 6.79456 9.55464 6.92502 9.4488 7.13476L8.8413 8.35434L7.4863 8.55004C7.25214 8.58307 7.06047 8.74161 6.9863 8.96455C6.91297 9.18749 6.97214 9.4286 7.14214 9.59209L8.12464 10.54L7.89297 11.8802C7.85297 12.1114 7.94713 12.3409 8.1388 12.4788C8.24714 12.5556 8.37297 12.5952 8.50047 12.5952C8.59797 12.5952 8.6963 12.5713 8.7863 12.5242L10.0013 11.8917L11.2138 12.5226C11.4238 12.634 11.673 12.6167 11.8638 12.478C12.0563 12.3409 12.1505 12.1114 12.1105 11.8802L11.878 10.54L12.8605 9.59209C13.0313 9.4286 13.0905 9.18749 13.0163 8.96455C12.943 8.74161 12.7513 8.58307 12.5196 8.55086L11.1621 8.35434L10.5546 7.13558C10.4505 6.92585 10.2388 6.79539 10.003 6.79456Z"
        fill="#6DC26C" />
    </svg>
  </defs>
</svg>