<svg xmlns="http://www.w3.org/2000/svg" viewBox="0 0 135.79 13.12"><defs><style>.cls-1{fill:#75be87;}</style></defs><g id="Слой_2" data-name="Слой 2"><g id="Слой_1-2" data-name="Слой 1"><path class="cls-1" d="M135.43,10.18c.46,0,.3-.25.36-.3C135,9.94,135.45,10.25,135.43,10.18Z"/><path class="cls-1" d="M127.8,10.83l.14-.11-1.12.28Z"/><path class="cls-1" d="M120.67,10.85c.68.45,2.59-.08,3.86.08l.21.11.57-.37A44,44,0,0,1,120.67,10.85Z"/><path class="cls-1" d="M116.87,9.9c.24.18-.82.16.89,0l-.16,0A6.25,6.25,0,0,1,116.87,9.9Z"/><path class="cls-1" d="M117.6,9.91c-.49-.14.75,0,0,0Z"/><path class="cls-1" d="M114.13,10l1-.16c-.21-.1-1.09-.12-.76-.19C113.34,9.77,113.55,9.87,114.13,10Z"/><path class="cls-1" d="M113.19,10.36l.52-.07C113.62,10.25,113.48,10.23,113.19,10.36Z"/><path class="cls-1" d="M114.79,10.15l-1.08.14c.14.07.16.21.5,0C114.11,10.36,114.33,10.24,114.79,10.15Z"/><path class="cls-1" d="M115.41,10.21c.55.1,1.27.15.27.31C117.58,10.45,117.3,10.14,115.41,10.21Z"/><path class="cls-1" d="M120.31,11.31l.74.14.64-.16C121.37,11.37,120.26,11.18,120.31,11.31Z"/><path class="cls-1" d="M108,9.84c-.06.1.33.25.4.36l.74-.11C108.73,10,108,10,108,9.84Z"/><path class="cls-1" d="M108.37,10.21l-1.09.16C108.26,10.38,108.43,10.31,108.37,10.21Z"/><path class="cls-1" d="M113,10.84l1.79-.34-2.14.35Z"/><path class="cls-1" d="M103.79,9.86l.62-.21-1.1.33Z"/><path class="cls-1" d="M101,9.92c.46-.17-.63-.29-.14-.4a10.46,10.46,0,0,0-2,.33A7.4,7.4,0,0,1,101,9.92Z"/><path class="cls-1" d="M97.94,10.05c.3,0,.62-.12,1-.2A5.39,5.39,0,0,0,97.94,10.05Z"/><path class="cls-1" d="M105.42,10.33a1.56,1.56,0,0,0-.86-.25l.42.25Z"/><path class="cls-1" d="M105,10.34h0Z"/><path class="cls-1" d="M105.53,10.33h-.11S105.49,10.37,105.53,10.33Z"/><path class="cls-1" d="M110.15,10.62c-.64.14-2,.3-.68.52C109.92,11,109.18,10.84,110.15,10.62Z"/><path class="cls-1" d="M106.06,10.65l1.16,0c0-.06-.23-.16.09-.24Z"/><path class="cls-1" d="M105.49,10.73l.57-.08-.43,0Z"/><path class="cls-1" d="M99.93,10.27a9.38,9.38,0,0,1-1.67.14c.66.05,1.35.07,2,.07C100.35,10.4,100.64,10.25,99.93,10.27Z"/><path class="cls-1" d="M102.39,10.33h-.11C102.35,10.36,102.4,10.37,102.39,10.33Z"/><path class="cls-1" d="M92.15,10.44l.1.05s0,0,0-.05Z"/><path class="cls-1" d="M100.37,10.52a2.64,2.64,0,0,0,1.08-.09c-.37,0-.77.05-1.19.05C100.22,10.51,100.21,10.54,100.37,10.52Z"/><path class="cls-1" d="M96.23,10.17c.26.06.56.1.87.14A2.24,2.24,0,0,0,96.23,10.17Z"/><path class="cls-1" d="M102.11,10.27l.08,0C102,10.21,102,10.23,102.11,10.27Z"/><path class="cls-1" d="M102.11,10.27a5.38,5.38,0,0,0-.66.15l.83-.08Z"/><path class="cls-1" d="M90.31,12a3.77,3.77,0,0,1,2.53-.19c1.12-.17.38-.91-.59-1.32,0,.1,0,.19-1.18.33.4.11,2.55.27,1.58.48a4.06,4.06,0,0,1-2-.19c.62.28-1.94.41-1.61.81l1.33-.14C90.42,11.83,89.93,11.93,90.31,12Z"/><path class="cls-1" d="M94.44,10.5l.47,0a9.34,9.34,0,0,1-1.64-.29c-.79.11-1,.19-1,.27l2.32,0Z"/><path class="cls-1" d="M97,10.45c-.37.25-1.5.36-.81.63,1.39,0,1-.21,1.8-.33-2.24.08.64-.14-1-.27.44-.05.83-.06,1.2-.08-.4,0-.79-.06-1.15-.1h.05c.1,0,.13,0,0,0h0a.45.45,0,0,1-.1.09c-.65,0-.1-.07.1-.1,0,0,0,0,0,0h0l-2.24.15C95.38,10.5,96,10.48,97,10.45Z"/><path class="cls-1" d="M108.27,11.7c-.07,0-.07,0-.07-.06C108.05,11.67,108,11.69,108.27,11.7Z"/><path class="cls-1" d="M107.35,11.54a2.13,2.13,0,0,1,.82-.11c.46.08,0,.13,0,.21.33-.06,1.12-.18.12-.31l-.16,0a5.5,5.5,0,0,1-1.9-.45A3.22,3.22,0,0,0,107.35,11.54Z"/><path class="cls-1" d="M102.13,11.05l-1.87.12.95.22,0-.13C102.22,11.31,102,11.16,102.13,11.05Z"/><path class="cls-1" d="M91.94,10.32l.24-.26-1.07.37Z"/><path class="cls-1" d="M89.51,10.36l.09-.22-.63.14Z"/><path class="cls-1" d="M30,10.7c-.8-.16-1.69-.4-1.59-.2l.25.18A7.16,7.16,0,0,1,30,10.7Z"/><path class="cls-1" d="M64.69,10.58A15.39,15.39,0,0,0,63,10.45C63.8,10.58,64.47,10.76,64.69,10.58Z"/><path class="cls-1" d="M61,10.46l.36,0c.51,0,1-.07,1.63-.06A5.55,5.55,0,0,0,61,10.46Z"/><path class="cls-1" d="M79.76,10.31c.08,0,.51,0,0,0Z"/><path class="cls-1" d="M82.26,11.23c-.11,0-.19.06-.2.12A.31.31,0,0,1,82.26,11.23Z"/><path class="cls-1" d="M55.86,11.81h0C56,11.86,55.94,11.85,55.86,11.81Z"/><path class="cls-1" d="M80.54,10.41c-.2,0-.42-.05-.66-.06A5.69,5.69,0,0,0,80.54,10.41Z"/><path class="cls-1" d="M80.43,10.31l.45,0C81,10.29,80.89,10.26,80.43,10.31Z"/><path class="cls-1" d="M79.05,10.33a7.48,7.48,0,0,1,.83,0c-.11,0-.15,0-.12,0Z"/><path class="cls-1" d="M16.6,12.6h0Z"/><path class="cls-1" d="M14.76,12.73a4.38,4.38,0,0,1,1.82-.14L16,12.08Z"/><path class="cls-1" d="M.22,0C.24.4.26.79.29,1.17.34,2,.36,2.83.44,3.8A15.93,15.93,0,0,0,1,6.87C.6,5.85.75,6.75.6,6.78.52,6.1.31,5.2.21,4.09S.1,1.78.11.55c0,1.27-.09,1-.11.67C0,2,0,2.65.08,3.43A16.56,16.56,0,0,0,.37,5.7,5.58,5.58,0,0,0,.75,7.85c0-.51.23.28.72,1.24a6.33,6.33,0,0,0,1.86,2.34c0,.08-.06.1-.3-.06A4.58,4.58,0,0,1,1.86,10a3.45,3.45,0,0,0,1.58,1.67,9.52,9.52,0,0,0,1.85.57c-.38,0-.57-.1-.72-.07l.37.06.45,0,.87,0c.53,0,.9.08.67.13H6.59c2.28.05,7,0,7.29-.32,0,.05-.3.41-.43.48l4.07-1.15c-.36.3,1,1-.87,1.18a11.38,11.38,0,0,0,2.36,0c-.37,0-.92-.43-.42-.46,1.39.33,1,.17,2.68.47-.56-.07.06-.54.94-.53-.14.08.07.48-.25.52l2.19-.46c-.55.08-.1.4.39.54-.22-.1,1.9,0,2.48,0l-.93-.12c2.47.09,2.44-.67,4.89-.65-.3.1-.74.62.51.69a15,15,0,0,1,4.69-1.42l.42.14,1.66-.17a45.43,45.43,0,0,1-5.52,1.52,5.17,5.17,0,0,0,1.63.17c.49.14-.75.2-1.16.21l3.23.1c-.14-.3,2.46-.29,2.34-.54l-3.5.29c-.14-.29,2-.85,4.31-.79.58.12-.44.54-.39.64a11.47,11.47,0,0,1,2.38-.12l-1,.16c1.27.13,2.07-.4,3.6-.1.53,0,1.57.42,1.66.23-.86-.37-1-1.47-.45-1.75.18,0,2.77.34,3.37.52.87.29-1.3.68-.57.92,0-.08.51-.19.71-.23.56.08-.23.27,1,.24.2-.32,2.44,0,.56-.28,1.18-.09,1.25.08,2.64.06-.44-.21,1.24-.72,2.41-.82-.06.09.2.2.33.24,2.41,0,3.71.19,5.95.19.21.09,1.3.19.83.34A5.21,5.21,0,0,1,64,12.14c1.34.3-1.55,0-.52.4a12.51,12.51,0,0,1,2.78-.4c-.31-.31-2.28-.06-3.27.06,0-.43,1.71-.87,4.06-1.08,1.87-.11.81.28,1.14.22,3.51.07,3-.78,5.9-.47,1.15.29,0,.57.31.77A33,33,0,0,1,71,11.48l1.27.13a8.16,8.16,0,0,1-2,.08c1,.26,5.92.05,8.63.29.48-.09,1.31-.19.92-.31l-.86,0c-.79-.23,1.62-.32.53-.44a16.92,16.92,0,0,1,4-.3l.3.34a3.25,3.25,0,0,0-1.51-.1c.68-.15,2.48.46,3.22,0L84.35,11a18.16,18.16,0,0,1,4-.44c-.65-.34-.33,0-1.35-.35.89.49-3.66,0-2.24.5-1-.45-1.81-.18-3.18-.56,0,.11.49.21-.72.16a2.39,2.39,0,0,1-.26.1h0c-.06,0-.06,0,0,0a2,2,0,0,1,.61.17,27,27,0,0,1-3.16.38c-.71-.05.3-.13-.09-.24l-1,.2c-.1-.25-1.9-.39-.22-.54H75.29a12.15,12.15,0,0,0-2.87-.07c-.72-.05-1.81.27-1.18.08l-2.38.16,0-.06c-2.34,0-4.82.4-7.5,0a22.62,22.62,0,0,1-2.93.08l-.25-.2a31.82,31.82,0,0,0-3.48,0c-1.09-.5-4.91-.08-6.69-.16l-.07.25c-1.22,0-2.4.06-3.92.17l.09.21c-1.31.18-3.37-.13-5.45-.1a2.68,2.68,0,0,1,1,0c-2.48-.44-5.23.35-7.48,0a5.64,5.64,0,0,1-1.36,0l.14,0h-.23l-.78-.1a4.42,4.42,0,0,0,.66.1c-.44,0-1.09,0-1.73.09l-.28-.21h-.15c-.63-.07-.5.1-.17.26a7.35,7.35,0,0,0-.85.13c-.51-.33-1.69.12-2.38-.23-.44.17-3.24.14-3.58.5,0-.05-.21-.07.14-.07a10.27,10.27,0,0,0-2.08,0l-.3-.25-1.56.35c-1-.16-1.35-.24-.4-.44-2.28.3-1.85.12-3.79.42l.1-.16a13.77,13.77,0,0,1-2.22.09,41.58,41.58,0,0,0-4.91-.15H5.63a2.49,2.49,0,0,1-.4,0,1.28,1.28,0,0,1-.39-.07,3.17,3.17,0,0,1-1.47-.85A7.6,7.6,0,0,1,1.51,6.67c0,.59-.14,0-.28-.84-.07-.4-.1-.85-.16-1.21A1.72,1.72,0,0,0,1,3.94c0-.35.06-1.13.14-.23-.05-.69,0-1.39,0-2s0-1.18,0-1.7ZM74.13,10.55h0C73.25,10.47,73.55,10.5,74.13,10.55Zm1.74.1c.17,0,.16-.07.09-.1a2.74,2.74,0,0,1-1,0A1.5,1.5,0,0,0,75.87,10.65Z"/><path class="cls-1" d="M48.92,12.72a3.14,3.14,0,0,1-.69-.12C48.22,12.66,48.38,12.7,48.92,12.72Z"/><path class="cls-1" d="M85.08,10.16,84,10.24a4.53,4.53,0,0,1,1,.08C85,10.25,84.73,10.17,85.08,10.16Z"/><path class="cls-1" d="M94.75,11.81c.17,0,.35,0,.51,0l-.05-.13C94.52,11.65,94,11.75,94.75,11.81Z"/><path class="cls-1" d="M86.12,11c.09.23.78.15,1.56.11h-.13C87.78,10.83,86.94,10.94,86.12,11Z"/><path class="cls-1" d="M87.86,11.14c.24,0,.49,0,.73,0C88.68,11,88.29,11.1,87.86,11.14Z"/><path class="cls-1" d="M78.07,10.5c.37.06.24-.28.45-.19C78.93,10,76.05,10.65,78.07,10.5Z"/><path class="cls-1" d="M86.75,11.78l-.28-.28-.44.23Z"/><path class="cls-1" d="M80.58,11.58l1.25.08c0-.05.14-.08.33-.1A8,8,0,0,0,80.58,11.58Z"/><path class="cls-1" d="M82.17,11.57a5.64,5.64,0,0,0,1-.05A9.51,9.51,0,0,0,82.17,11.57Z"/><path class="cls-1" d="M85,11.87l-.37-.06-.88,0Z"/><path class="cls-1" d="M67.18,11.54l-1.36.08c-.14.08.23.13.74.1C66.88,11.66,67.39,11.63,67.18,11.54Z"/><path class="cls-1" d="M71.3,12.26a1.79,1.79,0,0,1-.6-.2l0,.32Z"/><path class="cls-1" d="M67.32,12.33c-.13.08-2,.25-.24.23C67.21,12.47,68.58,12.4,67.32,12.33Z"/><path class="cls-1" d="M46.82,11.91h.35l-.05-.49Z"/><path class="cls-1" d="M28.74,13c1.62.12.38-.27,1.84-.13.38-.1-1.19-.11-.8-.2C28.81,12.73,28.3,12.66,28.74,13Z"/><path class="cls-1" d="M29.78,12.63l.5-.07Z"/></g></g></svg>