<svg xmlns="http://www.w3.org/2000/svg" viewBox="0 0 1.38 53.79"><defs><style>.cls-1{fill:#75be87;}</style></defs><g id="Слой_2" data-name="Слой 2"><g id="Слой_1-2" data-name="Слой 1"><path class="cls-1" d="M.71,44.61c0,.12,0,.24,0,.37,0,.29.06.58.09.83C.75,45.45.73,45,.71,44.61Z"/><path class="cls-1" d="M.3,43.75l.06-1.62C.34,42.49.32,43,.3,43.75Z"/><path class="cls-1" d="M1.27,53.76c0-1,0-2-.08-3.06.06-.36.09.66.13.35a11.37,11.37,0,0,1,0-1.32c0-.32.05.45.08,1,0-3.19-.21-3.51-.4-3.74a19.83,19.83,0,0,0,0-3.59c.06-.56.12-1.5.14.48,0-1.11.07-6.81-.07-6.92,0-.35,0-1.56,0-1.85,0-2.5,0-2.72,0-5.18l0,.68a31.52,31.52,0,0,1-.06-4l0,.06c.11-4.54-.06-2,.07-6.44l-.1.24c-.21-.41.12-4,0-6.57l-.06.95c-.07-1.43.27-4,.3-5.4a5.87,5.87,0,0,1,0,.93C1.34,6.57,1.1,9.82,1.07,7c.06-.51.17.66.18-1.21,0-.47,0-1.83-.08-3.39,0-.77,0-1.61,0-2.4L.27,0c0,.66,0,1.55,0,2.84l0-2C.05,2.12.1,3.71,0,6,.05,5.47.24,1.4.3,3.75c0,.66,0,1.53,0,2.8A16.78,16.78,0,0,0,.25,9.34L.12,9.23c0,1.67.1,1.54.15,2.52a11,11,0,0,1-.2,2.69c0,3,.17-2.06.18,1.47,0,2.48,0,4.22.07,7.19,0,1.74-.08-.3-.12.32L.3,25c0,.37,0,.25,0,.19a20.93,20.93,0,0,1,.17,2.14C.57,27.84.19,31.48.36,34c0,.62-.09-.3-.14-.11.11,3.47.08,3,.23,5.82l-.1,2.42c.11-1.78.24.49.34,2.49.05-.63.1-1.17.12-1.53l.08,3.18c0,.38-.07.06-.13-.46,0,.22,0,.42,0,.58-.05,1.14-.14.55-.22-.27L.66,45c-.09-.79-.18-1.53-.27-1.36s0,.6,0,1c0-.2,0-.34-.06-.24s0,.44,0,1l-.16.72.07.18L.21,50.44c.07,1.12.14,2.2.21,3.35ZM.31,3.68a19.58,19.58,0,0,1,0-2.15A11.45,11.45,0,0,1,.31,3.68ZM.49,49a15,15,0,0,1,0-1.85C.52,47.71.52,48.32.49,49Z"/><path class="cls-1" d="M.35,43.86a.53.53,0,0,1,.06-.25C.39,43.39.36,43.39.35,43.86Z"/><path class="cls-1" d="M.05,8.11l0,.12a13,13,0,0,0,0-1.37Z"/></g></g></svg>