<svg xmlns="http://www.w3.org/2000/svg" viewBox="0 0 135.78 4.16"><defs><style>.cls-1{fill:#75be87;}</style></defs><g id="Слой_2" data-name="Слой 2"><g id="Слой_1-2" data-name="Слой 1"><path class="cls-1" d="M6,.33l.55,0Z"/><path class="cls-1" d="M2,.3l-.1,0C2.08.32,2.15.3,2,.3Z"/><path class="cls-1" d="M27.63.33l.64-.1C27.27.22,27.71.28,27.63.33Z"/><path class="cls-1" d="M4.4,1.59c.33,0,.47,0,.47-.07C4.52,1.54,4.32,1.56,4.4,1.59Z"/><path class="cls-1" d="M106.23.82h.18S106.34.82,106.23.82Z"/><path class="cls-1" d="M129.12,1h0Z"/><path class="cls-1" d="M64.11.78h.12C64.74.76,64.51.76,64.11.78Z"/><path class="cls-1" d="M.9,4.16c0-.4,0-.79,0-1.16,0-.19,0-.37,0-.54a2.17,2.17,0,0,1,0-.26V2s0,.23,0,.32a1.41,1.41,0,0,1,0,.22s0,0,0-.13,0-.39,0-.53,0-.3,0-.47l.34,0,1.2.06a10.92,10.92,0,0,0,2.27-.05c.17,0,.23,0,.23.05,1-.07,3.2-.11,3.8-.23.9.43,6.11-.23,6.09.17l3,0-.08,0A20.44,20.44,0,0,0,21,1.31c.44,0,.12.06.08.08a36.78,36.78,0,0,0,5.48-.14l.25.11c.64-.06,4.09.16,6.86,0,0,0-.08,0-.3.05,3.12-.13,7.47.24,8.61-.13L44,1.21c-2.67,0,.39-.15-.7-.21,1,0,2.71.11,1.42.12l-.2,0c-.47.18,3.31.06,3.23.18L63,1.3l-.56-.11h1.71c.45,0,.6.09-.62.09a9.2,9.2,0,0,0,1.27,0,5.41,5.41,0,0,0,.82-.07c2.39,0-.94.13-.2.13h.77a23.36,23.36,0,0,1,2.34-.09,4.67,4.67,0,0,1,.85.06s0,0,.11,0h2.61l-.87-.07c1,0,2,0,1-.09,1.46.13,8,0,8.95.06,1.34,0,2.66,0,4.29,0-.4,0-.65-.08.77-.07-.52.14,2.58.05,3.72.14-1-.06,4,0,2.42-.1,1.17,0,.07,0,1,.07,2.81,0,6.18,0,9.65,0,.06,0-.53,0,.22,0l1.83,0c.69,0,.63-.07,1.88,0-.17,0-.44,0,0,0L127.77,1h.41c-.47,0,0,0-.08,0h5.37c1.21,0-1.71,0-1.53,0h-5.82c-.49,0,.42,0,.16,0H123.9l-9.08,0,.29,0-1.44,0c-1,0,2.41,0,1.51,0-1.14,0-6.06,0-6.83-.08-1.32,0,.39,0-.93,0l-.35,0-.33,0a13.33,13.33,0,0,1-1.34,0h.82c-1.12,0-3.17,0-3.55,0l1.27,0c-3.61,0-8-.06-11.5,0l.26,0c-2.66,0-2.13,0-5,0h.11c-.59,0-1.37,0-2.17,0,.74,0-1.39-.06-.42-.08-2.89,0-1.43,0-3.33.12L81.4.83c-.66,0-.71.06-2.17.07,1.2,0-.93-.08.41-.12-3.06-.11-4.55.08-6-.08-1.41.14,2.65.09,1.86.11.66,0-1.16.09-2.12.08S71.76.71,69.3.7h.51c-.92,0-1.81,0-2.94,0a15.29,15.29,0,0,0-1.65.1l2.26,0c-1.28,0-2.48.16-4.59.1.17,0,.8-.06,1.23-.08-.62,0-1.19,0-1.83,0,.18-.11,2.74,0,4.12-.09-.67-.06-2.6.07-1.91-.06-1,.16-2.42,0-4.09.09l.11-.07c-.26,0-.81.05-1.29,0L60.1.58c-1.34.08-2.6-.09-3.89,0,2.71,0,.61.1,1.75.15C54.62.78,56,.47,52.3.49c.5,0,1.9.06,1.11.09S51.75.52,51.31.47c-2.47,0,.38.1-.67.14a14.45,14.45,0,0,0-2.31.07V.59C45.5.52,47.57.78,45,.7L46.1.57,44.77.6l.28-.11c-1.44.08-1.89.05-3.31,0,.33.06-.18.17-1.43.17-.86-.06.48-.09-1.3-.09a5.31,5.31,0,0,1,1.61,0c.08,0,.4-.06.48-.09-.92-.07-2.31,0-3,0l.7,0L36.27.58c-.41,0-.09-.07.23-.1-.52,0-.88.05-1.65.06.2-.08.15-.17,1.24-.2L33.64.42c-.16,0-1.26-.1-.94-.14-1.36-.06-3.34.15-5.14.08a4.73,4.73,0,0,1-.66,0c-1.7,0-3.19-.15-5.2,0L20.56.19C19,.22,22.1.41,19.49.47c-1.86,0-.7-.15-1.34-.21a23.42,23.42,0,0,1-4.23.11c.57,0,1,0,1.54,0l-1.3-.1C15.73.09,16.86.15,15.64,0c-.18.34-5,0-5.22.36L9.57.28l.52,0C8.43.08,8.85.52,6.71.46,6,.43,5.45.38,6,.33L4.29.41c-.48,0-.36-.07.12-.06L1.87.37h0L1.54.4l-.2,0H1.06L.43.51H.3S.19.51.21.61.22.87.22,1c0,1.37,0-.73,0-.42l0,1.57,0,1.08c0,.44-.06.21-.09-.31,0-.13,0-.29,0-.44s0-.39,0-.6V.38H.28a1.54,1.54,0,0,0-.19,0l0,.25c0,.17,0,.33,0,.47,0,.31,0,.6,0,.88V2.5C0,2.65,0,2.83,0,3l0,1.11ZM69.6,1.24h-.33C70,1.21,69.81,1.22,69.6,1.24Z"/><path class="cls-1" d="M27.51.35h.06l.06,0Z"/><path class="cls-1" d="M134.91,1h.87C135.55,1,135.1,1,134.91,1Z"/><path class="cls-1" d="M7.26.16H7l.45.16Z"/><path class="cls-1" d="M19.07.05H17.53C18.59,0,19.2.23,19.07.05Z"/></g></g></svg>