<svg width="677" height="646" viewBox="0 0 677 646" fill="none" xmlns="http://www.w3.org/2000/svg">
<path d="M257.152 423.931H165.585C163.32 423.931 161.485 425.766 161.485 428.03V436.671C161.485 438.935 163.32 440.77 165.585 440.77H257.152C259.417 440.77 261.252 438.935 261.252 436.671V428.03C261.252 425.766 259.417 423.931 257.152 423.931Z" stroke="#DEE5F8" stroke-width="5" stroke-miterlimit="10"/>
<path d="M311.702 423.757H274.437C271.602 423.757 269.304 426.055 269.304 428.89V435.464C269.304 438.299 271.602 440.597 274.437 440.597H311.702C314.537 440.597 316.836 438.299 316.836 435.464V428.89C316.836 426.055 314.537 423.757 311.702 423.757Z" stroke="#DEE5F8" stroke-width="3.75" stroke-miterlimit="10"/>
<path d="M288.937 196.32H251.671C248.836 196.32 246.538 198.618 246.538 201.453V208.027C246.538 210.862 248.836 213.16 251.671 213.16H288.937C291.772 213.16 294.07 210.862 294.07 208.027V201.453C294.07 198.618 291.772 196.32 288.937 196.32Z" stroke="#DEE5F8" stroke-width="5" stroke-miterlimit="10"/>
<path d="M345.165 196.32H307.9C305.065 196.32 302.766 198.618 302.766 201.453V208.027C302.766 210.862 305.065 213.16 307.9 213.16H345.165C348 213.16 350.298 210.862 350.298 208.027V201.453C350.298 198.618 348 196.32 345.165 196.32Z" stroke="#DEE5F8" stroke-width="5" stroke-miterlimit="10"/>
<path d="M487.955 347.809H450.69C447.855 347.809 445.556 350.106 445.556 352.941V359.516C445.556 362.35 447.855 364.648 450.69 364.648H487.955C490.79 364.648 493.088 362.35 493.088 359.516V352.941C493.088 350.106 490.79 347.809 487.955 347.809Z" stroke="#DEE5F8" stroke-width="5" stroke-miterlimit="10"/>
<path d="M666.398 138.021V142.872C668.027 142.872 669.862 143.315 671.085 146.592C672.433 150.191 672.495 155.877 671.263 162.6C669.874 170.167 666.898 178.894 662.649 187.845C653.887 206.292 640.272 224.71 623.797 240.533L621.354 186.634L635.734 166.724H647.861C650.079 166.722 652.205 165.84 653.774 164.272C655.342 162.704 656.224 160.578 656.226 158.36V147.009C656.58 146.572 657.024 146.216 657.528 145.968C661.934 143.405 664.782 142.868 666.39 142.868V138.021M666.39 138.021C663.286 138.021 659.512 139.207 655.09 141.777C653.06 142.955 651.37 144.616 651.37 146.959V158.365C651.369 159.296 650.998 160.189 650.34 160.847C649.681 161.506 648.788 161.876 647.857 161.877H633.25L616.424 185.167L619.412 251.107C675.934 202.073 689.222 138.021 666.394 138.021H666.39Z" fill="#FBC343"/>
<path d="M492.473 138.021V142.872C494.08 142.872 496.928 143.41 501.334 145.972C501.839 146.219 502.284 146.575 502.636 147.013V158.365C502.638 160.582 503.52 162.708 505.089 164.276C506.657 165.844 508.784 166.726 511.002 166.729H523.129L537.508 186.638L535.065 240.537C518.595 224.714 504.98 206.296 496.213 187.849C491.964 178.898 488.988 170.171 487.6 162.604C486.36 155.881 486.43 150.207 487.777 146.596C489.017 143.315 490.836 142.877 492.468 142.877V138.021M492.468 138.021C469.641 138.021 482.929 202.073 539.442 251.107L542.431 185.167L525.604 161.877H510.998C510.066 161.876 509.173 161.506 508.515 160.847C507.856 160.189 507.486 159.296 507.484 158.365V146.959C507.484 144.616 505.798 142.955 503.765 141.777C499.342 139.207 495.568 138.021 492.464 138.021H492.468Z" fill="#FBC343"/>
<path d="M627.001 368.115H531.87V417.472H627.001V368.115Z" fill="#6F3428"/>
<path d="M559.456 338.986H599.411C602.865 338.986 606.178 340.358 608.621 342.8C611.063 345.242 612.435 348.554 612.435 352.007V368.123H546.411V352.007C546.411 350.295 546.749 348.6 547.404 347.019C548.06 345.438 549.021 344.002 550.233 342.792C551.444 341.583 552.883 340.624 554.465 339.971C556.048 339.318 557.743 338.983 559.456 338.986Z" fill="#FBC343"/>
<path d="M566.995 320.853H591.876C594.027 320.853 596.09 321.707 597.611 323.228C599.131 324.748 599.986 326.81 599.986 328.961V338.986H558.893V328.961C558.893 326.812 559.747 324.751 561.266 323.231C562.785 321.71 564.845 320.855 566.995 320.853Z" fill="#FBC343"/>
<path d="M590.897 315.783L592.178 320.853H566.697L567.966 315.783C569.658 309.139 569.658 302.178 567.966 295.534L566.697 290.464H592.178L590.897 295.534C590.344 297.725 589.971 299.957 589.781 302.208C589.392 306.764 589.769 311.352 590.897 315.783Z" fill="#FBC343"/>
<path opacity="0.3" d="M592.178 290.451L590.897 295.522C590.344 297.712 589.971 299.944 589.781 302.195C588.388 292.914 566.697 290.451 566.697 290.451H592.178Z" fill="#6F3428"/>
<path d="M599.978 272.323V282.344C599.978 283.149 599.859 283.949 599.626 284.72C599.118 286.378 598.091 287.83 596.696 288.862C595.301 289.894 593.612 290.451 591.876 290.451H566.994C564.843 290.45 562.781 289.595 561.26 288.074C559.739 286.553 558.885 284.49 558.885 282.34V272.323H599.978Z" fill="#FBC343"/>
<path opacity="0.3" d="M599.978 272.323V282.344C599.978 283.149 599.859 283.949 599.626 284.72C588.653 274.637 560.774 274.339 558.885 274.327V272.323H599.978Z" fill="#6F3428"/>
<path d="M643.252 151.22L631.473 202.647L618.403 259.727C617.453 263.875 615.124 267.577 611.795 270.229C608.467 272.88 604.337 274.324 600.081 274.323H558.782C554.541 274.322 550.426 272.887 547.103 270.253C543.781 267.618 541.447 263.938 540.48 259.81C540.475 259.782 540.469 259.754 540.459 259.727L515.61 151.22C515.487 150.695 515.471 150.151 515.563 149.62C515.655 149.089 515.853 148.582 516.145 148.129C516.437 147.676 516.817 147.286 517.263 146.983C517.708 146.68 518.21 146.469 518.739 146.364C558.805 138.368 600.057 138.368 640.123 146.364C640.652 146.469 641.154 146.68 641.6 146.983C642.046 147.286 642.426 147.676 642.718 148.129C643.01 148.582 643.208 149.089 643.299 149.62C643.391 150.151 643.375 150.695 643.252 151.22Z" fill="#FBC343"/>
<path opacity="0.6" d="M552.359 182.204C553.264 189.614 551.784 195.891 549.052 196.221C546.32 196.552 543.377 190.82 542.472 183.411C541.567 176.002 543.047 169.725 545.779 169.394C548.511 169.063 551.454 174.799 552.359 182.204Z" fill="white"/>
<path opacity="0.1" d="M631.473 202.647L618.403 259.727C617.453 263.875 615.124 267.577 611.795 270.229C608.467 272.88 604.337 274.324 600.081 274.323H558.782C554.541 274.322 550.426 272.887 547.103 270.253C543.781 267.618 541.447 263.938 540.48 259.81C585.875 256.946 616.068 228.177 631.473 202.647Z" fill="#6F3428"/>
<g opacity="0.3">
<path d="M566.697 320.853C568.782 320.354 570.899 320.002 573.033 319.799C575.158 319.568 577.294 319.469 579.435 319.432C583.705 319.432 588.024 319.713 592.178 320.853C590.025 320.915 587.913 320.907 585.792 320.919L579.448 320.981C575.215 321.002 570.987 321.085 566.697 320.853Z" fill="#6F3428"/>
</g>
<g opacity="0.3">
<path d="M558.885 338.986C565.7 338.116 572.561 337.651 579.431 337.593C582.862 337.556 586.301 337.593 589.731 337.784C593.175 337.911 596.602 338.314 599.982 338.986C596.543 338.87 593.129 338.961 589.711 338.986L579.448 339.135C572.607 339.205 565.763 339.267 558.885 338.986Z" fill="#6F3428"/>
</g>
<path d="M560.964 69.2419L565.217 99.8545C565.247 100.22 565.154 100.586 564.953 100.893C564.752 101.2 564.454 101.432 564.107 101.551C563.76 101.671 563.382 101.671 563.035 101.552C562.687 101.434 562.389 101.203 562.188 100.896L546.733 74.1264C546.512 73.7405 546.378 73.3103 546.343 72.8666C546.308 72.4229 546.371 71.977 546.53 71.561C546.688 71.145 546.937 70.7694 547.258 70.4612C547.579 70.153 547.965 69.92 548.387 69.7791L557.017 66.8162C557.436 66.6739 557.881 66.6257 558.321 66.675C558.76 66.7244 559.184 66.8701 559.561 67.1017C559.938 67.3333 560.259 67.6452 560.501 68.0151C560.744 68.3851 560.902 68.8039 560.964 69.2419Z" fill="#FBC343"/>
<path d="M603.702 50.9147L586.97 103.466C586.003 106.512 581.543 105.995 581.295 102.809L577.034 47.8237C576.974 47.0335 577.089 46.2398 577.372 45.4994C577.655 44.759 578.098 44.0904 578.669 43.5414C579.241 42.9924 579.927 42.5766 580.678 42.3239C581.43 42.0712 582.228 41.9878 583.015 42.0797L599.188 43.9558C599.976 44.0457 600.734 44.3088 601.408 44.7263C602.082 45.1437 602.656 45.7052 603.087 46.3704C603.519 47.0356 603.798 47.7881 603.904 48.5737C604.01 49.3594 603.941 50.1589 603.702 50.9147Z" fill="#FBC343"/>
<path d="M623.235 83.1062L603.276 102.14C603.032 102.374 602.713 102.516 602.376 102.541C602.039 102.566 601.703 102.473 601.427 102.277C601.151 102.081 600.952 101.795 600.864 101.469C600.776 101.142 600.804 100.795 600.945 100.487L612.282 75.3497C612.446 74.9884 612.687 74.6677 612.989 74.4106C613.291 74.1536 613.646 73.9666 614.029 73.8631C614.412 73.7596 614.813 73.7422 615.203 73.812C615.594 73.8818 615.964 74.0373 616.287 74.2671L622.929 78.9738C623.254 79.2017 623.524 79.4987 623.719 79.8435C623.915 80.1883 624.032 80.5722 624.061 80.9676C624.09 81.363 624.031 81.7599 623.889 82.1297C623.746 82.4996 623.523 82.8331 623.235 83.1062Z" fill="#FBC343"/>
<path d="M174.302 238.545C183.258 244.119 192.765 236.892 193.806 230.776C195.356 221.652 187.044 211.147 174.302 218.941C174.302 218.941 163.254 206.027 152.524 218.809C152.524 218.809 134.218 228.024 144.377 244.016C154.537 260.008 167.288 238.231 167.288 238.231L174.302 238.545Z" fill="#01153A"/>
<path d="M180.807 242.545C185.714 249.132 187.875 251.727 187.181 253.785C186.487 255.843 181.58 256.012 181.58 256.012L180.807 242.545Z" fill="#E28B6D"/>
<path d="M173.186 262.893L170.375 269.918L159.505 297.096L141.972 276.344L158.525 251.868L168.404 259.298L173.186 262.893Z" fill="#F9B384"/>
<path d="M173.182 262.893L170.371 269.918C167.048 266.528 164.007 262.872 161.278 258.988L168.387 259.298L173.182 262.893Z" fill="#102048"/>
<path d="M183.366 259.368C183.209 263.087 182.477 265.951 180.667 267.219C175.471 270.897 156.384 255.235 156.384 255.235L155.082 233.156L181.919 235.07C181.969 238.611 182.353 242.599 182.713 246.537C183.126 251.124 183.515 255.661 183.366 259.368Z" fill="#F9B384"/>
<path d="M157.575 243.991C164.142 245.231 165.841 237.966 165.841 237.966C172.868 233.66 178.683 243.603 185.007 239.9L185.982 227.206L158.166 225.784L148.126 232.239L150.966 239.987L157.575 243.991Z" fill="#102048"/>
<path d="M161.687 244.132C158.153 240.119 152.445 241.838 151.9 246.144C151.354 250.45 154.913 257.715 160.687 253.5L161.687 244.132Z" fill="#F9B384"/>
<path d="M183.366 259.368C182.788 259.535 182.19 259.619 181.589 259.616C180.683 259.68 179.774 259.557 178.918 259.255C178.062 258.952 177.278 258.477 176.613 257.858C175.949 257.239 175.419 256.491 175.057 255.658C174.695 254.826 174.508 253.928 174.508 253.02C174.508 252.113 174.695 251.215 175.057 250.383C175.419 249.55 175.949 248.802 176.613 248.183C177.278 247.564 178.062 247.089 178.918 246.786C179.774 246.484 180.683 246.361 181.589 246.425C181.966 246.422 182.343 246.456 182.713 246.529C183.126 251.124 183.515 255.661 183.366 259.368Z" fill="#FC8879"/>
<path d="M159.278 246.991C159.052 246.523 158.714 246.119 158.294 245.813C157.894 245.496 157.434 245.262 156.942 245.123C156.491 244.971 155.999 244.985 155.558 245.165C155.103 245.39 154.723 245.743 154.466 246.181L154.185 246.066C154.253 245.757 154.382 245.465 154.565 245.206C154.747 244.948 154.979 244.729 155.248 244.561C155.537 244.408 155.854 244.313 156.181 244.282C156.507 244.252 156.836 244.286 157.149 244.384C157.744 244.565 158.286 244.888 158.728 245.326C159.19 245.746 159.49 246.315 159.575 246.933L159.278 246.991Z" fill="#102048"/>
<path d="M184.994 313.646C190.781 306.911 191.368 297.29 193.567 295.315C197.654 291.637 195.786 302.873 195.786 302.873C195.786 302.873 198.448 295.307 204.842 293.596C209.029 292.472 209.777 296.365 209.413 299.625C208.81 305.035 207.033 311.225 202.656 314.816C200.796 316.349 198.415 317.514 197.076 319.58C196.286 320.769 195.681 322.07 195.282 323.44L184.994 313.646Z" fill="#F9B384"/>
<path d="M184.077 313.853L186.772 310.225L197.729 319.969L194.666 324.39L184.077 313.853Z" fill="#708CD5"/>
<path d="M149.428 349.598L184.3 310.754L197.245 323.457C187.987 344.503 175.724 358.007 156.062 368.334L149.428 349.598Z" fill="#01153A"/>
<path d="M199.047 302.547C199.712 302.452 200.39 302.526 201.019 302.762C201.628 302.967 202.214 303.234 202.767 303.559C203.319 303.879 203.839 304.25 204.321 304.667C204.854 305.079 205.279 305.613 205.561 306.225L205.185 306.369C204.734 306.01 204.261 305.681 203.768 305.382C203.259 305.064 202.747 304.745 202.23 304.44C201.713 304.134 201.197 303.84 200.676 303.559C200.165 303.285 199.62 303.078 199.056 302.944L199.047 302.547Z" fill="#E28B6D"/>
<path d="M195.708 304.902C196.462 305.16 197.124 305.633 197.613 306.262C198.104 306.955 198.315 307.808 198.204 308.65C198.099 309.45 197.795 310.21 197.32 310.861C196.883 311.541 196.229 312.054 195.464 312.316L195.336 311.936C195.843 311.503 196.257 310.972 196.551 310.374C196.872 309.803 197.087 309.178 197.183 308.531C197.269 307.915 197.164 307.287 196.882 306.733C196.521 306.163 196.059 305.664 195.518 305.262L195.708 304.902Z" fill="#E28B6D"/>
<path d="M74.8897 349.598L37.7527 339.465C38.1134 338.143 38.9842 337.019 40.1739 336.338C41.3636 335.658 42.7747 335.478 44.0972 335.837L71.2649 343.242C71.9205 343.421 72.5345 343.728 73.0716 344.144C73.6088 344.56 74.0585 345.079 74.3952 345.669C74.7319 346.259 74.9488 346.91 75.0337 347.584C75.1185 348.258 75.0696 348.943 74.8897 349.598Z" fill="#708CD5"/>
<path d="M60.5516 552.497C60.5516 552.497 68.1443 568.646 89.9883 563.456L79.4528 549.484L60.5516 552.497Z" fill="#1F3C88"/>
<path d="M67.9624 550.509L60.1879 567.997L68.6734 581.374L79.1717 572.836L83.8133 553.592L67.9624 550.509Z" fill="#F9B384"/>
<path d="M60.1878 567.998L79.1717 572.837L89.9181 599.478C90.1413 600.028 90.1925 600.633 90.0648 601.213C89.9372 601.793 89.6367 602.321 89.203 602.727C88.7693 603.133 88.2227 603.398 87.6354 603.487C87.0481 603.576 86.4475 603.485 85.913 603.226L52.2314 586.944C51.0591 586.377 50.1551 585.374 49.7126 584.15C49.2701 582.925 49.3241 581.576 49.8631 580.391L50.1607 579.738C52.3339 574.967 55.8003 570.9 60.1672 567.998H60.1878Z" fill="#1F3C88"/>
<path d="M60.1878 567.998L79.1717 572.837L89.9181 599.478C90.1413 600.028 90.1925 600.633 90.0648 601.213C89.9372 601.793 89.6367 602.321 89.203 602.727C88.7693 603.133 88.2227 603.398 87.6354 603.487C87.0481 603.576 86.4475 603.485 85.913 603.226L52.2314 586.944C51.0591 586.377 50.1551 585.374 49.7126 584.15C49.2701 582.925 49.3241 581.576 49.8631 580.391L50.1607 579.738C52.3339 574.967 55.8003 570.9 60.1672 567.998H60.1878Z" fill="#0D3279"/>
<path d="M82.576 581.55L77.8703 584.186L78.3754 585.087L83.081 582.451L82.576 581.55Z" fill="#ACBFEE"/>
<path d="M84.9583 587.421L80.2554 590.062L80.7614 590.963L85.4643 588.322L84.9583 587.421Z" fill="#ACBFEE"/>
<path d="M85.8303 372.206C82.1559 380.851 77.1754 394.136 85.5286 410.1C88.9776 416.555 90.0038 424.03 88.4218 431.175L60.5516 552.497L89.9883 563.456L150.226 387.777L85.8303 372.206Z" fill="#01153A"/>
<path d="M164.585 284.844C170.536 301.915 170.702 331.064 159.402 361.821L141.968 366.78L148.973 309.816L164.585 284.844Z" fill="#708CD5"/>
<path d="M145.448 270.182L150.226 259.616C150.226 259.616 163.754 269.046 170.859 280.278L162.572 295.877L145.448 270.182Z" fill="#708CD5"/>
<path d="M148.965 359.569C102.673 358.082 78.4112 384.033 78.5889 383.02C86.0287 357.751 93.0552 338.854 99.3377 324.754C110.725 299.162 119.673 289.286 124.323 285.567C126.596 283.74 127.844 283.389 127.844 283.389L148.924 265.731C150.799 266.745 152.526 268.01 154.057 269.492C160.001 275.071 163.398 282.777 164.204 290.877C167.395 322.585 148.965 359.569 148.965 359.569Z" fill="#0D3279"/>
<path d="M135.594 286.563C128.836 290.15 117.098 308.878 99.3377 324.754C110.725 299.162 119.673 289.286 124.323 285.567L135.594 286.563Z" fill="#01153A"/>
<path d="M59.4521 325.891L52.0123 336.478C52.0123 336.478 51.0906 340.804 49.1191 342.523C49.1191 342.523 50.0119 346.957 53.4962 348.515C57.4806 350.288 62.3908 350.193 65.5734 345.647C68.756 341.102 69.1734 327.63 69.1734 327.63L59.4521 325.891Z" fill="#F9B384"/>
<path d="M54.3104 328.06C54.3104 328.75 52.9299 332.535 52.9299 332.535L69.1363 334.775V327.63L54.3104 328.06Z" fill="#708CD5"/>
<path d="M148.94 265.731C148.94 265.731 118.09 261.103 93.0262 274.087C89.498 275.934 86.258 278.285 83.4082 281.067C71.3103 292.79 60.502 304.332 52.3223 328.837L71.5914 331.981L91.0175 303.286C92.6903 300.833 95.2279 299.102 98.1225 298.439C108.406 296.092 133.065 290.323 136.929 288.071L148.94 265.731Z" fill="#0D3279"/>
<path d="M175.976 450.209C175.976 450.209 187.578 465.664 206.793 457.899L193.98 444.283L175.976 450.209Z" fill="#0D3279"/>
<path d="M183.077 446.15L175.302 463.634L183.792 477.015L194.286 468.478L198.927 449.233L183.077 446.15Z" fill="#F9B384"/>
<path d="M175.302 463.651L194.286 468.494L205.057 495.136C205.279 495.687 205.329 496.291 205.2 496.871C205.071 497.451 204.771 497.978 204.337 498.383C203.903 498.789 203.357 499.053 202.77 499.143C202.183 499.232 201.583 499.142 201.048 498.884L167.366 482.602C166.194 482.035 165.29 481.032 164.847 479.807C164.405 478.583 164.459 477.234 164.998 476.048L165.296 475.396C167.468 470.623 170.935 466.555 175.302 463.651Z" fill="#0D3279"/>
<path d="M197.627 476.719L192.921 479.355L193.426 480.256L198.132 477.62L197.627 476.719Z" fill="#ACBFEE"/>
<path d="M199.999 482.585L195.296 485.226L195.802 486.127L200.505 483.486L199.999 482.585Z" fill="#ACBFEE"/>
<path d="M85.8303 372.206C92.1624 367.826 132.536 357.247 158.162 358.02C186.644 358.879 209.5 362.115 218.792 382.967C228.083 403.819 206.805 457.899 206.805 457.899L175.988 450.209L183.428 400.071C183.428 400.071 144.377 404.972 125.778 405.199L85.8303 372.206Z" fill="#01153A"/>
<path d="M150.222 403.864C147.047 403.864 143.997 404.691 140.86 405.323C137.706 405.947 134.494 406.236 131.279 406.182C128.08 406.097 124.889 405.835 121.719 405.397C120.14 405.166 118.565 404.893 116.995 404.637C115.432 404.319 113.866 404.017 112.312 403.674L112.382 403.261C113.961 403.455 115.532 403.674 117.106 403.91C118.681 404.145 120.256 404.323 121.831 404.484C124.98 404.827 128.138 405.087 131.292 405.141C134.444 405.214 137.596 404.981 140.703 404.447C142.265 404.195 143.823 403.868 145.415 403.649C147.011 403.448 148.622 403.38 150.23 403.447L150.222 403.864Z" fill="#708CD5"/>
<path d="M91.3688 373.876L81.5855 409.778L80.4365 413.96C80.1488 415.012 79.6566 415.998 78.9879 416.861C78.3191 417.724 77.487 418.446 76.539 418.987C75.591 419.528 74.5457 419.877 73.4627 420.014C72.3798 420.151 71.2804 420.074 70.2274 419.786L6.13365 402.319C5.0798 402.032 4.09276 401.541 3.2289 400.872C2.36504 400.204 1.64128 399.373 1.09896 398.425C0.556628 397.477 0.206356 396.432 0.0681408 395.348C-0.0700741 394.265 0.0064755 393.165 0.293418 392.112L6.74123 368.483L11.2258 352.036C11.5121 350.983 12.0031 349.997 12.6708 349.134C13.3384 348.271 14.1697 347.548 15.117 347.006C16.0643 346.464 17.1091 346.114 18.1917 345.976C19.2743 345.838 20.3736 345.914 21.4265 346.201L85.5327 363.669C87.6591 364.251 89.4677 365.652 90.5619 367.566C91.656 369.479 91.9462 371.749 91.3688 373.876Z" fill="#ACBFEE"/>
<path d="M32.049 360.404L37.7363 339.544C37.9148 338.89 38.2205 338.277 38.636 337.74C39.0515 337.204 39.5686 336.755 40.1577 336.418C40.7469 336.082 41.3965 335.864 42.0697 335.779C42.7428 335.693 43.4261 335.741 44.0807 335.92L37.0336 361.76L32.049 360.404Z" fill="#708CD5"/>
<path d="M64.5566 367.859L71.269 343.242C71.9252 343.42 72.5399 343.726 73.0776 344.142C73.6153 344.558 74.0655 345.076 74.4023 345.667C74.7391 346.257 74.9559 346.909 75.0403 347.583C75.1246 348.258 75.0748 348.942 74.8938 349.598L69.5413 369.226L64.5566 367.859Z" fill="#708CD5"/>
<path d="M34.1734 366.875C36.6296 366.875 38.6208 364.885 38.6208 362.429C38.6208 359.973 36.6296 357.982 34.1734 357.982C31.7172 357.982 29.7261 359.973 29.7261 362.429C29.7261 364.885 31.7172 366.875 34.1734 366.875Z" fill="#01153A"/>
<path d="M66.7473 374.091C69.2035 374.091 71.1946 372.1 71.1946 369.644C71.1946 367.188 69.2035 365.198 66.7473 365.198C64.2911 365.198 62.2999 367.188 62.2999 369.644C62.2999 372.1 64.2911 374.091 66.7473 374.091Z" fill="#01153A"/>
<path opacity="0.15" d="M81.5855 409.778L80.4365 413.96C80.1488 415.012 79.6566 415.998 78.9879 416.861C78.3191 417.723 77.487 418.446 76.539 418.987C75.591 419.528 74.5457 419.877 73.4627 420.014C72.3798 420.151 71.2804 420.074 70.2274 419.786L6.13365 402.319C5.0798 402.032 4.09276 401.54 3.2289 400.872C2.36504 400.204 1.64128 399.372 1.09896 398.425C0.556628 397.477 0.206356 396.431 0.0681409 395.348C-0.0700741 394.265 0.0064755 393.165 0.293418 392.112L8.85331 360.755C6.69164 390.413 52.9299 409.674 81.5855 409.778Z" fill="#102048"/>
<path opacity="0.2" d="M639.971 418.835V462.701L158.591 646H45.5273V603.808H157.579L157.703 580.564L157.839 557.257H270.395V510.714H382.446V465.341H494.51V418.79L639.971 418.835Z" fill="#ACBFEE"/>
<path d="M381.235 511.921H270.726C270.13 511.92 269.558 511.683 269.137 511.262C268.715 510.84 268.478 510.269 268.477 509.673C268.479 509.078 268.717 508.507 269.138 508.086C269.559 507.665 270.13 507.427 270.726 507.425H381.235C381.831 507.427 382.402 507.665 382.823 508.086C383.244 508.507 383.482 509.078 383.484 509.673C383.483 510.269 383.245 510.84 382.824 511.262C382.403 511.683 381.831 511.92 381.235 511.921Z" fill="#ACBFEE"/>
<path d="M493.506 467.155H383.009C382.412 467.154 381.84 466.917 381.418 466.496C380.996 466.075 380.758 465.503 380.756 464.907C380.758 464.311 380.996 463.74 381.418 463.319C381.84 462.897 382.412 462.66 383.009 462.659H493.506C494.102 462.661 494.672 462.899 495.093 463.32C495.515 463.741 495.752 464.312 495.754 464.907C495.752 465.503 495.515 466.073 495.093 466.494C494.672 466.915 494.102 467.153 493.506 467.155Z" fill="#ACBFEE"/>
<path d="M640.041 420.009H494.304C493.707 420.007 493.136 419.769 492.715 419.347C492.293 418.925 492.056 418.354 492.055 417.757C492.057 417.162 492.295 416.591 492.716 416.17C493.137 415.749 493.708 415.511 494.304 415.509H640.041C640.636 415.511 641.207 415.749 641.628 416.17C642.049 416.591 642.287 417.162 642.289 417.757C642.288 418.354 642.051 418.925 641.63 419.347C641.208 419.769 640.637 420.007 640.041 420.009Z" fill="#ACBFEE"/>
<path d="M269.072 558.2H158.575C157.979 558.197 157.409 557.96 156.987 557.539C156.566 557.118 156.329 556.547 156.326 555.952C156.329 555.356 156.566 554.786 156.987 554.364C157.409 553.943 157.979 553.706 158.575 553.704H269.072C269.668 553.706 270.239 553.943 270.66 554.364C271.081 554.786 271.319 555.356 271.321 555.952C271.319 556.547 271.081 557.118 270.66 557.539C270.239 557.96 269.668 558.197 269.072 558.2Z" fill="#ACBFEE"/>
<path d="M156.512 604.747H45.9985C45.4025 604.746 44.8313 604.508 44.4098 604.087C43.9884 603.666 43.7512 603.095 43.7501 602.499C43.7501 601.902 43.9868 601.33 44.4084 600.908C44.8299 600.485 45.4018 600.248 45.9985 600.247H156.512C157.109 600.249 157.68 600.487 158.101 600.909C158.523 601.331 158.76 601.902 158.761 602.499C158.759 603.094 158.521 603.665 158.1 604.086C157.679 604.507 157.108 604.745 156.512 604.747Z" fill="#ACBFEE"/>
<path d="M279.914 357.4L279.298 350.458L290.375 349.474C318.424 347.046 345.119 336.338 367.068 318.708C389.016 301.079 405.228 277.324 413.644 250.463L427.817 205.519L434.467 207.614L420.294 252.558C411.466 280.736 394.458 305.655 371.433 324.149C348.407 342.642 320.403 353.875 290.978 356.421L279.914 357.4Z" fill="#DEE5F8"/>
<path d="M431.322 248.152L428.292 215.069L405.803 241.127L400.521 236.574L433.74 198.089L438.265 247.516L431.322 248.152Z" fill="#DEE5F8"/>
<path d="M173.438 116.235C173.408 117.484 172.955 118.687 172.153 119.644H45.796C45.3096 118.574 45.0573 117.411 45.0562 116.235C45.0562 109.896 52.4215 104.76 61.5063 104.76C64.2164 104.749 66.9052 105.238 69.438 106.202C70.678 97.2016 83.0156 90.127 98.0522 90.127C113.73 90.127 126.468 97.8049 126.774 107.338C131.688 105.739 137.975 104.772 144.811 104.772C160.629 104.76 173.438 109.896 173.438 116.235Z" fill="#DEE5F8"/>
<path d="M393.664 31.2572C393.627 32.7533 393.083 34.1927 392.122 35.34H240.896C240.313 34.0576 240.01 32.6658 240.008 31.2572C240.008 23.6702 248.824 17.5254 259.702 17.5254C262.949 17.5065 266.172 18.0865 269.209 19.2362C270.688 8.46308 285.456 0 303.452 0C322.213 0 337.46 9.18624 337.824 20.5998C343.71 18.6824 351.232 17.5254 359.416 17.5254C378.334 17.5254 393.664 23.6702 393.664 31.2572Z" fill="#DEE5F8"/>
</svg>
