<svg width="7" height="9" viewBox="0 0 7 9" fill="none" xmlns="http://www.w3.org/2000/svg">
<g id="Vector">
<path id="Vector_2" d="M3.66 6.66998L3.75 6.63998C3.82 6.75998 3.76 6.80001 3.87 6.79001C3.66 6.67001 3.95 6.53999 3.75 6.42999L3.81 6.41C3.8 6.42 3.81 6.43 3.81 6.44C3.94 6.41 3.69 6.31 3.77 6.22C3.8 6.19 3.84 6.18 3.85 6.22L3.84 6.12C3.85 6.1 3.89 6.11998 3.87 6.13998L3.91 6.00998H3.92C3.9 5.97998 3.87 5.90998 3.86 5.88998C3.9 5.86998 3.87 5.91998 3.9 5.91998L3.89 5.82999C3.95 5.82999 3.97 5.90998 3.95 5.94998C4.17 5.98998 3.93 5.86999 4.1 5.79999V5.87C4.23 5.89 4.21 5.82 4.31 5.78C4.27 5.78 4.08 5.82999 4.07 5.73999C4.09 5.72999 4.11 5.69999 4.09 5.64999C4.16 5.67999 4.16 5.64 4.18 5.59L4.26 5.63998C4.26 5.57998 4.21 5.55998 4.19 5.50998C4.23 5.45998 4.3 5.48 4.36 5.5C4.42 5.42 4.23 5.50998 4.26 5.38998C4.33 5.32998 4.32 5.25999 4.31 5.14999C4.36 5.10999 4.36 5.18999 4.39 5.17999L4.35 5.10001C4.36 5.09001 4.38 5.09999 4.38 5.10999C4.37 5.05999 4.3 5.05999 4.31 4.98999C4.23 4.92999 4.5 4.94 4.44 4.81C4.47 4.8 4.48 4.84999 4.52 4.85999C4.51 4.71999 4.52 4.75 4.48 4.62L4.57 4.57999C4.49 4.59999 4.45 4.5 4.43 4.41C4.39 4.41 4.36 4.41998 4.34 4.41998L4.35 4.31C4.37 4.31 4.39 4.32999 4.41 4.35999L4.4 4.32999C4.45 4.30999 4.48 4.34999 4.51 4.39999L4.45 4.41C4.48 4.46 4.52 4.51 4.57 4.53C4.56 4.52 4.56 4.49999 4.57 4.48999C4.58 4.49999 4.59 4.50998 4.6 4.50998C4.61 4.50998 4.6 4.49 4.59 4.47L4.68 4.48999L4.65 4.47L4.76 4.37C4.72 4.24 4.65 4.1 4.7 3.94C4.74 4.01 4.79 4.00001 4.85 4.04001C4.76 4.04001 4.82 4.15998 4.77 4.22998C4.8 4.19998 4.83 4.21999 4.83 4.23999V4.07001C4.88 4.10001 4.89 4.07001 4.93 4.04001C4.81 4.00001 4.91 3.89999 4.91 3.82999C4.95 3.84999 4.98 3.88 4.93 3.94C5.05 3.91 4.86 3.78 4.96 3.75C4.95 3.77 4.94 3.77001 4.96 3.79001C4.95 3.74001 5.02 3.65998 5.04 3.69998L5.03 3.72C5.1 3.62 5.2 3.41 5.13 3.34C5.14 3.35 5.22 3.40999 5.23 3.42999L5.07 3.09C5.13 3.15 5.32 3.18 5.31 3.28C5.33 3.26 5.36 3.23998 5.36 3.16998C5.34 3.17998 5.24 3.16 5.25 3.13C5.36 3.11 5.31 3.11001 5.42 3.07001C5.39 3.09001 5.31 2.99999 5.33 2.95999C5.34 2.97999 5.43 3.02001 5.43 3.04001L5.39 2.88C5.39 2.91 5.47 2.92999 5.51 2.92999C5.49 2.92999 5.56 2.85 5.56 2.81L5.51 2.84C5.59 2.74 5.44 2.64999 5.51 2.54999C5.52 2.56999 5.61 2.65001 5.65 2.60001C5.62 2.55001 5.49 2.34999 5.52 2.23999H5.56L5.58 2.14999C5.61 2.22999 5.68 2.44999 5.7 2.54999C5.74 2.51999 5.74 2.55999 5.77 2.48999C5.81 2.47999 5.79 2.55001 5.78 2.57001L5.87 2.42999C5.81 2.40999 5.88 2.28999 5.84 2.26999L5.81 2.45999C5.75 2.42999 5.71 2.28 5.78 2.19C5.81 2.18 5.86 2.25999 5.88 2.26999C5.87 2.24999 5.9 2.14999 5.92 2.14999V2.20999C5.97 2.15999 5.91 2.08001 5.99 2.04001C6.01 2.02001 6.09 2.00999 6.06 1.98999C5.99 1.99999 5.81 1.90001 5.79 1.85001C5.8 1.84001 5.92 1.76 5.96 1.75C6.02 1.74 6.02 1.86999 6.08 1.85999C6.07 1.84999 6.07 1.82 6.07 1.81C6.09 1.79 6.1 1.84001 6.13 1.79001C6.09 1.75001 6.2 1.67999 6.11 1.73999C6.13 1.67999 6.15 1.69 6.19 1.63C6.15 1.63 6.13 1.51999 6.15 1.45999C6.16 1.46999 6.18 1.47 6.19 1.47C6.26 1.37 6.31 1.32 6.37 1.22C6.38 1.22 6.43 1.17999 6.43 1.20999C6.43 1.18999 6.43 1.16998 6.44 1.13998C6.51 1.09998 6.4 1.21 6.47 1.19C6.45 1.17 6.49 1.09001 6.5 1.04001C6.46 1.03001 6.43 1.14 6.42 1.19C6.37 1.16 6.37 1.05 6.42 0.940002C6.46 0.850002 6.47 0.920004 6.47 0.910004C6.58 0.760004 6.48 0.740005 6.6 0.630005C6.66 0.600005 6.65 0.660004 6.68 0.660004C6.65 0.730004 6.6 0.749988 6.57 0.799988L6.62 0.75C6.61 0.78 6.59 0.819996 6.57 0.839996C6.62 0.809996 6.74 0.58998 6.83 0.47998C6.84 0.44998 6.85 0.409983 6.83 0.419983L6.81 0.459991C6.77 0.479991 6.83 0.369983 6.79 0.419983C6.81 0.359983 6.83 0.29998 6.89 0.22998H6.92C6.91 0.22998 6.87 0.270009 6.87 0.290009C6.88 0.250009 6.97 0.209994 6.96 0.149994L6.91 0.190002C6.93 0.130002 6.95 0.06 7 0C6.96 0.01 6.99 0.0200085 6.94 0.0400085C7 0.0200085 6.83 0.190004 6.91 0.160004C6.85 0.180004 6.84 0.229989 6.77 0.269989C6.78 0.269989 6.8 0.259998 6.76 0.309998C6.76 0.319998 6.76 0.329987 6.76 0.329987C6.77 0.319987 6.78 0.309998 6.79 0.309998C6.79 0.349998 6.73 0.429991 6.73 0.459991C6.71 0.489991 6.73 0.439982 6.71 0.449982L6.7 0.5C6.68 0.49 6.61 0.55998 6.65 0.47998L6.6 0.540009C6.56 0.570009 6.52 0.620004 6.51 0.660004C6.48 0.690004 6.48 0.749991 6.48 0.709991L6.42 0.820007H6.41C6.34 0.920007 6.31 1.04998 6.18 1.13998C6.16 1.17998 6.15 1.21999 6.1 1.26999H6.07C6.05 1.31999 5.96 1.37998 5.97 1.41998C5.87 1.42998 5.81 1.62 5.75 1.69L5.78 1.70999C5.74 1.75999 5.72 1.81998 5.69 1.88998L5.72 1.91C5.71 1.98 5.6 2.04 5.54 2.13C5.53 2.12 5.55 2.09999 5.57 2.07999C5.42 2.13999 5.48 2.33999 5.36 2.39999C5.36 2.42999 5.34 2.44999 5.32 2.45999V2.44998L5.31 2.45999L5.27 2.47998C5.29 2.47998 5.3 2.46999 5.31 2.45999C5.3 2.47999 5.28 2.51001 5.28 2.54001L5.23 2.53V2.54001C5.2 2.56001 5.23 2.56999 5.27 2.57999C5.27 2.59999 5.27 2.62 5.27 2.63C5.19 2.61 5.25 2.71999 5.16 2.70999C5.18 2.74999 5.1 2.86999 5.16 2.92999C5.15 2.92999 5.14 2.92998 5.15 2.91998C5.12 2.94998 5.09 2.96998 5.1 3.00998L5.04 2.98999L5.07 3.10001C5.01 3.12001 4.98 3.13 4.96 3.06C4.96 3.2 4.93 3.16 4.95 3.28L4.91 3.25C4.89 3.28 4.91 3.35999 4.87 3.35999C4.75 3.37999 4.65 3.68999 4.47 3.82999C4.62 3.86999 4.36 3.88 4.46 3.94C4.42 3.93 4.39 3.95 4.38 3.91C4.35 4.02 4.25 4.02 4.29 4.13C4.25 4.12 4.26 4.08999 4.23 4.07999C4.23 4.08999 4.24 4.12 4.22 4.12C4.2 4.12 4.2 4.09001 4.2 4.07001C4.15 4.16001 4.24 4.23001 4.33 4.29001C4.26 4.31001 4.25 4.34 4.29 4.41C4.25 4.41 4.2 4.41999 4.23 4.35999C4.21 4.38999 4.07 4.52999 4.14 4.57999C4.11 4.57999 4.11 4.61998 4.11 4.63998C4.06 4.70998 4.05 4.71001 4.02 4.79001L4.04 4.78C4.12 4.86 4.03 4.84998 4.01 4.91998L4 4.91C3.85 5 4 4.99001 3.85 5.07001L3.92 5.10001C4.05 5.18001 3.78 5.17 3.78 5.28L3.83 5.26999C3.85 5.33999 3.58 5.29001 3.53 5.32001C3.51 5.32001 3.52 5.3 3.52 5.28C3.37 5.34 3.6 5.33999 3.57 5.42999C3.52 5.41999 3.46 5.34999 3.42 5.39999C3.37 5.40999 3.48 5.63998 3.35 5.66998C3.4 5.66998 3.44 5.67998 3.45 5.72998C3.43 5.79998 3.22 5.80999 3.31 5.92999C3.3 5.92999 3.28 5.92998 3.27 5.91998C3.28 5.97998 3.24 6.08999 3.29 6.14999C3.02 6.05999 3.26 6.49 3.03 6.37L2.97 6.50998L2.95 6.48999C2.89 6.56999 2.93 6.63 2.97 6.69C2.94 6.7 2.93 6.67998 2.92 6.66998C2.8 6.76998 2.79 6.79998 2.88 6.94998L2.8 6.91C2.83 6.97 2.65 6.92 2.69 7.06C2.68 7.05 2.67 7.02998 2.67 7.00998C2.68 7.08998 2.62 7.08 2.59 7.06C2.56 7.05 2.55 7.05 2.6 7.31V7.5C2.65 7.45 2.64 7.74999 2.67 7.79999C2.65 7.87999 2.59 7.74998 2.61 7.66998L2.62 7.69C2.58 7.38 2.55 7.69998 2.53 7.47998C2.5 7.61998 2.44 7.41001 2.4 7.35001C2.36 7.26001 2.33 7.17 2.3 7.12L2.24 7.31L2.21 7.25998C2.22 7.20998 2.26 7.11999 2.28 7.14999C2.31 7.03999 2.21 7.19 2.19 7.22C2.18 7.1 2.31 7.05 2.29 7.03H2.27L2.26 7.04999C2.21 7.09999 2.17 7.16 2.15 7.12C2.15 7.06999 2.21 7.02998 2.21 7.00998C2.22 6.99998 2.22 6.99 2.21 7C2.2 6.98 2.2 6.96998 2.19 6.94998L2.11 7.06C2.05 7.08 2.08 7 1.99 7.13C2.15 6.96 1.83 6.75999 1.87 6.67999C1.75 6.67999 1.72 6.61999 1.69 6.54999C1.68 6.57999 1.56 6.67999 1.53 6.60999C1.81 6.45999 1.58 6.42 1.75 6.25C1.64 6.38 1.62 6.1 1.47 6.28C1.46 6.22 1.57 6.20998 1.62 6.13998C1.44 6.07998 1.55 5.82998 1.44 5.69998C1.4 5.71998 1.35 5.78 1.28 5.78L1.44 5.59C1.41 5.57 1.2 5.67999 1.31 5.54999C1.28 5.57999 1.24 5.61001 1.21 5.60001C1.27 5.20001 0.750001 5.04 1.04 4.56C0.970001 4.64 0.95 4.60999 0.93 4.57999C0.92 4.60999 0.820002 4.61999 0.760002 4.64999L0.880001 4.44998C0.700001 4.48998 0.820002 4.30999 0.650002 4.35999L0.689999 4.38998C0.469999 4.39998 0.279999 4.63 0.0299988 4.72C0.269999 4.7 -0.220001 5.01998 0.139999 5.00998C0.0999994 5.04998 0.05 5.02 0 5.06C0.12 5.05 0.150001 5.06999 0.130001 5.14999H0.100002C0.200002 5.30999 0.140002 5.42999 0.170002 5.64999L0.279999 5.57999C0.289999 5.62999 0.250002 5.65 0.240002 5.69C0.430002 5.66 0.190002 5.56999 0.400002 5.51999C0.200002 5.67999 0.540001 5.81 0.310001 5.97C0.340001 6.03 0.429999 5.88998 0.459999 5.94998L0.400002 6L0.5 5.97C0.51 6.02 0.440001 6.07999 0.380001 6.10999C0.380001 6.09999 0.35 6.08999 0.34 6.07999C0.29 6.16999 0.449999 6.22 0.439999 6.25L0.450001 6.16998C0.610001 6.30998 0.650001 6.55998 0.880001 6.63998L0.920002 6.60001C1.08 6.67001 0.930001 6.72999 1.06 6.82999H1.05C1.11 6.82999 1.16 6.84998 1.18 6.88998C1.11 6.88998 1.12 7.01998 1.03 7.00998C1.21 7.07998 1.14 7.03 1.36 7L1.3 7.07001C1.38 7.05001 1.42 7.02999 1.48 7.07999C1.38 7.06999 1.4 7.19 1.28 7.19C1.23 7.43 1.58 7.26999 1.41 7.48999C1.65 7.41999 1.43 7.3 1.49 7.31C1.53 7.24 1.67 7.25 1.68 7.31C1.7 7.36 1.52 7.58 1.65 7.72C1.64 7.71 1.63 7.71998 1.62 7.69998C1.63 7.79998 1.76 7.74001 1.76 7.88C1.86 7.8 1.83 7.97001 1.92 7.82001L1.8 7.73999C1.89 7.77999 2.03 7.63999 2.07 7.82999C2.05 7.85999 2.01 7.87 1.98 7.88C1.99 7.96 2.04 7.90999 2.05 7.98999C1.98 8.15999 1.91 7.88999 1.78 7.92999C1.78 8.03999 1.97 7.96001 1.85 8.10001C2 7.92001 1.97 8.26998 2.11 8.16998L2.07 8.28C2.09 8.28 2.13 8.25 2.15 8.28L2.07 8.38C2.17 8.32 2.19 8.63998 2.27 8.63998C2.12 8.48998 2.26 8.46 2.21 8.31C2.39 8.31 2.26 8.73001 2.48 8.88C2.45 8.87 2.38 8.69999 2.42 8.67999C2.46 8.73999 2.5 8.85 2.53 8.94C2.66 9.05 2.51 8.78 2.56 8.75C2.61 8.99 2.61 8.63999 2.64 8.54999L2.65 8.69C2.77 8.62 2.64 8.35999 2.74 8.32999L2.73 8.57999L2.77 8.45999L2.79 8.63C2.83 8.43001 2.85 8.43999 2.91 8.39999C2.87 8.32999 2.85 8.16 2.89 8.09C2.94 8.12 2.91 8.22999 2.97 8.12C2.98 8.22 3 8.33999 2.93 8.26999L2.95 8.41C3.01 8.44 3.05 8.29 3.08 8.25C3.07 8.26 3.05 8.26998 3.04 8.25998L3.07 7.94998C3.1 7.96998 3.11 8.02001 3.11 8.07001C3.13 8.03001 3.11 7.95001 3.13 7.88C3.17 7.98 3.22 8.06998 3.2 8.19998L3.24 7.88998C3.27 7.90998 3.34 7.85998 3.35 7.91998C3.43 7.80998 3.37 7.49999 3.48 7.39999C3.47 7.37999 3.47 7.35999 3.47 7.32999C3.56 7.17999 3.64 7.19999 3.61 7.04999H3.75C3.76 6.95999 3.58 7.05 3.59 6.91C3.6 6.81 3.7 6.93 3.74 6.91C3.7 6.84 3.63 6.70998 3.75 6.66998C3.69 6.62998 3.67 6.63998 3.66 6.66998ZM4.04 5.75C4.05 5.77 4.07 5.83001 4.03 5.82001C3.96 5.76001 4.01 5.77 4.04 5.75ZM4.58 4.32001C4.59 4.34001 4.57 4.35999 4.54 4.37C4.55 4.35 4.56 4.33001 4.58 4.32001ZM6.54 0.559998C6.5 0.589998 6.52 0.579998 6.54 0.559998V0.559998ZM6.6 0.48999C6.6 0.47999 6.6 0.47999 6.6 0.48999C6.6 0.48999 6.58 0.509989 6.57 0.519989C6.58 0.529989 6.59 0.51999 6.6 0.48999ZM2.12 6.95999L2.11 6.98999C2.08 6.99999 2.1 6.97999 2.12 6.95999Z" fill="#75BE87"/>
</g>
</svg>
