<svg width="112" height="21" viewBox="0 0 112 21" fill="none" xmlns="http://www.w3.org/2000/svg">
<g id="Group">
<g id="Group_2">
<g id="Group_3">
<g id="Group_4">
<g id="Group_5">
<path id="Vector" d="M32.6367 3.18067C32.5644 3.21067 32.5885 3.14067 32.6367 3.18067V3.18067Z" fill="#75BE87"/>
<path id="Vector_2" d="M69.1938 1.70996C69.2099 1.70996 69.2179 1.70996 69.2259 1.70996C69.25 1.50996 69.2741 1.33996 69.2982 1.20996L69.1938 1.70996Z" fill="#75BE87"/>
<path id="Vector_3" d="M75.0732 2.96065C75.0897 2.98065 75.098 2.99064 75.1062 3.01064C75.1062 2.89064 75.1145 2.77065 75.0732 2.96065Z" fill="#75BE87"/>
<path id="Vector_4" d="M55.644 3.57965C55.5959 3.56965 55.5638 3.60964 55.5477 3.67964C55.5718 3.62964 55.6039 3.58965 55.644 3.57965Z" fill="#75BE87"/>
<path id="Vector_5" d="M21.8575 4.23961C21.8575 4.23961 21.8736 4.2296 21.8816 4.2196C21.8575 4.1796 21.8415 4.14961 21.8174 4.09961L21.8575 4.23961Z" fill="#75BE87"/>
<path id="Vector_6" d="M21.9793 3.90039C22.1089 4.05039 21.9469 4.1804 21.8903 4.2204C22.036 4.4904 22.1737 4.5104 22.3195 4.3904C22.3195 4.0804 22.0441 4.13039 21.9793 3.90039Z" fill="#75BE87"/>
<path id="Vector_7" d="M2.31616 5.10048L2.37234 4.98047C2.34827 5.01047 2.33221 5.05048 2.31616 5.10048Z" fill="#75BE87"/>
<path id="Vector_8" d="M56.2191 18.7402C56.187 18.7702 56.1549 18.7802 56.1309 18.8102C56.179 18.8202 56.2031 18.7802 56.2191 18.7402Z" fill="#75BE87"/>
<path id="Vector_9" d="M5.4017 5.40993L5.4338 4.91992C5.4017 5.11992 5.39367 5.26993 5.4017 5.40993Z" fill="#75BE87"/>
<path id="Vector_10" d="M69.2991 1.19977L69.3392 1.00977C69.3312 1.05977 69.3151 1.11977 69.2991 1.19977Z" fill="#75BE87"/>
<path id="Vector_11" d="M80.4993 3.2793C80.4993 3.4293 80.5153 3.54929 80.5314 3.64929C80.5394 3.64929 80.5394 3.64929 80.5474 3.64929L80.4993 3.2793Z" fill="#75BE87"/>
<path id="Vector_12" d="M107.889 11.0709C107.889 11.0109 107.881 10.9509 107.872 10.8809L107.759 11.2309C107.824 11.1909 107.864 11.1409 107.889 11.0709Z" fill="#75BE87"/>
<path id="Vector_13" d="M87.9581 5.39967C87.9662 5.33967 87.9824 5.28967 87.9824 5.22967C87.8528 5.06967 87.5208 5.02967 87.0916 5.04967L87.0673 5.64967L87.9581 5.39967Z" fill="#75BE87"/>
<path id="Vector_14" d="M96.1052 19.4202L95.3115 18.2102C97.8626 17.6502 99.053 18.8702 101.232 17.8902L101.11 18.1502C101.426 18.4302 101.604 15.7102 105.119 19.0302V19.1502C105.24 19.1302 105.24 18.8902 105.483 19.2102L104.876 18.4702C105.24 18.1702 105.556 17.5902 106.042 17.5102C106.147 17.6402 106.18 17.8902 106.188 18.0902L107.378 17.8902L107.743 18.6702C108.107 18.2502 107.937 16.6002 108.909 17.5202C108.545 16.3802 109.395 16.8302 109.273 16.2502C109.322 16.3902 109.435 16.6002 109.524 16.8002C110.099 16.6702 111.193 16.3502 111.46 15.7602C111.46 15.7602 109.201 13.3502 108.593 12.1302C109.403 12.4402 108.804 11.9902 108.65 11.6102L108.593 11.8902C108.107 11.6102 108.107 10.8902 107.864 10.6902C107.864 10.7502 107.872 10.8202 107.88 10.8902L107.913 10.7902C107.937 10.9202 107.921 11.0102 107.897 11.0802C107.905 11.2302 107.88 11.3602 107.751 11.3102L107.775 11.2302C107.573 11.3402 107.216 11.2202 107.071 11.1702V10.5702C106.706 11.7202 104.641 8.8202 104.155 8.7802C103.669 8.0202 103.062 8.97019 102.454 8.59019C101.483 8.40019 101.969 7.7102 101.483 7.1902C100.875 6.8102 101.604 7.89019 101.361 7.93019L100.632 7.09019C101.053 7.02019 100.827 6.6502 100.746 6.4202C100.114 6.3202 99.1259 5.2102 98.9316 6.4102C98.0812 5.8302 98.0812 5.35019 97.7168 5.29019C97.8383 5.51019 98.0812 5.7102 98.0812 5.9502C97.7411 5.4202 97.9193 6.0802 98.0569 6.2002C97.5386 6.7202 95.3601 4.0102 95.2548 5.3302V5.09019C95.1334 6.07019 95.3277 7.03021 94.9633 7.57021L94.7203 7.1302L94.3559 7.5502C94.113 7.2302 94.2344 6.9702 94.2344 6.8502C93.6432 7.3002 92.8172 6.7602 92.0964 6.6302L92.8577 9.3102C92.2503 8.6902 91.157 7.4302 91.0355 8.3002L90.6711 7.40019C89.4563 5.68019 89.8207 8.1502 89.3348 7.6302L88.7274 6.65019L89.3348 6.6702C88.7274 6.1702 88.4845 5.8502 87.9986 5.21021C87.9986 5.22021 87.9905 5.2302 87.9905 5.2402C88.0229 5.2802 88.0472 5.3302 88.0472 5.3902L87.9662 5.4102C87.8933 5.9002 87.5774 6.2402 87.1482 6.2002C86.5408 6.0602 86.063 6.7902 85.0912 5.7502L84.8482 6.7502L84.1194 6.15019V5.3502C84.832 5.4002 86.1764 5.0902 87.0915 5.0502L87.1077 4.68019C86.5651 4.68019 85.9415 5.04021 85.5852 4.96021C85.407 4.8002 84.9616 3.97019 85.2856 3.43019L84.9454 4.21021C83.1313 4.3002 83.1152 4.34019 81.2201 3.43019L81.3821 3.8302C81.0095 4.0702 80.6289 4.30019 80.5236 3.65019C79.3817 3.52019 78.2074 3.0102 77.4705 2.0002L77.3085 2.9402C77.0656 2.8902 76.7092 1.4602 76.5877 2.7802L76.0775 3.2002C75.7455 3.1302 75.5511 3.6702 75.1705 3.1302C75.1462 3.1002 75.1219 3.0602 75.0976 3.0202C75.0976 3.0502 75.0976 3.0702 75.1057 3.1002C74.3606 2.6802 75.1138 3.94019 74.2635 3.40019C73.9881 2.73019 73.9638 4.6002 73.5427 4.3802L73.1297 3.0302C72.3765 2.2502 72.2469 3.6102 71.1617 3.6102C70.6353 3.1302 70.3843 1.9802 70.7325 0.950195C70.2547 2.1902 70.5138 1.7602 69.8822 2.3502C69.785 1.8402 69.8498 1.7302 69.9955 1.2702C69.4367 0.670203 69.6473 1.7302 69.2262 1.7002C69.1047 2.6602 68.9589 4.1902 68.8213 4.2502L68.9832 4.5502C68.5378 5.0602 68.0438 5.30021 67.5255 4.82021L67.5417 4.34019L66.991 4.5802L66.9586 3.96021L66.1649 4.15019L66.2702 4.32021C66.084 4.40021 65.4766 4.61019 65.1283 4.29019L65.1445 3.9502C64.1565 2.8802 63.3467 4.2802 62.1967 4.3902L62.3505 3.6902C61.9618 2.9902 62.2453 4.7702 61.7755 4.4202L61.7512 3.5602C61.3382 4.6902 61.2167 3.3202 60.9333 2.8902L61.0629 4.0202L60.5284 3.7802C59.9372 3.4102 60.1639 2.3602 60.253 1.7702L59.8481 2.6602L59.7671 1.6702C59.4756 2.8302 59.4756 1.4802 58.9573 2.1002C58.9168 1.7202 59.0463 1.5102 58.8682 1.3502L58.0178 2.7502L58.528 2.1302L58.4632 3.5802C57.9287 4.6802 57.7425 3.4202 57.3618 3.8302L57.621 3.40019C56.9974 3.75019 56.965 3.1302 56.6168 2.8102C56.7221 3.0802 56.8921 3.4802 56.6411 3.6702C56.4548 3.7502 56.5439 3.1602 56.3657 3.0002C56.3252 3.9702 55.8798 4.4802 55.4749 4.0202C55.483 3.8802 55.4911 3.7502 55.5154 3.6602C55.4101 3.8202 55.3615 4.0702 55.1833 3.8302L55.2886 2.7502L54.9404 3.7702C54.7136 3.4802 54.3735 4.2602 54.4059 3.5302L54.5355 3.3102L52.7943 3.0502L52.77 2.1902C52.5999 3.3702 51.8225 1.7402 51.8791 3.2202C51.5471 2.4102 50.5834 3.79019 50.7777 2.12019C49.6359 1.99019 49.0123 3.6002 47.6274 2.7802C47.1334 1.3602 45.7729 1.8202 44.882 1.6702C43.1408 2.2602 42.007 2.7902 40.2254 3.2502C39.1564 1.2702 37.5529 3.9302 36.3948 2.8102L36.0789 3.59019C35.3096 2.34019 34.1434 3.87019 33.0663 2.65019C32.799 2.99019 32.6613 3.1002 32.6047 3.1302C32.6532 3.1702 32.7261 3.3202 32.7504 3.8102C32.4427 3.4602 31.8191 3.90019 31.8677 2.90019L31.9487 2.8002C31.9973 1.8002 31.0173 3.27019 30.6772 2.40019L30.8635 3.4702L30.2804 3.29019L30.4343 3.09019C27.9075 5.46019 26.7656 2.0702 24.3928 4.2402C24.7086 3.0802 23.923 4.8502 23.8906 3.5802C23.2914 1.9802 22.7811 3.9302 22.2871 4.3502C22.2871 4.4102 22.279 4.4902 22.2547 4.5802L21.3963 4.43019C21.9065 2.82019 20.7808 5.76019 21.2505 4.40019C19.0153 3.20019 16.0918 4.42019 13.5002 3.87019L13.6136 4.2802C12.9576 4.2002 12.1397 4.70019 11.6376 4.04019C11.1355 3.38019 10.5443 5.0902 10.3499 5.1602C9.80731 5.8702 9.3052 4.4602 9.54006 4.5302C8.95697 4.7302 8.40627 6.20021 7.59642 5.57021C7.32107 4.21021 5.38552 6.91019 5.36122 5.37019L5.35312 5.5002C4.31651 4.4202 3.33659 6.2602 2.219 5.2802C2.219 5.2802 2.24329 5.1702 2.27569 5.0602L0 9.7202L0.647882 14.8502L2.62392 19.0102L7.96895 18.1102L12.2369 19.7402L22.6192 19.1902L23.3642 18.0302C25.4051 20.0502 28.0209 17.7302 30.2156 19.1702L30.2642 18.1702C30.8797 18.1102 30.8392 18.7302 30.9931 18.9002C36.7592 18.6802 42.6873 17.3502 47.8785 18.6102C48.3806 19.2702 49.9031 18.8802 50.2918 19.5802C51.9763 18.3602 53.758 18.3702 55.4506 18.5002L55.3858 18.6102L56.1795 18.4202C56.2119 18.5002 56.22 18.6202 56.1957 18.7002C57.0946 17.8202 58.5037 18.6902 59.597 19.0502L59.5323 19.1602C65.9301 19.3402 71.8744 17.4802 78.2236 18.8702C81.1715 20.4902 84.6134 18.2502 87.9986 19.6102C88.6464 20.6302 95.4978 19.8902 96.1052 19.4202Z" fill="#75BE87"/>
<path id="Vector_15" d="M106.188 18.0898H106.164C106.164 18.5098 106.205 18.3498 106.188 18.0898Z" fill="#75BE87"/>
<path id="Vector_16" d="M92.0397 6.62102C92.0559 6.62102 92.0721 6.63103 92.0883 6.63103L91.9182 6.04102L92.0397 6.62102Z" fill="#75BE87"/>
<path id="Vector_17" d="M101.102 6.27033C100.697 6.14033 100.673 6.24033 100.729 6.41033C100.883 6.44033 101.013 6.41033 101.102 6.27033Z" fill="#75BE87"/>
<path id="Vector_18" d="M109.516 17.291C109.727 17.321 109.646 17.071 109.524 16.791C109.306 16.841 109.152 16.871 109.152 16.871C109.273 16.971 109.395 17.191 109.516 17.291Z" fill="#75BE87"/>
<path id="Vector_19" d="M108.641 11.59L108.706 11.25C108.585 11.34 108.593 11.46 108.641 11.59Z" fill="#75BE87"/>
</g>
</g>
</g>
</g>
</g>
</svg>
