<svg width="394" height="128" viewBox="0 0 394 128" fill="none" xmlns="http://www.w3.org/2000/svg">
<path d="M1 126.26C-0.26 126.22 0.19 126.64 0 126.72C2.11 126.63 0.95 126.16 1 126.26Z" fill="#75BE87"/>
<path d="M21.84 125.31L21.47 125.48L24.54 125.07L21.84 125.31Z" fill="#75BE87"/>
<path d="M41.33 125.32C39.49 124.61 34.27 125.44 30.8 125.18L30.23 125.02L28.66 125.59C32.88 125.5 38.36 125.12 41.33 125.32Z" fill="#75BE87"/>
<path d="M51.7201 126.87C51.0801 126.59 53.97 126.63 49.3 126.78C49.53 126.82 49.6001 126.83 49.7401 126.85C50.1601 126.84 50.7301 126.85 51.7201 126.87Z" fill="#75BE87"/>
<path d="M49.73 126.85C47.68 126.87 51.08 127.08 49.73 126.85V126.85Z" fill="#75BE87"/>
<path d="M59.21 126.69L56.51 126.94C57.07 127.1 59.48 127.14 58.59 127.26C61.36 127.12 60.79 126.96 59.21 126.69Z" fill="#75BE87"/>
<path d="M61.78 126.17L60.38 126.28C60.62 126.34 60.99 126.37 61.78 126.17Z" fill="#75BE87"/>
<path d="M57.4 126.5L60.37 126.28C59.98 126.16 59.94 125.93 59.01 126.36C59.25 126.14 58.67 126.35 57.4 126.5Z" fill="#75BE87"/>
<path d="M55.72 126.39C54.2 126.23 52.24 126.14 54.96 125.89C49.79 125.98 50.55 126.49 55.72 126.39Z" fill="#75BE87"/>
<path d="M42.32 124.58L40.29 124.37L38.54 124.61C39.42 124.49 42.45 124.81 42.32 124.58Z" fill="#75BE87"/>
<path d="M76.0499 127.06C76.2199 126.91 75.1399 126.66 74.9399 126.46L72.9399 126.63C73.9699 126.74 75.9199 126.83 76.0499 127.06Z" fill="#75BE87"/>
<path d="M74.9399 126.46L77.9299 126.2C75.2599 126.17 74.7699 126.29 74.9399 126.46Z" fill="#75BE87"/>
<path d="M62.26 125.38L57.35 125.92L63.2 125.37L62.26 125.38Z" fill="#75BE87"/>
<path d="M87.46 127.08L85.77 127.43L88.79 126.9L87.46 127.08Z" fill="#75BE87"/>
<path d="M95.03 127.02C93.78 127.31 96.75 127.51 95.42 127.69C97.48 127.64 99.23 127.39 100.81 127.16C99.14 127.29 97.35 127.25 95.03 127.02Z" fill="#75BE87"/>
<path d="M103.47 126.83C102.63 126.9 101.76 127.02 100.82 127.16C101.71 127.09 102.59 127 103.47 126.83Z" fill="#75BE87"/>
<path d="M83.02 126.27C83.25 126.36 83.7 126.6 85.37 126.7L84.2 126.27C83.84 126.28 83.43 126.28 83.02 126.27Z" fill="#75BE87"/>
<path d="M84.15 126.27L84.19 126.28C85.47 126.29 86.35 126.3 86.73 126.3C86.41 126.3 85.63 126.29 84.15 126.27Z" fill="#75BE87"/>
<path d="M82.72 126.27C82.83 126.27 82.91 126.27 83.02 126.27C82.91 126.23 82.84 126.22 82.72 126.27Z" fill="#75BE87"/>
<path d="M70.09 125.76C71.85 125.52 75.5 125.26 71.96 124.9C70.7 125.2 72.73 125.4 70.09 125.76Z" fill="#75BE87"/>
<path d="M81.26 125.74L78.09 125.64C78.15 125.75 78.72 125.92 77.86 126.04L81.26 125.74Z" fill="#75BE87"/>
<path d="M82.82 125.6L81.26 125.74L82.44 125.77L82.82 125.6Z" fill="#75BE87"/>
<path d="M98.04 126.43C99.41 126.24 100.91 126.23 102.6 126.2C100.78 126.12 98.91 126.07 97.13 126.07C96.87 126.21 96.09 126.45 98.04 126.43Z" fill="#75BE87"/>
<path d="M91.29 126.32C91.38 126.31 91.51 126.3 91.59 126.3C91.41 126.25 91.26 126.24 91.29 126.32Z" fill="#75BE87"/>
<path d="M119.28 126.21C119.19 126.18 119.11 126.16 119.01 126.13C118.99 126.15 118.97 126.18 118.95 126.2L119.28 126.21Z" fill="#75BE87"/>
<path d="M96.82 125.99C95.46 125.91 94.64 126.01 93.86 126.14C94.88 126.1 95.96 126.07 97.12 126.07C97.24 126.01 97.26 125.97 96.82 125.99Z" fill="#75BE87"/>
<path d="M108.12 126.63C107.41 126.54 106.6 126.47 105.76 126.4C106.46 126.53 107.87 126.75 108.12 126.63Z" fill="#75BE87"/>
<path d="M92.06 126.41C91.99 126.42 91.93 126.42 91.86 126.43C92.3 126.52 92.24 126.48 92.06 126.41Z" fill="#75BE87"/>
<path d="M92.06 126.41C92.76 126.35 93.31 126.24 93.87 126.15C93.04 126.18 92.27 126.23 91.6 126.29C91.76 126.32 91.93 126.37 92.06 126.41Z" fill="#75BE87"/>
<path d="M124.33 123.46C124.09 123.86 120.5 124.22 117.41 123.8C114.36 124.1 116.36 125.4 119.02 126.13C119.11 125.96 119.11 125.8 122.25 125.56C121.15 125.34 115.29 125.05 117.94 124.7C122.09 124.5 121.34 124.84 123.36 125.05C121.64 124.56 128.64 124.33 127.74 123.61L124.1 123.87C124.02 123.75 125.34 123.57 124.33 123.46Z" fill="#75BE87"/>
<path d="M113.03 126.09L111.74 126.14C113.21 126.21 114.26 126.37 116.2 126.68C118.35 126.49 118.79 126.34 118.94 126.21L112.59 126.15L113.03 126.09Z" fill="#75BE87"/>
<path d="M105.95 126.14C106.96 125.71 110.06 125.53 108.16 125.06C104.37 125.09 105.51 125.42 103.24 125.61C109.35 125.5 101.48 125.85 105.9 126.09C104.7 126.16 103.62 126.19 102.6 126.2C103.7 126.25 104.76 126.32 105.76 126.4C105.7 126.39 105.67 126.38 105.62 126.37H105.59L105.6 126.36C105.34 126.31 105.25 126.27 105.55 126.3C105.57 126.29 105.64 126.29 105.68 126.29C105.71 126.24 105.83 126.19 105.95 126.14C107.72 126.23 106.23 126.25 105.67 126.3C105.65 126.32 105.6 126.34 105.6 126.36L105.62 126.37L111.74 126.13C110.45 126.08 108.83 126.09 105.95 126.14Z" fill="#75BE87"/>
<path d="M75.23 123.98C75.42 124.02 75.41 124.05 75.43 124.08C75.82 124.02 75.97 123.99 75.23 123.98Z" fill="#75BE87"/>
<path d="M77.75 124.24C77.3 124.3 76.93 124.47 75.49 124.43C74.24 124.3 75.5 124.22 75.43 124.08C74.56 124.19 72.38 124.39 75.11 124.6L75.54 124.54C78 124.69 81.17 125.23 80.74 125.28C80.02 124.89 79.39 124.62 77.75 124.24Z" fill="#75BE87"/>
<path d="M92.02 125.08L97.12 124.87L94.52 124.5L94.65 124.72C91.76 124.63 92.38 124.91 92.02 125.08Z" fill="#75BE87"/>
<path d="M119.86 126.42L119.18 126.87L122.13 126.23L119.86 126.42Z" fill="#75BE87"/>
<path d="M126.48 126.37L126.24 126.76L127.99 126.52L126.48 126.37Z" fill="#75BE87"/>
<path d="M353.52 8.39953L352.14 8.01953C352.79 8.20953 353.21 8.32953 353.52 8.39953Z" fill="#75BE87"/>
<path d="M362.78 13.0402L363.1 13.0102C362.63 12.8502 362.42 12.8102 362.78 13.0402Z" fill="#75BE87"/>
<path d="M289.18 126.32C291.36 126.69 293.8 127.26 293.54 126.82L292.87 126.39C291.34 126.46 290.17 126.41 289.18 126.32Z" fill="#75BE87"/>
<path d="M386.5 89.3701C386.38 89.5401 386.24 89.7201 386.11 89.8901C386.01 90.4301 385.93 90.9401 385.85 91.4001C386.04 90.7801 386.26 90.0901 386.5 89.3701Z" fill="#75BE87"/>
<path d="M385.44 87.25C385.91 86.44 386.32 85.6 386.72 84.75C386.42 85.31 386.04 86.13 385.44 87.25Z" fill="#75BE87"/>
<path d="M295.57 5.49023L293.82 5.93023C296.55 5.93023 295.35 5.71023 295.57 5.49023Z" fill="#75BE87"/>
<path d="M194.33 126.21C196.21 126.38 197.71 126.45 199.03 126.47C196.76 126.22 194.93 125.84 194.33 126.21Z" fill="#75BE87"/>
<path d="M359.24 5.83961C358.35 5.48961 357.94 5.40961 357.93 5.51961C358.85 5.83961 359.38 6.02961 359.24 5.83961Z" fill="#75BE87"/>
<path d="M204.47 126.47C204.14 126.44 203.81 126.4 203.47 126.37C202.09 126.44 200.71 126.5 199.03 126.47C200.7 126.65 202.62 126.77 204.47 126.47Z" fill="#75BE87"/>
<path d="M80.77 5.13984C80.61 5.11984 80.43 5.09984 80.28 5.08984C80.24 5.13984 80.45 5.14984 80.77 5.13984Z" fill="#75BE87"/>
<path d="M18.1899 0.760054C18.8099 0.730054 19.8099 0.730055 20.7599 0.730055C20.2999 0.690055 19.5299 0.700054 18.1899 0.760054Z" fill="#75BE87"/>
<path d="M153.14 126.55C151.73 126.58 152.92 126.6 153.14 126.55V126.55Z" fill="#75BE87"/>
<path d="M146.31 124.84C146.61 124.79 146.84 124.73 146.87 124.63C146.75 124.73 146.56 124.8 146.31 124.84Z" fill="#75BE87"/>
<path d="M218.46 123.77C218.5 123.77 218.53 123.77 218.58 123.77C218.17 123.68 218.24 123.7 218.46 123.77Z" fill="#75BE87"/>
<path d="M151.02 126.36C151.55 126.41 152.16 126.46 152.82 126.49C152.53 126.45 151.98 126.41 151.02 126.36Z" fill="#75BE87"/>
<path d="M151.31 126.56C150.83 126.54 150.44 126.53 150.08 126.52C149.9 126.59 150.06 126.64 151.31 126.56Z" fill="#75BE87"/>
<path d="M155.1 126.53C154.3 126.54 153.55 126.52 152.83 126.49C153.11 126.52 153.22 126.54 153.15 126.56C153.55 126.55 154.13 126.54 155.1 126.53Z" fill="#75BE87"/>
<path d="M195.86 3.96969C195.77 3.95969 195.66 3.93969 195.56 3.92969C194.14 4.10969 194.76 4.07969 195.86 3.96969Z" fill="#75BE87"/>
<path d="M325.75 121.82C325.68 121.83 325.65 121.83 325.59 121.84C325.66 121.84 325.74 121.85 325.8 121.86L325.75 121.82Z" fill="#75BE87"/>
<path d="M330.79 121.49C328.64 122.03 327.42 121.96 325.79 121.85L327.46 123.1L330.79 121.49Z" fill="#75BE87"/>
<path d="M328.83 5.16016L332.37 5.55016C328.09 6.19016 325 5.97016 328.32 6.52016C328.56 5.84016 332.03 5.80017 335.44 5.78017C338.69 5.73017 341.91 6.16016 342.24 5.52016C342.97 5.71016 343.69 5.90016 344.39 6.15016C343.77 6.03016 343.66 6.06016 343.04 5.97016C345.11 6.66016 345.93 6.55016 346.93 6.50016C347.43 6.47016 347.98 6.43016 348.74 6.50016C349.5 6.59016 350.47 6.81016 351.79 7.29016C353.61 8.05016 354.81 8.71017 353.51 8.40016C354.22 8.58016 354.89 8.85016 355.59 9.07016C356.29 9.29016 356.97 9.55016 357.65 9.82016C358.79 10.4002 358.4 10.4702 357.27 9.90016L358.78 10.6002L360.26 11.3702C361.26 11.8602 362.2 12.4502 363.16 13.0102L363.1 13.0202C363.57 13.1602 364.28 13.5002 365.01 13.8402C365.74 14.1702 366.47 14.5502 366.93 14.8302C368.18 16.0202 366.16 14.4302 366.41 14.8302C367.47 15.4802 368.53 16.1402 369.54 16.8802C370.46 18.1302 367.93 16.3602 365.9 14.8302C366.87 16.4202 367.53 16.7702 368.58 17.4802C369.11 17.8302 369.77 18.2102 370.56 18.9302C370.96 19.2802 371.41 19.6902 371.9 20.2002C372.37 20.7302 372.9 21.3402 373.47 22.0702C372.61 21.3002 371.79 20.4802 370.89 19.7602C371.97 21.8302 374.08 23.5202 376.09 26.8602C375.89 26.4402 374.95 24.7202 374.26 23.5402C373.6 22.3402 373.34 21.5502 374.8 22.9402C375.49 23.8402 376.41 25.0002 377.94 26.5602C377.57 26.8702 378.94 28.4702 380.4 30.6702L379.76 30.8702C381.38 33.1802 381.57 32.8202 382.61 34.1602C383.36 35.5702 383.62 36.5102 383.74 37.1802C383.86 37.8502 383.81 38.2502 383.75 38.6802C385.63 43.3702 383.11 35.1302 385.57 40.6202C385.88 41.6402 386.21 42.5602 386.51 43.4702C386.79 44.3802 387.11 45.2502 387.41 46.1602C388 47.9802 388.66 49.8902 389.28 52.3802C389.56 55.3602 388.81 51.9302 388.8 53.0202C389.12 53.8502 389.43 54.7002 389.68 55.5602C389.74 56.2102 389.56 56.0202 389.47 55.9202C389.92 58.1102 390.18 56.0202 390.61 59.5402C391.01 59.9902 390.82 61.8402 390.56 64.0802C390.42 65.2002 390.28 66.4202 390.13 67.6302C390.06 68.2302 390.03 68.8402 390.01 69.4302C389.97 70.0202 389.96 70.6002 390 71.1502C389.69 72.1902 389.67 70.5902 389.39 70.8802C389.37 72.3702 389.24 73.4302 389.18 74.2702C389.13 75.1102 389.04 75.7102 388.97 76.2802C388.91 76.8602 388.86 77.4002 388.79 78.1102C388.7 78.8202 388.6 79.6902 388.45 80.9302C387.88 82.2302 387.37 83.5402 386.72 84.7902C387.48 83.4302 387.66 83.7002 387.54 84.7702C387.48 85.3002 387.36 86.0402 387.17 86.8502C386.95 87.6502 386.72 88.5402 386.48 89.4002C387.13 88.4602 387.69 87.6602 388.04 87.1002L387.09 89.7902L386.01 92.4402C385.59 93.0002 385.68 92.4002 385.84 91.4402C385.72 91.8102 385.61 92.1702 385.52 92.4402C384.34 94.1102 384.54 93.0102 384.87 91.5802C385.29 91.0202 385.7 90.4702 386.1 89.9302C386.34 88.5102 386.41 87.1502 385.96 87.2702C385.89 87.6302 385.68 88.2902 385.41 89.0102C385.45 88.6402 385.46 88.3902 385.33 88.5202C385.2 88.6702 385.09 89.2502 384.84 90.1302L383.66 90.9402L383.78 91.3402C382.53 93.3902 381.24 95.4002 379.76 97.2702C378.65 99.5902 377.53 101.77 375.96 104.14C374.4 106.51 372.36 109.07 369.18 111.8C370.44 110.07 368.98 110.86 368.68 110.3C370.86 109.41 373.31 105.95 376.11 102.84C374.59 104.44 374.7 103.88 374.99 103.4C373.51 105.42 371.83 107.29 370.08 109.1C369.98 108.85 369.61 109.04 369.06 109.42C368.52 109.81 367.79 110.39 366.94 110.88C367.82 110.81 366.85 111.85 365.25 113.02C364.85 113.31 364.42 113.62 363.98 113.94C363.52 114.23 363.06 114.53 362.61 114.83C361.72 115.44 360.82 115.94 360.18 116.38C360.02 116.28 360.06 116.06 360.55 115.66C361.05 115.27 361.98 114.65 363.58 113.7C362.6 114.07 361.88 114.5 361.26 114.94C360.63 115.36 360.13 115.8 359.62 116.26C359.12 116.73 358.58 117.13 357.94 117.53C357.62 117.73 357.27 117.92 356.87 118.1C356.47 118.26 356.02 118.4 355.52 118.52C356.36 118.15 356.85 118.02 357.1 117.7C356.18 118.26 354.5 119.04 353.12 119.43C351.77 119.88 350.77 120.02 351.31 119.71C351.6 119.63 351.88 119.52 352.17 119.41C349.3 120.36 344.83 121.48 340.89 122C339.9 122.12 338.96 122.24 338.09 122.34C337.21 122.41 336.41 122.49 335.72 122.57C334.32 122.73 333.33 122.87 333.1 123.09C333.04 122.98 333.92 122.06 334.3 121.89L323.17 124.75C324.15 124.02 320.39 122.28 325.56 121.87C324.07 121.77 322.24 121.64 319.1 121.9C320.11 122 321.63 122.96 320.24 123.02C316.44 122.21 317.6 122.58 312.92 121.89C314.44 122.05 312.75 123.19 310.35 123.16C310.72 122.99 310.15 122.03 311.03 121.91L305.05 123.03C306.54 122.83 305.31 122.08 303.98 121.76C304.6 121.98 298.81 121.74 297.22 121.85L299.75 122.11C293 121.94 293.09 123.69 286.39 123.63C287.2 123.4 288.39 122.2 284.99 122.06C283.43 122.64 278.08 124.83 272.16 125.27L271.02 124.94L266.48 125.32C269.31 124.45 277.25 122.63 281.58 121.92C279.06 121.66 280.88 121.53 277.1 121.56C275.76 121.25 279.16 121.09 280.27 121.07L271.47 120.87C271.86 121.54 264.74 121.54 265.07 122.1L274.63 121.4C275.02 122.07 269.1 123.31 262.86 123.19C261.27 122.92 264.05 121.99 263.92 121.77C263.11 122 258 122.21 257.43 122.05L260.08 121.69C256.61 121.44 254.41 122.58 250.24 121.94C248.8 121.9 245.94 121.07 245.69 121.47C248.04 122.24 248.5 124.61 246.93 125.19C246.43 125.14 239.37 124.46 237.72 124.08C235.35 123.48 241.28 122.65 239.26 122.13C239.17 122.31 237.86 122.54 237.32 122.61C235.81 122.45 237.95 122.04 234.66 122.12C234.11 122.8 227.98 122.06 233.11 122.7C229.9 122.89 229.69 122.56 225.92 122.59C227.12 123.03 222.53 124.09 219.31 124.28C219.5 124.11 218.78 123.88 218.43 123.78C211.84 123.72 208.3 123.41 202.16 123.4C201.59 123.24 198.63 123.04 199.89 122.74C199.01 122.86 198.19 123.09 196.3 123.11C192.63 122.52 200.53 123.02 197.73 122.31C197.49 122.71 192.83 122.86 190.13 123.1C190.96 123.71 196.37 123.22 199.07 122.97C199.08 123.81 194.38 124.7 187.95 125.09C182.85 125.3 185.74 124.54 184.85 124.66C175.26 124.51 176.68 126.13 168.72 125.52C165.56 124.98 168.58 124.45 167.88 124.06C172.04 123.86 174.26 124.4 177.08 124.38L173.61 124.13C174.93 123.95 177.71 123.82 179.22 123.97C176.57 123.49 163.02 123.88 155.62 123.43C154.31 123.61 152.04 123.8 153.11 124.01L155.45 123.93C157.6 124.36 151.05 124.53 154.01 124.73C150.87 125.03 147.35 125.51 142.93 125.27L142.1 124.66C142.19 124.84 144.99 125.03 146.23 124.84C144.39 125.11 139.45 124.01 137.43 124.81L140.53 125.23C137.38 125.54 133.48 126.19 129.56 126C131.34 126.61 130.46 125.93 133.25 126.64C130.84 125.76 143.27 126.68 139.39 125.75C142.25 126.57 144.33 126.1 148.07 126.8C147.95 126.6 146.75 126.41 150.04 126.51C150.19 126.45 150.54 126.38 150.76 126.33C150.86 126.34 150.9 126.34 150.98 126.35C150.91 126.34 150.87 126.33 150.8 126.33C150.94 126.3 150.96 126.29 150.73 126.32C149.95 126.23 149.31 126.13 149.05 126.01C150.68 125.55 155.91 125.56 157.68 125.32C159.63 125.42 156.86 125.55 157.93 125.77L160.57 125.41C160.83 125.86 165.75 126.16 161.16 126.42L165.3 126.44C167.74 126.69 171.09 126.79 173.15 126.6C175.1 126.7 178.08 126.1 176.38 126.45L182.87 126.17L182.93 126.28C189.33 126.34 196.11 125.54 203.43 126.35C205.59 126.24 207.81 126.1 211.42 126.23L212.12 126.62C214.89 126.48 220.43 127.01 221.62 126.6C224.61 127.65 235.05 126.83 239.92 127.01L240.1 126.5C243.45 126.53 246.66 126.38 250.82 126.18L250.56 125.73C254.15 125.36 259.78 126.05 265.45 126C265.06 126.17 263.63 126.13 262.61 126.02C269.38 127.03 276.9 125.28 283.05 126.02C284.58 125.86 285.69 125.91 286.76 126.03C286.62 126.03 286.49 126.04 286.38 126.05C286.54 126.05 286.77 126.05 287.01 126.06C287.69 126.14 288.38 126.21 289.14 126.3C288.5 126.19 287.88 126.1 287.35 126.06C288.53 126.05 290.32 125.99 292.08 125.88L292.83 126.36C292.97 126.36 293.09 126.35 293.24 126.35C294.96 126.53 294.62 126.12 293.71 125.76C294.59 125.68 295.4 125.59 296.03 125.47C297.43 126.25 300.64 125.21 302.55 126.04C303.73 125.64 311.38 125.74 312.31 124.89C312.37 125 312.89 125.05 311.94 125.06C313.9 125.16 315.85 125.25 317.61 125.01L318.44 125.62L322.71 124.8C325.31 125.17 326.38 125.39 323.8 125.86C330.02 125.14 328.85 125.59 334.14 124.87L333.88 125.27C335.77 125.28 338.87 124.63 340.04 124.82C342.21 125.01 347.65 124.42 353.56 122.34C359.52 120.38 365.69 116.76 370.31 113.54C369.08 113.73 370.22 113.08 371.55 112.14C372.93 111.25 374.46 110 374.32 109.54C374.99 109.31 376.19 108.27 375.08 109.75C377.02 107.62 378.56 106.1 379.82 104.62C381.1 103.16 382.12 101.76 382.92 99.9102C383.52 99.5202 382.57 101.16 383.03 100.77C383.24 100.35 383.85 99.1102 384.32 98.7002C384.78 98.3002 384.05 99.5302 383.63 100.36C386.85 95.3702 386.19 94.3302 385.73 93.6102C387.43 91.2002 387.98 89.8002 388.31 87.6602C388.64 87.2502 388.99 86.6502 389.13 86.6002C389.26 86.5402 389.22 87.0302 388.55 88.7002C388.99 87.7802 390.22 84.9302 391.05 82.1702C391.46 80.7902 391.79 79.4502 391.99 78.4302C392.15 77.4102 392.2 76.7202 392.06 76.6302C392.39 76.0502 392.62 73.8602 392.64 73.3202C392.85 72.2102 392.92 71.3302 393.03 70.6002C393.14 69.8602 393.21 69.2502 393.25 68.6402C393.36 67.4202 393.45 66.2102 393.45 63.9802L393.32 65.2102C392.94 64.3202 392.97 63.4102 392.96 62.2602C392.98 61.1202 393.08 59.7302 392.88 57.9602L392.97 58.0602C392.89 53.9502 392.6 53.0802 392.41 52.2302C392.2 51.3802 392.09 50.5402 391.4 46.5202L391.05 47.0702C390.45 46.8302 390.18 45.0802 389.68 42.8502C389.46 41.7202 389.1 40.5102 388.75 39.2802C388.32 38.0802 387.88 36.8702 387.27 35.8502C387.44 36.3902 387.58 36.9502 387.71 37.5102C387.39 36.9502 387.11 36.2402 386.85 35.4402C386.59 34.6402 386.39 33.7402 386.13 32.8602C385.67 31.0702 385.11 29.2602 384.48 28.1002C384.26 27.5602 385.07 28.8002 385.54 29.4502C384.8 27.8802 384.3 27.1002 384 26.7102C383.7 26.3202 383.58 26.3302 383.48 26.4002C383.25 26.5502 383.15 26.8702 381.58 24.8702C381.28 23.9102 383.03 25.3302 380.97 22.5302C380.75 22.1502 380.19 21.5102 379.43 20.7102C378.62 19.9502 377.67 18.9902 376.56 18.0502C374.41 16.1002 371.84 14.1402 370.18 12.4402C370.52 12.8502 370.84 13.2802 370.82 13.4402C370.81 13.6002 370.49 13.4502 369.49 12.8202C368.75 12.2902 367.95 11.6002 367.04 10.9102C366.59 10.5602 366.13 10.1902 365.66 9.82016C365.17 9.47016 364.68 9.12016 364.19 8.77016C362.21 7.37016 360.08 6.25016 358.43 5.94017C358.05 5.67017 357.91 5.55016 357.92 5.48016C357.26 5.25016 356.4 4.94016 355.45 4.61016C354.49 4.32016 353.45 3.98017 352.43 3.71017C351.4 3.47017 350.41 3.21016 349.56 3.07016C348.7 2.94016 348 2.86017 347.58 2.87017C347.06 2.29017 345.71 1.90016 344.01 1.56016C343.15 1.43016 342.2 1.32016 341.22 1.23016C340.24 1.20016 339.22 1.17016 338.22 1.13016C337.23 1.16016 336.25 1.18016 335.35 1.20016C334.47 1.23016 333.67 1.26016 332.99 1.26016C331.63 1.25016 330.75 1.12016 330.76 0.740164L322.49 0.820164L322.71 0.660164C317.42 0.560164 315.55 0.930164 313.7 1.29016C312.48 1.19016 313.37 1.04016 313.47 0.960164C305.75 0.650164 304.98 0.720164 298.5 1.48016L297.83 0.980164C296.07 1.27016 286.66 0.200163 279.09 0.780163C279.16 0.720163 279.32 0.630164 279.92 0.560164C271.4 1.14016 259.51 -0.819836 256.39 0.990164L250.76 1.43016C258.04 1.57016 249.68 2.21016 252.67 2.51016C249.81 2.62016 245.27 1.97016 248.79 1.87016L249.34 1.96016C250.63 1.02016 240.3 1.63016 240.49 0.990164C226.17 1.04016 212.21 0.520164 198.8 0.480164L200.35 1.21016L195.67 1.17016C194.44 1.00016 194.02 0.600164 197.36 0.630164C195.6 0.220164 191.76 0.980164 191.67 1.14016C185.13 0.840164 194.22 0.290163 192.22 0.270163L189.5 0.320164L190.11 0.410164C187.9 0.710164 187.71 1.03016 183.7 0.990164C181.16 0.840164 182.4 0.540163 181.4 0.510163C181.41 0.460163 181.07 0.430164 179.87 0.490164L173.97 0.430163L176.33 1.01016C173.72 1.29016 170.79 0.980164 173.51 1.63016C169.52 0.620164 151.52 1.27016 149.07 0.950163C145.41 1.37016 141.8 1.36016 137.32 1.31016C138.43 1.43016 139.1 2.08016 135.24 2.00016C136.65 0.660164 128.17 1.42016 125.05 0.450163C127.84 1.09016 114.08 0.610163 118.45 1.52016C115.23 1.41016 118.25 1.02016 115.81 0.700163C108.14 1.22016 98.92 0.360164 89.44 0.540164C89.29 0.720164 90.88 0.980165 88.85 1.25016L83.85 0.370163C81.9799 0.460163 82.13 1.39016 78.71 0.770163C79.19 0.920163 79.91 1.14016 78.66 1.20016C60.1 0.340163 40.73 1.90016 21.88 0.290164C24.43 0.630164 22.73 0.660163 20.78 0.680163C22.05 0.760163 20.75 1.11016 21 1.35016L13.11 0.690163C11.67 1.35016 4.64996 0.730163 3.82996 1.37016L6.32996 1.26016C3.00996 2.01016 10.98 2.92016 10.49 3.88016C14.21 3.03016 20.3 5.14016 26.41 3.92016C27.76 4.12016 25.26 4.23016 25.98 4.45016C27.53 4.04016 29.4 3.95016 32.86 4.14016L32.47 4.24016C42.2 4.14016 46.37 4.54016 57.3 4.81016L56.47 4.38016C58.82 4.44016 59.31 4.59017 60.41 4.71017C63.11 3.99017 53.81 4.67016 56.27 3.88016C59.39 4.84016 72.83 3.89016 74.94 4.99016C78.55 5.00016 73.88 4.44016 77.49 4.45016L78.45 4.75016L79.36 4.37017C81.73 4.43017 82.92 4.80016 83.01 5.05016C82.44 5.02016 81.38 5.12016 80.76 5.14016C83.83 5.49016 89.42 5.02016 90.48 5.13016L87.01 4.95016C96.87 4.67016 108.91 5.06017 118.44 4.46017L117.72 4.24016C125 3.83016 123.55 4.49016 131.54 4.29016L131.25 4.34016C132.85 4.12016 134.98 4.01017 137.17 4.03017C135.15 4.29016 140.97 4.54016 138.32 4.83016C146.21 4.39016 142.22 4.48016 147.43 3.65016L148.63 4.02016C150.41 3.68016 150.55 3.51016 154.54 3.41016C151.27 3.73016 157.09 3.98016 153.42 4.40016C161.79 5.21016 165.85 3.58016 169.69 4.77016C173.53 3.74016 162.45 4.20016 164.6 3.98016C162.8 3.64016 167.77 3.21016 170.4 3.32016C173.07 3.34016 174.95 4.63016 181.67 4.61016C181 4.61016 180.96 4.68016 180.29 4.68016C182.81 4.94016 185.22 4.33016 188.31 4.75016C190.04 4.13016 192.32 4.79016 192.82 3.99016L186.65 4.17016C190.15 3.96016 193.43 3.04016 199.19 3.49016C198.74 3.65016 197.03 3.86016 195.85 3.98016C197.54 4.21016 199.1 3.83016 200.84 4.06016C200.34 4.85016 193.34 4.23016 189.59 4.84016C191.4 5.17016 196.68 4.27017 194.8 5.12017C197.51 4.03017 201.43 5.26016 205.98 4.42016L205.68 4.89016C206.4 4.82016 207.89 4.59016 209.22 4.60016L206.82 5.22016C210.51 4.70016 213.93 5.68016 217.47 5.39016C210.06 5.40016 215.81 4.82016 212.68 4.47016C221.82 3.83016 217.93 5.71016 228.16 5.48016C226.78 5.55016 222.96 5.19016 225.13 4.98016C227.08 5.08016 229.65 5.26016 230.84 5.51016C237.62 5.41016 229.8 5.02016 232.68 4.73016C234.99 5.31016 236.01 4.49016 238.98 4.31016L239 4.79016C246.72 5.10016 241.05 3.78016 248 4.16016L245.06 4.83016L248.68 4.66016L247.93 5.21017C251.87 4.80017 253.1 4.91016 256.96 5.06016C256.06 4.72016 257.46 4.18016 260.89 4.17016C263.22 4.46016 259.58 4.63016 264.43 4.56016C263.34 4.86016 262.14 5.24016 260.03 4.80016C259.81 4.96016 258.95 5.10016 258.73 5.26016C261.24 5.59016 265.04 5.34016 266.8 5.33016C266.12 5.31016 265.32 5.29016 264.9 5.22016L271.93 4.55016C273.04 4.73016 272.16 4.88016 271.29 5.02016C272.71 4.97016 273.7 4.75016 275.79 4.70016C275.25 5.09016 275.38 5.50016 272.41 5.68016L279.11 5.24016C279.56 5.41016 282.55 5.71017 281.68 5.85016C285.39 6.08016 290.79 5.09016 295.71 5.39016C295.97 5.31016 296.48 5.24016 297.53 5.18016C302.16 5.27016 306.25 5.75017 311.74 5.21017L314.85 5.91016C319.14 5.75016 310.64 5.02016 317.79 4.76016C322.85 4.54016 319.68 5.36016 321.46 5.56016C323.98 5.21016 328.35 4.48016 333 5.06016C331.47 5.21016 330.27 5.11016 328.83 5.16016ZM374.73 22.8402C374.02 22.1402 372.4 20.9902 372.1 20.2702C373.27 20.6902 373.75 21.4702 374.73 22.8402ZM382.06 95.7502C382.31 95.0202 382.99 94.0902 383.76 93.0102C383.36 93.8802 382.79 94.8002 382.06 95.7502ZM168.54 126.16C168.58 126.15 168.61 126.14 168.65 126.14C170.94 126.33 170.12 126.25 168.54 126.16ZM163.78 125.95C163.3 126.02 163.34 126.08 163.54 126.15C163.87 126.03 164.94 126.02 166.15 126.05C165.82 125.93 165.2 125.84 163.78 125.95ZM180.85 0.730164L181.78 0.860163C179.69 0.990163 180.27 0.870164 180.85 0.730164Z" fill="#75BE87"/>
<path d="M385.56 87.5203C385.75 87.2903 385.86 87.2503 385.97 87.2303C386.05 86.8303 385.96 86.7903 385.56 87.5203Z" fill="#75BE87"/>
<path d="M295.89 5.41039L295.73 5.40039C295.64 5.43039 295.59 5.46039 295.57 5.49039L295.89 5.41039Z" fill="#75BE87"/>
<path d="M237.42 121.86C238.4 121.93 238.94 122.02 239.31 122.11C239.36 121.99 238.91 121.89 237.42 121.86Z" fill="#75BE87"/>
<path d="M138.6 126.77L141.65 126.64C140.18 126.66 139.65 126.56 138.91 126.48C138.97 126.6 139.55 126.76 138.6 126.77Z" fill="#75BE87"/>
<path d="M112.17 123.79C111.73 123.85 111.23 123.8 110.79 123.86L110.91 124.08C112.8 124.06 114.13 123.88 112.17 123.79Z" fill="#75BE87"/>
<path d="M135.78 125.17C135.54 124.76 133.63 124.9 131.5 124.98C131.63 124.98 131.75 124.98 131.88 124.98C131.24 125.54 133.51 125.36 135.78 125.17Z" fill="#75BE87"/>
<path d="M131 124.99C130.34 125.01 129.67 125.02 129.03 125C128.78 125.23 129.83 125.05 131 124.99Z" fill="#75BE87"/>
<path d="M157.76 126.22C156.75 126.12 157.13 126.74 156.55 126.57C155.42 127.09 163.29 125.95 157.76 126.22Z" fill="#75BE87"/>
<path d="M134.05 123.83L134.81 124.33L136.01 123.93L134.05 123.83Z" fill="#75BE87"/>
<path d="M150.89 124.2L147.48 124.06C147.53 124.14 147.1 124.19 146.57 124.23C148.67 124.25 150.97 124.35 150.89 124.2Z" fill="#75BE87"/>
<path d="M146.57 124.23C145.48 124.22 144.44 124.23 143.83 124.31C144.42 124.31 145.69 124.29 146.57 124.23Z" fill="#75BE87"/>
<path d="M138.71 123.68L139.72 123.79L142.12 123.82L138.71 123.68Z" fill="#75BE87"/>
<path d="M187.53 124.3L191.25 124.16C191.63 123.99 190.62 123.88 189.23 123.95C188.34 124.06 186.96 124.13 187.53 124.3Z" fill="#75BE87"/>
<path d="M176.28 122.92C177.29 123.02 177.35 123.14 177.92 123.3L178.03 122.68L176.28 122.92Z" fill="#75BE87"/>
<path d="M187.12 122.78C187.49 122.61 192.52 122.29 187.8 122.32C187.43 122.5 183.71 122.64 187.12 122.78Z" fill="#75BE87"/>
<path d="M243.17 123.57H242.22L242.36 124.59L243.17 123.57Z" fill="#75BE87"/>
<path d="M292.56 121.13C288.15 120.89 291.51 121.76 287.53 121.45C286.5 121.69 290.79 121.7 289.72 121.91C292.39 121.66 293.79 121.8 292.56 121.13Z" fill="#75BE87"/>
<path d="M289.73 121.91C289.3 121.95 288.85 122 288.37 122.06C289.14 122 289.5 121.95 289.73 121.91Z" fill="#75BE87"/>
<path d="M7.80998 0.209999L4.97998 0L6.80998 0.339998L7.80998 0.209999Z" fill="#75BE87"/>
<path d="M2.37 0.970312L1.7 0.320312L0 0.900312C0.64 0.880312 1.88 0.820312 2.37 0.970312Z" fill="#75BE87"/>
<path d="M378.34 29.5399L378.58 29.6199C378.5 29.1699 378.15 28.6499 377.41 27.6299C377.73 28.2599 378.07 28.8799 378.34 29.5399Z" fill="#75BE87"/>
<path d="M350.11 7.91019L350.7 8.1002L349.75 7.2002L350.11 7.91019Z" fill="#75BE87"/>
<path d="M318.96 6.41965C320.28 6.43965 321.82 6.30965 323.15 6.33965C320.28 6.43965 318.61 5.68965 318.96 6.41965Z" fill="#75BE87"/>
</svg>
