<svg width="36" height="36" viewBox="0 0 36 36" fill="none" xmlns="http://www.w3.org/2000/svg">
<rect width="36" height="36" rx="8" fill="#F6F8FA"/>
<path d="M21.4087 9.66675C24.3503 9.66675 26.3337 11.5592 26.3337 14.3834V21.6084C26.3337 24.4334 24.3503 26.3334 21.4087 26.3334H14.6003C11.6503 26.3334 9.66699 24.4334 9.66699 21.6084V14.3834C9.66699 11.5592 11.6503 9.66675 14.6003 9.66675H21.4087ZM18.1753 14.4334C17.9337 14.1917 17.5337 14.1917 17.292 14.4334L14.1503 17.5584C13.917 17.7917 13.917 18.2084 14.1503 18.4417L17.292 21.5667C17.5337 21.8084 17.9337 21.8084 18.1753 21.5667C18.417 21.3167 18.417 20.9251 18.1753 20.6751L16.1087 18.6251H21.4003C21.7503 18.6251 22.0253 18.3417 22.0253 18.0001C22.0253 17.6501 21.7503 17.3751 21.4003 17.3751H16.1087L18.1753 15.3167C18.292 15.2001 18.3587 15.0334 18.3587 14.8751C18.3587 14.7176 18.292 14.5584 18.1753 14.4334Z" fill="#3679FD"/>
<path d="M18.1753 14.4334C17.9337 14.1917 17.5337 14.1917 17.292 14.4334L14.1503 17.5584C13.917 17.7917 13.917 18.2084 14.1503 18.4417L17.292 21.5667C17.5337 21.8084 17.9337 21.8084 18.1753 21.5667C18.417 21.3167 18.417 20.9251 18.1753 20.6751L16.1087 18.6251H21.4003C21.7503 18.6251 22.0253 18.3417 22.0253 18.0001C22.0253 17.6501 21.7503 17.3751 21.4003 17.3751H16.1087L18.1753 15.3167C18.292 15.2001 18.3587 15.0334 18.3587 14.8751C18.3587 14.7176 18.292 14.5584 18.1753 14.4334Z" fill="#3679FD"/>
<path d="M18 14.9998V21.0001" stroke="white" stroke-width="1.5" stroke-linecap="round" stroke-linejoin="round"/>
<path d="M15 18H21.0003" stroke="white" stroke-width="1.5" stroke-linecap="round" stroke-linejoin="round"/>
</svg>
