<svg width="36" height="36" viewBox="0 0 36 36" fill="none" xmlns="http://www.w3.org/2000/svg">
<rect width="36" height="36" rx="8" fill="#F6F8FA"/>
<path d="M21.617 9.6665C24.442 9.6665 26.3337 11.6498 26.3337 14.5998V21.409C26.3337 24.3498 24.442 26.3332 21.617 26.3332H14.392C11.567 26.3332 9.66699 24.3498 9.66699 21.409V14.5998C9.66699 11.6498 11.567 9.6665 14.392 9.6665H21.617ZM21.4837 15.4998C21.2003 15.2165 20.7337 15.2165 20.4503 15.4998L17.0087 18.9415L15.5503 17.4832C15.267 17.1998 14.8003 17.1998 14.517 17.4832C14.2337 17.7665 14.2337 18.2248 14.517 18.5165L16.5003 20.4915C16.642 20.6332 16.8253 20.6998 17.0087 20.6998C17.2003 20.6998 17.3837 20.6332 17.5253 20.4915L21.4837 16.5332C21.767 16.2498 21.767 15.7915 21.4837 15.4998Z" fill="#6DC26C"/>
</svg>
