<svg width="24" height="24" viewBox="0 0 24 24" fill="none" xmlns="http://www.w3.org/2000/svg">
<path d="M9.83959 17.08C9.70826 17.0801 9.57819 17.0543 9.45686 17.004C9.33553 16.9537 9.22533 16.88 9.13259 16.787L5.29259 12.947C5.19708 12.8547 5.1209 12.7444 5.06849 12.6224C5.01608 12.5004 4.9885 12.3691 4.98734 12.2364C4.98619 12.1036 5.01149 11.9719 5.06177 11.849C5.11205 11.7261 5.18631 11.6145 5.2802 11.5206C5.37409 11.4267 5.48574 11.3524 5.60864 11.3021C5.73154 11.2519 5.86321 11.2266 5.99599 11.2277C6.12877 11.2289 6.25999 11.2565 6.382 11.3089C6.504 11.3613 6.61435 11.4375 6.70659 11.533L9.83959 14.666L17.2926 7.21296C17.4812 7.0308 17.7338 6.93001 17.996 6.93229C18.2582 6.93457 18.509 7.03974 18.6944 7.22514C18.8798 7.41055 18.985 7.66136 18.9873 7.92356C18.9895 8.18576 18.8888 8.43836 18.7066 8.62696L10.5466 16.787C10.4539 16.88 10.3437 16.9537 10.2223 17.004C10.101 17.0543 9.97093 17.0801 9.83959 17.08Z" fill="#3679FD"/>
</svg>
