<svg width="18" height="18" viewBox="0 0 18 18" fill="none" xmlns="http://www.w3.org/2000/svg">
<path d="M5.59183 17.333C2.65016 17.333 0.66683 15.4405 0.66683 12.6163L0.666831 5.39134C0.666831 2.56634 2.65016 0.66634 5.59183 0.666341L12.4002 0.666341C15.3502 0.666342 17.3335 2.56634 17.3335 5.39134L17.3335 12.6163C17.3335 15.4405 15.3502 17.333 12.4002 17.333L5.59183 17.333ZM8.82516 12.5663C9.06683 12.808 9.46683 12.808 9.7085 12.5663L12.8502 9.44134C13.0835 9.20801 13.0835 8.79134 12.8502 8.55801L9.7085 5.43301C9.46683 5.19134 9.06683 5.19134 8.82516 5.43301C8.5835 5.68301 8.5835 6.07467 8.82516 6.32467L10.8918 8.37467L5.60016 8.37467C5.25016 8.37467 4.97516 8.65801 4.97516 8.99967C4.97516 9.34967 5.25016 9.62467 5.60016 9.62467L10.8918 9.62467L8.82516 11.683C8.7085 11.7997 8.64183 11.9663 8.64183 12.1247C8.64183 12.2822 8.7085 12.4413 8.82516 12.5663Z" fill="white"/>
</svg>
