<svg width="18" height="18" viewBox="0 0 18 18" fill="none" xmlns="http://www.w3.org/2000/svg">
<path d="M15 4.5H12V3C12 2.60218 11.842 2.22064 11.5607 1.93934C11.2794 1.65804 10.8978 1.5 10.5 1.5H7.5C6.6675 1.5 6 2.1675 6 3V4.5H3C2.1675 4.5 1.5 5.1675 1.5 6V14.25C1.5 14.6478 1.65804 15.0294 1.93934 15.3107C2.22064 15.592 2.60218 15.75 3 15.75H15C15.3978 15.75 15.7794 15.592 16.0607 15.3107C16.342 15.0294 16.5 14.6478 16.5 14.25V6C16.5 5.60218 16.342 5.22064 16.0607 4.93934C15.7794 4.65804 15.3978 4.5 15 4.5ZM7.5 3H10.5V4.5H7.5V3ZM9 6.75C9.49728 6.75 9.97419 6.94754 10.3258 7.29918C10.6775 7.65081 10.875 8.12772 10.875 8.625C10.875 9.12228 10.6775 9.5992 10.3258 9.95083C9.97419 10.3025 9.49728 10.5 9 10.5C8.50272 10.5 8.0258 10.3025 7.67417 9.95083C7.32254 9.5992 7.125 9.12228 7.125 8.625C7.125 8.12772 7.32254 7.65081 7.67417 7.29918C8.0258 6.94754 8.50272 6.75 9 6.75ZM12.75 14.25H5.25V13.3125C5.25 12.2775 6.93 11.4375 9 11.4375C11.07 11.4375 12.75 12.2775 12.75 13.3125V14.25Z" fill="#3679FD"/>
</svg>
