<svg width="20" height="20" viewBox="0 0 20 20" fill="none" xmlns="http://www.w3.org/2000/svg">
<path d="M15.8988 4.81091C16.2378 4.42591 16.8144 4.39477 17.1909 4.73816C17.5725 5.08616 17.6059 5.68791 17.2624 6.07797L8.35925 16.1891C8.18972 16.3816 7.95187 16.4927 7.70237 16.4996C7.4529 16.5066 7.20974 16.4089 7.03044 16.2265L2.77236 11.8931C2.40921 11.5236 2.40921 10.9208 2.77236 10.5513C3.13071 10.1866 3.70802 10.1866 4.06637 10.5513L7.26431 13.8057C7.36164 13.9048 7.64453 14.1602 7.64453 14.1602C7.64453 14.1602 7.90442 13.8899 7.9962 13.7857L15.8988 4.81091Z" fill="#71BA6E"/>
</svg>
