<svg width="32" height="32" viewBox="0 0 32 32" fill="none" xmlns="http://www.w3.org/2000/svg">
<path d="M16 0L20.2861 5.65255L27.3137 4.68629L26.3475 11.7139L32 16L26.3475 20.2861L27.3137 27.3137L20.2861 26.3475L16 32L11.7139 26.3475L4.68629 27.3137L5.65255 20.2861L0 16L5.65255 11.7139L4.68629 4.68629L11.7139 5.65255L16 0Z" fill="#3679FD"/>
<path d="M14.2715 20.0645C14.1664 20.0646 14.0624 20.0439 13.9653 20.0037C13.8682 19.9635 13.7801 19.9045 13.7059 19.8301L10.6339 16.7581C10.5575 16.6843 10.4965 16.596 10.4546 16.4984C10.4127 16.4008 10.3906 16.2958 10.3897 16.1896C10.3888 16.0834 10.409 15.978 10.4492 15.8797C10.4894 15.7814 10.5488 15.6921 10.624 15.6169C10.6991 15.5418 10.7884 15.4824 10.8867 15.4422C10.985 15.402 11.0904 15.3817 11.1966 15.3827C11.3028 15.3836 11.4078 15.4057 11.5054 15.4476C11.603 15.4895 11.6913 15.5505 11.7651 15.6269L14.2715 18.1333L20.2339 12.1709C20.3848 12.0251 20.5868 11.9445 20.7966 11.9463C21.0064 11.9481 21.207 12.0323 21.3553 12.1806C21.5037 12.3289 21.5878 12.5296 21.5896 12.7393C21.5914 12.9491 21.5108 13.1512 21.3651 13.3021L14.8371 19.8301C14.7629 19.9045 14.6747 19.9635 14.5777 20.0037C14.4806 20.0439 14.3765 20.0646 14.2715 20.0645Z" fill="white"/>
</svg>
