<svg width="78" height="78" viewBox="0 0 78 78" fill="none" xmlns="http://www.w3.org/2000/svg">
<rect opacity="0.1" width="78" height="78" rx="24" fill="#F63B3B"/>
<path d="M49.4155 14.9966C57.5518 14.9966 63 20.7088 63 29.2052V48.8164C63 57.2887 57.5518 62.9986 49.4155 62.9986H28.6066C20.4703 62.9986 14.998 57.2887 14.998 48.8164V29.2052C14.998 20.7088 20.4703 14.9966 28.6066 14.9966H49.4155ZM46.2233 31.7277C45.4073 30.9093 44.0872 30.9093 43.2472 31.7277L38.999 35.9975L34.7269 31.7277C33.8868 30.9093 32.5668 30.9093 31.7507 31.7277C30.9347 32.5437 30.9347 33.8878 31.7507 34.7014L36.0229 38.976L31.7507 43.2242C30.9347 44.0642 30.9347 45.3843 31.7507 46.1979C32.1587 46.6059 32.7108 46.8243 33.2388 46.8243C33.7908 46.8243 34.3188 46.6059 34.7269 46.1979L38.999 41.9521L43.2712 46.1979C43.6792 46.6323 44.2072 46.8243 44.7353 46.8243C45.2873 46.8243 45.8153 46.6059 46.2233 46.1979C47.0394 45.3843 47.0394 44.0642 46.2233 43.2482L41.9511 38.976L46.2233 34.7014C47.0394 33.8878 47.0394 32.5437 46.2233 31.7277Z" fill="#F63B3B"/>
</svg>
