<svg width="20" height="20" viewBox="0 0 20 20" fill="none" xmlns="http://www.w3.org/2000/svg">
<path d="M10.0007 11.6668C10.9211 11.6668 11.6673 10.9206 11.6673 10.0002C11.6673 9.07969 10.9211 8.3335 10.0007 8.3335C9.08018 8.3335 8.33398 9.07969 8.33398 10.0002C8.33398 10.9206 9.08018 11.6668 10.0007 11.6668Z" fill="white"/>
<path d="M18.2837 9.70855C16.941 6.32064 13.6442 4.11508 10.0003 4.16691C6.35644 4.11508 3.05967 6.32064 1.717 9.70855C1.65032 9.8973 1.65032 10.1032 1.717 10.2919C3.05967 13.6798 6.35644 15.8854 10.0003 15.8336C13.6442 15.8854 16.941 13.6798 18.2837 10.2919C18.3504 10.1031 18.3505 9.8973 18.2837 9.70855ZM10.0022 13.3336H10.0003C8.15937 13.3336 6.66701 11.8412 6.66701 10.0002C6.66701 8.15927 8.15937 6.66691 10.0003 6.66691C11.8413 6.66691 13.3337 8.15927 13.3337 10.0002C13.3342 11.8407 11.8426 13.3331 10.0022 13.3336Z" fill="white"/>
</svg>
