<svg width="24" height="24" viewBox="0 0 24 24" xmlns="http://www.w3.org/2000/svg">
    <path
        d="M7.49957 5.6L4.99957 7L6.39957 4.5L4.99957 2L7.49957 3.4L9.99957 2L8.59957 4.5L9.99957 7L7.49957 5.6ZM19.4996 15.4L21.9996 14L20.5996 16.5L21.9996 19L19.4996 17.6L16.9996 19L18.3996 16.5L16.9996 14L19.4996 15.4ZM21.9996 2L20.5996 4.5L21.9996 7L19.4996 5.6L16.9996 7L18.3996 4.5L16.9996 2L19.4996 3.4L21.9996 2ZM13.3396 12.78L15.7796 10.34L13.6596 8.22L11.2196 10.66L13.3396 12.78ZM14.3696 7.29L16.7096 9.63C17.0996 10 17.0996 10.65 16.7096 11.04L5.03957 22.71C4.64957 23.1 3.99957 23.1 3.62957 22.71L1.28957 20.37C0.89957 20 0.89957 19.35 1.28957 18.96L12.9596 7.29C13.3496 6.9 13.9996 6.9 14.3696 7.29Z" />
</svg>