<svg width="164" height="49" viewBox="0 0 164 49" fill="none" xmlns="http://www.w3.org/2000/svg">
<g clip-path="url(#clip0_972_5151)">
<path d="M24.5939 0C11.0113 0 0 10.9689 0 24.4995C0 38.0316 11.0113 49 24.5939 49C38.177 49 49.1877 38.0316 49.1877 24.4995C49.1877 10.9698 38.1776 0.00116934 24.5936 0.00116934L24.5939 0ZM35.8724 35.3354C35.4307 36.0571 34.4868 36.2833 33.7647 35.8436C27.9894 32.3273 20.7202 31.533 12.1593 33.4811C11.3344 33.6696 10.5121 33.1544 10.3241 32.3328C10.1353 31.511 10.6501 30.6919 11.4771 30.5046C20.8456 28.371 28.8816 29.2893 35.3641 33.2354C36.0865 33.6772 36.3156 34.6163 35.8721 35.336L35.8724 35.3354ZM38.8827 28.6653C38.3264 29.5644 37.1464 29.8464 36.2451 29.2943C29.6358 25.2471 19.5575 24.0748 11.7382 26.4392C10.7241 26.7444 9.65304 26.1751 9.34526 25.1666C9.03983 24.1564 9.61164 23.0915 10.624 22.7843C19.5557 20.0845 30.6593 21.3923 38.251 26.0396C39.1526 26.5925 39.4374 27.7686 38.8824 28.6656L38.8827 28.6653ZM39.1411 21.7188C31.2134 17.0287 18.1369 16.5975 10.569 18.8856C9.35377 19.2528 8.06861 18.5693 7.70034 17.3587C7.33206 16.1475 8.01751 14.8682 9.23365 14.5001C17.9211 11.873 32.3629 12.3805 41.4888 17.7774C42.5819 18.4237 42.9405 19.83 42.2926 20.9174C41.6465 22.0063 40.231 22.3653 39.1414 21.7188H39.1411ZM66.9118 22.6175C62.6654 21.6088 61.9094 20.9008 61.9094 19.4131C61.9094 18.0076 63.2378 17.0618 65.2131 17.0618C67.1279 17.0618 69.0265 17.78 71.0171 19.2586C71.0773 19.3034 71.1528 19.3212 71.2271 19.3095C71.3014 19.2984 71.3672 19.2578 71.4107 19.1966L73.4841 16.2851C73.5692 16.1651 73.546 15.9998 73.4312 15.9082C71.0621 14.0145 68.3943 13.0938 65.276 13.0938C60.691 13.0938 57.4884 15.8348 57.4884 19.7566C57.4884 23.9621 60.251 25.4513 65.0251 26.6007C69.0885 27.5331 69.7743 28.3143 69.7743 29.7106C69.7743 31.258 68.3875 32.2199 66.1558 32.2199C63.6772 32.2199 61.6554 31.3882 59.3938 29.4371C59.3377 29.3888 59.2607 29.3669 59.1897 29.371C59.1148 29.3771 59.0463 29.4116 58.9988 29.4687L56.674 32.2249C56.5765 32.3393 56.5888 32.5101 56.7016 32.609C59.333 34.9492 62.5694 36.1853 66.0619 36.1853C71.0025 36.1853 74.1951 33.4961 74.1951 29.3338C74.2039 25.8202 72.0924 23.8747 66.9206 22.6213L66.9118 22.6175ZM85.3726 18.4456C83.2311 18.4456 81.4746 19.2858 80.0261 21.0075V19.0696C80.0261 18.9166 79.9016 18.792 79.7483 18.792H75.946C75.7924 18.792 75.6682 18.9166 75.6682 19.0696V40.6026C75.6682 40.7556 75.7924 40.8803 75.946 40.8803H79.7483C79.9016 40.8803 80.0261 40.7556 80.0261 40.6026V33.8056C81.4749 35.4252 83.2317 36.2166 85.3726 36.2166C89.3517 36.2166 93.3799 33.1652 93.3799 27.3321C93.3858 21.4976 89.3564 18.4453 85.377 18.4453L85.3726 18.4456ZM88.9585 27.3321C88.9585 30.3025 87.1218 32.3753 84.4919 32.3753C81.8919 32.3753 79.9307 30.2083 79.9307 27.3321C79.9307 24.4563 81.8919 22.289 84.4919 22.289C87.0792 22.2887 88.9588 24.4092 88.9588 27.3318L88.9585 27.3321ZM103.704 18.4456C98.5798 18.4456 94.5652 22.3764 94.5652 27.3956C94.5652 32.36 98.5522 36.2496 103.641 36.2496C108.784 36.2496 112.811 32.332 112.811 27.3321C112.811 22.3495 108.811 18.4462 103.704 18.4462L103.704 18.4456ZM103.704 32.4048C100.979 32.4048 98.9237 30.2232 98.9237 27.3306C98.9237 24.4258 100.908 22.3179 103.641 22.3179C106.385 22.3179 108.453 24.4995 108.453 27.3941C108.453 30.2984 106.456 32.4048 103.705 32.4048H103.704ZM123.754 18.792H119.57V14.5306C119.57 14.3779 119.446 14.2532 119.292 14.2532H115.491C115.337 14.2532 115.212 14.3779 115.212 14.5306V18.792H113.384C113.231 18.792 113.107 18.9166 113.107 19.0696V22.325C113.107 22.4777 113.231 22.6026 113.384 22.6026H115.212V31.0257C115.212 34.4296 116.913 36.1554 120.267 36.1554C121.631 36.1554 122.762 35.8749 123.829 35.2725C123.915 35.2242 123.969 35.1312 123.969 35.0323V31.9323C123.969 31.8367 123.919 31.7463 123.837 31.6963C123.754 31.6445 123.651 31.6418 123.566 31.6837C122.834 32.0508 122.126 32.2202 121.334 32.2202C120.114 32.2202 119.57 31.6685 119.57 30.4318V22.6041H123.754C123.908 22.6041 124.031 22.4794 124.031 22.3264V19.0714C124.037 18.9184 123.914 18.7938 123.758 18.7938L123.754 18.792ZM138.332 18.8087V18.2853C138.332 16.7455 138.925 16.0589 140.254 16.0589C141.047 16.0589 141.684 16.2157 142.397 16.4527C142.485 16.4802 142.576 16.4664 142.647 16.4141C142.721 16.3617 142.762 16.2777 142.762 16.1888V12.997C142.762 12.875 142.684 12.767 142.566 12.731C141.812 12.5078 140.848 12.2787 139.405 12.2787C135.893 12.2787 134.037 14.2488 134.037 17.974V18.7756H132.21C132.057 18.7756 131.931 18.9002 131.931 19.0529V22.3249C131.931 22.4777 132.057 22.6026 132.21 22.6026H134.037V35.5949C134.037 35.7479 134.161 35.8725 134.314 35.8725H138.117C138.27 35.8725 138.395 35.7479 138.395 35.5949V22.6035H141.945L147.383 35.5926C146.766 36.9573 146.159 37.2288 145.33 37.2288C144.66 37.2288 143.955 37.0296 143.234 36.6364C143.166 36.5992 143.085 36.5931 143.012 36.6156C142.94 36.6411 142.879 36.6949 142.848 36.7651L141.559 39.5816C141.498 39.7147 141.55 39.871 141.679 39.94C143.024 40.6658 144.239 40.9756 145.74 40.9756C148.547 40.9756 150.099 39.6729 151.467 36.168L158.063 19.1878C158.097 19.1024 158.087 19.0058 158.034 18.9301C157.982 18.8549 157.898 18.8095 157.805 18.8095H153.847C153.728 18.8095 153.622 18.8847 153.584 18.9956L149.529 30.5336L145.087 18.988C145.047 18.8806 144.943 18.8095 144.828 18.8095H138.332L138.332 18.8087ZM129.88 18.792H126.078C125.924 18.792 125.799 18.9166 125.799 19.0696V35.5949C125.799 35.7479 125.924 35.8725 126.078 35.8725H129.88C130.034 35.8725 130.159 35.7479 130.159 35.5949V19.0708C130.159 19.0343 130.152 18.9981 130.138 18.9644C130.124 18.9306 130.103 18.9 130.077 18.8742C130.051 18.8484 130.021 18.8279 129.987 18.814C129.953 18.8001 129.917 18.793 129.88 18.7932L129.88 18.792ZM128.001 11.2677C126.494 11.2677 125.272 12.4823 125.272 13.9829C125.272 15.4843 126.495 16.7005 128.001 16.7005C129.506 16.7005 130.727 15.4843 130.727 13.9829C130.727 12.4827 129.506 11.2677 128.002 11.2677H128.001ZM161.31 24.1052C159.805 24.1052 158.634 22.9013 158.634 21.4394C158.634 19.9774 159.821 18.7598 161.324 18.7598C162.829 18.7598 164 19.9634 164 21.4242C164 22.8861 162.813 24.1052 161.31 24.1052H161.31ZM161.325 19.0249C159.954 19.0249 158.917 20.1103 158.917 21.4394C158.917 22.7679 159.947 23.8387 161.311 23.8387C162.681 23.8387 163.72 22.7541 163.72 21.4242C163.72 20.0956 162.689 19.0249 161.326 19.0249H161.325ZM161.918 21.6983L162.675 22.7538H162.037L161.355 21.7855H160.77V22.7538H160.235V19.9558H161.488C162.14 19.9558 162.57 20.2884 162.57 20.8484C162.572 21.3071 162.305 21.5874 161.92 21.6983L161.918 21.6983ZM161.466 20.4359H160.769V21.3209H161.466C161.814 21.3209 162.021 21.1515 162.021 20.878C162.021 20.5901 161.813 20.4359 161.466 20.4359L161.466 20.4359Z" fill="#2EBD59"/>
</g>
<defs>
<clipPath id="clip0_972_5151">
<rect width="164" height="49" fill="white"/>
</clipPath>
</defs>
</svg>
