<svg width="20" height="20" viewBox="0 0 20 20" fill="none" xmlns="http://www.w3.org/2000/svg">
<path d="M12.558 1.6665C14.8163 1.6665 16.6413 2.55817 16.6663 4.82484V17.4748C16.6663 17.6165 16.633 17.7582 16.5663 17.8832C16.458 18.0832 16.2747 18.2332 16.0497 18.2998C15.833 18.3665 15.5913 18.3332 15.3913 18.2165L9.99134 15.5165L4.58301 18.2165C4.45884 18.2823 4.31634 18.3248 4.17467 18.3248C3.70801 18.3248 3.33301 17.9415 3.33301 17.4748V4.82484C3.33301 2.55817 5.16634 1.6665 7.41634 1.6665H12.558ZM13.1247 6.69984H6.84967C6.49134 6.69984 6.19967 6.9915 6.19967 7.35817C6.19967 7.724 6.49134 8.0165 6.84967 8.0165H13.1247C13.483 8.0165 13.7747 7.724 13.7747 7.35817C13.7747 6.9915 13.483 6.69984 13.1247 6.69984Z" fill="#546C97"/>
</svg>
