<svg width="20" height="20" viewBox="0 0 20 20" fill="none" xmlns="http://www.w3.org/2000/svg">
<path d="M6.96631 1.6665C7.30978 1.6665 7.57965 1.93946 7.57965 2.26862C7.57965 2.50947 7.7841 2.70215 8.02944 2.70215H8.83906C10.0739 2.71018 11.0798 3.69765 11.088 4.90189V5.05443C11.8649 5.05443 12.6418 5.07049 13.4269 5.07851C16.2646 5.07851 18.3337 7.10164 18.3337 9.89547V13.4841C18.3337 16.2779 16.2646 18.3011 13.4269 18.3011C12.2902 18.3251 11.1534 18.3332 10.0085 18.3332C8.86359 18.3332 7.7105 18.3251 6.57376 18.3011C3.73601 18.3011 1.66699 16.2779 1.66699 13.4841V9.89547C1.66699 7.10164 3.73601 5.07851 6.58194 5.07851C7.65325 5.06246 8.7491 5.0464 9.8613 5.0464V4.90992C9.8613 4.35597 9.39516 3.90639 8.83906 3.90639H8.02944C7.10533 3.90639 6.35296 3.16779 6.35296 2.26862C6.35296 1.93946 6.63101 1.6665 6.96631 1.6665ZM7.57147 9.63857C7.228 9.63857 6.95813 9.91153 6.95813 10.2407V11.0837H6.09126C5.75597 11.0837 5.47792 11.3566 5.47792 11.6858C5.47792 12.023 5.75597 12.2879 6.09126 12.2879H6.95813V13.1389C6.95813 13.468 7.228 13.741 7.57147 13.741C7.90677 13.741 8.18482 13.468 8.18482 13.1389V12.2879H9.0435C9.3788 12.2879 9.65685 12.023 9.65685 11.6858C9.65685 11.3566 9.3788 11.0837 9.0435 11.0837H8.18482V10.2407C8.18482 9.91153 7.90677 9.63857 7.57147 9.63857ZM13.9993 12.4886H13.9176C13.5733 12.4886 13.3042 12.7616 13.3042 13.0907C13.3042 13.4279 13.5733 13.6928 13.9176 13.6928H13.9993C14.3346 13.6928 14.6127 13.4279 14.6127 13.0907C14.6127 12.7616 14.3346 12.4886 13.9993 12.4886ZM12.6009 9.72688H12.5191C12.1757 9.72688 11.9058 9.99984 11.9058 10.329C11.9058 10.6662 12.1757 10.9311 12.5191 10.9311H12.6009C12.9362 10.9311 13.2143 10.6662 13.2143 10.329C13.2143 9.99984 12.9362 9.72688 12.6009 9.72688Z" fill="#546C97"/>
</svg>
