<svg width="11" height="11" viewBox="0 0 11 11"  xmlns="http://www.w3.org/2000/svg">
<path d="M7.95944 6.66006C7.82994 6.78556 7.77044 6.96706 7.79994 7.14506L8.24444 9.60506C8.28194 9.81356 8.19394 10.0246 8.01944 10.1451C7.84844 10.2701 7.62094 10.2851 7.43444 10.1851L5.21994 9.03006C5.14294 8.98906 5.05744 8.96706 4.96994 8.96456H4.83444C4.78744 8.97156 4.74144 8.98656 4.69944 9.00956L2.48444 10.1701C2.37494 10.2251 2.25094 10.2446 2.12944 10.2251C1.83344 10.1691 1.63594 9.88706 1.68444 9.58956L2.12944 7.12956C2.15894 6.95006 2.09944 6.76756 1.96994 6.64006L0.164438 4.89006C0.0134379 4.74356 -0.0390621 4.52356 0.0299379 4.32506C0.0969379 4.12706 0.267938 3.98256 0.474438 3.95006L2.95944 3.58956C3.14844 3.57006 3.31444 3.45506 3.39944 3.28506L4.49444 1.04006C4.52044 0.990061 4.55394 0.944061 4.59444 0.905061L4.63944 0.870061C4.66294 0.844061 4.68994 0.822561 4.71994 0.805061L4.77444 0.785061L4.85944 0.750061H5.06994C5.25794 0.769561 5.42344 0.882061 5.50994 1.05006L6.61944 3.28506C6.69944 3.44856 6.85494 3.56206 7.03444 3.58956L9.51944 3.95006C9.72944 3.98006 9.90494 4.12506 9.97444 4.32506C10.0399 4.52556 9.98344 4.74556 9.82944 4.89006L7.95944 6.66006Z"/>
</svg>
