<svg width="20" height="20" viewBox="0 0 20 20" fill="none" xmlns="http://www.w3.org/2000/svg">
<path fill-rule="evenodd" clip-rule="evenodd" d="M18.3333 10C18.3333 14.6025 14.6025 18.3333 9.99999 18.3333C5.39749 18.3333 1.66666 14.6025 1.66666 10C1.66666 5.3975 5.39749 1.66667 9.99999 1.66667C14.6025 1.66667 18.3333 5.3975 18.3333 10ZM9.99999 6.45833C9.48249 6.45833 9.06249 6.87833 9.06249 7.39583C9.06249 7.56159 8.99664 7.72057 8.87943 7.83778C8.76222 7.95499 8.60325 8.02083 8.43749 8.02083C8.27173 8.02083 8.11276 7.95499 7.99555 7.83778C7.87834 7.72057 7.81249 7.56159 7.81249 7.39583C7.8125 7.03745 7.90057 6.68456 8.06894 6.36819C8.23732 6.05181 8.48084 5.78166 8.77811 5.58147C9.07537 5.38129 9.41727 5.25721 9.77373 5.22014C10.1302 5.18307 10.4903 5.23415 10.8224 5.36889C11.1545 5.50362 11.4484 5.71789 11.6783 5.99285C11.9081 6.26781 12.0669 6.59503 12.1407 6.94574C12.2144 7.29646 12.2009 7.65992 12.1012 8.00417C12.0016 8.34843 11.8189 8.66292 11.5692 8.92C11.4925 8.99917 11.4192 9.0725 11.3492 9.1425C11.1799 9.30371 11.021 9.47544 10.8733 9.65667C10.69 9.89167 10.625 10.0642 10.625 10.2083V10.8333C10.625 10.9991 10.5591 11.1581 10.4419 11.2753C10.3247 11.3925 10.1657 11.4583 9.99999 11.4583C9.83423 11.4583 9.67526 11.3925 9.55805 11.2753C9.44084 11.1581 9.37499 10.9991 9.37499 10.8333V10.2083C9.37499 9.6625 9.62916 9.22 9.88666 8.88917C10.0775 8.64417 10.3167 8.40583 10.5117 8.21083C10.57 8.1525 10.625 8.09833 10.6725 8.04917C10.8009 7.917 10.8875 7.74991 10.9215 7.56879C10.9555 7.38767 10.9354 7.20054 10.8636 7.0308C10.7919 6.86106 10.6717 6.71622 10.5181 6.61441C10.3645 6.51259 10.1843 6.45831 9.99999 6.45833ZM9.99999 14.1667C10.221 14.1667 10.433 14.0789 10.5892 13.9226C10.7455 13.7663 10.8333 13.5543 10.8333 13.3333C10.8333 13.1123 10.7455 12.9004 10.5892 12.7441C10.433 12.5878 10.221 12.5 9.99999 12.5C9.77898 12.5 9.56701 12.5878 9.41073 12.7441C9.25445 12.9004 9.16666 13.1123 9.16666 13.3333C9.16666 13.5543 9.25445 13.7663 9.41073 13.9226C9.56701 14.0789 9.77898 14.1667 9.99999 14.1667Z" fill="#838799"/>
</svg>
