<svg width="20" height="20" viewBox="0 0 20 20" fill="none" xmlns="http://www.w3.org/2000/svg">
<path d="M6.59174 18.333C3.65007 18.333 1.66674 16.4405 1.66674 13.6163L1.66674 6.39134C1.66674 3.56634 3.65007 1.66634 6.59174 1.66634L13.4001 1.66634C16.3501 1.66634 18.3334 3.56634 18.3334 6.39134L18.3334 13.6163C18.3334 16.4405 16.3501 18.333 13.4001 18.333L6.59174 18.333ZM9.82507 13.5663C10.0667 13.808 10.4667 13.808 10.7084 13.5663L13.8501 10.4413C14.0834 10.208 14.0834 9.79134 13.8501 9.55801L10.7084 6.43301C10.4667 6.19134 10.0667 6.19134 9.82507 6.43301C9.58341 6.68301 9.58341 7.07467 9.82507 7.32467L11.8917 9.37467L6.60007 9.37467C6.25007 9.37467 5.97507 9.65801 5.97507 9.99967C5.97507 10.3497 6.25007 10.6247 6.60007 10.6247L11.8917 10.6247L9.82507 12.683C9.70841 12.7997 9.64174 12.9663 9.64174 13.1247C9.64174 13.2822 9.7084 13.4413 9.82507 13.5663Z" fill="white"/>
</svg>
