<svg width="118" height="63" viewBox="0 0 118 63" fill="none" xmlns="http://www.w3.org/2000/svg">
<path d="M63.3488 2.84935C62.9643 2.90848 62.5946 4.3199 61.8514 5.05517C61.3079 5.58583 60.6295 5.55263 60.2691 6.20868C60.1323 6.45377 60.1766 6.87213 60.0214 7.27382C59.7182 8.07722 58.6498 8.14904 58.6498 9.02438C58.6461 9.96969 59.5408 10.1502 60.3153 10.821C60.9198 11.3609 60.979 11.7331 61.7109 11.9947C62.3359 12.2067 63.2656 11.5138 64.103 11.7626C64.7907 11.9672 65.4487 12.1145 65.6041 12.8185C65.7408 13.4671 65.5948 14.4731 64.7611 14.3571C64.4801 14.3258 63.2619 13.9167 61.7646 14.0751C59.9585 14.2798 57.8973 14.8674 57.6959 16.8743C57.5849 17.9965 58.9768 19.3195 60.3208 19.0505C61.2506 18.868 60.8107 17.7754 61.3172 17.2447C61.9808 16.5648 65.7408 19.6181 69.2365 19.6181C70.708 19.6181 71.8023 19.2477 72.8894 18.1126C72.9909 18.026 73.1148 17.8399 73.2719 17.8287C73.4199 17.8399 73.6786 17.9854 73.7637 18.048C76.5791 20.3035 78.7067 24.8274 89.0533 24.8808C90.5081 24.8881 92.1662 25.5811 93.5193 26.8119C94.7265 27.925 95.4327 29.6552 96.1184 31.4113C97.1537 34.0464 99.0097 36.6096 101.823 39.4621C101.977 39.615 104.293 41.4099 104.478 41.5444C104.507 41.5628 104.677 41.9682 104.618 42.1947C104.55 43.9048 104.3 48.8782 108.02 49.1031C108.929 49.1491 108.691 48.5116 108.691 48.073C108.689 47.2069 108.53 46.3463 108.988 45.46C109.615 44.2403 107.659 43.6781 107.716 41.0412C107.757 39.0751 106.101 39.4104 105.26 37.9123C104.775 37.0444 104.345 36.5838 104.376 35.5223C104.565 29.5484 103.101 25.6234 102.37 24.6597C101.801 23.9318 101.33 23.6426 101.851 23.3053C104.955 21.2617 105.659 19.36 105.659 19.36C107.31 15.4922 108.794 11.9597 110.841 10.4046C111.253 10.0838 112.31 9.29712 112.959 8.98748C114.869 8.09005 115.874 7.54656 116.429 7.00836C117.307 6.15524 118 4.37704 117.159 3.29906C116.113 1.96859 114.303 3.02448 113.504 3.49614C107.798 6.87213 106.957 12.8276 104.98 16.2478C103.404 18.9804 100.84 20.9872 98.5476 21.1512C96.8283 21.2783 94.9761 20.9319 93.1312 20.1248C88.6447 18.1642 86.1897 15.6323 85.6112 15.1846C84.4059 14.2577 75.0484 5.1012 67.4673 4.72715C67.4673 4.72715 66.5266 2.84949 66.2899 2.81814C65.7352 2.74804 65.1678 3.94029 64.7611 4.07865C64.3785 4.20562 63.7352 2.78666 63.3488 2.84935ZM29.9747 57.4985C29.2611 57.4818 28.6548 56.8977 28.6548 56.1754L28.6567 32.6035H20.8631V58.5874C20.8631 59.8608 21.8982 60.9001 23.1681 60.9001H36.7904C38.0695 60.9001 39.0918 59.8608 39.0918 58.5874V32.6035H31.3057L31.2982 56.1754C31.2982 56.8977 30.6918 57.4818 29.9747 57.4985ZM56.0691 32.6035H44.2733C42.8777 32.6035 41.7408 33.7349 41.7408 35.1409V60.9H49.5416V37.2712C49.5472 36.5471 50.135 35.974 50.8597 35.974C51.5881 35.974 52.1722 36.5341 52.1888 37.251V60.9001H59.9583V37.2507C59.9676 36.534 60.5517 35.9738 61.2782 35.9738C61.9992 35.9738 62.5945 36.5469 62.6 37.2711V60.9001H70.401V35.1409C70.401 33.7349 69.2622 32.6035 67.8666 32.6035H56.0691ZM10.4333 37.3208C10.4389 36.534 9.79562 35.9738 9.11346 35.9738H7.78989V50.2861H9.11346C9.80119 50.2861 10.439 49.7406 10.4333 48.9576V37.3208ZM15.663 53.789H7.78989V60.9001H0V32.6035H15.713C17.1196 32.6035 18.2176 33.7423 18.2176 35.152V51.2406C18.2176 52.6522 17.0772 53.789 15.663 53.789ZM97.1334 54.5722C95.5676 54.5722 94.2532 55.921 94.2532 57.5556C94.2532 59.1956 95.5676 60.5333 97.1833 60.5333C98.786 60.5333 100.084 59.1956 100.084 57.5556C100.084 55.9173 98.786 54.5722 97.1831 54.5722H97.1334ZM100.642 57.5463C100.642 59.4682 99.0965 61.0309 97.1833 61.0309C95.2496 61.0309 93.6969 59.4794 93.6969 57.5463C93.6969 55.6502 95.2496 54.0655 97.1259 54.0655C99.0965 54.0655 100.642 55.6024 100.642 57.5463Z" fill="black"/>
<path d="M96.8231 57.3252C97.3647 57.3252 97.6495 57.1335 97.6495 56.7503C97.6495 56.4094 97.374 56.2344 96.8471 56.2344H96.6919V57.3252H96.8231ZM98.8178 59.5622H97.8879L96.6919 57.9757V59.5622H95.9321V55.5507H96.7308C97.8159 55.5507 98.3926 55.9598 98.3926 56.7411C98.3926 57.2625 98.0525 57.7252 97.5773 57.8632L97.5219 57.8836L98.8178 59.5622ZM83.4802 50.2916V37.262C83.4616 36.5414 82.8794 35.9886 82.1529 35.9886C81.4337 35.9886 80.8385 36.5635 80.8331 37.2822V50.2916H83.4802ZM83.4802 60.9001V53.7964H80.8331V60.9001H73.0469V35.1409C73.0469 33.7349 74.1836 32.6035 75.5794 32.6035H88.7337C90.1332 32.6035 91.2701 33.7349 91.2701 35.1409V60.9L83.4802 60.9001Z" fill="black"/>
</svg>
