<svg width="20" height="20" viewBox="0 0 20 20" xmlns="http://www.w3.org/2000/svg">
    <path
        d="M2.5 5.32167C2.5 4.91833 2.7875 4.59083 3.1425 4.59083H5.36333C5.80417 4.5775 6.19333 4.25833 6.34333 3.78667L6.36833 3.70333L6.46417 3.3775C6.5225 3.1775 6.57333 3.0025 6.645 2.84667C6.92667 2.23083 7.44833 1.80333 8.05083 1.69417C8.20417 1.66667 8.36583 1.66667 8.55083 1.66667H11.4492C11.635 1.66667 11.7967 1.66667 11.9492 1.69417C12.5517 1.80333 13.0742 2.23083 13.355 2.84667C13.4267 3.0025 13.4775 3.17667 13.5367 3.3775L13.6317 3.70333L13.6567 3.78667C13.8067 4.25833 14.2733 4.57833 14.715 4.59083H16.8567C17.2125 4.59083 17.5 4.91833 17.5 5.32167C17.5 5.725 17.2125 6.0525 16.8575 6.0525H3.14167C2.7875 6.0525 2.5 5.725 2.5 5.32167Z" />
    <path fill-rule="evenodd" clip-rule="evenodd"
        d="M9.66287 18.3333H10.3362C12.6554 18.3333 13.8145 18.3333 14.5695 17.595C15.3229 16.8567 15.3995 15.6458 15.5537 13.2242L15.7762 9.73417C15.8595 8.42 15.9012 7.7625 15.5237 7.34667C15.1454 6.93 14.507 6.93 13.2295 6.93H6.76954C5.49204 6.93 4.85287 6.93 4.47537 7.34667C4.09704 7.76333 4.1387 8.42 4.22287 9.73417L4.44537 13.2242C4.59954 15.6458 4.6762 16.8575 5.43037 17.595C6.18454 18.3333 7.3437 18.3333 9.66287 18.3333ZM8.53787 10.1575C8.50454 9.79583 8.19787 9.5325 7.85454 9.56833C7.51037 9.60417 7.26037 9.92667 7.29454 10.2883L7.7112 14.6742C7.74454 15.0358 8.0512 15.2992 8.39454 15.2633C8.7387 15.2275 8.9887 14.905 8.95454 14.5433L8.53787 10.1575ZM12.1454 9.56833C12.4887 9.60417 12.7395 9.92667 12.7045 10.2883L12.2879 14.6742C12.2545 15.0358 11.947 15.2992 11.6045 15.2633C11.2604 15.2275 11.0104 14.905 11.0445 14.5433L11.4612 10.1575C11.4945 9.79583 11.8029 9.5325 12.1454 9.56833Z" />
</svg>