<svg width="24" height="24" viewBox="0 0 24 24" fill="none" xmlns="http://www.w3.org/2000/svg">
<path d="M2.99965 17.2501V21.0001H6.74965L17.8096 9.93014L14.0596 6.18014L2.99965 17.2501ZM22.6096 18.3601L18.3596 22.6101L13.1596 17.4101L14.9296 15.6401L15.9296 16.6401L18.3996 14.1601L19.8196 15.5801L18.3596 17.0001L19.4196 18.0001L20.8396 16.6001L22.6096 18.3601ZM6.60965 10.8301L1.38965 5.64014L5.63965 1.39014L7.39965 3.16014L4.92965 5.64014L5.99965 6.70014L8.45965 4.22014L9.87965 5.64014L8.45965 7.05014L9.45965 8.05014L6.60965 10.8301ZM20.7096 7.00014C21.0996 6.61014 21.0996 6.00014 20.7096 5.59014L18.3696 3.29014C17.9996 2.90014 17.3496 2.90014 16.9596 3.29014L15.1196 5.12014L18.8696 8.87014L20.7096 7.00014Z" fill="#C4C7D0"/>
</svg>
