<svg width="36" height="30" viewBox="0 0 36 30" fill="none" xmlns="http://www.w3.org/2000/svg">
<path d="M32.25 30H3.75C1.683 30 0 28.3185 0 26.25V15.75C0 15.645 0.0225 15.5385 0.066 15.4425L6.0195 2.2125C6.6255 0.8685 7.968 0 9.4395 0H26.5605C28.032 0 29.3745 0.8685 29.9805 2.2125L35.934 15.4425C35.9775 15.5385 36 15.645 36 15.75V26.25C36 28.3185 34.317 30 32.25 30ZM1.5 15.9105V26.25C1.5 27.4905 2.5095 28.5 3.75 28.5H32.25C33.4905 28.5 34.5 27.4905 34.5 26.25V15.9105L28.6125 2.826C28.2495 2.022 27.444 1.5 26.5605 1.5H9.4395C8.556 1.5 7.7505 2.022 7.3875 2.8275L1.5 15.9105Z" fill="#838799"/>
<path d="M25.2105 22.5H10.7895C9.8565 22.5 9.0105 21.9135 8.6835 21.0405L7.1625 16.986C7.0545 16.695 6.7725 16.5 6.4605 16.5H1.125C0.711 16.5 0.375 16.164 0.375 15.75C0.375 15.336 0.711 15 1.125 15H6.4605C7.3935 15 8.2395 15.5865 8.568 16.4595L10.0875 20.514C10.197 20.805 10.479 21 10.7895 21H25.209C25.521 21 25.803 20.805 25.911 20.514L27.4305 16.4595C27.7605 15.5865 28.6065 15 29.5395 15H35.25C35.664 15 36 15.336 36 15.75C36 16.164 35.664 16.5 35.25 16.5H29.5395C29.2275 16.5 28.9455 16.695 28.8375 16.986L27.318 21.0405C26.9895 21.9135 26.142 22.5 25.2105 22.5Z" fill="#838799"/>
</svg>
