<svg width="18" height="18" viewBox="0 0 18 18" fill="none" xmlns="http://www.w3.org/2000/svg">
<path d="M12.6167 0.666584C15.4417 0.666584 17.3334 2.64992 17.3334 5.59992V12.4091C17.3334 15.3499 15.4417 17.3333 12.6167 17.3333H5.39175C2.56675 17.3333 0.666748 15.3499 0.666748 12.4091L0.666748 5.59992C0.666748 2.64992 2.56675 0.666584 5.39175 0.666584L12.6167 0.666584ZM12.4834 6.49992C12.2001 6.21658 11.7334 6.21658 11.4501 6.49992L8.00841 9.94158L6.55008 8.48325C6.26675 8.19992 5.80008 8.19992 5.51675 8.48325C5.23341 8.76658 5.23341 9.22492 5.51675 9.51658L7.50008 11.4916C7.64175 11.6333 7.82508 11.6999 8.00841 11.6999C8.20008 11.6999 8.38341 11.6333 8.52508 11.4916L12.4834 7.53325C12.7667 7.24992 12.7667 6.79158 12.4834 6.49992Z" fill="white"/>
</svg>
