<svg width="20" height="20" viewBox="0 0 20 20" fill="none" xmlns="http://www.w3.org/2000/svg">
<path d="M18.1752 10.6792C18.2353 10.713 18.2473 10.7845 18.2497 10.8118L18.2503 10.8227L18.1836 15.1264C18.1836 16.8432 16.8534 18.2432 15.1785 18.329L15.0153 18.3332H4.97698C3.28082 18.3332 1.89764 16.9868 1.81285 15.2916L1.80873 15.1264L1.75037 10.8227C1.75037 10.8227 1.75037 10.7214 1.8254 10.6792C1.8921 10.637 1.97548 10.6876 1.98382 10.6961C3.66799 11.8269 5.69401 12.5779 7.82007 12.8902C8.12022 12.9324 8.42037 12.7383 8.50374 12.4345C8.67571 11.7857 9.20673 11.3447 9.85638 11.2921L9.98782 11.2868H10.0128C10.7215 11.2868 11.3135 11.7425 11.4969 12.4345C11.5803 12.7383 11.8804 12.9324 12.1806 12.8902C14.3066 12.5779 16.3327 11.8269 18.0168 10.6961C18.0168 10.6961 18.0335 10.6876 18.0502 10.6792C18.0835 10.6623 18.1336 10.6539 18.1752 10.6792ZM9.99616 12.4935C9.68281 12.4935 9.41849 12.7346 9.37662 13.0413L9.37084 13.1264V14.215C9.37084 14.5695 9.65432 14.848 9.99616 14.848C10.3172 14.848 10.5751 14.614 10.6159 14.302L10.6215 14.215V13.1264C10.6215 12.7805 10.3463 12.4935 9.99616 12.4935ZM11.0717 1.6665C12.3223 1.6665 13.3478 2.62009 13.5062 3.84371H15.1571C16.9079 3.84371 18.3337 5.28674 18.3337 7.05888C18.3337 7.05888 18.2836 7.80909 18.267 8.85381C18.2653 8.93651 18.2253 9.01752 18.1594 9.06647C17.7584 9.36267 17.3915 9.60739 17.3582 9.62427C15.9741 10.5525 14.3658 11.2057 12.6525 11.5306C12.5408 11.5525 12.4307 11.4943 12.374 11.3947C11.8938 10.5627 10.9967 10.0209 9.99616 10.0209C9.00233 10.0209 8.09687 10.5568 7.60246 11.3897C7.54493 11.4876 7.43654 11.5441 7.32565 11.523C5.62647 11.1973 4.01817 10.5449 2.64248 9.63271L1.84208 9.07575C1.77538 9.03356 1.73369 8.95761 1.73369 8.87322C1.70868 8.44284 1.66699 7.05888 1.66699 7.05888C1.66699 5.28674 3.0927 3.84371 4.84358 3.84371H6.48607C6.64448 2.62009 7.66999 1.6665 8.92062 1.6665H11.0717ZM11.0717 2.93232H8.92062C8.36201 2.93232 7.88677 3.3205 7.75337 3.84371H12.2389C12.1055 3.3205 11.6303 2.93232 11.0717 2.93232Z" fill="#546C97"/>
</svg>
