<svg width="18" height="18" viewBox="0 0 18 18" fill="none" xmlns="http://www.w3.org/2000/svg">
<path d="M5.62492 4.2L3.74992 5.25L4.79992 3.375L3.74992 1.5L5.62492 2.55L7.49992 1.5L6.44992 3.375L7.49992 5.25L5.62492 4.2ZM14.6249 11.55L16.4999 10.5L15.4499 12.375L16.4999 14.25L14.6249 13.2L12.7499 14.25L13.7999 12.375L12.7499 10.5L14.6249 11.55ZM16.4999 1.5L15.4499 3.375L16.4999 5.25L14.6249 4.2L12.7499 5.25L13.7999 3.375L12.7499 1.5L14.6249 2.55L16.4999 1.5ZM10.0049 9.585L11.8349 7.755L10.2449 6.165L8.41492 7.995L10.0049 9.585ZM10.7774 5.4675L12.5324 7.2225C12.8249 7.5 12.8249 7.9875 12.5324 8.28L3.77992 17.0325C3.48742 17.325 2.99992 17.325 2.72242 17.0325L0.967422 15.2775C0.674922 15 0.674922 14.5125 0.967422 14.22L9.71992 5.4675C10.0124 5.175 10.4999 5.175 10.7774 5.4675Z" fill="#3679FD"/>
</svg>
