<svg width="148" height="50" viewBox="0 0 148 50" fill="none" xmlns="http://www.w3.org/2000/svg">
<g clip-path="url(#clip0_972_5146)">
<path d="M147.908 11.904C145.896 0.145676 111.176 -3.52375 70.3573 3.70784C53.2147 6.74644 37.7358 11.2282 25.6816 16.2703C27.5333 16.3115 28.9066 16.7436 29.741 17.5904C30.3933 18.255 30.7228 19.1671 30.7228 20.3035V21.4699H26.7202V20.44C26.7202 19.5819 26.2146 19.0501 25.319 19.0501C24.5664 19.0501 24.1027 19.3959 23.9531 20.077C23.9029 20.3462 23.9084 20.6231 23.9693 20.8901C24.3976 22.6715 30.341 23.7779 30.9875 27.0655C31.0722 27.4886 31.1872 28.3939 31.0059 29.6893C30.6351 32.3409 28.3456 33.364 25.431 33.364C21.3628 33.364 19.7102 31.4033 19.7102 28.7L19.7131 27.4211H24.0039L24.0061 29.0142C24.0061 29.9099 24.646 30.4042 25.5173 30.4042C26.3428 30.4042 26.8249 30.0659 26.9915 29.3743C27.0689 29.0563 27.1028 28.5874 26.962 28.2289C26.1681 26.2022 20.6183 25.2556 19.935 21.9784C19.7824 21.2419 19.7699 20.6148 19.8967 19.8219C19.9617 19.4289 20.0814 19.0473 20.252 18.6886C6.88126 25.0515 -0.94037 32.0528 0.093079 38.0978C2.10764 49.8576 36.8262 53.5233 77.6445 46.2917C95.5876 43.1136 111.719 38.3558 123.996 33.0242C123.818 33.0332 123.646 33.0527 123.461 33.0527C120.668 33.0527 118.173 31.9876 117.914 29.0818C117.869 28.5529 117.861 28.3317 117.859 28.0301L117.861 21.3499C117.861 21.0618 117.894 20.5563 117.925 20.2952C118.256 17.4869 120.438 16.3288 123.463 16.3288C125.803 16.3288 128.673 17.0121 128.988 20.2975C129.03 20.71 129.026 21.1503 129.025 21.2951V21.9259H124.983V20.9846C124.983 20.9643 124.977 20.6125 124.933 20.3928C124.866 20.0575 124.585 19.2804 123.434 19.2804C122.297 19.2804 122.002 20.059 121.928 20.3935C121.886 20.5773 121.866 20.8413 121.866 21.1338V28.3939C121.862 28.646 121.875 28.8432 121.9 28.988C121.92 29.102 122.124 30.1026 123.448 30.1026C124.762 30.1026 124.966 29.102 124.984 28.988C125.019 28.7915 125.023 28.5574 125.022 28.3939V26.1444H123.431V23.7216H129.056V28.0316C129.055 28.3249 129.05 28.5417 129.001 29.0818C128.934 29.8438 128.698 30.4889 128.328 31.0402C141.348 24.7493 148.928 17.8612 147.908 11.904ZM42.0657 32.7437L40.018 18.585H39.9443L37.8442 32.7437H33.5283L36.4311 16.7541H43.4729L46.358 32.7437H42.0657ZM62.8246 32.7437L62.7295 18.8588H62.6602L60.1208 32.7437H56.0703L53.5435 18.8588H53.4712L53.3791 32.7437H49.3655L49.7134 16.7541H56.1691L58.0488 28.6317H58.1409L60.0258 16.7541H66.4785L66.825 32.7437H62.8246ZM81.7252 29.6451C81.2933 32.7422 78.3116 33.2837 76.2042 33.2837C72.705 33.2837 70.5408 31.7618 70.5408 28.6647L70.543 27.4016H74.7822L74.7852 28.9752C74.7852 29.8296 75.3771 30.3524 76.2911 30.3524C77.1064 30.3524 77.5841 30.0194 77.7499 29.3353C77.8266 29.0165 77.8583 28.5514 77.7226 28.2004C76.9413 26.2119 71.435 25.2376 70.7657 22.0114C70.6123 21.2801 70.6013 20.659 70.7273 19.8744C71.1932 16.9499 73.9515 16.3423 76.1717 16.3423C78.1575 16.3423 79.603 16.7833 80.4699 17.6654C81.1164 18.324 81.4436 19.2279 81.4436 20.3523V21.5059H77.4794V20.488C77.4794 19.6164 76.9479 19.1124 76.0936 19.1124C75.3358 19.1124 74.8773 19.4551 74.727 20.1295C74.6782 20.3959 74.6847 20.6698 74.7461 20.9336C75.1707 22.7068 81.0618 23.7906 81.7068 27.0475C81.7901 27.4631 81.9043 28.3549 81.7252 29.6451ZM96.4073 28.1922C96.4132 28.4922 96.3844 29.0915 96.3682 29.2453C96.1264 31.8796 94.2748 33.2185 90.8788 33.2185C87.4696 33.2185 85.6165 31.8796 85.3762 29.2453C85.349 28.8959 85.3359 28.5456 85.3371 28.1952V16.7503H89.3928V28.5559C89.3884 28.82 89.4016 29.015 89.4274 29.1508C89.4776 29.4133 89.7341 30.2654 90.8788 30.2654C92.0199 30.2654 92.2764 29.4125 92.3302 29.1538C92.3531 29.0142 92.3671 28.8095 92.3671 28.5552V16.7503H96.4073V28.1922ZM113.881 32.5809H108.237L104.449 19.9157H104.386L104.596 32.5809H100.663V16.7541H106.543L110.044 28.9205H110.126L109.919 16.7541H113.881V32.5809Z" fill="#2D4F9E"/>
</g>
<defs>
<clipPath id="clip0_972_5146">
<rect width="148" height="50" fill="white"/>
</clipPath>
</defs>
</svg>
