<svg width="20" height="20" viewBox="0 0 20 20" fill="none" xmlns="http://www.w3.org/2000/svg">
<path fill-rule="evenodd" clip-rule="evenodd" d="M2.64332 4.31C1.66666 5.28584 1.66666 6.8575 1.66666 10C1.66666 13.1425 1.66666 14.7142 2.64332 15.69C3.61916 16.6667 5.19082 16.6667 8.33332 16.6667H11.6667C14.8092 16.6667 16.3808 16.6667 17.3567 15.69C18.3333 14.7142 18.3333 13.1425 18.3333 10C18.3333 6.8575 18.3333 5.28584 17.3567 4.31C16.3808 3.33334 14.8092 3.33334 11.6667 3.33334H8.33332C5.19082 3.33334 3.61916 3.33334 2.64332 4.31ZM15.48 6.26667C15.586 6.39399 15.6372 6.55821 15.6222 6.72323C15.6072 6.88825 15.5273 7.04056 15.4 7.14667L13.57 8.67167C12.8308 9.28834 12.2325 9.78667 11.7033 10.1267C11.1533 10.4808 10.6175 10.7042 9.99999 10.7042C9.38249 10.7042 8.84666 10.48 8.29582 10.1267C7.76749 9.78667 7.16916 9.2875 6.42999 8.6725L4.59999 7.1475C4.47258 7.04142 4.39252 6.88906 4.37744 6.72395C4.36236 6.55884 4.41349 6.3945 4.51957 6.26709C4.62566 6.13967 4.77802 6.05962 4.94313 6.04454C5.10824 6.02946 5.27258 6.08058 5.39999 6.18667L7.19999 7.68584C7.97749 8.33334 8.51666 8.78167 8.97332 9.075C9.41416 9.35834 9.71332 9.45417 10.0008 9.45417C10.2883 9.45417 10.5875 9.35917 11.0283 9.075C11.4842 8.78167 12.0242 8.33334 12.8017 7.68584L14.6008 6.18584C14.7283 6.07989 14.8925 6.02889 15.0576 6.04405C15.2226 6.05921 15.374 6.13928 15.48 6.26667Z" fill="#838799"/>
</svg>
