<svg width="18" height="18" viewBox="0 0 18 18" fill="none" xmlns="http://www.w3.org/2000/svg">
<path d="M12.6122 0.665987C15.4355 0.665988 17.333 2.64765 17.333 5.59682L17.333 12.4027C17.333 15.3518 15.4355 17.3327 12.6114 17.3327L5.38805 17.3327C2.56388 17.3327 0.666379 15.3518 0.66638 12.4027L0.666381 5.59682C0.666381 2.64765 2.56388 0.665985 5.38805 0.665986L12.6122 0.665987ZM6.36721 6.83182C5.17221 6.83182 4.19971 7.80432 4.19971 8.99932C4.19971 10.1952 5.17221 11.1677 6.36721 11.1677C7.34388 11.1677 8.16221 10.5143 8.43221 9.62432L10.1922 9.62432L10.1922 10.5427C10.1922 10.8877 10.4722 11.1677 10.8172 11.1677C11.1622 11.1677 11.4422 10.8877 11.4422 10.5427L11.4422 9.62432L12.5505 9.62432L12.5505 10.5427C12.5505 10.8877 12.8305 11.1677 13.1755 11.1677C13.5205 11.1677 13.8005 10.8877 13.8005 10.5427L13.8005 8.99932C13.8005 8.65432 13.5205 8.37432 13.1755 8.37432L8.43221 8.37432C8.16221 7.48515 7.34388 6.83182 6.36721 6.83182ZM6.3673 8.08174C6.87313 8.08174 7.28563 8.4934 7.28563 9.00007C7.28563 9.5059 6.87313 9.91757 6.3673 9.91757C5.86146 9.91757 5.44896 9.5059 5.44896 9.00007C5.44896 8.4934 5.86146 8.08174 6.3673 8.08174Z" fill="#3679FD"/>
</svg>
