<svg width="20" height="21" viewBox="0 0 20 21" fill="none" xmlns="http://www.w3.org/2000/svg">
<path d="M6.59134 19.2716C3.64967 19.2716 1.66634 17.309 1.66634 14.3802L1.66634 6.88766C1.66634 3.95803 3.64968 1.98766 6.59134 1.98766L13.3997 1.98766C16.3497 1.98766 18.333 3.95803 18.333 6.88766L18.333 14.3802C18.333 17.309 16.3497 19.2716 13.3997 19.2716L6.59134 19.2716ZM9.82468 14.3284C10.0663 14.579 10.4663 14.579 10.708 14.3284L13.8497 11.0877C14.083 10.8457 14.083 10.4136 13.8497 10.1716L10.708 6.93087C10.4663 6.68025 10.0663 6.68025 9.82468 6.93087C9.58301 7.19013 9.58301 7.5963 9.82468 7.85556L11.8913 9.98148L6.59968 9.98148C6.24968 9.98148 5.97468 10.2753 5.97468 10.6296C5.97468 10.9926 6.24968 11.2778 6.59968 11.2778L11.8913 11.2778L9.82468 13.4123C9.70801 13.5333 9.64134 13.7062 9.64134 13.8704C9.64134 14.0337 9.70801 14.1988 9.82468 14.3284Z" fill="white"/>
</svg>
