<svg width="18" height="12" viewBox="0 0 18 12" fill="none" xmlns="http://www.w3.org/2000/svg">
<path d="M8.99992 7.66665C9.92039 7.66665 10.6666 6.92045 10.6666 5.99998C10.6666 5.07951 9.92039 4.33331 8.99992 4.33331C8.07944 4.33331 7.33325 5.07951 7.33325 5.99998C7.33325 6.92045 8.07944 7.66665 8.99992 7.66665Z" fill="#546C97"/>
<path d="M17.2833 5.7083C15.9406 2.32039 12.6439 0.114837 8.99997 0.166666C5.35607 0.114837 2.05931 2.32039 0.716637 5.7083C0.649956 5.89705 0.649956 6.10294 0.716637 6.29165C2.05931 9.67955 5.35607 11.8851 8.99997 11.8333C12.6439 11.8851 15.9406 9.67955 17.2833 6.29165C17.35 6.10289 17.3501 5.89705 17.2833 5.7083ZM9.0018 9.33333H8.99997C7.159 9.33333 5.66664 7.84092 5.66664 6C5.66664 4.15903 7.159 2.66667 8.99997 2.66667C10.8409 2.66667 12.3333 4.15903 12.3333 6C12.3338 7.84041 10.8423 9.33282 9.0018 9.33333Z" fill="#546C97"/>
</svg>
