<svg width="20" height="20" viewBox="0 0 20 20" fill="none" xmlns="http://www.w3.org/2000/svg">
<path d="M8.66832 10.9574C9.00103 11.2739 9.00103 11.7932 8.66832 12.1097C8.35185 12.4262 7.83251 12.4262 7.51604 12.1097C5.93367 10.5273 5.93367 7.95496 7.51604 6.3726L10.3886 3.5C11.971 1.91764 14.5434 1.91764 16.1257 3.5C17.7081 5.08236 17.7081 7.65472 16.1257 9.23708L14.9166 10.4462C14.9247 9.78077 14.8193 9.11536 14.592 8.48242L14.9734 8.09291C15.931 7.1435 15.931 5.6017 14.9734 4.65229C14.024 3.69475 12.4822 3.69475 11.5328 4.65229L8.66832 7.51677C7.71079 8.46619 7.71079 10.008 8.66832 10.9574ZM10.9567 7.51677C11.2731 7.2003 11.7925 7.2003 12.109 7.51677C13.6913 9.09913 13.6913 11.6715 12.109 13.2539L9.23635 16.1265C7.65399 17.7088 5.08163 17.7088 3.49927 16.1265C1.9169 14.5441 1.9169 11.9717 3.49927 10.3894L4.70836 9.18028C4.70024 9.84569 4.80573 10.5111 5.03294 11.1521L4.65155 11.5335C3.69402 12.483 3.69402 14.0247 4.65155 14.9742C5.60097 15.9317 7.14276 15.9317 8.09218 14.9742L10.9567 12.1097C11.9142 11.1603 11.9142 9.61847 10.9567 8.66906C10.624 8.35258 10.624 7.83324 10.9567 7.51677Z" fill="#3679FD"/>
</svg>
