<svg width="16" height="18" viewBox="0 0 16 18" fill="none" xmlns="http://www.w3.org/2000/svg">
<path d="M9.04375 0.666748C9.25827 0.666748 9.42329 0.841748 9.42329 1.05008V3.73341C9.42329 5.25841 10.6692 6.50841 12.1791 6.51675C12.8061 6.51675 13.3012 6.52508 13.6807 6.52508L13.8213 6.52446C14.0749 6.52253 14.4164 6.51675 14.7121 6.51675C14.9183 6.51675 15.0834 6.68341 15.0834 6.89175V13.5917C15.0834 15.6584 13.4249 17.3334 11.3787 17.3334H4.81108C2.66586 17.3334 0.916687 15.5751 0.916687 13.4084V4.42508C0.916687 2.35841 2.58335 0.666748 4.63781 0.666748H9.04375ZM9.92659 11.4167H5.43814C5.09986 11.4167 4.81933 11.6917 4.81933 12.0334C4.81933 12.3751 5.09986 12.6584 5.43814 12.6584H9.92659C10.2649 12.6584 10.5454 12.3751 10.5454 12.0334C10.5454 11.6917 10.2649 11.4167 9.92659 11.4167ZM8.22692 7.25008H5.43814C5.09986 7.25008 4.81933 7.53341 4.81933 7.87508C4.81933 8.21675 5.09986 8.49175 5.43814 8.49175H8.22692C8.5652 8.49175 8.84573 8.21675 8.84573 7.87508C8.84573 7.53341 8.5652 7.25008 8.22692 7.25008ZM10.6256 1.42175C10.6256 1.06258 11.0571 0.884248 11.3038 1.14341C12.1957 2.08008 13.7543 3.71758 14.6256 4.63258C14.8665 4.88508 14.69 5.30425 14.3426 5.30508C13.6644 5.30758 12.8649 5.30508 12.2898 5.29925C11.3772 5.29925 10.6256 4.54008 10.6256 3.61841V1.42175Z" fill="#838799"/>
</svg>
