<svg width="50" height="50" viewBox="0 0 50 50" fill="none" xmlns="http://www.w3.org/2000/svg">
<rect opacity="0.1" width="50" height="50" rx="10" fill="#3679FD"/>
<path fill-rule="evenodd" clip-rule="evenodd" d="M15.9 36C14.8657 36 13.8737 35.5654 13.1423 34.7918C12.4109 34.0182 12 32.969 12 31.875V18.125C12 17.031 12.4109 15.9818 13.1423 15.2082C13.8737 14.4346 14.8657 14 15.9 14H34.1C35.1343 14 36.1263 14.4346 36.8577 15.2082C37.5891 15.9818 38 17.031 38 18.125V31.875C38 32.969 37.5891 34.0182 36.8577 34.7918C36.1263 35.5654 35.1343 36 34.1 36H15.9ZM19.3125 19.8025C19.1801 19.6829 19.0263 19.5927 18.8602 19.5371C18.6942 19.4816 18.5193 19.4619 18.346 19.4793C18.1726 19.4966 18.0043 19.5506 17.851 19.638C17.6978 19.7255 17.5627 19.8446 17.4538 19.9884C17.3449 20.1321 17.2645 20.2975 17.2172 20.4748C17.1699 20.652 17.1568 20.8375 17.1785 21.0203C17.2003 21.203 17.2566 21.3792 17.3441 21.5385C17.4315 21.6978 17.5483 21.8369 17.6875 21.9475L22.5625 26.0739C23.2542 26.6596 24.1139 26.9788 25 26.9788C25.8861 26.9788 26.7458 26.6596 27.4375 26.0739L32.3125 21.9489C32.4458 21.836 32.5568 21.6965 32.6392 21.5383C32.7215 21.38 32.7736 21.2062 32.7924 21.0267C32.8113 20.8472 32.7965 20.6655 32.7489 20.492C32.7014 20.3185 32.622 20.1566 32.5153 20.0156C32.4086 19.8746 32.2767 19.7572 32.1271 19.6701C31.9775 19.583 31.8131 19.5279 31.6434 19.508C31.4737 19.4881 31.3019 19.5037 31.1379 19.554C30.9739 19.6043 30.8208 19.6883 30.6875 19.8011L25.8125 23.9261C25.5819 24.1214 25.2954 24.2278 25 24.2278C24.7046 24.2278 24.4181 24.1214 24.1875 23.9261L19.3125 19.8011V19.8025Z" fill="#3679FD"/>
</svg>
