<svg width="28" height="28" viewBox="0 0 28 28" fill="none" xmlns="http://www.w3.org/2000/svg">
<path d="M19.7865 0.665649C24.3065 0.665649 27.3332 3.83898 27.3332 8.55898V19.4536C27.3332 24.1603 24.3065 27.3323 19.7865 27.3323H8.2265C3.7065 27.3323 0.666504 24.1603 0.666504 19.4536V8.55898C0.666504 3.83898 3.7065 0.665649 8.2265 0.665649H19.7865ZM13.9865 11.9736C13.3465 11.9736 12.8265 12.5056 12.8265 13.147V19.0403C12.8265 19.6803 13.3465 20.2003 13.9865 20.2003C14.6398 20.2003 15.1598 19.6803 15.1598 19.0403V13.147C15.1598 12.5056 14.6398 11.9736 13.9865 11.9736ZM14.0132 7.74698C13.3598 7.74698 12.8398 8.26698 12.8398 8.92032C12.8398 9.55898 13.3598 10.0803 13.9865 10.0803C14.6532 10.0803 15.1732 9.55898 15.1732 8.92032C15.1732 8.26698 14.6532 7.74698 14.0132 7.74698Z" fill="#3679FD"/>
</svg>
