<svg width="20" height="20" viewBox="0 0 20 20" fill="none" xmlns="http://www.w3.org/2000/svg">
<path d="M10.0003 1.66699C14.6003 1.66699 18.3337 5.40033 18.3337 10.0003C18.3337 14.6087 14.6003 18.3337 10.0003 18.3337C5.39199 18.3337 1.66699 14.6087 1.66699 10.0003C1.66699 5.40033 5.39199 1.66699 10.0003 1.66699ZM13.2087 7.25866C13.3003 6.96699 13.0337 6.69199 12.742 6.78366L8.47533 8.11699C8.30033 8.17533 8.15866 8.30866 8.10866 8.48366L6.77533 12.7587C6.68366 13.042 6.95866 13.317 7.24199 13.2253L11.492 11.892C11.667 11.842 11.8087 11.7003 11.8587 11.5253L13.2087 7.25866Z" fill="#546C97"/>
</svg>
