<svg width="138" height="50" viewBox="0 0 138 50" fill="none" xmlns="http://www.w3.org/2000/svg">
<g clip-path="url(#clip0_972_5156)">
<path d="M20.2651 0.0175781C20.5967 0.171966 20.8067 0.49177 21.0721 0.745407C21.5032 1.12035 21.8239 1.6166 22.2439 2.00256C22.7635 2.49881 23.0951 3.12739 23.5263 3.6898C24.278 4.82566 24.9412 6.0387 25.2839 7.36203C25.6377 8.2663 25.693 9.24777 25.6708 10.2182C25.693 11.1004 25.4498 11.9716 25.0517 12.7656C24.3664 13.9676 23.1283 14.7726 21.8348 15.2027C20.2209 15.5887 18.4411 15.6549 16.8824 14.9711C16.3185 14.6624 15.6774 14.4528 15.2242 13.9676C14.174 13.1075 13.566 11.7069 13.765 10.3505C14.0745 7.93547 15.5227 5.86226 17.0703 4.07577C17.214 4.34044 17.0923 4.64921 17.1919 4.92491C17.3246 5.50937 17.5346 6.12693 17.9768 6.54598C18.5185 6.04973 19.0934 5.55348 19.5577 4.98004C19.9778 4.36249 20.3203 3.67878 20.4641 2.95095C20.4973 2.02462 20.5858 1.05418 20.2319 0.171965L20.2651 0.0175781ZM0.0131875 11.0343C2.59995 11.0563 5.19776 11.0122 7.78463 11.0563C7.78463 13.6258 7.80663 16.1952 7.77346 18.7647C9.60862 18.7978 11.4436 18.7757 13.2897 18.7757C13.3118 18.9742 13.3228 19.1727 13.3228 19.3712C13.3007 21.4885 13.3339 23.5948 13.3007 25.7121C11.4546 25.7342 9.61957 25.7121 7.77346 25.7232C7.80663 29.5277 7.76241 33.3212 7.79557 37.1258C7.8619 37.4566 7.90612 37.7875 7.89506 38.1293C7.86179 38.4382 8.04971 38.6918 8.11615 38.9785C8.25986 39.6401 8.62466 40.2356 9.04462 40.754C9.66378 41.3716 10.4596 41.8017 11.3108 41.989C12.0846 42.1104 12.8584 42.1765 13.6434 42.1213C13.6875 42.2537 13.7097 42.386 13.7097 42.5294C13.6987 44.5144 13.6987 46.4993 13.7097 48.4733C13.7097 48.749 13.6545 49.0247 13.6102 49.2892C12.4937 49.2892 11.3773 49.3664 10.2607 49.2892C9.59746 49.1459 8.89008 49.2121 8.24881 48.9253C6.46903 48.5063 4.76663 47.6241 3.49536 46.2897C1.62715 44.4923 0.621186 41.9559 0.212169 39.4416C0.101624 39.1659 0.167951 38.8461 0.123622 38.5484C-0.0310305 37.9418 0.0351861 37.3021 0.0130771 36.6847C0.00213308 28.1382 0.00213302 19.5807 0.0131875 11.0343ZM37.7754 18.1802C38.2396 18.0589 38.7371 18.1471 39.2014 18.0479C40.1742 17.9266 41.1359 18.081 42.0976 18.114C42.772 18.103 43.4242 18.3015 44.0875 18.4338C46.5526 19.0293 48.8851 20.3416 50.5765 22.2605C50.8749 22.7567 51.3282 23.1206 51.6155 23.6279C52.334 24.7637 52.8095 26.0319 53.2184 27.3111C53.4727 28.2485 53.6053 29.2189 53.727 30.1783C53.7823 32.3067 53.7491 34.4461 53.7602 36.5744C53.7491 40.8201 53.7712 45.0657 53.7491 49.3114C51.1624 49.2783 48.5866 49.3004 46.0109 49.2894C45.9888 49.2783 45.9336 49.2342 45.9115 49.2122C45.9004 43.2683 45.9115 37.3243 45.9115 31.3914C45.9225 30.6636 45.7899 29.9578 45.6351 29.263C45.3587 28.5573 45.005 27.8846 44.5186 27.3111C44.2311 26.9693 43.8332 26.7487 43.5125 26.451C43.0151 26.1202 42.4292 25.9658 41.8655 25.8114C41.567 25.7893 41.2686 25.8114 40.9922 25.7121C39.8094 25.6349 38.6044 25.7342 37.499 26.1863C36.6919 26.5723 35.9402 27.1016 35.4097 27.8405C34.5364 28.8771 34.2489 30.2886 34.271 31.6119C34.271 37.5007 34.2821 43.4006 34.271 49.2894C31.6621 49.3114 29.0533 49.2783 26.4444 49.3114C26.4002 43.6321 26.4444 37.9418 26.4223 32.2626C26.4334 31.5346 26.4113 30.8069 26.4665 30.079C26.6103 29.7151 26.5107 29.3182 26.6212 28.9652C26.8202 27.6198 27.3287 26.3406 27.8925 25.1165C28.4452 24.0468 29.1085 23.0213 29.9707 22.1721C30.6452 21.4884 31.3415 20.7716 32.1928 20.2974C33.84 19.1506 35.7856 18.4559 37.7754 18.1802ZM130.412 18.114C131.374 18.092 132.325 17.9045 133.287 18.0589C133.806 18.1251 134.337 18.114 134.856 18.1361C134.956 19.0955 134.878 20.0659 134.9 21.0254V24.885C134.9 25.1277 134.934 25.3813 134.834 25.6129C134.58 25.4255 134.237 25.4916 133.95 25.4144C132.778 25.3152 131.573 25.3704 130.467 25.8115C129.152 26.2636 128.002 27.223 127.361 28.4692C127.173 28.7007 127.173 29.0316 126.963 29.2521C126.62 30.4872 126.598 31.7775 126.62 33.0457C126.609 38.4713 126.654 43.8859 126.598 49.3115C124.022 49.2784 121.436 49.3115 118.849 49.2895C118.827 49.2674 118.794 49.2233 118.772 49.2012V31.5018C118.738 30.7629 118.904 30.0461 118.893 29.3183C119.07 28.9654 119.026 28.5574 119.137 28.1935C119.689 25.4035 121.159 22.7678 123.392 20.9703C123.824 20.4851 124.443 20.2535 124.951 19.8676C126.599 18.8639 128.511 18.3787 130.412 18.114ZM15.8322 18.7647C18.4411 18.8088 21.0499 18.7536 23.6588 18.7867C23.6588 28.8771 23.6478 38.9563 23.6588 49.0357C23.6588 49.135 23.6588 49.3335 23.504 49.3004H15.8544C15.788 47.6352 15.8433 45.959 15.8212 44.2938C15.8322 35.7914 15.8212 27.2781 15.8322 18.7647ZM97.6909 39.2321C98.3542 38.9785 98.9954 38.6476 99.6696 38.4161C100.642 38.0412 101.593 37.5891 102.566 37.2141C104.578 36.2879 106.656 35.516 108.69 34.6447C109.176 34.38 109.729 34.2587 110.204 33.972C110.746 33.7625 111.288 33.5749 111.819 33.3323C112.283 33.0566 112.813 32.9463 113.289 32.7038C113.919 32.4501 114.527 32.1634 115.168 31.9319C115.82 31.5678 116.55 31.3915 117.202 31.0385C117.379 30.9172 117.666 30.9503 117.777 30.7408C117.589 30.4762 117.688 30.1454 117.589 29.8585C117.445 29.3404 117.301 28.833 117.18 28.3258C116.682 26.7929 115.964 25.3263 114.991 24.0471C113.808 22.3378 112.183 20.9593 110.381 19.9447C109.199 19.2279 107.872 18.8199 106.546 18.467C105.727 18.3678 104.943 18.0811 104.114 18.0921C103.362 17.9928 102.588 17.9487 101.847 18.0811C100.532 18.1031 99.2716 18.4229 98.0225 18.7868C95.8447 19.5477 93.7775 20.7057 92.1083 22.3047C91.6108 22.7678 91.2018 23.3082 90.7265 23.7824C89.9858 24.7308 89.3114 25.7343 88.803 26.815C88.0845 28.4361 87.3991 30.1343 87.3217 31.9319C87.0786 32.792 87.1559 33.6963 87.1448 34.5785C87.1227 35.1409 87.2111 35.6923 87.3217 36.2327C87.2885 36.806 87.5096 37.3354 87.587 37.8868C87.7749 39.0558 88.2945 40.1364 88.7698 41.2171C90.0743 43.8858 92.1303 46.2016 94.7061 47.7124C96.3975 48.749 98.2767 49.4878 100.244 49.7635C101.847 50.0173 103.494 50.0613 105.108 49.8519C105.661 49.8959 106.192 49.6533 106.744 49.6202C109.099 49.0688 111.409 48.0763 113.189 46.4111C113.72 45.9921 114.217 45.4958 114.638 44.9664C115.345 44.2496 115.854 43.3785 116.362 42.5183C116.848 41.6029 117.246 40.6325 117.534 39.6291C117.379 39.5628 117.202 39.585 117.048 39.585C114.461 39.5961 111.885 39.5739 109.298 39.585C109.055 39.585 109.055 39.9158 108.9 40.0481C108.458 40.6877 107.894 41.2281 107.297 41.7354C106.435 42.353 105.418 42.6839 104.412 42.9815C104.147 43.0147 103.893 43.0036 103.649 43.1029C103.03 43.1469 102.4 43.125 101.77 43.114C101.074 42.9816 100.377 42.8272 99.7029 42.6067C98.6639 42.0773 97.6467 41.4708 96.862 40.6106C96.6629 40.3681 96.3424 40.1806 96.276 39.8607C96.4529 39.7835 96.6188 39.6622 96.8176 39.6291C97.1382 39.5739 97.3813 39.3203 97.6909 39.2321ZM94.5071 33.6521C94.3525 33.2661 94.4961 32.814 94.474 32.4059C94.6509 31.8434 94.7062 31.248 94.9161 30.6855C95.4468 29.4394 96.099 28.2154 97.0497 27.2338C97.4918 26.8699 97.8677 26.4288 98.3762 26.1531C98.7521 25.9546 99.1169 25.7341 99.5038 25.5576C100.222 25.3482 100.919 25.0174 101.671 25.0174C102.356 24.852 103.063 24.9402 103.76 24.9511C105.584 25.2049 107.419 25.9877 108.602 27.4323C108.723 27.7192 108.314 27.7412 108.148 27.8515C107.43 28.2485 106.623 28.4469 105.904 28.855C105.584 28.9102 105.307 29.1087 104.998 29.2079C102.71 30.2004 100.377 31.0715 98.1109 32.1082C96.895 32.5824 95.6901 33.0897 94.5071 33.6521ZM86.2715 5.28882C83.8507 5.26676 81.4296 5.28882 79.0088 5.27779C78.8318 5.29985 78.6219 5.22265 78.4781 5.35499C78.5002 10.538 78.4781 15.7321 78.4892 20.9151C78.4781 21.1025 78.5224 21.29 78.445 21.4665C78.2239 21.4334 78.1134 21.2239 77.9476 21.1025C76.8311 20.1431 75.582 19.3271 74.189 18.8529C73.2494 18.489 72.2656 18.3015 71.2707 18.1251C70.1432 18.103 69.0046 18.0699 67.8658 18.1361C67.7442 18.1692 67.6337 18.2023 67.5122 18.2133C64.9807 18.5662 62.6149 19.7461 60.6695 21.3672C59.5861 22.3818 58.5028 23.4404 57.74 24.7196C56.8446 25.9878 56.2698 27.4435 55.717 28.8771C55.4628 29.7813 55.2084 30.6746 55.0979 31.6009C54.8878 33.0235 54.9763 34.4791 54.9984 35.9128C55.0537 36.2877 55.1753 36.6406 55.1863 37.0155C55.3853 38.2286 55.739 39.4196 56.2253 40.5554C56.6343 41.6472 57.2976 42.6396 57.9056 43.6321C58.3367 44.1835 58.7568 44.757 59.2764 45.2422C60.0502 46.0031 60.8128 46.8302 61.7856 47.3595C62.9353 48.2307 64.295 48.7491 65.6216 49.2563C66.108 49.3445 66.5612 49.6202 67.0586 49.6312C67.4787 49.6643 67.8656 49.8628 68.2858 49.8406C68.5069 49.8186 68.7059 49.973 68.9379 49.9509C70.0102 49.984 71.0935 49.984 72.1658 49.9509C72.3427 49.9509 72.5196 49.8737 72.7075 49.8627C73.448 49.8737 74.1334 49.587 74.852 49.4877C75.7916 49.1459 76.7977 48.9253 77.6709 48.4182C78.9642 47.8227 80.136 46.9846 81.1862 46.0361C82.5128 44.8893 83.585 43.4557 84.381 41.8897C84.7237 41.1949 85.1106 40.5222 85.3317 39.7723C85.7518 38.7357 85.9397 37.633 86.0835 36.5412C86.3266 35.5818 86.2493 34.5783 86.2713 33.5858C86.2715 24.1572 86.2715 14.7285 86.2715 5.28882ZM78.4119 35.1518C78.3455 36.3209 77.9033 37.4346 77.3838 38.4822C76.5105 40.1253 75.0402 41.3825 73.371 42.1765C73.1166 42.3088 72.785 42.2979 72.6082 42.5404C72.2987 42.5404 71.9892 42.5515 71.6907 42.6618C70.7399 42.6839 69.7562 42.7721 68.8276 42.5074C68.4296 42.32 67.9874 42.2429 67.5895 42.0332C67.092 41.7575 66.5282 41.5701 66.1192 41.151C65.3454 40.6107 64.7486 39.8718 64.2068 39.1109C63.7757 38.372 63.3445 37.6111 63.1456 36.773C62.9245 36.3319 62.9465 35.8357 62.825 35.3725C62.7918 34.1927 62.7255 32.9796 63.0019 31.8326C63.1236 31.4687 63.2009 31.0827 63.3335 30.7188C63.6541 30.1342 63.8531 29.4837 64.2731 28.9544C64.4942 28.4912 64.8811 28.1492 65.1908 27.7524C66.0198 26.804 67.1585 26.1975 68.308 25.7233C68.7391 25.6241 69.1592 25.4036 69.6126 25.4036C70.5301 25.1719 71.4807 25.3595 72.3873 25.5249C73.5811 25.955 74.764 26.5505 75.6926 27.4327C76.0352 27.7525 76.2894 28.1495 76.6322 28.4693C78.0471 30.3658 78.6992 32.8029 78.4119 35.1518ZM130.346 45.4297H133.242C133.253 45.6502 133.253 45.8708 133.242 46.0913C132.911 46.1354 132.579 46.0803 132.258 46.1244C132.214 47.1169 132.258 48.0984 132.236 49.0909C131.938 49.0688 131.639 49.0688 131.352 49.0798C131.319 48.2968 131.33 47.5028 131.341 46.7199C131.341 46.5104 131.385 46.2678 131.197 46.1244C130.91 46.0804 130.622 46.1355 130.335 46.0913C130.324 45.8708 130.324 45.6502 130.346 45.4297ZM133.773 45.4407C134.182 45.4296 134.591 45.4075 135 45.4626C134.978 45.7824 135.243 46.003 135.321 46.3008C135.431 46.6757 135.597 47.0287 135.707 47.4036C135.796 47.569 135.951 47.7124 135.895 47.9219C136.116 47.0617 136.459 46.2457 136.802 45.4407C137.189 45.4296 137.587 45.4186 137.985 45.4407C138.007 46.6205 137.985 47.8227 137.985 49.0026C137.719 49.0247 137.454 49.0247 137.178 49.0026C137.189 48.1756 137.178 47.3485 137.2 46.5324C137.1 46.6206 137.001 46.6978 136.923 46.8081C136.78 47.558 136.393 48.2417 136.205 48.9916C135.984 49.0248 135.774 49.0248 135.553 49.0027C135.486 48.5837 135.188 48.2418 135.188 47.8118C134.889 47.4477 134.878 46.9295 134.646 46.5215C134.491 46.8193 134.613 47.172 134.58 47.4919C134.536 48.0102 134.635 48.5396 134.536 49.0579C134.27 49.0579 133.972 49.1461 133.762 48.9586C133.795 47.7896 133.762 46.6207 133.773 45.4407Z" fill="#DF4723" stroke="#DF4723" stroke-width="0.188247"/>
</g>
<defs>
<clipPath id="clip0_972_5156">
<rect width="138" height="50" fill="white"/>
</clipPath>
</defs>
</svg>
