<svg width="20" height="20" viewBox="0 0 20 20" fill="none" xmlns="http://www.w3.org/2000/svg">
<path d="M11.0441 1.6665C11.2586 1.6665 11.4236 1.8415 11.4236 2.04984V4.73317C11.4236 6.25817 12.6695 7.50817 14.1794 7.5165C14.8064 7.5165 15.3015 7.52484 15.681 7.52484L15.8216 7.52422C16.0752 7.52229 16.4167 7.5165 16.7124 7.5165C16.9186 7.5165 17.0837 7.68317 17.0837 7.8915V14.5915C17.0837 16.6582 15.4252 18.3332 13.379 18.3332H6.81138C4.66617 18.3332 2.91699 16.5748 2.91699 14.4082V5.42484C2.91699 3.35817 4.58366 1.6665 6.63811 1.6665H11.0441ZM11.9269 12.4165H7.43844C7.10016 12.4165 6.81963 12.6915 6.81963 13.0332C6.81963 13.3748 7.10016 13.6582 7.43844 13.6582H11.9269C12.2652 13.6582 12.5457 13.3748 12.5457 13.0332C12.5457 12.6915 12.2652 12.4165 11.9269 12.4165ZM10.2272 8.24984H7.43844C7.10016 8.24984 6.81963 8.53317 6.81963 8.87484C6.81963 9.2165 7.10016 9.4915 7.43844 9.4915H10.2272C10.5655 9.4915 10.846 9.2165 10.846 8.87484C10.846 8.53317 10.5655 8.24984 10.2272 8.24984ZM12.6259 2.4215C12.6259 2.06234 13.0574 1.884 13.3041 2.14317C14.196 3.07984 15.7546 4.71734 16.6259 5.63234C16.8668 5.88484 16.6903 6.304 16.3429 6.30484C15.6647 6.30734 14.8652 6.30484 14.2901 6.299C13.3776 6.299 12.6259 5.53984 12.6259 4.61817V2.4215Z" fill="#546C97"/>
</svg>
