<svg width="20" height="20" viewBox="0 0 20 20" fill="none" xmlns="http://www.w3.org/2000/svg">
<path d="M7.91666 1.66667C7.58514 1.66667 7.26719 1.79837 7.03277 2.03279C6.79835 2.26721 6.66666 2.58515 6.66666 2.91667V3.75001C6.66666 4.08153 6.79835 4.39947 7.03277 4.63389C7.26719 4.86831 7.58514 5.00001 7.91666 5.00001H12.0833C12.4148 5.00001 12.7328 4.86831 12.9672 4.63389C13.2016 4.39947 13.3333 4.08153 13.3333 3.75001V2.91667C13.3333 2.58515 13.2016 2.26721 12.9672 2.03279C12.7328 1.79837 12.4148 1.66667 12.0833 1.66667H7.91666Z" fill="#838799"/>
<path fill-rule="evenodd" clip-rule="evenodd" d="M5.41667 3.36417C4.36833 3.4225 3.70667 3.58917 3.2325 4.06417C2.5 4.79667 2.5 5.975 2.5 8.33167V13.3317C2.5 15.6892 2.5 16.8675 3.2325 17.6C3.96417 18.3317 5.14333 18.3317 7.5 18.3317H12.5C14.8567 18.3317 16.0358 18.3317 16.7675 17.6C17.5 16.8667 17.5 15.6892 17.5 13.3317V8.33167C17.5 5.975 17.5 4.79667 16.7675 4.06417C16.2933 3.58917 15.6317 3.4225 14.5833 3.36417V3.75C14.5833 4.41304 14.3199 5.04893 13.8511 5.51777C13.3823 5.98661 12.7464 6.25 12.0833 6.25H7.91667C7.25363 6.25 6.61774 5.98661 6.1489 5.51777C5.68006 5.04893 5.41667 4.41304 5.41667 3.75V3.36417Z" fill="#838799"/>
<path d="M10 11.9899C10.7848 11.9899 11.421 11.3206 11.421 10.4949C11.421 9.6693 10.7848 9 10 9C9.21523 9 8.57904 9.6693 8.57904 10.4949C8.57904 11.3206 9.21523 11.9899 10 11.9899Z" fill="white"/>
<path d="M12.8419 14.1388C12.8419 15.0675 12.8419 15.8206 10 15.8206C7.15808 15.8206 7.15808 15.0675 7.15808 14.1388C7.15808 13.2101 8.43055 12.457 10 12.457C11.5695 12.457 12.8419 13.2101 12.8419 14.1388Z" fill="white"/>
</svg>
