<svg width="18" height="18" viewBox="0 0 18 18" fill="none" xmlns="http://www.w3.org/2000/svg">
<path d="M12.8837 0.666504C15.717 0.666504 17.3337 2.2665 17.3337 5.10817V12.8915C17.3337 15.7165 15.7253 17.3332 12.892 17.3332H5.10866C2.26699 17.3332 0.666992 15.7165 0.666992 12.8915V5.10817C0.666992 2.2665 2.26699 0.666504 5.10866 0.666504H12.8837ZM8.99199 5.25817C8.60866 5.25817 8.30033 5.5665 8.30033 5.94984V8.29984H5.94199C5.75866 8.29984 5.58366 8.37484 5.45033 8.49984C5.32533 8.63317 5.25033 8.80734 5.25033 8.9915C5.25033 9.37484 5.55866 9.68317 5.94199 9.6915H8.30033V12.0498C8.30033 12.4332 8.60866 12.7415 8.99199 12.7415C9.37533 12.7415 9.68366 12.4332 9.68366 12.0498V9.6915H12.0503C12.4337 9.68317 12.742 9.37484 12.742 8.9915C12.742 8.60817 12.4337 8.29984 12.0503 8.29984H9.68366V5.94984C9.68366 5.5665 9.37533 5.25817 8.99199 5.25817Z" fill="white"/>
</svg>
