<svg width="14" height="13" viewBox="0 0 14 13" fill="none" xmlns="http://www.w3.org/2000/svg">
<path d="M8.23188 12.6857C7.81159 13.1048 7.11594 13.1048 6.69565 12.6857C6.49275 12.4689 6.37681 12.1928 6.37681 11.9197C6.37681 11.6451 6.49275 11.356 6.69565 11.1537L10.2899 7.58394L1.08696 7.58393C0.47826 7.58393 -4.38492e-07 7.107 -3.85426e-07 6.5C-3.33624e-07 5.90745 0.47826 5.41606 1.08696 5.41606L10.2899 5.41606L6.69565 1.86076C6.27536 1.42718 6.27536 0.747916 6.69565 0.314342C7.11594 -0.10478 7.81159 -0.10478 8.23188 0.314342L13.6957 5.73402C14.1014 6.13869 14.1014 6.86131 13.6957 7.26598L8.23188 12.6857Z" fill="#546C97"/>
</svg>
