<svg width="20" height="20" viewBox="0 0 20 20" fill="none" xmlns="http://www.w3.org/2000/svg">
<path d="M7.91666 1.66667C7.58514 1.66667 7.26719 1.79837 7.03277 2.03279C6.79835 2.26721 6.66666 2.58515 6.66666 2.91667V3.75001C6.66666 4.08153 6.79835 4.39947 7.03277 4.63389C7.26719 4.86831 7.58514 5.00001 7.91666 5.00001H12.0833C12.4148 5.00001 12.7328 4.86831 12.9672 4.63389C13.2016 4.39947 13.3333 4.08153 13.3333 3.75001V2.91667C13.3333 2.58515 13.2016 2.26721 12.9672 2.03279C12.7328 1.79837 12.4148 1.66667 12.0833 1.66667H7.91666Z" fill="#838799"/>
<path fill-rule="evenodd" clip-rule="evenodd" d="M5.41667 3.36417C4.36833 3.4225 3.70667 3.58917 3.2325 4.06417C2.5 4.79667 2.5 5.975 2.5 8.33167V13.3317C2.5 15.6892 2.5 16.8675 3.2325 17.6C3.96417 18.3317 5.14333 18.3317 7.5 18.3317H12.5C14.8567 18.3317 16.0358 18.3317 16.7675 17.6C17.5 16.8667 17.5 15.6892 17.5 13.3317V8.33167C17.5 5.975 17.5 4.79667 16.7675 4.06417C16.2933 3.58917 15.6317 3.4225 14.5833 3.36417V3.75C14.5833 4.41304 14.3199 5.04893 13.8511 5.51777C13.3823 5.98661 12.7464 6.25 12.0833 6.25H7.91667C7.25363 6.25 6.61774 5.98661 6.1489 5.51777C5.68006 5.04893 5.41667 4.41304 5.41667 3.75V3.36417ZM5.83333 8.125C5.66757 8.125 5.5086 8.19085 5.39139 8.30806C5.27418 8.42527 5.20833 8.58424 5.20833 8.75C5.20833 8.91576 5.27418 9.07473 5.39139 9.19194C5.5086 9.30915 5.66757 9.375 5.83333 9.375H6.25C6.41576 9.375 6.57473 9.30915 6.69194 9.19194C6.80915 9.07473 6.875 8.91576 6.875 8.75C6.875 8.58424 6.80915 8.42527 6.69194 8.30806C6.57473 8.19085 6.41576 8.125 6.25 8.125H5.83333ZM8.75 8.125C8.58424 8.125 8.42527 8.19085 8.30806 8.30806C8.19085 8.42527 8.125 8.58424 8.125 8.75C8.125 8.91576 8.19085 9.07473 8.30806 9.19194C8.42527 9.30915 8.58424 9.375 8.75 9.375H14.1667C14.3324 9.375 14.4914 9.30915 14.6086 9.19194C14.7258 9.07473 14.7917 8.91576 14.7917 8.75C14.7917 8.58424 14.7258 8.42527 14.6086 8.30806C14.4914 8.19085 14.3324 8.125 14.1667 8.125H8.75ZM5.83333 11.0417C5.66757 11.0417 5.5086 11.1075 5.39139 11.2247C5.27418 11.3419 5.20833 11.5009 5.20833 11.6667C5.20833 11.8324 5.27418 11.9914 5.39139 12.1086C5.5086 12.2258 5.66757 12.2917 5.83333 12.2917H6.25C6.41576 12.2917 6.57473 12.2258 6.69194 12.1086C6.80915 11.9914 6.875 11.8324 6.875 11.6667C6.875 11.5009 6.80915 11.3419 6.69194 11.2247C6.57473 11.1075 6.41576 11.0417 6.25 11.0417H5.83333ZM8.75 11.0417C8.58424 11.0417 8.42527 11.1075 8.30806 11.2247C8.19085 11.3419 8.125 11.5009 8.125 11.6667C8.125 11.8324 8.19085 11.9914 8.30806 12.1086C8.42527 12.2258 8.58424 12.2917 8.75 12.2917H14.1667C14.3324 12.2917 14.4914 12.2258 14.6086 12.1086C14.7258 11.9914 14.7917 11.8324 14.7917 11.6667C14.7917 11.5009 14.7258 11.3419 14.6086 11.2247C14.4914 11.1075 14.3324 11.0417 14.1667 11.0417H8.75ZM5.83333 13.9583C5.66757 13.9583 5.5086 14.0242 5.39139 14.1414C5.27418 14.2586 5.20833 14.4176 5.20833 14.5833C5.20833 14.7491 5.27418 14.9081 5.39139 15.0253C5.5086 15.1425 5.66757 15.2083 5.83333 15.2083H6.25C6.41576 15.2083 6.57473 15.1425 6.69194 15.0253C6.80915 14.9081 6.875 14.7491 6.875 14.5833C6.875 14.4176 6.80915 14.2586 6.69194 14.1414C6.57473 14.0242 6.41576 13.9583 6.25 13.9583H5.83333ZM8.75 13.9583C8.58424 13.9583 8.42527 14.0242 8.30806 14.1414C8.19085 14.2586 8.125 14.4176 8.125 14.5833C8.125 14.7491 8.19085 14.9081 8.30806 15.0253C8.42527 15.1425 8.58424 15.2083 8.75 15.2083H14.1667C14.3324 15.2083 14.4914 15.1425 14.6086 15.0253C14.7258 14.9081 14.7917 14.7491 14.7917 14.5833C14.7917 14.4176 14.7258 14.2586 14.6086 14.1414C14.4914 14.0242 14.3324 13.9583 14.1667 13.9583H8.75Z" fill="#838799"/>
</svg>
