<svg width="92" height="72" viewBox="0 0 92 72" fill="none" xmlns="http://www.w3.org/2000/svg">
<g clip-path="url(#clip0_972_5176)">
<path d="M90.1871 71.0235V71.2086H90.3586C90.3908 71.2091 90.4226 71.2009 90.4506 71.185C90.4618 71.177 90.4708 71.1663 90.4769 71.154C90.4829 71.1416 90.4857 71.1279 90.4851 71.1142C90.4857 71.1007 90.4828 71.0872 90.4768 71.0752C90.4708 71.0631 90.4618 71.0528 90.4506 71.0452C90.4229 71.0285 90.3909 71.0202 90.3586 71.0216H90.1871V71.0235ZM90.3605 70.8925C90.434 70.888 90.5069 70.9092 90.5666 70.9527C90.5905 70.9724 90.6095 70.9975 90.622 71.0259C90.6346 71.0544 90.6403 71.0854 90.6388 71.1165C90.6399 71.1432 90.6353 71.1699 90.6253 71.1947C90.6153 71.2196 90.6001 71.2419 90.5808 71.2604C90.5348 71.3007 90.477 71.3248 90.4161 71.3293L90.6461 71.5931H90.469L90.2574 71.3312H90.1889V71.5931H90.0408V70.893H90.3628L90.3605 70.8925ZM90.3145 71.8346C90.3922 71.8354 90.4691 71.8196 90.5403 71.7883C90.609 71.7586 90.6714 71.7161 90.7243 71.6629C90.7773 71.6099 90.8197 71.547 90.849 71.4779C90.9094 71.3312 90.9094 71.1664 90.849 71.0198C90.8192 70.9508 90.777 70.888 90.7243 70.8347C90.6714 70.7816 90.609 70.739 90.5403 70.7093C90.4687 70.6797 90.3919 70.6649 90.3145 70.6658C90.2357 70.665 90.1576 70.6798 90.0845 70.7093C90.0143 70.7384 89.9504 70.781 89.8963 70.8347C89.815 70.9186 89.7599 71.0248 89.7381 71.14C89.7163 71.2552 89.7286 71.3743 89.7735 71.4825C89.8015 71.5519 89.8433 71.6149 89.8963 71.6676C89.9504 71.7212 90.0143 71.7638 90.0845 71.793C90.1571 71.8242 90.2355 71.84 90.3145 71.8392M90.3145 70.4973C90.5166 70.4971 90.7108 70.5769 90.855 70.7195C90.9245 70.7879 90.9798 70.8695 91.0178 70.9596C91.0571 71.0521 91.0774 71.1517 91.0774 71.2523C91.0774 71.3529 91.0571 71.4524 91.0178 71.545C90.979 71.6346 90.9237 71.716 90.855 71.7851C90.7844 71.8532 90.7023 71.908 90.6126 71.9471C90.5183 71.9873 90.4169 72.0078 90.3145 72.0072C90.2109 72.008 90.1082 71.9875 90.0127 71.9471C89.9219 71.9089 89.8391 71.854 89.7684 71.7851C89.6997 71.7135 89.6452 71.6293 89.6079 71.5371C89.5686 71.4446 89.5483 71.345 89.5483 71.2444C89.5483 71.1438 89.5686 71.0442 89.6079 70.9517C89.6459 70.8616 89.7012 70.78 89.7708 70.7116C89.8404 70.6415 89.9235 70.5864 90.015 70.5496C90.1105 70.5092 90.2132 70.4887 90.3168 70.4895M19.8793 67.7936C19.8793 66.4587 20.7487 65.362 22.1696 65.362C23.5275 65.362 24.4439 66.4115 24.4439 67.7936C24.4439 69.1758 23.5275 70.2253 22.1696 70.2253C20.7487 70.2253 19.8793 69.1286 19.8793 67.7936ZM25.9918 67.7936V63.9947H24.35V64.9201C23.8293 64.2362 23.0395 63.8073 21.9654 63.8073C19.8494 63.8073 18.1888 65.4768 18.1888 67.7955C18.1888 70.1142 19.8485 71.7837 21.9654 71.7837C23.039 71.7837 23.8293 71.3543 24.35 70.6709V71.5931H25.9899V67.7936H25.9918ZM81.4641 67.7936C81.4641 66.4587 82.3335 65.362 83.7549 65.362C85.1142 65.362 86.0291 66.4115 86.0291 67.7936C86.0291 69.1758 85.1142 70.2253 83.7549 70.2253C82.3339 70.2253 81.4641 69.1286 81.4641 67.7936ZM87.5784 67.7936V60.9453H85.9353V64.9201C85.4146 64.2362 84.6247 63.8073 83.5506 63.8073C81.4346 63.8073 79.774 65.4768 79.774 67.7955C79.774 70.1142 81.4337 71.7837 83.5506 71.7837C84.6247 71.7837 85.4146 71.3543 85.9353 70.6709V71.5931H87.5784V67.7936ZM46.3679 65.2838C47.4259 65.2838 48.1053 65.9511 48.2788 67.1259H44.3614C44.5367 66.0293 45.1986 65.2838 46.3684 65.2838M46.401 63.8031C44.1884 63.8031 42.6405 65.4226 42.6405 67.7913C42.6405 70.2063 44.2505 71.7796 46.511 71.7796C47.6481 71.7796 48.6895 71.4941 49.6059 70.7153L48.8013 69.4914C48.1684 70.0004 47.3624 70.2859 46.6048 70.2859C45.5468 70.2859 44.5836 69.7931 44.3467 68.4257H49.9527C49.9688 68.2203 49.9854 68.013 49.9854 67.7909C49.9688 65.4231 48.5134 63.8026 46.4001 63.8026M66.2215 67.7909C66.2215 66.4559 67.0909 65.3592 68.5119 65.3592C69.8698 65.3592 70.7861 66.4087 70.7861 67.7909C70.7861 69.173 69.8698 70.2225 68.5119 70.2225C67.0909 70.2225 66.2211 69.1258 66.2211 67.7909M72.3335 67.7909V63.9947H70.6927V64.9201C70.1702 64.2362 69.3822 63.8073 68.3081 63.8073C66.1921 63.8073 64.5315 65.4768 64.5315 67.7955C64.5315 70.1142 66.1911 71.7837 68.3081 71.7837C69.3822 71.7837 70.1702 71.3543 70.6927 70.6709V71.5931H72.334V67.7936L72.3335 67.7909ZM56.9502 67.7909C56.9502 70.0948 58.5446 71.7791 60.978 71.7791C62.1151 71.7791 62.8727 71.5246 63.692 70.8735L62.9035 69.5386C62.2871 69.9842 61.6399 70.2225 60.9255 70.2225C59.615 70.2063 58.6513 69.2531 58.6513 67.7909C58.6513 66.3287 59.615 65.3759 60.9255 65.3592C61.6381 65.3592 62.2853 65.5976 62.9035 66.0432L63.692 64.7082C62.8713 64.0571 62.1137 63.8026 60.978 63.8026C58.5446 63.8026 56.9502 65.4865 56.9502 67.7909ZM78.1148 63.8026C77.1677 63.8026 76.5508 64.2482 76.1244 64.9155V63.9947H74.4974V71.5889H76.1409V67.3318C76.1409 66.0751 76.6778 65.3768 77.7509 65.3768C78.1024 65.3717 78.4513 65.4367 78.7777 65.5679L79.2837 64.0113C78.9203 63.8674 78.4465 63.804 78.1139 63.804M34.1085 64.5985C33.3186 64.0747 32.2303 63.804 31.0297 63.804C29.117 63.804 27.8856 64.7262 27.8856 66.2352C27.8856 67.4734 28.8024 68.2374 30.4906 68.4757L31.2661 68.5868C32.1663 68.714 32.5914 68.9523 32.5914 69.3813C32.5914 69.9685 31.9934 70.3035 30.8705 70.3035C29.7334 70.3035 28.9128 69.9379 28.3594 69.509L27.588 70.7967C28.4882 71.464 29.6253 71.7823 30.8567 71.7823C33.0371 71.7823 34.3007 70.7495 34.3007 69.3035C34.3007 67.9686 33.3062 67.2703 31.6631 67.032L30.8894 66.9191C30.1787 66.8265 29.6092 66.6826 29.6092 66.1736C29.6092 65.6184 30.146 65.2843 31.0467 65.2843C32.0104 65.2843 32.9433 65.6498 33.4005 65.9353L34.1112 64.6004L34.1085 64.5985ZM55.2919 63.8054C54.3448 63.8054 53.7279 64.251 53.3033 64.9183V63.9947H51.6763V71.5889H53.3181V67.3318C53.3181 66.0751 53.8549 65.3768 54.9281 65.3768C55.2795 65.3717 55.6284 65.4367 55.9548 65.5679L56.4608 64.0113C56.0974 63.8674 55.6236 63.804 55.291 63.804M41.2822 63.9947H38.5976V61.6908H36.9379V63.9947H35.4066V65.5041H36.9379V68.9685C36.9379 70.7306 37.6178 71.78 39.5599 71.78C40.2725 71.78 41.0931 71.5579 41.6138 71.1928L41.1396 69.7787C40.6497 70.0642 40.1128 70.2081 39.686 70.2081C38.8653 70.2081 38.5976 69.6991 38.5976 68.937V65.5055H41.2822V63.9947ZM16.737 71.5908V66.8247C16.737 65.0298 15.5999 63.8221 13.7668 63.8059C12.8031 63.7897 11.809 64.0914 11.1131 65.157C10.5923 64.3149 9.77169 63.8059 8.61801 63.8059C7.81163 63.8059 7.02365 64.0442 6.40679 64.9335V63.9947H4.76367V71.5889H6.41967V67.3781C6.41967 66.0598 7.14647 65.3592 8.26887 65.3592C9.35907 65.3592 9.91061 66.0742 9.91061 67.3615V71.588H11.5703V67.3772C11.5703 66.0589 12.3279 65.3583 13.4177 65.3583C14.5387 65.3583 15.0737 66.0732 15.0737 67.3605V71.5871L16.737 71.5908Z" fill="#231F20"/>
<path d="M91.1227 46.3293V45.2188H90.8352L90.5026 45.9809L90.1719 45.2188H89.8835V46.3293H90.0877V45.4927L90.3987 46.2145H90.6103L90.9212 45.4908V46.3293H91.1236H91.1227ZM89.2988 46.3293V45.4089H89.6668V45.2215H88.7266V45.4089H89.0946V46.3293H89.297H89.2988Z" fill="#F79410"/>
<path d="M58.446 51.0921H33.5664V6.11523H58.4464L58.446 51.0921Z" fill="#FF5F00"/>
<path d="M35.144 28.6043C35.144 19.4808 39.3907 11.3535 46.0037 6.11587C40.998 2.14544 34.8068 -0.00944362 28.4321 3.11112e-05C12.7291 3.11112e-05 0 12.8064 0 28.6043C0 44.4022 12.7291 57.2086 28.4321 57.2086C34.8069 57.2181 40.9983 55.0633 46.0041 51.0927C39.3916 45.8561 35.144 37.7283 35.144 28.6043Z" fill="#EB001B"/>
<path d="M92.0113 28.6043C92.0113 44.4022 79.2822 57.2086 63.5792 57.2086C57.2037 57.218 51.0116 55.0631 46.0049 51.0927C52.6197 45.8551 56.8664 37.7283 56.8664 28.6043C56.8664 19.4803 52.6197 11.3534 46.0049 6.11587C51.0115 2.14556 57.2034 -0.00927754 63.5787 3.0026e-05C79.2817 3.0026e-05 92.0109 12.8064 92.0109 28.6043" fill="#F79E1B"/>
</g>
<defs>
<clipPath id="clip0_972_5176">
<rect width="92" height="72" fill="white"/>
</clipPath>
</defs>
</svg>
