<svg width="20" height="20" viewBox="0 0 20 20" fill="none" xmlns="http://www.w3.org/2000/svg">
<path d="M13.8881 1.67512C15.0868 1.60019 16.269 2.01643 17.1597 2.83225C17.9755 3.723 18.3918 4.90511 18.3252 6.11219V13.8875C18.4001 15.0946 17.9755 16.2767 17.168 17.1674C16.2773 17.9832 15.0868 18.3995 13.8881 18.3246H6.11272C4.90562 18.3995 3.7235 17.9832 2.83275 17.1674C2.01692 16.2767 1.60068 15.0946 1.6756 13.8875V6.11219C1.60068 4.90511 2.01692 3.723 2.83275 2.83225C3.7235 2.01643 4.90562 1.60019 6.11272 1.67512H13.8881ZM13.6716 5.47951C13.1555 4.96338 12.323 4.96338 11.8069 5.47951L11.2491 6.04559C11.1659 6.12884 11.1659 6.27036 11.2491 6.35361C11.2491 6.35361 11.2655 6.36985 11.2945 6.39876L11.4993 6.60241C11.6178 6.72026 11.7656 6.86743 11.9141 7.01542L12.4175 7.51859C12.5225 7.62411 12.5922 7.69481 12.5977 7.70221C12.6893 7.80211 12.7476 7.93531 12.7476 8.08515C12.7476 8.38484 12.5062 8.63458 12.1981 8.63458C12.0566 8.63458 11.9234 8.57631 11.8318 8.48474L10.4416 7.10283C10.375 7.03624 10.2585 7.03624 10.1919 7.10283L6.22094 11.0737C5.94622 11.3484 5.78805 11.7147 5.77973 12.106L5.72978 14.0789C5.72978 14.1872 5.76308 14.2871 5.838 14.362C5.91292 14.4369 6.01282 14.4785 6.12104 14.4785H8.07737C8.47696 14.4785 8.8599 14.3204 9.15126 14.0373L14.7538 8.41814C15.2617 7.90201 15.2617 7.06954 14.7538 6.56173L13.6716 5.47951Z" fill="#546C97"/>
</svg>
