<svg width="141" height="52" viewBox="0 0 141 52" fill="none" xmlns="http://www.w3.org/2000/svg">
<g clip-path="url(#clip0_972_5185)">
<path d="M19.9508 0.00488281H21.3914C26.3928 0.111805 31.3126 2.08986 34.8461 5.59156C33.5414 6.90135 32.2095 8.15768 30.932 9.46748C28.9478 7.70327 26.5559 6.34001 23.9465 5.85886C20.0867 5.05695 15.928 5.77867 12.6934 7.94384C9.15988 10.2159 6.76794 14.0651 6.25149 18.1816C5.68069 22.2447 6.84948 26.5215 9.54042 29.6757C12.1226 32.7497 16.0639 34.6743 20.1411 34.808C23.9465 35.0218 27.9149 33.8724 30.6874 31.2528C32.8619 29.4084 33.8676 26.6017 34.1938 23.8752C29.6817 23.8752 25.1696 23.9019 20.6575 23.8752V18.3687H39.6572C40.6357 24.2762 39.2223 30.9321 34.6559 35.1555C31.6116 38.1493 27.3985 39.9135 23.1038 40.261C18.9451 40.662 14.6505 39.8868 10.9538 37.9087C6.52331 35.5832 2.98975 31.6538 1.25015 27.0294C-0.380723 22.7793 -0.407904 17.9678 1.11424 13.6909C2.50049 9.78824 5.16424 6.34001 8.58908 3.93427C11.878 1.55525 15.8736 0.245457 19.9508 0.00488281Z" fill="#3780FF"/>
<path d="M128.947 1.39453H134.764V39.5657C132.834 39.5657 130.877 39.5924 128.947 39.5389C128.974 26.842 128.947 14.1182 128.947 1.39453Z" fill="#38B137"/>
<path d="M52.5951 14.6258C56.183 13.9575 60.0699 14.706 63.0327 16.8177C65.7236 18.6888 67.5991 21.6292 68.1699 24.8368C68.9038 28.5524 67.9797 32.6154 65.5334 35.5558C62.8968 38.8436 58.575 40.6078 54.3619 40.3405C50.5021 40.1267 46.7511 38.2288 44.4679 35.1281C41.8857 31.7066 41.2605 27.002 42.674 22.9924C44.0874 18.6888 48.083 15.401 52.5951 14.6258ZM53.4105 19.7046C51.9428 20.0788 50.5837 20.9075 49.6052 22.0836C46.9686 25.1843 47.1317 30.2364 50.0401 33.1233C51.6981 34.7806 54.1988 35.5558 56.5092 35.1013C58.6565 34.7271 60.532 33.3104 61.5649 31.4393C63.3589 28.2583 62.8424 23.8745 60.0971 21.3886C58.3303 19.7848 55.7481 19.1165 53.4105 19.7046Z" fill="#FA3913"/>
<path d="M81.4078 14.6258C85.5122 13.8506 89.9971 14.9733 93.0686 17.8067C98.0699 22.2173 98.6136 30.477 94.3461 35.5558C91.7639 38.7634 87.578 40.5277 83.4464 40.3405C79.5052 40.2336 75.6183 38.309 73.2807 35.1281C70.6441 31.6264 70.0733 26.8149 71.5682 22.7251C73.0632 18.5552 76.9773 15.3743 81.4078 14.6258ZM82.2233 19.7046C80.7555 20.0788 79.3964 20.9075 78.4179 22.0569C75.8085 25.1042 75.9172 30.076 78.7169 32.9897C80.375 34.7271 82.9572 35.5825 85.3491 35.1014C87.4693 34.7004 89.3719 33.3104 90.4048 31.4393C92.1716 28.2316 91.6552 23.8478 88.8827 21.3619C87.1159 19.7581 84.5337 19.1165 82.2233 19.7046Z" fill="#FCBD06"/>
<path d="M105.844 16.177C108.969 14.2524 113.128 13.7178 116.499 15.3751C117.559 15.8295 118.428 16.6047 119.271 17.3799C119.298 16.6582 119.271 15.9097 119.298 15.1612C121.119 15.188 122.941 15.1612 124.789 15.188V38.7643C124.762 42.3194 123.838 46.0884 121.228 48.6813C118.374 51.5414 113.998 52.4236 110.057 51.8355C105.844 51.2207 102.174 48.2001 100.543 44.3777C102.174 43.6025 103.887 42.9877 105.572 42.266C106.523 44.4579 108.453 46.329 110.872 46.7567C113.291 47.1844 116.091 46.5963 117.667 44.6182C119.353 42.5867 119.353 39.8068 119.271 37.3208C118.021 38.5237 116.58 39.5929 114.841 39.9939C111.062 41.0364 106.904 39.7533 103.995 37.2406C101.06 34.728 99.3201 30.852 99.4832 27.0029C99.5647 22.6458 102.065 18.4491 105.844 16.177ZM111.47 19.5985C109.812 19.8658 108.263 20.7747 107.203 22.031C104.648 25.0248 104.648 29.8096 107.23 32.7499C108.698 34.4874 111.062 35.4497 113.346 35.2091C115.493 34.9953 117.477 33.6587 118.537 31.8143C120.331 28.6869 120.032 24.4367 117.613 21.7102C116.118 20.0262 113.726 19.1976 111.47 19.5985Z" fill="#3780FF"/>
<path d="M141.75 17.5394C145.012 14.5456 150.04 13.5298 154.226 15.1069C158.195 16.5771 160.723 20.2926 162 24.1151C156.102 26.5208 150.231 28.8998 144.332 31.3056C145.148 32.8292 146.398 34.2192 148.083 34.7805C150.448 35.6092 153.275 35.3151 155.259 33.7648C156.047 33.1767 156.673 32.4015 157.271 31.6531C158.766 32.6421 160.261 33.6044 161.755 34.5934C159.635 37.7209 156.075 39.9128 152.242 40.2603C148.002 40.7682 143.49 39.1643 140.744 35.9032C136.232 30.771 136.667 22.1637 141.75 17.5394ZM144.659 22.4845C143.734 23.7943 143.354 25.3981 143.381 26.9752C147.322 25.3714 151.264 23.7676 155.205 22.137C154.552 20.6401 152.976 19.7313 151.372 19.4907C148.79 19.0363 146.099 20.3995 144.659 22.4845Z" fill="#FA3913"/>
</g>
<defs>
<clipPath id="clip0_972_5185">
<rect width="162" height="52" fill="white"/>
</clipPath>
</defs>
</svg>
