<svg width="20" height="20" viewBox="0 0 20 20" fill="none" xmlns="http://www.w3.org/2000/svg">
<path d="M9.99999 0.833496L6.66666 4.16683H9.16666V11.6668H10.8333V4.16683H13.3333M15 19.1668H4.99999C4.07499 19.1668 3.33333 18.4168 3.33333 17.5002V7.50016C3.33333 7.05814 3.50892 6.63421 3.82148 6.32165C4.13404 6.00909 4.55797 5.8335 4.99999 5.8335H7.49999V7.50016H4.99999V17.5002H15V7.50016H12.5V5.8335H15C15.442 5.8335 15.8659 6.00909 16.1785 6.32165C16.4911 6.63421 16.6667 7.05814 16.6667 7.50016V17.5002C16.6667 17.9422 16.4911 18.3661 16.1785 18.6787C15.8659 18.9912 15.442 19.1668 15 19.1668Z" fill="#3679FD"/>
</svg>
