<svg width="18" height="18" viewBox="0 0 18 18" fill="none" xmlns="http://www.w3.org/2000/svg">
<path d="M9.01667 0.666667C13.75 0.666667 17.3333 4.54749 17.3333 8.98748C17.3333 14.1369 13.1333 17.3333 9 17.3333C7.63333 17.3333 6.11667 16.9661 4.9 16.2484C4.475 15.9897 4.11667 15.7977 3.65833 15.9479L1.975 16.4487C1.55 16.5822 1.16667 16.2484 1.29167 15.7977L1.85 13.9282C1.94167 13.6695 1.925 13.3941 1.79167 13.1771C1.075 11.8585 0.666667 10.4146 0.666667 9.01252C0.666667 4.6226 4.175 0.666667 9.01667 0.666667ZM12.825 7.9526C12.2333 7.9526 11.7583 8.42831 11.7583 9.02086C11.7583 9.60507 12.2333 10.0891 12.825 10.0891C13.4167 10.0891 13.8917 9.60507 13.8917 9.02086C13.8917 8.42831 13.4167 7.9526 12.825 7.9526ZM8.98333 7.9526C8.4 7.94425 7.91667 8.42831 7.91667 9.01252C7.91667 9.60507 8.39167 10.0808 8.98333 10.0891C9.575 10.0891 10.05 9.60507 10.05 9.02086C10.05 8.42831 9.575 7.9526 8.98333 7.9526ZM5.14167 7.9526C4.55 7.9526 4.075 8.42831 4.075 9.02086C4.075 9.60507 4.55833 10.0891 5.14167 10.0891C5.73333 10.0808 6.20833 9.60507 6.20833 9.02086C6.20833 8.42831 5.73333 7.9526 5.14167 7.9526Z" fill="#3679FD"/>
</svg>
