<svg width="18" height="18" viewBox="0 0 18 18" fill="none" xmlns="http://www.w3.org/2000/svg">
<path d="M9.01663 0.666672C13.75 0.666672 17.3333 4.54749 17.3333 8.98749C17.3333 14.1369 13.1333 17.3333 8.99996 17.3333C7.63329 17.3333 6.11663 16.9661 4.89996 16.2484C4.47496 15.9897 4.11663 15.7977 3.65829 15.9479L1.97496 16.4487C1.54996 16.5822 1.16663 16.2484 1.29163 15.7977L1.84996 13.9282C1.94163 13.6695 1.92496 13.3941 1.79163 13.1771C1.07496 11.8585 0.666626 10.4146 0.666626 9.01252C0.666626 4.62261 4.17496 0.666672 9.01663 0.666672ZM12.825 7.9526C12.2333 7.9526 11.7583 8.42831 11.7583 9.02087C11.7583 9.60508 12.2333 10.0891 12.825 10.0891C13.4166 10.0891 13.8916 9.60508 13.8916 9.02087C13.8916 8.42831 13.4166 7.9526 12.825 7.9526ZM8.98329 7.9526C8.39996 7.94425 7.91663 8.42831 7.91663 9.01252C7.91663 9.60508 8.39163 10.0808 8.98329 10.0891C9.57496 10.0891 10.05 9.60508 10.05 9.02087C10.05 8.42831 9.57496 7.9526 8.98329 7.9526ZM5.14163 7.9526C4.54996 7.9526 4.07496 8.42831 4.07496 9.02087C4.07496 9.60508 4.55829 10.0891 5.14163 10.0891C5.73329 10.0808 6.20829 9.60508 6.20829 9.02087C6.20829 8.42831 5.73329 7.9526 5.14163 7.9526Z" fill="#838799"/>
</svg>
