<svg width="18" height="18" viewBox="0 0 18 18" fill="none" xmlns="http://www.w3.org/2000/svg">
<path d="M2.24998 12.9375V15.75H5.06248L13.3575 7.44751L10.545 4.63501L2.24998 12.9375ZM16.9575 13.77L13.77 16.9575L9.86998 13.0575L11.1975 11.73L11.9475 12.48L13.8 10.62L14.865 11.685L13.77 12.75L14.565 13.5L15.63 12.45L16.9575 13.77ZM4.95748 8.12251L1.04248 4.23001L4.22998 1.04251L5.54998 2.37001L3.69748 4.23001L4.49998 5.02501L6.34498 3.16501L7.40998 4.23001L6.34498 5.28751L7.09498 6.03751L4.95748 8.12251ZM15.5325 5.25001C15.825 4.95751 15.825 4.50001 15.5325 4.19251L13.7775 2.46751C13.5 2.17501 13.0125 2.17501 12.72 2.46751L11.34 3.84001L14.1525 6.65251L15.5325 5.25001Z" fill="#3679FD"/>
</svg>
