<svg width="14" height="14" viewBox="0 0 14 14" fill="none" xmlns="http://www.w3.org/2000/svg">
<path d="M7.56512 11.247C7.52445 11.2064 7.49218 11.1581 7.47016 11.105C7.44814 11.0519 7.43681 10.995 7.43681 10.9375C7.43681 10.88 7.44814 10.8231 7.47016 10.77C7.49218 10.7169 7.52445 10.6686 7.56512 10.628L10.7561 7.4375L2.18716 7.4375C2.07112 7.4375 1.95984 7.39141 1.8778 7.30936C1.79575 7.22731 1.74966 7.11603 1.74966 7C1.74966 6.88397 1.79575 6.77269 1.8778 6.69064C1.95984 6.60859 2.07112 6.5625 2.18716 6.5625L10.7561 6.5625L7.56512 3.37203C7.48303 3.28994 7.43691 3.1786 7.43691 3.0625C7.43691 2.9464 7.48303 2.83506 7.56512 2.75297C7.64722 2.67087 7.75856 2.62476 7.87466 2.62476C7.99075 2.62476 8.10209 2.67087 8.18419 2.75297L12.1217 6.69047C12.1624 6.7311 12.1946 6.77935 12.2167 6.83246C12.2387 6.88557 12.25 6.94251 12.25 7C12.25 7.05749 12.2387 7.11442 12.2167 7.16754C12.1946 7.22065 12.1624 7.2689 12.1217 7.30953L8.18419 11.247C8.14356 11.2877 8.0953 11.32 8.04219 11.342C7.98908 11.364 7.93215 11.3753 7.87466 11.3753C7.81716 11.3753 7.76023 11.364 7.70712 11.342C7.65401 11.32 7.60576 11.2877 7.56512 11.247Z" fill="#546C97"/>
</svg>
