<svg width="97" height="17" viewBox="0 0 97 17" fill="none" xmlns="http://www.w3.org/2000/svg">
<path d="M7.496 13L3.698 7.438H1.394V13H0.404V0.399999H4.49C5.606 0.399999 6.518 0.705999 7.226 1.318C7.946 1.93 8.306 2.794 8.306 3.91C8.306 4.954 7.988 5.782 7.352 6.394C6.728 7.006 5.912 7.348 4.904 7.42L8.738 13H7.496ZM1.394 1.336V6.502H4.418C5.294 6.502 5.984 6.274 6.488 5.818C6.992 5.35 7.244 4.714 7.244 3.91C7.244 3.106 6.992 2.476 6.488 2.02C5.984 1.564 5.294 1.336 4.418 1.336H1.394ZM13.4217 4.414C14.7657 4.414 15.7677 4.822 16.4277 5.638C17.0877 6.454 17.4177 7.486 17.4177 8.734V8.932H10.1277C10.1397 9.988 10.4517 10.828 11.0637 11.452C11.6877 12.064 12.5037 12.37 13.5117 12.37C14.2677 12.37 14.8737 12.22 15.3297 11.92C15.7857 11.608 16.2057 11.194 16.5897 10.678L17.2737 11.254C16.3257 12.598 15.0717 13.27 13.5117 13.27C12.2037 13.27 11.1597 12.868 10.3797 12.064C9.59966 11.26 9.20966 10.192 9.20966 8.86C9.20966 7.492 9.59966 6.412 10.3797 5.62C11.1597 4.816 12.1737 4.414 13.4217 4.414ZM13.3677 5.296C12.5157 5.296 11.7897 5.548 11.1897 6.052C10.6017 6.544 10.2597 7.252 10.1637 8.176H16.4277C16.3557 7.264 16.0557 6.556 15.5277 6.052C15.0117 5.548 14.2917 5.296 13.3677 5.296ZM21.6614 13.27C20.3294 13.27 19.1714 12.916 18.1874 12.208L18.6554 11.416C19.6034 12.064 20.6174 12.388 21.6974 12.388C22.3574 12.388 22.8494 12.262 23.1734 12.01C23.5094 11.758 23.6774 11.434 23.6774 11.038C23.6774 10.462 23.2274 9.964 22.3274 9.544L20.7614 8.824C19.5254 8.26 18.9074 7.498 18.9074 6.538C18.9074 5.854 19.1534 5.332 19.6454 4.972C20.1494 4.6 20.8274 4.414 21.6794 4.414C22.6274 4.414 23.5454 4.636 24.4334 5.08L24.0194 5.908C23.2274 5.5 22.4474 5.296 21.6794 5.296C21.1274 5.296 20.6894 5.398 20.3654 5.602C20.0414 5.806 19.8794 6.106 19.8794 6.502C19.8794 6.838 19.9934 7.12 20.2214 7.348C20.4494 7.564 20.7974 7.78 21.2654 7.996L22.7594 8.68C23.3594 8.956 23.8214 9.274 24.1454 9.634C24.4694 9.982 24.6314 10.444 24.6314 11.02C24.6314 11.752 24.3674 12.31 23.8394 12.694C23.3114 13.078 22.5854 13.27 21.6614 13.27ZM34.2827 0.399999V2.164H30.7367V13H28.8647V2.164H25.3187V0.399999H34.2827ZM37.34 13.27C36.2 13.27 35.24 12.868 34.46 12.064C33.68 11.26 33.29 10.186 33.29 8.842C33.29 7.498 33.68 6.424 34.46 5.62C35.24 4.816 36.2 4.414 37.34 4.414C38.636 4.414 39.572 4.912 40.148 5.908H40.184V4.684H41.948V13H40.184V11.776H40.148C39.572 12.772 38.636 13.27 37.34 13.27ZM35.864 10.804C36.332 11.296 36.95 11.542 37.718 11.542C38.486 11.542 39.104 11.296 39.572 10.804C40.04 10.3 40.274 9.646 40.274 8.842C40.274 8.038 40.04 7.39 39.572 6.898C39.104 6.394 38.486 6.142 37.718 6.142C36.95 6.142 36.332 6.394 35.864 6.898C35.396 7.39 35.162 8.038 35.162 8.842C35.162 9.646 35.396 10.3 35.864 10.804ZM44.1132 13V4.684H45.8772V5.98H45.9132C46.3692 4.936 47.2032 4.414 48.4152 4.414C49.6272 4.414 50.4672 4.978 50.9352 6.106H50.9712C51.2112 5.542 51.5652 5.122 52.0332 4.846C52.5012 4.558 53.0172 4.414 53.5812 4.414C54.4212 4.414 55.1052 4.696 55.6332 5.26C56.1612 5.824 56.4252 6.688 56.4252 7.852V13H54.6612V7.942C54.6612 6.766 54.1152 6.178 53.0232 6.178C52.4472 6.178 51.9912 6.382 51.6552 6.79C51.3192 7.186 51.1512 7.816 51.1512 8.68V13H49.3872V7.942C49.3872 6.766 48.8352 6.178 47.7312 6.178C47.1672 6.178 46.7172 6.382 46.3812 6.79C46.0452 7.198 45.8772 7.834 45.8772 8.698V13H44.1132ZM58.4921 16.6V4.684H60.2561V5.908H60.2921C60.8681 4.912 61.8041 4.414 63.1001 4.414C64.2401 4.414 65.2001 4.816 65.9801 5.62C66.7601 6.424 67.1501 7.498 67.1501 8.842C67.1501 10.186 66.7601 11.26 65.9801 12.064C65.2001 12.868 64.2401 13.27 63.1001 13.27C61.8041 13.27 60.8681 12.772 60.2921 11.776H60.2561V16.6H58.4921ZM60.8681 10.804C61.3361 11.296 61.9541 11.542 62.7221 11.542C63.4901 11.542 64.1081 11.296 64.5761 10.804C65.0441 10.3 65.2781 9.646 65.2781 8.842C65.2781 8.038 65.0441 7.39 64.5761 6.898C64.1081 6.394 63.4901 6.142 62.7221 6.142C61.9541 6.142 61.3361 6.394 60.8681 6.898C60.4001 7.39 60.1661 8.038 60.1661 8.842C60.1661 9.646 60.4001 10.3 60.8681 10.804ZM70.6293 0.399999V13H68.8653V0.399999H70.6293ZM76.381 13.27C75.241 13.27 74.281 12.868 73.501 12.064C72.721 11.26 72.331 10.186 72.331 8.842C72.331 7.498 72.721 6.424 73.501 5.62C74.281 4.816 75.241 4.414 76.381 4.414C77.677 4.414 78.613 4.912 79.189 5.908H79.225V4.684H80.989V13H79.225V11.776H79.189C78.613 12.772 77.677 13.27 76.381 13.27ZM74.905 10.804C75.373 11.296 75.991 11.542 76.759 11.542C77.527 11.542 78.145 11.296 78.613 10.804C79.081 10.3 79.315 9.646 79.315 8.842C79.315 8.038 79.081 7.39 78.613 6.898C78.145 6.394 77.527 6.142 76.759 6.142C75.991 6.142 75.373 6.394 74.905 6.898C74.437 7.39 74.203 8.038 74.203 8.842C74.203 9.646 74.437 10.3 74.905 10.804ZM87.2762 6.178H85.5842V10.534C85.5842 11.11 85.8722 11.398 86.4482 11.398H86.8802V13.018H86.0702C85.3382 13.018 84.7802 12.832 84.3962 12.46C84.0122 12.088 83.8202 11.56 83.8202 10.876V6.178H82.3442V4.684H83.8202V1.354H85.5842V4.684H87.2762V6.178ZM92.0653 4.414C93.3133 4.414 94.2853 4.816 94.9813 5.62C95.6893 6.412 96.0433 7.486 96.0433 8.842V9.13H89.5993C89.6353 9.862 89.8813 10.456 90.3373 10.912C90.8053 11.356 91.3993 11.578 92.1193 11.578C93.1033 11.578 93.9553 11.092 94.6753 10.12L95.9173 11.29C94.9573 12.61 93.7033 13.27 92.1553 13.27C90.8353 13.27 89.7793 12.868 88.9873 12.064C88.2073 11.248 87.8173 10.18 87.8173 8.86C87.8173 7.564 88.1953 6.502 88.9513 5.674C89.7193 4.834 90.7573 4.414 92.0653 4.414ZM91.9573 6.034C91.3453 6.034 90.8413 6.19 90.4453 6.502C90.0493 6.814 89.7973 7.264 89.6893 7.852H94.1353C94.0993 7.276 93.8833 6.832 93.4873 6.52C93.1033 6.196 92.5933 6.034 91.9573 6.034Z" fill="#01153A"/>
</svg>
