<svg width="18" height="18" viewBox="0 0 18 18" fill="none" xmlns="http://www.w3.org/2000/svg">
<path d="M8.08864 1.01786C8.44297 0.233342 9.55703 0.233343 9.91136 1.01786L11.9558 5.54447C12.056 5.76633 12.2337 5.94401 12.4555 6.04421L16.9821 8.08864C17.7667 8.44297 17.7667 9.55703 16.9821 9.91136L12.4555 11.9558C12.2337 12.056 12.056 12.2337 11.9558 12.4555L9.91136 16.9821C9.55703 17.7667 8.44297 17.7667 8.08864 16.9821L6.04421 12.4555C5.94401 12.2337 5.76633 12.056 5.54447 11.9558L1.01786 9.91136C0.233342 9.55703 0.233343 8.44297 1.01786 8.08864L5.54447 6.04421C5.76633 5.94401 5.94401 5.76633 6.04421 5.54447L8.08864 1.01786Z" fill="#3679FD"/>
</svg>
