<svg width="78" height="78" viewBox="0 0 78 78" fill="none" xmlns="http://www.w3.org/2000/svg">
<rect opacity="0.1" width="78" height="78" rx="24" fill="#6DC26C"/>
<path d="M49.416 15C57.552 15 63 20.712 63 29.208V48.8184C63 57.288 57.552 63 49.416 63H28.608C20.472 63 15 57.288 15 48.8184V29.208C15 20.712 20.472 15 28.608 15H49.416ZM49.032 31.8C48.216 30.984 46.872 30.984 46.056 31.8L36.144 41.712L31.944 37.512C31.128 36.696 29.784 36.696 28.968 37.512C28.152 38.328 28.152 39.648 28.968 40.488L34.68 46.176C35.088 46.584 35.616 46.776 36.144 46.776C36.696 46.776 37.224 46.584 37.632 46.176L49.032 34.776C49.848 33.96 49.848 32.64 49.032 31.8Z" fill="#6DC26C"/>
</svg>
