<svg width="18" height="16" viewBox="0 0 18 16" fill="none" xmlns="http://www.w3.org/2000/svg">
<path d="M13.417 8.69115C14.4273 8.69115 15.3422 8.74856 15.9049 8.85546C15.9137 8.85546 16.4286 8.96136 16.6003 9.02966C16.848 9.13656 17.0577 9.32957 17.1913 9.57108C17.2868 9.76409 17.3337 9.96799 17.3337 10.1808C17.3249 10.4025 17.1815 10.8192 17.1142 10.9835C16.6958 12.0664 15.3226 14.1361 14.4849 14.9299C14.3513 15.0645 14.1894 15.21 14.1513 15.2486C13.9407 15.4129 13.6842 15.5 13.4082 15.5C13.1595 15.5 12.9118 15.4228 12.7118 15.2674C12.608 15.1932 12.4564 15.0454 12.3871 14.9762L12.35 14.9388C11.482 14.1271 10.1771 12.105 9.75775 11.0795C9.74881 11.0795 9.53991 10.568 9.49764 10.2594L9.49052 10.1808V10.1422C9.49052 9.69679 9.73824 9.28107 10.1391 9.06826C10.3585 8.95246 10.9963 8.84556 11.0061 8.83566C11.5776 8.74856 12.4544 8.69115 13.417 8.69115ZM4.58827 8.74211C4.98764 8.74211 5.31638 9.04678 5.3613 9.43979L5.36654 9.53195L5.58012 13.3476C5.58012 13.9038 5.13637 14.3542 4.58827 14.3542C4.07442 14.3542 3.65144 13.9584 3.60057 13.4505L3.59544 13.3476L3.81 9.53195C3.81 9.09546 4.15817 8.74211 4.58827 8.74211ZM4.59344 0.5C4.84018 0.5 5.0879 0.577203 5.28881 0.731609C5.37536 0.794089 5.49506 0.907218 5.57266 0.983278L5.65063 1.06121C6.51765 1.87382 7.82354 3.89495 8.2429 4.92036C8.25095 4.92036 8.46059 5.43268 8.50299 5.74145L8.51013 5.82007V5.85868C8.51013 6.30309 8.26143 6.7188 7.86157 6.9316C7.64214 7.04839 7.00431 7.1543 6.99456 7.1642C6.42305 7.2513 5.54628 7.30871 4.58368 7.30871C3.5733 7.30871 2.6585 7.2513 2.09577 7.1444C2.08601 7.1444 1.57204 7.0385 1.4004 6.9702C1.15268 6.86429 0.942994 6.6703 0.809382 6.42879C0.713805 6.23578 0.666992 6.03189 0.666992 5.82007C0.67577 5.59737 0.819135 5.18167 0.885453 5.01736C1.30482 3.93355 2.67703 1.86392 3.51576 1.0711C3.64937 0.935504 3.81127 0.790006 3.8493 0.751404C4.05899 0.587101 4.31646 0.5 4.59344 0.5ZM13.4126 1.64583C13.9264 1.64583 14.3486 2.04166 14.3993 2.54949L14.4044 2.65246L14.1908 6.46815C14.1908 6.90465 13.8427 7.25801 13.4126 7.25801C13.0132 7.25801 12.6845 6.95333 12.6395 6.56032L12.6343 6.46815L12.4198 2.65246C12.4198 2.09619 12.8645 1.64583 13.4126 1.64583Z" fill="white"/>
</svg>
