<svg width="170" height="62" viewBox="0 0 170 62" fill="none" xmlns="http://www.w3.org/2000/svg">
<path fill-rule="evenodd" clip-rule="evenodd" d="M67.1282 39.4683L64.9681 49.5639H60L68.2082 12.9763H74.0935L81.8158 49.5639H76.7936L74.6875 39.4683H67.1282ZM74.0935 35.3968L72.4195 26.6557C71.9335 24.1585 71.4474 20.9031 71.0703 18.2964H70.8534C70.4763 20.9565 69.9345 24.3213 69.4503 26.6557L67.7222 35.3968H74.0935ZM100.779 12V42.7789C100.779 44.7885 100.887 47.72 100.994 49.5648H96.6212L96.2972 46.3628H96.1352C95.2712 48.2076 93.2731 50 90.6279 50C85.7678 50 82.7977 44.679 82.7977 36.4834C82.7977 27.1461 86.7389 22.7488 90.8979 22.7488C93.0031 22.7488 94.6771 23.7269 95.5952 25.7346H95.7032V12H100.779ZM95.7023 33.2253C95.7023 32.7376 95.7023 32.1405 95.6483 31.5958C95.3783 29.2081 94.0282 27.1452 92.1931 27.1452C89.0061 27.1452 87.9269 31.5958 87.9269 36.4825C87.9269 41.9112 89.331 45.7104 92.0311 45.7104C93.1651 45.7104 94.6762 45.1133 95.5403 41.9655C95.6483 41.5312 95.7023 40.8789 95.7023 40.2835V33.2253ZM112.87 49.9991C107.633 49.9991 103.852 45.4933 103.852 36.4292C103.852 26.8194 108.333 22.7479 113.139 22.7479C118.324 22.7479 122.049 27.4166 122.049 36.3197C122.049 46.7971 116.919 49.9991 112.923 49.9991H112.87ZM113.031 45.9828C116.163 45.9828 116.866 40.3912 116.866 36.3749C116.866 32.411 116.163 26.7661 112.924 26.7661C109.575 26.7661 108.928 32.411 108.928 36.3749C108.928 40.7712 109.684 45.9828 112.978 45.9828H113.031ZM125.109 12H130.184V26.168H130.292C131.642 23.7803 133.478 22.7479 135.8 22.7479C140.282 22.7479 143.09 27.8509 143.09 35.9397C143.09 45.3847 139.256 49.9991 134.936 49.9991C132.344 49.9991 130.886 48.5867 129.751 46.2524H129.537L129.266 49.5639H124.893C125.001 47.7733 125.109 44.7875 125.109 42.778V12ZM130.184 40.2265C130.184 40.8255 130.238 41.4227 130.4 41.856C131.209 45.0599 132.776 45.7104 133.801 45.7104C136.825 45.7104 137.959 41.6941 137.959 36.2654C137.959 31.2167 136.772 27.1452 133.747 27.1452C132.073 27.1452 130.723 29.1538 130.345 31.0538C130.237 31.5967 130.183 32.3033 130.183 32.8453V40.2265H130.184ZM150.581 37.4045C150.635 44.1904 153.55 45.8724 156.628 45.8724C158.464 45.8724 160.03 45.439 161.164 44.8952L161.92 48.5867C160.354 49.401 157.978 49.8362 155.656 49.8362C149.068 49.8362 145.612 44.8418 145.612 36.6988C145.612 28.0671 149.554 22.747 155.008 22.747C160.462 22.747 163 28.0129 163 34.6368C163 35.9388 162.945 36.754 162.892 37.4588L150.581 37.4045ZM158.194 33.7682C158.248 29.0995 156.628 26.6032 154.631 26.6032C151.984 26.6032 150.796 30.4576 150.635 33.7682H158.194Z" fill="black"/>
<path fill-rule="evenodd" clip-rule="evenodd" d="M30.8438 13H46V50L30.8438 13ZM20.167 13H5V50L20.167 13ZM25.5063 26.6358L35.163 50H28.8349L25.9471 42.5587H18.8787L25.5063 26.6358Z" fill="#CC2131"/>
<path fill-rule="evenodd" clip-rule="evenodd" d="M162.847 22.6394C163 22.6401 163.151 22.6712 163.292 22.7309C163.433 22.7906 163.561 22.8777 163.668 22.9872C163.775 23.0966 163.86 23.2263 163.917 23.3688C163.974 23.5112 164.002 23.6635 164 23.817C164 24.4816 163.488 25 162.841 25C162.199 25 161.677 24.4825 161.677 23.817C161.676 23.6629 161.706 23.5103 161.764 23.3677C161.822 23.2251 161.907 23.0954 162.015 22.986C162.124 22.8766 162.252 22.7897 162.394 22.7302C162.536 22.6707 162.688 22.6399 162.841 22.6394H162.847ZM162.841 22.8219C162.325 22.8219 161.901 23.2677 161.901 23.817C161.901 24.3772 162.325 24.8166 162.847 24.8166C163.368 24.8221 163.785 24.3772 163.785 23.8224C163.785 23.2677 163.368 22.8219 162.847 22.8219H162.841ZM162.622 24.5034H162.414V23.1887C162.523 23.1733 162.628 23.1569 162.785 23.1569C162.983 23.1569 163.113 23.1996 163.191 23.2568C163.27 23.314 163.312 23.403 163.312 23.5292C163.312 23.7017 163.197 23.807 163.056 23.8488V23.8587C163.171 23.8796 163.249 23.9849 163.275 24.1783C163.306 24.3826 163.337 24.4607 163.359 24.5034H163.14C163.108 24.4607 163.077 24.3408 163.051 24.1683C163.019 24.0004 162.936 23.9377 162.769 23.9377H162.623V24.5034H162.622ZM162.622 23.7752H162.773C162.945 23.7752 163.093 23.7126 163.093 23.55C163.093 23.4347 163.009 23.3194 162.773 23.3194C162.706 23.3194 162.658 23.3249 162.622 23.3303V23.7752ZM48.1696 13C48.3226 13.0007 48.474 13.0318 48.615 13.0915C48.7559 13.1512 48.8837 13.2383 48.9909 13.3478C49.0982 13.4572 49.1827 13.5869 49.2397 13.7294C49.2967 13.8718 49.325 14.0241 49.3229 14.1776C49.3229 14.8422 48.8115 15.3606 48.1642 15.3606C47.5224 15.3606 47 14.8431 47 14.1776C46.9992 14.0235 47.0287 13.8708 47.0867 13.7283C47.1448 13.5857 47.2304 13.456 47.3385 13.3466C47.4467 13.2372 47.5753 13.1503 47.7169 13.0908C47.8586 13.0313 48.0106 13.0005 48.1642 13H48.1696ZM48.1642 13.1825C47.6473 13.1825 47.2245 13.6283 47.2245 14.1776C47.2245 14.7378 47.6473 15.1772 48.1696 15.1772C48.691 15.1826 49.1093 14.7378 49.1093 14.183C49.1093 13.6283 48.691 13.1825 48.1696 13.1825H48.1642ZM47.9451 14.864H47.736V13.5493C47.8587 13.5289 47.9828 13.5185 48.1072 13.5184C48.3054 13.5184 48.4358 13.5593 48.5136 13.6174C48.5924 13.6746 48.634 13.7645 48.634 13.8898C48.634 14.0623 48.5191 14.1676 48.3778 14.2094V14.2193C48.4928 14.2402 48.5716 14.3455 48.5978 14.5398C48.6286 14.7441 48.6603 14.8222 48.6811 14.8649H48.462C48.4303 14.8222 48.3987 14.7024 48.3733 14.5298C48.3416 14.3619 48.2583 14.2992 48.0909 14.2992H47.9451V14.864ZM47.9451 14.1358H48.0963C48.2683 14.1358 48.4149 14.0732 48.4149 13.9106C48.4149 13.7953 48.3317 13.68 48.0963 13.68C48.0284 13.68 47.9813 13.6855 47.9451 13.6909V14.1358Z" fill="black"/>
</svg>
