<svg width="170" height="62" viewBox="0 0 170 62" fill="none" xmlns="http://www.w3.org/2000/svg">
<path d="M89.2466 18.5632C89.2466 20.3652 87.8151 21.8162 86.0385 21.8162C84.2619 21.8162 82.8314 20.3652 82.8314 18.5632C82.8314 16.7613 84.2131 15.3103 86.0385 15.3103C87.8654 15.3603 89.2466 16.8118 89.2466 18.5632ZM76.0218 25.1201V25.9211C76.0218 25.9211 74.4926 23.9181 71.2357 23.9181C65.8576 23.9181 61.6626 28.0725 61.6626 33.8279C61.6626 39.5338 65.8083 43.7377 71.2357 43.7377C74.5419 43.7377 76.0218 41.6858 76.0218 41.6858V42.5363C76.0218 42.9368 76.3185 43.2362 76.7129 43.2362H80.7092V24.4171H76.7129C76.3185 24.4186 76.0218 24.7696 76.0218 25.1201ZM76.0218 37.1814C75.2823 38.2828 73.8015 39.2338 72.0254 39.2338C68.8676 39.2338 66.4492 37.2319 66.4492 33.8279C66.4492 30.4245 68.8676 28.4225 72.0254 28.4225C73.7527 28.4225 75.3316 29.4235 76.0218 30.4745V37.1814ZM83.6704 24.4186H88.4071V43.2377H83.6704V24.4186ZM154.431 23.9176C151.174 23.9176 149.644 25.9206 149.644 25.9206V15.3603H144.907V43.2377H148.904C149.299 43.2377 149.595 42.8873 149.595 42.5368V41.6863C149.595 41.6863 151.125 43.7382 154.381 43.7382C159.76 43.7382 163.954 39.5353 163.954 33.8294C163.954 28.1235 159.76 23.9176 154.431 23.9176ZM153.641 39.1833C151.815 39.1833 150.384 38.2333 149.644 37.1314V30.4245C150.384 29.4235 151.963 28.3725 153.641 28.3725C156.799 28.3725 159.217 30.3745 159.217 33.7779C159.217 37.1814 156.8 39.1833 153.641 39.1833ZM142.44 32.077V43.2878H137.703V32.627C137.703 29.5245 136.716 28.2726 134.053 28.2726C132.622 28.2726 131.141 29.0235 130.202 30.125V43.2383H125.467V24.4191H129.216C129.61 24.4191 129.907 24.7696 129.907 25.1201V25.9211C131.288 24.4691 133.114 23.9181 134.939 23.9181C137.012 23.9181 138.739 24.5196 140.121 25.7206C141.798 27.1221 142.44 28.9235 142.44 32.077ZM113.968 23.9176C110.712 23.9176 109.182 25.9206 109.182 25.9206V15.3603H104.445V43.2377H108.441C108.836 43.2377 109.132 42.8873 109.132 42.5368V41.6863C109.132 41.6863 110.662 43.7382 113.918 43.7382C119.297 43.7382 123.491 39.5353 123.491 33.8294C123.541 28.123 119.347 23.9176 113.968 23.9176ZM113.178 39.1833C111.353 39.1833 109.922 38.2333 109.182 37.1314V30.4245C109.922 29.4235 111.501 28.3725 113.178 28.3725C116.337 28.3725 118.754 30.3745 118.754 33.7779C118.754 37.1814 116.337 39.1833 113.178 39.1833ZM100.349 23.9176C101.779 23.9176 102.52 24.1686 102.52 24.1686V28.6225C102.52 28.6225 98.5723 27.2711 96.1056 30.1245V43.2872H91.3678V24.4186H95.3651C95.76 24.4186 96.0553 24.7691 96.0553 25.1196V25.9206C96.9445 24.8691 98.869 23.9176 100.349 23.9176ZM51.1529 41.5358C50.9064 40.9353 50.6595 40.2848 50.413 39.7338C50.0177 38.8333 49.6228 37.9819 49.2782 37.1814L49.2289 37.1314C45.8236 29.6235 42.1729 22.0167 38.3234 14.5098L38.1755 14.2088C37.7706 13.4301 37.3761 12.6459 36.992 11.8564C36.498 10.9549 36.0051 10.0049 35.2154 9.10342C33.6364 7.10146 31.3664 5.99998 28.949 5.99998C26.4813 5.99998 24.261 7.10147 22.6333 9.00293C21.8929 9.90341 21.3497 10.8544 20.8567 11.7559C20.4716 12.5449 20.077 13.3291 19.6731 14.1083L19.5248 14.4093C15.7251 21.9162 12.0245 29.5235 8.61971 37.0309L8.56993 37.1304C8.22487 37.9324 7.82952 38.7828 7.43466 39.6828C7.18819 40.2338 6.94171 40.8343 6.69524 41.4848C6.05342 43.3362 5.85574 45.0882 6.1032 46.8907C6.64593 50.6446 9.11266 53.7965 12.518 55.199C13.8011 55.75 15.1336 56 16.5148 56C16.9097 56 17.4026 55.95 17.798 55.8995C19.4267 55.6995 21.1042 55.1495 22.7329 54.1985C24.7559 53.047 26.6804 51.3961 28.8514 48.9936C31.0223 51.3961 32.9961 53.047 34.9699 54.1985C36.5991 55.1495 38.2761 55.6995 39.9043 55.8995C40.2991 55.9505 40.7931 56 41.1879 56C42.5697 56 43.9509 55.75 45.1843 55.199C48.6389 53.7965 51.0563 50.5946 51.5995 46.8907C51.9914 45.1392 51.7943 43.3883 51.1529 41.5358ZM28.8992 44.1382C26.2343 40.7348 24.507 37.5319 23.9155 34.8299C23.669 33.6784 23.6192 32.6775 23.7676 31.7765C23.8657 30.9755 24.1624 30.2745 24.5573 29.674C25.4949 28.3235 27.0738 27.4721 28.8997 27.4721C30.7261 27.4721 32.3543 28.273 33.2426 29.674C33.6374 30.2745 33.9332 30.976 34.0328 31.7765C34.1802 32.678 34.1309 33.7284 33.8844 34.8299C33.2904 37.4819 31.5631 40.6853 28.8992 44.1382ZM48.5866 46.4907C48.2416 49.0931 46.5143 51.3461 44.0968 52.347C42.9128 52.847 41.6291 52.9975 40.347 52.847C39.1136 52.6965 37.8793 52.2961 36.5971 51.5461C34.8205 50.5441 33.0444 48.9936 30.9716 46.6907C34.228 42.6372 36.2018 38.9328 36.9422 35.6304C37.2877 34.0784 37.3375 32.6775 37.1886 31.3755C36.992 30.1245 36.5473 28.973 35.8567 27.972C34.3261 25.7191 31.7598 24.4186 28.8987 24.4186C26.0376 24.4186 23.4713 25.7701 21.9417 27.972C21.2511 28.973 20.8064 30.1245 20.6092 31.3755C20.4121 32.6775 20.4609 34.1284 20.8557 35.6304C21.5956 38.9328 23.6187 42.6868 26.8258 46.7407C24.8028 49.0431 22.9769 50.5951 21.2003 51.5961C19.9171 52.3471 18.6843 52.7476 17.4509 52.8971C16.119 53.0476 14.8353 52.8471 13.7006 52.3971C11.2831 51.3961 9.55583 49.1431 9.21076 46.5407C9.06288 45.2897 9.16097 44.0387 9.65491 42.6373C9.8023 42.1363 10.0498 41.6363 10.2962 41.0358C10.6418 40.2348 11.0357 39.3833 11.431 38.5328L11.4808 38.4333C14.8851 30.9755 18.5364 23.3681 22.3361 15.9613L22.4839 15.6603C22.8793 14.9103 23.2741 14.1093 23.6685 13.3583C24.0634 12.5574 24.507 11.8064 25.0502 11.1554C26.0864 9.95541 27.4677 9.30392 28.9978 9.30392C30.5279 9.30392 31.9092 9.95541 32.9453 11.1554C33.4886 11.8079 33.9322 12.5589 34.3271 13.3583C34.7224 14.1093 35.1173 14.9103 35.5111 15.6603L35.6595 15.9613C39.4012 23.3989 43.004 30.9076 46.466 38.4833V38.5333C46.8613 39.3353 47.2064 40.2353 47.6012 41.0373C47.8477 41.6368 48.0947 42.1368 48.2425 42.6378C48.6364 43.9377 48.7843 45.1897 48.5866 46.4907Z" fill="#FF5A5F"/>
</svg>
