<svg width="170" height="62" viewBox="0 0 170 62" fill="none" xmlns="http://www.w3.org/2000/svg">
<path d="M38.6888 18.0997V34.0105C38.6888 34.2684 38.5873 34.5157 38.4066 34.6981C38.2258 34.8804 37.9807 34.9829 37.7251 34.9829H32.7474C32.4918 34.9828 32.2468 34.8803 32.066 34.6979C31.8853 34.5156 31.7838 34.2683 31.7836 34.0105V8.13086C31.7836 7.87295 31.8852 7.62561 32.0659 7.44324C32.2467 7.26087 32.4918 7.15842 32.7474 7.15842H37.3537C37.6093 7.15842 37.8544 7.26087 38.0352 7.44324C38.2159 7.62561 38.3174 7.87295 38.3174 8.13086V11.7754C38.3174 11.7754 39.9641 6.57658 44.8508 6.57658C44.8508 6.57658 49.6844 5.98702 51.6498 11.4002C51.6498 11.4002 53.2964 6.57658 58.2894 6.57658C58.2894 6.57658 65.7147 6.13109 65.7147 13.8836L65.7712 18.1533V34.064C65.7712 34.322 65.6697 34.5693 65.4889 34.7517C65.3082 34.934 65.063 35.0365 64.8074 35.0365H59.8293C59.5738 35.0364 59.3287 34.9339 59.148 34.7515C58.9673 34.5692 58.8657 34.3219 58.8656 34.064L58.8201 16.7062C58.9616 12.7757 55.8103 13.0617 55.8103 13.0617C51.8444 13.1333 52.226 18.1533 52.226 18.1533V34.064C52.226 34.322 52.1244 34.5693 51.9437 34.7517C51.763 34.934 51.5178 35.0365 51.2622 35.0365H46.2845C46.029 35.0364 45.7839 34.9339 45.6032 34.7515C45.4225 34.5692 45.3209 34.3219 45.3208 34.064V17.099C45.3208 17.099 45.6119 13.0257 42.0705 13.0257C42.0709 13.0257 38.5652 12.5613 38.6888 18.0997ZM167 18.0521V33.9624C167 34.2203 166.898 34.4676 166.718 34.6499C166.537 34.8323 166.292 34.9348 166.036 34.9349L160.859 35.0361C160.604 35.0359 160.359 34.9335 160.178 34.7511C159.997 34.5688 159.896 34.3215 159.896 34.0636V17.099C159.896 17.099 160.187 13.0257 156.646 13.0257C156.646 13.0257 153.264 12.8576 153.264 19.2441V34.01C153.263 34.2679 153.162 34.5152 152.981 34.6975C152.8 34.8799 152.555 34.9824 152.3 34.9825H147.322C147.066 34.9824 146.821 34.8799 146.64 34.6975C146.46 34.5152 146.358 34.2679 146.358 34.01V8.13086C146.358 7.87299 146.46 7.62571 146.64 7.44337C146.821 7.26102 147.066 7.15853 147.322 7.15842H151.928C152.184 7.15842 152.429 7.26087 152.609 7.44324C152.79 7.62561 152.892 7.87295 152.892 8.13086V11.7754C152.892 11.7754 154.538 6.57658 159.425 6.57658C159.425 6.57658 164.66 5.77521 166.423 11.2995C166.423 11.299 167 12.4387 167 18.0521ZM131.059 6.46939C124.693 6.46939 119.533 11.8826 119.533 20.9939C119.533 29.0157 123.516 35.5184 131.059 35.5184C138.177 35.5184 142.585 29.0157 142.585 20.9939C142.585 12.0434 137.425 6.46939 131.059 6.46939ZM135.077 21.3155C135.077 24.7456 134.652 26.5679 134.652 26.5679C134.047 30.194 131.438 30.1991 131.054 30.1798C130.639 30.1966 128.008 30.1588 127.464 26.5679C127.464 26.5679 127.039 24.7456 127.039 21.3155V20.7439C127.039 17.3138 127.464 15.4915 127.464 15.4915C128.008 11.9006 130.639 11.8629 131.054 11.8792C131.438 11.8599 134.047 11.8646 134.652 15.4915C134.652 15.4915 135.077 17.3138 135.077 20.7439V21.3155ZM116.644 11.7394V8.02624C116.643 7.76837 116.542 7.52109 116.361 7.33875C116.18 7.1564 115.935 7.05391 115.68 7.0538H99.2263C98.9707 7.0538 98.7256 7.15625 98.5448 7.33862C98.3641 7.52099 98.2626 7.76833 98.2626 8.02624V11.7106C98.2627 11.9685 98.3642 12.2158 98.545 12.3981C98.7257 12.5805 98.9707 12.683 99.2263 12.6831H107.809L97.6502 27.5528C97.6502 27.5528 97.2499 28.1556 97.2631 28.8215V33.3446C97.2631 33.3446 97.1968 34.8954 98.9399 33.9954C98.9399 33.9954 102.036 32.108 107.227 32.108C107.227 32.108 112.354 32.0437 115.772 34.1579C115.772 34.1579 117.191 34.8088 117.191 33.3776V29.4406C117.191 29.4406 117.32 28.3987 115.966 27.7483C115.966 27.7483 112.032 25.5684 106.873 25.926L116.644 11.7394ZM27.9418 30.3548L26.3836 27.9614C25.8877 27.0678 25.9234 26.0671 25.9234 26.0671V15.0267C26.1358 5.48665 15.654 6.3086 15.654 6.3086C6.336 6.3086 4.95964 13.6255 4.95964 13.6255C4.57125 15.0966 5.70073 15.1322 5.70073 15.1322L10.2539 15.5983C10.2539 15.5983 11.0303 15.7775 11.3128 14.8449C11.3128 14.8449 11.9124 11.6528 15.2656 11.6528C18.9141 11.6528 18.8763 14.8124 18.8763 14.8124V17.4574C11.5929 17.7031 8.21761 19.7432 8.21761 19.7432C3.72053 22.3158 4.00354 27.4254 4.00354 27.4254C4.00354 35.7504 11.8648 35.3928 11.8648 35.3928C16.8931 35.3928 19.8676 31.6771 19.8676 31.6771C20.7528 33.2498 22.382 34.7496 22.382 34.7496C23.197 35.6415 24.0464 34.8929 24.0464 34.8929L27.7293 31.7131C28.5435 31.1051 27.9418 30.3548 27.9418 30.3548ZM14.3188 30.2519C11.9536 30.2519 11.0745 27.8804 11.4671 25.5496C11.8602 23.2188 13.9015 21.3871 18.8767 21.4407V22.8578C19.053 29.0483 16.2875 30.2519 14.3188 30.2519ZM94.0897 30.3548L92.5319 27.9614C92.036 27.0678 92.0713 26.0671 92.0713 26.0671V15.0267C92.2837 5.48665 81.8019 6.3086 81.8019 6.3086C72.4839 6.3086 71.1075 13.6255 71.1075 13.6255C70.7191 15.0966 71.8486 15.1322 71.8486 15.1322L76.4018 15.5983C76.4018 15.5983 77.1781 15.7775 77.4607 14.8449C77.4607 14.8449 78.0603 11.6528 81.4135 11.6528C85.062 11.6528 85.0241 14.8124 85.0241 14.8124V17.4574C77.7412 17.7031 74.3655 19.7432 74.3655 19.7432C69.8684 22.3158 70.1514 27.4254 70.1514 27.4254C70.1514 35.7504 78.0127 35.3928 78.0127 35.3928C83.041 35.3928 86.0155 31.6771 86.0155 31.6771C86.9011 33.2498 88.5294 34.7496 88.5294 34.7496C89.3445 35.6415 90.1943 34.8929 90.1943 34.8929L93.8768 31.7131C94.6914 31.1051 94.0897 30.3548 94.0897 30.3548ZM80.4667 30.2519C78.1015 30.2519 77.2223 27.8804 77.615 25.5496C78.008 23.2188 80.0494 21.3871 85.0241 21.4407V22.8578C85.2009 29.0483 82.4359 30.2519 80.4667 30.2519Z" fill="black"/>
<path d="M106.224 50.8718C106.224 50.8718 105.808 51.5967 106.319 51.7586C106.319 51.7586 106.897 51.9844 107.618 51.3152C107.618 51.3152 112.871 46.7216 112.998 38.3582C112.998 38.3582 113.037 37.3136 112.618 37.0279C112.618 37.0279 110.972 35.5705 105.053 36.014C105.053 36.014 99.8942 36.3626 97.0777 38.8654C97.0777 38.8654 96.8245 39.0869 96.8245 39.3717C96.8245 39.3717 96.7638 39.9869 98.312 39.7203C98.312 39.7203 103.471 38.9912 106.541 39.3717C106.541 39.3717 108.124 39.5618 108.567 40.1008C108.567 40.1008 109.295 40.7028 108.915 42.698C108.915 42.6989 107.87 47.7674 106.224 50.8718Z" fill="#F3971B"/>
<path d="M105.184 42.8481C105.184 42.8481 105.954 43.8472 104.711 44.7089C104.711 44.7089 91.4305 55.3417 69.131 55.3417C69.131 55.3417 46.1765 56.4751 27.0095 39.0444C27.0095 39.0444 26.3375 38.4538 26.7547 37.905C26.7547 37.905 27.1276 37.3999 28.093 37.9492C28.093 37.9492 46.1234 49.1946 69.8033 49.1946C69.8033 49.1946 86.2625 49.8323 103.146 42.6049C103.146 42.6049 104.492 41.9073 105.184 42.8481Z" fill="#F3971B"/>
</svg>
