<svg width="170" height="62" viewBox="0 0 170 62" fill="none" xmlns="http://www.w3.org/2000/svg">
<path d="M44.9101 31.2978C44.8464 24.6271 50.3692 21.4221 50.6177 21.2695C47.5091 16.7355 42.6805 16.1123 40.9606 16.0424C36.8519 15.6227 32.9406 18.4588 30.8512 18.4588C28.7618 18.4588 25.5449 16.0996 22.1369 16.1696C17.6523 16.2331 13.5181 18.7704 11.2058 22.7766C6.55559 30.8272 10.0209 42.7823 14.5628 49.3257C16.786 52.5243 19.4232 56.1299 22.9013 55.9964C26.252 55.8629 27.5133 53.8343 31.5519 53.8343C35.5906 53.8343 36.7308 55.9964 40.2662 55.9328C43.8654 55.8629 46.1459 52.6642 48.3499 49.4529C50.8852 45.7329 51.9363 42.14 52 41.9492C51.9172 41.9174 44.9865 39.2657 44.9101 31.2978Z" fill="black"/>
<path d="M38.7123 13.1857C40.5179 11.0156 41.7321 8.00473 41.4021 5C38.8057 5.1051 35.6613 6.71875 33.7996 8.88883C32.1309 10.8054 30.6677 13.872 31.0662 16.8149C33.949 17.0375 36.9128 15.3496 38.7123 13.1857ZM67.9766 38.6084L64.9879 47.6041H61.1462L70.928 19.0159H75.411L85.2302 47.6041H81.2577L78.1818 38.6084H67.9766ZM77.416 35.7212L74.6016 27.4922C73.9603 25.625 73.5369 23.931 73.1072 22.2741H73.0263C72.5967 23.9681 72.1297 25.7054 71.5755 27.4489L68.7612 35.715L77.416 35.7212ZM88.1442 33.7737C88.1442 31.1461 88.0632 29.0193 87.9698 27.0718H91.3446L91.5189 30.5958H91.5998C93.1378 28.0919 95.5723 26.6081 98.9471 26.6081C103.947 26.6081 107.701 30.806 107.701 37.0442C107.701 44.4262 103.175 48.0678 98.3057 48.0678C95.5723 48.0678 93.1814 46.8807 91.9423 44.8466H91.8614V56H88.1442V33.7737ZM91.8551 39.2452C91.8551 39.8017 91.9361 40.3025 92.0295 40.7723C92.7144 43.3566 94.9746 45.1434 97.6706 45.1434C101.643 45.1434 103.953 41.9223 103.953 37.2112C103.953 33.0936 101.774 29.5819 97.8014 29.5819C95.2423 29.5819 92.8514 31.4057 92.1166 34.2064C91.9859 34.6701 91.8614 35.2266 91.8614 35.7335L91.8551 39.2452ZM111.587 33.7737C111.587 31.1461 111.506 29.0193 111.412 27.0718H114.787L114.962 30.5958H115.042C116.58 28.0919 119.015 26.6081 122.39 26.6081C127.39 26.6081 131.144 30.806 131.144 37.0442C131.144 44.4262 126.617 48.0678 121.748 48.0678C119.015 48.0678 116.624 46.8807 115.385 44.8466H115.304V56H111.587V33.7737ZM115.304 39.2452C115.304 39.8017 115.385 40.3025 115.478 40.7723C116.163 43.3566 118.423 45.1434 121.12 45.1434C125.092 45.1434 127.402 41.9223 127.402 37.2112C127.402 33.0936 125.223 29.5819 121.25 29.5819C118.691 29.5819 116.3 31.4057 115.565 34.2064C115.435 34.6701 115.31 35.2266 115.31 35.7335L115.304 39.2452ZM135.036 17.4888H138.796V47.5979H135.036V17.4888ZM146.355 38.0149C146.436 43.0599 149.687 45.1434 153.441 45.1434C156.131 45.1434 157.756 44.6797 159.163 44.0862L159.805 46.7571C158.485 47.3506 156.218 48.0307 152.931 48.0307C146.567 48.0307 142.763 43.876 142.763 37.681C142.763 31.4861 146.436 26.6081 152.457 26.6081C159.207 26.6081 161 32.5001 161 36.2776C161 37.0442 160.919 37.6316 160.869 38.0149H146.355ZM157.376 35.344C157.42 32.9699 156.392 29.2789 152.165 29.2789C148.36 29.2789 146.698 32.7597 146.399 35.344H157.376Z" fill="black"/>
</svg>
