<svg width="170" height="62" viewBox="0 0 170 62" fill="none" xmlns="http://www.w3.org/2000/svg">
<path d="M157.234 31.0406C157.234 30.6631 157.234 30.2724 157.234 29.868C157.234 29.4368 157.193 29.0189 157.112 28.6147C157.057 28.2103 157.017 27.8059 156.99 27.4016C156.962 26.9973 156.908 26.6199 156.827 26.2695H134.147L127.265 36.9841H144.693C144.177 38.7902 143.43 40.4345 142.453 41.9168C141.503 43.3725 140.363 44.6393 139.033 45.7175V45.7579C137.649 46.8361 136.115 47.6852 134.432 48.3053C132.776 48.8983 131.012 49.1948 129.139 49.1948C129.084 49.1948 129.03 49.1948 128.976 49.1948C128.948 49.1948 128.935 49.1948 128.935 49.1948C126.492 49.1948 124.184 48.7097 122.013 47.7392C119.841 46.7689 117.982 45.4749 116.434 43.8576C114.833 42.1594 113.571 40.2186 112.648 38.0353C111.725 35.852 111.263 33.5205 111.263 31.0406C111.263 31.0136 111.263 31.0001 111.263 31.0001C111.263 30.9732 111.263 30.9327 111.263 30.8787C111.263 28.4258 111.725 26.1212 112.648 23.9648C113.571 21.7815 114.846 19.8811 116.475 18.2638C118.077 16.6465 119.963 15.3527 122.135 14.3823C124.307 13.4119 126.614 12.9267 129.057 12.9267C129.057 12.9267 129.071 12.9267 129.098 12.9267C129.125 12.9267 129.139 12.9267 129.139 12.9267C129.139 12.9267 129.153 12.9267 129.179 12.9267C129.234 12.9267 129.261 12.9267 129.261 12.9267C130.292 12.9267 131.31 13.0212 132.315 13.2098C133.346 13.3715 134.337 13.6141 135.287 13.9375L135.083 13.8566C136.061 14.207 136.97 14.6114 137.811 15.0696C138.653 15.5278 139.44 16.0265 140.173 16.5656V16.5251L143.227 11.7137L146.281 6.86173C145.141 6.08004 143.919 5.3792 142.616 4.75924C141.34 4.13927 140.01 3.61366 138.626 3.18238L138.422 3.10144C137.065 2.72406 135.613 2.42755 134.065 2.21192C132.518 1.96931 130.957 1.84801 129.383 1.84801C129.329 1.84801 129.288 1.84801 129.261 1.84801C129.261 1.84801 129.234 1.84801 129.179 1.84801C129.152 1.84801 129.111 1.84801 129.057 1.84801C129.03 1.84801 128.989 1.84801 128.935 1.84801C126.845 1.84801 124.809 2.03668 122.827 2.41408C120.873 2.79143 118.973 3.3575 117.127 4.11225L117.371 4.03131C115.579 4.813 113.91 5.71601 112.363 6.74031C110.816 7.76458 109.404 8.9102 108.128 10.1771C106.608 11.7674 105.318 13.3308 104.26 14.8673C103.228 16.4576 102.373 18.0075 101.695 19.517C101.016 21.0265 100.46 22.5495 100.025 24.0859C99.618 25.5684 99.2515 27.0375 98.9259 28.4931C98.3015 31.3504 97.65 34.0728 96.9715 36.6604C96.2927 39.2481 94.8947 41.5799 92.7775 43.6553C91.9632 44.4909 91.0673 45.2591 90.0899 45.96C89.14 46.6338 88.149 47.1998 87.1176 47.658L86.9953 47.7389C85.9639 48.1434 84.8781 48.4669 83.738 48.7094C82.625 48.952 81.4444 49.0732 80.1956 49.0732C80.1956 49.0732 80.1684 49.0732 80.1141 49.0732C80.0869 49.0732 80.0733 49.0732 80.0733 49.0732C77.549 49.0732 75.1737 48.588 72.9477 47.6178C70.7218 46.6473 68.7673 45.3265 67.0843 43.6553C65.4556 42.065 64.1527 40.1647 63.1754 37.9544C62.1983 35.7171 61.7097 33.3449 61.7097 30.838C61.7097 28.4121 62.1847 26.121 63.1346 23.9646C64.0848 21.7812 65.3877 19.8809 67.0436 18.2636C68.6994 16.6193 70.6403 15.312 72.8662 14.3416C75.0922 13.3443 77.4675 12.8456 79.992 12.8456C81.0507 12.8456 82.0821 12.9401 83.0866 13.1287C84.0909 13.2904 85.0816 13.5195 86.059 13.816H85.896C86.8733 14.1125 87.7692 14.4899 88.5835 14.9481C89.3979 15.3794 90.185 15.8646 90.945 16.4037H90.8637L93.9581 11.5922L97.0934 6.69986C95.9804 5.94511 94.7724 5.25777 93.4695 4.6378C92.1938 4.01784 90.8501 3.49222 89.4385 3.06093H89.2755C87.9183 2.62965 86.466 2.30619 84.9188 2.09054C83.3985 1.87491 81.8378 1.76709 80.2363 1.76709C80.2091 1.76709 80.1683 1.76709 80.114 1.76709C80.0868 1.76709 80.0597 1.76709 80.0327 1.76709C80.0327 1.76709 80.0187 1.76709 79.9919 1.76709C79.9648 1.76709 79.9512 1.76709 79.9512 1.76709C77.4266 1.76709 74.9836 2.07707 72.6218 2.69704C70.2875 3.29005 68.0887 4.12566 66.0256 5.20385L66.1479 5.16338C64.1119 6.18768 62.2389 7.44107 60.5287 8.92359C58.8185 10.4061 57.2985 12.0369 55.9682 13.816L55.8869 13.8564C55.344 12.2391 54.5566 10.7701 53.5251 9.44926C52.4937 8.1015 51.272 6.98289 49.8604 6.09337H49.8197C48.3269 5.12297 46.6846 4.36823 44.8929 3.82913C43.1014 3.26308 41.2282 2.98004 39.2739 2.98004C39.1924 2.98004 39.1246 2.98004 39.0703 2.98004C39.0159 2.98004 38.9752 2.98004 38.9482 2.98004H12.7666V59.0196H41.6764C41.7307 59.0196 41.7849 59.0196 41.8392 59.0196C41.8935 59.0196 41.9343 59.0196 41.9615 59.0196C43.6988 59.0196 45.3547 58.804 46.929 58.3729C48.5034 57.9684 49.9965 57.3888 51.4081 56.6342L51.2858 56.6746C52.6158 55.9467 53.8103 55.0844 54.8689 54.0868C55.9547 53.0626 56.8642 51.9305 57.597 50.6904L57.6785 50.5692C58.9814 52.0518 60.4337 53.3726 62.0352 54.5317C63.637 55.6906 65.3336 56.7015 67.1251 57.5641L67.3286 57.6044C69.1203 58.4131 71.0476 59.0466 73.1108 59.5047C75.1736 59.9901 77.3181 60.2327 79.544 60.2327C79.544 60.2327 79.558 60.2327 79.5847 60.2327C79.6119 60.2327 79.6391 60.2327 79.6662 60.2327C79.7206 60.2327 79.7613 60.2327 79.7883 60.2327C79.8155 60.2327 79.8562 60.2327 79.9106 60.2327C82.4351 60.2327 84.8917 59.9227 87.2804 59.3026C89.6694 58.7096 91.8953 57.847 93.9582 56.7151L93.8361 56.8363C95.9533 55.7312 97.8671 54.4239 99.5772 52.9143C101.287 51.378 102.808 49.6797 104.138 47.8199L104.179 47.6985C105.481 49.5853 106.974 51.297 108.657 52.8336C110.367 54.343 112.214 55.6367 114.195 56.7152L114.317 56.7959C116.38 57.8741 118.606 58.7097 120.995 59.3028C123.384 59.9228 125.867 60.2328 128.446 60.2328C128.446 60.2328 128.46 60.2328 128.487 60.2328C128.514 60.2328 128.555 60.2328 128.609 60.2328C128.636 60.2328 128.663 60.2328 128.691 60.2328C128.718 60.2328 128.731 60.2328 128.731 60.2328C130.713 60.2328 132.64 60.0307 134.513 59.6263C136.386 59.2218 138.178 58.6425 139.888 57.8876C141.626 57.1599 143.254 56.2703 144.774 55.2191C146.294 54.1409 147.692 52.9414 148.968 51.6206C150.271 50.3268 151.425 48.8982 152.429 47.3349C153.434 45.7983 154.289 44.1675 154.994 42.4423C155.7 40.7174 156.243 38.9113 156.623 37.0244C157.03 35.1646 157.234 33.2238 157.234 31.2021C157.234 31.1751 157.234 31.1481 157.234 31.1212C157.234 31.0944 157.234 31.0676 157.234 31.0406ZM24.9415 25.7439V13.331H38.8263C38.8535 13.331 38.867 13.331 38.867 13.331C39.7357 13.331 40.5365 13.4927 41.2693 13.8162C42.0024 14.1128 42.6673 14.544 43.2646 15.1101H43.2238C43.7939 15.6761 44.2283 16.3231 44.527 17.0508C44.8525 17.7786 45.0155 18.5604 45.0155 19.396C45.0155 19.396 45.0155 19.4098 45.0155 19.4364C45.0155 19.4634 45.0155 19.4769 45.0155 19.4769C45.0155 19.5309 45.0155 19.5578 45.0155 19.5578C45.0155 19.5578 45.0155 19.5848 45.0155 19.6388C45.0155 20.4474 44.8525 21.2291 44.527 21.9839C44.2283 22.7117 43.8074 23.3586 43.2646 23.9246H43.2238C42.6537 24.4907 42.0024 24.9355 41.2693 25.2589C40.5365 25.5824 39.7357 25.7441 38.867 25.7441C38.867 25.7441 38.8531 25.7441 38.8263 25.7441L24.9415 25.7439ZM24.9415 48.6692V35.9329H41.5135C41.5407 35.9329 41.5543 35.9329 41.5543 35.9329C42.4502 35.9329 43.2917 36.0946 44.0788 36.418C44.8932 36.7415 45.6127 37.1729 46.2368 37.712C46.8341 38.2779 47.3093 38.9518 47.662 39.7335C48.015 40.5152 48.1913 41.3373 48.1913 42.1999C48.1913 42.1999 48.1913 42.2138 48.1913 42.2403C48.1913 43.1569 48.0149 44.006 47.662 44.7877C47.3093 45.5693 46.8205 46.2568 46.1963 46.8496C45.5991 47.4427 44.8932 47.9011 44.0788 48.2243C43.2917 48.5478 42.4366 48.7097 41.5135 48.7097H24.9415V48.6692Z" fill="#00522E"/>
</svg>
