<svg width="170" height="62" viewBox="0 0 170 62" fill="none" xmlns="http://www.w3.org/2000/svg">
<g clip-path="url(#clip0_1496_5951)">
<path d="M66.1053 55.4024H61.6875V37.7576H66.1053V55.4024Z" fill="#C4122E"/>
<mask id="mask0_1496_5951" style="mask-type:luminance" maskUnits="userSpaceOnUse" x="31" y="-1" width="108" height="63">
<path d="M31.0107 61.9996H138.989V-0.000396729H31.0107V61.9996Z" fill="white"/>
</mask>
<g mask="url(#mask0_1496_5951)">
<path d="M101.728 42.8134C101.546 42.7203 100.124 41.8713 98.011 41.8713C95.1549 41.8713 93.1734 43.8739 93.1734 46.5776C93.1734 49.1994 95.0695 51.2881 98.011 51.2881C100.088 51.2881 101.533 50.456 101.728 50.3517V55.0876C101.174 55.2427 99.6636 55.7152 97.7017 55.7152C92.7326 55.7152 88.3708 52.2627 88.3708 46.5762C88.3708 41.3086 92.317 37.4442 97.7017 37.4442C99.7728 37.4442 101.309 37.952 101.728 38.0775V42.8134ZM55.6149 42.8134C55.4372 42.7203 54.0168 41.8713 51.9038 41.8713C49.0421 41.8713 47.062 43.8739 47.062 46.5776C47.062 49.1994 48.9596 51.2881 51.9038 51.2881C53.9804 51.2881 55.4246 50.456 55.6149 50.3517V55.0876C55.0663 55.2427 53.5578 55.7152 51.5847 55.7152C46.6199 55.7152 42.2637 52.2627 42.2637 46.5762C42.2637 41.3086 46.2098 37.4442 51.5861 37.4442C53.6656 37.4442 55.1993 37.952 55.6149 38.0775V42.8134ZM115.625 41.9376C113.004 41.9376 111.057 44.0164 111.057 46.5776C111.057 49.1444 113.004 51.2219 115.625 51.2219C118.243 51.2219 120.195 49.1444 120.195 46.5776C120.195 44.0164 118.243 41.9376 115.625 41.9376ZM124.876 46.5776C124.876 51.6252 121.009 55.7152 115.626 55.7152C110.24 55.7152 106.379 51.6252 106.379 46.5762C106.379 41.5385 110.241 37.4442 115.625 37.4442C121.009 37.4442 124.876 41.5384 124.876 46.5776ZM82.8588 41.7683C82.793 41.7472 80.9333 41.2296 79.4052 41.2296C77.635 41.2296 76.6723 41.8276 76.6723 42.6752C76.6723 43.7499 77.9709 44.125 78.6972 44.3563L79.916 44.747C82.7846 45.6665 84.0902 47.6452 84.0902 49.7946C84.0902 54.2273 80.2224 55.7166 76.8416 55.7166C74.4921 55.7166 72.2909 55.2794 72.074 55.2342V51.1725C72.463 51.2712 74.3158 51.8297 76.2455 51.8297C78.4439 51.8297 79.4542 51.181 79.4542 50.1824C79.4542 49.2883 78.5796 48.7721 77.4839 48.4251C77.218 48.3348 76.815 48.2079 76.5408 48.1176C74.0807 47.3335 72.0292 45.8752 72.0292 42.9558C72.0292 39.6556 74.4809 37.44 78.553 37.44C80.7038 37.44 82.7273 37.966 82.8588 38.0013V41.7669V41.7683Z" fill="#C4122E"/>
<path d="M37.5784 18.7953C37.5784 17.5796 36.5932 16.5937 35.3856 16.5937C34.1779 16.5937 33.1914 17.5795 33.1914 18.7938V23.4268C33.2059 24.0035 33.4433 24.5516 33.8531 24.9543C34.2629 25.357 34.8126 25.5824 35.3849 25.5824C35.9572 25.5824 36.5069 25.357 36.9167 24.9543C37.3265 24.5516 37.5639 24.0035 37.5784 23.4268V18.7953ZM49.6254 12.7167C49.6254 12.1304 49.3943 11.5681 48.9829 11.1535C48.5716 10.7389 48.0136 10.506 47.4319 10.506C46.8502 10.506 46.2922 10.7389 45.8809 11.1535C45.4695 11.5681 45.2384 12.1304 45.2384 12.7167V23.4268C45.2384 24.0131 45.4695 24.5755 45.8809 24.9901C46.2922 25.4046 46.8502 25.6375 47.4319 25.6375C48.0136 25.6375 48.5716 25.4046 48.9829 24.9901C49.3943 24.5755 49.6254 24.0131 49.6254 23.4268V12.7152V12.7167ZM61.6738 4.3985C61.6738 3.18278 60.6886 2.19553 59.481 2.19553C58.272 2.19553 57.2868 3.18278 57.2868 4.3985V27.8285C57.3013 28.4051 57.5387 28.9533 57.9485 29.356C58.3583 29.7587 58.908 29.9841 59.4803 29.9841C60.0526 29.9841 60.6023 29.7587 61.0121 29.356C61.4219 28.9533 61.6593 28.4051 61.6738 27.8285V4.3985ZM73.7208 12.7167C73.7208 12.1304 73.4897 11.5681 73.0783 11.1535C72.667 10.7389 72.109 10.506 71.5273 10.506C70.9455 10.506 70.3876 10.7389 69.9763 11.1535C69.5649 11.5681 69.3338 12.1304 69.3338 12.7167V23.4268C69.3338 24.0131 69.5649 24.5755 69.9763 24.9901C70.3876 25.4046 70.9455 25.6375 71.5273 25.6375C72.109 25.6375 72.667 25.4046 73.0783 24.9901C73.4897 24.5755 73.7208 24.0131 73.7208 23.4268V12.7152V12.7167ZM85.7552 18.7953C85.7556 18.212 85.5261 17.6525 85.1173 17.2396C84.7085 16.8268 84.1537 16.5944 83.575 16.5937C82.995 16.5933 82.4385 16.8247 82.0275 17.2371C81.6165 17.6495 81.3844 18.2093 81.3822 18.7938V23.4268C81.3822 24.0113 81.6126 24.5718 82.0226 24.9851C82.4327 25.3983 82.9888 25.6305 83.5687 25.6305C84.1486 25.6305 84.7047 25.3983 85.1148 24.9851C85.5248 24.5718 85.7552 24.0113 85.7552 23.4268V18.7953ZM97.8078 12.7167C97.7934 12.1419 97.5567 11.5955 97.1482 11.1941C96.7397 10.7927 96.1918 10.5681 95.6213 10.5681C95.0508 10.5681 94.5029 10.7927 94.0944 11.1941C93.6859 11.5955 93.4493 12.1419 93.4348 12.7167V23.4268C93.4348 24.0113 93.6652 24.5718 94.0752 24.9851C94.4853 25.3983 95.0414 25.6305 95.6213 25.6305C96.2012 25.6305 96.7573 25.3983 97.1674 24.9851C97.5774 24.5718 97.8078 24.0113 97.8078 23.4268V12.7152V12.7167ZM109.863 4.3985C109.863 3.81405 109.633 3.25354 109.223 2.84027C108.813 2.427 108.257 2.19484 107.677 2.19484C107.097 2.19484 106.541 2.427 106.131 2.84027C105.721 3.25354 105.49 3.81405 105.49 4.3985V27.8285C105.477 28.126 105.524 28.423 105.628 28.7018C105.732 28.9805 105.891 29.2351 106.096 29.4502C106.3 29.6654 106.545 29.8366 106.817 29.9535C107.089 30.0705 107.381 30.1309 107.677 30.1309C107.972 30.1309 108.265 30.0705 108.536 29.9535C108.808 29.8366 109.053 29.6654 109.258 29.4502C109.462 29.2351 109.621 28.9805 109.725 28.7018C109.829 28.423 109.876 28.126 109.863 27.8285V4.3985ZM121.916 12.7167C121.916 11.4996 120.938 10.5109 119.702 10.5109C119.122 10.5113 118.566 10.7437 118.156 11.157C117.746 11.5704 117.516 12.1309 117.516 12.7152V23.4268C117.516 24.6496 118.496 25.6354 119.702 25.6354C120.938 25.6354 121.916 24.6496 121.916 23.4268V12.7152V12.7167ZM133.946 18.7953C133.946 18.2103 133.715 17.6492 133.305 17.2355C132.895 16.8218 132.338 16.5895 131.757 16.5895C131.177 16.5895 130.62 16.8218 130.21 17.2355C129.799 17.6492 129.569 18.2103 129.569 18.7953V23.4268C129.569 24.6496 130.55 25.6368 131.757 25.6368C132.964 25.6368 133.945 24.6496 133.945 23.4268V18.7953H133.946Z" fill="#15495D"/>
<path d="M131.418 53.0778V53.3542H130.637V55.4006H130.315V53.3557H129.531V53.0778H131.418ZM131.581 53.0778H132.084L132.774 54.9832H132.785L133.452 53.0792H133.945V55.4006H133.616V53.4967H133.605L132.905 55.4006H132.601L131.919 53.4967H131.903V55.4006H131.581V53.0778Z" fill="#C4122E"/>
</g>
</g>
<defs>
<clipPath id="clip0_1496_5951">
<rect width="170" height="62" fill="white"/>
</clipPath>
</defs>
</svg>
