<svg width="170" height="62" viewBox="0 0 170 62" fill="none" xmlns="http://www.w3.org/2000/svg">
<path d="M88.3649 20.0274H84.1941L81.8418 23.85H86.0105L88.3649 20.0274ZM99.1845 30.0853C96.9996 30.2664 93.1393 32.2253 91.0368 36.5052C88.9343 40.7852 88.9266 43.4273 88.9266 43.4273C88.9266 43.4273 90.0355 42.209 91.7353 40.9335C93.4352 39.6579 94.7003 39.2047 94.7003 39.2047C94.7003 39.2047 95.0158 37.6333 95.8008 35.9898C96.5642 34.3911 97.7756 32.7267 99.2745 32.3491C102.313 31.5826 100.858 37.1402 98.6262 40.7642C97.4267 42.7119 93.1721 48.3094 89.5093 48.3094C85.8465 48.3094 85.1396 44.77 85.9121 41.4608C86.6839 38.1522 87.7522 33.9485 93.0961 26.3103C98.4399 18.6721 104.224 14.1439 107.572 12.241C111.011 10.2877 112.412 11.1437 112.412 11.1437C112.412 11.1437 108.022 13.8536 105.525 17.114C103.137 20.2302 101.712 23.7367 102.82 25.455C103.875 27.0921 107.595 27.1229 111.69 21.1967C115.732 15.3467 114.712 11.8682 114.712 11.8682C114.712 11.8682 115.2 11.7088 115.528 11.6647C117.499 11.4018 119.078 11.9228 121.524 13.1795C124.085 14.4963 126.543 16.6083 129.911 18.3364C130.925 17.2231 132.053 16.0405 133.24 14.8866C128.7 12.6718 125.253 9.51495 120.801 9.21214C116.925 8.94919 113.869 10.3646 113.869 10.3646C113.869 10.3646 112.687 8.75127 109.04 9.27787C105.394 9.80518 94.1582 14.5131 84.5988 29.8552C75.9557 43.7266 80.0281 51.676 86.2408 51.5851C92.9754 51.4858 99.382 43.9798 101.55 37.7899C103.718 31.6001 101.156 29.9224 99.1845 30.0853ZM112.405 17.1958C111.273 19.961 109.607 21.8932 107.967 23.3689C105.864 25.262 104.71 25.1983 104.21 24.8179C102.905 23.822 104.656 20.0666 107.695 16.7084C110.721 13.3634 113.327 12.3228 113.327 12.3228C113.327 12.362 113.76 13.8802 112.405 17.1958ZM149.908 13.1634C146.826 15.1502 142.554 16.9496 138.453 16.5531C137.416 17.6322 136.303 18.8756 135.187 20.2358C142.305 21.6429 148.531 17.2238 151.846 13.4585C153.913 11.1108 154.934 9.01492 154.934 9.01492C154.934 9.01492 152.96 11.1955 149.908 13.1634Z" fill="#F40009"/>
<path d="M146.541 30.5964H142.156L141.443 31.7C141.443 31.7 140.549 30.0824 139.034 30.1083C136.438 30.1531 133.84 32.1392 130.821 35.5841C128.608 38.108 124.941 43.7272 124.941 43.7272C124.941 43.7272 122.126 48.0736 120.703 47.733C118.276 47.1519 122.74 38.1521 122.74 38.1521C122.74 38.1521 125.086 36.6996 128.128 34.1351C130.042 32.521 132.245 30.3006 134.27 28.2425C136.112 26.3703 138.282 23.8282 140.345 21.0435C139.817 21.1274 139.275 21.184 138.723 21.2113C136.873 23.6562 134.898 25.8444 133.219 27.5837C130.718 30.1726 128.419 32.2909 126.747 33.6421C125.146 34.9358 124.119 35.5184 124.119 35.5184C124.119 35.5184 127.174 29.2306 132.266 22.2834C137.357 15.3369 144.487 8.88337 143.928 11.9451C143.768 12.8241 143.223 14.085 142.401 15.5816C142.98 15.4606 143.542 15.3096 144.085 15.1376C145.312 12.5997 145.73 10.5079 144.814 9.9037C141.078 7.43783 131.575 17.6412 126.811 23.5674C122.048 29.4936 117.737 38.55 117.737 38.55C117.737 38.55 116.992 38.8633 116.168 39.02C115.648 39.1193 115.426 39.0976 115.341 39.064C115.298 39.0466 115.293 39.0172 115.293 39.0172C115.293 39.0172 119.484 31.1664 115.194 30.1251C111.053 29.1208 103.88 36.7968 101.329 42.1362C99.5793 45.7994 98.5919 50.4108 101.593 51.5088C104.844 52.6983 110.365 46.7512 111.663 45.0231C112.961 43.2943 114.581 40.4201 114.581 40.4201C114.581 40.4201 115.374 40.3781 115.807 40.3144C116.636 40.1921 117.024 40.09 117.024 40.09C117.024 40.09 116.487 41.5005 115.905 43.2887C114.822 46.6232 113.844 51.3941 117.745 51.6186C120.231 51.7605 123.878 47.2617 123.878 47.2617C123.878 47.2617 122.897 51.2619 126.123 51.6186C128.504 51.8815 131.97 48.1939 131.97 48.1939C131.97 48.1939 131.215 51.371 133.63 51.6507C135.697 51.8906 138.631 49.4618 141.037 46.7896C143.664 43.872 145.68 40.6767 145.68 40.6767H144.152C144.152 40.6767 140.771 45.8196 138.397 47.1959C136.448 48.3261 137.116 46.5155 137.707 45.5665C138.359 44.5196 146.539 30.5964 146.539 30.5971L146.541 30.5964ZM113.127 40.283C113.067 40.4208 111.969 42.3348 110.795 43.8398C109.529 45.4616 107.213 47.9023 105.821 47.3862C103.645 46.5791 106.04 41.8271 107.606 39.5221C109.171 37.2171 109.349 37.0611 109.393 37.001C109.437 36.9408 109.481 36.8856 109.52 36.9569C109.558 37.0283 110.056 37.9752 111.04 38.7969C112.028 39.6221 112.979 40.0578 113.055 40.0851C113.132 40.1123 113.187 40.1452 113.127 40.2823V40.283ZM114.106 38.5703C113.968 38.7997 113.87 38.8109 113.584 38.7346C113.082 38.5983 111 37.6339 111.016 35.4946C111.031 33.4099 113.963 31.3678 115.113 32.2406C116.187 33.0546 115.674 35.1358 115.269 36.1974C114.865 37.2583 114.196 38.4199 114.106 38.5703ZM134.03 43.7272C133.45 44.5231 132.966 45.242 132.529 45.7469C131.596 46.8274 130.986 47.3302 130.444 47.4631C130.17 47.5295 129.831 47.5134 129.606 47.3771C128.809 46.891 129.368 44.9986 130.755 42.4544C132.024 40.1291 133.491 37.8024 135.902 35.124C138.323 32.435 139.249 32.3056 139.926 32.3364C140.496 32.3609 140.577 32.9616 140.577 32.9616C140.577 32.9616 140.537 33.1008 140.446 33.2581C139.647 34.6463 135.622 41.539 134.029 43.7272H134.03ZM69.3375 47.091C66.6781 45.4441 63.2665 44.3874 59.3469 44.3531C49.2495 44.265 38.2555 49.1814 30.8091 49.2478C22.0264 49.3247 21.5889 42.553 22.24 38.8346C23.6412 30.8237 29.3109 23.1813 32.9563 19.1518C36.6024 15.1222 40.4229 11.9954 43.5993 11.1961C46.7758 10.3967 46.4771 12.8178 46.0884 13.1486C45.6872 13.157 44.9175 13.2437 44.4807 13.5466C43.7968 14.0193 42.8834 14.8851 42.8261 16.2579C42.7278 18.3727 45.4548 18.7433 47.4261 14.3151C48.7708 11.2947 46.6383 9.24492 44.8672 9.04771C42.4382 8.77637 38.7258 9.62257 34.2947 12.4766C26.5825 17.4433 16.2667 28.4725 16.0036 40.7096C15.8536 47.6904 20.404 51.6186 26.6473 51.6186C32.8907 51.6186 41.367 47.7869 49.6438 47.689C54.7685 47.6449 58.0852 49.445 59.7649 52.3766C59.7649 52.3766 61.434 49.594 65.1513 49.445C68.8288 49.2968 72.8775 50.3297 76.2012 52.6711C75.0923 51.0654 71.9577 48.7135 69.3368 47.091H69.3375Z" fill="#F40009"/>
<path d="M46.3424 19.5991C42.1095 18.5179 35.0797 25.7393 32.1175 31.6166C30.2906 35.2419 29.4895 39.7981 32.742 40.9835C35.9945 42.1689 41.5128 36.2259 42.8108 34.4978C44.1087 32.7691 46.2328 29.3066 46.2328 29.3066C46.2328 29.3066 46.8846 29.1808 47.3117 29.0814C47.7387 28.9821 48.4289 28.7849 48.4289 28.7849C48.4289 28.7849 47.6285 30.2144 46.9062 31.6795C46.05 33.4166 43.7235 39.1995 48.2153 40.9338C52.5069 42.5906 58.6162 35.6818 58.9372 35.551C58.9372 35.551 57.1187 40.259 59.9435 40.9835C63.0432 41.7779 66.4401 37.798 66.4401 37.798C66.4401 37.798 65.7249 40.7856 68.14 41.066C72.465 41.5674 80.1152 30.4808 80.1152 30.4808H78.5869C78.5869 30.4808 74.6938 35.5014 72.8216 36.5385C70.9494 37.5756 71.6228 35.7329 72.1315 34.909C72.7804 33.8607 81.0509 20.011 81.0509 20.011H76.6652L76.1565 20.8174C76.1565 20.8174 75.2528 19.4348 73.742 19.5334C69.3465 19.8208 64.1164 26.8422 61.8164 29.9367C59.5171 33.032 54.5564 38.9414 51.9444 37.8882C49.0981 36.7399 51.9284 31.4683 53.8006 28.373C55.8389 25.0036 59.4515 21.6664 60.8799 21.6405C62.6377 21.6076 61.9476 23.2042 61.9476 23.2042C61.9476 23.2042 60.6336 23.0399 59.6811 24.2413C59.007 25.091 58.4488 26.3316 59.0893 27.0065C60.1242 28.0968 61.4717 26.9897 62.2763 25.7547C64.7849 21.9062 62.9497 19.8782 60.979 19.5823C56.781 18.9508 52.9137 24.356 49.9738 26.3645C47.9341 27.7569 47.0821 27.6485 47.0821 27.6485C47.0821 27.6485 50.6207 20.6915 46.3431 19.5984L46.3424 19.5991ZM65.3473 32.0445C66.6167 29.7185 68.3458 27.473 70.5963 24.6581C72.8467 21.8433 73.9667 21.6153 74.6443 21.6461C75.2144 21.6713 75.2954 22.2713 75.2954 22.2713C75.2954 22.2713 70.4058 30.8095 68.6319 33.246C68.0528 34.0419 67.5573 34.716 67.1205 35.2216C66.1868 36.3021 65.5085 36.8245 64.9852 36.9546C64.7116 37.0217 64.3725 37.005 64.1471 36.8679C63.3502 36.3818 63.958 34.588 65.3466 32.0445H65.3473ZM44.5958 29.2738C44.5351 29.4108 43.1387 31.7249 41.965 33.2299C40.7006 34.8517 38.3636 37.3022 36.9715 36.7861C34.795 35.979 37.1166 31.2599 38.6825 28.9556C40.2484 26.6505 40.478 26.354 40.5226 26.2946C40.5666 26.2337 40.6099 26.1785 40.6482 26.2505C40.6866 26.3219 41.1849 27.3485 42.2637 28.0394C43.3425 28.7311 44.4485 29.0493 44.5253 29.0766C44.6021 29.1038 44.6572 29.1374 44.5965 29.2738H44.5958ZM46.4164 25.6715C46.0116 26.7338 45.6502 27.403 45.5755 27.5611C45.4555 27.8142 45.1547 27.7331 45.1547 27.7331C44.8121 27.7177 42.1485 27.1086 42.1639 24.9693C42.1786 22.8846 45.1115 20.8425 46.2608 21.7153C47.334 22.5293 46.8211 24.6106 46.4164 25.6715ZM143.241 49.0804C142.985 48.935 142.701 48.8629 142.387 48.8629C142.074 48.8629 141.789 48.9357 141.533 49.0804C141.277 49.2259 141.076 49.4231 140.929 49.6742C140.782 49.9245 140.708 50.1973 140.708 50.491C140.708 50.7847 140.782 51.0624 140.929 51.3113C141.075 51.5596 141.277 51.7568 141.533 51.9016C141.789 52.047 142.074 52.1191 142.387 52.1191C142.701 52.1191 142.985 52.0463 143.241 51.9016C143.498 51.7568 143.698 51.5596 143.846 51.3113C143.992 51.0631 144.066 50.7896 144.066 50.491C144.066 50.1924 143.993 49.9245 143.846 49.6742C143.699 49.4238 143.498 49.2259 143.241 49.0804ZM143.542 51.1652C143.431 51.3638 143.275 51.5197 143.075 51.6337C142.874 51.747 142.645 51.8037 142.387 51.8037C142.13 51.8037 141.9 51.747 141.7 51.6337C141.5 51.5204 141.344 51.3645 141.232 51.1652C141.121 50.9666 141.066 50.7414 141.066 50.491C141.066 50.2406 141.121 50.0218 141.232 49.8231C141.343 49.6245 141.5 49.4686 141.703 49.3546C141.905 49.2406 142.133 49.1846 142.387 49.1846C142.641 49.1846 142.869 49.2413 143.072 49.3546C143.274 49.4679 143.431 49.6238 143.542 49.8231C143.653 50.0218 143.709 50.2448 143.709 50.491C143.709 50.7372 143.653 50.9666 143.542 51.1652Z" fill="#F40009"/>
<path d="M143.018 50.465C143.066 50.3874 143.09 50.3007 143.09 50.2056C143.09 50.0741 143.047 49.9643 142.962 49.8748C142.877 49.7853 142.762 49.7405 142.62 49.7405H141.769V51.214H142.143V50.6769H142.429L142.774 51.214H143.203L142.816 50.6413C142.903 50.6014 142.971 50.5426 143.018 50.465ZM142.661 50.3098C142.633 50.3356 142.595 50.3482 142.548 50.3482H142.143V50.0622H142.548C142.595 50.0622 142.633 50.0755 142.661 50.1007C142.689 50.1265 142.703 50.1615 142.703 50.2049C142.703 50.2482 142.689 50.2832 142.661 50.3091V50.3098Z" fill="#F40009"/>
</svg>
