<svg width="170" height="62" viewBox="0 0 170 62" fill="none" xmlns="http://www.w3.org/2000/svg">
<path d="M85.2422 7.57015C86.2325 7.61646 87.1785 7.99473 87.9277 8.64404C88.9487 9.61055 89.2164 11.2222 88.7331 12.5116C86.8546 16.3784 82.387 18.9612 79.3342 19.8157C77.5078 20.2452 75.1989 20.2452 73.5336 19.6009C72.7274 20.0842 72.0473 21.646 71.0629 20.997C69.638 19.8842 70.8714 18.1426 70.0489 16.9068C69.8792 16.6524 69.452 16.6337 69.2372 16.2174C68.1089 13.7466 69.5057 11.3833 71.0629 9.50394C73.6589 6.60753 81.1069 3.3804 85.2422 7.57015ZM76.595 9.50316C75.1445 9.77164 73.5064 10.4027 72.6208 11.437C71.7344 12.4704 71.171 13.4781 71.708 14.552C73.5881 13.156 74.5009 11.2222 76.5958 10.0409C76.595 9.82533 76.9172 9.66425 76.595 9.50316ZM85.3504 10.0409C81.6439 9.71794 78.851 12.5116 76.2191 15.1964C76.058 15.6259 75.0915 16.1092 75.8433 16.5924C79.3887 16.9146 82.7722 15.8952 85.3504 13.5311C86.1029 12.833 86.6383 11.9202 86.2639 10.9529C86.1029 10.5778 85.7239 10.202 85.3504 10.0409ZM117.467 26.0458C119.186 30.2356 120.636 36.8408 117.467 40.8695C116.608 41.836 115.104 42.727 114.138 41.9971C110.592 39.1513 109.09 35.0689 106.887 31.4161C106.565 31.255 106.565 31.6853 106.404 31.8464C105.599 35.5522 107.102 40.3862 104.579 43.2858C103.612 43.4469 102.708 42.9496 102.376 41.9971C101.141 38.184 102.428 34.209 102.751 30.3959C103.503 28.4621 103.825 26.2069 105.491 24.7564C108.176 25.8303 109.465 28.8387 111.021 31.041C112.15 32.7056 113.062 34.5857 114.351 36.0891C115.479 35.6059 114.924 34.132 114.889 33.2425C114.458 29.7516 113.491 26.5291 112.578 23.1992C112.525 22.3401 112.042 20.8896 112.953 20.3526C115.374 21.4273 116.392 23.951 117.467 26.0458ZM101.247 24.7564C101.247 25.5626 100.603 26.5696 100.064 26.6902C94.9088 27.4956 89.1619 27.0123 84.3286 28.6232C84.1675 29.2138 84.8656 29.3212 85.2414 29.4823C89.3759 30.1266 93.7275 30.2877 97.7562 31.3087C99.8861 31.8495 100.657 34.3709 100.818 36.465C100.917 38.1163 100.282 40.117 98.6698 41.2454C94.6964 43.7698 88.6273 43.6616 84.5979 41.3535C83.0578 40.4897 81.5902 39.0984 81.4828 37.3793C81.4921 36.0144 82.0742 34.9397 83.0407 34.4253C86.9083 32.8674 91.6879 33.7281 95.0185 35.714C95.2318 36.7887 94.0692 36.7303 93.5128 37.1109C89.8063 39.2594 87.0141 34.6954 83.5769 36.3584C83.0936 36.6805 82.7442 37.5793 83.3084 37.8626C87.5511 39.7427 92.2778 38.3995 96.4667 37.2183C96.95 37.0572 97.5414 36.5739 97.5943 36.0907C97.4333 34.3717 95.5002 33.9966 94.2645 33.5133C90.6124 32.6005 86.5846 32.6005 82.6633 32.2246C81.9116 32.0635 80.9536 31.5398 80.7303 30.936C80.3007 29.6473 80.3007 27.8746 81.2672 26.8007C86.2616 22.3961 93.8341 22.7728 100.172 23.9541C100.602 24.112 101.085 24.2731 101.247 24.7564ZM77.7771 26.7976C78.2603 31.953 78.5288 36.7342 78.4214 42.1582C78.314 42.8554 77.5086 43.0173 76.9716 43.2858C76.1125 43.4469 75.002 43.264 74.662 42.8025C73.427 40.8143 73.8566 38.1303 73.7492 35.7132C73.9102 31.9009 73.8566 27.7649 74.9312 24.2194C75.1367 23.7043 75.7367 23.2529 76.2199 23.5743C77.5086 24.2194 77.7234 25.5089 77.7771 26.7976ZM137.448 26.0458C137.707 26.4801 137.977 27.1509 137.448 27.4419C135.031 28.5158 131.756 28.0325 128.962 28.3547C128.211 28.9991 127.619 30.073 127.887 31.0402C128.157 31.2013 128.397 31.4464 128.694 31.4153C130.411 31.5235 132.99 30.6099 134.119 32.2207C134.395 32.7001 134.082 34.4899 133.314 34.5304C131.218 34.8004 127.772 34.2674 126.76 34.8004C125.471 35.6595 125.578 37.3241 125.095 38.668C126.008 39.2587 126.965 38.654 128.048 38.5061C130.037 38.184 132.239 37.5933 134.225 38.0229C134.601 38.7209 135.139 39.4734 134.762 40.3326C131.376 43.0181 127.009 45.7705 122.356 43.8235C120.61 43.0406 119.832 40.3862 120.423 38.1318C120.798 36.5202 122.463 34.9631 121.443 33.2441C121.282 32.4915 121.713 31.848 122.357 31.6869C124.129 31.6869 123.752 29.4846 124.666 28.4637C123.646 27.3361 121.068 27.3898 121.337 25.1338C122.573 24.4895 124.077 24.7042 125.471 24.4895C128.64 23.8443 132.185 23.4685 135.41 23.8444C136.052 23.9735 136.911 25.2404 137.448 26.0458ZM60.7511 13.8003C65.7074 17.8515 72.1375 24.7572 71.3321 32.7056C70.3648 38.9902 63.7051 43.7161 58.0656 45.2203C52.5872 46.8312 45.7127 46.6701 40.1261 45.3814C39.7502 46.4024 39.3744 47.6366 38.1931 48.0669C37.4413 48.3354 36.4741 48.1743 35.8834 47.6911C34.2189 46.1331 35.5613 43.1255 33.1442 42.1597C28.4175 40.1722 23.3149 36.251 20.8987 31.4177C20.5765 30.4512 20.9524 29.4846 21.543 28.7329C25.2495 25.7789 29.9217 24.5976 34.5947 23.684C34.8632 23.7914 34.7558 23.4156 34.9706 23.3082C35.2391 20.0857 35.3465 16.8088 36.3667 13.9085C36.5993 13.5015 37.1721 13.3715 37.5487 13.64C40.5027 15.8952 39.1059 20.1394 40.3953 23.2C46.0349 23.4685 51.6744 23.737 56.1318 26.9065C57.6361 28.1415 58.0026 30.5002 57.5279 31.848C57.054 33.1935 55.4875 34.1576 54.0369 34.2635C53.0697 34.2635 51.244 34.3576 51.3514 33.6199C51.4588 32.8814 54.6369 31.6729 53.6611 30.6651C52.258 29.2169 45.238 28.3555 40.8872 27.8185C40.3502 27.7112 39.8576 27.8722 39.8576 28.4629C39.7502 32.5445 39.4281 37.0556 40.1261 40.9777C40.1798 41.2469 40.502 41.5691 40.7712 41.6212C48.4511 42.857 56.5614 42.1582 62.5768 37.7544C65.3697 35.5 66.2832 32.3289 65.7992 28.8387C63.3822 19.1176 53.2315 13.2626 44.9065 9.50316C36.797 5.95853 27.8269 4.13213 18.2132 4.61616C16.6825 4.72822 14.2569 5.2566 14.239 5.79822C14.2211 6.33984 16.9867 6.16941 16.6552 7.19428C16.3245 8.21838 13.5137 7.61061 12.681 7.35537C11.8484 7.10012 11.9293 5.90483 12.1441 5.1531C14.239 1.44738 20.0847 1.14778 22.7251 1.01782C37.3332 0.641183 51.4596 6.20444 60.7511 13.8003ZM34.4337 28.1944C30.7272 28.2481 26.8067 28.624 23.3694 29.9126C22.6714 30.1811 21.8115 30.9328 22.3484 31.8464C23.7445 33.7258 25.7413 35.2689 27.6121 36.3576C29.4828 37.4447 31.9629 38.8283 34.2189 39.1513C34.7558 35.6595 34.7558 32.2223 34.7021 28.624C34.4866 28.5166 34.7014 28.3018 34.4337 28.1944ZM145.45 23.3066C145.289 27.9789 140.937 30.8799 140.937 35.5522C141.098 35.7132 141.207 35.928 141.42 35.8222C144.913 32.0083 148.349 26.5836 153.452 24.9727C154.796 24.8653 156.011 26.0334 156.514 26.9065C158.287 30.4511 157.859 35.4463 155.387 38.6688C152.837 41.8321 148.404 45.0063 143.357 44.4686C141.263 49.6249 139.81 55.0496 139.005 60.6891C138.575 61.8167 137.556 60.7965 136.911 60.5817C132.561 57.1445 136.133 48.0452 136.428 46.8841C136.723 45.7262 137.887 42.9947 138.739 40.7076C136.697 37.0564 137.986 32.6511 139.651 29.2675C140.939 27.0116 142.714 24.7556 144.808 23.0374C145.074 23.0381 145.289 23.0918 145.45 23.3066ZM154.098 29.1072C153.454 28.9998 153.185 29.8597 152.649 30.0208C150.179 32.8137 147.707 35.6066 146.471 38.9365C148.138 39.1513 149.533 38.0774 150.984 37.4867C153.454 35.9288 155.012 33.3522 154.851 30.3975C154.743 29.9126 154.313 29.5368 154.098 29.1072Z" fill="black"/>
</svg>
