<svg width="170" height="62" viewBox="0 0 170 62" fill="none" xmlns="http://www.w3.org/2000/svg">
<path d="M15.8462 20.0394C13.9231 20.0394 13.3462 20.8922 13.3462 22.7917V25.9315H18.5L18 31.0484H13.3462V46.5152H7.15385V31.0484H3V25.9703H7.15385V22.908C7.15385 17.7136 9.23077 15.0001 14.9615 15.0001C16.1538 15.0001 17.3846 15.0777 18.5769 15.2327V20.0394" fill="#004F9D"/>
<path d="M18.9232 35.5838C18.9232 29.8467 21.6155 25.5051 27.3078 25.5051C30.3848 25.5051 32.2694 27.0945 33.1925 29.1102V25.9703H39.1155V46.5539H33.154V43.4528C32.3078 45.4298 30.3463 46.9803 27.2694 46.9803C21.6155 46.9803 18.8848 42.6775 18.8848 36.9017M25.1155 36.9793C25.1155 40.0416 26.2309 42.0961 29.1155 42.0961C31.654 42.0961 32.9232 40.2354 32.9232 37.2894V35.1961C32.9232 32.2501 31.6155 30.3894 29.1155 30.3894C26.2309 30.3894 25.1155 32.4051 25.1155 35.5062V36.9793Z" fill="#004F9D"/>
<path d="M51.9613 25.5051C54.3459 25.5051 56.6536 26.0091 57.8844 26.9006L56.4998 31.3197C55.2305 30.6995 53.8075 30.3894 52.3844 30.3894C49.0382 30.3894 47.5767 32.3276 47.5767 35.6613V36.863C47.5767 40.1967 49.0382 42.1349 52.3844 42.1349C53.8075 42.1349 55.2305 41.786 56.4998 41.1658L57.8844 45.5848C56.6536 46.4376 54.3844 46.9803 51.9613 46.9803C44.6921 46.9803 41.4229 43.0652 41.4229 36.7467V35.7776C41.4229 29.4591 44.6921 25.5051 51.9613 25.5051Z" fill="#004F9D"/>
<path d="M58.6924 37.018V35.1961C58.6924 29.3428 62.0001 25.5051 68.7308 25.5051C75.077 25.5051 77.8847 29.3815 77.8847 35.1186V38.4135H64.8847C65.0001 41.2433 66.2693 42.4837 69.6924 42.4837C71.9232 42.4837 74.1539 42.0573 76.2693 41.2433L77.3847 45.5073C75.7693 46.3601 72.4232 47.0191 69.4616 47.0191C61.6155 46.9803 58.6924 43.0652 58.6924 37.018ZM64.8847 34.3045H72.3462V33.8006C72.3462 31.5523 71.4616 29.7692 68.7308 29.7692C65.9616 29.7692 64.8847 31.5523 64.8847 34.3045Z" fill="#004F9D"/>
<path d="M100.808 36.9018C100.808 42.6389 98.0773 46.9805 92.385 46.9805C89.3081 46.9805 87.1542 45.4299 86.3081 43.4529V46.5541H80.4619V15.6205L86.6542 15.0778V28.839C87.5388 27.017 89.5388 25.544 92.4235 25.544C98.0773 25.544 100.847 29.8468 100.847 35.6226M94.6158 35.4676C94.6158 32.5603 93.5004 30.3895 90.5388 30.3895C88.0004 30.3895 86.6542 32.2114 86.6542 35.1575V37.3282C86.6542 40.2743 88.0388 42.0962 90.5388 42.0962C93.5004 42.0962 94.6158 39.9254 94.6158 37.0181V35.4676Z" fill="#004F9D"/>
<path d="M102.846 36.7465V35.6999C102.846 29.769 106.192 25.505 113 25.505C119.807 25.505 123.153 29.769 123.153 35.6999V36.7465C123.153 42.6774 119.807 46.9414 113 46.9414C106.192 46.9414 102.846 42.7162 102.846 36.7465ZM117 35.2735C117 32.56 115.884 30.3893 113 30.3893C110.115 30.3893 109 32.56 109 35.2735V37.2117C109 39.9252 110.115 42.096 113 42.096C115.884 42.096 117 39.9252 117 37.2117V35.2735Z" fill="#004F9D"/>
<path d="M125.27 36.7465V35.6999C125.27 29.769 128.616 25.505 135.423 25.505C142.231 25.505 145.577 29.769 145.577 35.6999V36.7465C145.577 42.6774 142.231 46.9414 135.423 46.9414C128.616 46.9414 125.27 42.7162 125.27 36.7465ZM139.423 35.2735C139.423 32.56 138.308 30.3893 135.423 30.3893C132.539 30.3893 131.423 32.56 131.423 35.2735V37.2117C131.423 39.9252 132.539 42.096 135.423 42.096C138.308 42.096 139.423 39.9252 139.423 37.2117V35.2735Z" fill="#004F9D"/>
<path d="M154.077 35.7776L160.192 25.9315H166.731L160.346 36.1265L167 46.5539H160.423L154.077 36.4753V46.5539H147.923V15.6204L154.077 15.0389" fill="#004F9D"/>
</svg>
