<svg width="170" height="62" viewBox="0 0 170 62" fill="none" xmlns="http://www.w3.org/2000/svg">
<path d="M82.8218 2.52324C88.2714 2.07906 93.8445 3.28651 98.631 5.9244C106.793 10.3227 112.576 18.9017 113.398 28.1607C114.016 33.8661 112.798 39.7454 110.022 44.7638C107.244 49.8186 102.899 54.0048 97.7263 56.5647C93.6671 58.6115 89.0983 59.645 84.5516 59.5451C78.3239 59.4925 72.158 57.2643 67.2829 53.3972C63.0874 50.0688 59.8422 45.5581 58.0655 40.5016C55.2952 32.7258 56.1111 23.737 60.3371 16.6337C63.1745 11.7096 67.5492 7.70294 72.6654 5.23728C75.8454 3.71619 79.3046 2.77525 82.8218 2.52324ZM77.7726 5.23728C72.8576 6.56439 68.269 9.4561 65.3537 13.6804C63.3902 16.4578 62.2607 19.7466 61.6806 23.0752C61.405 25.1529 61.2908 27.4191 62.3296 29.3173C62.8101 30.2601 63.6495 30.9726 64.0628 31.9514C64.4562 32.82 64.177 33.9948 63.3304 34.4896C62.5363 35.0591 61.4141 34.8413 60.6961 34.2485C59.6609 33.4364 59.2222 32.1112 59.001 30.8602C58.564 28.0428 59.1315 25.1928 59.8495 22.4733C59.2874 22.7072 59.369 23.485 59.1569 23.9781C57.9295 28.7372 57.9386 33.8244 59.2838 38.5581C60.5547 43.0797 63.1491 47.2788 66.8947 50.1574C69.7157 52.3894 73.1731 53.6585 76.6721 54.3456C78.7825 54.7009 81.0777 54.8424 83.0557 53.8815C84.0365 53.3902 84.7707 52.5342 85.7314 52.0139C86.5402 51.5935 87.5936 51.7311 88.2261 52.3983C88.9569 53.1273 88.9696 54.3762 88.3748 55.1921C87.7332 56.0659 86.6996 56.5518 85.679 56.8328C83.4273 57.3967 81.0721 57.1428 78.8187 56.7331C77.9938 56.6026 77.2124 56.2364 76.3694 56.2383C76.8208 56.6843 77.4825 56.7623 78.0645 56.9363C82.4864 58.026 87.1802 58.0332 91.6091 56.9744C96.7056 55.7488 101.528 52.8807 104.556 48.535C106.517 45.8373 107.598 42.6138 108.265 39.3758C108.62 36.9845 108.8 34.2811 107.348 32.1962C106.671 31.2009 105.585 30.2436 105.803 28.9147C105.895 27.6728 107.286 26.8878 108.428 27.2921C109.92 27.7761 110.618 29.3752 110.923 30.7929C111.503 33.73 110.926 36.7488 110.15 39.5932C110.353 39.5623 110.479 39.4481 110.525 39.2523C111.864 35.0752 112.096 30.5699 111.323 26.2587C110.437 21.2059 108.101 16.2782 104.216 12.8462C101.885 10.7196 99.0112 9.22023 95.9726 8.39169C93.4419 7.6393 90.7023 7.1188 88.0898 7.76621C86.8044 8.04723 85.8054 8.94828 84.7758 9.70429C83.9038 10.3769 82.5078 10.4222 81.7209 9.59008C81.0121 8.83587 81.0773 7.58854 81.6883 6.79445C82.5003 5.72479 83.8439 5.22985 85.1239 4.9996C87.1671 4.69502 89.2557 4.89444 91.2717 5.29693C92.0713 5.43471 92.818 5.80275 93.6322 5.86258C93.4636 5.72117 93.2987 5.56344 93.0847 5.49636C88.1538 3.90474 82.7583 3.84491 77.7726 5.23728Z" fill="#FEFFFE"/>
<path d="M78.4466 15.3446C79.5489 14.7645 80.9576 14.5904 82.0817 15.2032C82.9809 15.7181 83.3326 16.8331 83.2438 17.8175C83.0842 19.7719 82.1397 21.574 80.9522 23.1006C79.6686 24.6525 78.0858 26.0267 76.1895 26.7628C76.3345 27.3683 76.7914 28.0136 77.4767 28.0101C78.6769 28.0536 79.7175 27.2958 80.5805 26.5416C81.2006 26.0702 81.2332 25.2453 81.5233 24.58C81.9457 23.5393 82.5204 22.4298 83.5683 21.904C84.0596 21.6429 84.8102 21.5922 85.1492 22.1161C85.5191 22.8232 85.1837 23.6336 84.8283 24.2736C84.3425 25.2018 83.5737 25.9288 82.9628 26.7646C82.7325 27.5406 82.6908 28.3564 82.6763 29.1614C83.5248 28.7861 84.2863 28.2513 85.0858 27.7871C86.4763 26.8879 87.9195 26.0503 89.2103 25.0096C89.3588 24.5075 89.1559 23.9599 89.1795 23.4378C89.0997 20.9105 89.9736 18.3197 91.6959 16.4505C92.7674 15.3211 94.3811 14.5252 95.9582 14.9222C96.9048 15.0944 97.6463 15.8631 97.9126 16.7678C98.2499 18.133 97.7821 19.5598 97.064 20.7219C95.8277 22.6564 94.0292 24.134 92.209 25.4937C92.4519 26.0993 92.7982 26.7864 93.4525 27.0112C94.3898 26.8317 95.3436 26.5761 96.3027 26.7664C96.9445 26.9006 97.715 27.0928 98.0287 27.7327C98.3188 28.3564 97.7642 28.9946 97.1947 29.1886C95.9836 29.5838 94.7018 29.3608 93.4654 29.2665C91.9934 29.6183 90.7133 30.5918 89.7959 31.7777C88.3711 33.6505 87.9305 36.1289 88.2404 38.4259C88.5361 40.3314 89.4931 42.2513 91.1758 43.2865C93.0702 44.4994 95.8007 44.2422 97.3707 42.6048C98.852 41.0763 99.3197 38.6433 98.4946 36.6798C98.1447 35.8168 97.3923 35.081 96.4497 34.9341C95.3493 34.6855 94.0419 35.4017 93.8826 36.5711C93.7228 37.4703 94.3539 38.2154 94.8868 38.859C95.2985 39.2853 95.3475 40.0719 94.8362 40.44C94.0439 40.982 92.9452 40.6015 92.3143 39.9722C90.757 38.435 90.8059 35.6593 92.298 34.0893C94.1942 31.9137 97.9707 31.872 99.9107 34.0149C101.985 36.312 102.246 39.994 100.65 42.6266C99.4537 44.6932 97.2964 46.1855 94.925 46.5227C92.3451 46.9051 89.5584 46.0876 87.7454 44.1747C84.1992 40.5632 84.2554 34.2125 87.6385 30.5122C88.543 29.4299 89.7379 28.6594 90.9363 27.9451C90.677 27.5951 90.4051 27.2543 90.1293 26.9153C87.8014 28.6032 85.3668 30.1369 82.8612 31.5456C82.437 31.7016 82.5132 32.2128 82.4515 32.5736C82.2285 35.6575 81.9656 38.8717 80.4318 41.6276C79.3948 43.5746 77.8266 45.3588 75.7235 46.1601C74.0556 46.7892 72.0377 46.8452 70.5076 45.8318C69.0427 44.9126 68.3773 43.078 68.4897 41.4063C68.7218 39.2796 69.931 37.3597 71.4684 35.9167C73.5788 33.9894 76.1369 32.657 78.6479 31.3335C79.1591 31.0489 79.7157 30.8331 80.1726 30.4651C80.3412 30.0046 80.3666 29.5095 80.4137 29.0274C79.112 29.8142 77.4676 30.447 75.9701 29.8432C74.7463 29.3719 73.9849 28.2007 73.5951 27.0005C72.4402 26.8772 71.2781 26.4167 70.542 25.4848C69.2584 23.9456 69.1768 21.605 70.1051 19.87C70.4151 19.2445 71.1113 18.9091 71.793 18.9508C71.9253 19.2192 72.1737 19.4857 72.0831 19.812C71.88 20.9379 71.4848 22.1072 71.8582 23.2476C72.0432 24.0272 72.6886 24.649 73.4899 24.756C73.6603 22.9104 74.0193 21.0575 74.8877 19.3986C75.7054 17.7849 76.8222 16.2203 78.4466 15.3446ZM79.5326 17.1504C78.4376 17.8955 77.7704 19.0866 77.1939 20.2451C76.5738 21.5523 76.0734 22.9573 76.0172 24.415C76.436 24.2301 76.8313 23.9889 77.1703 23.6789C78.5409 22.486 79.7393 21.0646 80.5424 19.4257C80.8253 18.8328 81.07 18.1602 80.9087 17.4966C80.7002 16.9582 79.9732 16.8168 79.5326 17.1504ZM93.7047 17.7196C92.4246 19.2099 91.7215 21.1861 91.7431 23.1495C93.1864 21.9584 94.5171 20.5624 95.4144 18.9071C95.6718 18.3777 96.0128 17.513 95.36 17.1268C94.7653 16.8204 94.0945 17.27 93.7047 17.7196ZM74.2967 36.765C73.0387 37.8943 71.8111 39.2108 71.3544 40.8803C71.135 41.7759 71.0843 42.9074 71.8367 43.5744C72.6308 44.2996 73.8273 44.0839 74.7447 43.7394C76.5142 43.0577 77.582 41.3445 78.3018 39.6801C79.1412 37.6133 79.6615 35.4124 79.8736 33.1915C77.8647 34.1199 75.9882 35.342 74.2967 36.765Z" fill="#FEFFFE"/>
<path d="M82.829 1.08377C88.7484 0.632337 94.7892 2.01564 99.9272 4.98713C104.037 7.3567 107.591 10.6998 110.163 14.6902C113.358 19.569 115.048 25.4086 114.998 31.2391C114.96 37.3326 113.021 43.4043 109.476 48.3666C105.881 53.4555 100.654 57.3751 94.7548 59.3803C89.5154 61.1933 83.7735 61.4779 78.3672 60.267C72.698 59.0034 67.4313 56.021 63.4028 51.8385C59.1333 47.4164 56.2434 41.6602 55.3604 35.5704C54.492 30.1459 55.21 24.4876 57.3293 19.4257C59.2964 14.7174 62.5 10.5439 66.5103 7.39477C71.1588 3.72892 76.9204 1.4935 82.829 1.08377ZM82.8217 2.52328C79.3045 2.77529 75.8453 3.71622 72.6652 5.23732C67.5489 7.70298 63.1742 11.7097 60.3369 16.6337C56.111 23.737 55.2952 32.7258 58.0654 40.5017C59.8421 45.5583 63.0874 50.069 67.2826 53.3974C72.1577 57.2645 78.3237 59.4927 84.5513 59.5453C89.0983 59.6452 93.667 58.6118 97.7261 56.5649C102.899 54.005 107.244 49.8188 110.022 44.764C112.798 39.7457 114.016 33.8663 113.398 28.1609C112.576 18.902 106.793 10.3229 98.6308 5.92462C93.8447 3.28655 88.2714 2.0791 82.8217 2.52328Z" fill="#3A73B8"/>
<path d="M77.7726 5.23739C82.7583 3.84502 88.1537 3.90484 93.085 5.49664C93.299 5.56372 93.4639 5.72145 93.6326 5.86287C92.8185 5.80304 92.0718 5.435 91.272 5.29722C89.256 4.89473 87.1673 4.6953 85.1242 4.99989C83.8442 5.23014 82.5008 5.72508 81.6886 6.79474C81.0776 7.58883 81.0124 8.83616 81.7212 9.59036C82.5081 10.4225 83.9041 10.3772 84.7761 9.70458C85.8059 8.94857 86.8047 8.04751 88.0901 7.7665C90.7026 7.11927 93.4422 7.63959 95.9729 8.39198C99.0115 9.22051 101.885 10.7199 104.217 12.8465C108.102 16.2785 110.437 21.2062 111.323 26.2589C112.096 30.5702 111.864 35.0755 110.526 39.2526C110.479 39.4484 110.354 39.5626 110.151 39.5934C110.927 36.7491 111.503 33.7303 110.923 30.7932C110.618 29.3755 109.92 27.7764 108.428 27.2923C107.286 26.888 105.896 27.6731 105.803 28.915C105.586 30.2439 106.672 31.2011 107.348 32.1965C108.8 34.2814 108.621 36.9846 108.266 39.3761C107.598 42.6139 106.518 45.8375 104.556 48.5353C101.528 52.881 96.7059 55.7491 91.6094 56.9747C87.1803 58.0335 82.4867 58.0262 78.0648 56.9366C77.4828 56.7626 76.8211 56.6846 76.3697 56.2386C77.2127 56.2366 77.9941 56.6031 78.819 56.7334C81.0726 57.1431 83.4276 57.397 85.6794 56.8331C86.6999 56.5521 87.7335 56.0664 88.3751 55.1924C88.9697 54.3765 88.9572 53.1274 88.2264 52.3986C87.5939 51.7314 86.5405 51.5938 85.7317 52.0142C84.771 52.5345 84.0366 53.3904 83.056 53.8818C81.078 54.8426 78.7828 54.7012 76.6724 54.3459C73.1734 53.6588 69.716 52.3897 66.895 50.1577C63.149 47.2787 60.5546 43.0798 59.2837 38.5582C57.9385 33.8245 57.9294 28.7373 59.1568 23.9782C59.369 23.4851 59.2874 22.7073 59.8494 22.4734C59.1315 25.1929 58.564 28.0429 59.0009 30.8603C59.2221 32.1113 59.6608 33.4365 60.6961 34.2486C61.414 34.8416 62.5362 35.0592 63.3303 34.4897C64.177 33.9949 64.4562 32.8201 64.0628 31.9515C63.6494 30.9727 62.81 30.26 62.3296 29.3174C61.2907 27.4193 61.4049 25.153 61.6805 23.0753C62.2607 19.7467 63.3902 16.4579 65.3536 13.6805C68.2689 9.4562 72.8576 6.56449 77.7726 5.23739ZM78.447 15.3448C76.8226 16.2204 75.7058 17.7851 74.8881 19.3986C74.0197 21.0575 73.6607 22.9104 73.4903 24.756C72.689 24.649 72.0435 24.0272 71.8586 23.2476C71.4851 22.1072 71.8804 20.9378 72.0834 19.812C72.1741 19.4856 71.9257 19.2191 71.7933 18.9508C71.1117 18.9091 70.4155 19.2445 70.1055 19.87C69.1772 21.605 69.2588 23.9456 70.5424 25.4848C71.2786 26.4167 72.4406 26.8772 73.5954 27.0005C73.9852 28.2006 74.7467 29.3718 75.9705 29.8432C77.468 30.4469 79.1124 29.8142 80.4141 29.0274C80.3669 29.5096 80.3416 30.0046 80.173 30.4651C79.7161 30.8331 79.1595 31.0488 78.6482 31.3335C76.1373 32.657 73.5791 33.9893 71.4688 35.9167C69.9314 37.3597 68.7221 39.2796 68.4901 41.4062C68.3777 43.078 69.043 44.9126 70.5079 45.8317C72.0379 46.8452 74.0559 46.789 75.7239 46.1601C77.827 45.3587 79.3952 43.5746 80.4322 41.6276C81.966 38.8717 82.2289 35.6573 82.4519 32.5736C82.5135 32.2128 82.4374 31.7015 82.8616 31.5456C85.3672 30.1367 87.802 28.6031 90.1297 26.9152C90.4054 27.2543 90.6774 27.5951 90.9366 27.945C89.7383 28.6593 88.5433 29.4299 87.6388 30.5122C84.2558 34.2125 84.1996 40.5632 87.7458 44.1747C89.5588 46.0876 92.3453 46.9052 94.9254 46.5227C97.2968 46.1855 99.454 44.6932 100.651 42.6266C102.246 39.9939 101.985 36.3119 99.9111 34.0149C97.971 31.8719 94.1946 31.9136 92.2984 34.0892C90.8063 35.6593 90.7573 38.4349 92.3147 39.9722C92.9456 40.6015 94.0443 40.982 94.8366 40.4399C95.3478 40.0721 95.2989 39.2852 94.8871 38.859C94.3543 38.2154 93.7232 37.4703 93.8829 36.571C94.0423 35.4016 95.3496 34.6855 96.4501 34.9341C97.3927 35.0809 98.1453 35.8168 98.495 36.6798C99.3201 38.6433 98.8523 41.0763 97.3711 42.6048C95.8011 44.2419 93.0705 44.4994 91.1761 43.2865C89.4935 42.2513 88.5363 40.3313 88.2407 38.4259C87.9309 36.1288 88.3715 33.6505 89.7963 31.7777C90.7138 30.5918 91.9938 29.6184 93.4658 29.2665C94.7022 29.3608 95.9842 29.5838 97.1951 29.1885C97.7645 28.9946 98.3189 28.3564 98.029 27.7327C97.7156 27.0927 96.9451 26.9006 96.3031 26.7664C95.344 26.576 94.3902 26.8317 93.4529 27.0111C92.7986 26.7863 92.4521 26.0992 92.2094 25.4937C94.0296 24.1339 95.8281 22.6564 97.0644 20.7219C97.7825 19.5598 98.2502 18.133 97.913 16.7678C97.6465 15.8631 96.905 15.0944 95.9586 14.9222C94.3815 14.5251 92.7678 15.321 91.6963 16.4505C89.974 18.3197 89.1001 20.9105 89.1799 23.4378C89.1563 23.9599 89.3592 24.5074 89.2107 25.0096C87.9198 26.0503 86.4767 26.8879 85.0861 27.7871C84.2866 28.2514 83.5252 28.7861 82.6767 29.1613C82.6912 28.3564 82.7329 27.5405 82.9631 26.7646C83.5741 25.9288 84.3428 25.2018 84.8287 24.2735C85.184 23.6336 85.5194 22.8232 85.1496 22.1161C84.8106 21.5921 84.06 21.6429 83.5687 21.904C82.5208 22.4297 81.9461 23.5393 81.5236 24.5799C81.2336 25.2453 81.2009 26.0702 80.5809 26.5416C79.7179 27.2958 78.6772 28.0536 77.477 28.0101C76.7917 28.0137 76.3349 27.3683 76.1898 26.7628C78.0862 26.0265 79.6689 24.6523 80.9525 23.1005C82.14 21.574 83.0846 19.7719 83.2442 17.8175C83.333 16.8331 82.9813 15.7181 82.082 15.2032C80.958 14.5906 79.5493 14.7646 78.447 15.3448Z" fill="#3A73B8"/>
<path d="M79.5325 17.1504C79.9731 16.8168 80.7001 16.9583 80.9086 17.4967C81.0699 18.1603 80.8252 18.8329 80.5423 19.4257C79.7392 21.0647 78.5408 22.486 77.1702 23.679C76.8312 23.989 76.4359 24.2301 76.0171 24.4151C76.0733 22.9574 76.5737 21.5524 77.1938 20.2452C77.7703 19.0867 78.4375 17.8956 79.5325 17.1504ZM93.7046 17.7197C94.0944 17.2701 94.7652 16.8205 95.3599 17.1269C96.0127 17.513 95.6717 18.3778 95.4143 18.9072C94.517 20.5625 93.1863 21.9585 91.743 23.1496C91.7214 21.1861 92.4245 19.21 93.7046 17.7197ZM74.2966 36.7651C75.9881 35.3419 77.8646 34.12 79.8734 33.1917C79.6612 35.4126 79.1409 37.6136 78.3015 39.6804C77.5817 41.3447 76.5139 43.058 74.7444 43.7397C73.827 44.0839 72.6305 44.2999 71.8364 43.5747C71.084 42.9075 71.1348 41.7762 71.3541 40.8806C71.811 39.2108 73.0384 37.8946 74.2966 36.7651Z" fill="#3A73B8"/>
</svg>
