<svg width="170" height="62" viewBox="0 0 170 62" fill="none" xmlns="http://www.w3.org/2000/svg">
<path d="M28.7071 15.2943H37.3581V29.377C34.4694 29.9588 32.2572 30.2534 29.8321 30.2534C20.3449 30.2534 17 24.8515 17 15.9591C17 6.40191 21.6372 1 30.8812 1C32.0519 1 34.2641 1.08311 37.0236 1.49864V10.5119H35.0167L33.884 7.06676C32.7969 3.78784 31.5046 2.16349 29.452 2.16349C25.9019 2.16349 24.0166 6.93832 24.0166 15.876C24.0166 24.8515 24.7692 29.0899 29.4064 29.0899C30.0374 29.0899 30.7824 29.0068 31.497 28.8028V18.3239L28.6994 16.4124V15.2943H28.7071ZM37.1909 53.1001C37.1909 58.7513 33.3062 61.9924 26.4493 61.9924C24.5716 61.9924 21.8121 61.7054 19.2198 61.2823V50.2367H21.2267L22.0629 52.8508C23.9406 58.8722 25.2786 60.8667 27.6656 60.8667C30.1742 60.8667 31.9683 58.6682 31.9683 55.7595C31.9683 53.3947 30.8432 51.7326 28.4182 50.4407L24.2371 48.1968C21.0138 46.4969 19.2578 43.8375 19.2578 40.5964C19.2578 35.6931 23.3096 32.7466 29.9614 32.7466C31.4666 32.7466 33.2226 32.875 36.0202 33.2452V42.2585H34.0132L32.8881 38.8134C31.7554 35.1567 30.5467 33.827 28.3346 33.827C25.8639 33.827 24.4043 35.406 24.4043 37.6876C24.4043 39.72 25.537 41.1781 27.7492 42.4247L31.9683 44.7895C35.5184 46.784 37.1909 49.4434 37.1909 53.1001ZM55.6713 59.6277L56.5075 60.8743V61.5014H50.1142L49.8178 59.0913C49.1488 60.9196 47.3927 62 45.1349 62C41.7901 62 39.6995 59.9223 39.6995 56.515C39.6995 53.1907 41.5772 50.9922 47.3471 48.7483L49.8102 47.7964V44.6837C49.8102 41.9412 49.3084 40.823 47.7652 40.823C46.5109 40.823 45.8039 41.4879 44.5876 44.5175L43.2116 47.9097H41.3339V41.1328C43.797 40.3848 46.2676 39.8862 48.3962 39.8862C53.117 39.8862 55.6713 42.1301 55.6713 46.2023V59.6277ZM58.0887 19.2003C58.0887 26.2643 54.2877 30.2534 49.392 30.2534C44.504 30.2534 40.703 26.2643 40.703 19.2003C40.703 12.1362 44.504 8.14714 49.3996 8.14714C54.2877 8.14714 58.0887 12.1362 58.0887 19.2003ZM49.8178 56.1372V48.9523L49.0271 49.2847C46.5565 50.282 45.6367 52.5259 45.6367 55.8048C45.6367 58.2602 46.222 59.6655 47.598 59.6655C48.9739 59.6655 49.8178 58.3358 49.8178 56.1372ZM51.9463 19.2003C51.9463 11.2221 51.2773 9.10664 49.3996 9.10664C47.522 9.10664 46.853 11.2221 46.853 19.2003C46.853 27.1785 47.522 29.2939 49.3996 29.2939C51.2773 29.2939 51.9463 27.1785 51.9463 19.2003ZM72.9354 56.3412L73.688 56.719C72.35 60.5419 70.6396 61.9924 67.3327 61.9924C61.9429 61.9924 58.9325 57.9656 58.9325 50.9393C58.9325 43.9206 62.4446 39.8862 68.1689 39.8862C69.7121 39.8862 71.7647 40.1355 73.5207 40.8381V47.9022H71.5594L70.7688 45.2428C69.7197 41.7145 69.142 40.8003 68.0929 40.8003C66.4205 40.8003 65.0825 42.9611 65.0825 51.1886C65.0825 57.7918 66.086 60.2019 68.6327 60.2019C70.3431 60.2094 71.8027 59.1291 72.9354 56.3412ZM68.2906 29.7548H60.7646V29.1353L61.6008 27.8887V4.70201L60.7646 3.45541V2.82834L67.4543 2.3297V27.8811L68.2906 29.1277V29.7548ZM78.576 30.2534C73.9768 30.2534 71.2173 26.0981 71.2173 18.9963C71.2173 11.9323 74.0985 8.15469 78.5304 8.15469C80.7882 8.15469 82.0426 9.02353 82.5823 10.7688V4.70201L81.7461 3.45541V2.82834L88.4358 2.3297V27.8811L89.272 29.1277V29.7472H83.3349L82.8788 26.5892C82.2174 29.2939 80.9631 30.2534 78.576 30.2534ZM93.2479 59.6277L94.0841 60.8743V61.5014H86.5581V60.8743L87.3943 59.6277V44.6686C87.3943 42.8856 86.8546 41.8052 85.5547 41.8052C84.0039 41.8052 82.8788 43.0971 82.8788 45.6281V59.6277L83.715 60.8743V61.5014H76.189V60.8743L77.0252 59.6277V36.441L76.189 35.1945V34.5749L82.8788 34.0763V42.674C83.6314 40.891 85.3418 39.8937 87.7668 39.8937C91.1953 39.8937 93.2403 42.0545 93.2403 46.2476V59.6277H93.2479ZM77.3673 19.0718C77.3673 26.5514 78.0363 28.833 79.876 28.833C82.1718 28.833 82.5899 25.5541 82.5899 18.9887C82.5899 12.6349 82.1338 9.47684 79.914 9.47684C78.0363 9.47684 77.3673 11.7207 77.3673 19.0718ZM119.338 27.8811L120.174 29.1277V29.7472H112.648V29.1277L113.484 27.8811V12.4687C113.484 10.9728 112.983 10.0586 111.812 10.0586C110.352 10.0586 109.182 11.3505 109.182 13.8361V27.8811L110.018 29.1277V29.7472H102.492V29.1277L103.328 27.8811V12.4687C103.328 10.9728 102.826 10.0586 101.656 10.0586C100.196 10.0586 99.0254 11.3505 99.0254 13.8361V27.8811L99.8616 29.1277V29.7472H92.3356V29.1277L93.1719 27.8811V10.9728L92.3356 9.97548V9.35596L98.3564 8.64578H98.8581L99.0254 10.9728C99.7324 9.14441 101.488 8.14714 103.875 8.14714C106.422 8.14714 108.095 9.39373 108.847 11.6376C109.47 9.47684 111.439 8.14714 113.948 8.14714C117.247 8.14714 119.338 10.3079 119.338 14.501V27.8811ZM111.523 55.3893C111.523 59.0006 109.182 61.9924 103.541 61.9924C102.081 61.9924 100.112 61.8262 97.0641 61.2823V53.5609H98.7745L99.3143 55.2231C100.652 59.4615 101.945 61.0405 103.997 61.0405C105.92 61.0405 107.175 59.6655 107.175 57.55C107.175 55.8048 106.293 54.6035 104.21 53.4778L100.614 51.5664C98.3184 50.3198 97.0641 48.3706 97.0641 45.9605C97.0641 42.1829 100.036 39.8937 104.963 39.8937C106.384 39.8937 108.224 40.0977 110.231 40.5133V46.58H108.52L107.638 44.3739C106.635 41.7145 105.677 40.8457 104.088 40.8457C102.378 40.8457 101.374 41.843 101.374 43.5051C101.374 44.9179 102.211 45.8698 104.256 47.0333L107.806 49.0279C110.223 50.4029 111.523 52.3521 111.523 55.3893ZM138.571 27.8811L139.407 29.1277V29.7472H133.014L132.725 27.3371C132.056 29.1655 130.3 30.2459 128.042 30.2459C124.697 30.2459 122.607 28.1682 122.607 24.7608C122.607 21.4366 124.484 19.238 130.254 16.9942L132.717 16.0422V12.9295C132.717 10.187 132.216 9.06886 130.672 9.06886C129.418 9.06886 128.711 9.73371 127.495 12.7633L126.119 16.1707H124.234V9.40129C126.704 8.65333 129.167 8.15469 131.296 8.15469C136.017 8.15469 138.571 10.3986 138.571 14.4708V27.8811ZM132.717 24.3906V17.2057L131.927 17.5381C129.464 18.5354 128.544 20.7793 128.544 24.0582C128.544 26.5136 129.129 27.9264 130.505 27.9264C131.881 27.9264 132.717 26.5967 132.717 24.3906ZM160.054 29.1277V29.7472H152.528V29.1277L153.364 27.8811V12.922C153.364 11.1314 152.825 10.0586 151.525 10.0586C149.974 10.0586 148.849 11.3505 148.849 13.8815V27.8811L149.685 29.1277V29.7472H142.159V29.1277L142.995 27.8811V10.9728L142.159 9.97548V9.35596L148.18 8.64578H148.682L148.849 10.9728C149.556 9.14441 151.274 8.14714 153.737 8.14714C157.165 8.14714 159.21 10.3079 159.21 14.501V27.8811L160.054 29.1277Z" fill="black"/>
</svg>
