<svg width="170" height="62" viewBox="0 0 170 62" fill="none" xmlns="http://www.w3.org/2000/svg">
<path d="M23.9508 5.00488H25.3914C30.3928 5.1118 35.3126 7.08986 38.8461 10.5916C37.5414 11.9014 36.2095 13.1577 34.932 14.4675C32.9478 12.7033 30.5559 11.34 27.9465 10.8589C24.0867 10.0569 19.928 10.7787 16.6934 12.9438C13.1599 15.2159 10.7679 19.0651 10.2515 23.1816C9.68069 27.2447 10.8495 31.5215 13.5404 34.6757C16.1226 37.7497 20.0639 39.6743 24.1411 39.808C27.9465 40.0218 31.9149 38.8724 34.6874 36.2528C36.8619 34.4084 37.8676 31.6017 38.1938 28.8752C33.6817 28.8752 29.1696 28.9019 24.6575 28.8752V23.3687H43.6572C44.6357 29.2762 43.2223 35.9321 38.6559 40.1555C35.6116 43.1493 31.3985 44.9135 27.1038 45.261C22.9451 45.662 18.6505 44.8868 14.9538 42.9087C10.5233 40.5832 6.98975 36.6538 5.25015 32.0294C3.61928 27.7793 3.5921 22.9678 5.11424 18.6909C6.50049 14.7882 9.16424 11.34 12.5891 8.93427C15.878 6.55525 19.8736 5.24546 23.9508 5.00488Z" fill="#3780FF"/>
<path d="M132.947 6.39453H138.764V44.5657C136.834 44.5657 134.877 44.5924 132.947 44.5389C132.974 31.842 132.947 19.1182 132.947 6.39453Z" fill="#38B137"/>
<path d="M56.5951 19.6258C60.183 18.9575 64.0699 19.706 67.0327 21.8177C69.7236 23.6888 71.5991 26.6292 72.1699 29.8368C72.9038 33.5524 71.9797 37.6154 69.5334 40.5558C66.8968 43.8436 62.575 45.6078 58.3619 45.3405C54.5021 45.1267 50.7511 43.2288 48.4679 40.1281C45.8857 36.7066 45.2605 32.002 46.674 27.9924C48.0874 23.6888 52.083 20.401 56.5951 19.6258ZM57.4105 24.7046C55.9428 25.0788 54.5837 25.9075 53.6052 27.0836C50.9686 30.1843 51.1317 35.2364 54.0401 38.1233C55.6981 39.7806 58.1988 40.5558 60.5092 40.1013C62.6565 39.7271 64.532 38.3104 65.5649 36.4393C67.3589 33.2583 66.8424 28.8745 64.0971 26.3886C62.3303 24.7848 59.7481 24.1165 57.4105 24.7046Z" fill="#FA3913"/>
<path d="M85.4078 19.6258C89.5122 18.8506 93.9971 19.9733 97.0686 22.8067C102.07 27.2173 102.614 35.477 98.3461 40.5558C95.7639 43.7634 91.578 45.5277 87.4464 45.3405C83.5052 45.2336 79.6183 43.309 77.2807 40.1281C74.6441 36.6264 74.0733 31.8149 75.5682 27.7251C77.0632 23.5552 80.9773 20.3743 85.4078 19.6258ZM86.2233 24.7046C84.7555 25.0788 83.3964 25.9075 82.4179 27.0569C79.8085 30.1042 79.9172 35.076 82.7169 37.9897C84.375 39.7271 86.9572 40.5825 89.3491 40.1014C91.4693 39.7004 93.3719 38.3104 94.4048 36.4393C96.1716 33.2316 95.6552 28.8478 92.8827 26.3619C91.1159 24.7581 88.5337 24.1165 86.2233 24.7046Z" fill="#FCBD06"/>
<path d="M109.844 21.177C112.969 19.2524 117.128 18.7178 120.499 20.3751C121.559 20.8295 122.428 21.6047 123.271 22.3799C123.298 21.6582 123.271 20.9097 123.298 20.1612C125.119 20.188 126.941 20.1612 128.789 20.188V43.7643C128.762 47.3194 127.838 51.0884 125.228 53.6813C122.374 56.5414 117.998 57.4235 114.057 56.8355C109.844 56.2207 106.174 53.2001 104.543 49.3777C106.174 48.6025 107.887 47.9877 109.572 47.266C110.523 49.4579 112.453 51.329 114.872 51.7567C117.291 52.1844 120.091 51.5963 121.667 49.6182C123.353 47.5867 123.353 44.8068 123.271 42.3208C122.021 43.5237 120.58 44.5929 118.841 44.9939C115.062 46.0364 110.904 44.7533 107.995 42.2406C105.06 39.728 103.32 35.852 103.483 32.0029C103.565 27.6458 106.065 23.4491 109.844 21.177ZM115.47 24.5985C113.812 24.8658 112.263 25.7747 111.203 27.031C108.648 30.0248 108.648 34.8096 111.23 37.7499C112.698 39.4874 115.062 40.4497 117.346 40.2091C119.493 39.9953 121.477 38.6587 122.537 36.8143C124.331 33.6869 124.032 29.4367 121.613 26.7102C120.118 25.0262 117.726 24.1976 115.47 24.5985Z" fill="#3780FF"/>
<path d="M145.75 22.5394C149.012 19.5456 154.04 18.5298 158.226 20.1069C162.195 21.5771 164.723 25.2926 166 29.1151C160.102 31.5208 154.231 33.8998 148.332 36.3056C149.148 37.8292 150.398 39.2192 152.083 39.7805C154.448 40.6092 157.275 40.3151 159.259 38.7648C160.047 38.1767 160.673 37.4015 161.271 36.6531C162.766 37.6421 164.261 38.6044 165.755 39.5934C163.635 42.7209 160.075 44.9128 156.242 45.2603C152.002 45.7682 147.49 44.1643 144.744 40.9032C140.232 35.771 140.667 27.1637 145.75 22.5394ZM148.659 27.4845C147.734 28.7943 147.354 30.3981 147.381 31.9752C151.322 30.3714 155.264 28.7676 159.205 27.137C158.552 25.6401 156.976 24.7313 155.372 24.4907C152.79 24.0363 150.099 25.3995 148.659 27.4845Z" fill="#FA3913"/>
</svg>
