<svg width="170" height="62" viewBox="0 0 170 62" fill="none" xmlns="http://www.w3.org/2000/svg">
<path d="M21 5V8.55771H45.9149V5H21ZM49.4449 5V8.55771H84.95C84.95 8.55771 81.3233 5 76.52 5H49.4449ZM91.9149 5V8.55771H113.395L112.12 5H91.9149ZM128.795 5L127.52 8.55771H148.805V5H128.795ZM21 11.9189V15.4766H45.9149V11.9189H21ZM49.4449 11.9239V15.4767H89.0699C89.0699 15.4767 88.6072 12.7385 87.7999 11.9239H49.4449ZM91.9149 11.9239V15.4767H115.75L114.57 11.9239H91.9149ZM126.245 11.9239L125.065 15.4767H148.805V11.9239H126.245ZM28.1599 18.8377V22.4005H38.95V18.8377H28.1599ZM56.605 18.8377V22.4005H67.395V18.8377H56.605ZM77.89 18.8377V22.4005H88.68C88.68 22.4005 89.3651 20.519 89.3651 18.8377H77.89ZM99.075 18.8377V22.4005H118.205L116.93 18.8377H99.075ZM123.895 18.8377L122.615 22.4005H141.84V18.8377H123.895ZM28.1599 25.7618V29.3195H38.95V25.7618H28.1599ZM56.605 25.7618V29.3195H84.1649C84.1649 29.3195 86.4705 27.494 87.2049 25.7618H56.605ZM99.075 25.7618V29.3195H109.865V27.3391L110.55 29.3195H130.315L131.05 27.3391V29.3195H141.84V25.7618H121.585L120.51 28.7752L119.43 25.7618H99.075ZM28.1599 32.6806V36.2383H38.95V32.6806H28.1599ZM56.605 32.6806V36.2383H87.2049C86.4703 34.5118 84.1649 32.6806 84.1649 32.6806H56.605ZM99.075 32.6806V36.2383H109.865V32.6806H99.075ZM111.825 32.6806L113.13 36.2383H127.95L129.19 32.6806H111.825ZM131.05 32.6806V36.2383H141.84V32.6806H131.05ZM28.1599 39.5995V43.1571H38.95V39.5995H28.1599ZM56.605 39.5995V43.1571H67.395V39.5995H56.605ZM77.89 39.5995V43.1571H89.3649C89.3649 41.4781 88.6799 39.5995 88.6799 39.5995H77.89ZM99.075 39.5995V43.1571H109.865V39.5995H99.075ZM114.275 39.5995L115.54 43.1571H125.475L126.75 39.5995H114.275ZM131.05 39.5995V43.1571H141.84V39.5995H131.05ZM21.1949 46.5184V50.0811H46.1099V46.5184H21.1949ZM49.4449 46.5184V50.0811H87.7999C88.6072 49.2654 89.0699 46.5184 89.0699 46.5184H49.4449ZM92.11 46.5184V50.0811H109.865V46.5184H92.11ZM116.73 46.5184L118.03 50.0811H123.085L124.305 46.5184H116.73ZM131.05 46.5184V50.0811H149V46.5184H131.05ZM21.1949 53.4423V57H46.1099V53.4423H21.1949ZM49.4449 53.4423V56.9949H76.52C81.3233 56.9949 84.95 53.4423 84.95 53.4423H49.4449ZM92.11 53.4423V57H109.865V53.4423H92.11ZM119.195 53.4423L120.445 56.99L120.66 56.9949L121.93 53.4423H119.195ZM131.05 53.4423V57H149V53.4423H131.05Z" fill="#1F70C1"/>
</svg>
