<svg width="170" height="62" viewBox="0 0 170 62" fill="none" xmlns="http://www.w3.org/2000/svg">
<path d="M82.6513 55.2689C64.0765 56.9828 44.7164 54.2833 42.0047 39.7645C40.6782 32.6072 43.9426 25.0176 48.2671 20.3002V17.7812C40.4768 24.6147 36.2549 33.2612 38.6867 43.4751C41.793 56.5757 58.4045 63.9945 83.7666 61.5309C93.8055 60.5579 106.934 57.3296 116.068 52.3118V45.189C107.778 50.1288 94.0708 54.2094 82.6513 55.2689ZM131.583 17.611C127.178 -3.90351 85.4117 -5.26743 58.4887 11.124V12.9344C85.3808 -0.893582 123.526 -0.809564 126.999 19.0093C128.164 25.5653 124.472 32.3954 117.876 36.3282V41.4706C125.811 38.5595 133.95 29.144 131.583 17.611Z" fill="#0E7DC2"/>
<path d="M114.82 15H109.954V35.6528C109.954 38.0732 111.182 40.178 114.82 40.5143V15ZM56.8778 22.5407H52.0026L52 36.0338C52 38.4627 53.2318 40.5654 56.8778 40.8953V22.5407ZM52.0026 15.6282H56.8626V20.0238H52.0026V15.6282ZM86.0207 40.6816C82.0818 40.6816 80.415 38.0729 80.415 35.5032V17.5874H85.2389V22.5407H88.8718V26.2535H85.2389V35.2193C85.2389 36.267 85.7609 36.8508 86.9075 36.8508H88.8718V40.6818L86.0207 40.6816ZM94.8971 33.0489C94.8971 35.4014 96.4407 37.1302 99.1721 37.1302C101.312 37.1302 102.367 36.5642 103.603 35.4014L106.583 38.1071C104.672 39.9062 102.67 41 99.1365 41C94.5201 41 90.097 38.5991 90.097 31.5996C90.097 25.6157 93.9619 22.2332 99.0295 22.2332C104.181 22.2332 107.141 26.193 107.141 31.3909V33.0494H94.8971M98.8181 26.0349C97.167 26.0349 95.8984 26.8453 95.3606 27.9383C95.0475 28.5953 94.9327 29.1073 94.8969 29.9146H102.331C102.237 27.9383 101.297 26.0349 98.8181 26.0349ZM69.9794 26.2535C71.394 26.2535 71.982 26.9199 71.982 28.0015V40.7085H76.807V27.9748C76.807 25.3946 75.3643 22.5455 71.1273 22.5455L61.1606 22.5407V40.7085H65.9874V26.2535H69.9794ZM120.056 18.6904C118.983 18.6904 118.127 17.866 118.127 16.8451C118.127 15.8291 118.983 15 120.056 15C121.124 15 122 15.8291 122 16.8451C122 17.866 121.123 18.6904 120.056 18.6904ZM120.056 15.3077C119.172 15.3077 118.461 16.0039 118.461 16.8451C118.461 17.6911 119.172 18.3751 120.056 18.3751C120.94 18.3751 121.674 17.6911 121.674 16.8451C121.674 16.0039 120.94 15.3077 120.056 15.3077ZM120.915 17.951H120.553C120.537 17.9508 120.522 17.9464 120.509 17.9383C120.496 17.9301 120.486 17.9186 120.479 17.905L119.99 17.1122C119.975 17.0953 119.934 17.0759 119.921 17.0759H119.697V17.8662C119.697 17.9051 119.669 17.9512 119.616 17.9512H119.289C119.241 17.9512 119.208 17.9051 119.208 17.8662V15.8729C119.208 15.7563 119.249 15.7084 119.356 15.6938C119.473 15.6817 119.779 15.667 119.95 15.667C120.553 15.667 120.908 15.8364 120.908 16.3699V16.4089C120.908 16.7384 120.737 16.918 120.472 16.9982L120.982 17.8248C120.99 17.8433 120.994 17.8632 120.994 17.8833C120.994 17.9146 120.976 17.951 120.915 17.951ZM120.446 16.3699C120.446 16.1473 120.301 16.0769 119.99 16.0769H119.681V16.7092C119.73 16.7092 119.949 16.7189 119.99 16.7189C120.301 16.7189 120.446 16.6201 120.446 16.4089V16.3699Z" fill="#0E7DC2"/>
</svg>
