<svg width="170" height="62" viewBox="0 0 170 62" fill="none" xmlns="http://www.w3.org/2000/svg">
<path fill-rule="evenodd" clip-rule="evenodd" d="M17.0395 27.2699C16.4071 28.0292 15.7245 28.9399 15.7245 30.3051C15.7245 32.8594 17.1918 34.8579 19.8219 34.8579C23.3133 34.8579 23.9959 31.2925 23.9959 29.597C23.9959 29.3995 23.9848 29.2106 23.9644 29.0301C24.8905 28.888 25.8148 28.4999 26.6821 27.9338L26.6864 27.9364C26.7289 29.6344 26.7775 31.2788 26.7775 32.0253C26.7528 34.3779 26.929 34.657 27.6626 34.657C28.4466 34.657 28.8772 33.0628 29.6109 31.5453C30.4714 29.648 31.3822 27.7508 31.938 27.7508C32.9755 27.7508 31.103 34.7583 33.6071 34.7566C35.3774 34.7566 38.0083 27.6496 39.1472 27.6496C40.0324 27.6496 38.2356 34.7583 40.2094 34.7566C41.6512 34.7566 44.1051 27.5227 44.9401 27.5227C45.8006 27.5227 44.0294 34.7566 46.5845 34.7566C48.8869 34.7566 50.7585 28.8131 51.3909 28.8131C51.6948 28.8131 52.2642 29.6089 52.6702 30.7001L52.6676 30.729C51.8693 31.7248 51.3662 32.679 51.3662 33.3922C51.3662 34.303 52.0752 34.7575 52.7826 34.7575C53.8456 34.7575 54.8823 33.6204 54.8823 31.9759C54.8823 31.6321 54.8534 30.6498 54.467 29.6668L54.4687 29.6566C56.0586 28.1824 58.115 26.898 59.3594 26.6886C58.6512 27.498 57.3609 28.2062 57.3609 30.5086C57.3609 32.9871 59.2581 34.8843 61.6864 34.8843C65.1012 34.8843 65.8349 31.2422 65.8349 29.8259C65.8349 29.3101 65.7685 28.8454 65.6502 28.4309L65.6468 28.436C66.8069 27.8896 67.6836 27.1193 68.0104 27.1193C68.7194 27.1193 68.4411 29.2693 68.4411 31.4967C68.4411 33.1658 68.1875 34.8843 69.4276 34.8843C70.3638 34.8843 70.8184 33.039 71.7546 31.3946C72.6654 29.7749 73.6518 27.5738 74.0314 27.5738C74.5379 27.5738 74.3353 30.9639 74.3353 31.6219C74.3353 32.456 74.1829 35.086 75.9031 35.086C77.0666 35.086 79.2422 31.8227 79.2422 31.3937C79.2422 31.1656 79.2422 31.1146 79.0651 31.1146C78.8881 31.1146 77.5467 33.3156 77.0156 33.3156C76.2563 33.3156 76.7372 30.5077 76.7372 28.4335C76.7372 27.5227 76.8632 25.4996 75.3456 25.4996C73.4229 25.4996 71.5512 30.9129 70.969 30.9129C70.4124 30.912 71.7785 25.7021 69.3757 25.7021C68.3986 25.7021 66.9456 27.0291 65.36 27.7108L65.3693 27.7142C64.7854 26.5686 63.7377 25.9804 62.7231 25.9804C61.9894 25.9804 61.4328 26.5371 61.4328 27.1184C61.4328 27.9023 62.0652 28.9646 63.5325 28.9646C63.936 28.9646 64.3284 28.899 64.7029 28.7935L64.7199 28.8003C64.8527 29.2301 64.9259 29.6617 64.925 30.0021C64.925 31.3427 64.0151 33.0875 62.2694 33.0875C60.9034 33.0875 59.6888 31.6465 59.6888 29.8753C59.6888 26.9908 61.4345 26.5107 61.4345 25.9285C61.4345 25.6757 61.2319 25.6255 60.8523 25.6255C58.9015 25.6255 56.2195 27.2384 54.2057 29.0974L54.198 29.0957C54.1286 28.9722 54.0531 28.8523 53.9716 28.7365C52.0233 25.9541 52.7826 25.3472 52.277 25.3472C51.6446 25.3472 48.8111 33.0628 47.6978 33.0628C46.2304 33.0628 48.9124 25.6255 46.0542 25.6255C43.8029 25.6255 42.5126 31.4687 41.653 31.4687C40.8188 31.4687 42.4871 25.6255 40.0588 25.6255C38.3139 25.6255 35.7077 32.6075 34.5697 32.6075C33.6088 32.6075 35.4549 25.7277 33.2291 25.7277C31.1038 25.7277 29.4347 31.1154 28.9036 31.1154C28.4593 31.1154 28.5546 29.4327 28.5725 26.3447L28.5802 26.3235C30.3225 24.4509 31.5345 21.8856 31.5354 19.4556C31.5354 18.3176 30.9787 17.4315 29.9165 17.4324C27.8422 17.4324 26.6276 20.7204 26.6276 24.3377C26.6276 25.1267 26.6455 26.1337 26.6694 27.1678L26.6634 27.1806C25.7008 27.8887 24.7943 28.259 24.2751 28.259L23.8069 28.2615L23.8078 28.2624C23.3295 26.7031 22.0434 26.0077 21.1131 26.0077C20.3794 26.0077 19.798 26.6903 19.798 27.2725C19.798 28.1305 20.5598 29.0378 22.9609 29.0905L22.966 29.0957C23.0267 29.386 23.0587 29.6817 23.0613 29.9783C23.0613 31.3189 22.0749 33.1412 20.33 33.1412C18.8116 33.1412 17.6736 31.421 17.6736 29.5229C17.6736 27.0946 19.2925 26.3354 19.2925 26.1583C19.2925 26.0571 19.2669 25.9558 19.2167 25.9558C17.6106 25.9558 14.9908 27.7245 12.5216 30.2915L12.5173 30.2907C12.2382 28.1662 11.9054 25.6562 11.9054 22.7189C11.9054 18.4691 12.6901 17.9133 12.6901 17.3566C12.6901 17.1038 12.6144 17.0017 12.1837 17.0017C11.2227 17.0017 5 19.8096 5 26.0324C5 30.8184 7.63345 32.9454 9.32979 34.2366C7.51088 36.9381 6.21459 39.9069 6.21459 42.5004C6.21459 43.9669 6.79677 45.4096 7.88369 45.4096C9.60386 45.4096 12.8918 41.7658 12.8927 34.3047C12.8927 33.3242 12.7659 32.2066 12.6033 30.9435L12.6041 30.9392C14.0775 29.3842 15.6572 28.1015 17.0395 27.2699ZM149.367 28.0266L149.371 28.0173C149.05 27.3976 148.594 26.9167 148.047 26.9167C147.794 26.9167 147.567 27.1695 147.567 27.3721C147.567 27.8274 147.998 28.1058 148.654 28.1058C148.894 28.1049 149.132 28.0768 149.367 28.0266ZM94.6479 33.7284C94.9654 33.2782 95.2982 32.8373 95.6387 32.4066L95.6565 32.3666C95.2412 30.1604 94.7986 28.0326 94.7986 26.4605C94.7986 21.9835 96.7469 18.7959 96.7469 18.1124C96.7469 17.6571 96.8235 17.5813 96.4941 17.5813C96.266 17.5813 91.8145 19.4785 91.8145 26.1822C91.8153 28.8846 93.0733 32.1921 94.6479 33.7284ZM94.2973 34.2366C93.6691 33.7591 93.0852 32.9386 92.1941 32.33C91.4425 31.8151 89.461 32.3734 87.7426 32.6841L87.7392 32.6875C87.5894 33.6782 87.2489 34.657 86.9076 34.657C86.6846 34.657 86.5867 33.8723 86.3075 32.9616L86.2905 32.9496C85.5228 33.0875 84.8725 33.1888 84.4784 33.1888C83.2894 33.1888 80.5572 32.6568 80.5572 30.8618C80.5572 29.8506 81.696 29.4455 82.7838 29.4455C84.0231 29.4455 85.996 30.3307 86.4769 31.2925C86.6029 29.5723 85.3628 28.636 85.3628 28.3577C85.3628 28.0794 86.7042 27.5738 86.831 27.5738C87.363 27.5738 87.8183 30.0021 87.8183 31.7231C87.8183 31.8049 87.8149 31.8874 87.8115 31.9742V31.9759C89.1733 31.7036 90.6373 31.4159 91.5872 31.5453C90.6765 30.2549 89.993 28.4845 89.993 26.0307C89.993 19.8079 96.1902 17 97.1511 17C97.5818 17 97.6831 17.1013 97.6831 17.3549C97.6831 17.9116 96.8737 18.4682 96.8737 22.7172C96.8737 25.657 97.2065 28.1696 97.4857 30.2949C99.9557 27.7262 102.577 25.9549 104.185 25.9549C104.235 25.9549 104.26 26.0562 104.26 26.1575C104.26 26.3345 102.641 27.0938 102.643 29.5221C102.641 31.4193 103.805 33.1395 105.322 33.1395C107.042 33.1395 108.031 31.3171 108.031 29.9766C108.031 29.711 107.997 29.4038 107.934 29.0897L107.933 29.088C105.529 29.0352 104.767 28.1287 104.767 27.2691C104.767 26.6869 105.349 26.0043 106.107 26.0043C107.018 26.0043 108.298 26.6997 108.777 28.2581L109.244 28.2556C109.764 28.2556 110.672 27.8845 111.637 27.1746L111.639 27.1687C111.615 26.224 111.601 25.2792 111.597 24.3343C111.597 20.717 112.812 17.429 114.885 17.4281C115.947 17.4281 116.504 18.3142 116.504 19.4522C116.504 21.8822 115.292 24.4484 113.549 26.3209L113.541 26.3388C113.524 29.4293 113.428 31.1137 113.874 31.1137C114.404 31.1137 116.073 25.726 118.199 25.726C120.425 25.726 118.603 32.6058 119.539 32.6058C120.678 32.6058 123.282 25.6238 125.028 25.6238C127.457 25.6238 125.788 31.4669 126.622 31.4669C127.482 31.4669 128.771 25.6238 131.023 25.6238C133.882 25.6238 131.2 33.0611 132.669 33.0611C133.781 33.0611 136.614 25.3455 137.247 25.3455C137.753 25.3455 136.994 25.9524 138.941 28.7348C139.024 28.8522 139.099 28.9714 139.167 29.094L139.177 29.0957C141.194 27.2367 143.882 25.623 145.847 25.623C146.201 25.623 146.404 25.674 146.404 25.9268C146.404 26.5082 144.658 26.9891 144.658 29.8728C144.658 31.644 145.873 33.085 147.238 33.085C148.983 33.085 149.894 31.3393 149.894 29.9996C149.894 29.6591 149.823 29.2293 149.69 28.7995L149.678 28.7935C149.304 28.9027 148.917 28.9594 148.527 28.962C147.036 28.962 146.403 27.8989 146.403 27.1159C146.403 26.5337 146.959 25.9779 147.693 25.9779C148.705 25.9779 149.751 26.5635 150.336 27.7032L150.341 27.704C151.922 27.0206 153.37 25.6996 154.346 25.6996C156.749 25.6996 155.383 30.9111 155.94 30.9111C156.547 30.9111 158.394 25.4979 160.316 25.4979C161.833 25.4979 161.707 27.521 161.707 28.4318C161.707 30.5069 161.227 33.3139 161.986 33.3139C162.517 33.3139 163.858 31.1129 164.034 31.1129C164.212 31.1129 164.237 31.1648 164.237 31.392C164.237 31.821 162.06 35.0843 160.872 35.0843C159.152 35.0843 159.304 32.4543 159.304 31.6202C159.304 30.9622 159.505 27.5721 159.001 27.5721C158.622 27.5721 157.635 29.7732 156.723 31.3929C155.788 33.0373 155.333 34.8826 154.398 34.8826C153.157 34.8826 153.41 33.1633 153.41 31.495C153.41 29.2684 153.688 27.1176 152.981 27.1176C152.654 27.1176 151.776 27.8887 150.624 28.4343L150.622 28.4377C150.739 28.8497 150.805 29.3118 150.805 29.8242C150.805 31.2405 150.072 34.8826 146.656 34.8826C144.228 34.8826 142.33 32.9854 142.33 30.5069C142.33 28.2045 143.62 27.4963 144.355 26.6869C143.096 26.8971 141.035 28.1798 139.443 29.654L139.438 29.6693C139.823 30.6515 139.852 31.6312 139.852 31.9751C139.852 33.6195 138.814 34.7583 137.752 34.7566C137.044 34.7566 136.335 34.303 136.335 33.3914C136.335 32.6764 136.841 31.7189 137.644 30.7205V30.712C137.238 29.614 136.667 28.8131 136.36 28.8131C135.729 28.8131 133.882 34.7566 131.555 34.7566C128.999 34.7566 130.77 27.5227 129.91 27.5227C129.076 27.5227 126.622 34.7566 125.206 34.7566C123.207 34.7566 125.003 27.6496 124.117 27.6496C122.98 27.6496 120.348 34.7566 118.578 34.7566C116.075 34.7566 117.945 27.7508 116.909 27.7508C116.352 27.7508 115.441 29.648 114.582 31.5453C113.847 33.0628 113.418 34.657 112.634 34.657C111.901 34.657 111.747 34.3779 111.747 32.0253C111.747 31.2788 111.699 29.6353 111.656 27.9381L111.653 27.9338C110.785 28.499 109.864 28.8863 108.939 29.0293L108.935 29.0344C108.955 29.2131 108.967 29.4012 108.967 29.597C108.967 31.2916 108.283 34.8579 104.793 34.8579C102.161 34.8579 100.72 32.8594 100.72 30.3051C100.72 28.9399 101.378 28.0283 102.01 27.2699C100.629 28.1007 99.0509 29.3808 97.5784 30.9316L97.5733 30.9529C97.7342 32.2117 97.8627 33.325 97.8627 34.303C97.8627 41.7641 94.5994 45.4079 92.8537 45.4079C91.7651 45.4079 91.1829 43.9652 91.1829 42.4987C91.1821 39.9061 92.4784 36.9364 94.2973 34.2366ZM137.87 31.4193H137.863C137.433 32.0406 137.17 32.6364 137.17 33.1395C137.17 33.645 137.272 33.9489 137.576 33.9489C137.854 33.9489 138.107 33.5931 138.107 33.1131C138.107 32.5411 138.015 31.9615 137.87 31.4193ZM113.543 25.3098C114.613 23.9266 115.441 22.0822 115.441 19.8335C115.441 18.7704 115.364 18.1635 114.809 18.1635C113.383 18.1635 113.526 23.4449 113.543 25.3098ZM107.668 28.2385L107.671 28.2317C107.401 27.5968 106.975 27.0929 106.386 27.0929C106.132 27.0929 105.98 27.2453 105.98 27.447C105.981 28.0096 106.782 28.1866 107.668 28.2385ZM95.7834 33.0484L95.7766 33.0467C93.8232 35.6137 92.3703 38.5987 92.3703 41.4347C92.3703 42.3727 92.3703 43.7635 93.6606 43.7635C95.2548 43.7635 96.3689 41.3845 96.3689 38.071C96.3689 36.5313 96.0974 34.7805 95.7834 33.0484ZM86.0599 32.2985L86.0701 32.2832C85.6292 31.2099 84.8563 30.1792 83.2902 30.1792C82.8604 30.1792 82.6323 30.5588 82.6323 31.0141C82.6323 31.8491 83.9473 32.3794 85.1627 32.3794C85.4147 32.3802 85.7211 32.3487 86.0599 32.2985ZM64.3973 28.0266C64.1635 28.0775 63.925 28.1038 63.6857 28.1049C63.0031 28.1049 62.598 27.8266 62.598 27.3712C62.598 27.1687 62.8261 26.9159 63.0789 26.9159C63.6253 26.9159 64.0798 27.3976 64.4016 28.0164L64.3973 28.0266ZM52.9026 31.4278C53.0456 31.9666 53.1375 32.5445 53.1375 33.1131C53.1375 33.5931 52.8847 33.9489 52.6055 33.9489C52.3025 33.9489 52.2012 33.645 52.2012 33.1395C52.2012 32.639 52.4617 32.0457 52.8889 31.4269L52.9026 31.4278ZM28.5734 25.3012C28.5572 23.4287 28.4168 18.1635 29.8399 18.1635C30.3965 18.1635 30.4723 18.7704 30.4723 19.8335C30.4723 22.0788 29.6467 23.9215 28.5776 25.3038L28.5734 25.3012ZM22.7022 28.2385C21.8144 28.1858 21.0109 28.0104 21.0109 27.447C21.0109 27.2453 21.1633 27.0929 21.4161 27.0929C22.0068 27.0929 22.4332 27.5985 22.7039 28.236L22.7022 28.2385ZM10.6848 32.3896C10.3392 32.8237 10.003 33.2705 9.68131 33.7259H9.67876C8.10669 32.1879 6.84529 28.882 6.84444 26.1813C6.84444 19.4785 11.2968 17.5813 11.5249 17.5813C11.8534 17.5813 11.753 17.6571 11.753 18.1124C11.753 18.7959 9.83026 21.9826 9.83026 26.4605C9.83026 28.0326 10.2729 30.1613 10.6874 32.3683L10.6848 32.3896ZM10.8133 33.0416C11.1291 34.7754 11.3989 36.5279 11.3989 38.0718C11.3989 41.3854 10.2856 43.7643 8.69228 43.7643C7.40194 43.7643 7.40194 42.3727 7.40194 41.4373C7.40194 38.5979 8.85655 35.6103 10.8108 33.0424L10.8133 33.0416Z" fill="#CF4044"/>
</svg>
