<svg width="170" height="62" viewBox="0 0 170 62" fill="none" xmlns="http://www.w3.org/2000/svg">
<path d="M160.399 44.854C159.718 44.8606 159.067 45.1362 158.589 45.6207C158.11 46.1052 157.844 46.7591 157.847 47.4393C157.85 48.1196 158.123 48.7709 158.606 49.2507C159.089 49.7306 159.742 50 160.424 50C161.105 50 161.758 49.7306 162.241 49.2507C162.724 48.7709 162.997 48.1196 163 47.4393C163.003 46.7591 162.737 46.1052 162.258 45.6207C161.78 45.1362 161.129 44.8606 160.448 44.854H160.399ZM160.399 49.7054C159.952 49.7128 159.513 49.5878 159.137 49.3461C158.762 49.1044 158.466 48.7569 158.289 48.3475C158.111 47.9381 158.059 47.4853 158.138 47.0462C158.218 46.6072 158.427 46.2017 158.737 45.8809C159.048 45.5602 159.447 45.3386 159.884 45.2443C160.32 45.15 160.775 45.1871 161.191 45.351C161.606 45.5148 161.964 45.7981 162.218 46.165C162.473 46.5318 162.613 46.9658 162.62 47.4119V47.4498C162.633 48.0351 162.412 48.6014 162.006 49.0242C161.601 49.4469 161.044 49.6916 160.458 49.7043H160.399M150.509 44.1511H144.91V35.3953C144.91 33.3074 144.873 30.6196 141.999 30.6196C139.083 30.6196 138.637 32.8944 138.637 35.2433V44.1505H133.038V26.145H138.413V28.6056H138.488C139.026 27.6872 139.803 26.9317 140.737 26.4195C141.671 25.9073 142.726 25.6577 143.791 25.6971C149.465 25.6971 150.511 29.4245 150.511 34.2736L150.509 44.1511ZM126.721 23.6838C126.079 23.6839 125.451 23.4937 124.916 23.1373C124.382 22.7809 123.965 22.2742 123.719 21.6814C123.473 21.0886 123.409 20.4362 123.534 19.8068C123.659 19.1774 123.969 18.5992 124.423 18.1454C124.877 17.6915 125.456 17.3824 126.086 17.2571C126.717 17.1318 127.37 17.196 127.963 17.4414C128.557 17.6869 129.065 18.1027 129.422 18.6362C129.779 19.1697 129.969 19.7969 129.97 20.4386C129.97 20.8647 129.886 21.2866 129.722 21.6803C129.559 22.074 129.32 22.4317 129.018 22.7331C128.717 23.0344 128.359 23.2734 127.965 23.4366C127.57 23.5997 127.148 23.6837 126.721 23.6838ZM129.521 44.1511H123.916V26.145H129.521V44.1511ZM153.3 12.0026H121.103C120.372 11.9943 119.668 12.2762 119.145 12.7862C118.622 13.2962 118.324 13.9926 118.315 14.7224V47.0101C118.324 47.7402 118.622 48.4371 119.145 48.9476C119.668 49.4582 120.372 49.7406 121.103 49.7328H153.3C154.032 49.742 154.739 49.4604 155.264 48.9499C155.788 48.4394 156.089 47.7417 156.099 47.0101V14.7201C156.089 13.9888 155.788 13.2916 155.263 12.7816C154.738 12.2716 154.032 11.9906 153.3 12.0002M103.077 30.4909C100.278 30.4909 98.5985 32.3575 98.5985 35.0773C98.5985 37.7971 100.277 39.6654 103.077 39.6654C105.877 39.6654 107.56 37.8017 107.56 35.0773C107.56 32.3528 105.88 30.4909 103.077 30.4909ZM112.714 44.1406H107.56V41.7527H107.484C106.837 42.6213 105.998 43.329 105.033 43.8208C104.068 44.3125 103.002 44.575 101.918 44.5879C96.5387 44.5879 92.9954 40.7108 92.9954 35.2281C92.9954 30.1927 96.1311 25.569 101.286 25.569C103.603 25.569 105.767 26.2021 107.036 27.9568H107.11V17.5779H112.714L112.714 44.1406ZM85.8073 33.047C85.818 32.5934 85.7364 32.1424 85.5674 31.7212C85.3984 31.3 85.1456 30.9175 84.8242 30.5968C84.5028 30.276 84.1196 30.0238 83.6978 29.8553C83.2759 29.6869 82.8242 29.6057 82.37 29.6167C81.3919 29.5559 80.4289 29.8814 79.6889 30.5231C78.9488 31.1648 78.4909 32.0713 78.4138 33.047H85.8073ZM90.5496 41.0259C89.6193 42.1526 88.4497 43.0585 87.1256 43.6781C85.8015 44.2976 84.356 44.6154 82.8937 44.6083C77.2953 44.6083 72.8131 40.8762 72.8131 35.0971C72.8131 29.3179 77.2947 25.5876 82.8937 25.5876C88.1265 25.5876 91.408 29.315 91.408 35.0971V36.8501H78.4138C78.5756 37.8443 79.0917 38.7466 79.8671 39.3908C80.6424 40.035 81.6247 40.3776 82.6331 40.3556C83.4299 40.3506 84.2129 40.1467 84.9107 39.7624C85.6085 39.3781 86.199 38.8257 86.6284 38.1553L90.5496 41.0259ZM34.8954 26.1403H40.2716V28.601H40.348C40.885 27.6822 41.6618 26.9263 42.5954 26.414C43.5291 25.9018 44.5845 25.6524 45.649 25.6925C51.3262 25.6925 52.3712 29.4227 52.3712 34.2689V44.1429H46.7728V35.3889C46.7728 33.2992 46.7343 30.6132 43.8569 30.6132C40.9469 30.6132 40.4979 32.8886 40.4979 35.2368V44.1406H34.8994L34.8954 26.1403ZM55.2101 17.5796H60.8085V33.4588L67.1534 26.1304H74.0173L66.6694 34.4663L73.8628 44.1517H66.8262L60.8832 35.2514H60.8097V44.1505H55.2112L55.2101 17.5796ZM26.1927 26.1386H31.7911V44.1441H26.1927V26.1386ZM28.9919 17.1871C29.6342 17.1872 30.2621 17.3775 30.7961 17.734C31.3301 18.0904 31.7462 18.597 31.992 19.1897C32.2377 19.7824 32.3019 20.4345 32.1765 21.0636C32.0512 21.6927 31.7418 22.2706 31.2876 22.7241C30.8334 23.1777 30.2547 23.4865 29.6247 23.6116C28.9947 23.7367 28.3418 23.6724 27.7484 23.4269C27.155 23.1814 26.6478 22.7657 26.291 22.2324C25.9341 21.699 25.7437 21.0719 25.7437 20.4305C25.7437 20.0045 25.8277 19.5827 25.9909 19.1892C26.1542 18.7956 26.3935 18.438 26.6951 18.1369C26.9967 17.8357 27.3548 17.5968 27.7489 17.4338C28.143 17.2709 28.5654 17.187 28.9919 17.1871ZM7 17.5837H12.8276V38.7831H23.6163V44.154H7V17.5837ZM160.808 47.5901C160.903 47.5911 160.998 47.5724 161.087 47.5351C161.175 47.4979 161.255 47.4429 161.321 47.3736C161.387 47.3043 161.438 47.2221 161.471 47.1323C161.505 47.0424 161.519 46.9467 161.513 46.8511C161.513 46.3269 161.197 46.0765 160.547 46.0765H159.497V48.8208H159.892V47.6245H160.377L160.388 47.6391L161.141 48.8208H161.563L160.753 47.5977L160.808 47.5901ZM160.351 47.3153H159.893V46.3875H160.473C160.773 46.3875 161.115 46.4364 161.115 46.8284C161.115 47.2791 160.769 47.3153 160.349 47.3153" fill="#0A66C2"/>
</svg>
