<svg width="170" height="62" viewBox="0 0 170 62" fill="none" xmlns="http://www.w3.org/2000/svg">
<path d="M166 29.3817V26.5824H162.462V22.2304L162.343 22.2665L159.02 23.2655L158.954 23.285V26.5825H153.709V24.7455C153.709 23.8902 153.904 23.2356 154.288 22.7991C154.668 22.3678 155.213 22.1485 155.908 22.1485C156.408 22.1485 156.925 22.2642 157.446 22.4922L157.576 22.5495V19.6014L157.515 19.5792C157.029 19.4077 156.369 19.3213 155.55 19.3213C154.518 19.3213 153.58 19.5419 152.763 19.9792C151.945 20.4172 151.301 21.0423 150.85 21.8372C150.401 22.6311 150.173 23.548 150.173 24.5628V26.5824H147.709V29.3817H150.173V41.1749H153.709V29.3817H158.954V36.8761C158.954 39.9626 160.436 41.5267 163.358 41.5267C163.838 41.5267 164.344 41.4714 164.86 41.3632C165.385 41.252 165.743 41.141 165.953 41.0224L166 40.9953V38.1701L165.856 38.2636C165.664 38.3892 165.425 38.4919 165.145 38.5683C164.864 38.6461 164.628 38.685 164.446 38.685C163.762 38.685 163.255 38.5038 162.941 38.1461C162.623 37.7852 162.462 37.154 162.462 36.2711V29.3817H166ZM139.812 38.6855C138.528 38.6855 137.516 38.2673 136.803 37.4435C136.085 36.6155 135.722 35.4351 135.722 33.9354C135.722 32.388 136.085 31.177 136.803 30.3344C137.517 29.4974 138.519 29.0725 139.783 29.0725C141.009 29.0725 141.985 29.4783 142.684 30.2791C143.387 31.0841 143.744 32.2855 143.744 33.8508C143.744 35.4354 143.408 36.6526 142.747 37.4669C142.09 38.275 141.103 38.6855 139.812 38.6855ZM139.969 26.2308C137.52 26.2308 135.575 26.9359 134.188 28.3265C132.802 29.7172 132.099 31.6418 132.099 34.0473C132.099 36.3321 132.785 38.1698 134.138 39.5087C135.491 40.848 137.333 41.5264 139.611 41.5264C141.985 41.5264 143.891 40.8115 145.277 39.4016C146.663 37.9933 147.366 36.0869 147.366 33.7376C147.366 31.4172 146.707 29.5657 145.406 28.2358C144.105 26.9053 142.276 26.2308 139.969 26.2308ZM126.397 26.2308C124.731 26.2308 123.353 26.6495 122.301 27.475C121.242 28.3054 120.705 29.3945 120.705 30.7124C120.705 31.3975 120.821 32.006 121.049 32.5221C121.278 33.04 121.634 33.4959 122.106 33.8785C122.574 34.2581 123.297 34.6557 124.255 35.0602C125.061 35.3859 125.661 35.6613 126.043 35.8784C126.416 36.0912 126.681 36.3051 126.83 36.5134C126.975 36.7173 127.049 36.9963 127.049 37.3406C127.049 38.321 126.302 38.798 124.764 38.798C124.194 38.798 123.544 38.681 122.831 38.4504C122.123 38.2232 121.456 37.8905 120.851 37.464L120.704 37.3605V40.706L120.758 40.7306C121.259 40.9576 121.889 41.149 122.633 41.2996C123.375 41.4503 124.05 41.527 124.635 41.527C126.443 41.527 127.899 41.1064 128.961 40.2759C130.03 39.4398 130.572 38.325 130.572 36.9615C130.572 35.9779 130.28 35.1344 129.705 34.4541C129.134 33.7794 128.143 33.1599 126.761 32.6124C125.66 32.1781 124.955 31.8177 124.664 31.541C124.383 31.2737 124.241 30.8956 124.241 30.4169C124.241 29.9926 124.417 29.6526 124.778 29.3772C125.141 29.1005 125.648 28.9598 126.283 28.9598C126.872 28.9598 127.475 29.0513 128.074 29.2305C128.673 29.4097 129.2 29.6498 129.639 29.9434L129.783 30.0404V26.8669L129.728 26.8435C129.323 26.6727 128.788 26.5266 128.139 26.4081C127.493 26.2903 126.907 26.2308 126.397 26.2308ZM111.485 38.6855C110.202 38.6855 109.189 38.2673 108.476 37.4435C107.759 36.6155 107.396 35.4354 107.396 33.9354C107.396 32.388 107.759 31.177 108.477 30.3344C109.19 29.4974 110.192 29.0725 111.457 29.0725C112.682 29.0725 113.659 29.4783 114.358 30.2791C115.061 31.0841 115.417 32.2855 115.417 33.8508C115.417 35.4354 115.082 36.6526 114.421 37.4669C113.764 38.275 112.777 38.6855 111.485 38.6855ZM111.643 26.2308C109.193 26.2308 107.248 26.9359 105.862 28.3265C104.476 29.7172 103.773 31.6418 103.773 34.0473C103.773 36.333 104.459 38.1698 105.812 39.5087C107.165 40.848 109.006 41.5264 111.284 41.5264C113.658 41.5264 115.565 40.8115 116.951 39.4016C118.337 37.9933 119.039 36.0869 119.039 33.7376C119.039 31.4172 118.38 29.5657 117.08 28.2358C115.779 26.9053 113.949 26.2308 111.643 26.2308ZM98.4043 29.1095V26.5824H94.9109V41.1746H98.4043V33.7101C98.4043 32.4408 98.6972 31.3981 99.2752 30.6105C99.8457 29.8323 100.606 29.4379 101.534 29.4379C101.849 29.4379 102.202 29.4889 102.585 29.5897C102.964 29.69 103.238 29.7988 103.399 29.9134L103.546 30.018V26.5574L103.49 26.5336C103.164 26.3977 102.704 26.3292 102.122 26.3292C101.244 26.3292 100.458 26.6064 99.7854 27.1521C99.1948 27.6317 98.7679 28.2894 98.4415 29.1095H98.4043ZM88.6548 26.2308C87.0521 26.2308 85.6226 26.5685 84.4067 27.2342C83.1882 27.9014 82.2459 28.8539 81.6048 30.0651C80.9665 31.2734 80.6425 32.6847 80.6425 34.2587C80.6425 35.6375 80.9567 36.9027 81.5777 38.0178C82.1991 39.1348 83.0785 40.0086 84.1918 40.6147C85.3035 41.22 86.5884 41.5269 88.011 41.5269C89.6712 41.5269 91.0887 41.2007 92.2252 40.5576L92.2711 40.5317V37.387L92.1243 37.4923C91.6095 37.8608 91.0342 38.1549 90.4152 38.3667C89.7977 38.5785 89.2348 38.6855 88.7412 38.6855C87.3704 38.6855 86.27 38.264 85.4712 37.4332C84.6707 36.6012 84.2649 35.433 84.2649 33.9629C84.2649 32.4836 84.6881 31.2854 85.5223 30.4012C86.354 29.5197 87.4564 29.0725 88.7988 29.0725C89.9471 29.0725 91.066 29.4545 92.1246 30.209L92.2711 30.3136V27.0001L92.2238 26.9739C91.8254 26.7548 91.2821 26.5739 90.6076 26.4367C89.9359 26.2998 89.279 26.2308 88.6548 26.2308ZM78.2365 26.5825H74.7431V41.1746H78.2365V26.5825ZM76.5255 20.3662C75.9505 20.3662 75.449 20.5585 75.0371 20.9396C74.6233 21.3218 74.4135 21.803 74.4135 22.3709C74.4135 22.9298 74.6208 23.4022 75.0306 23.7742C75.4378 24.1452 75.9408 24.3332 76.5257 24.3332C77.1103 24.3332 77.6153 24.1452 78.0273 23.7748C78.4419 23.4022 78.6522 22.93 78.6522 22.3709C78.6522 21.8228 78.4476 21.3466 78.0443 20.955C77.6414 20.5642 77.1302 20.3662 76.5255 20.3662ZM67.8092 25.5059V41.1746H71.3744V20.8129H66.44L60.1681 35.9369L54.0816 20.8129H48.9463V41.1744H52.2966V25.5043H52.4117L58.8389 41.1746H61.3673L67.6942 25.5059H67.8092Z" fill="#706D6E"/>
<path d="M20.434 30.1563H4V14.0088H20.434V30.1563Z" fill="#F1511B"/>
<path d="M38.5792 30.1563H22.1455V14.0088H38.5792V30.1563Z" fill="#80CC28"/>
<path d="M20.4336 47.9912H4V31.8438H20.4336V47.9912Z" fill="#00ADEF"/>
<path d="M38.5792 47.9912H22.1455V31.8438H38.5792V47.9912Z" fill="#FBBC09"/>
</svg>
