<svg width="170" height="62" viewBox="0 0 170 62" fill="none" xmlns="http://www.w3.org/2000/svg">
<path d="M155.548 30.468L164 53C161.509 52.6418 159.019 52.1931 156.484 51.7888L151.723 39.339L146.831 50.7611C144.43 50.3569 142.071 50.2223 139.669 49.9083L148.254 30.2001L140.468 10H147.675L152.033 21.2861L156.705 10H163.999L155.548 30.468ZM134.777 10H128.238V49.0583C130.373 49.1931 132.596 49.2819 134.777 49.55V10ZM122.588 48.6098C116.629 48.207 110.667 47.8501 104.574 47.7139V10.0002H111.245V41.3541C115.071 41.4431 118.896 41.7556 122.588 41.9347V48.6098ZM97.455 25.275V31.993H88.3366V47.2666H81.7548V10H100.437V16.718H88.338V25.2752H97.4564L97.455 25.275ZM70.5438 16.718V47.625C68.319 47.625 66.0516 47.625 63.8709 47.7139V16.718H56.9759V10H77.4814V16.718H70.5438ZM49.7706 32.35C46.8354 32.35 43.365 32.35 40.8741 32.4862V42.4736C44.7885 42.2041 48.7029 41.8916 52.6612 41.757V48.207L34.2025 49.6862V10H52.66V16.718H40.8739V25.7666C43.4546 25.7666 47.4131 25.632 49.7702 25.632V32.3514L49.7706 32.35ZM12.8041 28.5875V52.0583C10.4042 52.3277 8.26756 52.6416 6 53V10H12.3614L21.0345 34.4127V10H27.7074V50.2223C25.3501 50.6265 22.9475 50.7611 20.4124 51.1181L12.8041 28.5875Z" fill="#E50914"/>
</svg>
