<svg width="170" height="62" viewBox="0 0 170 62" fill="none" xmlns="http://www.w3.org/2000/svg">
<path fill-rule="evenodd" clip-rule="evenodd" d="M35.8818 7.89198C26.7978 18.5599 18.088 31.7892 18.0007 41.6775C17.9667 45.3981 19.1545 48.6461 22.0035 51.1062C26.1037 54.6493 30.6213 55.8987 35.1169 55.9061C41.6864 55.9152 48.21 53.2648 53.3179 51.2211C61.9201 47.781 157.01 6.48723 157.01 6.48723C157.927 6.02757 157.755 5.45482 156.607 5.74074C156.144 5.85657 53.0871 33.785 53.0871 33.785C51.135 34.3371 49.1179 34.6259 47.0894 34.6437C39.1693 34.6906 32.1217 30.2943 32.1787 21.0302C32.2007 17.4052 33.3104 13.0338 35.8818 7.89198Z" fill="black"/>
</svg>
