<svg width="170" height="62" viewBox="0 0 170 62" fill="none" xmlns="http://www.w3.org/2000/svg">
<path d="M73.5268 34.3129H84.6279L78.7581 24.7999L67.9847 41.9997H63.0819L76.1856 21.339C76.7552 20.5044 77.7048 20 78.7581 20C79.7766 20 80.7262 20.4869 81.2787 21.3043L94.4343 41.9997H89.5314L87.2181 38.1563H75.9789L73.5271 34.3129H73.5268ZM124.457 38.156V20.2086H120.297V39.9127C120.297 40.4518 120.504 40.9737 120.901 41.3736C121.298 41.7736 121.833 41.9997 122.42 41.9997H141.394L143.846 38.1563H124.457L124.457 38.156ZM55.6233 34.9386C59.6635 34.9386 62.9438 31.6518 62.9438 27.5823C62.9438 23.5125 59.6635 20.2082 55.6233 20.2082H37.4212V42H41.5805V24.0523H55.3473C57.281 24.0523 58.8347 25.6352 58.8347 27.583C58.8347 29.5305 57.281 31.113 55.3473 31.113L43.6179 31.0959L56.0377 42H62.0805L53.7244 34.9392H55.6236L55.6233 34.9386ZM11.8183 41.9997C5.84641 42 1 37.1303 1 31.113C1 25.0954 5.84641 20.2089 11.8183 20.2089H24.392C30.3652 20.2089 35.208 25.0954 35.208 31.113C35.208 37.1303 30.3652 41.9997 24.3917 41.9997H11.8183ZM24.1125 38.1563C27.9814 38.1563 31.115 35.0083 31.115 31.1127C31.115 27.2174 27.9814 24.0523 24.1125 24.0523H12.0965C8.22892 24.0523 5.09369 27.2174 5.09369 31.113C5.09369 35.0083 8.22892 38.1563 12.0962 38.1563H24.1121H24.1125ZM103.118 41.9997C97.1452 41.9997 92.2936 37.1303 92.2936 31.113C92.2936 25.0954 97.1452 20.2089 103.118 20.2089H118.053L115.618 24.0523H103.395C99.5274 24.0523 96.3853 27.2174 96.3853 31.113C96.3853 35.0083 99.5274 38.1563 103.395 38.1563H118.398L115.946 41.9997H103.118ZM153.997 38.1563C150.803 38.1563 148.093 35.9999 147.264 33.0258H165.047L167.498 29.1824H147.264C148.093 26.2258 150.803 24.0523 153.997 24.0523H166.204L168.672 20.2082H153.721C147.747 20.2082 142.896 25.0951 142.896 31.1124C142.896 37.13 147.747 41.9993 153.721 41.9993H166.549L169 38.1563H153.997H153.997Z" fill="#EA1B22"/>
</svg>
