<svg width="170" height="62" viewBox="0 0 170 62" fill="none" xmlns="http://www.w3.org/2000/svg">
<path fill-rule="evenodd" clip-rule="evenodd" d="M34.6794 30.8954H33.6797C31.9008 30.8954 30.4558 32.2281 30.4558 34.0069C30.4558 35.452 30.9003 37.1184 32.7907 37.1184C34.458 37.1184 34.7909 35.7858 34.7909 34.4505V31.1159C34.7901 31.1159 34.9016 30.8954 34.6794 30.8954ZM85.3297 47.1231H81.8286C79.3159 46.8233 77.1396 45.8637 77.1396 43.5654C77.1396 41.899 79.0283 40.677 80.5857 40.4539C80.5857 40.4539 81.0303 40.3432 80.5857 40.3432C80.0297 40.2308 77.0289 40.0094 76.0283 40.2308C76.0283 40.2308 75.8061 40.2308 75.6945 40.0094C75.5838 39.7863 75.0278 38.2305 74.9162 38.1198C74.8055 37.8967 75.0269 37.786 75.0269 37.786C77.2503 37.4522 79.2505 36.341 80.1395 36.0072C80.6956 35.8965 80.1395 35.7858 80.1395 35.7858C77.028 35.2289 73.9148 33.1179 73.9148 29.4495C73.9148 24.2253 78.2499 21.8913 82.362 21.8913C84.2516 21.8913 85.3628 22.2251 86.3634 22.3357C86.3634 22.3357 86.4741 22.4473 86.5865 22.2251C86.5865 21.8912 86.9186 21.0022 86.9186 21.0022C87.3648 19.6687 88.0298 19.1127 90.0318 19.1127C90.4763 19.1127 90.9208 19.1127 91.2538 19.2242C91.2538 19.2242 91.4769 19.1127 91.4769 19.4465C91.3644 19.5572 90.6968 22.2251 90.6968 22.3357C90.5861 22.6696 90.4754 22.4473 90.4754 22.4473C90.1416 22.2251 90.0309 22.1135 89.2535 22.2251C88.8073 22.2251 88.5859 22.558 88.5859 23.0034C88.5859 23.7817 92.1419 24.8929 92.1419 29.1166C92.1419 34.7852 86.9177 36.0072 82.3611 37.1193C82.3611 37.1193 81.9166 37.23 82.3611 37.23C85.3619 37.5638 91.5867 38.3412 91.5867 42.2328C91.5893 45.509 87.9339 46.7719 85.3297 47.1231ZM41.7931 38.1198H42.6821C42.9044 38.1198 42.9044 38.3412 42.9044 38.3412V40.1201C42.9044 40.4539 42.5714 40.3432 42.5714 40.3432H35.4577C35.4577 40.3432 35.3461 40.3432 35.3461 40.1201C35.2354 39.6756 35.0132 39.2311 35.0132 38.8982C34.9025 38.4537 34.6794 38.8982 34.6794 38.8982C33.2343 40.0094 31.567 40.8984 29.5668 40.8984C26.2321 40.8984 23.6758 38.7875 23.6758 35.3404C23.6758 31.1168 26.3437 28.7836 29.6783 28.7836L34.7909 28.5614V28.34V27.7839C34.7909 26.3389 34.0126 25.6721 32.3453 25.6721C30.2335 25.6721 29.2338 26.4504 28.2333 27.6724C28.2333 27.6724 28.2333 27.783 28.011 27.783C27.7888 27.6724 26.0108 27.0047 26.0108 27.0047C26.0108 27.0047 25.7885 27.0047 25.9001 26.7825C26.0116 26.5602 28.2341 21.2254 28.2341 21.2254C28.2341 21.2254 28.2341 21.0031 28.3448 21.1147C28.6778 21.2254 30.0121 21.6707 30.3451 21.6707C30.5673 21.7814 30.4558 22.0037 30.4558 22.0037L30.2335 22.4482C30.1228 22.8927 30.3442 22.6704 30.3442 22.6704C31.7893 22.1144 33.2343 21.8921 34.6794 21.8921C38.903 21.8921 41.6824 23.671 41.6824 28.0053V37.7869C41.6816 37.786 41.6816 38.1198 41.7931 38.1198ZM42.2376 23.2247C45.1269 22.4464 47.5725 20.5569 48.7953 17.889C48.7953 17.889 48.7953 17.7783 49.0176 17.7783C49.2398 17.7783 50.6849 18.1121 50.9071 18.1121C51.1294 18.2228 51.0178 18.3344 51.0178 18.3344C50.9071 19.2243 50.7956 20.2239 50.7956 21.0022V22.3357C50.7956 22.558 51.0178 22.4473 51.0178 22.4473H54.0186C54.2409 22.4473 54.1293 22.6696 54.1293 22.6696C54.1293 22.6696 53.6848 24.8929 53.6848 25.1152C53.5741 25.3374 53.4625 25.3374 53.4625 25.3374H51.0169C50.7938 25.3374 50.7947 25.449 50.7947 25.449V35.7867C50.7947 37.0086 51.7952 37.23 52.3513 37.23C52.9065 37.23 53.018 37.23 53.4625 37.0086C53.4625 37.0086 53.6848 36.7855 53.6848 37.0086C53.7955 37.23 54.3515 38.675 54.4631 38.8982C54.5738 39.0089 54.3515 39.1195 54.3515 39.1195C52.0175 40.7877 51.7952 40.8984 48.6829 40.8984C45.2376 40.8984 44.0147 39.232 44.0147 36.1205V25.4481C44.0147 25.4481 44.0147 25.3366 43.7925 25.3366H42.2368C42.2368 25.3366 42.1252 25.3366 42.1252 25.1143V23.447C42.1261 23.3363 42.2376 23.2247 42.2376 23.2247ZM92.9219 31.339C92.9219 25.5588 97.4794 21.8913 103.483 21.8913C109.483 21.8913 114.152 25.5588 114.152 31.339C114.152 37.3415 109.483 40.8975 103.483 40.8975C97.4785 40.8975 92.9219 37.3415 92.9219 31.339ZM99.8143 28.7827C99.8143 31.4506 100.926 38.1198 104.705 38.1198C106.705 38.1198 107.26 36.0072 107.26 34.0069C107.26 31.3391 106.151 24.6707 102.259 24.6707C99.8143 24.6698 99.8143 27.4484 99.8143 28.7827ZM135.271 40.3423H125.934C125.934 40.3423 125.824 40.3424 125.824 40.2299V38.3404C125.824 38.119 126.045 38.119 126.045 38.119H127.156C127.269 38.119 127.269 38.0083 127.269 38.0083V27.8937C127.269 26.7825 126.268 26.3371 125.267 26.3371C124.045 26.3371 123.156 26.8932 122.266 27.6706C122.266 27.6706 122.155 27.7813 122.155 27.8929V38.0083C122.155 38.0083 122.155 38.119 122.266 38.119H123.49C123.49 38.119 123.6 38.119 123.6 38.3404V40.2299C123.6 40.3424 123.49 40.3423 123.49 40.3423H114.152C114.152 40.3423 114.042 40.453 114.042 40.1192V38.3404C114.042 38.119 114.152 38.119 114.152 38.119H115.151C115.374 38.119 115.264 38.0083 115.264 38.0083V26.1149C115.264 26.1149 115.374 25.8926 115.151 25.8926L114.152 26.2264C114.152 26.2264 114.042 26.3371 114.042 26.1157V24.2262C114.042 24.0039 114.152 24.1155 114.152 24.1155L122.045 22.0037C122.045 22.0037 122.266 21.893 122.266 22.1144V24.6715C122.266 25.0045 122.378 24.7822 122.378 24.7822C124.268 23.3372 126.157 21.8921 128.713 21.8921C133.493 21.8921 134.16 25.1152 134.16 27.1163V38.01C134.16 38.01 134.049 38.1207 134.271 38.1207H135.271C135.271 38.1207 135.382 38.1207 135.382 38.3421V40.121C135.382 40.453 135.271 40.3423 135.271 40.3423ZM144.719 22.0019L136.827 24.1137C136.827 24.1137 136.716 24.1137 136.716 24.336V26.1149C136.716 26.3371 136.938 26.2256 136.938 26.2256C136.938 26.2256 137.495 26.1149 137.938 26.0033C138.162 26.0033 138.049 26.2256 138.049 26.3362V38.0083C138.049 38.0083 138.162 38.119 137.938 38.119H136.827C136.827 38.119 136.604 38.119 136.604 38.3404V40.2299C136.604 40.453 136.827 40.3423 136.827 40.3423H146.054C146.275 40.3423 146.164 40.1192 146.164 40.1192V38.3404C146.164 38.119 145.941 38.119 145.941 38.119H145.052C144.829 38.119 144.941 38.0083 144.941 38.0083V22.1126C144.941 21.8904 144.719 22.0019 144.719 22.0019ZM141.941 16.4448C143.496 16.4448 145.274 16.8893 145.274 18.7789C145.274 21.0023 142.274 21.8913 140.385 21.8913C138.827 21.8913 137.828 21.1129 137.828 19.5572C137.828 17.7783 140.272 16.4448 141.941 16.4448ZM65.5791 30.8954H64.6892C62.7997 30.8954 61.4662 32.2281 61.4662 34.0069C61.4662 35.452 61.9107 37.1184 63.6895 37.1184C65.4684 37.1184 65.8013 35.7858 65.8013 34.4505V31.1159C65.8013 31.1159 65.8013 30.8954 65.5791 30.8954ZM72.8044 38.1198H73.5827C73.9156 38.1198 73.9156 38.3412 73.9156 38.3412V40.1201C73.9156 40.4539 73.5827 40.3432 73.5827 40.3432H66.469C66.469 40.3432 66.3574 40.3432 66.2467 40.1201C66.136 39.6756 66.0245 39.2311 66.0245 38.8982C65.9138 38.4537 65.6915 38.8982 65.6915 38.8982C64.1349 40.0094 62.5792 40.8984 60.578 40.8984C57.1327 40.8984 54.5764 38.7875 54.5764 35.3404C54.5764 31.1168 57.355 28.672 60.6896 28.672L65.6915 28.5605C65.6915 28.5605 65.8022 28.5605 65.8022 28.3391V27.783C65.8022 26.338 65.0239 25.6712 63.3566 25.6712C61.2448 25.6712 60.2442 26.4495 59.2437 27.6715C59.2437 27.6715 59.133 27.7822 59.0214 27.6715C58.7992 27.6715 56.9096 27.0047 56.9096 27.0047C56.9096 27.0047 56.7989 27.0047 56.9096 26.7825C57.0203 26.5602 59.133 21.2254 59.133 21.2254C59.133 21.2254 59.133 21.0031 59.3552 21.1147C59.5775 21.2254 61.0225 21.6707 61.2448 21.6707C61.467 21.7814 61.3555 22.0037 61.3555 22.0037C61.3555 22.0037 61.3555 22.2259 61.2448 22.4482C61.0225 22.8927 61.3555 22.6704 61.3555 22.6704C62.8005 22.1144 64.2456 21.8921 65.6907 21.8921C69.9143 21.8921 72.6937 23.671 72.6937 28.0053V37.7869C72.6928 37.786 72.5813 38.1198 72.8044 38.1198ZM80.1395 26.6709C80.1395 28.6712 81.2508 34.1176 84.0302 34.1176C85.4761 34.1176 86.0304 33.45 86.0304 31.6729C86.0304 29.6717 84.8076 24.2253 82.0291 24.2253C80.6956 24.2253 80.1395 24.8921 80.1395 26.6709ZM83.0296 41.2313C82.6967 41.5652 82.4744 42.7871 82.4744 43.5654C82.4744 44.4553 82.9189 45.455 84.0302 45.455C84.9201 45.455 85.4761 45.0105 85.4761 44.1223C85.4761 42.4542 84.4747 41.899 83.2528 41.1215C83.2528 41.1207 83.1412 41.1207 83.0296 41.2313ZM157.168 30.8954H156.279C154.389 30.8954 153.055 32.2281 153.055 34.0069C153.055 35.452 153.499 37.1184 155.278 37.1184C157.057 37.1184 157.391 35.7858 157.391 34.4505V31.1159C157.391 31.1159 157.391 30.8954 157.168 30.8954ZM164.392 38.1198H165.282C165.504 38.1198 165.504 38.3412 165.504 38.3412V40.1201C165.504 40.4539 165.17 40.3432 165.17 40.3432H158.056C158.056 40.3432 157.945 40.3432 157.835 40.1201C157.724 39.6756 157.611 39.2311 157.611 38.8982C157.501 38.4537 157.278 38.8982 157.278 38.8982C155.722 40.0094 154.166 40.8984 152.166 40.8984C148.721 40.8984 146.163 38.7875 146.163 35.3404C146.163 31.1168 148.942 28.672 152.277 28.672L157.278 28.5605C157.278 28.5605 157.39 28.5605 157.39 28.3391V27.783C157.39 26.338 156.612 25.6712 154.944 25.6712C152.833 25.6712 151.832 26.4495 150.831 27.6715C150.831 27.6715 150.72 27.7822 150.609 27.6715C150.386 27.6715 148.607 27.0047 148.607 27.0047C148.607 27.0047 148.386 27.0047 148.497 26.7825C148.607 26.5602 150.72 21.2254 150.72 21.2254C150.72 21.2254 150.72 21.0031 150.943 21.1147C151.164 21.2254 152.61 21.6707 152.833 21.6707C153.055 21.7797 153.055 22.0019 153.055 22.0019L152.834 22.4464C152.61 22.8909 152.944 22.6687 152.944 22.6687C154.389 22.1126 155.834 21.8904 157.279 21.8904C161.504 21.8904 164.282 23.6692 164.282 28.0036V37.7852C164.282 37.786 164.282 38.1198 164.392 38.1198ZM11.2263 26.2264V35.2297C11.2263 36.7855 11.7824 38.1198 13.5604 38.1198C15.7838 38.1198 16.7843 36.7855 16.7843 32.6725C16.7843 26.1157 13.4497 25.7819 12.3385 25.7819L11.4486 25.8926C11.4486 25.8926 11.2263 26.0042 11.2263 26.2264ZM11.337 23.5586C13.0043 22.558 14.2272 21.8913 15.8945 21.8913C20.2297 21.8913 23.675 25.4481 23.675 30.6723C23.675 35.7858 20.4519 40.8975 14.8939 40.8975C13.7827 40.8975 12.3376 40.7868 11.337 40.2299C11.337 40.2299 11.2263 40.2299 11.2263 40.3423V43.5645C11.2263 43.5645 11.2263 43.7877 11.4486 43.7877H13.4488C13.4488 43.7877 13.6711 43.7877 13.6711 44.0108V45.7879C13.6711 45.9003 13.4488 46.011 13.4488 46.011H3.3343C3.3343 46.011 3.00049 46.011 3.00049 45.7879V45.7705V45.753V45.7347V45.7164V45.6964V45.6746V45.6528V45.631V45.6075V45.5822V45.5569V45.5299V45.5029V45.4759V45.4471V45.4201V45.3896V45.3591V45.3286V45.2981V45.2658V45.2353V45.2013V45.1708V45.1368V45.1046V45.0706V45.0384V45.0044V44.9704V44.9364V44.9041V44.8701V44.8362V44.8004V44.7682V44.7342V44.7002V44.6679V44.6357V44.6034V44.5712V44.5389V44.5067V44.4762V44.4457V44.4152V44.3882V44.3577V44.3306V44.3019V44.2749V44.2496V44.2243V44.199V44.1755V44.152V44.1302V44.1101V44.0901V44.07V44.0526V44.0352V44.0195C3.00049 43.7964 3.22274 43.7964 3.22274 43.7964H4.11174C4.33399 43.7964 4.33399 43.5733 4.33399 43.5733V26.1236C4.33399 25.9013 4.11174 26.0129 4.11174 26.0129L3.22274 26.2351C3.22274 26.2351 3.00049 26.2351 3.00049 26.0129V26.0007V25.9876V25.9728V25.9571V25.9397V25.9214V25.9013V25.8804V25.8569V25.8342V25.8089V25.7837V25.7567V25.7288V25.7V25.6712V25.6407V25.6102V25.578V25.5457V25.5117V25.4786V25.4446V25.4098V25.3749V25.3392V25.3034V25.2677V25.2311V25.1954V25.1588V25.123V25.0864V25.0498V25.0132V24.9775V24.9409V24.9051V24.8694V24.8345V24.7997V24.7657V24.7317V24.6986V24.6655V24.6341V24.6027V24.5731V24.5426V24.5138V24.4859V24.4598V24.4336V24.4092V24.3857V24.3639V24.3421V24.3229V24.3046V24.2872V24.2706V24.2567V24.2445V24.2332C3.00049 24.0109 3.22274 24.0109 3.22274 24.0109L11.0032 22.0107C11.0032 22.0107 11.2255 21.9 11.2255 22.1213V23.4548C11.2263 23.6692 11.337 23.5586 11.337 23.5586ZM161.17 17.4454C161.17 16.111 162.281 14.9998 163.615 14.9998C164.949 14.9998 166.061 16.111 166.061 17.4454C166.061 18.8904 164.95 20.0017 163.615 20.0017C162.281 20.0017 161.17 18.8904 161.17 17.4454ZM165.727 17.4454C165.727 16.3341 164.837 15.3336 163.614 15.3336C162.391 15.3336 161.391 16.3341 161.391 17.4454C161.391 18.6682 162.391 19.6679 163.614 19.6679C164.837 19.6679 165.727 18.6682 165.727 17.4454ZM164.837 18.8904H164.392L163.614 17.5569H163.059V18.8904H162.725V16.1119H163.836C164.058 16.1119 164.391 16.1119 164.504 16.2234C164.725 16.3341 164.836 16.6679 164.836 16.8902C164.836 17.3356 164.504 17.5578 163.947 17.5578L164.837 18.8904ZM163.503 17.3338C163.948 17.3338 164.504 17.4445 164.504 16.8884C164.504 16.4439 164.17 16.3333 163.836 16.3333H163.058V17.3338H163.503Z" fill="black"/>
</svg>
