<svg width="170" height="62" viewBox="0 0 170 62" fill="none" xmlns="http://www.w3.org/2000/svg">
<path d="M97.4002 0H97.3968C91.4185 0 85.0952 0.652076 78.6751 2.02603C52.3913 7.64955 33.0069 23.4815 33.0001 38.5355C32.9969 39.6871 33.1114 40.8361 33.3416 41.9644C35.2466 51.3199 44.7714 57.9564 58.0042 60.6567C60.7997 49.5901 67.2351 24.2681 67.2351 24.2681C68.4943 19.2592 69.1978 17.3234 70.4485 15.1442C72.0731 12.3282 74.6799 9.99736 78.3335 9.65856C80.3217 9.47638 83.2803 9.73177 84.9372 10.9236C86.4972 12.0472 86.6977 13.2254 86.645 14.298C86.5379 16.5147 85.2159 17.9959 83.1053 17.9959C80.942 17.9959 80.2657 16.3683 80.2572 15.2906C80.2419 13.8315 81.0898 13.6068 81.0779 12.5239C81.0711 11.9706 80.5834 11.104 79.2308 11.3202C77.5586 11.5875 76.1668 12.9479 75.2611 15.3161C75.0487 15.8695 74.787 16.6067 74.4624 17.8648L72.8038 24.486H83.7578C82.3253 29.8082 79.902 39.2557 79.2223 41.8452H73.6892L77.4872 27.3344H72.0612L63.3997 61.5165C66.1033 61.8297 68.9208 61.9966 71.8301 62H72.1564C77.9817 61.9881 84.1606 61.3445 90.4719 59.9893C116.822 54.3487 136.981 38.3686 137 23.2687C137 22.1536 136.893 21.0435 136.669 19.9402C134.152 7.56612 117.779 0 97.4035 0H97.4002ZM48.7496 15.8201H55.2241C65.1517 15.8201 65.8518 21.0128 65.0106 24.7159C63.9689 29.2906 61.2959 32.5561 49.8967 32.5749C48.7717 36.8346 47.8014 40.5206 47.4496 41.8401H41.8859C42.9038 37.977 48.7496 15.8201 48.7496 15.8201ZM98.6951 35.7092C98.6951 29.4234 104.213 24.0672 110.106 24.0672C113.038 24.0672 115.57 25.465 115.57 27.8452C115.57 30.3105 113.656 32.8473 110.76 33.8109C108.957 34.4289 107.134 34.7933 104.08 34.7933C104.007 35.4522 104.038 35.7075 104.038 36.0651C104.038 37.7404 105.426 39.1705 107.36 39.1705C109.957 39.1705 112.405 36.7291 112.691 36.4345L113.656 39.0786C112.879 39.9043 112.015 40.6211 111.032 41.1438C109.481 41.9695 107.708 42.4156 105.763 42.4156C101.547 42.4139 98.6951 39.7136 98.6951 35.7092ZM129.567 24.1796C132.639 24.1796 133.1 26.0575 133.1 27.5098C133.1 29.2174 131.926 30.3888 130.58 30.3888C129.557 30.3888 129.108 29.9666 128.926 29.7827C128.459 29.3026 128.379 28.8105 128.327 28.4002C128.259 27.9167 128.106 27.4519 127.565 27.3634C126.79 27.2374 126.151 27.5574 125.492 28.1567C124.598 28.9723 123.835 30.2628 123.279 31.5005C122.895 32.3535 122.613 33.1622 122.454 33.7411L120.302 41.8401H114.728L119.3 24.4809H124.704L123.733 27.9592C125.008 26.3844 127.383 24.1796 129.567 24.1796ZM93.2504 27.3293H85.5234L86.2728 24.4826H100.124C98.5302 29.8797 91.0293 34.2655 88.9578 38.3499H97.6873L96.7714 41.8401H82.5938C82.5938 36.3545 91.5476 30.0176 93.2504 27.3293ZM53.6318 18.408C52.8365 21.4334 51.7082 25.7034 50.6274 29.8065C55.0423 29.798 57.8173 29.0097 59.1785 24.5269C60.2915 20.8613 59.8582 18.408 54.6038 18.408H53.6318ZM107.338 27.7754C105.955 28.865 104.893 30.5761 104.475 32.4948C106.995 32.4063 108.417 32.0215 109.726 30.9676C110.9 30.0227 111.428 28.9569 111.428 28.058C111.428 27.5694 111.133 26.7964 109.778 26.7964C109.163 26.7964 108.16 27.1267 107.338 27.7754Z" fill="#0094D1"/>
</svg>
