<svg width="170" height="62" viewBox="0 0 170 62" fill="none" xmlns="http://www.w3.org/2000/svg">
<path d="M85 62C102.121 62 116 48.1208 116 31C116 13.8792 102.121 0 85 0C67.8792 0 54 13.8792 54 31C54 48.1208 67.8792 62 85 62Z" fill="url(#paint0_radial_1481_5087)"/>
<path d="M62.2322 30.9915C62.2322 16.7918 71.1964 4.68455 83.7772 0.0259399C67.2267 0.671773 54 14.2859 54 31.0001C54 47.7315 67.2525 61.3629 83.8289 61.9743C71.2308 57.3243 62.2322 45.2084 62.2322 30.9915Z" fill="url(#paint1_radial_1481_5087)"/>
<mask id="mask0_1481_5087" style="mask-type:luminance" maskUnits="userSpaceOnUse" x="54" y="0" width="30" height="62">
<path d="M62.2322 30.9915C62.2322 16.7918 71.1964 4.68455 83.7772 0.0259399C67.2267 0.671773 54 14.2859 54 31.0001C54 47.7315 67.2525 61.3629 83.8289 61.9743C71.2308 57.3243 62.2322 45.2084 62.2322 30.9915Z" fill="url(#paint2_radial_1481_5087)"/>
</mask>
<g mask="url(#mask0_1481_5087)">
<path d="M62.2322 30.9915C62.2322 16.7918 71.1964 4.68455 83.7772 0.0259399C67.2267 0.671773 54 14.2859 54 31.0001C54 47.7315 67.2525 61.3629 83.8289 61.9743C71.2308 57.3243 62.2322 45.2084 62.2322 30.9915Z" fill="url(#paint3_radial_1481_5087)"/>
</g>
<path d="M84.4744 28.0462C86.5324 22.9743 82.6833 21.5965 80.1774 21.5965H71.8763C72.5652 22.0701 72.4533 22.6987 72.3155 23.0862L67.4761 38.5432C67.2866 39.1546 66.5633 39.8004 66.1758 39.8951H72.8924C72.5222 39.8262 71.9969 39.3009 72.1863 38.5862L73.943 32.9976C73.9516 32.9976 82.0288 34.0912 84.4744 28.0462ZM77.9472 23.0173C78.8255 23.0173 81.2624 23.1379 79.6866 27.7448C78.0419 32.5843 74.3908 31.5854 74.3908 31.5854L77.0774 23.0173H77.9472Z" fill="white"/>
<path d="M89.8475 39.9039H94.3684C92.9217 39.4389 90.7862 38.0697 89.9337 37.0966C90.6225 36.3475 91.475 35.4003 91.63 33.48H89.2878C89.2878 33.48 89.7356 33.7383 89.7356 34.2894C89.7356 34.7975 89.5289 35.5036 89.1328 35.9944C88.4439 34.9783 87.712 33.8158 87.4537 32.1108C88.375 31.6544 89.6667 31.155 90.6914 30.2594C91.6645 29.4069 91.8884 28.5975 91.9056 28.0722V28.0033C91.9056 27.4522 91.6903 26.9355 91.2942 26.548C90.6139 25.8764 89.5462 25.6008 88.4181 25.8075C87.5139 25.9797 86.7475 26.4619 86.36 26.815C84.9995 28.098 84.8273 30.2078 84.8273 31.1636C84.8273 31.3961 84.8359 31.5683 84.8445 31.6716C84.767 31.7061 84.6292 31.7578 84.6292 31.7578C83.6303 32.128 80.9695 32.8341 80.0223 35.0214C79.9017 35.2969 79.7295 35.8997 79.7295 36.5972C79.7295 37.2 79.8587 37.8716 80.2462 38.483C80.9178 39.5336 82.0545 40.1966 83.88 40.1622C85.8606 40.1278 87.8153 38.7758 88.1598 38.5261C88.4956 38.8447 89.3825 39.68 89.8475 39.9039ZM89.8475 27.6761C89.615 29.1486 87.7034 30.6383 87.2384 30.8364C87.1523 30.0097 87.1953 28.7008 87.8842 27.633C88.3406 26.9269 88.952 26.6169 89.4428 26.7891C89.8389 26.9269 89.882 27.2886 89.8475 27.6761ZM87.1953 37.5272C86.9284 37.6908 85.8778 38.2247 84.8962 38.3194C83.9834 38.4055 82.4678 38.0525 82.4764 36.2269C82.4764 34.6683 84.1728 33.523 85.0942 33.1269C85.4645 34.6339 86.2998 36.3389 87.1953 37.5272Z" fill="white"/>
<path d="M103.582 23.0346C106.269 22.3887 108.482 24.4899 108.68 24.6362L109.446 22.1993C108.387 21.8807 100.68 19.2715 95.2292 25.4887C91.8795 29.3121 91.0614 37.1482 95.3067 39.2493C99.8534 41.4968 104.874 38.9049 105.244 38.724L107.319 32.1107C107.543 31.3098 108.051 30.7932 108.947 30.4574H101.731C102.781 30.8965 102.704 31.6887 102.626 32.016L100.551 38.6293C100.275 38.681 94.4714 40.1276 97.7178 29.9751C98.4325 27.7965 100.387 23.801 103.582 23.0346Z" fill="white"/>
<defs>
<radialGradient id="paint0_radial_1481_5087" cx="0" cy="0" r="1" gradientUnits="userSpaceOnUse" gradientTransform="translate(67.1489 12.065) scale(57.8936)">
<stop stop-color="#00A1DF"/>
<stop offset="0.13" stop-color="#0092D7"/>
<stop offset="0.37" stop-color="#006CC1"/>
<stop offset="0.62" stop-color="#003DA6"/>
<stop offset="0.73" stop-color="#043799"/>
<stop offset="0.93" stop-color="#102777"/>
<stop offset="1" stop-color="#152169"/>
</radialGradient>
<radialGradient id="paint1_radial_1481_5087" cx="0" cy="0" r="1" gradientUnits="userSpaceOnUse" gradientTransform="translate(62.9343 4.78013) scale(95.9915 95.9915)">
<stop offset="0.02" stop-color="white"/>
<stop offset="0.03" stop-color="#FBFEFF"/>
<stop offset="0.09" stop-color="#BAE7F9"/>
<stop offset="0.14" stop-color="#87D5F4"/>
<stop offset="0.19" stop-color="#63C9F1"/>
<stop offset="0.23" stop-color="#4CC1EF"/>
<stop offset="0.26" stop-color="#44BEEE"/>
<stop offset="0.28" stop-color="#37B8EB"/>
<stop offset="0.35" stop-color="#19ACE5"/>
<stop offset="0.41" stop-color="#07A4E0"/>
<stop offset="0.45" stop-color="#00A1DF"/>
<stop offset="0.79" stop-color="#0045AB"/>
<stop offset="0.82" stop-color="#003DA6"/>
<stop offset="0.96" stop-color="#0059B6"/>
</radialGradient>
<radialGradient id="paint2_radial_1481_5087" cx="0" cy="0" r="1" gradientUnits="userSpaceOnUse" gradientTransform="translate(80.0046 30.0554) rotate(-88.2324) scale(33.3881 33.9762)">
<stop offset="0.1" stop-color="white"/>
<stop offset="0.35" stop-color="#FDFDFD"/>
<stop offset="0.45" stop-color="#F6F6F6"/>
<stop offset="0.51" stop-color="#EAEAEA"/>
<stop offset="0.57" stop-color="#D9D9D9"/>
<stop offset="0.62" stop-color="#C3C3C3"/>
<stop offset="0.66" stop-color="#A7A7A7"/>
<stop offset="0.7" stop-color="#868686"/>
<stop offset="0.73" stop-color="#606060"/>
<stop offset="0.77" stop-color="#353535"/>
<stop offset="0.8"/>
</radialGradient>
<radialGradient id="paint3_radial_1481_5087" cx="0" cy="0" r="1" gradientUnits="userSpaceOnUse" gradientTransform="translate(78.1162 24.9515) scale(39.0023 39.0023)">
<stop offset="0.32" stop-color="#44BEEE" stop-opacity="0"/>
<stop offset="0.48" stop-color="#2B99D9" stop-opacity="0.27"/>
<stop offset="0.67" stop-color="#1476C6" stop-opacity="0.58"/>
<stop offset="0.82" stop-color="#0561BA" stop-opacity="0.84"/>
<stop offset="0.92" stop-color="#0059B6"/>
</radialGradient>
</defs>
</svg>
