<svg width="170" height="62" viewBox="0 0 170 62" fill="none" xmlns="http://www.w3.org/2000/svg">
<path d="M77.6203 6.76393C80.4584 3.78761 84.4096 1.94161 88.7795 1.94161C94.5886 1.94161 99.6566 5.20182 102.356 10.0417C104.701 8.98699 107.297 8.40024 110.029 8.40024C120.506 8.40024 129 17.024 129 27.6614C129 38.3 120.506 46.9238 110.029 46.9238C108.774 46.9245 107.522 46.7989 106.292 46.549C103.915 50.816 99.3859 53.6991 94.1874 53.6991C92.0112 53.6991 89.9528 53.1932 88.1202 52.2935C85.7108 57.9977 80.0974 61.9972 73.555 61.9972C66.7419 61.9972 60.9354 57.6583 58.7066 51.5731C57.7326 51.7813 56.7235 51.8898 55.688 51.8898C47.5762 51.8899 41 45.2029 41 36.9526C41 31.4238 43.9547 26.5965 48.3446 24.0138C47.4408 21.9207 46.9381 19.6105 46.9381 17.1817C46.9381 7.6937 54.5911 0.00244141 64.0305 0.00244141C69.5724 0.00244141 74.4977 2.65453 77.6203 6.76393Z" fill="#00A1E0"/>
<path d="M53.7464 32.1515C53.6913 32.2966 53.7665 32.3269 53.7841 32.3521C53.9495 32.4732 54.1176 32.5604 54.2868 32.6575C55.1843 33.1369 56.0318 33.2768 56.9181 33.2768C58.7232 33.2768 59.8438 32.3105 59.8438 30.7547V30.7245C59.8438 29.2861 58.579 28.7638 57.3919 28.3865L57.2377 28.3361C56.3427 28.0433 55.5705 27.7911 55.5705 27.198V27.1666C55.5705 26.6593 56.0218 26.2858 56.7213 26.2858C57.4985 26.2858 58.4211 26.5458 59.0153 26.8763C59.0153 26.8763 59.1895 26.9899 59.2534 26.8196C59.2885 26.7287 59.5894 25.9136 59.6208 25.8253C59.6546 25.7294 59.5944 25.6587 59.533 25.6209C58.8548 25.2058 57.9171 24.9219 56.9469 24.9219L56.7665 24.9231C55.1143 24.9231 53.961 25.9275 53.961 27.367V27.3974C53.961 28.9151 55.2334 29.4072 56.4256 29.7504L56.6173 29.8097C57.486 30.0784 58.2344 30.3093 58.2344 30.9251V30.9554C58.2344 31.5181 57.7481 31.9369 56.9633 31.9369C56.6587 31.9369 55.6872 31.9306 54.638 31.2631C54.5113 31.1886 54.4374 31.1345 54.3396 31.0752C54.2883 31.0423 54.1591 30.9855 54.1028 31.1572L53.7464 32.1515ZM80.1727 32.1515C80.1175 32.2966 80.1928 32.3269 80.2103 32.3521C80.3757 32.4732 80.5438 32.5604 80.7129 32.6575C81.6105 33.1369 82.458 33.2768 83.3442 33.2768C85.1493 33.2768 86.2701 32.3105 86.2701 30.7547V30.7245C86.2701 29.2861 85.0052 28.7638 83.818 28.3865L83.6639 28.3361C82.7688 28.0433 81.9966 27.7911 81.9966 27.198V27.1666C81.9966 26.6593 82.4478 26.2858 83.1473 26.2858C83.9245 26.2858 84.8472 26.5458 85.4414 26.8763C85.4414 26.8763 85.6157 26.9899 85.6795 26.8196C85.7146 26.7287 86.0155 25.9136 86.0468 25.8253C86.0808 25.7294 86.0205 25.6587 85.9591 25.6209C85.2809 25.2058 84.3432 24.9219 83.373 24.9219L83.1924 24.9231C81.5403 24.9231 80.387 25.9275 80.387 27.367V27.3974C80.387 28.9151 81.6594 29.4072 82.8515 29.7504L83.0433 29.8097C83.912 30.0784 84.6617 30.3093 84.6617 30.9251V30.9554C84.6617 31.5181 84.1741 31.9369 83.3893 31.9369C83.0848 31.9369 82.1133 31.9306 81.0641 31.2631C80.9374 31.1886 80.8622 31.1369 80.767 31.0752C80.7343 31.0537 80.5814 30.9944 80.5287 31.1572L80.1727 32.1515ZM98.2132 29.1042C98.2132 29.9837 98.0503 30.6763 97.7294 31.1659C97.4121 31.6504 96.9321 31.8863 96.2628 31.8863C95.5922 31.8863 95.1145 31.6516 94.8024 31.1659C94.4864 30.6776 94.3261 29.9837 94.3261 29.1042C94.3261 28.2261 94.4864 27.5347 94.8024 27.0502C95.1145 26.5708 95.5922 26.3373 96.2628 26.3373C96.9322 26.3373 97.4122 26.5708 97.7307 27.0502C98.0503 27.5346 98.2132 28.2261 98.2132 29.1042ZM99.7201 27.4741C99.5721 26.9706 99.3415 26.5265 99.0344 26.1569C98.7272 25.786 98.3387 25.4882 97.8773 25.2712C97.4172 25.0555 96.8732 24.9457 96.2628 24.9457C95.651 24.9457 95.107 25.0555 94.6469 25.2712C94.1856 25.4882 93.797 25.786 93.4886 26.1569C93.1828 26.5279 92.9521 26.972 92.8029 27.4741C92.6563 27.975 92.5823 28.5225 92.5823 29.1042C92.5823 29.6859 92.6563 30.2347 92.8029 30.7343C92.9521 31.2365 93.1815 31.6807 93.4899 32.0516C93.797 32.4225 94.1869 32.719 94.647 32.9297C95.1082 33.1404 95.651 33.2476 96.2629 33.2476C96.8733 33.2476 97.4161 33.1404 97.8773 32.9297C98.3374 32.719 98.7272 32.4224 99.0345 32.0516C99.3415 31.6819 99.5722 31.2378 99.7201 30.7343C99.8681 30.2335 99.942 29.6846 99.942 29.1042C99.942 28.5239 99.868 27.975 99.7201 27.4741ZM112.094 31.6514C112.043 31.5038 111.902 31.5593 111.902 31.5593C111.682 31.6439 111.449 31.7221 111.201 31.7612C110.949 31.8002 110.672 31.8205 110.375 31.8205C109.645 31.8205 109.066 31.6022 108.651 31.1707C108.235 30.7392 108.002 30.0416 108.004 29.0978C108.007 28.2386 108.212 27.5925 108.582 27.1005C108.95 26.611 109.509 26.3599 110.255 26.3599C110.876 26.3599 111.35 26.4318 111.847 26.5895C111.847 26.5895 111.966 26.6412 112.022 26.4848C112.154 26.1163 112.251 25.8526 112.392 25.4476C112.432 25.3328 112.334 25.2836 112.299 25.2697C112.103 25.1927 111.642 25.0679 111.294 25.0149C110.968 24.9644 110.587 24.9379 110.163 24.9379C109.53 24.9379 108.966 25.0464 108.483 25.2635C108.002 25.4792 107.593 25.7769 107.27 26.148C106.946 26.5189 106.701 26.9629 106.536 27.4651C106.374 27.9659 106.291 28.5161 106.291 29.0978C106.291 30.3557 106.628 31.3725 107.294 32.117C107.961 32.864 108.962 33.2437 110.268 33.2437C111.041 33.2437 111.833 33.0861 112.402 32.8601C112.402 32.8601 112.511 32.8071 112.463 32.6798L112.094 31.6514ZM114.73 28.2618C114.801 27.7735 114.936 27.3672 115.142 27.0506C115.455 26.5699 115.931 26.3062 116.6 26.3062C117.27 26.3062 117.712 26.5711 118.029 27.0506C118.24 27.3672 118.331 27.7913 118.368 28.2618H114.73ZM119.803 27.188C119.675 26.7023 119.358 26.2114 119.15 25.9869C118.822 25.6311 118.501 25.3826 118.182 25.2437C117.766 25.0645 117.267 24.946 116.721 24.946C116.084 24.946 115.506 25.0533 115.037 25.2753C114.567 25.4974 114.172 25.8002 113.863 26.1775C113.553 26.5534 113.32 27.0013 113.172 27.5098C113.023 28.0158 112.947 28.5671 112.947 29.1487C112.947 29.7405 113.025 30.2918 113.179 30.7876C113.335 31.2873 113.583 31.7276 113.919 32.0922C114.254 32.4594 114.685 32.7471 115.201 32.9476C115.714 33.147 116.337 33.2504 117.053 33.2491C118.526 33.244 119.302 32.9135 119.621 32.7356C119.678 32.7041 119.732 32.6486 119.664 32.4896L119.33 31.5496C119.28 31.4096 119.139 31.4613 119.139 31.4613C118.774 31.5975 118.255 31.8423 117.045 31.8398C116.254 31.8386 115.668 31.6039 115.3 31.2367C114.923 30.8608 114.739 30.3081 114.706 29.5284L119.807 29.5334C119.807 29.5334 119.941 29.531 119.955 29.3997C119.96 29.3443 120.13 28.345 119.803 27.188ZM73.8804 28.2618C73.9531 27.7735 74.086 27.3672 74.2928 27.0506C74.6049 26.5699 75.0813 26.3062 75.7507 26.3062C76.42 26.3062 76.8626 26.5711 77.181 27.0506C77.3903 27.3672 77.4818 27.7913 77.5182 28.2618H73.8804ZM78.9522 27.188C78.8244 26.7023 78.5085 26.2114 78.3005 25.9869C77.972 25.6311 77.6511 25.3826 77.3327 25.2437C76.9165 25.0645 76.4177 24.946 75.8711 24.946C75.2355 24.946 74.6563 25.0533 74.1875 25.2753C73.7175 25.4974 73.3226 25.8002 73.013 26.1775C72.7034 26.5534 72.4702 27.0013 72.3223 27.5098C72.1744 28.0158 72.0979 28.5671 72.0979 29.1487C72.0979 29.7405 72.1756 30.2918 72.3299 30.7876C72.4853 31.2873 72.7336 31.7276 73.0694 32.0922C73.4042 32.4594 73.8354 32.7471 74.3518 32.9476C74.8646 33.147 75.4875 33.2504 76.2034 33.2491C77.6763 33.244 78.4522 32.9135 78.7719 32.7356C78.8284 32.7041 78.8822 32.6486 78.8145 32.4896L78.4824 31.5496C78.4309 31.4096 78.2894 31.4613 78.2894 31.4613C77.9246 31.5975 77.4068 31.8423 76.1946 31.8398C75.4049 31.8386 74.8183 31.6039 74.4509 31.2367C74.0736 30.8608 73.8894 30.3081 73.8567 29.5284L78.9574 29.5334C78.9574 29.5334 79.0915 29.531 79.1053 29.3997C79.1102 29.3443 79.2806 28.345 78.9522 27.188ZM62.8552 31.6233C62.6558 31.463 62.6283 31.4227 62.5606 31.3192C62.4603 31.1615 62.4089 30.9369 62.4089 30.6518C62.4089 30.2001 62.5568 29.8758 62.864 29.6576C62.8603 29.6589 63.3028 29.2728 64.3432 29.2866C65.074 29.2967 65.727 29.4052 65.727 29.4052V31.7394H65.7283C65.7283 31.7394 65.0802 31.8794 64.3507 31.9235C63.3127 31.9867 62.8514 31.6221 62.8552 31.6233ZM64.8847 28.0161C64.6778 28.001 64.4095 27.9921 64.0886 27.9921C63.6512 27.9921 63.2287 28.0476 62.8326 28.1549C62.434 28.2621 62.0754 28.43 61.767 28.6519C61.4591 28.8731 61.206 29.1628 61.0275 29.4985C60.847 29.8367 60.7554 30.2354 60.7554 30.682C60.7554 31.1362 60.8331 31.5311 60.9886 31.8542C61.1441 32.1784 61.3684 32.4484 61.6542 32.6567C61.9375 32.8648 62.2873 33.0174 62.6934 33.1095C63.0933 33.2017 63.547 33.2483 64.0435 33.2483C64.5662 33.2483 65.0877 33.2055 65.5929 33.1183C66.093 33.0325 66.7073 32.9076 66.8777 32.8686C66.9973 32.8396 67.1164 32.8089 67.235 32.7765C67.3617 32.745 67.3516 32.6086 67.3516 32.6086L67.3491 27.9139C67.3491 26.8843 67.0758 26.1209 66.5381 25.6478C66.0028 25.176 65.2143 24.9374 64.1952 24.9374C63.8128 24.9374 63.1973 24.9905 62.8288 25.0649C62.8288 25.0649 61.7144 25.2819 61.2555 25.6428C61.2555 25.6428 61.1553 25.7059 61.2104 25.8472L61.5715 26.8238C61.6166 26.95 61.7382 26.9071 61.7382 26.9071C61.7382 26.9071 61.7771 26.8919 61.8223 26.8654C62.8038 26.3279 64.0448 26.3443 64.0448 26.3443C64.5964 26.3443 65.0201 26.4553 65.3059 26.6761C65.5842 26.8906 65.7258 27.2148 65.7258 27.8986V28.1157C65.287 28.0526 64.8847 28.0161 64.8847 28.0161ZM106.024 25.3709C106.063 25.2547 105.982 25.1992 105.948 25.1866C105.861 25.1526 105.428 25.0605 105.093 25.039C104.452 24.9999 104.096 25.1084 103.778 25.2522C103.462 25.396 103.111 25.6281 102.915 25.8919V25.2674C102.915 25.1803 102.854 25.1109 102.769 25.1109H101.461C101.376 25.1109 101.315 25.1802 101.315 25.2674V32.9246C101.315 33.0104 101.385 33.0811 101.47 33.0811H102.81C102.851 33.0809 102.891 33.0642 102.919 33.0349C102.948 33.0056 102.964 32.9659 102.964 32.9246V29.0992C102.964 28.5857 103.021 28.0735 103.134 27.7517C103.244 27.4337 103.394 27.1789 103.58 26.9959C103.767 26.8142 103.979 26.6868 104.21 26.6149C104.447 26.5417 104.709 26.5178 104.895 26.5178C105.162 26.5178 105.455 26.5871 105.455 26.5871C105.553 26.5984 105.608 26.5379 105.641 26.4483C105.728 26.2137 105.977 25.5108 106.024 25.3709Z" fill="white"/>
<path d="M93.445 21.8221C93.282 21.7716 93.1341 21.7375 92.941 21.701C92.7454 21.6657 92.5123 21.6479 92.2479 21.6479C91.3251 21.6479 90.5981 21.9104 90.0879 22.4276C89.5802 22.9425 89.2354 23.726 89.0624 24.7568L88.9997 25.1037H87.8415C87.8415 25.1037 87.7011 25.0987 87.671 25.2527L87.4818 26.3213C87.4679 26.4223 87.5119 26.4866 87.6472 26.4866H88.7742L87.6309 32.9111C87.5419 33.4285 87.4391 33.8537 87.325 34.1766C87.2134 34.4946 87.1044 34.733 86.969 34.9072C86.8386 35.0737 86.7158 35.1973 86.5026 35.2692C86.3271 35.3286 86.1241 35.3563 85.9022 35.3563C85.7793 35.3563 85.6152 35.336 85.4935 35.3108C85.3732 35.2868 85.3093 35.2604 85.2177 35.2212C85.2177 35.2212 85.0861 35.1708 85.0335 35.3033C84.9921 35.413 84.6912 36.2444 84.6549 36.3467C84.6198 36.4489 84.6699 36.5284 84.7338 36.5523C84.8842 36.6053 84.9958 36.6406 85.2001 36.6898C85.4835 36.7568 85.7228 36.7605 85.9472 36.7605C86.416 36.7605 86.8447 36.6937 87.1995 36.565C87.5556 36.435 87.8664 36.2091 88.1422 35.9039C88.4393 35.5733 88.626 35.2276 88.8042 34.7545C88.9809 34.2876 89.1326 33.7072 89.2529 33.031L90.4024 26.4866H92.0822C92.0822 26.4866 92.2237 26.4916 92.2527 26.3365L92.4432 25.2691C92.4558 25.167 92.4131 25.1038 92.2764 25.1038H90.6455C90.6544 25.0673 90.7283 24.4893 90.9151 23.9457C90.9953 23.7148 91.1457 23.5267 91.2724 23.398C91.3978 23.2718 91.5419 23.1823 91.7 23.1305C91.8616 23.0775 92.046 23.0523 92.2478 23.0523C92.4007 23.0523 92.5523 23.07 92.6664 23.0939C92.8243 23.128 92.8857 23.1457 92.9272 23.1584C93.094 23.2088 93.1164 23.1596 93.1491 23.0789L93.539 22.0014C93.5791 21.8851 93.48 21.8359 93.445 21.8221ZM70.6584 32.9251C70.6584 33.0109 70.597 33.0803 70.5117 33.0803H69.1591C69.0738 33.0803 69.0137 33.0109 69.0137 32.9251V21.9685C69.0137 21.8827 69.0738 21.8133 69.1591 21.8133H70.5117C70.597 21.8133 70.6584 21.8827 70.6584 21.9685V32.9251Z" fill="white"/>
</svg>
