<svg width="170" height="62" viewBox="0 0 170 62" fill="none" xmlns="http://www.w3.org/2000/svg">
<path fill-rule="evenodd" clip-rule="evenodd" d="M25.3618 42.8398H32.6312V18.4658H25.3618V42.8398ZM38.4269 42.8398H57.2425V37.9941H45.6963V33.0056H55.8172V28.301H45.6963V23.3124H57.2425V18.4658H38.4269V42.8398ZM77.1299 32.9341L70.7151 18.4658H61.2362V42.8398H67.0804V28.301L73.4951 42.8398H78.2703L85.1834 27.9446V42.8398H92.4528V18.4658H83.8286L77.1299 32.9341ZM138.631 33.4324L129.507 18.4658H121.524V42.8398H126.656V27.8026L135.85 42.8398H143.762V18.4658H138.631V33.4324ZM98.1655 42.8398H116.98V37.9941H105.435V33.0056H115.555V28.301H105.435V23.3124H116.98V18.4658H98.1655V42.8398ZM17.5253 29.6557C15.4587 28.7296 12.2518 27.09 10.0415 26.0924C7.96615 25.1549 7.90352 20.2483 19.8767 23.883V19.2508C17.3824 18.3952 10.5407 16.7556 5.40923 19.6071C0.277761 22.4577 1.48963 29.5137 5.40923 31.866C7.11943 32.7921 9.47172 33.6476 12.4652 34.9301C14.9454 35.9929 16.4563 41.4163 2.27284 37.7101V42.4853C5.19491 43.5543 15.8856 44.6947 19.0211 41.202C22.9372 36.8414 21.16 31.1525 17.5253 29.6557ZM163.323 29.6557C161.256 28.7296 158.05 27.09 155.84 26.0924C153.764 25.1549 153.702 20.2483 165.675 23.883V19.2508C163.18 18.3952 156.34 16.7556 151.208 19.6071C146.077 22.4577 147.288 29.5137 151.208 31.866C152.918 32.7921 155.27 33.6476 158.264 34.9301C160.743 35.9929 162.255 41.4163 148.071 37.7101V42.4853C150.994 43.5543 161.685 44.6947 164.82 41.202C168.735 36.8414 166.958 31.1525 163.323 29.6557Z" fill="black"/>
</svg>
