<svg width="170" height="62" viewBox="0 0 170 62" fill="none" xmlns="http://www.w3.org/2000/svg">
<path d="M48.7914 25.9131H35.4428L34.9482 26.2821V38.1286H38.6434V33.6862L38.9962 33.3709H48.7919C51.2653 33.3709 52.4248 32.707 52.4248 31.0037V28.2836C52.4243 26.5774 51.2653 25.9131 48.7914 25.9131ZM48.7914 30.2928C48.7914 31.0953 48.2593 31.262 47.0997 31.262H39.0366L38.643 30.8802V28.3425L38.9957 28.0206H47.0997C48.2593 28.0206 48.7914 28.1853 48.7914 28.9917V30.2928ZM59.1632 28.154L62.3429 32.8015L62.1668 33.2517H55.1347L53.3397 35.4546H63.8071L64.5325 35.8953L66.1576 38.1314H70.3865L61.1172 25.7616M101.212 35.7253V32.4373L101.593 32.1096H108.667V30.016H97.4546V38.131H113.994V36.0472H101.609M97.4546 25.9131H114.169V28.2153H97.4546V25.9131ZM78.8127 28.0932H92.278C92.0705 26.3851 91.0081 25.9112 88.3129 25.9112H78.6695C75.6283 25.9112 74.6582 26.5034 74.6582 28.7993V35.2409C74.6582 37.5393 75.6283 38.1314 78.6695 38.1314H88.3129C91.0476 38.1314 92.0948 37.6191 92.1662 35.8473H78.8127L78.4167 35.4755V28.342M25.9626 30.6732H16.1669L15.8784 30.3564V28.2661L16.1654 28.0448H29.3708L29.5512 27.6046C29.1014 26.4502 27.9366 25.9117 25.7736 25.9117H16.6005C13.5612 25.9117 12.5897 26.5038 12.5897 28.7998V30.1503C12.5897 32.4492 13.5612 33.0404 16.6005 33.0404H26.3744L26.6814 33.3092V35.4945L26.431 35.8355H15.251V35.825H12.3226C12.3226 35.825 11.9875 35.9926 12.0004 36.071C12.2503 37.677 13.347 38.1319 15.9726 38.1319H25.9626C29.0014 38.1319 30.002 37.5398 30.002 35.2414V33.5589C30.002 31.2644 29.0014 30.6732 25.9626 30.6732ZM124.683 25.8628H119.184L118.886 26.4293L124.992 30.8698C126.23 30.1548 127.492 29.4832 128.776 28.8563M129.609 34.2276L134.976 38.1319H140.542L140.772 37.6148L132.758 31.763C131.683 32.551 130.633 33.3729 129.609 34.2276Z" fill="#005288"/>
<path d="M123.864 38.1231H118.889L118.469 37.4663C121.851 34.2082 136.98 20.2419 169.864 18.7456C169.864 18.7456 142.262 19.6744 123.864 38.1231Z" fill="#A7A9AC"/>
</svg>
