<svg width="170" height="62" viewBox="0 0 170 62" fill="none" xmlns="http://www.w3.org/2000/svg">
<g clip-path="url(#clip0_1481_5092)">
<path d="M54.7812 30.7631C54.7812 14.2659 68.2409 0.890991 84.8463 0.890991C101.45 0.890991 114.91 14.2659 114.91 30.7631C114.91 47.2618 101.45 60.6353 84.8463 60.6353C68.2409 60.6353 54.7812 47.2613 54.7812 30.7631Z" fill="#397657"/>
<path d="M55.6675 30.7632C55.6675 14.7526 68.7305 1.77271 84.8457 1.77271C100.96 1.77271 114.024 14.7526 114.024 30.7632C114.024 46.7744 100.96 59.7547 84.8457 59.7547C68.7305 59.7542 55.6675 46.7744 55.6675 30.7632Z" fill="white"/>
<path d="M56.6182 30.7632C56.6182 15.2741 69.2561 2.71753 84.8465 2.71753C100.436 2.71753 113.074 15.2741 113.074 30.7632C113.074 46.2534 100.435 58.8099 84.8465 58.8099C69.2556 58.8099 56.6182 46.2534 56.6182 30.7632Z" fill="#397657"/>
<path d="M67.3975 30.6451C67.3975 21.1054 75.1801 13.3726 84.7802 13.3726C94.3804 13.3726 102.163 21.1054 102.163 30.6451C102.163 40.1833 94.3804 47.9157 84.7802 47.9157C75.1801 47.9157 67.3975 40.1833 67.3975 30.6451ZM87.5289 5.1872C88.005 5.61148 88.14 6.16985 88.1154 6.78903C87.9809 7.22672 87.7371 7.651 87.3452 7.95509C87.8224 8.30658 88.299 8.67148 88.3718 9.30216C88.5067 9.92134 88.3226 10.4792 87.9684 10.9409C87.2238 11.7779 86.0386 11.56 84.9629 11.5955L82.1227 11.6697L82.1035 11.413L81.8114 5.00475L81.7993 4.86491C83.6684 4.85294 85.8671 4.37263 87.5289 5.1872ZM92.8198 6.09083C92.3181 7.52937 91.6592 8.95019 91.3036 10.4673C91.2835 10.6633 91.3356 10.8599 91.4503 11.0207C91.5649 11.1815 91.7344 11.2955 91.9272 11.3417C92.2275 11.5059 92.6545 11.5366 92.88 11.3417C93.8459 9.99461 94.3042 8.31903 94.9096 6.80723C95.6788 7.07492 96.2783 7.45706 97.0239 7.73624C96.2287 9.41182 95.74 11.3848 94.6401 12.762C93.8464 13.454 92.588 13.2835 91.6356 13.0527C90.5478 12.6648 89.3627 11.9733 89.033 10.7589C88.7771 9.92757 89.9377 7.07444 90.5724 5.36965L92.8198 6.09083Z" fill="white"/>
<path d="M75.2132 14.0739L73.6001 15.1289C72.9981 14.8138 72.6467 14.6011 72.2072 14.401L70.4215 15.8946C70.6052 16.3323 70.8394 16.8657 71.0346 17.3513L69.4398 19.1227L69.3116 18.8435L66.4888 12.1795L69.0668 9.97571L69.2745 10.1036C71.2973 11.3304 73.376 12.7771 75.4248 13.9355L75.2132 14.0739ZM75.6161 13.8297C74.7693 11.7777 73.7321 9.38095 72.9648 7.45635C74.9081 6.67914 77.7184 4.76748 79.4525 6.54649C79.892 7.03207 79.9532 7.71159 79.9653 8.33078C79.8564 8.73064 79.7571 9.13241 79.4891 9.45996C80.0689 10.1692 81.1456 10.9742 81.8902 11.6781L81.7987 11.7088L79.5995 12.191C78.8173 11.566 78.3743 11.125 77.6938 10.6615C77.4003 10.6969 77.1984 10.8679 76.9227 10.989L77.6803 12.7134L75.6161 13.8297Z" fill="white"/>
<path d="M85.6231 6.31566C85.7937 6.49667 85.7581 6.87403 85.6588 7.08042C85.3421 7.44532 84.7556 7.43191 84.2669 7.3711C84.3026 6.95879 84.1493 6.55797 84.1801 6.13369C84.5956 6.19402 85.3176 5.98715 85.6231 6.31566ZM77.5595 7.99028C77.6805 8.29389 77.6877 8.78808 77.4274 8.96814L76.2182 9.47766C75.9165 8.92648 75.7883 8.54865 75.5806 8.10042C76.142 7.89403 77.1064 7.05648 77.5595 7.99028ZM86.026 9.08307C86.1229 9.50879 85.9287 9.94552 85.5128 10.0308C85.1219 10.0906 84.8293 10.0547 84.4134 10.0667C84.3522 9.62899 84.3165 9.04668 84.3522 8.68225C84.9137 8.75504 85.7581 8.45191 86.026 9.08307Z" fill="#397657"/>
<path d="M102.519 11.4511C102.935 11.9607 103.217 12.5918 103.4 13.235C102.886 13.5089 102.495 13.8187 102.006 14.0366C101.885 13.2838 101.469 12.519 100.724 12.1431C100.37 11.9362 99.8437 11.8999 99.4412 12.0335C98.8176 12.2638 98.2807 12.7982 98.0484 13.4174C97.8406 14.0122 98.0725 14.5945 98.4156 15.0556C98.8913 15.5901 99.528 15.8702 100.247 15.8941C99.9237 16.4219 99.7473 16.7552 99.4412 17.1689C98.2431 16.9984 97.1196 16.3428 96.4357 15.2381C95.8492 14.3038 95.813 12.8715 96.3263 11.8879C96.8632 10.8071 97.9269 10.1151 99.074 9.95706C100.455 9.9087 101.701 10.4551 102.519 11.4511Z" fill="white"/>
<path d="M70.7782 13.4904C70.4329 13.8067 70.0657 14.0986 69.6794 14.3639C69.3859 13.6719 69.1044 13.0527 68.7993 12.288C69.501 12.6591 70.1175 13.0891 70.7782 13.4904Z" fill="#397657"/>
<path d="M106.186 15.7483C105.625 16.3067 104.88 16.7808 104.28 17.3147C105.234 17.5206 106.308 17.4842 107.286 17.6423C107.726 18.2744 107.958 18.8811 108.386 19.6454L104.793 19.3911C103.999 20.629 103.279 21.8913 102.594 23.178C102.167 22.5589 101.838 21.7587 101.421 21.0667C101.886 20.1314 102.49 19.1421 102.956 18.2068C102.156 18.6991 101.453 19.336 100.639 19.8456L99.3695 18.1518C101.08 16.695 102.924 15.3963 104.721 14.0742L104.866 14.022L106.186 15.7483ZM65.8546 15.2996C65.5303 15.9672 65.1028 16.4221 64.8044 17.0595L68.9825 19.7905C68.7623 20.4092 68.2861 21.0174 67.8822 21.6112L63.5942 18.9525C63.2096 19.4562 62.934 19.9725 62.5489 20.6161C61.9869 20.2464 61.5898 20.0031 61.1382 19.6823C62.2019 17.9205 63.2096 16.2703 64.3822 14.4424L65.8546 15.2996Z" fill="white"/>
<path d="M77.6093 31.536C77.6168 31.8238 77.5873 32.1114 77.5216 32.3917C76.8743 33.6909 75.8241 34.8311 75.6535 36.3257C74.9084 36.7979 74.2963 37.6239 73.2341 37.3452C73.197 37.6239 73.2828 38.0477 73.3801 38.3638C72.5377 38.3283 71.9627 38.9466 71.2537 39.2382C70.8754 39.1175 70.7775 38.631 70.6315 38.2915C71.4614 38.0128 72.06 37.1867 73.0134 37.2001C73.1237 36.8951 72.9517 36.6164 72.903 36.3257C71.7174 35.8028 69.8363 38.9107 69.6782 36.216C70.8629 36.1432 71.6205 35.0505 72.7941 34.9413L72.8297 34.0669C71.4981 33.9332 70.6426 35.2932 69.3114 35.1592L69.0174 33.9945C70.5568 34.0908 71.474 32.7198 72.9401 32.646C73.1348 32.3917 73.1594 32.0149 73.197 31.6629C71.5964 31.456 70.497 33.2173 68.7986 32.6824C68.7986 32.6824 68.7408 31.9493 68.709 31.5355H77.6093" fill="black"/>
<path d="M79.4871 31.5361C79.5411 32.1826 79.3821 32.8277 78.769 33.4851C77.8889 34.5157 76.9978 35.8149 77.633 37.2002C78.3054 38.7283 80.4187 39.9183 79.5021 41.8243C79.0018 43.0262 77.8036 43.937 77.8528 45.3569C77.5357 45.2233 77.2065 45.0892 76.9371 44.8474C76.9371 43.0387 79.5262 41.9095 78.2923 40.0036C78.1834 40.3795 78.1588 40.8895 78.0731 41.3147C77.6446 42.4195 76.7289 43.3049 76.3862 44.448C75.8132 44.2282 75.2136 43.767 74.7369 43.2815L75.3977 42.8802C75.3244 42.6369 75.1283 42.431 74.9572 42.2246C74.5287 42.1647 74.2482 42.4434 73.8945 42.5531C73.5889 42.2854 73.2949 42.0426 73.0515 41.7151C73.2708 41.0949 74.9818 41.6064 74.1138 40.5864C73.5277 40.2224 72.9416 40.7444 72.4284 40.9877L71.7319 40.1132C72.3305 39.7493 72.9286 39.2388 73.6733 39.3849C73.8569 39.7134 73.8699 40.1975 74.2237 40.369C75.482 40.3445 76.3742 39.3973 77.339 38.6565C76.6662 37.6624 76.1178 36.2894 76.7154 35.0875C77.194 33.8826 78.4422 32.8688 78.4986 31.5371H79.4871" fill="black"/>
<path d="M81.2773 31.5361C81.3399 32.0916 81.2479 32.6615 80.8575 33.2653C80.0642 34.3351 79.0256 35.4624 79.5013 36.8708C79.9533 38.2916 81.7375 39.1531 81.6277 40.8047C81.6156 42.7585 79.3302 43.9734 79.9779 46.1585L78.8419 45.7936C78.3903 43.8518 80.4671 42.8567 80.4912 41.06C80.7847 38.9951 78.132 38.2298 78.2911 36.2162C78.28 34.6862 79.6357 33.715 80.2343 32.4283C80.3304 32.141 80.3722 31.8385 80.3577 31.5361H81.2773Z" fill="black"/>
<path d="M87.5583 31.536C87.4822 32.0431 87.5749 32.561 87.8224 33.0109C88.6162 34.2603 90.0096 35.5849 89.1406 37.2001C88.2253 38.5338 86.698 39.8339 87.3082 41.5689C87.9805 43.0869 89.3854 44.5312 88.6273 46.4136L87.4918 46.6679C88.3955 44.8338 87.0402 43.0146 86.2464 41.4238C85.2806 39.1415 88.3227 38.0472 88.3714 35.9608C88.3598 34.6142 86.9178 33.849 86.6132 32.6106C85.9895 32.0877 85.3418 32.8175 84.5962 32.6824C84.0463 32.7926 83.2033 31.9296 82.8742 32.8649C82.4828 34.2359 80.6981 35.2444 81.4813 36.8707C82.2269 38.3159 84.0217 39.3718 83.4226 41.2423C82.8857 42.9892 81.114 44.6533 82.2134 46.6679C81.7613 46.5228 80.9179 46.8015 80.9304 46.0851C80.234 43.6448 83.2033 42.2245 82.2862 39.7851C81.8592 38.2915 79.9159 37.4654 80.3439 35.6687C80.66 34.1899 82.3281 33.1556 82.0939 31.5355H87.5583" fill="black"/>
<path d="M89.3246 31.5361C89.301 31.9513 89.3853 32.3641 89.6547 32.7558C90.4981 34.1158 91.9643 35.6094 91.1213 37.3817C90.1685 38.8016 88.5067 40.2464 89.4345 42.1164C90.1068 43.2331 91.1459 44.3489 90.8654 45.7218L89.7651 46.0857C90.4981 43.5247 86.9056 42.0182 88.4093 39.4572C89.3381 38.0852 90.9989 36.798 90.0591 34.9773C89.4971 33.8496 88.3361 33.1815 88.3722 31.7722L88.4118 31.5366L89.3246 31.5361Z" fill="black"/>
<path d="M91.1446 31.536C91.1387 31.8996 91.2318 32.2579 91.414 32.5732C92.2083 33.995 93.6383 35.3416 93.1009 37.1254C92.9529 37.6728 92.5148 38.098 92.4045 38.6554C93.3342 39.4207 94.2133 40.2817 95.4466 40.3305C95.8861 40.0518 95.6418 38.8134 96.5459 39.3838L97.8651 40.0403C97.7687 40.3918 97.4742 40.7084 97.2062 40.9502C96.7055 40.7079 96.2168 40.4162 95.5926 40.4397C95.4085 40.6341 95.2495 40.853 95.2634 41.1317C95.703 41.2035 96.1049 41.386 96.4722 41.6412C96.3016 42.0061 95.971 42.236 95.6654 42.5156L94.6393 42.1507C94.4687 42.394 94.113 42.6492 94.2374 42.916C94.4687 43.0141 94.7261 43.1468 94.8962 43.3173C94.4441 43.8028 93.8706 44.117 93.3197 44.4469C92.8445 42.9045 91.2791 41.8232 91.4136 40.0398L91.3413 39.9671C90.974 40.3784 91.0974 41.0349 91.1215 41.5684C91.5615 42.6851 92.6122 43.5486 92.7712 44.7735C92.5876 45.0886 92.1722 45.1494 91.8541 45.283C91.8912 43.074 88.5194 41.3998 90.682 39.1654C91.403 38.0712 92.6122 37.0282 92.1837 35.5226C91.7442 34.0683 90.1875 33.1656 90.201 31.5355H91.1446" fill="black"/>
<path d="M100.909 31.536C100.921 31.9464 100.959 32.2993 100.797 32.7203C99.1233 33.1934 98.024 31.433 96.3998 31.6988L96.5825 32.6106C98.0852 32.6594 99.026 34.0913 100.578 34.0295C100.358 34.4672 100.676 35.6203 99.6988 35.1592C98.6848 34.9169 97.9512 34.0295 96.8393 34.0295C96.7054 34.2737 96.7902 34.6142 96.7666 34.9039C97.9392 35.0864 98.7821 36.0705 99.9542 36.2524C99.8439 36.6528 99.734 37.1005 99.4043 37.3447C98.4505 37.1139 97.7059 36.2634 96.6909 36.2879L96.5092 37.1249C97.4741 37.1494 98.0977 37.9994 98.9648 38.2536C98.9884 38.6071 98.6717 38.9222 98.4886 39.2377C97.7194 39.0079 97.1324 38.3518 96.2528 38.4007C96.2403 38.0712 96.4359 37.6962 96.3617 37.3447C95.3737 37.6364 94.7125 36.7256 93.9809 36.1782C93.9596 34.3882 92.0631 33.2125 91.9629 31.5355H100.909" fill="black"/>
<path d="M68.7097 31.536C68.6981 31.3742 68.689 31.2621 68.689 31.2621C70.2042 31.8458 71.5349 30.765 72.8304 30.2071C73.1601 30.109 73.6729 30.2795 73.8209 29.9155C73.8078 29.6363 74.3211 29.3083 73.8941 29.1139C71.9995 28.8586 70.7416 31.1295 68.7993 30.0975L68.6519 29.8059C69.0557 24.3194 72.1711 19.0144 77.3387 16.4041C81.9573 13.7813 89.044 14.0006 93.3932 17.0597C95.7032 18.4676 97.9139 20.7867 99.1126 23.1423C100.26 25.2058 100.786 27.5235 100.944 29.9883C98.9396 31.4934 97.5959 28.5689 95.5548 29.2235C95.6651 29.5396 95.7263 29.8671 95.9596 30.1344C97.7684 30.1219 99.0138 32.0039 100.907 31.2621L100.909 31.536H91.9632C91.9442 31.1688 92.0074 30.8019 92.1483 30.4619C92.7715 29.0296 92.5753 27.1711 91.8914 25.8355C91.6837 25.484 91.3174 25.2053 90.9747 24.9984C91.4764 26.0553 92.0866 27.3052 91.7815 28.6039C91.7463 29.6066 91.1521 30.5692 91.1453 31.536H90.2017L90.2055 31.4086C90.5593 29.7086 91.636 27.8995 90.7559 26.0907C90.5111 25.3629 89.9626 24.5373 89.217 24.2337C90.3284 25.4969 90.768 27.5599 90.1323 29.2604C89.8118 29.9366 89.3698 30.7406 89.3259 31.5355H88.4121C88.7905 29.5362 90.3217 27.6447 89.2522 25.508C88.9712 24.8768 88.4097 24.2337 87.7866 23.8688L87.749 23.9061C88.9958 25.1081 89.3741 27.0873 88.7023 28.6767C88.388 29.609 87.6993 30.5361 87.5596 31.5355H82.0946C82.0742 31.3932 82.0408 31.2529 81.9949 31.1165C81.3717 29.3682 80.1003 27.6208 80.8579 25.5803C81.0661 24.9975 81.4821 24.4995 81.8474 23.9784C80.6377 24.6216 80.027 25.9816 80.0516 27.3655C79.9991 28.8697 81.1187 30.1588 81.2777 31.5355H80.3586C80.2854 30.1123 78.9952 29.0018 79.2092 27.4019C79.2814 26.2244 79.6844 25.1919 80.454 24.3065C79.3918 24.7307 78.9523 25.9452 78.6588 26.9647C78.1493 28.6 79.3653 30.0702 79.4872 31.5355H78.4987C78.5106 31.2054 78.453 30.8764 78.3296 30.5697C77.6703 28.8826 77.4375 26.6012 78.6959 25.1076C78.0115 25.2901 77.6086 26.1386 77.3763 26.7822C76.6196 28.4296 77.5768 29.9562 77.6095 31.5355H68.7097" fill="black"/>
<path d="M85.6589 17.4598L87.6388 17.5695L87.6022 17.7519L86.1361 19.1359C86.392 19.7555 86.6489 20.3747 86.9057 20.9925C88.0176 20.3503 89.0813 19.5487 90.425 19.4629C90.3026 20.1678 89.7652 20.9087 89.8375 21.6116C90.6689 21.3813 91.4275 20.8718 92.3316 20.9197C91.7687 21.9521 90.9499 22.9846 90.9007 24.2708C89.6669 23.8106 88.396 23.2508 87.0161 23.0329C84.0713 22.5344 81.236 23.178 78.804 24.3441C78.5968 23.1182 77.9987 22.0493 77.2651 21.0298C77.7047 20.8842 78.2421 21.1261 78.6951 21.2491C79.0739 21.3574 79.3915 21.6121 79.7949 21.6859C79.8672 20.9575 79.4407 20.2411 79.1356 19.5731C79.3433 19.415 79.673 19.5357 79.9053 19.6099C80.8697 19.9734 81.7377 20.5437 82.6178 21.0667C83.0694 20.5437 83.2395 19.791 83.4231 19.099L81.9213 17.7519V17.6068L83.9003 17.4967C84.2294 16.878 84.4497 16.2224 84.7798 15.6032C85.1832 16.1496 85.3177 16.866 85.6589 17.4598Z" fill="white"/>
<path d="M86.3556 21.4296L86.1734 21.6116C85.2567 21.5149 84.2918 21.6355 83.4233 21.6489C83.326 21.5517 83.1313 21.4057 83.313 21.284L84.7063 20.2272C85.2813 20.5566 85.8915 20.9809 86.3556 21.4296Z" fill="black"/>
<path d="M61.9079 21.9391C61.1498 22.5229 60.6124 23.3729 60.7719 24.3435C60.8577 24.4891 60.9425 24.707 61.1382 24.7434C61.7489 24.7434 61.9566 24.0888 62.2371 23.6875C62.5672 22.9591 63.2034 22.1694 64.0705 22.0852C64.8156 22.0373 65.4522 22.2307 65.9405 22.8135C66.6856 23.7004 66.5511 25.1327 66.1973 26.1652C65.8662 26.9299 65.3534 27.7057 64.6208 28.2042L63.3008 27.4026C64.0218 26.906 64.7799 26.0914 64.8773 25.1811C64.8773 24.8535 64.805 24.4163 64.4001 24.3794C63.5576 24.6227 63.4723 25.6298 62.8983 26.2006C62.4588 26.6503 61.9084 26.9893 61.2115 26.8921C60.5637 26.8552 60.0133 26.4554 59.635 25.9454C58.914 24.8535 59.2682 23.2498 59.7082 22.4132C59.9777 21.9391 60.2958 21.466 60.7353 21.1011C61.1011 21.3084 61.5296 21.6245 61.9079 21.9391ZM109.778 22.8878C110.413 23.9068 110.659 25.2539 110.328 26.4927L108.972 26.4199C109.156 25.6063 109.29 24.5868 108.716 23.9068C108.545 23.7004 108.24 23.5783 108.019 23.688C107.274 24.5135 108.082 25.704 107.617 26.6383C107.397 27.064 107.067 27.5735 106.59 27.7665C105.82 28.0582 104.867 27.9126 104.28 27.3298C103.133 26.1398 102.594 24.2942 103.328 22.7407H104.757C104.513 23.3489 104.343 24.2099 104.575 24.9263C104.696 25.2299 104.843 25.6183 105.198 25.7275C106.371 25.7696 105.576 24.1007 105.857 23.323C105.968 22.7407 106.285 22.134 106.883 21.8663C107.982 21.3324 109.266 21.9391 109.778 22.8878ZM73.821 25.1811C75.0056 24.7314 76.6182 23.9552 77.8892 24.7807C77.6197 25.1567 77.0959 25.3635 76.7156 25.6906C76.0934 26.2973 75.3357 27.0372 74.8841 27.8024C73.3568 27.4983 72.1341 28.3862 70.8516 28.8957C70.3629 28.992 69.7151 29.0408 69.3122 28.7133C70.5219 26.7336 72.2315 24.9129 71.8044 22.303C71.9389 22.0722 72.1707 22.2671 72.3172 22.3399C73.259 23.0683 73.7106 24.0763 73.821 25.1811ZM97.9391 22.5952C97.4634 25.0714 99.1729 26.8203 100.321 28.7137C99.0028 29.5882 97.755 28.2396 96.5096 27.9121C95.9597 27.8278 95.3129 27.7541 94.7861 27.8393C94.0299 26.6747 93.0154 25.5814 91.7811 24.9263C91.8539 24.5265 92.4159 24.5006 92.8077 24.4522C93.895 24.344 94.8478 24.7927 95.7399 25.2543C95.911 24.8545 95.9843 24.4043 96.1057 23.9801C96.4002 23.2637 96.9752 22.5343 97.7203 22.2317C97.8784 22.2556 97.9883 22.4261 97.9391 22.5952ZM87.7486 24.854C87.7862 25.0599 87.9934 25.2424 87.8589 25.4732C87.1379 25.2539 86.3201 25.375 85.6231 25.6542C84.9995 26.1154 85.0973 27.0635 85.2564 27.7301L85.44 27.8767C85.7451 27.8034 85.7581 27.4155 86.0261 27.3298C86.4786 27.4394 87.1013 27.598 87.5288 27.3298C87.9071 27.3422 87.8961 27.8637 87.9317 28.1314C87.6633 29.5398 87.0647 31.0693 85.6231 31.7369C85.0241 32.0285 84.2539 31.8331 83.6799 31.6272C82.2629 30.7896 81.4687 29.1265 81.6277 27.6219C81.7381 27.3911 81.9092 27.2086 82.1786 27.3667C82.7512 27.7545 83.3743 27.0635 83.9006 27.5477C84.5354 27.2685 84.157 26.4927 84.157 25.9099C83.6442 25.2539 82.7642 25.3506 81.995 25.3994C81.6523 25.1926 82.0195 24.8655 82.1039 24.6347C82.9353 23.4696 84.5243 23.4456 85.9157 23.6152C86.6251 23.7971 87.4074 24.1007 87.7486 24.854Z" fill="white"/>
<path d="M83.496 26.5284V26.675C83.0811 26.6381 82.4097 26.2253 82.0304 26.7473C81.7865 26.8555 81.7499 26.5763 81.7745 26.4192C81.7626 26.3809 81.7589 26.3406 81.7638 26.3008C81.7687 26.261 81.7819 26.2227 81.8027 26.1883C81.8235 26.154 81.8514 26.1244 81.8844 26.1015C81.9175 26.0785 81.9551 26.0628 81.9947 26.0553C82.5678 25.9217 83.2155 26.0912 83.496 26.5284ZM87.8582 26.346C87.8467 26.4925 87.8828 26.662 87.7117 26.7473C87.2471 26.5653 86.5994 26.3101 86.1352 26.675C85.8658 26.1041 86.6124 26.2253 86.8683 26.0558C87.2476 26.0424 87.6876 26.0314 87.8582 26.346Z" fill="white"/>
<path d="M85.5126 28.6773C85.2933 29.1385 84.5844 28.8473 84.193 28.9316C84.06 28.8827 84.1439 28.7381 84.1198 28.6409C84.5111 28.3732 85.2076 28.3378 85.5126 28.6773ZM86.0987 29.6978C85.8071 30.1345 85.3666 30.6799 84.7805 30.645C84.1198 30.6934 83.9737 30.1589 83.4966 29.8434L83.4609 29.6236C84.341 29.7576 85.3059 29.5886 86.0987 29.6978Z" fill="black"/>
<path d="M63.2632 35.3786C64.0035 35.3748 64.7139 35.403 65.4783 35.3853L63.7774 36.7985C63.9413 37.3932 64.083 38.0771 64.2902 38.8749L62.6039 37.7093C61.8949 38.0311 61.4679 38.4257 60.7353 38.8016L61.3214 36.798C60.7647 36.3455 60.1425 35.9159 59.6162 35.4548C60.3835 35.4351 61.0553 35.4658 61.7971 35.4509C62.1397 34.814 62.2925 34.0842 62.6039 33.4473L63.2632 35.3786ZM71.9505 44.9571C72.098 45.3085 72.3105 45.5873 72.4011 46.115C72.0107 46.3592 71.5172 46.5594 71.0709 46.7782C70.962 45.9766 70.2525 45.1994 69.4588 44.9925C68.7994 44.8297 68.0784 45.1395 67.5902 45.7218C67.1863 46.194 67.0639 46.8749 67.1863 47.4697C67.5044 48.2938 68.384 48.9164 69.2756 48.9164L69.532 48.924C69.3474 49.3785 69.1271 49.8179 68.8732 50.2381C67.3941 50.1883 65.9038 49.3263 65.3534 47.9055C64.8773 46.7533 65.0855 45.2597 65.8306 44.3C66.7347 43.1598 68.1768 42.8438 69.5696 43.1354C70.5085 43.3911 71.3885 44.0946 71.9505 44.9571ZM100.43 44.1928L100.522 44.2828L98.3232 46.3171L99.0563 47.1963C99.679 46.7107 100.352 46.1945 101.017 45.5762C101.36 45.8616 101.635 46.1945 101.958 46.5723C101.299 47.1963 100.614 47.6215 100.04 48.2168C100.285 48.5208 100.473 48.8656 100.846 49.2305L103.217 47.2877L104.23 48.3259C102.886 49.594 101.421 50.8999 100.028 51.9127L95.8855 46.5953C97.2056 45.502 98.317 44.5069 99.478 43.3533C99.8327 43.5851 100.09 43.8877 100.43 44.1928ZM77.119 48.6722C77.8641 49.6189 77.8762 51.0871 77.4116 52.1675C76.8934 53.2665 75.8972 53.9651 74.8095 54.2075C73.4913 54.4134 72.2445 53.9896 71.2912 53.0797C70.4487 52.1564 69.9841 50.8333 70.4111 49.5471C70.7899 48.1507 72.1582 47.1311 73.5641 46.9611C75.0172 46.8754 76.3614 47.543 77.119 48.6722Z" fill="white"/>
<path d="M75.5804 49.5466C75.9944 50.5053 75.5183 51.4521 74.8464 52.1316C74.4194 52.4711 73.8598 52.6852 73.2984 52.4788C72.9446 52.3088 72.5075 51.998 72.4096 51.6211C72.1402 50.6504 72.587 49.7401 73.2704 49.0726C73.6859 48.7321 74.2849 48.5386 74.8093 48.7809C75.1274 48.8777 75.4816 49.2306 75.5804 49.5466Z" fill="#397657"/>
<path d="M90.1685 51.0871C89.1405 51.2341 88.1588 51.3558 87.1799 51.5138C87.2787 51.9927 87.2349 52.3135 87.3086 52.6784C88.2253 52.6607 89.0258 52.4989 89.8813 52.3892L90.1314 53.9465C89.261 54.1073 88.3844 54.2331 87.5038 54.3234C87.5284 55.0268 87.6224 55.8883 87.6113 56.6655C86.8907 56.7752 86.1129 56.8537 85.3673 56.8049L84.9277 50.1653L84.9219 50.026C86.567 49.87 88.2065 49.6613 89.8379 49.4001C89.9059 49.8981 90.0587 50.4732 90.1685 51.0871ZM95.7742 48.1023L95.8359 48.2163L93.1519 49.5538L93.6064 50.602C94.4252 50.2917 95.1322 50.0025 95.9458 49.594C96.194 49.9642 96.3641 50.3602 96.5685 50.8118C95.8306 51.2025 95.0667 51.5057 94.2623 51.8567C94.4117 52.2158 94.4869 52.4778 94.7496 53.0539L97.5743 51.85L98.2544 53.1305C96.6061 53.9723 94.8305 54.8161 93.2063 55.4004L90.7324 49.1424C92.308 48.4615 93.657 47.8155 95.0961 47.0335C95.3722 47.3534 95.5327 47.7163 95.7742 48.1023ZM83.92 51.8418C82.8977 51.6718 81.9222 51.4903 80.9434 51.3443C80.8889 51.8308 80.7506 52.1244 80.7096 52.4926C81.5882 52.7527 82.3999 52.8408 83.2481 52.995L83.0095 54.5561C82.1308 54.4457 81.257 54.3 80.3901 54.1194C80.1983 54.7965 80.0257 55.6465 79.7775 56.384C79.0565 56.27 78.2907 56.1091 77.5957 55.8366L79.2083 49.3795L79.2464 49.2459C80.8716 49.595 82.5363 49.8995 84.1214 50.1351C84.0327 50.6298 84.0019 51.2255 83.92 51.8418ZM107.674 35.3887C108.413 35.3858 109.073 35.4055 109.887 35.3964L108.188 36.8095C108.353 37.4033 108.494 38.0872 108.7 38.8859L107.015 37.7194C106.305 38.0402 105.878 38.4358 105.145 38.8117L105.731 36.809C105.175 36.3575 104.552 35.926 104.028 35.4648C104.794 35.4452 105.466 35.4759 106.207 35.461C106.506 34.7978 106.72 34.1609 107.015 33.4574L107.674 35.3887Z" fill="white"/>
<path d="M104.68 55.8667C105.635 55.8667 106.454 56.6046 106.454 57.606C106.454 58.6164 105.635 59.3539 104.68 59.3539C103.715 59.3539 102.896 58.6164 102.896 57.606C102.896 56.6046 103.715 55.8667 104.68 55.8667ZM104.68 56.1488C103.866 56.1488 103.237 56.7742 103.237 57.606C103.237 58.4564 103.867 59.0723 104.68 59.0723C105.484 59.0723 106.113 58.4569 106.113 57.606C106.113 56.7742 105.484 56.1488 104.68 56.1488ZM104.306 58.6164H103.994V56.6046H104.769C105.252 56.6046 105.488 56.7833 105.488 57.1779C105.488 57.5399 105.261 57.695 104.958 57.7324L105.535 58.6164H105.195L104.656 57.742H104.305L104.306 58.6164ZM104.306 57.4886H104.675C105.053 57.4886 105.176 57.3799 105.176 57.1592C105.176 56.9667 105.082 56.8584 104.727 56.8584H104.306V57.4886Z" fill="black"/>
</g>
<defs>
<clipPath id="clip0_1481_5092">
<rect width="170" height="62" fill="white"/>
</clipPath>
</defs>
</svg>
