<svg width="170" height="62" viewBox="0 0 170 62" fill="none" xmlns="http://www.w3.org/2000/svg">
<g clip-path="url(#clip0_1481_5100)">
<path d="M144.526 28.7299V41.9871H148.746V33.149H164.178V41.9871H168.397V28.7299H144.526ZM148.264 24.4319H164.539C166.83 24.0082 168.457 21.95 168.94 20.0129H143.863C144.346 21.95 146.033 23.9477 148.264 24.4319ZM131.687 41.9871C133.797 41.0791 134.942 39.5052 135.424 37.6891H116.436V20.0734H112.156V41.9871H131.687ZM80.5091 24.3714H95.5791C97.8697 23.7055 99.7384 21.95 100.221 20.0734H76.3498V33.0279H95.8805V37.5681H80.5694C78.1582 38.234 76.1087 39.8684 75.0839 41.9871H100.1V28.7299H80.5694L80.5091 24.3714ZM43.3767 24.4319H59.6523C61.9429 24.0082 63.6308 21.95 64.0527 20.0129H38.916C39.3983 21.95 41.0861 23.9477 43.3767 24.4319ZM43.3767 33.0885H59.6523C61.9429 32.6647 63.6308 30.6065 64.0527 28.6694H38.916C39.3983 30.6065 41.0861 32.6042 43.3767 33.0885ZM43.3767 41.9871H59.6523C61.9429 41.5634 63.6308 39.5052 64.0527 37.5681H38.916C39.3983 39.5052 41.0861 41.5634 43.3767 41.9871Z" fill="#5E5E5E"/>
<path d="M1 20.0734C1.48224 22.0105 3.17008 23.9477 5.40043 24.4319H12.2723L12.634 24.553V41.9266H16.9139V24.553L17.2756 24.4319H24.1475C26.4381 23.8266 28.0657 22.0105 28.5479 20.0734V20.0129L1 20.0734Z" fill="#5E5E5E"/>
</g>
<defs>
<clipPath id="clip0_1481_5100">
<rect width="168" height="22" fill="white" transform="translate(1 20)"/>
</clipPath>
</defs>
</svg>
