<svg width="170" height="62" viewBox="0 0 170 62" fill="none" xmlns="http://www.w3.org/2000/svg">
<path d="M34.5861 15.5199C24.9935 15.5199 17 19.6199 17 31.9914C17 41.7922 22.3751 47.9637 34.8333 47.9637C49.4976 47.9637 50.4375 38.2306 50.4375 38.2306H43.3322C43.3322 38.2306 41.8089 43.4715 34.4001 43.4715C28.3659 43.4715 24.0259 39.3641 24.0259 33.6076H51.181V29.9948C51.181 24.2996 47.5928 15.5199 34.5861 15.5199ZM34.338 20.1369C40.0819 20.1369 43.9977 23.6825 43.9977 28.9966H24.1829C24.1829 23.3548 29.2944 20.1369 34.338 20.1369Z" fill="#E53238"/>
<path d="M51.1762 3.54028V41.7511C51.1762 43.92 51.0225 46.9655 51.0225 46.9655H57.7993C57.7993 46.9655 58.0429 44.7784 58.0429 42.7791C58.0429 42.7791 61.3912 48.0575 70.4957 48.0575C80.0828 48.0575 86.5952 41.3503 86.5952 31.7419C86.5952 22.8027 80.6136 15.6132 70.5111 15.6132C61.051 15.6132 58.1114 20.7605 58.1114 20.7605V3.54028H51.1762ZM68.7619 20.3395C75.2725 20.3395 79.4128 25.2083 79.4128 31.7419C79.4128 38.7481 74.631 43.3313 68.8086 43.3313C61.8598 43.3313 58.1114 37.8641 58.1114 31.8041C58.1114 26.1573 61.4747 20.3395 68.7619 20.3395Z" fill="#0064D2"/>
<path d="M103.438 15.5199C89.0071 15.5199 88.0817 23.4814 88.0817 24.7539H95.2646C95.2646 24.7539 95.6411 20.1058 102.943 20.1058C107.687 20.1058 111.364 22.2943 111.364 26.5009V27.9983H102.943C91.763 27.9983 85.8525 31.2939 85.8525 37.9815C85.8525 44.5625 91.3134 48.1433 98.6936 48.1433C108.752 48.1433 111.992 42.5436 111.992 42.5436C111.992 44.771 112.162 46.9659 112.162 46.9659H118.547C118.547 46.9659 118.3 44.2453 118.3 42.5048V27.4603C118.3 17.5955 110.403 15.5199 103.438 15.5199ZM111.364 32.4905V34.487C111.364 37.0911 109.769 43.5652 100.381 43.5652C95.2396 43.5652 93.0354 40.9799 93.0354 37.981C93.0354 32.5257 100.458 32.4905 111.364 32.4905Z" fill="#F5AF02"/>
<path d="M114.432 16.7687H122.512L134.109 40.1796L145.68 16.7687H153L131.925 58.4474H124.246L130.328 46.8288L114.432 16.7687Z" fill="#86B817"/>
</svg>
