<svg width="170" height="62" viewBox="0 0 170 62" fill="none" xmlns="http://www.w3.org/2000/svg">
<path d="M72.4569 58.4954C98.2043 58.4954 112.285 37.1469 112.285 18.6342C112.285 18.0279 112.272 17.4244 112.245 16.8233C114.985 14.8393 117.349 12.3827 119.228 9.56871C116.719 10.6847 114.02 11.4359 111.189 11.7745C114.079 10.0401 116.298 7.29631 117.345 4.02569C114.597 5.65711 111.591 6.80717 108.456 7.42631C105.901 4.70315 102.265 3 98.238 3C90.5078 3 84.2392 9.27403 84.2392 17.0077C84.2392 18.1072 84.3622 19.1763 84.6024 20.2022C72.9683 19.6163 62.6521 14.0415 55.7479 5.56472C54.5044 7.70273 53.8504 10.1326 53.8525 12.6062C53.8525 17.4668 56.3237 21.7576 60.0818 24.2679C57.8588 24.2 55.6847 23.599 53.7421 22.5156C53.7401 22.5745 53.7401 22.6318 53.7401 22.6946C53.7401 29.4793 58.5651 35.1442 64.9702 36.4278C63.7672 36.7557 62.5259 36.9214 61.2791 36.9207C60.3787 36.9207 59.5011 36.8321 58.6483 36.6682C60.4304 42.2347 65.5979 46.2854 71.7247 46.3986C66.9336 50.1569 60.8984 52.3955 54.339 52.3955C53.2232 52.3964 52.1082 52.3316 51 52.2014C57.1951 56.1755 64.5512 58.4944 72.4576 58.4944" fill="#1DA1F2"/>
</svg>
