<svg width="170" height="62" viewBox="0 0 170 62" fill="none" xmlns="http://www.w3.org/2000/svg">
<path d="M21.0886 41.704C21.699 43.319 22.5441 44.6999 23.624 45.8467C24.7039 46.9936 25.9833 47.8712 27.4622 48.4798C28.9412 49.0883 30.5493 49.3925 32.2865 49.3925C33.9768 49.3925 35.5613 49.0765 37.0404 48.4445C38.5194 47.8125 39.8104 46.9232 40.9137 45.7764C42.0171 44.6295 42.874 43.2605 43.4844 41.6689C44.0948 40.0774 44.3999 38.2988 44.3999 36.3326V6H51.7947V55.15H44.4703V50.586C42.8271 52.3179 40.8902 53.652 38.6601 54.5884C36.4298 55.5244 34.0237 55.9925 31.4414 55.9925C28.812 55.9925 26.3589 55.5361 24.0817 54.6233C21.8047 53.7106 19.8326 52.4117 18.166 50.7265C16.4993 49.0413 15.1845 47.017 14.2221 44.653C13.2595 42.2891 12.7783 39.6562 12.7783 36.7538V6H20.1731V36.3326C20.1731 38.2988 20.4782 40.089 21.0886 41.704ZM64.5412 6V23.9046C66.1845 22.2663 68.0861 20.9675 70.2458 20.0078C72.4055 19.0481 74.7532 18.5683 77.2884 18.5683C79.9178 18.5683 82.3824 19.0597 84.6832 20.0427C86.9837 21.0257 88.979 22.3598 90.6694 24.0451C92.3597 25.7303 93.6978 27.7196 94.6838 30.0132C95.6698 32.307 96.1627 34.7411 96.1627 37.3156C96.1627 39.89 95.6698 42.3124 94.6838 44.5826C93.6978 46.853 92.3597 48.8307 90.6694 50.5157C88.979 52.2009 86.9837 53.535 84.6832 54.518C82.3824 55.501 79.9176 55.9924 77.2884 55.9924C74.753 55.9924 72.3938 55.5126 70.2106 54.5529C68.0274 53.5934 66.1141 52.2944 64.4708 50.6561V55.1499H57.4282V6H64.5412ZM65.3511 42.1603C65.9849 43.6584 66.8653 44.969 67.9922 46.0924C69.119 47.2159 70.4336 48.1053 71.936 48.7607C73.4385 49.416 75.0583 49.7437 76.7955 49.7437C78.4858 49.7437 80.082 49.416 81.5844 48.7607C83.0868 48.1053 84.3896 47.216 85.4932 46.0924C86.5965 44.9692 87.4768 43.6584 88.1341 42.1603C88.7914 40.6625 89.1201 39.0476 89.1201 37.3156C89.1201 35.5836 88.7914 33.957 88.1341 32.4356C87.4768 30.9143 86.5965 29.592 85.4932 28.4686C84.3897 27.3453 83.087 26.4675 81.5844 25.8356C80.0819 25.2038 78.4857 24.8876 76.7955 24.8876C75.1053 24.8876 73.509 25.2036 72.0066 25.8356C70.5042 26.4676 69.1896 27.3453 68.0626 28.4686C66.9359 29.592 66.0438 30.9143 65.3865 32.4356C64.7292 33.957 64.4005 35.5836 64.4005 37.3156C64.4004 39.0476 64.7173 40.6625 65.3511 42.1603ZM100.176 30.0836C101.115 27.8367 102.407 25.8591 104.05 24.1505C105.693 22.442 107.642 21.0962 109.895 20.1133C112.149 19.1303 114.59 18.6389 117.22 18.6389C119.802 18.6389 122.196 19.107 124.403 20.043C126.61 20.9793 128.511 22.2783 130.108 23.94C131.704 25.6017 132.948 27.5678 133.84 29.838C134.732 32.1083 135.178 34.5775 135.178 37.2457V39.5628H105.951C106.186 41.0139 106.656 42.3597 107.36 43.5999C108.064 44.8404 108.944 45.917 110.001 46.8298C111.057 47.7427 112.254 48.4566 113.593 48.9713C114.931 49.4862 116.351 49.7438 117.853 49.7438C122.126 49.7438 125.577 47.9884 128.206 44.4776L133.347 48.2691C131.563 50.6564 129.357 52.5289 126.727 53.8863C124.098 55.2437 121.14 55.9225 117.854 55.9225C115.177 55.9225 112.677 55.4542 110.353 54.5181C108.029 53.5821 106.01 52.2713 104.297 50.586C102.583 48.9008 101.233 46.9232 100.247 44.653C99.2611 42.3828 98.768 39.9135 98.768 37.2454C98.7677 34.7178 99.2374 32.3305 100.176 30.0836ZM110.071 27.31C108.076 28.9718 106.75 31.1836 106.092 33.9453H127.995C127.385 31.1836 126.082 28.9718 124.086 27.31C122.091 25.6484 119.755 24.8175 117.079 24.8175C114.402 24.8175 112.067 25.6484 110.071 27.31ZM148.488 28.1175C146.986 29.7558 146.235 31.9792 146.235 34.7879V55.1502H139.122V19.3408H146.164V23.7643C147.056 22.3132 148.218 21.1663 149.65 20.3238C151.082 19.4811 152.784 19.0597 154.756 19.0597H157.221V25.6599H154.263C151.916 25.6601 149.991 26.4791 148.488 28.1175Z" fill="#010202"/>
</svg>
