<svg width="170" height="62" viewBox="0 0 170 62" fill="none" xmlns="http://www.w3.org/2000/svg">
<path d="M93.8172 52.046H88.6402L90.9389 39.0388H96.1285M77.7796 46.7094H67.8891C67.6191 48.2467 68.6386 49.2661 70.007 49.2661C70.8211 49.2661 71.633 48.8941 72.1502 48.1238H77.1091C75.6368 51.3512 72.1628 52.4176 69.1164 52.4176C64.9321 52.4176 62.1185 50.0353 62.8929 45.6667C63.6406 41.3956 67.3474 38.6653 71.5316 38.6653C76.3593 38.6664 78.6973 41.9933 77.7796 46.7094ZM68.3542 44.078H73.0678C73.2735 42.8858 72.3952 41.8186 71.17 41.8186C69.6331 41.8186 68.5996 42.6881 68.3542 44.078ZM109.105 45.6904C109.906 41.1742 113.341 38.6667 117.743 38.6667C122.366 38.6667 124.729 41.3715 124.006 45.418C123.167 50.1841 119.524 52.4191 115.342 52.4191C111.146 52.4183 108.318 50.1341 109.105 45.6904ZM117.434 42.141C115.665 42.141 114.813 43.9529 114.554 45.4176C114.129 47.8751 114.851 48.9444 116.182 48.9444C117.575 48.9444 118.61 47.8751 119.048 45.4176C119.384 43.5054 118.79 42.0663 117.434 42.141ZM77.8962 52.046L80.2072 39.0388H84.9208L84.456 41.6705H84.4953C85.5793 39.6336 87.0246 38.6667 89.0393 38.6667C89.2717 38.6667 89.4915 38.7167 89.712 38.7419L88.7939 43.903C88.4453 43.8548 88.0982 43.7553 87.7496 43.7553C85.6317 43.7553 84.3791 44.7477 83.8869 47.552L83.0876 52.0456L77.8962 52.046ZM123.954 52.046L126.253 39.0388H130.992L130.63 41.0735C132.076 39.5089 133.496 38.6667 135.459 38.6667C138.908 38.6667 140.172 40.6767 139.539 44.2506L138.158 52.046H132.967L134.194 45.17C134.414 43.8782 134.271 42.7373 132.799 42.7373C131.212 42.7373 130.604 43.7549 130.307 45.4173L129.132 52.0452L123.954 52.046ZM52.2131 52.046L49.9805 39.0388H55.1697L56.0109 47.2543L59.7281 39.0388H64.7135L57.9981 52.046H52.2131ZM91.2355 37.3749L91.8797 33.6943H97.0707L96.4132 37.3749H91.2355Z" fill="black"/>
<mask id="mask0_1496_6067" style="mask-type:luminance" maskUnits="userSpaceOnUse" x="44" y="0" width="18" height="36">
<path d="M58.954 31.8886L60.3368 31.3846L61.2404 33.8593L57.3799 35.2654L44.8164 0.901752L47.3085 0.00927734L58.954 31.8886Z" fill="white"/>
</mask>
<g mask="url(#mask0_1496_6067)">
<path d="M46.738 40.5246L33.4395 4.13373L59.3192 -5.25073L72.6177 31.1402L46.738 40.5246Z" fill="url(#paint0_linear_1496_6067)"/>
</g>
<mask id="mask1_1496_6067" style="mask-type:luminance" maskUnits="userSpaceOnUse" x="56" y="0" width="92" height="36">
<path d="M58.9535 31.8886L146.913 0L147.816 2.47326L57.3794 35.2655L56.0879 31.7247L58.567 30.8215L58.9535 31.8886Z" fill="white"/>
</mask>
<g mask="url(#mask1_1496_6067)">
<path d="M44.709 4.12481L137.087 -29.3636L159.195 31.1402L66.8177 64.6308L44.709 4.12481Z" fill="url(#paint1_linear_1496_6067)"/>
</g>
<mask id="mask2_1496_6067" style="mask-type:luminance" maskUnits="userSpaceOnUse" x="94" y="39" width="44" height="18">
<path d="M94.4629 56.994L95.0565 53.6674L103.333 42.8111H96.8507L97.536 39.0396H109.919L109.312 42.3658L100.995 53.2203H137.938L137.279 56.994H94.4629Z" fill="white"/>
</mask>
<g mask="url(#mask2_1496_6067)">
<path d="M95.7744 31.6338L141.02 39.5805L136.627 64.3991L91.3809 56.4527L95.7744 31.6338Z" fill="url(#paint2_linear_1496_6067)"/>
</g>
<path d="M49.6217 30.6995L45.8977 11.5826C45.8977 11.5826 45.4475 7.75513 40.6478 7.75513H23.2047L23 8.47491C23 8.47491 31.3838 10.2124 39.4254 16.7223C47.1144 22.9445 49.6217 30.6995 49.6217 30.6995Z" fill="#E6A540"/>
<defs>
<linearGradient id="paint0_linear_1496_6067" x1="52.2948" y1="15.6301" x2="46.5137" y2="-0.313643" gradientUnits="userSpaceOnUse">
<stop stop-color="#ED1B34"/>
<stop offset="1" stop-color="white"/>
</linearGradient>
<linearGradient id="paint1_linear_1496_6067" x1="111.296" y1="14.246" x2="147.843" y2="0.892485" gradientUnits="userSpaceOnUse">
<stop stop-color="#ED1B34"/>
<stop offset="1" stop-color="white"/>
</linearGradient>
<linearGradient id="paint2_linear_1496_6067" x1="117.381" y1="48.2237" x2="138.736" y2="52.004" gradientUnits="userSpaceOnUse">
<stop stop-color="#ED1B34"/>
<stop offset="1" stop-color="white"/>
</linearGradient>
</defs>
</svg>
