<svg width="170" height="62" viewBox="0 0 170 62" fill="none" xmlns="http://www.w3.org/2000/svg">
<path d="M75.9818 52.2689H64.9144L71.8314 9.75958H82.8999L75.9818 52.2689ZM55.6039 9.75958L45.0527 38.9978L43.8042 32.7017L43.8053 32.7039L40.0813 13.5871C40.0813 13.5871 39.631 9.75958 34.8314 9.75958H17.3883L17.1836 10.4794C17.1836 10.4794 22.5177 11.5892 28.7604 15.3382L38.3757 52.27H49.907L67.515 9.75958H55.6039ZM142.654 52.2689H152.817L143.956 9.75844H135.06C130.951 9.75844 129.951 12.9264 129.951 12.9264L113.445 52.2689H124.982L127.289 45.9546H141.358L142.654 52.2689ZM130.476 37.2319L136.291 21.3239L139.563 37.2319H130.476ZM114.31 19.9821L115.889 10.8535C115.889 10.8535 111.016 9 105.935 9C100.443 9 87.4005 11.4004 87.4005 23.0727C87.4005 34.0548 102.708 34.1913 102.708 39.9598C102.708 45.7283 88.9777 44.6946 84.4464 41.0571L82.801 50.6019C82.801 50.6019 87.7428 53.0023 95.2931 53.0023C102.846 53.0023 114.239 49.0918 114.239 38.4486C114.239 27.396 98.7943 26.3669 98.7943 21.5615C98.7954 16.755 109.574 17.3725 114.31 19.9821Z" fill="#2566AF"/>
<path d="M43.8053 32.7025L40.0813 13.5856C40.0813 13.5856 39.631 9.75818 34.8314 9.75818H17.3883L17.1836 10.478C17.1836 10.478 25.5674 12.2154 33.609 18.7253C41.298 24.9475 43.8053 32.7025 43.8053 32.7025Z" fill="#E6A540"/>
</svg>
