<svg width="170" height="62" viewBox="0 0 170 62" fill="none" xmlns="http://www.w3.org/2000/svg">
<path d="M147.116 24.1853C148.03 24.1853 148.782 23.7081 148.884 23.0916L149.786 12.8444C149.786 11.8315 148.605 11.0001 147.119 11.0001C145.635 11.0001 144.455 11.8315 144.455 12.8446L145.357 23.0916C145.456 23.7079 146.208 24.1853 147.119 24.1853H147.116ZM141.602 27.3859C142.06 26.5921 142.026 25.6999 141.543 25.3036L133.157 19.3953C132.285 18.8881 130.977 19.4986 130.236 20.791C129.491 22.0817 129.623 23.5232 130.493 24.0306L139.778 28.373C140.359 28.5891 141.15 28.1732 141.605 27.3799L141.602 27.3859ZM152.635 27.3804C153.093 28.1737 153.881 28.5898 154.462 28.3735L163.747 24.0311C164.622 23.524 164.747 22.0822 164.009 20.7915C163.264 19.5004 161.954 18.8887 161.084 19.3958L152.698 25.3041C152.218 25.6999 152.183 26.5928 152.638 27.3865L152.635 27.3804ZM147.116 36.9856C148.03 36.9856 148.782 37.4587 148.884 38.0758L149.786 48.3215C149.786 49.3375 148.605 50.1671 147.119 50.1671C145.635 50.1671 144.455 49.3375 144.455 48.3215L145.357 38.0758C145.456 37.4587 146.208 36.9856 147.119 36.9856H147.116ZM152.635 33.7842C153.093 32.9887 153.881 32.5763 154.462 32.7949L163.747 37.1344C164.622 37.6421 164.747 39.0851 164.009 40.377C163.264 41.6639 161.954 42.2772 161.084 41.7708L152.698 35.868C152.218 35.4691 152.183 34.5756 152.638 33.7825H152.635M141.602 33.7831C142.06 34.5756 142.026 35.4691 141.543 35.8687L133.157 41.7714C132.285 42.2778 130.977 41.6644 130.236 40.3775C129.491 39.0857 129.623 37.6427 130.493 37.135L139.778 32.7955C140.359 32.5768 141.15 32.9893 141.605 33.7849H141.602" fill="#FDBB30"/>
<path d="M94.2187 35.8494C94.2187 36.1639 94.1909 36.4882 94.1051 36.773C93.7494 37.9561 92.5299 38.9565 91.0041 38.9565C89.7319 38.9565 88.7214 38.2307 88.7214 36.6977C88.7214 34.3516 91.2926 33.7036 94.2194 33.7199L94.2187 35.8492V35.8494ZM98.8095 31.7608C98.8095 27.8921 97.1636 24.4879 91.6022 24.4879C88.7475 24.4879 86.4818 25.2932 85.2451 26.011L86.1508 29.1212C87.281 28.4045 89.0824 27.8112 90.7871 27.8112C93.608 27.8034 94.07 29.4157 94.07 30.4475V30.6918C87.9209 30.6827 84.0338 32.8211 84.0338 37.1774C84.0338 39.8393 86.0136 42.3325 89.455 42.3325C91.5696 42.3325 93.3408 41.4848 94.4007 40.1255H94.5054C94.5054 40.1255 95.2068 43.0766 99.0787 41.9475C98.8767 40.7202 98.8102 39.4101 98.8102 37.8347L98.8097 31.7608M3 19.2193C3 19.2193 7.01829 35.7564 7.65994 38.4402C8.40845 41.5729 9.75746 42.7261 13.6451 41.9475L16.154 31.6951C16.7902 29.1473 17.2159 27.3308 17.6258 24.7416H17.6972C17.985 27.3582 18.3933 29.1552 18.9168 31.7035C18.9168 31.7035 19.9376 36.3582 20.4613 38.8022C20.9856 41.2454 22.4447 42.7863 26.2531 41.9475L32.2317 19.2186H27.4061L25.3641 29.0458C24.8151 31.9052 24.3174 34.142 23.9333 36.7573H23.8651C23.5161 34.1651 23.0718 32.0195 22.5142 29.2329L20.39 19.2186H15.3612L13.0877 28.9804C12.4442 31.9476 11.8408 34.3426 11.4585 36.8709H11.389C10.9965 34.4901 10.4741 31.4789 9.90873 28.608C9.90873 28.608 8.55898 21.6254 8.08425 19.2186L3 19.2193ZM41.3597 35.8494C41.3597 36.1639 41.3318 36.4882 41.2448 36.773C40.8899 37.9561 39.6696 38.9565 38.1438 38.9565C36.8714 38.9565 35.8624 38.2307 35.8624 36.6977C35.8624 34.3516 38.4328 33.7036 41.3602 33.7199L41.3597 35.8492V35.8494ZM45.9499 31.7608C45.9499 27.8921 44.304 24.4879 38.7438 24.4879C35.8883 24.4879 33.6207 25.2932 32.3848 26.011L33.2894 29.1212C34.4195 28.4045 36.2208 27.8112 37.9261 27.8112C40.749 27.8034 41.211 29.4157 41.211 30.4475V30.6918C35.0593 30.6827 31.1741 32.8211 31.1741 37.1774C31.1741 39.8393 33.1527 42.3325 36.5916 42.3325C38.7092 42.3325 40.4792 41.4848 41.5404 40.1255H41.6438C41.6438 40.1255 42.3472 43.0766 46.2182 41.9475C46.0158 40.7202 45.9499 39.4101 45.9499 37.8347V31.7608ZM53.6108 37.1228V19.2193H49.0146V41.9482H53.6108V37.1228ZM113.738 19.2193V35.986C113.738 38.2987 114.172 39.9172 115.098 40.9078C115.909 41.7738 117.241 42.3343 118.84 42.3343C120.199 42.3343 121.535 42.0738 122.166 41.8389L122.107 38.2325C121.638 38.3477 121.099 38.4409 120.361 38.4409C118.795 38.4409 118.271 37.4332 118.271 35.358V28.9427H122.274V24.5934H118.271V19.2193H113.738ZM101.874 24.8735V41.9482H106.616V33.2056C106.616 32.733 106.644 32.3213 106.718 31.9447C107.069 30.1124 108.464 28.9427 110.466 28.9427C111.015 28.9427 111.408 29.0027 111.834 29.0634V24.5934C111.477 24.5219 111.234 24.4884 110.79 24.4884C109.021 24.4884 107.008 25.6351 106.163 28.0948H106.035V24.8735H101.874ZM56.8291 24.8735V41.9482H61.4484V31.9355C61.4484 31.4657 61.5034 30.9688 61.6654 30.5381C62.0482 29.53 62.9824 28.3493 64.473 28.3493C66.3379 28.3493 67.2087 29.932 67.2087 32.2162V41.9469H71.8244V31.8123C71.8244 31.364 71.8854 30.8236 72.0174 30.4284C72.3964 29.281 73.4026 28.348 74.7886 28.348C76.6782 28.348 77.5853 29.9029 77.5853 32.5915V41.9464H82.2041V31.8893C82.2041 26.5861 79.5228 24.4868 76.4957 24.4868C75.1563 24.4868 74.098 24.8237 73.1409 25.4128C72.3372 25.9101 71.6164 26.6147 70.9874 27.5408H70.9192C70.1893 25.7007 68.4718 24.4877 66.2338 24.4877C63.3586 24.4877 62.0664 25.9516 61.2826 27.1929H61.2138V24.8729H56.8291" fill="#1A75CF"/>
<path d="M166.076 41.1182H166.146C166.239 41.1182 166.298 41.0798 166.298 41.0227C166.298 40.9578 166.242 40.9226 166.156 40.9226C166.127 40.9226 166.097 40.9286 166.077 40.9286V41.1198V41.118L166.076 41.1182ZM166.066 41.5785H165.82V40.775C165.876 40.764 166.006 40.7445 166.172 40.7445C166.353 40.7445 166.434 40.7701 166.493 40.8103C166.543 40.8454 166.58 40.9054 166.58 40.9864C166.58 41.0688 166.504 41.1387 166.393 41.1692V41.1794C166.484 41.2037 166.533 41.2699 166.559 41.386C166.584 41.5019 166.599 41.5493 166.615 41.5791H166.336C166.312 41.5493 166.298 41.4782 166.282 41.4072C166.266 41.3259 166.228 41.2851 166.146 41.2851H166.065L166.066 41.5785ZM166.167 40.5132C165.815 40.5132 165.549 40.8017 165.549 41.1696C165.549 41.5279 165.815 41.8202 166.177 41.8202C166.54 41.8262 166.806 41.5281 166.806 41.1637C166.806 40.801 166.54 40.5132 166.173 40.5132H166.167ZM166.183 40.2951C166.675 40.2951 167.066 40.6838 167.066 41.1635C167.066 41.6489 166.674 42.0381 166.176 42.0381C165.678 42.0381 165.281 41.6484 165.281 41.1637C165.281 40.6838 165.679 40.2953 166.176 40.2953H166.182" fill="#FDBB30"/>
</svg>
