<svg width="16" height="16" viewBox="0 0 16 16" fill="none" xmlns="http://www.w3.org/2000/svg">
<path d="M13.9333 1.33337H2.06667C1.87218 1.33337 1.68565 1.41064 1.54812 1.54816C1.4106 1.68569 1.33333 1.87222 1.33333 2.06671V13.9334C1.33333 14.0297 1.3523 14.125 1.38916 14.214C1.42601 14.303 1.48003 14.3838 1.54812 14.4519C1.61622 14.52 1.69706 14.574 1.78603 14.6109C1.875 14.6477 1.97036 14.6667 2.06667 14.6667H8.45333V9.50004H6.72V7.50004H8.45333V6.00004C8.41743 5.64788 8.459 5.29213 8.57514 4.95773C8.69129 4.62334 8.87918 4.3184 9.12564 4.06431C9.37211 3.81023 9.67118 3.61313 10.0019 3.48687C10.3326 3.3606 10.6869 3.30821 11.04 3.33337C11.5589 3.33018 12.0775 3.35689 12.5933 3.41337V5.21337H11.5333C10.6933 5.21337 10.5333 5.61337 10.5333 6.19337V7.48004H12.5333L12.2733 9.48004H10.5333V14.6667H13.9333C14.0296 14.6667 14.125 14.6477 14.214 14.6109C14.3029 14.574 14.3838 14.52 14.4519 14.4519C14.52 14.3838 14.574 14.303 14.6108 14.214C14.6477 14.125 14.6667 14.0297 14.6667 13.9334V2.06671C14.6667 1.9704 14.6477 1.87505 14.6108 1.78607C14.574 1.6971 14.52 1.61626 14.4519 1.54816C14.3838 1.48007 14.3029 1.42605 14.214 1.3892C14.125 1.35234 14.0296 1.33337 13.9333 1.33337Z" fill="#605C64"/>
</svg>
