<svg xmlns="http://www.w3.org/2000/svg" viewBox="0 0 5.51 248.98"><defs><style>.cls-1{fill:#75be87;}</style></defs><g id="Слой_2" data-name="Слой 2"><g id="Слой_1-2" data-name="Слой 1"><path class="cls-1" d="M1.42,43.72,1.35,42C1.37,42.81,1.4,43.33,1.42,43.72Z"/><path class="cls-1" d="M1.34,56.26l.12.31C1.4,56,1.35,55.74,1.34,56.26Z"/><path class="cls-1" d="M2.91,158.92c0,.23-.08.48-.11.73.13.62.24,1.19.35,1.71C3.07,160.62,3,159.8,2.91,158.92Z"/><path class="cls-1" d="M1.38,157.15l.24-3.33C1.55,154.57,1.46,155.63,1.38,157.15Z"/><path class="cls-1" d="M4.51,48.66c-.07-1.06-.12-1.52-.18-1.49C4.38,48.26,4.43,48.88,4.51,48.66Z"/><path class="cls-1" d="M0,245l0,.06"/><path class="cls-1" d="M.4,239.41a14.26,14.26,0,0,1-.35,5.64c.51-.56,1-1.13,1.51-1.72C1.21,242,.82,240.69.4,239.41Z"/><path class="cls-1" d="M2.32,249c1-2.91,1.38-4.16,1.3-1.09.32-3.69.37-5.16.47-6.5a40.77,40.77,0,0,0-.1-5.67l.39.3c.08-2.23-.48-5.72-.16-7,.71-4.89,0-24.2.66-36.76-1,2.43.45-5.83-.37-6.34.24-.73.38-2.47.59-.44-.25-6.4.36-9.63-.33-14,.24-.73.35,1.37.49.73a12.55,12.55,0,0,1-.08-2.7c.15-.65.21.94.33,2-.09-6.54-.81-7.2-1.5-7.69a22.75,22.75,0,0,0-.18-7.36c.23-1.15.45-3.08.53,1,0-2.29.28-14-.25-14.22a25.21,25.21,0,0,0,0-3.8c0-5.14.07-5.58,0-10.61L4,130.1c-.63-2-.14-4.2-.22-8.25l.06.12c.42-9.33-.21-4,.26-13.21l-.37.5c-.79-.86.45-8.15.14-13.48l-.21,1.93c-.25-2.91,1-8.14,1.12-11.07.06-.64.11,1,.16,1.9.41-7.66-.47-1-.6-6.7.24-1.06.63,1.35.66-2.49C5.17,77.43,4.15,68.2,4.6,63c-.17,1.15-.35,2.29-.49-.36-.07-4.06.64-11,.07-14.65a2.23,2.23,0,0,1,.13-.74c-.16-3.1-.27-10.1-.56-12C4.81,32.37,3.2,15.92,4.17,16L4.09,6.44l.09.25c0-3.05,0-5.13-.11-6.69L1.63,1c.11,5.84-.37,2.18-.5,4.24A96.14,96.14,0,0,1,1.38,18.6c0-1.83.1-3.23.07-4.87l-.26,4.09c-.37-5-.21-8.51-.58-4.67.84.58,0,15.92.87,16.48l-.19,2.69c0-.76,0-.89,0-1.66-.46,5.24.62,3.9.48,10.66-.08,2.36-.21,4-.32,2.4L1.63,49c0,1.53-.18,1.15-.17-.37l.05,8,0,0c.15,1.14.37,3.72.45,5-.14,2-.1-1-.21-.5L2,65.49c-.26,1.81-.49-1.87-.44-4.93-1,4.13.23,3.68-.37,12.62L1.05,69C.48,71.69.66,75,.29,79.7c.19-1.12.92-9.48,1.14-4.67a40.57,40.57,0,0,0,.07,5.75c-.36,0-.28,2.56-.28,5.72l-.46-.22a37.83,37.83,0,0,0,.56,5.19C1.26,95.3.89,96.08.56,97c-.11,6.13.62-4.23.68,3-.21,5.09,0,8.67.26,14.76-.18,3.56-.31-.62-.45.64l.38,3.17c0,.78-.13.53-.19.4.14,2.66.5.22.63,4.4.56,1.13-.86,8.59-.23,13.77-.14,1.28-.32-.62-.53-.22.4,7.11.29,6.1.87,11.93l-.37,5c.42-3.66.88,1,1.29,5.09.19-1.3.37-2.4.45-3.15l.3,6.52c-.09.8-.27.14-.51-.94,0,.44.1.87.13,1.19-.21,2.33-.53,1.12-.82-.54.11-.8.22-1.58.34-2.36-.34-1.6-.7-3.12-1-2.78.06.43.11,1.24.15,2.13-.1-.42-.18-.69-.23-.5a11,11,0,0,0,.19,2L1.27,162l.24.36-.42,8.54C1.71,177,2.64,182.27,2.9,192c-.47-2.4-.78-.51-1.34-.65.6-2.65-.24-7.51-.1-12.53-.06,2.62-.33,2.05-.41,1.39l.51,9c-.45-.21-.35,1.9-.55,4.24.92-1.77.6,6.67.87,10.32-.3.23-.62-.64-.54-5.09-.71,4.9,1.07,6.35.46,11.16a7.25,7.25,0,0,0-.11-2.1c.27,2.53.05,8.73-.24,7.27v-1.09c-.16,7.22,0,21.94.66,23-.11.06-.95-1-1.11-1.4a77.29,77.29,0,0,1,1.3,13ZM1.42,74.91a23.63,23.63,0,0,1-.08-4.41C1.74,71.85,1.55,72.88,1.42,74.91Zm.69,93a15.62,15.62,0,0,1,.1-3.79C2.24,165.26,2.21,166.53,2.11,167.93Z"/><path class="cls-1" d="M1.56,157.38a.75.75,0,0,1,.23-.5C1.72,156.41,1.64,156.4,1.56,157.38Z"/><path class="cls-1" d="M.43,84l.12.25a14.48,14.48,0,0,0,.16-2.81Z"/><path class="cls-1" d="M1,39.6v.77l.38-1.43Z"/><path class="cls-1" d="M.74,2.33c0,1.51,0,3.31,0,4.83C.72,3.84,1.18,1.91.74,2.33Z"/></g></g></svg>