<svg xmlns="http://www.w3.org/2000/svg" viewBox="0 0 392.8 5.51"><defs><style>.cls-1{fill:#75be87;}</style></defs><g id="Слой_2" data-name="Слой 2"><g id="Слой_1-2" data-name="Слой 1"><path class="cls-1" d="M368.51,2.47l-2.2.22C369.77,2.71,368.24,2.59,368.51,2.47Z"/><path class="cls-1" d="M97.24,1.38c-.19,0-.43,0-.61,0A2.43,2.43,0,0,0,97.24,1.38Z"/><path class="cls-1" d="M18.21,1c.77,0,2,0,3.25,0C20.88,1,19.9,1,18.21,1Z"/><path class="cls-1" d="M242.58,1.47l-.38,0C240.43,1.52,241.2,1.52,242.58,1.47Z"/><path class="cls-1" d="M392.8,4.5c-.05-.89-.09-1.65-.14-2.33,0-.4-.05-.78-.08-1.16l-.05-.53,0-.14s-.09,0-.14,0l-.31,0c-2-.07-.48-.13-.24-.18L385.19.11c-1.59,0-2.88,0-4.12,0-2.48.05-4.77.17-8.87.37l-.85-.25c-2.23.15-14.11-.35-23.68,0a4.11,4.11,0,0,1,1-.11c-10.77.3-25.77-.54-29.71.28l-7.1.21c9.19,0-1.37.34,2.41.47-3.62.05-9.35-.23-4.91-.26l.7,0c1.62-.41-11.42-.13-11.18-.4-18.07,0-35.72,0-52.65-.06l1.95.25h-5.91c-1.54-.05-2.08-.19,2.14-.19-1.11-.07-2.88,0-4.38,0s-2.75.14-2.81.16C229,.55,240.48.33,238,.33l-3.45,0,.78,0c-2.79.1-3,.21-8.1.21-3.2,0-1.64-.14-2.91-.15,0,0-.1,0-.41,0s-.77,0-1.54,0h-7.46l3,.16c-3.3.09-7,0-3.55.19-5-.29-27.77,0-30.88-.13-4.62.12-9.19.12-14.84.12,1.4,0,2.25.17-2.62.16C167.73.64,157,.83,153.08.62c3.53.14-13.86.08-8.33.24-4.08,0-.25-.1-3.34-.16-9.67.12-21.33,0-33.3.06-.19,0,1.82.06-.76.1L101,.74c-2.36,0-2.17.15-6.49.08.62,0,1.52,0-.06.06C71,.9,46.71,1,22.79,1,26,1,23.87,1,21.41,1c1.59,0,0,0,.27,0h-10L0,1.05H3.16c-4.21,0,5.87,0,5.26.05l20.1,0c1.71,0-1.44,0-.54,0h8.19l31.36.14-1-.05,5,.05c3.4-.08-8.34,0-5.23-.09,3.93.1,20.93,0,23.58.18,4.57,0-1.33-.08,3.22-.06l1.21,0,1.16,0c3,0,4.51.07,4.62.1H97.18c3.88.06,10.94,0,12.26,0l-4.37,0c12.46,0,27.65.12,39.69,0l-.92,0c9.2-.08,7.36.07,17.45,0h-.37c2,0,4.72-.07,7.47-.05-2.54.05,4.8.13,1.45.19,10-.08,4.93-.08,11.51-.27l1.51.1c2.24-.08,2.43-.13,7.47-.14-4.13.07,3.22.16-1.41.26,10.57.25,15.69-.19,20.55.16,4.86-.29-9.14-.19-6.42-.23-2.27-.1,4-.21,7.32-.18s5.75.4,14.25.41c-.84,0-.9,0-1.74,0,3.19.09,6.23-.1,10.13,0,2.19-.19,5.07,0,5.69-.23l-7.79,0c4.41-.06,8.57-.35,15.84-.2-.56.05-2.73.11-4.21.16,2.12.09,4.1-.05,6.31,0-.63.27-9.47,0-14.2.22,2.28.12,8.95-.16,6.57.12,3.41-.35,8.37.07,14.11-.21l-.38.17c.91,0,2.8-.11,4.47-.09l-3,.2c4.65-.17,9,.2,13.44.12-9.36,0-2.1-.22-6.06-.35,11.55-.21,6.64.48,19.56.44-1.75,0-6.57-.13-3.83-.21,2.46.05,5.72.14,7.21.24,8.57,0-1.32-.21,2.34-.31,2.91.24,4.2-.09,7.95-.15L297,2c9.76.17,2.59-.41,11.37-.23L304.69,2,309.26,2l-.95.24c5-.17,6.53-.11,11.41,0-1.13-.15.65-.39,5-.39,2.95.14-1.66.21,4.47.19a27,27,0,0,1-5.56.09c-.28.08-1.37.14-1.65.21,3.17.16,8,.06,10.19.07-.85,0-1.86,0-2.4-.06L338.6,2c1.4.09.29.15-.8.23,1.8,0,3-.12,5.68-.14-.69.18-.51.39-4.26.44l8.45-.17c.56.09,4.34.23,3.23.31,4.69.13,11.51-.33,17.72-.17.33,0,1-.07,2.29-.1,5.84.06,11,.34,17.95.08l.48,0,.15,0,.21.09s.12,0,.08.13a1.61,1.61,0,0,1-.12.23s.07.79.13.58a1.25,1.25,0,0,0,.1-.38A.76.76,0,0,1,390,3c.06-.13.14-.28.21-.19a1,1,0,0,1,.09.41c0,.53,0,1.28.07,2.31ZM223.64.42l1.17,0C222.17.51,222.91.46,223.64.42Z"/><path class="cls-1" d="M368.91,2.44h-.2a.47.47,0,0,0-.21.05Z"/><path class="cls-1" d="M5.1,1,1.51,1,3.83,1Z"/></g></g></svg>